<?xml version="1.0" encoding="utf-8"?>
<svg version="1.1" xmlns="http://www.w3.org/2000/svg" xmlns:xlink="http://www.w3.org/1999/xlink" x="0px" y="0px"
	 viewBox="0 0 128 1024" style="enable-background:new 0 0 128 1024;" xml:space="preserve">
<g id="H1_Acquisitions">
	<g>
		<path d="M116.82,1015.665l-104.798-10.126v-35.502l104.798-10.004v19.886l-16.958,1.464v12.688l16.958,1.22V1015.665z
			 M83.148,992.485v-9.517l-53.313,4.637v0.976L83.148,992.485z"/>
		<path d="M110.599,950.812c-4.799,4.596-11.387,6.893-19.765,6.893H42.522c-10.41,0-18.258-2.074-23.546-6.223
			c-5.286-4.147-7.93-10.654-7.93-19.52c0-7.727,2.115-13.948,6.344-18.666c4.229-4.717,10.33-7.076,18.3-7.076h18.056v20.862
			H38.253c-3.009,0-5.082,0.366-6.223,1.098c-1.138,0.731-1.708,1.994-1.708,3.782c0,1.872,0.652,3.152,1.952,3.843
			c1.302,0.692,3.214,1.037,5.734,1.037H90.59c2.767,0,4.779-0.405,6.039-1.22c1.263-0.812,1.892-2.032,1.892-3.66
			c0-3.252-2.643-4.88-7.931-4.88H71.681v-21.106h19.764c17.568,0,26.352,8.826,26.352,26.475
			C117.796,940.097,115.398,946.218,110.599,950.812z"/>
		<path d="M116.942,871.463c0.568,3.092,0.854,4.84,0.854,5.246c0,8.46-2.419,14.885-7.259,19.276
			c-4.838,4.392-11.935,6.588-21.289,6.588h-50.63c-9.027,0-15.879-2.216-20.557-6.649c-4.676-4.432-7.015-10.837-7.015-19.215
			c0-8.376,2.339-14.781,7.015-19.215c4.678-4.432,11.529-6.648,20.557-6.648h50.63c8.622,0,15.454,1.951,20.496,5.855l5.734-9.027
			l12.443,7.075L116.942,871.463z M95.593,872.805c-1.952-0.568-4.473-0.854-7.564-0.854H38.984c-2.684,0-4.798,0.347-6.344,1.037
			c-1.544,0.691-2.318,1.973-2.318,3.843c0,3.336,2.849,5.002,8.54,5.002h49.532c2.928,0,5.349-0.323,7.259-0.976
			c1.912-0.65,2.867-2.032,2.867-4.148C98.521,874.678,97.544,873.375,95.593,872.805z"/>
		<path d="M110.477,839.609c-4.88,4.19-12.118,6.283-21.716,6.283H12.022V825.52h75.884c3.336,0,5.938-0.324,7.808-0.977
			c1.872-0.65,2.807-2.031,2.807-4.148c0-2.113-0.915-3.496-2.745-4.147c-1.83-0.649-4.453-0.976-7.869-0.976H12.022v-20.375h76.738
			c9.598,0,16.836,2.096,21.716,6.283c4.88,4.19,7.319,10.596,7.319,19.215C117.796,829.018,115.356,835.422,110.477,839.609z"/>
		<path d="M116.82,790.541H12.022v-20.252H116.82V790.541z"/>
		<path d="M110.721,760.104c-4.717,4.23-12.322,6.344-22.814,6.344H77.658V745.83h13.054c5.206,0,7.809-1.666,7.809-5.002
			c0-1.871-0.549-3.172-1.647-3.904c-1.098-0.732-2.947-1.098-5.551-1.098c-3.416,0-6.241,0.408-8.479,1.22
			c-2.236,0.813-4.106,1.851-5.612,3.11c-1.504,1.263-3.843,3.52-7.015,6.771l-9.028,9.027
			c-6.832,6.996-14.396,10.492-22.692,10.492c-8.945,0-15.757-2.053-20.435-6.16c-4.676-4.106-7.015-10.105-7.015-17.995
			c0-9.435,2.501-16.226,7.503-20.374s12.831-6.223,23.484-6.223v21.351l-7.197,0.122c-1.383,0-2.48,0.387-3.294,1.158
			c-0.812,0.774-1.221,1.852-1.221,3.233c0,1.628,0.448,2.849,1.343,3.66c0.896,0.813,2.115,1.22,3.659,1.22
			c3.416,0,6.954-1.951,10.614-5.855l11.712-12.2c2.767-2.847,5.389-5.204,7.869-7.076c2.482-1.87,5.41-3.374,8.784-4.514
			c3.376-1.138,7.381-1.708,12.017-1.708c10.33,0,18.159,1.891,23.485,5.673c5.327,3.782,7.99,10.024,7.99,18.728
			C117.796,749.002,115.438,755.875,110.721,760.104z"/>
		<path d="M116.82,711.401H12.022v-20.252H116.82V711.401z"/>
		<path d="M116.82,675.461H32.152v12.444h-20.13v-45.872h20.13v12.444h84.668V675.461z"/>
		<path d="M116.82,638.91H12.022v-20.252H116.82V638.91z"/>
		<path d="M110.049,607.436c-5.163,4.393-12.423,6.588-21.776,6.588H38.375c-9.028,0-15.84-2.195-20.436-6.588
			c-4.594-4.392-6.893-10.815-6.893-19.275c0-8.458,2.299-14.884,6.893-19.275c4.596-4.393,11.407-6.588,20.436-6.588h49.897
			c9.436,0,16.714,2.195,21.838,6.588c5.124,4.392,7.686,10.817,7.686,19.275C117.796,596.62,115.215,603.044,110.049,607.436z
			 M96.08,584.378c-1.626-0.649-3.903-0.976-6.832-0.976H38.009c-2.276,0-4.127,0.305-5.551,0.915
			c-1.423,0.61-2.136,1.851-2.136,3.721c0,3.498,2.645,5.246,7.931,5.246H89.37c3.01,0,5.288-0.366,6.832-1.099
			c1.546-0.731,2.318-2.073,2.318-4.025C98.521,586.29,97.708,585.03,96.08,584.378z"/>
		<path d="M116.82,557.417H12.022v-21.594l50.143-9.638H12.022v-20.252H116.82v20.497l-52.46,10.492h52.46V557.417z"/>
		<path d="M110.721,495.418c-4.717,4.229-12.322,6.344-22.814,6.344H77.658v-20.618h13.054c5.206,0,7.809-1.666,7.809-5.002
			c0-1.87-0.549-3.172-1.647-3.904c-1.098-0.732-2.947-1.098-5.551-1.098c-3.416,0-6.241,0.408-8.479,1.22
			c-2.236,0.814-4.106,1.851-5.612,3.111c-1.504,1.262-3.843,3.519-7.015,6.771l-9.028,9.028
			c-6.832,6.996-14.396,10.492-22.692,10.492c-8.945,0-15.757-2.053-20.435-6.161c-4.676-4.106-7.015-10.105-7.015-17.995
			c0-9.434,2.501-16.226,7.503-20.374c5.002-4.148,12.831-6.222,23.484-6.222v21.35l-7.197,0.122c-1.383,0-2.48,0.387-3.294,1.159
			c-0.812,0.774-1.221,1.851-1.221,3.233c0,1.628,0.448,2.848,1.343,3.66c0.896,0.814,2.115,1.22,3.659,1.22
			c3.416,0,6.954-1.952,10.614-5.856l11.712-12.2c2.767-2.846,5.389-5.204,7.869-7.076c2.482-1.87,5.41-3.374,8.784-4.514
			c3.376-1.138,7.381-1.708,12.017-1.708c10.33,0,18.159,1.891,23.485,5.673c5.327,3.782,7.99,10.025,7.99,18.727
			C117.796,484.316,115.438,491.19,110.721,495.418z"/>
	</g>
</g>
</svg>
