<svg xmlns="http://www.w3.org/2000/svg" viewBox="0 0 128 1024"><path d="M116.82 1015.665l-104.798-10.126v-35.502l104.798-10.004v19.886l-16.958 1.464v12.688l16.958 1.22v20.374zm-33.672-23.18v-9.517l-53.313 4.637v.976l53.313 3.904zm27.451-41.673c-4.799 4.596-11.387 6.893-19.765 6.893H42.522c-10.41 0-18.258-2.074-23.546-6.223-5.286-4.147-7.93-10.654-7.93-19.52 0-7.727 2.115-13.948 6.344-18.666 4.229-4.717 10.33-7.076 18.3-7.076h18.056v20.862H38.253c-3.009 0-5.082.366-6.223 1.098-1.138.731-1.708 1.994-1.708 3.782 0 1.872.652 3.152 1.952 3.843 1.302.692 3.214 1.037 5.734 1.037H90.59c2.767 0 4.779-.405 6.039-1.22 1.263-.812 1.892-2.032 1.892-3.66 0-3.252-2.643-4.88-7.931-4.88H71.681v-21.106h19.764c17.568 0 26.352 8.826 26.352 26.475-.001 7.646-2.399 13.767-7.198 18.361zm6.343-79.349c.568 3.092.854 4.84.854 5.246 0 8.46-2.419 14.885-7.259 19.276-4.838 4.392-11.935 6.588-21.289 6.588h-50.63c-9.027 0-15.879-2.216-20.557-6.649-4.676-4.432-7.015-10.837-7.015-19.215 0-8.376 2.339-14.781 7.015-19.215 4.678-4.432 11.529-6.648 20.557-6.648h50.63c8.622 0 15.454 1.951 20.496 5.855l5.734-9.027 12.443 7.075-10.979 16.714zm-21.349 1.342c-1.952-.568-4.473-.854-7.564-.854H38.984c-2.684 0-4.798.347-6.344 1.037-1.544.691-2.318 1.973-2.318 3.843 0 3.336 2.849 5.002 8.54 5.002h49.532c2.928 0 5.349-.323 7.259-.976 1.912-.65 2.867-2.032 2.867-4.148.001-2.031-.976-3.334-2.927-3.904zm14.884-33.196c-4.88 4.19-12.118 6.283-21.716 6.283H12.022V825.52h75.884c3.336 0 5.938-.324 7.808-.977 1.872-.65 2.807-2.031 2.807-4.148 0-2.113-.915-3.496-2.745-4.147-1.83-.649-4.453-.976-7.869-.976H12.022v-20.375H88.76c9.598 0 16.836 2.096 21.716 6.283 4.88 4.19 7.319 10.596 7.319 19.215.001 8.623-2.439 15.027-7.318 19.214zm6.343-49.068H12.022v-20.252H116.82v20.252zm-6.099-30.437c-4.717 4.23-12.322 6.344-22.814 6.344H77.658V745.83h13.054c5.206 0 7.809-1.666 7.809-5.002 0-1.871-.549-3.172-1.647-3.904-1.098-.732-2.947-1.098-5.551-1.098-3.416 0-6.241.408-8.479 1.22-2.236.813-4.106 1.851-5.612 3.11-1.504 1.263-3.843 3.52-7.015 6.771l-9.028 9.027c-6.832 6.996-14.396 10.492-22.692 10.492-8.945 0-15.757-2.053-20.435-6.16-4.676-4.106-7.015-10.105-7.015-17.995 0-9.435 2.501-16.226 7.503-20.374s12.831-6.223 23.484-6.223v21.351l-7.197.122c-1.383 0-2.48.387-3.294 1.158-.812.774-1.221 1.852-1.221 3.233 0 1.628.448 2.849 1.343 3.66.896.813 2.115 1.22 3.659 1.22 3.416 0 6.954-1.951 10.614-5.855l11.712-12.2c2.767-2.847 5.389-5.204 7.869-7.076 2.482-1.87 5.41-3.374 8.784-4.514 3.376-1.138 7.381-1.708 12.017-1.708 10.33 0 18.159 1.891 23.485 5.673 5.327 3.782 7.99 10.024 7.99 18.728.001 9.516-2.357 16.389-7.074 20.618zm6.099-48.703H12.022v-20.252H116.82v20.252zm0-35.94H32.152v12.444h-20.13v-45.872h20.13v12.444h84.668v20.984zm0-36.551H12.022v-20.252H116.82v20.252zm-6.771-31.474c-5.163 4.393-12.423 6.588-21.776 6.588H38.375c-9.028 0-15.84-2.195-20.436-6.588-4.594-4.392-6.893-10.815-6.893-19.275 0-8.458 2.299-14.884 6.893-19.275 4.596-4.393 11.407-6.588 20.436-6.588h49.897c9.436 0 16.714 2.195 21.838 6.588 5.124 4.392 7.686 10.817 7.686 19.275 0 8.459-2.581 14.883-7.747 19.275zM96.08 584.378c-1.626-.649-3.903-.976-6.832-.976H38.009c-2.276 0-4.127.305-5.551.915-1.423.61-2.136 1.851-2.136 3.721 0 3.498 2.645 5.246 7.931 5.246H89.37c3.01 0 5.288-.366 6.832-1.099 1.546-.731 2.318-2.073 2.318-4.025.001-1.87-.812-3.13-2.44-3.782zm20.74-26.961H12.022v-21.594l50.143-9.638H12.022v-20.252H116.82v20.497l-52.46 10.492h52.46v20.495zm-6.099-61.999c-4.717 4.229-12.322 6.344-22.814 6.344H77.658v-20.618h13.054c5.206 0 7.809-1.666 7.809-5.002 0-1.87-.549-3.172-1.647-3.904-1.098-.732-2.947-1.098-5.551-1.098-3.416 0-6.241.408-8.479 1.22-2.236.814-4.106 1.851-5.612 3.111-1.504 1.262-3.843 3.519-7.015 6.771l-9.028 9.028c-6.832 6.996-14.396 10.492-22.692 10.492-8.945 0-15.757-2.053-20.435-6.161-4.676-4.106-7.015-10.105-7.015-17.995 0-9.434 2.501-16.226 7.503-20.374 5.002-4.148 12.831-6.222 23.484-6.222v21.35l-7.197.122c-1.383 0-2.48.387-3.294 1.159-.812.774-1.221 1.851-1.221 3.233 0 1.628.448 2.848 1.343 3.66.896.814 2.115 1.22 3.659 1.22 3.416 0 6.954-1.952 10.614-5.856l11.712-12.2c2.767-2.846 5.389-5.204 7.869-7.076 2.482-1.87 5.41-3.374 8.784-4.514 3.376-1.138 7.381-1.708 12.017-1.708 10.33 0 18.159 1.891 23.485 5.673 5.327 3.782 7.99 10.025 7.99 18.727.001 9.516-2.357 16.39-7.074 20.618z"/></svg>