<?xml version="1.0" encoding="utf-8"?>
<!-- Generator: Adobe Illustrator 23.1.0, SVG Export Plug-In . SVG Version: 6.00 Build 0)  -->
<!DOCTYPE svg PUBLIC "-//W3C//DTD SVG 1.1//EN" "http://www.w3.org/Graphics/SVG/1.1/DTD/svg11.dtd" [
	<!ENTITY ns_extend "http://ns.adobe.com/Extensibility/1.0/">
	<!ENTITY ns_ai "http://ns.adobe.com/AdobeIllustrator/10.0/">
	<!ENTITY ns_graphs "http://ns.adobe.com/Graphs/1.0/">
	<!ENTITY ns_vars "http://ns.adobe.com/Variables/1.0/">
	<!ENTITY ns_imrep "http://ns.adobe.com/ImageReplacement/1.0/">
	<!ENTITY ns_sfw "http://ns.adobe.com/SaveForWeb/1.0/">
	<!ENTITY ns_custom "http://ns.adobe.com/GenericCustomNamespace/1.0/">
	<!ENTITY ns_adobe_xpath "http://ns.adobe.com/XPath/1.0/">
]>
<svg version="1.1" id="Layer_1" xmlns:x="&ns_extend;" xmlns:i="&ns_ai;" xmlns:graph="&ns_graphs;"
	 xmlns="http://www.w3.org/2000/svg" xmlns:xlink="http://www.w3.org/1999/xlink" x="0px" y="0px" viewBox="0 0 300 690"
	 style="enable-background:new 0 0 300 690;" xml:space="preserve">
<metadata>
	<sfw  xmlns="&ns_sfw;">
		<slices></slices>
		<sliceSourceBounds  bottomLeftOrigin="true" height="621.97" width="209.28" x="482.86" y="-2976.99"></sliceSourceBounds>
	</sfw>
</metadata>
<g>
	<path style="fill:#FFFFFF;" d="M252.72,655.99L46.56,636.07v-69.84l206.16-19.68v39.12l-33.36,2.88v24.96l33.36,2.4V655.99z
		 M186.48,610.39v-18.72L81.6,600.79v1.92L186.48,610.39z"/>
	<path style="fill:#FFFFFF;" d="M247.32,528.17c-4.88,5.2-11.36,8.64-19.44,10.32c-8.08,1.68-18.44,2.52-31.08,2.52l-79.2-0.48
		c-12.48,0-22.68-3.16-30.6-9.48c-7.92-6.32-11.88-15.24-11.88-26.76c0-11.36,3.76-19.84,11.28-25.44H45.36v-42h207.36v42H234
		c6.88,2.4,12.04,5.64,15.48,9.72c3.44,4.08,5.16,9.56,5.16,16.44C254.64,515.25,252.2,522.97,247.32,528.17z M215.64,480.77
		c-4.08-1.28-9.56-1.92-16.44-1.92h-7.44h-66c-5.12,0-9.44,0.72-12.96,2.16c-3.52,1.44-5.28,4-5.28,7.68c0,4.16,1.64,6.92,4.92,8.28
		c3.28,1.36,7.72,2.04,13.32,2.04h73.92c14.72,0,22.08-3.36,22.08-10.08C221.76,484.77,219.72,482.05,215.64,480.77z"/>
	<path style="fill:#FFFFFF;" d="M241.08,420.36c-9.04,5.04-21.96,7.56-38.76,7.56c-13.76,0-24.32-1.8-31.68-5.4
		c-7.36-3.6-12.76-8.6-16.2-15c-3.44-6.4-7.24-16.16-11.4-29.28l-3.84-11.52h-0.48H121.2c-4.64,0-8.2,0.92-10.68,2.76
		c-2.48,1.84-3.72,4.04-3.72,6.6c0,2.24,1.04,4.2,3.12,5.88c2.08,1.68,4.88,2.52,8.4,2.52h10.56v40.8h-5.76
		c-17.28,0-29.6-4.04-36.96-12.12c-7.36-8.08-11.04-21.24-11.04-39.48c0-14.56,3.8-26.4,11.4-35.52
		c7.6-9.12,18.36-13.68,32.28-13.68h133.92v41.76h-20.88c7.2,2.08,12.8,5.4,16.8,9.96c4,4.56,6,9.96,6,16.2
		C254.64,406,250.12,415.32,241.08,420.36z M218.04,369c-2.64-1.36-5.88-2.04-9.72-2.04h-48.96c2.4,6.24,5.44,10.84,9.12,13.8
		c3.68,2.96,8.8,4.44,15.36,4.44h22.56c10.4,0,15.6-3.12,15.6-9.36C222,372.64,220.68,370.36,218.04,369z"/>
	<path style="fill:#FFFFFF;" d="M77.04,312.84V271.8h20.4c-7.52-1.92-13.12-5.2-16.8-9.84c-3.68-4.64-5.52-11.2-5.52-19.68
		c0-6.88,1.56-12.84,4.68-17.88s7.4-8.6,12.84-10.68c-6.08-3.52-10.52-7.44-13.32-11.76c-2.8-4.32-4.2-10.32-4.2-18
		c0-13.76,4.2-23.32,12.6-28.68c8.4-5.36,20.6-8.04,36.6-8.04l128.4,0.48v42.24H123.6c-11.36,0-17.04,2.88-17.04,8.64
		c0,4,1.96,6.88,5.88,8.64c3.92,1.76,8.6,2.64,14.04,2.64h126.24v42H123.6c-4.96,0-8.96,0.52-12,1.56c-3.04,1.04-4.56,3.24-4.56,6.6
		c0,4.32,2.12,7.36,6.36,9.12c4.24,1.76,9.32,2.64,15.24,2.64h124.08v41.04H77.04z"/>
	<path style="fill:#FFFFFF;" d="M201.84,138.89l-13.92-0.24v-42l20.64-0.24c4.16,0,7.32-0.8,9.48-2.4c2.16-1.6,3.24-4.24,3.24-7.92
		c0-5.6-4.56-8.4-13.68-8.4c-6.72,0-12,1.32-15.84,3.96c-3.84,2.64-7.92,6.84-12.24,12.6l-17.28,22.32
		c-5.92,7.68-12.04,13.2-18.36,16.56c-6.32,3.36-15.24,5.04-26.76,5.04c-8.96,0-16.6-2.36-22.92-7.08
		c-6.32-4.72-11.08-11-14.28-18.84c-3.2-7.84-4.8-16.56-4.8-26.16c0-34.08,16.96-51.12,50.88-51.12h3.36v43.44h-6.72
		c-4.16,0-7.72,0.68-10.68,2.04c-2.96,1.36-4.44,3.64-4.44,6.84c0,2.88,0.84,5.08,2.52,6.6c1.68,1.52,3.96,2.28,6.84,2.28
		c6.4,0,11.36-2.48,14.88-7.44l18.96-25.92c6.88-9.28,14.36-16.4,22.44-21.36c8.08-4.96,18.28-7.44,30.6-7.44
		c16.32,0,28.88,4.64,37.68,13.92c8.8,9.28,13.2,22.24,13.2,38.88C254.64,121.53,237.04,138.89,201.84,138.89z"/>
</g>
<g>
</g>
<g>
</g>
<g>
</g>
<g>
</g>
<g>
</g>
<g>
</g>
<g>
</g>
<g>
</g>
<g>
</g>
<g>
</g>
<g>
</g>
</svg>
