<?xml version="1.0" encoding="utf-8"?>
<svg version="1.1" xmlns="http://www.w3.org/2000/svg" xmlns:xlink="http://www.w3.org/1999/xlink" x="0px" y="0px"
	 viewBox="0 0 128 1024" style="enable-background:new 0 0 128 1024;" xml:space="preserve">
<g id="H1_Artistes">
	<g>
		<path d="M116.821,1015.707l-104.798-10.126v-35.502l104.798-10.004v19.886l-16.958,1.465v12.688l16.958,1.22V1015.707z
			 M83.149,992.527v-9.516l-53.314,4.635v0.977L83.149,992.527z"/>
		<path d="M12.023,956.222v-32.208c0-5.123,1.158-9.089,3.477-11.895c2.318-2.807,5.572-4.697,9.76-5.674
			c4.19-0.976,9.537-1.463,16.043-1.463c5.938,0,10.574,0.773,13.908,2.317c3.336,1.546,5.654,4.229,6.954,8.052
			c0.652-3.172,2.238-5.469,4.758-6.893c2.522-1.422,5.938-2.135,10.248-2.135l39.65,0.244v20.496H75.829
			c-2.928,0-4.798,0.569-5.612,1.707c-0.812,1.141-1.22,3.215-1.22,6.223h47.824v21.228H12.023z M50.819,929.87
			c0-2.929-3.172-4.392-9.517-4.392c-2.764,0-4.838,0.121-6.222,0.365c-1.382,0.244-2.337,0.691-2.867,1.342
			c-0.528,0.652-0.793,1.586-0.793,2.807v4.88h19.398V929.87z"/>
		<path d="M116.821,890.148H32.153v12.443h-20.13v-45.871h20.13v12.443h84.668V890.148z"/>
		<path d="M116.821,853.598H12.023v-20.252h104.798V853.598z"/>
		<path d="M110.722,823.16c-4.717,4.229-12.322,6.344-22.814,6.344H77.659v-20.619h13.054c5.206,0,7.809-1.666,7.809-5.002
			c0-1.869-0.549-3.172-1.647-3.903c-1.098-0.731-2.947-1.099-5.551-1.099c-3.416,0-6.241,0.408-8.479,1.221
			c-2.236,0.814-4.106,1.852-5.612,3.111c-1.505,1.262-3.844,3.519-7.016,6.771l-9.027,9.028
			c-6.832,6.996-14.396,10.492-22.692,10.492c-8.946,0-15.757-2.054-20.435-6.162c-4.677-4.105-7.016-10.104-7.016-17.994
			c0-9.434,2.501-16.227,7.503-20.374c5.002-4.148,12.831-6.222,23.485-6.222v21.35l-7.198,0.122c-1.382,0-2.479,0.387-3.294,1.159
			c-0.812,0.773-1.22,1.851-1.22,3.232c0,1.628,0.448,2.848,1.342,3.66c0.896,0.814,2.116,1.221,3.66,1.221
			c3.416,0,6.954-1.953,10.614-5.856l11.712-12.2c2.766-2.846,5.389-5.204,7.869-7.076c2.481-1.87,5.409-3.374,8.783-4.514
			c3.376-1.139,7.382-1.708,12.018-1.708c10.33,0,18.159,1.891,23.485,5.673c5.327,3.781,7.99,10.025,7.99,18.727
			C117.797,812.058,115.439,818.932,110.722,823.16z"/>
		<path d="M116.821,763.709H32.153v12.443h-20.13v-45.871h20.13v12.443h84.668V763.709z"/>
		<path d="M116.821,726.719H12.023v-41.968h20.252v20.618h20.374v-19.764h19.764v19.764h24.034v-21.96h20.374V726.719z"/>
		<path d="M110.722,674.078c-4.717,4.229-12.322,6.344-22.814,6.344H77.659v-20.618h13.054c5.206,0,7.809-1.666,7.809-5.002
			c0-1.87-0.549-3.172-1.647-3.903c-1.098-0.732-2.947-1.099-5.551-1.099c-3.416,0-6.241,0.408-8.479,1.22
			c-2.236,0.814-4.106,1.852-5.612,3.111c-1.505,1.262-3.844,3.52-7.016,6.771l-9.027,9.027
			c-6.832,6.996-14.396,10.492-22.692,10.492c-8.946,0-15.757-2.053-20.435-6.161c-4.677-4.106-7.016-10.104-7.016-17.995
			c0-9.434,2.501-16.226,7.503-20.373c5.002-4.148,12.831-6.223,23.485-6.223v21.35l-7.198,0.123c-1.382,0-2.479,0.387-3.294,1.158
			c-0.812,0.773-1.22,1.852-1.22,3.232c0,1.629,0.448,2.849,1.342,3.66c0.896,0.814,2.116,1.221,3.66,1.221
			c3.416,0,6.954-1.952,10.614-5.855l11.712-12.201c2.766-2.846,5.389-5.203,7.869-7.076c2.481-1.869,5.409-3.373,8.783-4.514
			c3.376-1.138,7.382-1.707,12.018-1.707c10.33,0,18.159,1.891,23.485,5.672c5.327,3.782,7.99,10.025,7.99,18.728
			C117.797,662.977,115.439,669.85,110.722,674.078z"/>
	</g>
</g>
</svg>
