<svg xmlns="http://www.w3.org/2000/svg" viewBox="0 0 128 1024"><path d="M116.821 1015.707l-104.798-10.126v-35.502l104.798-10.004v19.886l-16.958 1.465v12.688l16.958 1.22v20.373zm-33.672-23.18v-9.516l-53.314 4.635v.977l53.314 3.904zm-71.126-36.305v-32.208c0-5.123 1.158-9.089 3.477-11.895 2.318-2.807 5.572-4.697 9.76-5.674 4.19-.976 9.537-1.463 16.043-1.463 5.938 0 10.574.773 13.908 2.317 3.336 1.546 5.654 4.229 6.954 8.052.652-3.172 2.238-5.469 4.758-6.893 2.522-1.422 5.938-2.135 10.248-2.135l39.65.244v20.496H75.829c-2.928 0-4.798.569-5.612 1.707-.812 1.141-1.22 3.215-1.22 6.223h47.824v21.228H12.023zm38.796-26.352c0-2.929-3.172-4.392-9.517-4.392-2.764 0-4.838.121-6.222.365-1.382.244-2.337.691-2.867 1.342-.528.652-.793 1.586-.793 2.807v4.88h19.398v-5.002zm66.002-39.722H32.153v12.443h-20.13V856.72h20.13v12.443h84.668v20.985zm0-36.55H12.023v-20.252h104.798v20.252zm-6.099-30.438c-4.717 4.229-12.322 6.344-22.814 6.344H77.659v-20.619h13.054c5.206 0 7.809-1.666 7.809-5.002 0-1.869-.549-3.172-1.647-3.903-1.098-.731-2.947-1.099-5.551-1.099-3.416 0-6.241.408-8.479 1.221-2.236.814-4.106 1.852-5.612 3.111-1.505 1.262-3.844 3.519-7.016 6.771l-9.027 9.028c-6.832 6.996-14.396 10.492-22.692 10.492-8.946 0-15.757-2.054-20.435-6.162-4.677-4.105-7.016-10.104-7.016-17.994 0-9.434 2.501-16.227 7.503-20.374 5.002-4.148 12.831-6.222 23.485-6.222v21.35l-7.198.122c-1.382 0-2.479.387-3.294 1.159-.812.773-1.22 1.851-1.22 3.232 0 1.628.448 2.848 1.342 3.66.896.814 2.116 1.221 3.66 1.221 3.416 0 6.954-1.953 10.614-5.856l11.712-12.2c2.766-2.846 5.389-5.204 7.869-7.076 2.481-1.87 5.409-3.374 8.783-4.514 3.376-1.139 7.382-1.708 12.018-1.708 10.33 0 18.159 1.891 23.485 5.673 5.327 3.781 7.99 10.025 7.99 18.727.001 9.516-2.357 16.39-7.074 20.618zm6.099-59.451H32.153v12.443h-20.13v-45.871h20.13v12.443h84.668v20.985zm0-36.99H12.023v-41.968h20.252v20.618h20.374v-19.764h19.764v19.764h24.034v-21.96h20.374v43.31zm-6.099-52.641c-4.717 4.229-12.322 6.344-22.814 6.344H77.659v-20.618h13.054c5.206 0 7.809-1.666 7.809-5.002 0-1.87-.549-3.172-1.647-3.903-1.098-.732-2.947-1.099-5.551-1.099-3.416 0-6.241.408-8.479 1.22-2.236.814-4.106 1.852-5.612 3.111-1.505 1.262-3.844 3.52-7.016 6.771l-9.027 9.027c-6.832 6.996-14.396 10.492-22.692 10.492-8.946 0-15.757-2.053-20.435-6.161-4.677-4.106-7.016-10.104-7.016-17.995 0-9.434 2.501-16.226 7.503-20.373 5.002-4.148 12.831-6.223 23.485-6.223v21.35l-7.198.123c-1.382 0-2.479.387-3.294 1.158-.812.773-1.22 1.852-1.22 3.232 0 1.629.448 2.849 1.342 3.66.896.814 2.116 1.221 3.66 1.221 3.416 0 6.954-1.952 10.614-5.855l11.712-12.201c2.766-2.846 5.389-5.203 7.869-7.076 2.481-1.869 5.409-3.373 8.783-4.514 3.376-1.138 7.382-1.707 12.018-1.707 10.33 0 18.159 1.891 23.485 5.672 5.327 3.782 7.99 10.025 7.99 18.728.001 9.517-2.357 16.39-7.074 20.618z"/></svg>