<?xml version="1.0" encoding="utf-8"?>
<svg version="1.1" xmlns="http://www.w3.org/2000/svg" xmlns:xlink="http://www.w3.org/1999/xlink" x="0px" y="0px"
	 viewBox="0 0 128 1024" style="enable-background:new 0 0 128 1024;" xml:space="preserve">
<g id="H1_Ateliers">
	<g>
		<path d="M116.821,1015.553l-104.798-10.126v-35.502l104.798-10.004v19.886l-16.958,1.465v12.688l16.958,1.22V1015.553z
			 M83.149,992.373v-9.516l-53.314,4.635v0.977L83.149,992.373z"/>
		<path d="M116.821,949.516H32.153v12.444h-20.13v-45.872h20.13v12.444h84.668V949.516z"/>
		<path d="M116.821,912.525H12.023v-41.967h20.252v20.617h20.374v-19.764h19.764v19.764h24.034v-21.959h20.374V912.525z"/>
		<path d="M116.821,865.154H12.023v-20.983H99.01v-21.594h17.812V865.154z"/>
		<path d="M116.821,819.395H12.023v-20.252h104.798V819.395z"/>
		<path d="M116.821,794.031H12.023v-41.968h20.252v20.618h20.374v-19.764h19.764v19.764h24.034v-21.96h20.374V794.031z"/>
		<path d="M12.023,746.66v-32.207c0-5.124,1.158-9.09,3.477-11.895c2.318-2.807,5.572-4.697,9.76-5.674
			c4.19-0.977,9.537-1.464,16.043-1.464c5.938,0,10.574,0.774,13.908,2.317c3.336,1.547,5.654,4.23,6.954,8.053
			c0.652-3.172,2.238-5.469,4.758-6.893c2.522-1.423,5.938-2.136,10.248-2.136l39.65,0.244v20.496H75.829
			c-2.928,0-4.798,0.569-5.612,1.708c-0.812,1.14-1.22,3.214-1.22,6.223h47.824v21.227H12.023z M50.819,720.309
			c0-2.928-3.172-4.392-9.517-4.392c-2.764,0-4.838,0.122-6.222,0.366c-1.382,0.244-2.337,0.691-2.867,1.342
			c-0.528,0.652-0.793,1.586-0.793,2.806v4.88h19.398V720.309z"/>
		<path d="M110.722,685.882c-4.717,4.229-12.322,6.344-22.814,6.344H77.659v-20.618h13.054c5.206,0,7.809-1.666,7.809-5.002
			c0-1.87-0.549-3.172-1.647-3.904c-1.098-0.731-2.947-1.098-5.551-1.098c-3.416,0-6.241,0.408-8.479,1.221
			c-2.236,0.813-4.106,1.851-5.612,3.11c-1.505,1.263-3.844,3.519-7.016,6.771l-9.027,9.028
			c-6.832,6.996-14.396,10.492-22.692,10.492c-8.946,0-15.757-2.054-20.435-6.161c-4.677-4.105-7.016-10.105-7.016-17.994
			c0-9.435,2.501-16.227,7.503-20.375s12.831-6.222,23.485-6.222v21.351l-7.198,0.121c-1.382,0-2.479,0.387-3.294,1.159
			c-0.812,0.774-1.22,1.851-1.22,3.233c0,1.627,0.448,2.848,1.342,3.66c0.896,0.813,2.116,1.22,3.66,1.22
			c3.416,0,6.954-1.952,10.614-5.856l11.712-12.199c2.766-2.847,5.389-5.205,7.869-7.076c2.481-1.871,5.409-3.375,8.783-4.514
			c3.376-1.139,7.382-1.709,12.018-1.709c10.33,0,18.159,1.891,23.485,5.674c5.327,3.781,7.99,10.024,7.99,18.727
			C117.797,674.779,115.439,681.653,110.722,685.882z"/>
	</g>
</g>
</svg>
