<?xml version="1.0" encoding="UTF-8" standalone="no"?>
<!DOCTYPE svg PUBLIC "-//W3C//DTD SVG 1.1//EN" "http://www.w3.org/Graphics/SVG/1.1/DTD/svg11.dtd">
<svg width="100%" height="100%" viewBox="0 0 128 1024" version="1.1" xmlns="http://www.w3.org/2000/svg" xmlns:xlink="http://www.w3.org/1999/xlink" xml:space="preserve" xmlns:serif="http://www.serif.com/" style="fill-rule:evenodd;clip-rule:evenodd;stroke-linejoin:round;stroke-miterlimit:2;">
    <path d="M116.821,1015.55L12.023,1005.43L12.023,969.925L116.821,959.921L116.821,979.807L99.863,981.272L99.863,993.96L116.821,995.18L116.821,1015.55ZM83.149,992.373L83.149,982.857L29.835,987.492L29.835,988.469L83.149,992.373ZM116.821,949.516L32.153,949.516L32.153,961.96L12.023,961.96L12.023,916.088L32.153,916.088L32.153,928.532L116.821,928.532L116.821,949.516ZM116.821,912.525L12.023,912.525L12.023,870.558L32.275,870.558L32.275,891.175L52.649,891.175L52.649,871.411L72.413,871.411L72.413,891.175L96.447,891.175L96.447,869.216L116.821,869.216L116.821,912.525ZM116.822,865.154L12.023,865.154L12.023,844.171L99.01,844.171L99.01,822.577L116.822,822.577L116.822,865.154ZM116.821,819.395L12.023,819.395L12.023,799.143L116.821,799.143L116.821,819.395ZM116.821,794.031L12.023,794.031L12.023,752.063L32.275,752.063L32.275,772.681L52.649,772.681L52.649,752.917L72.413,752.917L72.413,772.681L96.447,772.681L96.447,750.721L116.821,750.721L116.821,794.031ZM12.023,746.66L12.023,714.453C12.023,709.329 13.181,705.363 15.5,702.558C17.818,699.751 21.072,697.861 25.26,696.884C29.45,695.907 34.797,695.42 41.303,695.42C47.241,695.42 51.877,696.194 55.211,697.737C58.547,699.284 60.865,701.967 62.165,705.79C62.817,702.618 64.403,700.321 66.923,698.897C69.445,697.474 72.861,696.761 77.171,696.761L116.821,697.005L116.821,717.501L75.829,717.501C72.901,717.501 71.031,718.07 70.217,719.209C69.405,720.349 68.997,722.423 68.997,725.432L116.821,725.432L116.821,746.659L12.023,746.659L12.023,746.66ZM50.819,720.309C50.819,717.381 47.647,715.917 41.302,715.917C38.538,715.917 36.464,716.039 35.08,716.283C33.698,716.527 32.743,716.974 32.213,717.625C31.685,718.277 31.42,719.211 31.42,720.431L31.42,725.311L50.818,725.311L50.818,720.309L50.819,720.309Z" style="fill-rule:nonzero;"/>
</svg>
