<svg xmlns="http://www.w3.org/2000/svg" viewBox="0 0 128 1024"><path d="M116.821 1015.553l-104.798-10.126v-35.502l104.798-10.004v19.886l-16.958 1.465v12.688l16.958 1.22v20.373zm-33.672-23.18v-9.516l-53.314 4.635v.977l53.314 3.904zm33.672-42.857H32.153v12.444h-20.13v-45.872h20.13v12.444h84.668v20.984zm0-36.991H12.023v-41.967h20.252v20.617h20.374v-19.764h19.764v19.764h24.034v-21.959h20.374v43.309zm0-47.371H12.023v-20.983H99.01v-21.594h17.812v42.577zm0-45.759H12.023v-20.252h104.798v20.252zm0-25.364H12.023v-41.968h20.252v20.618h20.374v-19.764h19.764v19.764h24.034v-21.96h20.374v43.31zM12.023 746.66v-32.207c0-5.124 1.158-9.09 3.477-11.895 2.318-2.807 5.572-4.697 9.76-5.674 4.19-.977 9.537-1.464 16.043-1.464 5.938 0 10.574.774 13.908 2.317 3.336 1.547 5.654 4.23 6.954 8.053.652-3.172 2.238-5.469 4.758-6.893 2.522-1.423 5.938-2.136 10.248-2.136l39.65.244v20.496H75.829c-2.928 0-4.798.569-5.612 1.708-.812 1.14-1.22 3.214-1.22 6.223h47.824v21.227H12.023zm38.796-26.351c0-2.928-3.172-4.392-9.517-4.392-2.764 0-4.838.122-6.222.366-1.382.244-2.337.691-2.867 1.342-.528.652-.793 1.586-.793 2.806v4.88h19.398v-5.002zm59.903-34.427c-4.717 4.229-12.322 6.344-22.814 6.344H77.659v-20.618h13.054c5.206 0 7.809-1.666 7.809-5.002 0-1.87-.549-3.172-1.647-3.904-1.098-.731-2.947-1.098-5.551-1.098-3.416 0-6.241.408-8.479 1.221-2.236.813-4.106 1.851-5.612 3.11-1.505 1.263-3.844 3.519-7.016 6.771l-9.027 9.028c-6.832 6.996-14.396 10.492-22.692 10.492-8.946 0-15.757-2.054-20.435-6.161-4.677-4.105-7.016-10.105-7.016-17.994 0-9.435 2.501-16.227 7.503-20.375s12.831-6.222 23.485-6.222v21.351l-7.198.121c-1.382 0-2.479.387-3.294 1.159-.812.774-1.22 1.851-1.22 3.233 0 1.627.448 2.848 1.342 3.66.896.813 2.116 1.22 3.66 1.22 3.416 0 6.954-1.952 10.614-5.856l11.712-12.199c2.766-2.847 5.389-5.205 7.869-7.076 2.481-1.871 5.409-3.375 8.783-4.514 3.376-1.139 7.382-1.709 12.018-1.709 10.33 0 18.159 1.891 23.485 5.674 5.327 3.781 7.99 10.024 7.99 18.727.001 9.514-2.357 16.388-7.074 20.617z"/></svg>