<?xml version="1.0" encoding="UTF-8" standalone="yes"?>
<svg width="100%" height="100%" viewBox="0 0 31250 31250" version="1.2" xml:space="preserve" fill-rule="evenodd" stroke-linejoin="round" stroke-miterlimit="2" baseProfile="tiny-ps" xmlns="http://www.w3.org/2000/svg">
  <title>Espace 230 / Art contemporain</title>
  <rect id="Background" x="-0" y="-0" width="31250" height="31250" fill="#fff"/>
  <g id="Espace-230-Art-contemporain-Logotype">
    <g id="Contemporary-Art">
      <path d="M16705.1,18385c-14.928,-109.243 -99.065,-173.025 -208.987,-173.025c-128.921,-0 -225.951,93.637 -225.951,253.092c-0,159.455 96.351,253.77 225.951,253.77c117.385,0 195.417,-75.995 208.987,-170.311l-90.244,0c-10.857,57.675 -58.354,90.245 -117.386,90.245c-80.067,-0 -137.063,-60.39 -137.063,-173.704c-0,-111.279 56.996,-173.026 137.063,-173.026c60.389,0 107.208,33.927 117.386,92.959l90.244,0Z" fill="#000" fill-rule="nonzero"/>
      <path d="M17433.6,18465.1c-0,-159.455 -97.709,-253.092 -227.308,-253.092c-129.599,-0 -226.629,93.637 -226.629,253.092c-0,159.455 97.03,253.77 226.629,253.77c129.599,0 227.308,-94.315 227.308,-253.77Zm-90.245,-0c0,112.636 -56.318,173.704 -137.063,173.704c-80.067,-0 -136.385,-61.068 -136.385,-173.704c0,-111.958 56.318,-173.026 136.385,-173.026c80.745,0 137.063,61.068 137.063,173.026Z" fill="#000" fill-rule="nonzero"/>
      <path d="M18128.3,18218.8l-88.888,0l0,335.873l-4.071,-0l-232.058,-335.873l-80.066,0l-0,493.292l88.887,-0l0,-335.873l4.75,0l232.057,335.873l79.389,-0l-0,-493.292Z" fill="#000" fill-rule="nonzero"/>
      <path d="M18409.1,18293.4l152.669,-0l0,418.653l88.209,-0l0,-418.653l152.67,-0l-0,-74.639l-393.548,0l-0,74.639Z" fill="#000" fill-rule="nonzero"/>
      <path d="M19083.4,18712.1l322.98,-0l0,-74.638l-234.093,-0l0,-135.028l215.094,-0l0,-74.638l-215.094,-0l0,-134.349l232.058,-0l-0,-74.639l-320.945,0l-0,493.292Z" fill="#000" fill-rule="nonzero"/>
      <path d="M19700.6,18218.8l-0,493.292l85.495,-0l-0,-339.944l4.749,0l136.385,338.587l63.782,-0l136.385,-337.908l4.749,-0l0,339.265l86.174,-0l-0,-493.292l-109.922,0l-146.563,357.586l-5.428,-0l-146.563,-357.586l-109.243,0Z" fill="#000" fill-rule="nonzero"/>
      <path d="M20520.5,18712.1l88.888,-0l-0,-166.919l94.994,0c113.993,0 175.061,-68.531 175.061,-163.525c0,-93.638 -60.389,-162.848 -174.382,-162.848l-184.561,0l0,493.292Zm88.888,-240.2l-0,-178.453l82.102,-0c67.175,-0 97.03,35.962 97.03,88.209c0,52.925 -29.855,90.244 -96.351,90.244l-82.781,0Z" fill="#000" fill-rule="nonzero"/>
      <path d="M21603,18465.1c-0,-159.455 -97.709,-253.092 -227.308,-253.092c-129.6,-0 -226.629,93.637 -226.629,253.092c-0,159.455 97.029,253.77 226.629,253.77c129.599,0 227.308,-94.315 227.308,-253.77Zm-90.245,-0c0,112.636 -56.318,173.704 -137.063,173.704c-80.067,-0 -136.385,-61.068 -136.385,-173.704c0,-111.958 56.318,-173.026 136.385,-173.026c80.745,0 137.063,61.068 137.063,173.026Z" fill="#000" fill-rule="nonzero"/>
      <path d="M21892.7,18712.1l88.888,-0l-0,-180.489l91.602,-0l96.351,180.489l99.744,-0l-106.529,-195.417c58.353,-23.748 88.887,-73.281 88.887,-140.456c0,-94.315 -61.068,-157.419 -174.382,-157.419l-184.561,0l0,493.292Zm88.888,-255.128l-0,-163.525l82.102,-0c67.175,-0 97.03,30.533 97.03,82.78c0,52.926 -29.855,80.745 -96.351,80.745l-82.781,0Z" fill="#000" fill-rule="nonzero"/>
      <path d="M22602.2,18712.1l40.712,-121.457l185.917,-0l40.712,121.457l95.673,-0l-174.383,-493.292l-109.922,0l-173.704,493.292l94.995,-0Zm65.139,-193.381l66.496,-198.81l4.071,0l66.496,198.81l-137.063,-0Z" fill="#000" fill-rule="nonzero"/>
      <path d="M23234.9,18712.1l88.887,-0l0,-180.489l91.602,-0l96.351,180.489l99.744,-0l-106.529,-195.417c58.354,-23.748 88.888,-73.281 88.888,-140.456c-0,-94.315 -61.068,-157.419 -174.383,-157.419l-184.56,0l-0,493.292Zm88.887,-255.128l0,-163.525l82.103,-0c67.174,-0 97.029,30.533 97.029,82.78c0,52.926 -29.855,80.745 -96.351,80.745l-82.781,0Z" fill="#000" fill-rule="nonzero"/>
      <path d="M23828.4,18218.8l179.811,309.41l0,183.882l88.888,-0l-0,-183.882l179.81,-309.41l-101.101,0l-120.778,217.809l-4.75,-0l-120.778,-217.809l-101.102,0Z" fill="#000" fill-rule="nonzero"/>
      <path d="M25018.2,18712.1l40.712,-121.457l185.918,-0l40.711,121.457l95.673,-0l-174.382,-493.292l-109.922,0l-173.704,493.292l94.994,-0Zm65.139,-193.381l66.496,-198.81l4.071,0l66.497,198.81l-137.064,-0Z" fill="#000" fill-rule="nonzero"/>
      <path d="M25651.1,18712.1l88.888,-0l-0,-180.489l91.601,-0l96.352,180.489l99.744,-0l-106.53,-195.417c58.354,-23.748 88.888,-73.281 88.888,-140.456c-0,-94.315 -61.068,-157.419 -174.382,-157.419l-184.561,0l0,493.292Zm88.888,-255.128l-0,-163.525l82.102,-0c67.175,-0 97.03,30.533 97.03,82.78c-0,52.926 -29.855,80.745 -96.351,80.745l-82.781,0Z" fill="#000" fill-rule="nonzero"/>
      <path d="M26275.8,18293.4l152.67,-0l-0,418.653l88.209,-0l-0,-418.653l152.669,-0l0,-74.639l-393.548,0l0,74.639Z" fill="#000" fill-rule="nonzero"/>
    </g>
    <g>
      <path d="M15642.8,18197.8l-76.674,0l-158.777,590.322l76.674,0l158.777,-590.322Z" fill="#000" fill-rule="nonzero"/>
    </g>
    <g id="Art-contemporain">
      <path d="M4677.5,18714.2l40.712,-121.457l185.917,0l40.712,121.457l95.673,0l-174.382,-493.291l-109.922,-0l-173.704,493.291l94.994,0Zm65.139,-193.381l66.496,-198.809l4.071,-0l66.496,198.809l-137.063,0Z" fill="#000" fill-rule="nonzero"/>
      <path d="M5310.38,18714.2l88.887,0l0,-180.489l91.602,0l96.351,180.489l99.744,0l-106.529,-195.417c58.354,-23.748 88.888,-73.281 88.888,-140.455c-0,-94.316 -61.068,-157.419 -174.383,-157.419l-184.56,-0l-0,493.291Zm88.887,-255.127l0,-163.526l82.103,-0c67.174,-0 97.029,30.534 97.029,82.781c0,52.925 -29.855,80.745 -96.351,80.745l-82.781,-0Z" fill="#000" fill-rule="nonzero"/>
      <path d="M5935.01,18295.5l152.669,-0l0,418.653l88.209,0l0,-418.653l152.67,-0l-0,-74.638l-393.548,-0l-0,74.638Z" fill="#000" fill-rule="nonzero"/>
      <path d="M7441.27,18387.1c-14.928,-109.244 -99.065,-173.026 -208.987,-173.026c-128.921,0 -225.951,93.637 -225.951,253.092c-0,159.455 96.351,253.771 225.951,253.771c117.385,-0 195.416,-75.996 208.987,-170.312l-90.245,0c-10.856,57.676 -58.353,90.245 -117.385,90.245c-80.067,0 -137.064,-60.389 -137.064,-173.704c0,-111.279 56.997,-173.025 137.064,-173.025c60.389,-0 107.207,33.926 117.385,92.959l90.245,-0Z" fill="#000" fill-rule="nonzero"/>
      <path d="M8169.74,18467.2c-0,-159.455 -97.709,-253.092 -227.308,-253.092c-129.599,0 -226.629,93.637 -226.629,253.092c-0,159.455 97.03,253.771 226.629,253.771c129.599,-0 227.308,-94.316 227.308,-253.771Zm-90.245,0c0,112.636 -56.318,173.704 -137.063,173.704c-80.067,0 -136.385,-61.068 -136.385,-173.704c0,-111.957 56.318,-173.025 136.385,-173.025c80.745,-0 137.063,61.068 137.063,173.025Z" fill="#000" fill-rule="nonzero"/>
      <path d="M8864.46,18220.9l-88.887,-0l-0,335.872l-4.071,0l-232.058,-335.872l-80.066,-0l-0,493.291l88.887,0l0,-335.872l4.75,-0l232.057,335.872l79.388,0l0,-493.291Z" fill="#000" fill-rule="nonzero"/>
      <path d="M9145.21,18295.5l152.67,-0l-0,418.653l88.209,0l-0,-418.653l152.669,-0l0,-74.638l-393.548,-0l0,74.638Z" fill="#000" fill-rule="nonzero"/>
      <path d="M9819.53,18714.2l322.981,0l-0,-74.638l-234.094,-0l0,-135.028l215.095,0l-0,-74.638l-215.095,-0l0,-134.349l232.058,-0l-0,-74.638l-320.945,-0l-0,493.291Z" fill="#000" fill-rule="nonzero"/>
      <path d="M10436.7,18220.9l-0,493.291l85.494,0l0,-339.944l4.75,0l136.385,338.587l63.782,0l136.384,-337.908l4.75,-0l0,339.265l86.173,0l0,-493.291l-109.921,-0l-146.563,357.585l-5.428,0l-146.563,-357.585l-109.243,-0Z" fill="#000" fill-rule="nonzero"/>
      <path d="M11256.6,18714.2l88.888,0l-0,-166.918l94.994,-0c113.993,-0 175.061,-68.532 175.061,-163.526c-0,-93.637 -60.389,-162.847 -174.382,-162.847l-184.561,-0l0,493.291Zm88.888,-240.2l-0,-178.453l82.102,-0c67.174,-0 97.03,35.962 97.03,88.209c-0,52.925 -29.856,90.244 -96.352,90.244l-82.78,0Z" fill="#000" fill-rule="nonzero"/>
      <path d="M12339.1,18467.2c0,-159.455 -97.708,-253.092 -227.308,-253.092c-129.599,0 -226.629,93.637 -226.629,253.092c0,159.455 97.03,253.771 226.629,253.771c129.6,-0 227.308,-94.316 227.308,-253.771Zm-90.244,0c-0,112.636 -56.318,173.704 -137.064,173.704c-80.066,0 -136.384,-61.068 -136.384,-173.704c-0,-111.957 56.318,-173.025 136.384,-173.025c80.746,-0 137.064,61.068 137.064,173.025Z" fill="#000" fill-rule="nonzero"/>
      <path d="M12628.8,18714.2l88.888,0l-0,-180.489l91.601,0l96.352,180.489l99.744,0l-106.53,-195.417c58.354,-23.748 88.888,-73.281 88.888,-140.455c-0,-94.316 -61.068,-157.419 -174.382,-157.419l-184.561,-0l0,493.291Zm88.888,-255.127l-0,-163.526l82.102,-0c67.174,-0 97.03,30.534 97.03,82.781c-0,52.925 -29.856,80.745 -96.352,80.745l-82.78,-0Z" fill="#000" fill-rule="nonzero"/>
      <path d="M13338.2,18714.2l40.712,-121.457l185.918,0l40.712,121.457l95.672,0l-174.382,-493.291l-109.922,-0l-173.704,493.291l94.994,0Zm65.139,-193.381l66.496,-198.809l4.072,-0l66.496,198.809l-137.064,0Z" fill="#000" fill-rule="nonzero"/>
    </g>
		<g>
			<rect x="13971.1" y="18220.9" width="89.566" height="493.292"/>
			<path d="M14767.6,18220.9l-88.888,-0l0,335.872l-4.071,0l-232.058,-335.872l-80.066,-0l-0,493.291l88.887,0l0,-335.872l4.75,-0l232.058,335.872l79.388,0l-0,-493.291Z" fill="#000" fill-rule="nonzero"/>
		</g>
    <g id="ESPACE-230">
      <path d="M4584.77,16936.1l-0,-4426.75l1772.76,-0l0,855.461l-870.921,-0l0,860.614l834.847,-0l0,834.847l-834.847,0l0,1015.22l927.608,-0l0,860.614l-1829.45,-0Z" fill="#000" fill-rule="nonzero"/>
      <path d="M7707.72,16977.3c-401.963,-0 -690.553,-97.914 -870.921,-298.896c-180.368,-200.982 -267.975,-520.491 -267.975,-963.682l-0,-432.884l870.921,0l-0,551.412c-0,221.595 72.147,329.816 211.288,329.816c77.301,0 133.988,-20.613 164.908,-66.994c30.92,-46.38 46.381,-128.834 46.381,-237.055c-0,-144.295 -15.461,-262.822 -51.534,-360.737c-36.074,-92.76 -77.301,-170.061 -128.835,-231.902c-56.687,-66.994 -149.448,-164.908 -288.589,-298.896l-381.35,-381.35c-293.742,-288.589 -443.19,-608.098 -443.19,-958.528c-0,-376.197 87.607,-664.786 257.668,-860.614c175.215,-200.982 427.731,-298.896 762.7,-298.896c396.811,-0 685.4,108.221 860.615,319.509c175.215,211.289 262.822,541.105 262.822,989.449l-901.841,-0l-5.154,-304.049c0,-56.688 -15.46,-103.068 -51.533,-139.142c-30.921,-36.073 -77.301,-51.533 -133.988,-51.533c-66.994,-0 -118.528,20.613 -154.602,56.687c-36.073,36.073 -51.533,87.607 -51.533,154.601c-0,144.295 82.454,293.743 247.362,448.344l515.338,494.724c118.527,118.528 221.595,226.749 298.896,334.97c77.3,103.068 144.294,226.749 190.675,371.043c46.38,139.141 72.147,309.203 72.147,505.031c-0,438.037 -77.301,767.854 -237.056,994.602c-159.754,221.596 -427.73,334.97 -793.62,334.97Z" fill="#000" fill-rule="nonzero"/>
      <path d="M8980.6,12509.3l1169.82,-0c355.583,-0 608.098,113.374 757.546,345.276c149.448,226.749 226.749,561.718 226.749,999.756c-0,438.037 -66.994,773.006 -200.982,994.602c-133.988,221.595 -376.197,334.969 -721.473,334.969l-360.736,0l-0,1752.15l-870.921,-0l-0,-4426.75Zm922.454,1875.83c108.221,-0 185.522,-20.614 237.056,-61.841c46.38,-36.074 82.454,-92.761 97.914,-164.908c15.46,-77.301 20.613,-180.368 20.613,-319.51c0,-185.521 -20.613,-319.509 -61.84,-401.963c-41.227,-82.454 -123.681,-123.681 -247.362,-123.681l-97.914,-0l-0,1071.9l51.533,-0Z" fill="#000" fill-rule="nonzero"/>
      <path d="M11114.1,16936.1l427.731,-4426.75l1499.63,-0l422.577,4426.75l-840.001,-0l-61.84,-716.32l-535.952,0l-51.533,716.32l-860.615,-0Zm979.142,-1422.33l401.964,0l-195.829,-2252.03l-41.227,0l-164.908,2252.03Z" fill="#000" fill-rule="nonzero"/>
      <path d="M14685.4,16977.3c-324.663,-0 -582.332,-103.068 -778.161,-304.049c-190.675,-200.982 -288.589,-479.265 -288.589,-834.848l0,-2040.74c0,-438.037 87.608,-773.006 262.823,-994.602c175.214,-221.595 448.343,-334.969 824.54,-334.969c324.663,-0 587.485,87.607 788.467,267.976c200.982,180.368 298.896,438.037 298.896,773.006l-0,762.7l-881.228,0l0,-654.479c0,-128.834 -15.46,-216.442 -46.38,-262.822c-30.92,-46.38 -82.454,-72.147 -159.755,-72.147c-77.301,-0 -133.988,25.767 -164.908,82.454c-25.767,56.687 -41.227,133.988 -41.227,242.208l-0,2221.11c-0,118.527 15.46,200.981 51.534,252.515c36.073,56.687 87.607,82.454 154.601,82.454c139.141,0 206.135,-113.374 206.135,-334.969l0,-798.774l891.535,-0l-0,834.847c-0,742.087 -371.044,1113.13 -1118.28,1113.13Z" fill="#000" fill-rule="nonzero"/>
      <path d="M16045.9,16936.1l0,-4426.75l1772.76,-0l-0,855.461l-870.921,-0l-0,860.614l834.847,-0l-0,834.847l-834.847,0l-0,1015.22l927.608,-0l-0,860.614l-1829.45,-0Z" fill="#000" fill-rule="nonzero"/>
      <path d="M19336.4,16724.8c0,-200.981 30.92,-391.656 97.914,-561.718c61.841,-170.061 139.142,-324.663 231.902,-463.804c92.761,-139.141 216.442,-298.896 365.89,-484.417c154.602,-190.675 278.283,-355.584 371.044,-489.571c87.607,-133.988 164.908,-288.59 231.902,-463.804c61.84,-170.062 92.76,-360.737 92.76,-561.719c0,-118.527 -15.46,-216.442 -51.533,-283.436c-36.074,-66.993 -97.915,-97.914 -185.522,-97.914c-149.448,0 -221.595,133.988 -221.595,396.81l-0,541.105l-932.762,0l-10.307,-273.129c0,-334.97 36.074,-613.252 103.068,-829.694c66.994,-216.442 190.675,-381.35 360.737,-494.724c170.061,-113.374 407.116,-170.062 711.166,-170.062c371.043,0 659.632,103.068 860.614,314.356c200.982,206.136 304.049,499.878 304.049,881.228c0,242.209 -36.073,463.804 -103.067,659.633c-66.994,200.981 -149.448,371.043 -242.209,520.491c-103.068,149.448 -231.902,319.509 -391.657,520.491c-118.528,139.141 -211.288,267.976 -288.589,376.197c-82.454,108.221 -149.448,221.595 -211.289,340.123l1205.89,-0l-0,834.847l-2298.41,-0l0,-211.289Z" fill="#000" fill-rule="nonzero"/>
      <path d="M22943.7,16987.6c-386.503,-0 -669.939,-103.068 -850.307,-309.203c-180.369,-200.982 -267.976,-515.338 -267.976,-932.761l-0,-463.805l906.995,0l-0,463.805c-0,133.987 15.46,237.055 51.533,309.202c36.074,77.301 103.068,113.375 206.136,113.375c72.147,-0 123.681,-25.767 159.754,-77.301c30.921,-51.534 51.534,-113.374 56.687,-185.522c5.154,-66.994 10.307,-170.061 10.307,-304.049l0,-108.221c0,-381.35 -123.681,-572.025 -376.196,-572.025c-46.381,-0 -72.148,-0 -87.608,5.153l0,-793.62c159.755,0 278.283,-36.074 355.583,-103.068c77.301,-72.147 118.528,-185.521 118.528,-340.122c-0,-252.516 -72.147,-376.197 -216.442,-376.197c-87.607,-0 -149.448,20.613 -175.215,66.994c-25.767,46.38 -41.227,103.067 -51.534,170.061c-5.153,66.994 -10.306,118.528 -15.46,149.448l0,133.988l-917.301,0l-5.153,-154.601c5.153,-407.117 97.914,-700.86 288.589,-891.535c190.675,-190.675 479.264,-288.589 870.921,-288.589c752.393,0 1128.59,391.657 1128.59,1180.12c-0,231.902 -30.921,412.27 -92.761,551.411c-61.841,133.988 -170.062,226.749 -319.51,283.436c123.681,61.841 216.442,139.141 273.129,231.902c61.841,87.608 103.068,200.982 123.681,329.816c15.461,128.835 25.767,304.05 25.767,525.645c0,458.651 -92.761,803.927 -283.436,1035.83c-195.828,231.902 -499.877,350.43 -917.301,350.43Z" fill="#000" fill-rule="nonzero"/>
      <path d="M25494.6,16977.3c-376.196,-0 -664.785,-103.068 -865.767,-319.51c-200.982,-211.288 -304.049,-510.184 -304.049,-901.841l-0,-1999.51c-0,-417.423 97.914,-736.933 293.742,-958.528c195.828,-221.595 489.571,-329.816 876.074,-329.816c391.657,-0 685.4,108.221 881.228,329.816c195.829,221.595 293.743,541.105 293.743,958.528l-0,1999.51c-0,396.81 -103.068,695.706 -304.05,906.995c-200.981,211.288 -494.724,314.356 -870.921,314.356Zm0,-814.234c66.994,0 118.528,-30.92 159.755,-92.761c41.227,-56.687 61.841,-128.834 61.841,-211.288l-0,-2185.03c-0,-128.834 -15.46,-221.595 -46.381,-288.589c-25.767,-66.994 -87.607,-103.067 -175.215,-103.067c-87.607,-0 -149.448,36.073 -175.214,103.067c-25.767,66.994 -41.227,159.755 -41.227,288.589l-0,2185.03c-0,82.454 20.613,154.601 56.687,216.442c41.227,56.687 92.761,87.607 159.754,87.607Z" fill="#000" fill-rule="nonzero"/>
    </g>
    <rect id="Line" x="4579.17" y="17643.3" width="22091.7" height="157.825"/>
  </g>
</svg>