<?xml version="1.0" encoding="UTF-8" standalone="no"?>
<!DOCTYPE svg PUBLIC "-//W3C//DTD SVG 1.1//EN" "http://www.w3.org/Graphics/SVG/1.1/DTD/svg11.dtd">
<svg width="100%" height="100%" viewBox="0 0 2205 1400" version="1.1" xmlns="http://www.w3.org/2000/svg" xmlns:xlink="http://www.w3.org/1999/xlink" xml:space="preserve" xmlns:serif="http://www.serif.com/" style="fill-rule:evenodd;clip-rule:evenodd;stroke-linejoin:round;stroke-miterlimit:2;">
    <g transform="matrix(1,0,0,1,-669.6,-575)">
        <g transform="matrix(4.16667,0,0,4.16667,0,0)">
            <g transform="matrix(0.216178,0,0,0.24,68.468,0)">
                <rect x="426.667" y="575" width="2447.5" height="1400" style="fill:none;"/>
            </g>
        </g>
        <g transform="matrix(4.16667,0,0,4.16667,0,0)">
            <rect x="414.831" y="323.28" width="1" height="92.232" style="fill:#231f20;fill-rule:nonzero;"/>
        </g>
        <g transform="matrix(4.16667,0,0,4.16667,0,0)">
            <path d="M224.855,259.983L224.855,196.32L234.81,206.273L224.855,259.983Z" style="fill:#ef3d42;fill-rule:nonzero;"/>
        </g>
        <g transform="matrix(4.16667,0,0,4.16667,0,0)">
            <path d="M244.761,216.224L253.518,224.981L224.855,287.865L224.855,279.356L244.761,216.224Z" style="fill:#ef3d42;fill-rule:nonzero;"/>
        </g>
        <g transform="matrix(4.16667,0,0,4.16667,0,0)">
            <path d="M260.948,232.412L269.557,241.021L224.855,296.222L224.855,292.481L260.948,232.412Z" style="fill:#ef3d42;fill-rule:nonzero;"/>
        </g>
        <g transform="matrix(4.16667,0,0,4.16667,0,0)">
            <path d="M228.139,298.258L224.855,298.258L326.801,196.313L326.801,226.581L228.139,298.258Z" style="fill:#fcb131;fill-rule:nonzero;"/>
        </g>
        <g transform="matrix(4.16667,0,0,4.16667,0,0)">
            <path d="M230.935,298.261L239.447,298.261L326.8,265.601L326.8,241.79L230.935,298.261Z" style="fill:#007ac2;fill-rule:nonzero;"/>
        </g>
        <g transform="matrix(4.16667,0,0,4.16667,0,0)">
            <path d="M247.571,298.258L326.8,298.258L326.8,276.287L247.571,298.258Z" style="fill:#007ac2;fill-rule:nonzero;"/>
        </g>
        <g transform="matrix(4.16667,0,0,4.16667,0,0)">
            <path d="M364.391,414.204C364.391,413.553 363.945,412.903 363.09,412.903L355.043,412.903L355.043,392.939C355.043,392.082 354.392,391.638 353.741,391.638C353.091,391.638 352.439,392.082 352.439,392.939L352.439,414.204C352.439,414.889 353.057,415.505 353.741,415.505L363.09,415.505C363.945,415.505 364.391,414.854 364.391,414.204ZM343.435,407.253L336.62,407.253L340.011,396.295L343.435,407.253ZM348.331,414.443C348.331,414.307 348.297,414.17 348.263,414.033L341.586,392.597C341.38,391.981 340.729,391.638 340.011,391.638C339.325,391.638 338.675,391.981 338.47,392.597L331.792,414.033C331.758,414.17 331.724,414.307 331.724,414.443C331.724,415.128 332.271,415.709 333.059,415.709C333.573,415.709 334.052,415.437 334.258,414.786L335.799,409.855L344.257,409.855L345.763,414.786C345.969,415.437 346.481,415.709 346.995,415.709C347.782,415.709 348.331,415.128 348.331,414.443ZM329.669,414.204C329.669,413.553 329.259,412.903 328.368,412.903L318.952,412.903L318.952,404.581L325.491,404.581C326.348,404.581 326.792,403.931 326.792,403.281C326.792,402.63 326.348,401.979 325.491,401.979L318.952,401.979L318.952,394.446L328.368,394.446C329.259,394.446 329.669,393.795 329.669,393.145C329.669,392.494 329.259,391.844 328.368,391.844L317.65,391.844C316.966,391.844 316.349,392.459 316.349,393.145L316.349,414.204C316.349,414.889 316.966,415.505 317.65,415.505L328.368,415.505C329.259,415.505 329.669,414.854 329.669,414.204ZM327.066,386.16C327.066,385.475 326.519,384.789 325.766,384.789C325.595,384.789 325.389,384.858 325.184,384.927L319.807,387.426C319.26,387.665 319.02,388.111 319.02,388.556C319.02,389.241 319.567,389.926 320.321,389.926C320.493,389.926 320.698,389.858 320.903,389.789L326.313,387.289C326.827,387.05 327.066,386.605 327.066,386.16ZM308.954,398.658C308.954,400.815 307.344,402.561 305.186,402.561L300.598,402.561L300.598,394.446L305.05,394.446C307.206,394.446 308.954,396.192 308.954,398.35L308.954,398.658ZM311.556,398.658L311.556,398.35C311.556,394.754 308.644,391.844 305.05,391.844L299.296,391.844C298.612,391.844 297.995,392.459 297.995,393.145L297.995,414.409C297.995,415.265 298.646,415.709 299.296,415.709C299.948,415.709 300.598,415.265 300.598,414.409L300.598,405.164L304.091,405.164L308.747,414.956C309.021,415.505 309.467,415.709 309.878,415.709C310.7,415.709 311.247,415.128 311.247,414.409C311.247,414.238 311.214,414.033 311.11,413.827L306.864,404.957C309.638,404.171 311.556,401.671 311.556,398.658ZM294.4,393.145C294.4,392.494 293.956,391.844 293.099,391.844L282.964,391.844C282.107,391.844 281.663,392.494 281.663,393.145C281.663,393.795 282.107,394.446 282.964,394.446L286.73,394.446L286.73,414.409C286.73,415.265 287.38,415.709 288.032,415.709C288.681,415.709 289.333,415.265 289.333,414.409L289.333,394.446L293.099,394.446C293.956,394.446 294.4,393.795 294.4,393.145ZM278.067,414.17L278.067,392.939C278.067,392.082 277.452,391.638 276.801,391.638C276.149,391.638 275.466,392.082 275.466,392.939L275.466,409.684L268.034,392.734C267.624,391.809 267.042,391.638 266.288,391.638C265.501,391.638 264.747,392.049 264.747,392.974L264.747,414.409C264.747,415.265 265.397,415.709 266.049,415.709C266.7,415.709 267.349,415.265 267.349,414.409L267.349,397.664L274.814,414.546C275.329,415.709 276.081,415.709 276.596,415.709C277.349,415.709 278.067,415.3 278.067,414.17ZM256.496,409.204C256.496,411.362 254.784,413.108 252.626,413.108L252.284,413.108C250.126,413.108 248.379,411.362 248.379,409.204L248.379,398.11C248.379,395.987 250.126,394.241 252.284,394.241L252.626,394.241C254.784,394.241 256.496,395.987 256.496,398.144L256.496,409.204ZM259.097,409.204L259.097,398.11C259.097,394.549 256.221,391.638 252.626,391.638L252.284,391.638C248.688,391.638 245.778,394.515 245.778,398.11L245.778,409.204C245.778,412.8 248.688,415.709 252.284,415.709L252.626,415.709C256.221,415.709 259.097,412.8 259.097,409.204ZM193.137,414.204C193.137,413.553 192.725,412.903 191.834,412.903L182.418,412.903L182.418,404.581L188.958,404.581C189.814,404.581 190.26,403.931 190.26,403.281C190.26,402.63 189.814,401.979 188.958,401.979L182.418,401.979L182.418,394.446L191.834,394.446C192.725,394.446 193.137,393.795 193.137,393.145C193.137,392.494 192.725,391.844 191.834,391.844L181.118,391.844C180.432,391.844 179.815,392.459 179.815,393.145L179.815,414.204C179.815,414.889 180.432,415.505 181.118,415.505L191.834,415.505C192.725,415.505 193.137,414.854 193.137,414.204ZM171.599,408.998C171.599,411.156 169.852,412.903 167.695,412.903L163.449,412.903L163.449,394.446L167.728,394.446C169.887,394.446 171.599,396.192 171.599,398.35L171.599,408.998ZM174.166,408.998L174.166,398.315C174.166,394.754 171.29,391.844 167.695,391.844L162.147,391.844C161.462,391.844 160.847,392.459 160.847,393.145L160.847,414.204C160.847,414.889 161.462,415.505 162.147,415.505L167.695,415.505C171.29,415.505 174.166,412.594 174.166,408.998Z" style="fill:#231f20;fill-rule:nonzero;"/>
        </g>
        <g transform="matrix(4.16667,0,0,4.16667,0,0)">
            <path d="M288.281,375.099C288.281,370.442 285.028,369.312 281.604,367.497C279.755,366.539 277.632,365.717 277.632,363.251C277.632,362.053 278.591,359.998 281.399,359.998L281.708,359.998C283.796,359.998 285.234,361.231 285.405,362.909C285.509,363.731 286.158,364.142 286.775,364.142C287.425,364.142 288.009,363.731 288.009,362.874C288.009,359.725 285.063,357.396 281.775,357.396L281.432,357.396C277.839,357.396 274.996,359.93 274.996,363.251C274.996,367.6 278.317,368.525 281.604,370.306C283.727,371.47 285.679,372.257 285.679,375.065C285.679,377.496 284.481,378.866 281.81,378.866L281.468,378.866C279.242,378.866 277.257,377.599 277.257,375.167C277.257,374.278 276.605,373.867 275.954,373.867C275.304,373.867 274.653,374.278 274.653,375.134C274.653,379.207 277.906,381.468 281.432,381.468L281.741,381.468C285.85,381.468 288.281,379.002 288.281,375.099ZM272.429,358.903C272.429,358.251 271.982,357.602 271.126,357.602L260.991,357.602C260.135,357.602 259.69,358.251 259.69,358.903C259.69,359.553 260.135,360.204 260.991,360.204L264.757,360.204L264.757,380.167C264.757,381.023 265.408,381.468 266.06,381.468C266.71,381.468 267.36,381.023 267.36,380.167L267.36,360.204L271.126,360.204C271.982,360.204 272.429,359.553 272.429,358.903ZM254.862,364.415C254.862,366.573 253.252,368.319 251.095,368.319L246.507,368.319L246.507,360.204L250.958,360.204C253.115,360.204 254.862,361.95 254.862,364.108L254.862,364.415ZM257.463,364.415L257.463,364.108C257.463,360.512 254.553,357.602 250.958,357.602L245.205,357.602C244.52,357.602 243.904,358.218 243.904,358.903L243.904,380.167C243.904,381.023 244.555,381.468 245.205,381.468C245.856,381.468 246.507,381.023 246.507,380.167L246.507,370.921L249.999,370.921L254.656,380.715C254.93,381.263 255.375,381.468 255.786,381.468C256.608,381.468 257.156,380.886 257.156,380.167C257.156,379.996 257.122,379.79 257.019,379.584L252.773,370.716C255.546,369.929 257.463,367.429 257.463,364.415ZM209.361,375.099C209.361,370.442 206.108,369.312 202.684,367.497C200.835,366.539 198.712,365.717 198.712,363.251C198.712,362.053 199.67,359.998 202.478,359.998L202.786,359.998C204.875,359.998 206.313,361.231 206.485,362.909C206.587,363.731 207.238,364.142 207.854,364.142C208.505,364.142 209.087,363.731 209.087,362.874C209.087,359.725 206.142,357.396 202.855,357.396L202.512,357.396C198.917,357.396 196.075,359.93 196.075,363.251C196.075,367.6 199.396,368.525 202.684,370.306C204.807,371.47 206.759,372.257 206.759,375.065C206.759,377.496 205.56,378.866 202.889,378.866L202.547,378.866C200.321,378.866 198.335,377.599 198.335,375.167C198.335,374.278 197.684,373.867 197.034,373.867C196.383,373.867 195.733,374.278 195.733,375.134C195.733,379.207 198.986,381.468 202.512,381.468L202.821,381.468C206.93,381.468 209.361,379.002 209.361,375.099ZM192.994,379.961C192.994,379.311 192.583,378.661 191.692,378.661L182.276,378.661L182.276,370.34L188.816,370.34C189.672,370.34 190.117,369.689 190.117,369.039C190.117,368.388 189.672,367.737 188.816,367.737L182.276,367.737L182.276,360.204L191.692,360.204C192.583,360.204 192.994,359.553 192.994,358.903C192.994,358.251 192.583,357.602 191.692,357.602L180.975,357.602C180.29,357.602 179.673,358.218 179.673,358.903L179.673,379.961C179.673,380.647 180.29,381.263 180.975,381.263L191.692,381.263C192.583,381.263 192.994,380.612 192.994,379.961ZM171.456,374.757C171.456,376.914 169.709,378.661 167.552,378.661L163.306,378.661L163.306,360.204L167.586,360.204C169.744,360.204 171.456,361.95 171.456,364.108L171.456,374.757ZM174.024,374.757L174.024,364.073C174.024,360.512 171.148,357.602 167.552,357.602L162.005,357.602C161.32,357.602 160.704,358.218 160.704,358.903L160.704,379.961C160.704,380.647 161.32,381.263 162.005,381.263L167.552,381.263C171.148,381.263 174.024,378.352 174.024,374.757Z" style="fill:#231f20;fill-rule:nonzero;"/>
        </g>
        <g transform="matrix(4.16667,0,0,4.16667,0,0)">
            <path d="M336.413,345.719C336.413,345.069 335.968,344.418 335.112,344.418L327.065,344.418L327.065,324.456C327.065,323.599 326.415,323.154 325.764,323.154C325.113,323.154 324.463,323.599 324.463,324.456L324.463,345.719C324.463,346.404 325.079,347.021 325.764,347.021L335.112,347.021C335.968,347.021 336.413,346.371 336.413,345.719ZM317.957,345.925L317.957,324.456C317.957,323.599 317.307,323.154 316.656,323.154C316.006,323.154 315.354,323.599 315.354,324.456L315.354,345.925C315.354,346.782 316.006,347.226 316.656,347.226C317.307,347.226 317.957,346.782 317.957,345.925ZM310.904,345.719C310.904,345.069 310.493,344.418 309.602,344.418L300.186,344.418L300.186,336.097L306.725,336.097C307.582,336.097 308.028,335.447 308.028,334.796C308.028,334.146 307.582,333.496 306.725,333.496L300.186,333.496L300.186,325.962L309.602,325.962C310.493,325.962 310.904,325.311 310.904,324.661C310.904,324.01 310.493,323.359 309.602,323.359L298.886,323.359C298.2,323.359 297.584,323.976 297.584,324.661L297.584,345.719C297.584,346.404 298.2,347.021 298.886,347.021L309.602,347.021C310.493,347.021 310.904,346.371 310.904,345.719ZM292.79,340.857C292.79,336.201 289.537,335.07 286.113,333.255C284.264,332.296 282.142,331.475 282.142,329.009C282.142,327.811 283.1,325.756 285.908,325.756L286.216,325.756C288.306,325.756 289.743,326.99 289.914,328.667C290.017,329.49 290.667,329.9 291.284,329.9C291.935,329.9 292.517,329.49 292.517,328.633C292.517,325.482 289.572,323.154 286.284,323.154L285.942,323.154C282.347,323.154 279.504,325.688 279.504,329.009C279.504,333.358 282.826,334.283 286.113,336.063C288.236,337.227 290.188,338.015 290.188,340.824C290.188,343.254 288.989,344.624 286.319,344.624L285.975,344.624C283.75,344.624 281.764,343.357 281.764,340.925C281.764,340.036 281.114,339.624 280.463,339.624C279.813,339.624 279.162,340.036 279.162,340.891C279.162,344.966 282.415,347.226 285.942,347.226L286.25,347.226C290.358,347.226 292.79,344.761 292.79,340.857ZM274.369,345.685L274.369,324.456C274.369,323.599 273.752,323.154 273.102,323.154C272.451,323.154 271.767,323.599 271.767,324.456L271.767,341.2L264.336,324.25C263.925,323.326 263.343,323.154 262.589,323.154C261.802,323.154 261.048,323.565 261.048,324.49L261.048,345.925C261.048,346.782 261.699,347.226 262.35,347.226C263,347.226 263.651,346.782 263.651,345.925L263.651,329.18L271.116,346.062C271.629,347.226 272.384,347.226 272.895,347.226C273.649,347.226 274.369,346.815 274.369,345.685ZM252.797,340.72C252.797,342.877 251.084,344.624 248.927,344.624L248.585,344.624C246.428,344.624 244.681,342.877 244.681,340.72L244.681,329.626C244.681,327.503 246.428,325.756 248.585,325.756L248.927,325.756C251.084,325.756 252.797,327.503 252.797,329.661L252.797,340.72ZM255.399,340.72L255.399,329.626C255.399,326.064 252.523,323.154 248.927,323.154L248.585,323.154C244.989,323.154 242.079,326.03 242.079,329.626L242.079,340.72C242.079,344.315 244.989,347.226 248.585,347.226L248.927,347.226C252.523,347.226 255.399,344.315 255.399,340.72Z" style="fill:#231f20;fill-rule:nonzero;"/>
        </g>
        <g transform="matrix(4.16667,0,0,4.16667,0,0)">
            <path d="M240.128,414.41L240.128,393.145C240.128,392.22 239.785,391.638 238.621,391.638L238.518,391.638C237.56,391.638 237.149,392.152 236.943,392.631L231.499,404.89L226.02,392.631C225.815,392.152 225.404,391.638 224.479,391.638L224.377,391.638C223.178,391.638 222.836,392.22 222.836,393.145L222.836,414.41C222.836,415.265 223.486,415.71 224.137,415.71C224.788,415.71 225.438,415.265 225.438,414.41L225.438,397.665L230.095,408.04C230.369,408.622 230.951,408.93 231.567,408.93C232.15,408.93 232.732,408.656 233.006,408.04L237.526,397.665L237.526,414.41C237.526,415.265 238.176,415.71 238.827,415.71C239.477,415.71 240.128,415.265 240.128,414.41Z" style="fill:#231f20;fill-rule:nonzero;"/>
        </g>
        <g transform="matrix(4.16667,0,0,4.16667,0,0)">
            <path d="M234.898,373.01L228.084,373.01L231.474,362.053L234.898,373.01ZM239.795,380.202C239.795,380.064 239.761,379.927 239.727,379.79L233.049,358.355C232.844,357.739 232.193,357.396 231.474,357.396C230.789,357.396 230.139,357.739 229.934,358.355L223.256,379.79C223.222,379.927 223.188,380.064 223.188,380.202C223.188,380.886 223.735,381.468 224.523,381.468C225.038,381.468 225.517,381.195 225.721,380.543L227.262,375.614L235.72,375.614L237.227,380.543C237.432,381.195 237.946,381.468 238.46,381.468C239.247,381.468 239.795,380.886 239.795,380.202Z" style="fill:#231f20;fill-rule:nonzero;"/>
        </g>
        <g transform="matrix(4.16667,0,0,4.16667,0,0)">
            <path d="M238.142,341.679L238.142,341.439C238.142,340.617 237.525,340.172 236.874,340.172C236.326,340.172 235.745,340.515 235.573,341.302C235.196,343.151 233.655,344.624 231.703,344.624L231.361,344.624C229.204,344.624 227.457,342.877 227.457,340.72L227.457,329.626C227.457,327.503 229.204,325.756 231.361,325.756L231.703,325.756C233.655,325.756 235.196,327.229 235.573,329.078C235.745,329.831 236.292,330.208 236.874,330.208C237.525,330.208 238.142,329.763 238.142,328.941L238.142,328.735C237.696,325.551 234.991,323.154 231.703,323.154L231.361,323.154C227.767,323.154 224.855,326.03 224.855,329.626L224.855,340.72C224.855,344.316 227.767,347.226 231.361,347.226L231.703,347.226C234.956,347.226 237.663,344.795 238.142,341.679Z" style="fill:#231f20;fill-rule:nonzero;"/>
        </g>
        <g transform="matrix(4.16667,0,0,4.16667,0,0)">
            <path d="M466.272,357.766L471.662,357.766L478.665,376.736L478.738,376.736L485.778,357.766L490.985,357.766L490.985,381.098L487.354,381.098L487.354,360.945L487.281,360.945L479.875,381.098L476.795,381.098L469.388,360.945L469.314,360.945L469.314,381.098L466.272,381.098L466.272,357.766Z" style="fill:#030404;fill-rule:nonzero;"/>
        </g>
        <g transform="matrix(4.16667,0,0,4.16667,0,0)">
            <path d="M501.407,380.05C504.708,380.05 505.111,375.991 505.111,373.049C505.111,370.109 504.708,366.05 501.407,366.05C498.145,366.05 497.741,370.109 497.741,373.049C497.741,375.991 498.145,380.05 501.407,380.05ZM493.708,373.049C493.708,367.606 496.276,364.63 501.407,364.63C506.541,364.63 509.145,367.606 509.145,373.049C509.145,378.494 506.541,381.469 501.407,381.469C496.276,381.469 493.708,378.494 493.708,373.049Z" style="fill:#030404;fill-rule:nonzero;"/>
        </g>
        <g transform="matrix(4.16667,0,0,4.16667,0,0)">
            <path d="M512.015,365.002L515.718,365.002L515.718,368.823L515.791,368.823C516.378,367.639 518.065,364.63 521.914,364.63C524.995,364.63 526.315,366.998 526.315,369.331L526.315,381.098L522.61,381.098L522.61,371.02C522.61,368.992 522.281,367.167 520.412,367.167C516.745,367.167 515.718,372.441 515.718,374.436L515.718,381.098L512.015,381.098L512.015,365.002Z" style="fill:#030404;fill-rule:nonzero;"/>
        </g>
        <g transform="matrix(4.16667,0,0,4.16667,0,0)">
            <path d="M539.598,381.232C538.864,381.402 537.874,381.47 537.031,381.47C533.548,381.47 531.531,380.489 531.531,377.378L531.531,366.76L528.745,366.76L528.745,365.002L531.531,365.002L531.531,361.215L535.235,359.152L535.235,365.002L540.001,365.002L540.001,366.76L535.235,366.76L535.235,376.025C535.235,378.392 535.491,379.542 537.874,379.542C538.462,379.542 539.085,379.474 539.598,379.272L539.598,381.232Z" style="fill:#030404;fill-rule:nonzero;"/>
        </g>
        <g transform="matrix(4.16667,0,0,4.16667,0,0)">
            <path d="M542.385,365.002L546.088,365.002L546.088,369.094L546.161,369.094C547.334,366.93 548.618,364.868 551.808,364.63L551.808,368.181C548.251,368.283 546.088,369.399 546.088,373.725L546.088,381.098L542.385,381.098L542.385,365.002Z" style="fill:#030404;fill-rule:nonzero;"/>
        </g>
        <g transform="matrix(4.16667,0,0,4.16667,0,0)">
            <path d="M560.961,357.781L564.848,357.781L561.268,362.196L558.517,362.196L560.961,357.781ZM563.615,369.668C563.615,368.418 563.137,366.05 560.388,366.05C557.527,366.05 556.977,368.756 556.903,369.668L563.615,369.668ZM566.913,380.556C565.374,381.13 564.017,381.47 561.817,381.47C556.977,381.47 553.09,378.832 553.09,372.34C553.09,367.876 555.034,364.63 560.533,364.63C566.181,364.63 567.244,368.114 567.244,371.224L556.794,371.224C556.794,374.403 558.334,379.677 563.576,379.677C564.714,379.677 565.813,379.475 566.913,379L566.913,380.556Z" style="fill:#030404;fill-rule:nonzero;"/>
        </g>
        <g transform="matrix(4.16667,0,0,4.16667,0,0)">
            <path d="M579.05,373.557C577.511,373.659 573.33,373.962 573.33,376.939C573.33,378.392 574.247,379.339 575.457,379.339C576.741,379.339 579.05,378.189 579.05,375.449L579.05,373.557ZM579.05,378.866L578.977,378.866C578.39,379.812 576.85,381.469 574.063,381.469C571.314,381.469 569.298,379.677 569.298,377.445C569.298,372.475 576.741,372.238 579.05,372.136L579.05,370.717C579.05,368.959 579.05,366.05 576.594,366.05C574.32,366.05 573.916,367.673 573.77,369.567L569.884,369.567C570.068,367.167 571.093,364.63 576.594,364.63C582.277,364.63 582.754,367.572 582.754,370.717L582.754,381.098L579.05,381.098L579.05,378.866Z" style="fill:#030404;fill-rule:nonzero;"/>
        </g>
        <g transform="matrix(4.16667,0,0,4.16667,0,0)">
            <rect x="586.587" y="357.766" width="3.703" height="23.332" style="fill:#030404;fill-rule:nonzero;"/>
        </g>
        <g transform="matrix(4.16667,0,0,4.16667,0,0)">
            <path d="M616.003,383.946C615.263,383.212 614.827,382.229 614.826,381.179L614.826,372.132C614.827,371.013 615.861,370.399 616.565,370.398L625.681,370.398C627.564,370.397 629.597,371.873 629.601,374.28C629.604,376.426 627.862,378.176 625.717,378.18C624.338,378.181 623.414,377.542 622.883,377.006C622.881,377.005 622.535,376.663 622.425,376.551C622.499,376.347 622.575,376.086 622.575,375.722L622.575,375.721C622.575,374.426 621.505,373.37 620.187,373.365C619.554,373.363 618.991,373.59 618.553,374.023C618.104,374.467 617.835,375.105 617.833,375.729C617.833,376.332 618.11,376.983 618.554,377.427C618.989,377.86 619.56,378.088 620.209,378.087C620.565,378.086 620.862,377.987 621.017,377.932C621.098,378.012 621.486,378.387 621.486,378.387C621.768,378.653 622.685,379.635 622.687,381.185L622.687,381.19C622.687,383.592 620.658,385.084 618.777,385.086C617.733,385.089 616.746,384.683 616.003,383.946ZM599.304,377.096C598.561,376.358 598.134,375.348 598.132,374.323C598.13,373.281 598.536,372.3 599.277,371.561C600.015,370.823 600.999,370.4 602.055,370.398L611.14,370.398C612.263,370.4 612.896,371.415 612.898,372.115L612.898,381.198C612.899,382.227 612.467,383.242 611.724,383.983C611.216,384.492 610.327,385.099 608.982,385.1C606.826,385.103 605.07,383.369 605.067,381.234L605.067,381.228C605.067,379.861 605.708,378.941 606.245,378.409C606.246,378.409 606.591,378.065 606.7,377.954C606.907,378.028 607.168,378.105 607.533,378.106C608.837,378.106 609.895,377.039 609.901,375.726C609.902,375.095 609.675,374.532 609.24,374.095C608.795,373.649 608.154,373.382 607.528,373.38C606.924,373.38 606.269,373.653 605.823,374.096C605.389,374.53 605.157,375.098 605.157,375.742L605.157,375.746C605.157,376.098 605.26,376.397 605.316,376.551C605.234,376.633 604.857,377.021 604.857,377.021C604.593,377.301 603.603,378.212 602.049,378.214C601.006,378.218 600.033,377.819 599.304,377.096ZM614.826,357.672C614.823,356.644 615.231,355.63 615.972,354.889C616.48,354.38 617.373,353.773 618.716,353.77C619.751,353.77 620.77,354.189 621.504,354.921C622.229,355.641 622.63,356.606 622.63,357.638L622.63,357.643C622.63,359.013 621.992,359.931 621.454,360.46C621.453,360.461 621.109,360.805 620.998,360.917C620.795,360.843 620.531,360.766 620.165,360.765C618.867,360.764 617.805,361.833 617.798,363.145C617.797,363.776 618.024,364.34 618.462,364.776C618.908,365.223 619.545,365.49 620.172,365.492L620.175,365.492C620.783,365.492 621.432,365.216 621.876,364.773C622.312,364.343 622.54,363.775 622.54,363.129L622.54,363.125C622.54,362.773 622.438,362.474 622.386,362.319C622.464,362.239 622.842,361.851 622.842,361.851C623.109,361.57 624.095,360.659 625.649,360.657C628.064,360.652 629.563,362.673 629.568,364.549C629.569,365.589 629.162,366.571 628.422,367.311C627.685,368.048 626.698,368.463 625.642,368.464L616.562,368.464C615.439,368.463 614.827,367.455 614.826,366.754L614.826,357.672ZM606.272,360.472L606.271,360.471C605.989,360.207 605.075,359.225 605.073,357.674L605.073,357.665C605.073,355.266 607.098,353.776 608.979,353.772C610.025,353.77 611.008,354.175 611.751,354.911C612.492,355.646 612.896,356.63 612.898,357.681L612.898,366.727C612.897,367.845 611.9,368.464 611.198,368.464L602.075,368.464C601.043,368.468 600.025,368.049 599.281,367.311C598.77,366.804 598.16,365.918 598.159,364.578C598.157,363.548 598.577,362.536 599.313,361.803C600.038,361.08 601.004,360.682 602.039,360.68C603.417,360.679 604.342,361.317 604.875,361.853C604.875,361.853 605.221,362.196 605.335,362.306C605.257,362.508 605.18,362.772 605.18,363.136C605.18,364.432 606.253,365.49 607.569,365.496C608.203,365.499 608.769,365.268 609.21,364.833C609.658,364.388 609.927,363.752 609.927,363.129C609.927,362.526 609.653,361.876 609.208,361.432C608.771,360.998 608.199,360.77 607.549,360.77C607.194,360.771 606.898,360.873 606.739,360.926C606.659,360.848 606.272,360.472 606.272,360.472ZM613.878,354.627C612.744,352.947 610.89,351.903 608.999,351.903C605.758,351.903 603.219,354.466 603.219,357.739C603.219,358.053 603.286,358.493 603.408,359.041C603.111,358.978 602.553,358.873 602.093,358.873C598.808,358.873 596.233,361.391 596.233,364.605C596.233,366.496 597.291,368.344 598.995,369.475C597.276,370.621 596.247,372.405 596.247,374.282C596.247,377.457 598.876,380.039 602.109,380.039C602.504,380.039 602.984,379.947 603.399,379.856C603.284,380.382 603.219,380.825 603.219,381.144C603.219,384.416 605.758,386.98 608.999,386.98C610.919,386.98 612.71,385.982 613.833,384.311C614.915,385.911 616.856,386.98 618.718,386.98C621.946,386.98 624.471,384.416 624.471,381.144C624.471,380.718 624.379,380.206 624.304,379.856C624.855,379.973 625.295,380.039 625.609,380.039C628.84,380.039 631.468,377.457 631.468,374.282C631.468,372.387 630.445,370.548 628.792,369.44C630.445,368.333 631.468,366.499 631.468,364.601C631.468,361.443 628.827,358.87 625.582,358.87C625.175,358.87 624.684,358.973 624.301,359.056C624.365,358.757 624.471,358.192 624.471,357.739C624.471,354.466 621.946,351.903 618.718,351.903C616.838,351.903 615.004,352.946 613.878,354.627Z" style="fill:#ed1f24;fill-rule:nonzero;"/>
        </g>
    </g>
</svg>
