<?xml version="1.0" encoding="UTF-8" standalone="no"?>
<svg
   xmlns:dc="http://purl.org/dc/elements/1.1/"
   xmlns:cc="http://creativecommons.org/ns#"
   xmlns:rdf="http://www.w3.org/1999/02/22-rdf-syntax-ns#"
   xmlns:svg="http://www.w3.org/2000/svg"
   xmlns="http://www.w3.org/2000/svg"
   xmlns:sodipodi="http://sodipodi.sourceforge.net/DTD/sodipodi-0.dtd"
   xmlns:inkscape="http://www.inkscape.org/namespaces/inkscape"
   version="1.1"
   id="svg2"
   xml:space="preserve"
   width="271.58667"
   height="292.53333"
   viewBox="0 0 271.58667 292.53333"
   sodipodi:docname="CAM_Logo_CMYK.eps"><metadata
     id="metadata8"><rdf:RDF><cc:Work
         rdf:about=""><dc:format>image/svg+xml</dc:format><dc:type
           rdf:resource="http://purl.org/dc/dcmitype/StillImage" /></cc:Work></rdf:RDF></metadata><defs
     id="defs6" /><sodipodi:namedview
     pagecolor="#ffffff"
     bordercolor="#666666"
     borderopacity="1"
     objecttolerance="10"
     gridtolerance="10"
     guidetolerance="10"
     inkscape:pageopacity="0"
     inkscape:pageshadow="2"
     inkscape:window-width="640"
     inkscape:window-height="480"
     id="namedview4" /><g
     id="g10"
     inkscape:groupmode="layer"
     inkscape:label="ink_ext_XXXXXX"
     transform="matrix(1.3333333,0,0,-1.3333333,0,292.53333)"><g
       id="g12"
       transform="scale(0.1)"><path
         d="m 641.516,1557.28 v 636.62 l 99.539,-99.52 z"
         style="fill:#ee293d;fill-opacity:1;fill-rule:nonzero;stroke:none"
         id="path14" /><path
         d="m 840.57,1994.86 87.571,-87.56 -286.625,-628.84 v 85.09 l 199.054,631.31"
         style="fill:#ee293d;fill-opacity:1;fill-rule:nonzero;stroke:none"
         id="path16" /><path
         d="m 1002.44,1832.98 86.1,-86.09 -447.024,-552.01 v 37.42 l 360.924,600.68"
         style="fill:#ee293d;fill-opacity:1;fill-rule:nonzero;stroke:none"
         id="path18" /><path
         d="M 674.348,1174.52 H 641.516 L 1660.97,2193.98 V 1891.3 L 674.348,1174.52"
         style="fill:#f9a91f;fill-opacity:1;fill-rule:nonzero;stroke:none"
         id="path20" /><path
         d="m 702.309,1174.49 h 85.117 l 873.534,326.6 V 1739.2 L 702.309,1174.49"
         style="fill:#1478c7;fill-opacity:1;fill-rule:nonzero;stroke:none"
         id="path22" /><path
         d="m 868.668,1174.52 h 792.292 v 219.72 z"
         style="fill:#1478c7;fill-opacity:1;fill-rule:nonzero;stroke:none"
         id="path24" /><path
         d="M 134.625,67.1211 V 173.961 c 0,35.598 -28.762,64.699 -64.7187,64.699 H 14.4336 c -6.85157,0 -13.00782,-6.148 -13.00782,-13.012 V 15.0703 c 0,-6.85936 6.15625,-13.01952 13.00782,-13.01952 h 55.4727 c 35.9567,0 64.7187,29.10942 64.7187,65.07032 m -25.68,0 C 108.945,45.5508 91.4727,28.082 69.9063,28.082 h -42.461 v 184.566 h 42.7969 c 21.5859,0 38.7028,-17.457 38.7028,-39.046 z M 324.324,15.0703 c 0,6.5 -4.109,13.0117 -13.019,13.0117 h -94.16 v 83.207 h 65.398 c 8.562,0 13.016,6.5 13.016,13.012 0,6.5 -4.454,13.008 -13.016,13.008 h -65.398 v 75.339 h 94.16 c 8.91,0 13.019,6.5 13.019,13 0,6.524 -4.109,13.012 -13.019,13.012 H 204.137 c -6.852,0 -13.024,-6.148 -13.024,-13.012 V 15.0703 c 0,-6.85936 6.172,-13.01952 13.024,-13.01952 h 107.168 c 8.91,0 13.019,6.50781 13.019,13.01952 m 659.614,50 V 176.012 c 0,35.597 -28.762,64.707 -64.715,64.707 h -3.426 c -35.953,0 -65.059,-28.77 -65.059,-64.707 V 65.0703 c 0,-35.9687 29.106,-65.0585812 65.059,-65.0585812 h 3.426 c 35.953,0 64.715,29.0898812 64.715,65.0585812 m -26.024,0 c 0,-21.582 -17.117,-39.039 -38.691,-39.039 h -3.426 c -21.574,0 -39.043,17.457 -39.043,39.039 V 176.012 c 0,21.226 17.469,38.687 39.043,38.687 h 3.426 c 21.574,0 38.691,-17.461 38.691,-39.039 z M 1173.63,15.3984 V 227.719 c 0,8.562 -6.15,13 -12.66,13 -6.52,0 -13.35,-4.438 -13.35,-13 V 60.2617 L 1073.3,229.77 c -4.1,9.242 -9.92,10.949 -17.46,10.949 -7.87,0 -15.41,-4.11 -15.41,-13.36 V 13.0195 c 0,-8.57028 6.5,-13.0077812 13.02,-13.0077812 6.51,0 13.01,4.4375012 13.01,13.0077812 V 180.461 L 1141.1,11.6406 c 5.15,-11.6288812 12.67,-11.6288812 17.82,-11.6288812 7.53,0 14.71,4.0898412 14.71,15.3866812 m 163.33,210.2496 c 0,6.524 -4.44,13.012 -13,13.012 H 1222.6 c -8.57,0 -13.01,-6.488 -13.01,-13.012 0,-6.5 4.44,-13 13.01,-13 h 37.66 V 13.0195 c 0,-8.57028 6.5,-13.0077812 13.02,-13.0077812 6.5,0 13.01,4.4375012 13.01,13.0077812 V 212.648 h 37.67 c 8.56,0 13,6.5 13,13 m 171.56,-55.117 v 3.071 c 0,35.957 -29.12,65.058 -65.06,65.058 h -57.54 c -6.84,0 -13.01,-6.148 -13.01,-13.012 V 13.0195 c 0,-8.57028 6.51,-13.0077812 13.01,-13.0077812 6.52,0 13.02,4.4375012 13.02,13.0077812 v 92.4495 h 34.93 l 46.56,-97.92994 c 2.74,-5.48828 7.2,-7.5273412 11.31,-7.5273412 8.22,0 13.69,5.8085912 13.69,13.0077812 0,1.711 -0.33,3.7618 -1.37,5.8203 l -42.46,88.6912 c 27.74,7.86 46.92,32.86 46.92,63 m -26.02,0 c 0,-21.57 -16.1,-39.043 -37.68,-39.043 h -45.88 v 81.16 h 44.52 c 21.56,0 39.04,-17.457 39.04,-39.046 z m 181.12,124.981 c 0,6.84 -5.47,13.699 -13,13.699 -1.71,0 -3.76,-0.68 -5.83,-1.383 l -53.75,-24.988 c -5.48,-2.391 -7.88,-6.84 -7.88,-11.301 0,-6.84 5.47,-13.699 13.01,-13.699 1.72,0 3.77,0.691 5.82,1.379 l 54.1,25 c 5.14,2.383 7.53,6.84 7.53,11.293 m 26.03,-280.4417 c 0,6.5 -4.1,13.0117 -13.01,13.0117 h -94.16 v 83.207 h 65.39 c 8.57,0 13.01,6.5 13.01,13.012 0,6.5 -4.44,13.008 -13.01,13.008 h -65.39 v 75.339 h 94.16 c 8.91,0 13.01,6.5 13.01,13 0,6.524 -4.1,13.012 -13.01,13.012 h -107.18 c -6.84,0 -13,-6.148 -13,-13.012 V 15.0703 c 0,-6.85936 6.16,-13.01952 13,-13.01952 h 107.18 c 8.91,0 13.01,6.50781 13.01,13.01952 m 186.62,-2.3906 c 0,1.3516 -0.34,2.7187 -0.68,4.1016 l -66.77,214.3477 c -2.06,6.172 -8.57,9.59 -15.75,9.59 -6.86,0 -13.36,-3.418 -15.41,-9.59 L 1710.88,16.7813 c -0.34,-1.3829 -0.68,-2.75 -0.68,-4.1016 0,-6.85939 5.47,-12.6679812 13.34,-12.6679812 5.15,0 9.94,2.7187512 12,9.2382812 l 15.41,49.3086 h 84.58 L 1850.59,9.25 c 2.06,-6.51953 7.18,-9.2382812 12.32,-9.2382812 7.87,0 13.36,5.8085912 13.36,12.6679812 m -48.97,71.8906 h -68.14 l 33.91,109.5777 z m 209.57,-69.5 c 0,6.5 -4.46,13.0117 -13.01,13.0117 h -80.47 v 199.637 c 0,8.562 -6.51,13 -13.02,13 -6.5,0 -13.02,-4.438 -13.02,-13 V 15.0703 c 0,-6.85936 6.18,-13.01952 13.02,-13.01952 h 93.49 c 8.55,0 13.01,6.50781 13.01,13.01952"
         style="fill:#231f20;fill-opacity:1;fill-rule:nonzero;stroke:none"
         id="path26" /><path
         d="m 133.203,409.531 v 106.848 c 0,35.601 -28.762,64.703 -64.7225,64.703 H 13.0117 C 6.16406,581.082 0,574.922 0,568.082 V 357.488 c 0,-6.847 6.16406,-13.019 13.0117,-13.019 h 55.4688 c 35.9605,0 64.7225,29.113 64.7225,65.062 m -25.68,0 c 0,-21.562 -17.4683,-39.031 -39.0425,-39.031 h -42.461 v 184.57 h 42.8047 c 21.5781,0 38.6988,-17.461 38.6988,-39.039 z m 215.375,-52.043 c 0,6.5 -4.105,13.012 -13.015,13.012 h -94.16 v 83.199 h 65.398 c 8.563,0 13.012,6.52 13.012,13.02 0,6.5 -4.449,13.019 -13.012,13.019 h -65.398 v 75.332 h 94.16 c 8.91,0 13.015,6.5 13.015,13.012 0,6.508 -4.105,13 -13.015,13 H 202.711 c -6.848,0 -13.02,-6.16 -13.02,-13 V 357.488 c 0,-6.847 6.172,-13.019 13.02,-13.019 h 107.172 c 8.91,0 13.015,6.519 13.015,13.019 m 163.672,48.621 c 0,46.582 -32.527,57.871 -66.769,76.02 -18.488,9.59 -39.719,17.801 -39.719,42.461 0,11.98 9.582,32.531 37.66,32.531 h 3.078 c 20.895,0 35.274,-12.32 36.993,-29.101 1.019,-8.219 7.531,-12.34 13.691,-12.34 6.508,0 12.328,4.121 12.328,12.679 0,31.493 -29.453,54.789 -62.316,54.789 h -3.434 c -35.949,0 -64.371,-25.347 -64.371,-58.558 0,-43.488 33.215,-52.731 66.09,-70.551 21.23,-11.641 40.75,-19.508 40.75,-47.578 0,-24.313 -11.992,-38.012 -38.699,-38.012 h -3.418 c -22.262,0 -42.121,12.66 -42.121,36.981 0,8.902 -6.512,13.011 -13.012,13.011 -6.508,0 -13.008,-4.109 -13.008,-12.679 0,-40.731 32.527,-63.34 67.789,-63.34 h 3.09 c 41.09,0 65.398,24.656 65.398,63.687 m 481.032,106.84 v 3.082 c 0,35.949 -29.11,65.051 -65.059,65.051 h -57.531 c -6.848,0 -13.008,-6.16 -13.008,-13 V 355.441 c 0,-8.562 6.508,-13.019 13.008,-13.019 6.511,0 13.019,4.457 13.019,13.019 v 92.45 h 34.922 l 46.567,-97.942 c 2.742,-5.48 7.195,-7.527 11.3,-7.527 8.223,0 13.7,5.816 13.7,13.019 0,1.707 -0.34,3.758 -1.368,5.821 l -42.461,88.679 c 27.731,7.868 46.911,32.868 46.911,63.008 m -26.02,0 c 0,-21.57 -16.098,-39.027 -37.672,-39.027 h -45.879 v 81.148 h 44.512 c 21.566,0 39.039,-17.461 39.039,-39.039 z m 175.668,55.133 c 0,6.508 -4.47,13 -13.03,13 h -101.35 c -8.557,0 -13.007,-6.492 -13.007,-13 0,-6.512 4.45,-13.012 13.007,-13.012 h 37.66 V 355.441 c 0,-8.562 6.51,-13.019 13.02,-13.019 6.51,0 13.01,4.457 13.01,13.019 V 555.07 h 37.66 c 8.56,0 13.03,6.5 13.03,13.012 m 158.52,-161.973 c 0,46.582 -32.53,57.871 -66.77,76.02 -18.49,9.59 -39.72,17.801 -39.72,42.461 0,11.98 9.59,32.531 37.67,32.531 h 3.09 c 20.88,0 35.26,-12.32 36.97,-29.101 1.04,-8.219 7.53,-12.34 13.7,-12.34 6.5,0 12.34,4.121 12.34,12.679 0,31.493 -29.46,54.789 -62.34,54.789 h -3.42 c -35.94,0 -64.37,-25.347 -64.37,-58.558 0,-43.488 33.21,-52.731 66.08,-70.551 21.23,-11.641 40.75,-19.508 40.75,-47.578 0,-24.313 -11.98,-38.012 -38.69,-38.012 h -3.42 c -22.26,0 -42.11,12.66 -42.11,36.981 0,8.902 -6.52,13.011 -13.03,13.011 -6.5,0 -13.01,-4.109 -13.01,-12.679 0,-40.731 32.53,-63.34 67.8,-63.34 h 3.08 c 41.09,0 65.4,24.656 65.4,63.687"
         style="fill:#231f20;fill-opacity:1;fill-rule:nonzero;stroke:none"
         id="path28" /><path
         d="M 946.949,749.898 V 860.84 c 0,35.629 -28.761,64.73 -64.719,64.73 h -3.421 c -35.957,0 -65.059,-28.761 -65.059,-64.73 V 749.898 c 0,-35.937 29.102,-65.058 65.059,-65.058 h 3.421 c 35.958,0 64.719,29.121 64.719,65.058 m -26.019,0 c 0,-21.57 -17.129,-39.039 -38.7,-39.039 h -3.421 c -21.567,0 -39.039,17.469 -39.039,39.039 V 860.84 c 0,21.23 17.472,38.699 39.039,38.699 h 3.421 c 21.571,0 38.7,-17.469 38.7,-39.039 z m 215.72,-49.648 v 212.301 c 0,8.558 -6.17,13.019 -12.67,13.019 -6.51,0 -13.35,-4.461 -13.35,-13.019 V 745.109 l -74.31,169.493 c -4.11,9.25 -9.93,10.968 -17.47,10.968 -7.87,0 -15.41,-4.109 -15.41,-13.359 V 697.852 c 0,-8.563 6.51,-13.012 13.02,-13.012 6.5,0 13.01,4.449 13.01,13.012 v 167.449 l 74.65,-168.821 c 5.13,-11.64 12.68,-11.64 17.79,-11.64 7.54,0 14.74,4.121 14.74,15.41 m 184.21,48.289 c 0,46.563 -32.53,57.871 -66.77,76.012 -18.48,9.59 -39.71,17.801 -39.71,42.461 0,11.976 9.58,32.527 37.66,32.527 h 3.08 c 20.9,0 35.27,-12.328 36.98,-29.109 1.03,-8.219 7.53,-12.321 13.7,-12.321 6.5,0 12.33,4.102 12.33,12.661 0,31.519 -29.45,54.8 -62.33,54.8 h -3.42 c -35.95,0 -64.38,-25.34 -64.38,-58.558 0,-43.481 33.22,-52.731 66.09,-70.532 21.23,-11.648 40.75,-19.531 40.75,-47.609 0,-24.312 -11.99,-38.012 -38.69,-38.012 h -3.44 c -22.25,0 -42.1,12.68 -42.1,36.993 0,8.898 -6.51,13.007 -13.02,13.007 -6.5,0 -13.01,-4.109 -13.01,-12.668 0,-40.75 32.53,-63.351 67.8,-63.351 h 3.08 c 41.08,0 65.4,24.648 65.4,63.699 M 1502,699.91 c 0,6.512 -4.11,13.012 -13.02,13.012 h -94.16 v 83.207 h 65.39 c 8.57,0 13.03,6.512 13.03,13.012 0,6.507 -4.46,13.007 -13.03,13.007 h -65.39 v 75.332 h 94.16 c 8.91,0 13.02,6.508 13.02,13.02 0,6.5 -4.11,13.02 -13.02,13.02 h -107.16 c -6.86,0 -13.02,-6.18 -13.02,-13.02 V 699.91 c 0,-6.84 6.16,-13.012 13.02,-13.012 h 107.16 c 8.91,0 13.02,6.5 13.02,13.012 m 70.53,-2.058 v 214.699 c 0,8.558 -6.49,13.019 -13.01,13.019 -6.5,0 -13.02,-4.461 -13.02,-13.019 V 697.852 c 0,-8.563 6.52,-13.012 13.02,-13.012 6.52,0 13.01,4.449 13.01,13.012 m 184.56,2.058 c 0,6.512 -4.45,13.012 -13.01,13.012 h -80.47 v 199.629 c 0,8.558 -6.5,13.019 -13,13.019 -6.52,0 -13.02,-4.461 -13.02,-13.019 V 699.91 c 0,-6.84 6.16,-13.012 13.02,-13.012 h 93.47 c 8.56,0 13.01,6.5 13.01,13.012"
         style="fill:#231f20;fill-opacity:1;fill-rule:nonzero;stroke:none"
         id="path30" /><path
         d="M 794.238,13.0117 V 225.648 c 0,9.25 -3.422,15.071 -15.074,15.071 h -1.019 c -9.59,0 -13.696,-5.129 -15.758,-9.93 l -54.438,-122.59 -54.789,122.59 c -2.051,4.801 -6.164,9.93 -15.41,9.93 h -1.02 c -11.996,0 -15.414,-5.821 -15.414,-15.071 V 13.0117 C 621.316,4.44922 627.816,0 634.324,0 640.836,0 647.34,4.44922 647.34,13.0117 V 180.449 L 693.906,76.6992 c 2.739,-5.8203 8.559,-8.8984 14.723,-8.8984 5.828,0 11.648,2.75 14.391,8.8984 L 768.219,180.449 V 13.0117 C 768.219,4.44922 774.719,0 781.227,0 c 6.5,0 13.011,4.44922 13.011,13.0117"
         style="fill:#231f20;fill-opacity:1;fill-rule:nonzero;stroke:none"
         id="path32" /><path
         d="m 790.914,355.09 c 0,1.379 -0.344,2.738 -0.68,4.109 l -66.781,214.36 c -2.051,6.16 -8.558,9.589 -15.75,9.589 -6.848,0 -13.351,-3.429 -15.406,-9.589 l -66.774,-214.36 c -0.343,-1.371 -0.679,-2.73 -0.679,-4.109 0,-6.852 5.469,-12.668 13.347,-12.668 5.145,0 9.934,2.738 11.981,9.25 l 15.41,49.297 h 84.578 l 15.074,-49.297 c 2.051,-6.512 7.188,-9.25 12.329,-9.25 7.871,0 13.351,5.816 13.351,12.668 M 741.941,427 H 673.805 L 707.703,536.57 741.941,427"
         style="fill:#231f20;fill-opacity:1;fill-rule:nonzero;stroke:none"
         id="path34" /><path
         d="m 774.375,740.309 v 2.41 c 0,8.222 -6.16,12.66 -12.672,12.66 -5.48,0 -11.297,-3.43 -13.012,-11.301 -3.769,-18.476 -19.179,-33.219 -38.695,-33.219 h -3.426 c -21.566,0 -39.035,17.469 -39.035,39.039 V 860.84 c 0,21.23 17.469,38.699 39.035,38.699 h 3.426 c 19.516,0 34.926,-14.73 38.695,-33.211 1.715,-7.527 7.192,-11.308 13.012,-11.308 6.512,0 12.672,4.449 12.672,12.679 v 2.063 c -4.453,31.828 -31.504,55.808 -64.379,55.808 h -3.426 c -35.945,0 -65.054,-28.761 -65.054,-64.73 V 749.898 c 0,-35.949 29.109,-65.058 65.054,-65.058 h 3.426 c 32.527,0 59.59,24.308 64.379,55.469"
         style="fill:#231f20;fill-opacity:1;fill-rule:nonzero;stroke:none"
         id="path36" /></g></g></svg>
