<?xml version="1.0" encoding="utf-8"?>
<svg version="1.1" xmlns="http://www.w3.org/2000/svg" xmlns:xlink="http://www.w3.org/1999/xlink" x="0px" y="0px"
	 viewBox="0 0 128 1024" style="enable-background:new 0 0 128 1024;" xml:space="preserve">
<g id="H1_Contact">
	<g>
		<path d="M110.6,1007.137c-4.799,4.596-11.387,6.893-19.765,6.893H42.523c-10.41,0-18.259-2.074-23.547-6.222
			c-5.285-4.147-7.93-10.654-7.93-19.521c0-7.726,2.116-13.947,6.344-18.666c4.23-4.716,10.33-7.076,18.301-7.076h18.056v20.863
			H38.253c-3.008,0-5.082,0.365-6.222,1.098c-1.139,0.731-1.708,1.994-1.708,3.781c0,1.873,0.651,3.153,1.952,3.844
			c1.302,0.691,3.214,1.037,5.733,1.037h52.582c2.767,0,4.779-0.406,6.039-1.221c1.263-0.812,1.892-2.031,1.892-3.66
			c0-3.252-2.643-4.879-7.931-4.879h-18.91v-21.106h19.765c17.568,0,26.352,8.825,26.352,26.474
			C117.797,996.422,115.399,1002.543,110.6,1007.137z"/>
		<path d="M110.05,952.041c-5.163,4.393-12.423,6.588-21.776,6.588H38.375c-9.028,0-15.839-2.195-20.435-6.588
			c-4.595-4.393-6.894-10.816-6.894-19.275s2.299-14.885,6.894-19.276c4.596-4.392,11.406-6.588,20.435-6.588h49.898
			c9.436,0,16.714,2.196,21.838,6.588s7.686,10.817,7.686,19.276S115.216,947.648,110.05,952.041z M96.081,928.982
			c-1.626-0.649-3.903-0.975-6.832-0.975h-51.24c-2.275,0-4.127,0.305-5.551,0.914c-1.422,0.61-2.135,1.852-2.135,3.721
			c0,3.498,2.644,5.246,7.93,5.246h51.118c3.01,0,5.288-0.365,6.832-1.098c1.546-0.732,2.318-2.074,2.318-4.025
			C98.521,930.895,97.709,929.635,96.081,928.982z"/>
		<path d="M116.821,902.021H12.023v-21.594l50.142-9.638H12.023v-20.252h104.798v20.496l-52.46,10.492h52.46V902.021z"/>
		<path d="M116.821,834.533H32.153v12.443h-20.13v-45.871h20.13v12.443h84.668V834.533z"/>
		<path d="M116.821,803.155L12.023,793.029v-35.502l104.798-10.004v19.886l-16.958,1.464v12.688l16.958,1.22V803.155z
			 M83.149,779.976v-9.517l-53.314,4.637v0.976L83.149,779.976z"/>
		<path d="M110.6,738.303c-4.799,4.596-11.387,6.893-19.765,6.893H42.523c-10.41,0-18.259-2.074-23.547-6.223
			c-5.285-4.147-7.93-10.654-7.93-19.52c0-7.727,2.116-13.948,6.344-18.666c4.23-4.717,10.33-7.076,18.301-7.076h18.056v20.862
			H38.253c-3.008,0-5.082,0.366-6.222,1.098c-1.139,0.731-1.708,1.994-1.708,3.782c0,1.872,0.651,3.152,1.952,3.843
			c1.302,0.692,3.214,1.037,5.733,1.037h52.582c2.767,0,4.779-0.405,6.039-1.22c1.263-0.812,1.892-2.032,1.892-3.66
			c0-3.252-2.643-4.88-7.931-4.88h-18.91v-21.106h19.765c17.568,0,26.352,8.826,26.352,26.475
			C117.797,727.587,115.399,733.708,110.6,738.303z"/>
		<path d="M116.821,678.631H32.153v12.444h-20.13v-45.872h20.13v12.444h84.668V678.631z"/>
	</g>
</g>
</svg>
