<svg xmlns="http://www.w3.org/2000/svg" viewBox="0 0 128 1024"><path d="M110.6 1007.137c-4.799 4.596-11.387 6.893-19.765 6.893H42.523c-10.41 0-18.259-2.074-23.547-6.222-5.285-4.147-7.93-10.654-7.93-19.521 0-7.726 2.116-13.947 6.344-18.666 4.23-4.716 10.33-7.076 18.301-7.076h18.056v20.863H38.253c-3.008 0-5.082.365-6.222 1.098-1.139.731-1.708 1.994-1.708 3.781 0 1.873.651 3.153 1.952 3.844 1.302.691 3.214 1.037 5.733 1.037H90.59c2.767 0 4.779-.406 6.039-1.221 1.263-.812 1.892-2.031 1.892-3.66 0-3.252-2.643-4.879-7.931-4.879H71.68v-21.106h19.765c17.568 0 26.352 8.825 26.352 26.474 0 7.646-2.398 13.767-7.197 18.361zm-.55-55.096c-5.163 4.393-12.423 6.588-21.776 6.588H38.375c-9.028 0-15.839-2.195-20.435-6.588-4.595-4.393-6.894-10.816-6.894-19.275s2.299-14.885 6.894-19.276c4.596-4.392 11.406-6.588 20.435-6.588h49.898c9.436 0 16.714 2.196 21.838 6.588s7.686 10.817 7.686 19.276-2.581 14.882-7.747 19.275zm-13.969-23.059c-1.626-.649-3.903-.975-6.832-.975h-51.24c-2.275 0-4.127.305-5.551.914-1.422.61-2.135 1.852-2.135 3.721 0 3.498 2.644 5.246 7.93 5.246h51.118c3.01 0 5.288-.365 6.832-1.098 1.546-.732 2.318-2.074 2.318-4.025 0-1.87-.812-3.13-2.44-3.783zm20.74-26.961H12.023v-21.594l50.142-9.638H12.023v-20.252h104.798v20.496l-52.46 10.492h52.46v20.496zm0-67.488H32.153v12.443h-20.13v-45.871h20.13v12.443h84.668v20.985zm0-31.378L12.023 793.029v-35.502l104.798-10.004v19.886l-16.958 1.464v12.688l16.958 1.22v20.374zm-33.672-23.179v-9.517l-53.314 4.637v.976l53.314 3.904zm27.451-41.673c-4.799 4.596-11.387 6.893-19.765 6.893H42.523c-10.41 0-18.259-2.074-23.547-6.223-5.285-4.147-7.93-10.654-7.93-19.52 0-7.727 2.116-13.948 6.344-18.666 4.23-4.717 10.33-7.076 18.301-7.076h18.056v20.862H38.253c-3.008 0-5.082.366-6.222 1.098-1.139.731-1.708 1.994-1.708 3.782 0 1.872.651 3.152 1.952 3.843 1.302.692 3.214 1.037 5.733 1.037H90.59c2.767 0 4.779-.405 6.039-1.22 1.263-.812 1.892-2.032 1.892-3.66 0-3.252-2.643-4.88-7.931-4.88H71.68v-21.106h19.765c17.568 0 26.352 8.826 26.352 26.475 0 7.645-2.398 13.766-7.197 18.361zm6.221-59.672H32.153v12.444h-20.13v-45.872h20.13v12.444h84.668v20.984z"/></svg>