<?xml version="1.0" encoding="UTF-8" standalone="no"?>
<!DOCTYPE svg PUBLIC "-//W3C//DTD SVG 1.1//EN" "http://www.w3.org/Graphics/SVG/1.1/DTD/svg11.dtd">
<svg width="100%" height="100%" viewBox="0 0 7500 3500" version="1.1" xmlns="http://www.w3.org/2000/svg" xmlns:xlink="http://www.w3.org/1999/xlink" xml:space="preserve" xmlns:serif="http://www.serif.com/" style="fill-rule:evenodd;clip-rule:evenodd;stroke-linecap:round;stroke-miterlimit:2;">
    <g transform="matrix(4.16667,0,0,4.16667,294.714,1513.85)">
        <g transform="matrix(43,0,0,43,128.405,309.643)">
            <path d="M0.165,-0l0.06,-0.179l0.274,-0l0.06,0.179l0.141,-0l-0.257,-0.727l-0.162,-0l-0.256,0.727l0.14,-0Zm0.096,-0.285l0.098,-0.293l0.006,-0l0.098,0.293l-0.202,-0Z" style="fill-rule:nonzero;"/>
        </g>
        <g transform="matrix(43,0,0,43,172.511,309.643)">
            <path d="M0.072,-0l0.131,-0l0,-0.266l0.135,-0l0.142,0.266l0.147,-0l-0.157,-0.288c0.086,-0.035 0.131,-0.108 0.131,-0.207c-0,-0.139 -0.09,-0.232 -0.257,-0.232l-0.272,-0l-0,0.727Zm0.131,-0.376l0,-0.241l0.121,-0c0.099,-0 0.143,0.045 0.143,0.122c-0,0.078 -0.044,0.119 -0.142,0.119l-0.122,0Z" style="fill-rule:nonzero;"/>
        </g>
        <g transform="matrix(43,0,0,43,213.471,309.643)">
            <path d="M0.04,-0.617l0.225,0l-0,0.617l0.13,-0l0,-0.617l0.225,0l0,-0.11l-0.58,-0l-0,0.11Z" style="fill-rule:nonzero;"/>
        </g>
        <g transform="matrix(43,0,0,43,280.804,309.643)">
            <path d="M0.694,-0.482c-0.022,-0.161 -0.146,-0.255 -0.308,-0.255c-0.19,-0 -0.333,0.138 -0.333,0.373c0,0.235 0.142,0.374 0.333,0.374c0.173,-0 0.288,-0.112 0.308,-0.251l-0.133,-0c-0.016,0.085 -0.086,0.133 -0.173,0.133c-0.118,-0 -0.202,-0.089 -0.202,-0.256c-0,-0.164 0.084,-0.255 0.202,-0.255c0.089,0 0.158,0.05 0.173,0.137l0.133,0Z" style="fill-rule:nonzero;"/>
        </g>
        <g transform="matrix(43,0,0,43,325.765,309.643)">
            <path d="M0.722,-0.364c-0,-0.235 -0.144,-0.373 -0.335,-0.373c-0.191,-0 -0.334,0.138 -0.334,0.373c0,0.235 0.143,0.374 0.334,0.374c0.191,-0 0.335,-0.139 0.335,-0.374Zm-0.133,0c0,0.166 -0.083,0.256 -0.202,0.256c-0.118,-0 -0.201,-0.09 -0.201,-0.256c-0,-0.165 0.083,-0.255 0.201,-0.255c0.119,0 0.202,0.09 0.202,0.255Z" style="fill-rule:nonzero;"/>
        </g>
        <g transform="matrix(43,0,0,43,372.07,309.643)">
            <path d="M0.669,-0.727l-0.131,-0l0,0.495l-0.006,0l-0.342,-0.495l-0.118,-0l-0,0.727l0.131,-0l0,-0.495l0.007,-0l0.342,0.495l0.117,-0l0,-0.727Z" style="fill-rule:nonzero;"/>
        </g>
        <g transform="matrix(43,0,0,43,416.909,309.643)">
            <path d="M0.04,-0.617l0.225,0l-0,0.617l0.13,-0l0,-0.617l0.225,0l0,-0.11l-0.58,-0l-0,0.11Z" style="fill-rule:nonzero;"/>
        </g>
        <g transform="matrix(43,0,0,43,458.266,309.643)">
            <path d="M0.072,-0l0.476,-0l-0,-0.11l-0.345,-0l0,-0.199l0.317,0l0,-0.11l-0.317,-0l0,-0.198l0.342,0l-0,-0.11l-0.473,-0l-0,0.727Z" style="fill-rule:nonzero;"/>
        </g>
        <g transform="matrix(43,0,0,43,497.379,309.643)">
            <path d="M0.072,-0.727l-0,0.727l0.126,-0l0,-0.501l0.007,0l0.201,0.499l0.094,-0l0.201,-0.498l0.007,0l0,0.5l0.127,-0l-0,-0.727l-0.162,-0l-0.216,0.527l-0.008,-0l-0.216,-0.527l-0.161,-0Z" style="fill-rule:nonzero;"/>
        </g>
        <g transform="matrix(43,0,0,43,549.334,309.643)">
            <path d="M0.072,-0l0.131,-0l0,-0.246l0.14,0c0.168,0 0.258,-0.101 0.258,-0.241c-0,-0.138 -0.089,-0.24 -0.257,-0.24l-0.272,-0l-0,0.727Zm0.131,-0.354l0,-0.263l0.121,-0c0.099,-0 0.143,0.053 0.143,0.13c-0,0.078 -0.044,0.133 -0.142,0.133l-0.122,-0Z" style="fill-rule:nonzero;"/>
        </g>
        <g transform="matrix(43,0,0,43,589.989,309.643)">
            <path d="M0.722,-0.364c-0,-0.235 -0.144,-0.373 -0.335,-0.373c-0.191,-0 -0.334,0.138 -0.334,0.373c0,0.235 0.143,0.374 0.334,0.374c0.191,-0 0.335,-0.139 0.335,-0.374Zm-0.133,0c0,0.166 -0.083,0.256 -0.202,0.256c-0.118,-0 -0.201,-0.09 -0.201,-0.256c-0,-0.165 0.083,-0.255 0.201,-0.255c0.119,0 0.202,0.09 0.202,0.255Z" style="fill-rule:nonzero;"/>
        </g>
        <g transform="matrix(43,0,0,43,636.294,309.643)">
            <path d="M0.072,-0l0.131,-0l0,-0.266l0.135,-0l0.142,0.266l0.147,-0l-0.157,-0.288c0.086,-0.035 0.131,-0.108 0.131,-0.207c-0,-0.139 -0.09,-0.232 -0.257,-0.232l-0.272,-0l-0,0.727Zm0.131,-0.376l0,-0.241l0.121,-0c0.099,-0 0.143,0.045 0.143,0.122c-0,0.078 -0.044,0.119 -0.142,0.119l-0.122,0Z" style="fill-rule:nonzero;"/>
        </g>
        <g transform="matrix(43,0,0,43,677.254,309.643)">
            <path d="M0.165,-0l0.06,-0.179l0.274,-0l0.06,0.179l0.141,-0l-0.257,-0.727l-0.162,-0l-0.256,0.727l0.14,-0Zm0.096,-0.285l0.098,-0.293l0.006,-0l0.098,0.293l-0.202,-0Z" style="fill-rule:nonzero;"/>
        </g>
        <g transform="matrix(43,0,0,43,721.36,309.643)">
            <rect x="0.072" y="-0.727" width="0.132" height="0.727" style="fill-rule:nonzero;"/>
        </g>
        <g transform="matrix(43,0,0,43,746.165,309.643)">
            <path d="M0.669,-0.727l-0.131,-0l0,0.495l-0.006,0l-0.342,-0.495l-0.118,-0l-0,0.727l0.131,-0l0,-0.495l0.007,-0l0.342,0.495l0.117,-0l0,-0.727Z" style="fill-rule:nonzero;"/>
        </g>
        <g transform="matrix(43,0,0,43,814.787,309.643)">
            <path d="M0.363,-0.761l-0.113,-0l-0.234,0.87l0.113,0l0.234,-0.87Z" style="fill-rule:nonzero;"/>
        </g>
        <g transform="matrix(43,0,0,43,867.876,309.643)">
            <path d="M0.694,-0.482c-0.022,-0.161 -0.146,-0.255 -0.308,-0.255c-0.19,-0 -0.333,0.138 -0.333,0.373c0,0.235 0.142,0.374 0.333,0.374c0.173,-0 0.288,-0.112 0.308,-0.251l-0.133,-0c-0.016,0.085 -0.086,0.133 -0.173,0.133c-0.118,-0 -0.202,-0.089 -0.202,-0.256c-0,-0.164 0.084,-0.255 0.202,-0.255c0.089,0 0.158,0.05 0.173,0.137l0.133,0Z" style="fill-rule:nonzero;"/>
        </g>
        <g transform="matrix(43,0,0,43,912.837,309.643)">
            <path d="M0.722,-0.364c-0,-0.235 -0.144,-0.373 -0.335,-0.373c-0.191,-0 -0.334,0.138 -0.334,0.373c0,0.235 0.143,0.374 0.334,0.374c0.191,-0 0.335,-0.139 0.335,-0.374Zm-0.133,0c0,0.166 -0.083,0.256 -0.202,0.256c-0.118,-0 -0.201,-0.09 -0.201,-0.256c-0,-0.165 0.083,-0.255 0.201,-0.255c0.119,0 0.202,0.09 0.202,0.255Z" style="fill-rule:nonzero;"/>
        </g>
        <g transform="matrix(43,0,0,43,959.142,309.643)">
            <path d="M0.669,-0.727l-0.131,-0l0,0.495l-0.006,0l-0.342,-0.495l-0.118,-0l-0,0.727l0.131,-0l0,-0.495l0.007,-0l0.342,0.495l0.117,-0l0,-0.727Z" style="fill-rule:nonzero;"/>
        </g>
        <g transform="matrix(43,0,0,43,1003.98,309.643)">
            <path d="M0.04,-0.617l0.225,0l-0,0.617l0.13,-0l0,-0.617l0.225,0l0,-0.11l-0.58,-0l-0,0.11Z" style="fill-rule:nonzero;"/>
        </g>
        <g transform="matrix(43,0,0,43,1045.34,309.643)">
            <path d="M0.072,-0l0.476,-0l-0,-0.11l-0.345,-0l0,-0.199l0.317,0l0,-0.11l-0.317,-0l0,-0.198l0.342,0l-0,-0.11l-0.473,-0l-0,0.727Z" style="fill-rule:nonzero;"/>
        </g>
        <g transform="matrix(43,0,0,43,1084.45,309.643)">
            <path d="M0.072,-0.727l-0,0.727l0.126,-0l0,-0.501l0.007,0l0.201,0.499l0.094,-0l0.201,-0.498l0.007,0l0,0.5l0.127,-0l-0,-0.727l-0.162,-0l-0.216,0.527l-0.008,-0l-0.216,-0.527l-0.161,-0Z" style="fill-rule:nonzero;"/>
        </g>
        <g transform="matrix(43,0,0,43,1136.41,309.643)">
            <path d="M0.072,-0l0.131,-0l0,-0.246l0.14,0c0.168,0 0.258,-0.101 0.258,-0.241c-0,-0.138 -0.089,-0.24 -0.257,-0.24l-0.272,-0l-0,0.727Zm0.131,-0.354l0,-0.263l0.121,-0c0.099,-0 0.143,0.053 0.143,0.13c-0,0.078 -0.044,0.133 -0.142,0.133l-0.122,-0Z" style="fill-rule:nonzero;"/>
        </g>
        <g transform="matrix(43,0,0,43,1177.06,309.643)">
            <path d="M0.722,-0.364c-0,-0.235 -0.144,-0.373 -0.335,-0.373c-0.191,-0 -0.334,0.138 -0.334,0.373c0,0.235 0.143,0.374 0.334,0.374c0.191,-0 0.335,-0.139 0.335,-0.374Zm-0.133,0c0,0.166 -0.083,0.256 -0.202,0.256c-0.118,-0 -0.201,-0.09 -0.201,-0.256c-0,-0.165 0.083,-0.255 0.201,-0.255c0.119,0 0.202,0.09 0.202,0.255Z" style="fill-rule:nonzero;"/>
        </g>
        <g transform="matrix(43,0,0,43,1223.37,309.643)">
            <path d="M0.072,-0l0.131,-0l0,-0.266l0.135,-0l0.142,0.266l0.147,-0l-0.157,-0.288c0.086,-0.035 0.131,-0.108 0.131,-0.207c-0,-0.139 -0.09,-0.232 -0.257,-0.232l-0.272,-0l-0,0.727Zm0.131,-0.376l0,-0.241l0.121,-0c0.099,-0 0.143,0.045 0.143,0.122c-0,0.078 -0.044,0.119 -0.142,0.119l-0.122,0Z" style="fill-rule:nonzero;"/>
        </g>
        <g transform="matrix(43,0,0,43,1264.33,309.643)">
            <path d="M0.165,-0l0.06,-0.179l0.274,-0l0.06,0.179l0.141,-0l-0.257,-0.727l-0.162,-0l-0.256,0.727l0.14,-0Zm0.096,-0.285l0.098,-0.293l0.006,-0l0.098,0.293l-0.202,-0Z" style="fill-rule:nonzero;"/>
        </g>
        <g transform="matrix(43,0,0,43,1308.43,309.643)">
            <path d="M0.072,-0l0.131,-0l0,-0.266l0.135,-0l0.142,0.266l0.147,-0l-0.157,-0.288c0.086,-0.035 0.131,-0.108 0.131,-0.207c-0,-0.139 -0.09,-0.232 -0.257,-0.232l-0.272,-0l-0,0.727Zm0.131,-0.376l0,-0.241l0.121,-0c0.099,-0 0.143,0.045 0.143,0.122c-0,0.078 -0.044,0.119 -0.142,0.119l-0.122,0Z" style="fill-rule:nonzero;"/>
        </g>
        <g transform="matrix(43,0,0,43,1348.19,309.643)">
            <path d="M0.022,-0.727l0.265,0.456l-0,0.271l0.131,-0l-0,-0.271l0.265,-0.456l-0.149,-0l-0.178,0.321l-0.007,0l-0.178,-0.321l-0.149,-0Z" style="fill-rule:nonzero;"/>
        </g>
        <g transform="matrix(43,0,0,43,1417.44,309.643)">
            <path d="M0.165,-0l0.06,-0.179l0.274,-0l0.06,0.179l0.141,-0l-0.257,-0.727l-0.162,-0l-0.256,0.727l0.14,-0Zm0.096,-0.285l0.098,-0.293l0.006,-0l0.098,0.293l-0.202,-0Z" style="fill-rule:nonzero;"/>
        </g>
        <g transform="matrix(43,0,0,43,1461.55,309.643)">
            <path d="M0.072,-0l0.131,-0l0,-0.266l0.135,-0l0.142,0.266l0.147,-0l-0.157,-0.288c0.086,-0.035 0.131,-0.108 0.131,-0.207c-0,-0.139 -0.09,-0.232 -0.257,-0.232l-0.272,-0l-0,0.727Zm0.131,-0.376l0,-0.241l0.121,-0c0.099,-0 0.143,0.045 0.143,0.122c-0,0.078 -0.044,0.119 -0.142,0.119l-0.122,0Z" style="fill-rule:nonzero;"/>
        </g>
        <g transform="matrix(43,0,0,43,1502.51,309.643)">
            <path d="M0.04,-0.617l0.225,0l-0,0.617l0.13,-0l0,-0.617l0.225,0l0,-0.11l-0.58,-0l-0,0.11Z" style="fill-rule:nonzero;"/>
        </g>
    </g>
    <rect id="Line" x="833.333" y="2521.81" width="5833.33" height="41.674"/>
    <g transform="matrix(4.18694,0,0,4.18694,248.788,-7.23664)">
        <g transform="matrix(325,0,0,325,127.615,559.17)">
            <path d="M0.038,-0l0,-0.859l0.344,0l0,0.166l-0.169,-0l0,0.167l0.162,-0l0,0.162l-0.162,-0l0,0.197l0.18,-0l0,0.167l-0.355,-0Z" style="fill-rule:nonzero;"/>
        </g>
        <g transform="matrix(325,0,0,325,258.265,559.17)">
            <path d="M0.242,0.008c-0.078,0 -0.134,-0.019 -0.169,-0.058c-0.035,-0.039 -0.052,-0.101 -0.052,-0.187l0,-0.084l0.169,0l0,0.107c0,0.043 0.014,0.064 0.041,0.064c0.015,0 0.026,-0.004 0.032,-0.013c0.006,-0.009 0.009,-0.025 0.009,-0.046c0,-0.028 -0.003,-0.051 -0.01,-0.07c-0.007,-0.018 -0.015,-0.033 -0.025,-0.045c-0.011,-0.013 -0.029,-0.032 -0.056,-0.058l-0.074,-0.074c-0.057,-0.056 -0.086,-0.118 -0.086,-0.186c-0,-0.073 0.017,-0.129 0.05,-0.167c0.034,-0.039 0.083,-0.058 0.148,-0.058c0.077,0 0.133,0.021 0.167,0.062c0.034,0.041 0.051,0.105 0.051,0.192l-0.175,0l-0.001,-0.059c0,-0.011 -0.003,-0.02 -0.01,-0.027c-0.006,-0.007 -0.015,-0.01 -0.026,-0.01c-0.013,0 -0.023,0.004 -0.03,0.011c-0.007,0.007 -0.01,0.017 -0.01,0.03c-0,0.028 0.016,0.057 0.048,0.087l0.1,0.096c0.023,0.023 0.043,0.044 0.058,0.065c0.015,0.02 0.028,0.044 0.037,0.072c0.009,0.027 0.014,0.06 0.014,0.098c0,0.085 -0.015,0.149 -0.046,0.193c-0.031,0.043 -0.083,0.065 -0.154,0.065Z" style="fill-rule:nonzero;"/>
        </g>
        <g transform="matrix(325,0,0,325,404.84,559.17)">
            <path d="M0.038,-0.859l0.227,0c0.069,0 0.118,0.022 0.147,0.067c0.029,0.044 0.044,0.109 0.044,0.194c0,0.085 -0.013,0.15 -0.039,0.193c-0.026,0.043 -0.073,0.065 -0.14,0.065l-0.07,0l0,0.34l-0.169,0l-0,-0.859Zm0.179,0.364c0.021,0 0.036,-0.004 0.046,-0.012c0.009,-0.007 0.016,-0.018 0.019,-0.032c0.003,-0.015 0.004,-0.035 0.004,-0.062c0,-0.036 -0.004,-0.062 -0.012,-0.078c-0.008,-0.016 -0.024,-0.024 -0.048,-0.024l-0.019,-0l-0,0.208l0.01,-0Z" style="fill-rule:nonzero;"/>
        </g>
        <g transform="matrix(325,0,0,325,546.865,559.17)">
            <path d="M0.015,-0l0.083,-0.859l0.291,0l0.082,0.859l-0.163,-0l-0.012,-0.139l-0.104,0l-0.01,0.139l-0.167,-0Zm0.19,-0.276l0.078,0l-0.038,-0.437l-0.008,0l-0.032,0.437Z" style="fill-rule:nonzero;"/>
        </g>
        <g transform="matrix(325,0,0,325,699.615,559.17)">
            <path d="M0.238,0.008c-0.063,0 -0.113,-0.02 -0.151,-0.059c-0.037,-0.039 -0.056,-0.093 -0.056,-0.162l-0,-0.396c-0,-0.085 0.017,-0.15 0.051,-0.193c0.034,-0.043 0.087,-0.065 0.16,-0.065c0.063,0 0.114,0.017 0.153,0.052c0.039,0.035 0.058,0.085 0.058,0.15l0,0.148l-0.171,-0l0,-0.127c0,-0.025 -0.003,-0.042 -0.009,-0.051c-0.006,-0.009 -0.016,-0.014 -0.031,-0.014c-0.015,0 -0.026,0.005 -0.032,0.016c-0.005,0.011 -0.008,0.026 -0.008,0.047l0,0.431c0,0.023 0.003,0.039 0.01,0.049c0.007,0.011 0.017,0.016 0.03,0.016c0.027,-0 0.04,-0.022 0.04,-0.065l0,-0.155l0.173,-0l-0,0.162c-0,0.144 -0.072,0.216 -0.217,0.216Z" style="fill-rule:nonzero;"/>
        </g>
        <g transform="matrix(325,0,0,325,850.415,559.17)">
            <path d="M0.038,-0l0,-0.859l0.344,0l0,0.166l-0.169,-0l0,0.167l0.162,-0l0,0.162l-0.162,-0l0,0.197l0.18,-0l0,0.167l-0.355,-0Z" style="fill-rule:nonzero;"/>
        </g>
        <g transform="matrix(325,0,0,325,1060.53,559.17)">
            <path d="M0.03,-0.041c0,-0.039 0.006,-0.076 0.019,-0.109c0.012,-0.033 0.027,-0.063 0.045,-0.09c0.018,-0.027 0.042,-0.058 0.071,-0.094c0.03,-0.037 0.054,-0.069 0.072,-0.095c0.017,-0.026 0.032,-0.056 0.045,-0.09c0.012,-0.033 0.018,-0.07 0.018,-0.109c-0,-0.023 -0.003,-0.042 -0.01,-0.055c-0.007,-0.013 -0.019,-0.019 -0.036,-0.019c-0.029,-0 -0.043,0.026 -0.043,0.077l0,0.105l-0.181,0l-0.002,-0.053c0,-0.065 0.007,-0.119 0.02,-0.161c0.013,-0.042 0.037,-0.074 0.07,-0.096c0.033,-0.022 0.079,-0.033 0.138,-0.033c0.072,0 0.128,0.02 0.167,0.061c0.039,0.04 0.059,0.097 0.059,0.171c-0,0.047 -0.007,0.09 -0.02,0.128c-0.013,0.039 -0.029,0.072 -0.047,0.101c-0.02,0.029 -0.045,0.062 -0.076,0.101c-0.023,0.027 -0.041,0.052 -0.056,0.073c-0.016,0.021 -0.029,0.043 -0.041,0.066l0.234,0l0,0.162l-0.446,0l-0,-0.041Z" style="fill-rule:nonzero;"/>
        </g>
        <g transform="matrix(325,0,0,325,1221.08,559.17)">
            <path d="M0.236,0.01c-0.075,0 -0.13,-0.02 -0.165,-0.06c-0.035,-0.039 -0.052,-0.1 -0.052,-0.181l-0,-0.09l0.176,-0l0,0.09c-0,0.026 0.003,0.046 0.01,0.06c0.007,0.015 0.02,0.022 0.04,0.022c0.014,-0 0.024,-0.005 0.031,-0.015c0.006,-0.01 0.01,-0.022 0.011,-0.036c0.001,-0.013 0.002,-0.033 0.002,-0.059l-0,-0.021c-0,-0.074 -0.024,-0.111 -0.073,-0.111c-0.009,0 -0.014,0 -0.017,0.001l0,-0.154c0.031,0 0.054,-0.007 0.069,-0.02c0.015,-0.014 0.023,-0.036 0.023,-0.066c-0,-0.049 -0.014,-0.073 -0.042,-0.073c-0.017,0 -0.029,0.004 -0.034,0.013c-0.005,0.009 -0.008,0.02 -0.01,0.033c-0.001,0.013 -0.002,0.023 -0.003,0.029l0,0.026l-0.178,0l-0.001,-0.03c0.001,-0.079 0.019,-0.136 0.056,-0.173c0.037,-0.037 0.093,-0.056 0.169,-0.056c0.146,0 0.219,0.076 0.219,0.229c0,0.045 -0.006,0.08 -0.018,0.107c-0.012,0.026 -0.033,0.044 -0.062,0.055c0.024,0.012 0.042,0.027 0.053,0.045c0.012,0.017 0.02,0.039 0.024,0.064c0.003,0.025 0.005,0.059 0.005,0.102c0,0.089 -0.018,0.156 -0.055,0.201c-0.038,0.045 -0.097,0.068 -0.178,0.068Z" style="fill-rule:nonzero;"/>
        </g>
        <g transform="matrix(325,0,0,325,1378.38,559.17)">
            <path d="M0.247,0.008c-0.073,0 -0.129,-0.02 -0.168,-0.062c-0.039,-0.041 -0.059,-0.099 -0.059,-0.175l0,-0.388c0,-0.081 0.019,-0.143 0.057,-0.186c0.038,-0.043 0.095,-0.064 0.17,-0.064c0.076,0 0.133,0.021 0.171,0.064c0.038,0.043 0.057,0.105 0.057,0.186l0,0.388c0,0.077 -0.02,0.135 -0.059,0.176c-0.039,0.041 -0.096,0.061 -0.169,0.061Zm-0,-0.158c0.013,0 0.023,-0.006 0.031,-0.018c0.008,-0.011 0.012,-0.025 0.012,-0.041l-0,-0.424c-0,-0.025 -0.003,-0.043 -0.009,-0.056c-0.005,-0.013 -0.017,-0.02 -0.034,-0.02c-0.017,0 -0.029,0.007 -0.034,0.02c-0.005,0.013 -0.008,0.031 -0.008,0.056l0,0.424c-0,0.016 0.004,0.03 0.011,0.042c0.008,0.011 0.018,0.017 0.031,0.017Z" style="fill-rule:nonzero;"/>
        </g>
    </g>
    <g transform="matrix(4.26591,0,0,9.49813,150.277,-914.246)">
        <g transform="matrix(0.990573,0,0,0.444897,1.45169,89.3614)">
            <path d="M172.252,235.081c3.388,0 6.512,-0.136 9.371,-0.409c2.86,-0.274 5.365,-0.574 7.514,-0.902c2.514,-0.401 4.791,-0.856 6.831,-1.366l-1.257,7.268c-0.51,-0.037 -1.375,-0.082 -2.596,-0.137c-1.22,-0.055 -2.504,-0.091 -3.852,-0.109c-1.348,-0.018 -2.605,-0.037 -3.771,-0.055c-1.165,-0.018 -1.967,-0.027 -2.404,-0.027l-20.929,-0l-0,-0.219c0.255,-0.765 0.482,-1.748 0.683,-2.951c0.2,-1.202 0.364,-2.686 0.491,-4.453c0.128,-1.767 0.228,-3.871 0.301,-6.312c0.073,-2.441 0.109,-5.301 0.109,-8.579l0,-13.771c0,-3.279 -0.036,-6.129 -0.109,-8.552c-0.073,-2.423 -0.173,-4.517 -0.301,-6.284c-0.127,-1.767 -0.291,-3.252 -0.491,-4.454c-0.201,-1.202 -0.428,-2.186 -0.683,-2.951l-0,-0.218l12.623,-0l-0,0.218c-0.255,0.765 -0.474,1.749 -0.656,2.951c-0.182,1.202 -0.337,2.687 -0.464,4.454c-0.128,1.767 -0.228,3.861 -0.301,6.284c-0.073,2.423 -0.109,5.273 -0.109,8.552l-0,32.022Z" style="fill:none;fill-rule:nonzero;stroke:#711;stroke-width:0.99px;"/>
            <path d="M212.772,209.78c0,-4.298 0.811,-8.288 2.432,-11.967c1.621,-3.679 3.834,-6.876 6.639,-9.59c2.806,-2.714 6.121,-4.836 9.946,-6.367c3.825,-1.53 7.924,-2.295 12.295,-2.295c4.299,0 8.352,0.72 12.159,2.159c3.807,1.439 7.122,3.488 9.945,6.147c2.824,2.66 5.055,5.884 6.695,9.673c1.639,3.789 2.459,8.033 2.459,12.732c-0,3.898 -0.693,7.66 -2.077,11.285c-1.384,3.624 -3.406,6.83 -6.066,9.617c-2.659,2.787 -5.938,5.009 -9.836,6.667c-3.898,1.658 -8.361,2.486 -13.388,2.486c-4.262,0 -8.288,-0.71 -12.077,-2.131c-3.789,-1.421 -7.104,-3.452 -9.945,-6.093c-2.842,-2.641 -5.082,-5.847 -6.722,-9.617c-1.639,-3.771 -2.459,-8.006 -2.459,-12.706Zm32.569,26.668c2.769,-0 5.319,-0.547 7.65,-1.64c2.332,-1.093 4.345,-2.659 6.039,-4.699c1.694,-2.04 3.005,-4.527 3.934,-7.459c0.929,-2.933 1.394,-6.239 1.394,-9.919c-0,-4.189 -0.446,-8.069 -1.339,-11.639c-0.893,-3.57 -2.241,-6.658 -4.044,-9.263c-1.803,-2.604 -4.053,-4.645 -6.749,-6.12c-2.695,-1.475 -5.847,-2.213 -9.453,-2.213c-2.769,-0 -5.319,0.528 -7.651,1.585c-2.331,1.056 -4.344,2.586 -6.038,4.59c-1.694,2.003 -3.015,4.463 -3.962,7.377c-0.947,2.914 -1.421,6.23 -1.421,9.945c0,4.154 0.465,8.024 1.394,11.613c0.929,3.588 2.295,6.703 4.098,9.344c1.804,2.641 4.053,4.718 6.749,6.23c2.696,1.512 5.829,2.268 9.399,2.268Z" style="fill:none;fill-rule:nonzero;stroke:#711;stroke-width:0.99px;"/>
            <path d="M345.34,202.84c0,-3.242 -0.018,-6.065 -0.054,-8.47c-0.037,-2.404 -0.11,-4.481 -0.219,-6.229c-0.109,-1.749 -0.237,-3.215 -0.383,-4.399c-0.145,-1.184 -0.327,-2.159 -0.546,-2.924l0,-0.218l8.033,-0l-0,0.218c-0.219,0.765 -0.401,1.749 -0.547,2.951c-0.145,1.202 -0.273,2.687 -0.382,4.454c-0.109,1.767 -0.182,3.861 -0.219,6.284c-0.036,2.423 -0.054,5.273 -0.054,8.552l-0,15.683c-0,3.935 -0.61,7.286 -1.831,10.055c-1.22,2.769 -2.905,5.037 -5.055,6.804c-2.149,1.766 -4.708,3.06 -7.677,3.879c-2.969,0.82 -6.221,1.23 -9.755,1.23c-3.57,-0 -6.885,-0.392 -9.945,-1.175c-3.06,-0.783 -5.711,-2.031 -7.951,-3.743c-2.241,-1.712 -4.007,-3.935 -5.301,-6.667c-1.293,-2.732 -1.94,-6.047 -1.94,-9.945l0,-16.121c0,-3.279 -0.036,-6.129 -0.109,-8.552c-0.073,-2.423 -0.182,-4.517 -0.328,-6.284c-0.146,-1.767 -0.31,-3.252 -0.492,-4.454c-0.182,-1.202 -0.4,-2.186 -0.655,-2.951l-0,-0.218l12.623,-0l-0,0.218c-0.255,0.765 -0.474,1.74 -0.656,2.924c-0.182,1.184 -0.337,2.65 -0.464,4.399c-0.128,1.748 -0.228,3.825 -0.301,6.229c-0.073,2.405 -0.109,5.228 -0.109,8.47l-0,16.34c-0,3.242 0.491,5.91 1.475,8.005c0.984,2.095 2.277,3.762 3.88,5c1.603,1.239 3.424,2.104 5.465,2.596c2.04,0.492 4.134,0.738 6.284,0.738c2.186,-0 4.308,-0.246 6.366,-0.738c2.058,-0.492 3.898,-1.357 5.519,-2.596c1.621,-1.238 2.915,-2.905 3.88,-5c0.966,-2.095 1.448,-4.763 1.448,-8.005l0,-16.34Z" style="fill:none;fill-rule:nonzero;stroke:#711;stroke-width:0.99px;"/>
            <path d="M383.397,203.059c0,-3.279 -0.036,-6.129 -0.109,-8.552c-0.073,-2.423 -0.173,-4.517 -0.301,-6.284c-0.127,-1.767 -0.291,-3.252 -0.491,-4.454c-0.201,-1.202 -0.428,-2.186 -0.683,-2.951l-0,-0.218l12.677,-0l0,0.218c-0.255,0.765 -0.482,1.749 -0.683,2.951c-0.2,1.202 -0.364,2.687 -0.492,4.454c-0.127,1.767 -0.227,3.861 -0.3,6.284c-0.073,2.423 -0.109,5.273 -0.109,8.552l-0,13.771c-0,3.278 0.036,6.138 0.109,8.579c0.073,2.441 0.173,4.545 0.3,6.312c0.128,1.767 0.292,3.251 0.492,4.453c0.201,1.203 0.428,2.186 0.683,2.951l0,0.219l-12.677,-0l-0,-0.219c0.255,-0.765 0.482,-1.748 0.683,-2.951c0.2,-1.202 0.364,-2.686 0.491,-4.453c0.128,-1.767 0.228,-3.871 0.301,-6.312c0.073,-2.441 0.109,-5.301 0.109,-8.579l0,-13.771Z" style="fill:none;fill-rule:nonzero;stroke:#711;stroke-width:0.99px;"/>
            <path d="M451.291,192.021l-1.093,-0c-0.219,-0.62 -0.574,-1.403 -1.066,-2.35c-0.491,-0.947 -1.147,-1.876 -1.967,-2.787c-0.82,-0.911 -1.83,-1.685 -3.033,-2.323c-1.202,-0.637 -2.641,-0.956 -4.317,-0.956c-1.275,0 -2.413,0.21 -3.415,0.629c-1.002,0.418 -1.849,0.992 -2.541,1.721c-0.692,0.728 -1.22,1.594 -1.585,2.596c-0.364,1.001 -0.546,2.085 -0.546,3.251c-0,1.894 0.574,3.698 1.721,5.41c1.148,1.712 2.578,3.415 4.29,5.109c1.712,1.694 3.57,3.397 5.574,5.11c2.003,1.712 3.861,3.497 5.574,5.355c1.712,1.858 3.142,3.825 4.289,5.902c1.148,2.076 1.722,4.298 1.722,6.666c-0,1.749 -0.319,3.552 -0.957,5.41c-0.637,1.858 -1.666,3.534 -3.087,5.028c-1.421,1.493 -3.243,2.723 -5.465,3.688c-2.222,0.966 -4.918,1.449 -8.087,1.449c-1.749,-0 -3.416,-0.146 -5,-0.438c-1.585,-0.291 -3.042,-0.646 -4.372,-1.065c-1.33,-0.419 -2.514,-0.875 -3.552,-1.366c-1.038,-0.492 -1.904,-0.957 -2.596,-1.394l0.984,-10.328l1.147,0c0.365,1.275 0.902,2.55 1.612,3.825c0.711,1.275 1.585,2.432 2.623,3.47c1.039,1.039 2.259,1.876 3.662,2.514c1.402,0.638 3.014,0.956 4.836,0.956c1.275,0 2.477,-0.209 3.606,-0.628c1.13,-0.419 2.104,-1.011 2.924,-1.776c0.82,-0.765 1.466,-1.703 1.94,-2.814c0.474,-1.111 0.71,-2.359 0.71,-3.744c0,-1.639 -0.328,-3.16 -0.983,-4.563c-0.656,-1.402 -1.53,-2.75 -2.623,-4.043c-1.093,-1.294 -2.323,-2.541 -3.689,-3.744c-1.366,-1.202 -2.778,-2.422 -4.235,-3.661c-1.457,-1.238 -2.869,-2.504 -4.235,-3.798c-1.366,-1.293 -2.596,-2.686 -3.689,-4.18c-1.092,-1.494 -1.967,-3.088 -2.623,-4.782c-0.655,-1.694 -0.983,-3.561 -0.983,-5.601c-0,-2.149 0.455,-4.08 1.366,-5.792c0.911,-1.712 2.113,-3.161 3.607,-4.345c1.493,-1.184 3.205,-2.094 5.136,-2.732c1.931,-0.637 3.935,-0.956 6.011,-0.956c1.53,-0 2.96,0.109 4.29,0.328c1.33,0.218 2.532,0.482 3.607,0.792c1.074,0.31 2.012,0.619 2.814,0.929c0.801,0.31 1.457,0.556 1.967,0.738l-0.273,9.29Z" style="fill:none;fill-rule:nonzero;stroke:#711;stroke-width:0.99px;"/>
            <rect x="478.637" y="206.556" width="36.941" height="7.814" style="fill:none;fill-rule:nonzero;stroke:#711;stroke-width:0.99px;"/>
            <path d="M561.694,210.6c-1.748,0 -3.233,0.064 -4.453,0.191c-1.221,0.128 -2.159,0.246 -2.815,0.356l0,5.683c0,3.133 0.009,5.756 0.028,7.869c0.018,2.113 0.054,3.88 0.109,5.3c0.055,1.421 0.1,2.56 0.137,3.416c0.036,0.856 0.091,1.594 0.163,2.213c0.948,0.255 1.959,0.419 3.033,0.492c1.075,0.073 1.922,0.109 2.541,0.109c5.028,-0 8.68,-1.102 10.957,-3.306c2.277,-2.204 3.415,-5.619 3.415,-10.246c0,-1.749 -0.273,-3.37 -0.82,-4.864c-0.546,-1.493 -1.366,-2.768 -2.459,-3.825c-1.092,-1.056 -2.459,-1.885 -4.098,-2.486c-1.639,-0.601 -3.552,-0.902 -5.738,-0.902Zm-7.268,-3.716c0.729,0.109 1.385,0.173 1.968,0.191c0.582,0.019 1.184,0.028 1.803,0.028c3.679,-0 6.603,-1.02 8.771,-3.06c2.167,-2.04 3.251,-5.082 3.251,-9.126c-0,-1.64 -0.219,-3.151 -0.656,-4.536c-0.437,-1.384 -1.065,-2.568 -1.885,-3.552c-0.82,-0.983 -1.84,-1.748 -3.06,-2.295c-1.221,-0.546 -2.614,-0.82 -4.181,-0.82c-1.056,0 -1.949,0.046 -2.677,0.137c-0.729,0.091 -1.348,0.173 -1.858,0.246c-0.583,0.146 -1.075,0.273 -1.476,0.382l0,22.405Zm-11.093,-26.394c0.692,0.037 1.403,0.055 2.131,0.055c0.62,0.036 1.294,0.055 2.022,0.055l2.131,-0c1.13,-0 2.696,-0.073 4.7,-0.219c2.004,-0.146 4.499,-0.219 7.486,-0.219c2.66,0 5.128,0.319 7.405,0.957c2.277,0.637 4.244,1.557 5.902,2.759c1.657,1.203 2.951,2.678 3.88,4.427c0.929,1.748 1.393,3.734 1.393,5.956c0,1.894 -0.264,3.579 -0.792,5.055c-0.529,1.475 -1.284,2.768 -2.268,3.88c-0.984,1.111 -2.168,2.04 -3.552,2.787c-1.384,0.746 -2.915,1.338 -4.59,1.776c2.441,0.364 4.663,0.965 6.666,1.803c2.004,0.838 3.716,1.885 5.137,3.142c1.421,1.257 2.514,2.732 3.279,4.426c0.765,1.694 1.147,3.58 1.147,5.656c0,5.756 -2.058,10.064 -6.175,12.924c-4.116,2.86 -10.255,4.29 -18.415,4.29c-0.874,-0 -1.958,-0.037 -3.252,-0.11c-1.293,-0.073 -2.641,-0.145 -4.043,-0.218c-1.403,-0.073 -2.751,-0.146 -4.044,-0.219c-1.293,-0.073 -2.377,-0.109 -3.252,-0.109l-2.896,-0l0,-0.219c0.255,-0.765 0.483,-1.748 0.683,-2.951c0.201,-1.202 0.365,-2.686 0.492,-4.453c0.128,-1.767 0.228,-3.871 0.301,-6.312c0.073,-2.441 0.109,-5.301 0.109,-8.579l-0,-13.771c-0,-3.279 -0.036,-6.139 -0.109,-8.579c-0.073,-2.441 -0.173,-4.554 -0.301,-6.339c-0.127,-1.785 -0.291,-3.279 -0.492,-4.481c-0.2,-1.202 -0.428,-2.186 -0.683,-2.951l0,-0.219Z" style="fill:none;fill-rule:nonzero;stroke:#711;stroke-width:0.99px;"/>
            <path d="M610.49,180.6c3.57,-0 7.232,-0.01 10.984,-0.028c3.752,-0.018 7.232,-0.054 10.437,-0.109c3.206,-0.055 5.966,-0.118 8.279,-0.191c2.314,-0.073 3.835,-0.182 4.563,-0.328l-2.131,5.902c-0.984,-0.255 -2.095,-0.492 -3.333,-0.711c-1.093,-0.182 -2.414,-0.355 -3.962,-0.519c-1.549,-0.164 -3.343,-0.246 -5.383,-0.246c-0.728,0 -1.566,0.027 -2.514,0.082c-0.947,0.055 -1.858,0.119 -2.732,0.191c-1.02,0.073 -2.058,0.146 -3.115,0.219l0,21.585c2.951,-0.036 5.611,-0.109 7.979,-0.219c2.368,-0.109 4.389,-0.255 6.065,-0.437c1.968,-0.145 3.698,-0.346 5.192,-0.601l-1.312,6.503c-2.004,-0.255 -4.025,-0.474 -6.066,-0.656c-1.748,-0.182 -3.679,-0.337 -5.792,-0.464c-2.113,-0.128 -4.135,-0.191 -6.066,-0.191l0,24.809c3.388,-0 6.503,-0.137 9.345,-0.41c2.841,-0.273 5.319,-0.574 7.432,-0.902c2.477,-0.401 4.717,-0.856 6.721,-1.366l-1.257,7.159c-0.546,-0.037 -1.43,-0.082 -2.65,-0.137c-1.221,-0.055 -2.496,-0.091 -3.825,-0.109c-1.33,-0.018 -2.578,-0.037 -3.744,-0.055c-1.165,-0.018 -1.967,-0.027 -2.404,-0.027l-20.711,-0l0,-0.219c0.255,-0.765 0.483,-1.748 0.683,-2.951c0.201,-1.202 0.365,-2.686 0.492,-4.453c0.128,-1.767 0.228,-3.871 0.301,-6.312c0.073,-2.441 0.109,-5.301 0.109,-8.579l-0,-13.771c-0,-3.279 -0.036,-6.129 -0.109,-8.552c-0.073,-2.423 -0.173,-4.517 -0.301,-6.284c-0.127,-1.767 -0.291,-3.252 -0.492,-4.454c-0.2,-1.202 -0.428,-2.186 -0.683,-2.951l0,-0.218Z" style="fill:none;fill-rule:nonzero;stroke:#711;stroke-width:0.99px;"/>
            <path d="M683.357,210.819c0.728,0.109 1.466,0.191 2.213,0.246c0.747,0.054 1.466,0.082 2.158,0.082c4.554,-0 8.006,-1.221 10.356,-3.662c2.349,-2.441 3.524,-6.102 3.524,-10.983c0,-4.008 -0.938,-7.177 -2.814,-9.509c-1.876,-2.331 -4.636,-3.497 -8.279,-3.497c-1.166,-0 -2.195,0.045 -3.087,0.136c-0.893,0.092 -1.649,0.192 -2.268,0.301c-0.692,0.146 -1.293,0.291 -1.803,0.437l-0,26.449Zm8.36,3.552c-0.728,0.109 -1.448,0.173 -2.158,0.191c-0.71,0.018 -1.43,0.027 -2.159,0.027c-0.582,0 -1.22,-0.018 -1.912,-0.054c-0.692,-0.037 -1.403,-0.091 -2.131,-0.164l-0,2.677c-0,3.243 0.036,6.075 0.109,8.498c0.073,2.422 0.173,4.508 0.301,6.257c0.127,1.748 0.282,3.215 0.464,4.399c0.182,1.184 0.401,2.158 0.656,2.923l-0,0.219l-12.623,-0l-0,-0.219c0.255,-0.765 0.482,-1.748 0.683,-2.951c0.2,-1.202 0.364,-2.686 0.491,-4.453c0.128,-1.767 0.228,-3.871 0.301,-6.312c0.073,-2.441 0.109,-5.301 0.109,-8.579l0,-13.771c0,-3.279 -0.036,-6.129 -0.109,-8.552c-0.073,-2.423 -0.173,-4.517 -0.301,-6.284c-0.127,-1.767 -0.291,-3.252 -0.491,-4.454c-0.201,-1.202 -0.428,-2.186 -0.683,-2.951l-0,-0.218c0.582,0.036 1.202,0.072 1.858,0.109c0.546,0.036 1.156,0.064 1.83,0.082c0.674,0.018 1.357,0.027 2.049,0.027c1.166,0 2.897,-0.109 5.192,-0.328c2.295,-0.218 4.991,-0.328 8.087,-0.328c3.133,0 5.984,0.383 8.552,1.148c2.569,0.765 4.773,1.858 6.613,3.279c1.839,1.421 3.26,3.151 4.262,5.191c1.002,2.04 1.503,4.317 1.503,6.831c-0,1.967 -0.274,3.761 -0.82,5.382c-0.547,1.622 -1.312,3.079 -2.295,4.372c-0.984,1.293 -2.15,2.432 -3.498,3.415c-1.347,0.984 -2.841,1.84 -4.48,2.569l11.421,16.12c0.983,1.312 1.976,2.569 2.978,3.771c1.002,1.202 1.958,2.277 2.869,3.224c0.91,0.947 1.766,1.74 2.568,2.377c0.801,0.638 1.475,1.066 2.022,1.284l-0,0.219l-14.317,-0c-0,-0.328 -0.228,-0.902 -0.683,-1.722c-0.456,-0.819 -0.984,-1.675 -1.585,-2.568c-0.601,-0.892 -1.202,-1.758 -1.803,-2.596c-0.602,-0.837 -1.048,-1.457 -1.339,-1.858l-11.531,-16.229Z" style="fill:none;fill-rule:nonzero;stroke:#711;stroke-width:0.99px;"/>
            <path d="M795.623,240.109l-2.131,-0l-43.444,-42.733l0,19.454c0,3.278 0.018,6.138 0.055,8.579c0.036,2.441 0.1,4.545 0.191,6.312c0.091,1.767 0.219,3.251 0.383,4.453c0.163,1.203 0.373,2.186 0.628,2.951l-0,0.219l-8.197,-0l0,-0.219c0.255,-0.765 0.474,-1.748 0.656,-2.951c0.182,-1.202 0.328,-2.686 0.437,-4.453c0.109,-1.767 0.182,-3.871 0.219,-6.312c0.036,-2.441 0.054,-5.301 0.054,-8.579l0,-13.771c0,-3.279 -0.018,-6.129 -0.054,-8.552c-0.037,-2.423 -0.11,-4.517 -0.219,-6.284c-0.109,-1.767 -0.255,-3.252 -0.437,-4.454c-0.182,-1.202 -0.401,-2.186 -0.656,-2.951l0,-0.218l3.388,-0l43.498,42.951l0,-20.492c0,-3.279 -0.018,-6.129 -0.054,-8.552c-0.037,-2.423 -0.101,-4.517 -0.192,-6.284c-0.091,-1.767 -0.209,-3.252 -0.355,-4.454c-0.146,-1.202 -0.346,-2.186 -0.601,-2.951l-0,-0.218l8.142,-0l0,0.218c-0.255,0.765 -0.464,1.749 -0.628,2.951c-0.164,1.202 -0.301,2.687 -0.41,4.454c-0.109,1.767 -0.182,3.861 -0.219,6.284c-0.036,2.423 -0.054,5.273 -0.054,8.552l-0,37.05Z" style="fill:none;fill-rule:nonzero;stroke:#711;stroke-width:0.99px;"/>
            <path d="M859.693,220.874l-13.934,-0c-1.858,-0 -3.625,0.009 -5.301,0.027c-1.676,0.018 -3.206,0.036 -4.59,0.054c-1.385,0.019 -2.459,0.028 -3.224,0.028l-2.022,4.262c-0.875,1.749 -1.621,3.27 -2.241,4.563c-0.619,1.293 -1.129,2.432 -1.53,3.415c-0.401,0.984 -0.692,1.831 -0.874,2.541c-0.182,0.711 -0.273,1.376 -0.273,1.995c-0,0.401 0.018,0.701 0.054,0.902c0.037,0.2 0.091,0.355 0.164,0.464l0,0.219l-9.617,-0l-0,-0.219c0.255,-0.255 0.655,-0.81 1.202,-1.666c0.546,-0.857 1.175,-1.904 1.885,-3.143c0.71,-1.238 1.476,-2.641 2.295,-4.207c0.82,-1.567 1.63,-3.188 2.432,-4.864l22.295,-46.012l4.099,0l21.858,46.012c0.838,1.749 1.685,3.425 2.541,5.028c0.856,1.603 1.649,3.032 2.377,4.289c0.729,1.257 1.366,2.295 1.913,3.115c0.546,0.82 0.911,1.302 1.093,1.448l-0,0.219l-13.99,-0c0.073,-0.292 0.11,-0.556 0.11,-0.793l-0,-0.792c-0,-0.801 -0.173,-1.767 -0.519,-2.896c-0.346,-1.13 -0.765,-2.286 -1.257,-3.47c-0.492,-1.184 -1.002,-2.323 -1.53,-3.416c-0.529,-1.092 -0.957,-2.003 -1.284,-2.732l-2.132,-4.371Zm-24.918,-4.263l3.333,0c1.53,0 3.161,-0.009 4.891,-0.027c1.73,-0.018 3.47,-0.027 5.219,-0.027c1.748,-0 3.442,-0.01 5.082,-0.028c1.639,-0.018 3.115,-0.027 4.426,-0.027l-11.312,-24.154l-11.639,24.263Z" style="fill:none;fill-rule:nonzero;stroke:#711;stroke-width:0.99px;"/>
            <path d="M912.997,210.819c0.728,0.109 1.466,0.191 2.213,0.246c0.747,0.054 1.466,0.082 2.158,0.082c4.554,-0 8.006,-1.221 10.356,-3.662c2.349,-2.441 3.524,-6.102 3.524,-10.983c0,-4.008 -0.938,-7.177 -2.814,-9.509c-1.876,-2.331 -4.636,-3.497 -8.279,-3.497c-1.166,-0 -2.195,0.045 -3.087,0.136c-0.893,0.092 -1.649,0.192 -2.268,0.301c-0.692,0.146 -1.293,0.291 -1.803,0.437l-0,26.449Zm8.36,3.552c-0.728,0.109 -1.448,0.173 -2.158,0.191c-0.711,0.018 -1.43,0.027 -2.159,0.027c-0.583,0 -1.22,-0.018 -1.912,-0.054c-0.692,-0.037 -1.403,-0.091 -2.131,-0.164l-0,2.677c-0,3.243 0.036,6.075 0.109,8.498c0.073,2.422 0.173,4.508 0.3,6.257c0.128,1.748 0.283,3.215 0.465,4.399c0.182,1.184 0.401,2.158 0.656,2.923l-0,0.219l-12.624,-0l0,-0.219c0.255,-0.765 0.483,-1.748 0.684,-2.951c0.2,-1.202 0.364,-2.686 0.491,-4.453c0.128,-1.767 0.228,-3.871 0.301,-6.312c0.073,-2.441 0.109,-5.301 0.109,-8.579l0,-13.771c0,-3.279 -0.036,-6.129 -0.109,-8.552c-0.073,-2.423 -0.173,-4.517 -0.301,-6.284c-0.127,-1.767 -0.291,-3.252 -0.491,-4.454c-0.201,-1.202 -0.429,-2.186 -0.684,-2.951l0,-0.218c0.583,0.036 1.203,0.072 1.858,0.109c0.547,0.036 1.157,0.064 1.831,0.082c0.674,0.018 1.357,0.027 2.049,0.027c1.166,0 2.897,-0.109 5.192,-0.328c2.295,-0.218 4.991,-0.328 8.087,-0.328c3.133,0 5.984,0.383 8.552,1.148c2.569,0.765 4.773,1.858 6.612,3.279c1.84,1.421 3.261,3.151 4.263,5.191c1.002,2.04 1.503,4.317 1.503,6.831c-0,1.967 -0.274,3.761 -0.82,5.382c-0.547,1.622 -1.312,3.079 -2.295,4.372c-0.984,1.293 -2.15,2.432 -3.498,3.415c-1.348,0.984 -2.841,1.84 -4.481,2.569l11.421,16.12c0.984,1.312 1.977,2.569 2.979,3.771c1.001,1.202 1.958,2.277 2.869,3.224c0.91,0.947 1.766,1.74 2.568,2.377c0.801,0.638 1.475,1.066 2.022,1.284l-0,0.219l-14.317,-0c-0,-0.328 -0.228,-0.902 -0.684,-1.722c-0.455,-0.819 -0.983,-1.675 -1.584,-2.568c-0.601,-0.892 -1.202,-1.758 -1.804,-2.596c-0.601,-0.837 -1.047,-1.457 -1.338,-1.858l-11.531,-16.229Z" style="fill:none;fill-rule:nonzero;stroke:#711;stroke-width:0.99px;"/>
            <path d="M985.179,184.479c-0.037,2.988 -0.073,5.884 -0.109,8.689c-0,1.202 -0.01,2.432 -0.028,3.689c-0.018,1.257 -0.036,2.504 -0.054,3.743c-0.019,1.239 -0.028,2.413 -0.028,3.525l0,2.978c0,1.821 0.009,4.016 0.028,6.585c0.018,2.568 0.045,5.2 0.082,7.896c0.036,2.696 0.091,5.291 0.163,7.787c0.073,2.495 0.164,4.581 0.274,6.257c0.364,0.073 0.838,0.136 1.42,0.191c0.583,0.055 1.194,0.109 1.831,0.164c0.638,0.055 1.266,0.091 1.885,0.109c0.62,0.019 1.148,0.028 1.585,0.028c2.004,-0 4.035,-0.128 6.093,-0.383c2.058,-0.255 4.044,-0.738 5.957,-1.448c1.912,-0.71 3.706,-1.685 5.382,-2.923c1.676,-1.239 3.142,-2.833 4.399,-4.782c1.257,-1.949 2.241,-4.299 2.951,-7.049c0.71,-2.751 1.066,-6.002 1.066,-9.755c-0,-8.269 -1.977,-14.645 -5.929,-19.126c-3.953,-4.481 -9.846,-6.721 -17.678,-6.721c-0.765,-0 -1.576,0.018 -2.432,0.055c-0.856,0.036 -1.703,0.082 -2.541,0.136c-0.838,0.055 -1.63,0.119 -2.377,0.192c-0.747,0.072 -1.394,0.127 -1.94,0.163Zm-11.312,-3.989c0.874,0.037 1.694,0.055 2.459,0.055c0.656,0.036 1.293,0.055 1.913,0.055l1.366,-0c0.51,-0 1.421,-0.019 2.732,-0.055c1.312,-0.036 2.796,-0.082 4.454,-0.137c1.657,-0.054 3.406,-0.109 5.246,-0.164c1.84,-0.054 3.543,-0.082 5.109,-0.082c4.263,0 8.325,0.492 12.186,1.476c3.862,0.983 7.259,2.596 10.192,4.836c2.932,2.24 5.255,5.173 6.967,8.798c1.712,3.625 2.568,8.097 2.568,13.416c0,5.719 -0.983,10.564 -2.95,14.535c-1.968,3.971 -4.627,7.204 -7.979,9.7c-3.351,2.495 -7.24,4.299 -11.667,5.41c-4.426,1.111 -9.098,1.667 -14.016,1.667c-1.166,-0 -2.623,-0.037 -4.372,-0.11c-1.749,-0.073 -3.534,-0.145 -5.355,-0.218c-1.822,-0.073 -3.543,-0.146 -5.164,-0.219c-1.621,-0.073 -2.851,-0.109 -3.689,-0.109l0,-0.219c0.255,-0.765 0.483,-1.748 0.683,-2.951c0.201,-1.202 0.365,-2.686 0.492,-4.453c0.128,-1.767 0.228,-3.871 0.301,-6.312c0.072,-2.441 0.109,-5.301 0.109,-8.579l-0,-13.771c-0,-3.279 -0.037,-6.139 -0.109,-8.579c-0.073,-2.441 -0.173,-4.554 -0.301,-6.339c-0.127,-1.785 -0.291,-3.279 -0.492,-4.481c-0.2,-1.202 -0.428,-2.186 -0.683,-2.951l0,-0.219Z" style="fill:none;fill-rule:nonzero;stroke:#711;stroke-width:0.99px;"/>
            <path d="M1141.94,192.021l-1.093,-0c-0.218,-0.62 -0.574,-1.403 -1.065,-2.35c-0.492,-0.947 -1.148,-1.876 -1.968,-2.787c-0.819,-0.911 -1.83,-1.685 -3.032,-2.323c-1.203,-0.637 -2.642,-0.956 -4.317,-0.956c-1.275,0 -2.414,0.21 -3.416,0.629c-1.002,0.418 -1.849,0.992 -2.541,1.721c-0.692,0.728 -1.22,1.594 -1.585,2.596c-0.364,1.001 -0.546,2.085 -0.546,3.251c0,1.894 0.574,3.698 1.721,5.41c1.148,1.712 2.578,3.415 4.29,5.109c1.712,1.694 3.57,3.397 5.574,5.11c2.004,1.712 3.862,3.497 5.574,5.355c1.712,1.858 3.142,3.825 4.289,5.902c1.148,2.076 1.722,4.298 1.722,6.666c-0,1.749 -0.319,3.552 -0.956,5.41c-0.638,1.858 -1.667,3.534 -3.088,5.028c-1.421,1.493 -3.242,2.723 -5.465,3.688c-2.222,0.966 -4.918,1.449 -8.087,1.449c-1.749,-0 -3.415,-0.146 -5,-0.438c-1.585,-0.291 -3.042,-0.646 -4.372,-1.065c-1.33,-0.419 -2.514,-0.875 -3.552,-1.366c-1.038,-0.492 -1.903,-0.957 -2.596,-1.394l0.984,-10.328l1.148,0c0.364,1.275 0.901,2.55 1.612,3.825c0.71,1.275 1.584,2.432 2.623,3.47c1.038,1.039 2.258,1.876 3.661,2.514c1.403,0.638 3.015,0.956 4.836,0.956c1.275,0 2.477,-0.209 3.607,-0.628c1.129,-0.419 2.104,-1.011 2.923,-1.776c0.82,-0.765 1.467,-1.703 1.94,-2.814c0.474,-1.111 0.711,-2.359 0.711,-3.744c-0,-1.639 -0.328,-3.16 -0.984,-4.563c-0.656,-1.402 -1.53,-2.75 -2.623,-4.043c-1.093,-1.294 -2.322,-2.541 -3.689,-3.744c-1.366,-1.202 -2.777,-2.422 -4.235,-3.661c-1.457,-1.238 -2.869,-2.504 -4.235,-3.798c-1.366,-1.293 -2.595,-2.686 -3.688,-4.18c-1.093,-1.494 -1.968,-3.088 -2.623,-4.782c-0.656,-1.694 -0.984,-3.561 -0.984,-5.601c0,-2.149 0.455,-4.08 1.366,-5.792c0.911,-1.712 2.113,-3.161 3.607,-4.345c1.494,-1.184 3.206,-2.094 5.137,-2.732c1.93,-0.637 3.934,-0.956 6.011,-0.956c1.53,-0 2.96,0.109 4.289,0.328c1.33,0.218 2.532,0.482 3.607,0.792c1.075,0.31 2.013,0.619 2.814,0.929c0.802,0.31 1.457,0.556 1.967,0.738l-0.273,9.29Z" style="fill:none;fill-rule:nonzero;stroke:#711;stroke-width:0.99px;"/>
            <path d="M1184.75,184.643c-3.316,0 -6.33,0.146 -9.044,0.438c-2.714,0.291 -5.055,0.601 -7.022,0.929c-2.259,0.4 -4.299,0.837 -6.121,1.311l1.093,-7.049c0.547,0.073 1.439,0.127 2.678,0.164c1.239,0.036 2.541,0.063 3.907,0.082c1.366,0.018 2.66,0.036 3.88,0.054c1.22,0.018 2.067,0.028 2.541,0.028l25.848,-0c0.437,-0 1.247,-0.01 2.431,-0.028c1.184,-0.018 2.45,-0.036 3.798,-0.054c1.348,-0.019 2.641,-0.046 3.88,-0.082c1.239,-0.037 2.131,-0.091 2.678,-0.164l1.093,7.049c-1.749,-0.474 -3.753,-0.911 -6.012,-1.311c-1.93,-0.328 -4.253,-0.638 -6.967,-0.929c-2.714,-0.292 -5.765,-0.438 -9.153,-0.438l-0,32.187c-0,3.278 0.036,6.138 0.109,8.579c0.073,2.441 0.173,4.545 0.301,6.312c0.127,1.767 0.282,3.251 0.464,4.453c0.182,1.203 0.401,2.186 0.656,2.951l0,0.219l-12.623,-0l-0,-0.219c0.255,-0.765 0.473,-1.748 0.656,-2.951c0.182,-1.202 0.346,-2.686 0.491,-4.453c0.146,-1.767 0.255,-3.871 0.328,-6.312c0.073,-2.441 0.11,-5.301 0.11,-8.579l-0,-32.187Z" style="fill:none;fill-rule:nonzero;stroke:#711;stroke-width:0.99px;"/>
            <rect x="1232.02" y="206.556" width="36.941" height="7.814" style="fill:none;fill-rule:nonzero;stroke:#711;stroke-width:0.99px;"/>
            <path d="M1298.95,203.059c-0,-3.279 -0.037,-6.129 -0.109,-8.552c-0.073,-2.423 -0.173,-4.517 -0.301,-6.284c-0.127,-1.767 -0.291,-3.252 -0.492,-4.454c-0.2,-1.202 -0.428,-2.186 -0.683,-2.951l0,-0.218l12.678,-0l-0,0.218c-0.255,0.765 -0.483,1.749 -0.683,2.951c-0.2,1.202 -0.364,2.687 -0.492,4.454c-0.127,1.767 -0.228,3.861 -0.3,6.284c-0.073,2.423 -0.11,5.273 -0.11,8.552l0,25.301c0,5.173 -0.446,9.545 -1.339,13.115c-0.892,3.57 -2.185,6.676 -3.879,9.317c-1.694,2.641 -3.744,5 -6.148,7.077c-2.405,2.076 -5.137,4.226 -8.197,6.448l-1.038,-1.257c2.659,-2.404 4.736,-4.8 6.229,-7.186c1.494,-2.386 2.596,-4.945 3.306,-7.678c0.711,-2.732 1.148,-5.71 1.312,-8.934c0.164,-3.224 0.246,-6.858 0.246,-10.902l-0,-25.301Z" style="fill:none;fill-rule:nonzero;stroke:#711;stroke-width:0.99px;"/>
            <path d="M1340.7,180.6c3.571,-0 7.232,-0.01 10.984,-0.028c3.753,-0.018 7.232,-0.054 10.438,-0.109c3.205,-0.055 5.965,-0.118 8.278,-0.191c2.314,-0.073 3.835,-0.182 4.563,-0.328l-2.131,5.902c-0.983,-0.255 -2.095,-0.492 -3.333,-0.711c-1.093,-0.182 -2.414,-0.355 -3.962,-0.519c-1.548,-0.164 -3.343,-0.246 -5.383,-0.246c-0.728,0 -1.566,0.027 -2.513,0.082c-0.948,0.055 -1.858,0.119 -2.733,0.191c-1.02,0.073 -2.058,0.146 -3.114,0.219l-0,21.585c2.95,-0.036 5.61,-0.109 7.978,-0.219c2.368,-0.109 4.39,-0.255 6.065,-0.437c1.968,-0.145 3.698,-0.346 5.192,-0.601l-1.312,6.503c-2.003,-0.255 -4.025,-0.474 -6.065,-0.656c-1.749,-0.182 -3.68,-0.337 -5.793,-0.464c-2.113,-0.128 -4.135,-0.191 -6.065,-0.191l-0,24.809c3.388,-0 6.502,-0.137 9.344,-0.41c2.842,-0.273 5.319,-0.574 7.432,-0.902c2.477,-0.401 4.718,-0.856 6.721,-1.366l-1.257,7.159c-0.546,-0.037 -1.43,-0.082 -2.65,-0.137c-1.22,-0.055 -2.495,-0.091 -3.825,-0.109c-1.33,-0.018 -2.578,-0.037 -3.743,-0.055c-1.166,-0.018 -1.968,-0.027 -2.405,-0.027l-20.711,-0l0,-0.219c0.255,-0.765 0.483,-1.748 0.683,-2.951c0.201,-1.202 0.365,-2.686 0.492,-4.453c0.128,-1.767 0.228,-3.871 0.301,-6.312c0.073,-2.441 0.109,-5.301 0.109,-8.579l0,-13.771c0,-3.279 -0.036,-6.129 -0.109,-8.552c-0.073,-2.423 -0.173,-4.517 -0.301,-6.284c-0.127,-1.767 -0.291,-3.252 -0.492,-4.454c-0.2,-1.202 -0.428,-2.186 -0.683,-2.951l0,-0.218Z" style="fill:none;fill-rule:nonzero;stroke:#711;stroke-width:0.99px;"/>
            <path d="M1439.28,220.874l-13.935,-0c-1.858,-0 -3.625,0.009 -5.301,0.027c-1.676,0.018 -3.206,0.036 -4.59,0.054c-1.384,0.019 -2.459,0.028 -3.224,0.028l-2.022,4.262c-0.874,1.749 -1.621,3.27 -2.24,4.563c-0.62,1.293 -1.13,2.432 -1.531,3.415c-0.4,0.984 -0.692,1.831 -0.874,2.541c-0.182,0.711 -0.273,1.376 -0.273,1.995c-0,0.401 0.018,0.701 0.055,0.902c0.036,0.2 0.091,0.355 0.164,0.464l-0,0.219l-9.618,-0l-0,-0.219c0.255,-0.255 0.656,-0.81 1.202,-1.666c0.547,-0.857 1.175,-1.904 1.885,-3.143c0.711,-1.238 1.476,-2.641 2.295,-4.207c0.82,-1.567 1.631,-3.188 2.432,-4.864l22.296,-46.012l4.098,0l21.858,46.012c0.838,1.749 1.685,3.425 2.541,5.028c0.857,1.603 1.649,3.032 2.378,4.289c0.728,1.257 1.366,2.295 1.912,3.115c0.547,0.82 0.911,1.302 1.093,1.448l0,0.219l-13.989,-0c0.073,-0.292 0.109,-0.556 0.109,-0.793l0,-0.792c0,-0.801 -0.173,-1.767 -0.519,-2.896c-0.346,-1.13 -0.765,-2.286 -1.257,-3.47c-0.492,-1.184 -1.002,-2.323 -1.53,-3.416c-0.528,-1.092 -0.956,-2.003 -1.284,-2.732l-2.131,-4.371Zm-24.919,-4.263l3.334,0c1.53,0 3.16,-0.009 4.89,-0.027c1.731,-0.018 3.47,-0.027 5.219,-0.027c1.749,-0 3.443,-0.01 5.082,-0.028c1.639,-0.018 3.115,-0.027 4.426,-0.027l-11.311,-24.154l-11.64,24.263Z" style="fill:none;fill-rule:nonzero;stroke:#711;stroke-width:0.99px;"/>
            <path d="M1536.24,240.109l-2.132,-0l-43.443,-42.733l0,19.454c0,3.278 0.018,6.138 0.055,8.579c0.036,2.441 0.1,4.545 0.191,6.312c0.091,1.767 0.219,3.251 0.382,4.453c0.164,1.203 0.374,2.186 0.629,2.951l-0,0.219l-8.197,-0l0,-0.219c0.255,-0.765 0.474,-1.748 0.656,-2.951c0.182,-1.202 0.328,-2.686 0.437,-4.453c0.109,-1.767 0.182,-3.871 0.219,-6.312c0.036,-2.441 0.054,-5.301 0.054,-8.579l0,-13.771c0,-3.279 -0.018,-6.129 -0.054,-8.552c-0.037,-2.423 -0.11,-4.517 -0.219,-6.284c-0.109,-1.767 -0.255,-3.252 -0.437,-4.454c-0.182,-1.202 -0.401,-2.186 -0.656,-2.951l0,-0.218l3.388,-0l43.498,42.951l0,-20.492c0,-3.279 -0.018,-6.129 -0.055,-8.552c-0.036,-2.423 -0.1,-4.517 -0.191,-6.284c-0.091,-1.767 -0.209,-3.252 -0.355,-4.454c-0.146,-1.202 -0.346,-2.186 -0.601,-2.951l-0,-0.218l8.142,-0l0,0.218c-0.255,0.765 -0.464,1.749 -0.628,2.951c-0.164,1.202 -0.301,2.687 -0.41,4.454c-0.109,1.767 -0.182,3.861 -0.219,6.284c-0.036,2.423 -0.054,5.273 -0.054,8.552l-0,37.05Z" style="fill:none;fill-rule:nonzero;stroke:#711;stroke-width:0.99px;"/>
        </g>
        <g transform="matrix(0.990573,0,0,0.444897,1.45169,89.3614)">
            <g transform="matrix(111.915,0,0,111.915,154,239.344)">
                <path d="M0.163,-0.038c0.03,-0 0.058,-0.001 0.084,-0.004c0.025,-0.002 0.048,-0.005 0.067,-0.008c0.022,-0.003 0.043,-0.007 0.061,-0.012l-0.011,0.065c-0.005,-0 -0.013,-0.001 -0.023,-0.001c-0.011,-0.001 -0.023,-0.001 -0.035,-0.001c-0.012,-0 -0.023,-0.001 -0.034,-0.001c-0.01,0 -0.017,-0 -0.021,-0l-0.187,-0l-0,-0.002c0.002,-0.007 0.004,-0.016 0.006,-0.026c0.002,-0.011 0.003,-0.024 0.004,-0.04c0.002,-0.016 0.002,-0.035 0.003,-0.057c0.001,-0.021 0.001,-0.047 0.001,-0.076l0,-0.123c0,-0.03 -0,-0.055 -0.001,-0.077c-0.001,-0.021 -0.001,-0.04 -0.003,-0.056c-0.001,-0.016 -0.002,-0.029 -0.004,-0.04c-0.002,-0.01 -0.004,-0.019 -0.006,-0.026l-0,-0.002l0.113,0l-0,0.002c-0.003,0.007 -0.004,0.016 -0.006,0.026c-0.002,0.011 -0.003,0.024 -0.004,0.04c-0.001,0.016 -0.002,0.035 -0.003,0.056c-0.001,0.022 -0.001,0.047 -0.001,0.077l0,0.286Z" style="fill:#711;fill-rule:nonzero;"/>
            </g>
            <g transform="matrix(111.915,0,0,111.915,208.728,239.344)">
                <path d="M0.036,-0.264c0,-0.039 0.007,-0.074 0.022,-0.107c0.014,-0.033 0.034,-0.062 0.059,-0.086c0.025,-0.024 0.055,-0.043 0.089,-0.057c0.034,-0.013 0.071,-0.02 0.11,-0.02c0.038,-0 0.075,0.006 0.109,0.019c0.034,0.013 0.063,0.031 0.088,0.055c0.026,0.024 0.046,0.053 0.06,0.086c0.015,0.034 0.022,0.072 0.022,0.114c0,0.035 -0.006,0.069 -0.018,0.101c-0.013,0.032 -0.031,0.061 -0.055,0.086c-0.023,0.025 -0.053,0.045 -0.087,0.06c-0.035,0.014 -0.075,0.022 -0.12,0.022c-0.038,-0 -0.074,-0.007 -0.108,-0.019c-0.034,-0.013 -0.063,-0.031 -0.089,-0.055c-0.025,-0.023 -0.045,-0.052 -0.06,-0.086c-0.015,-0.033 -0.022,-0.071 -0.022,-0.113Zm0.291,0.238c0.025,0 0.048,-0.005 0.069,-0.015c0.02,-0.009 0.038,-0.023 0.053,-0.042c0.016,-0.018 0.027,-0.04 0.036,-0.066c0.008,-0.026 0.012,-0.056 0.012,-0.089c0,-0.037 -0.004,-0.072 -0.012,-0.104c-0.008,-0.032 -0.02,-0.059 -0.036,-0.083c-0.016,-0.023 -0.036,-0.041 -0.06,-0.054c-0.024,-0.013 -0.053,-0.02 -0.085,-0.02c-0.025,-0 -0.047,0.005 -0.068,0.014c-0.021,0.01 -0.039,0.023 -0.054,0.041c-0.015,0.018 -0.027,0.04 -0.036,0.066c-0.008,0.026 -0.012,0.056 -0.012,0.089c-0,0.037 0.004,0.072 0.012,0.104c0.009,0.032 0.021,0.06 0.037,0.083c0.016,0.024 0.036,0.042 0.06,0.056c0.024,0.013 0.052,0.02 0.084,0.02Z" style="fill:#711;fill-rule:nonzero;"/>
            </g>
            <g transform="matrix(111.915,0,0,111.915,293.208,239.344)">
                <path d="M0.466,-0.326c-0,-0.029 -0,-0.054 -0.001,-0.076c0,-0.021 -0.001,-0.04 -0.002,-0.056c-0.001,-0.015 -0.002,-0.028 -0.003,-0.039c-0.001,-0.01 -0.003,-0.019 -0.005,-0.026l0,-0.002l0.072,0l-0,0.002c-0.002,0.007 -0.004,0.016 -0.005,0.026c-0.001,0.011 -0.002,0.024 -0.003,0.04c-0.001,0.016 -0.002,0.035 -0.002,0.056c-0.001,0.022 -0.001,0.047 -0.001,0.077l0,0.14c0,0.035 -0.005,0.065 -0.016,0.09c-0.011,0.025 -0.026,0.045 -0.045,0.061c-0.02,0.015 -0.042,0.027 -0.069,0.034c-0.027,0.008 -0.056,0.011 -0.087,0.011c-0.032,0 -0.062,-0.003 -0.089,-0.01c-0.027,-0.007 -0.051,-0.018 -0.071,-0.034c-0.02,-0.015 -0.036,-0.035 -0.047,-0.059c-0.012,-0.025 -0.018,-0.054 -0.018,-0.089l0,-0.144c0,-0.03 -0,-0.055 -0.001,-0.077c-0,-0.021 -0.001,-0.04 -0.003,-0.056c-0.001,-0.016 -0.002,-0.029 -0.004,-0.04c-0.002,-0.01 -0.004,-0.019 -0.006,-0.026l0,-0.002l0.113,0l-0,0.002c-0.002,0.007 -0.004,0.016 -0.006,0.026c-0.002,0.011 -0.003,0.024 -0.004,0.039c-0.001,0.016 -0.002,0.035 -0.003,0.056c-0,0.022 -0.001,0.047 -0.001,0.076l0,0.146c0,0.029 0.005,0.053 0.013,0.071c0.009,0.019 0.021,0.034 0.035,0.045c0.014,0.011 0.031,0.019 0.049,0.023c0.018,0.005 0.037,0.007 0.056,0.007c0.02,-0 0.039,-0.002 0.057,-0.007c0.018,-0.004 0.035,-0.012 0.049,-0.023c0.015,-0.011 0.026,-0.026 0.035,-0.045c0.009,-0.018 0.013,-0.042 0.013,-0.071l-0,-0.146Z" style="fill:#711;fill-rule:nonzero;"/>
            </g>
            <g transform="matrix(111.915,0,0,111.915,374.217,239.344)">
                <path d="M0.082,-0.324c0,-0.03 -0,-0.055 -0.001,-0.077c-0.001,-0.021 -0.001,-0.04 -0.003,-0.056c-0.001,-0.016 -0.002,-0.029 -0.004,-0.04c-0.002,-0.01 -0.004,-0.019 -0.006,-0.026l-0,-0.002l0.113,0l0,0.002c-0.002,0.007 -0.004,0.016 -0.006,0.026c-0.002,0.011 -0.003,0.024 -0.004,0.04c-0.001,0.016 -0.002,0.035 -0.003,0.056c-0.001,0.022 -0.001,0.047 -0.001,0.077l-0,0.123c-0,0.029 0,0.055 0.001,0.076c0.001,0.022 0.002,0.041 0.003,0.057c0.001,0.016 0.002,0.029 0.004,0.04c0.002,0.01 0.004,0.019 0.006,0.026l0,0.002l-0.113,0l-0,-0.002c0.002,-0.007 0.004,-0.016 0.006,-0.026c0.002,-0.011 0.003,-0.024 0.004,-0.04c0.002,-0.016 0.002,-0.035 0.003,-0.057c0.001,-0.021 0.001,-0.047 0.001,-0.076l0,-0.123Z" style="fill:#711;fill-rule:nonzero;"/>
            </g>
            <g transform="matrix(111.915,0,0,111.915,417.52,239.344)">
                <path d="M0.302,-0.423l-0.01,0c-0.002,-0.005 -0.005,-0.012 -0.01,-0.021c-0.004,-0.008 -0.01,-0.017 -0.017,-0.025c-0.007,-0.008 -0.016,-0.015 -0.027,-0.021c-0.011,-0.005 -0.024,-0.008 -0.039,-0.008c-0.011,-0 -0.021,0.002 -0.03,0.006c-0.009,0.003 -0.017,0.008 -0.023,0.015c-0.006,0.006 -0.011,0.014 -0.014,0.023c-0.003,0.009 -0.005,0.019 -0.005,0.029c-0,0.017 0.005,0.033 0.015,0.049c0.011,0.015 0.023,0.03 0.039,0.045c0.015,0.015 0.032,0.031 0.049,0.046c0.018,0.015 0.035,0.031 0.05,0.048c0.016,0.016 0.028,0.034 0.039,0.052c0.01,0.019 0.015,0.039 0.015,0.06c-0,0.016 -0.003,0.032 -0.009,0.048c-0.005,0.017 -0.014,0.032 -0.027,0.045c-0.013,0.014 -0.029,0.025 -0.049,0.033c-0.02,0.009 -0.044,0.013 -0.072,0.013c-0.016,0 -0.031,-0.001 -0.045,-0.004c-0.014,-0.002 -0.027,-0.006 -0.039,-0.009c-0.012,-0.004 -0.022,-0.008 -0.032,-0.012c-0.009,-0.005 -0.017,-0.009 -0.023,-0.013l0.009,-0.092l0.01,-0c0.003,0.011 0.008,0.023 0.015,0.034c0.006,0.011 0.014,0.022 0.023,0.031c0.009,0.009 0.02,0.017 0.033,0.022c0.012,0.006 0.027,0.009 0.043,0.009c0.011,-0 0.022,-0.002 0.032,-0.006c0.01,-0.003 0.019,-0.009 0.026,-0.016c0.008,-0.006 0.013,-0.015 0.018,-0.025c0.004,-0.01 0.006,-0.021 0.006,-0.033c-0,-0.015 -0.003,-0.028 -0.009,-0.041c-0.006,-0.012 -0.014,-0.024 -0.023,-0.036c-0.01,-0.012 -0.021,-0.023 -0.033,-0.033c-0.012,-0.011 -0.025,-0.022 -0.038,-0.033c-0.013,-0.011 -0.026,-0.023 -0.038,-0.034c-0.012,-0.012 -0.023,-0.024 -0.033,-0.037c-0.01,-0.014 -0.017,-0.028 -0.023,-0.043c-0.006,-0.015 -0.009,-0.032 -0.009,-0.05c-0,-0.019 0.004,-0.037 0.012,-0.052c0.008,-0.015 0.019,-0.028 0.032,-0.039c0.014,-0.01 0.029,-0.019 0.046,-0.024c0.017,-0.006 0.035,-0.009 0.054,-0.009c0.014,0 0.026,0.001 0.038,0.003c0.012,0.002 0.023,0.004 0.032,0.007c0.01,0.003 0.018,0.006 0.026,0.009c0.007,0.002 0.013,0.005 0.017,0.006l-0.002,0.083Z" style="fill:#711;fill-rule:nonzero;"/>
            </g>
            <g transform="matrix(111.915,0,0,111.915,474.156,239.344)">
                <rect x="0.04" y="-0.293" width="0.33" height="0.07" style="fill:#711;fill-rule:nonzero;"/>
            </g>
            <g transform="matrix(111.915,0,0,111.915,536.175,239.344)">
                <path d="M0.228,-0.257c-0.016,0 -0.029,0.001 -0.04,0.002c-0.011,0.001 -0.019,0.002 -0.025,0.003l0,0.051c0,0.028 0,0.051 0,0.07c0,0.019 0.001,0.035 0.001,0.048c0.001,0.012 0.001,0.022 0.002,0.03c-0,0.008 0,0.014 0.001,0.02c0.008,0.002 0.017,0.004 0.027,0.004c0.01,0.001 0.017,0.001 0.023,0.001c0.045,0 0.077,-0.01 0.098,-0.029c0.02,-0.02 0.03,-0.051 0.03,-0.092c0,-0.016 -0.002,-0.03 -0.007,-0.043c-0.005,-0.014 -0.012,-0.025 -0.022,-0.035c-0.01,-0.009 -0.022,-0.016 -0.037,-0.022c-0.014,-0.005 -0.031,-0.008 -0.051,-0.008Zm-0.065,-0.033c0.007,0.001 0.012,0.002 0.018,0.002c0.005,-0 0.01,-0 0.016,-0c0.033,-0 0.059,-0.009 0.078,-0.027c0.02,-0.019 0.029,-0.046 0.029,-0.082c0,-0.015 -0.002,-0.028 -0.006,-0.04c-0.004,-0.013 -0.009,-0.023 -0.017,-0.032c-0.007,-0.009 -0.016,-0.016 -0.027,-0.021c-0.011,-0.005 -0.023,-0.007 -0.037,-0.007c-0.01,-0 -0.018,0 -0.024,0.001c-0.007,0.001 -0.012,0.002 -0.017,0.002c-0.005,0.002 -0.009,0.003 -0.013,0.004l0,0.2Zm-0.099,-0.236l0.037,0.001l0.019,0c0.01,0 0.024,-0.001 0.042,-0.002c0.018,-0.001 0.04,-0.002 0.067,-0.002c0.024,0 0.046,0.003 0.066,0.009c0.021,0.005 0.038,0.014 0.053,0.024c0.015,0.011 0.026,0.024 0.035,0.04c0.008,0.016 0.012,0.033 0.012,0.053c0,0.017 -0.002,0.032 -0.007,0.045c-0.005,0.014 -0.012,0.025 -0.02,0.035c-0.009,0.01 -0.02,0.018 -0.032,0.025c-0.012,0.007 -0.026,0.012 -0.041,0.016c0.022,0.003 0.042,0.008 0.059,0.016c0.018,0.007 0.034,0.017 0.046,0.028c0.013,0.011 0.023,0.024 0.03,0.04c0.007,0.015 0.01,0.031 0.01,0.05c-0,0.051 -0.018,0.09 -0.055,0.116c-0.037,0.025 -0.092,0.038 -0.165,0.038c-0.008,-0 -0.017,-0 -0.029,-0.001l-0.072,-0.004c-0.012,-0.001 -0.021,-0.001 -0.029,-0.001l-0.026,0l-0,-0.002c0.002,-0.007 0.004,-0.016 0.006,-0.026c0.002,-0.011 0.003,-0.024 0.004,-0.04c0.002,-0.016 0.002,-0.035 0.003,-0.057c0.001,-0.021 0.001,-0.047 0.001,-0.076l0,-0.123c0,-0.03 -0,-0.055 -0.001,-0.077c-0.001,-0.022 -0.001,-0.041 -0.003,-0.057c-0.001,-0.015 -0.002,-0.029 -0.004,-0.04c-0.002,-0.01 -0.004,-0.019 -0.006,-0.026l-0,-0.002Z" style="fill:#711;fill-rule:nonzero;"/>
            </g>
            <g transform="matrix(111.915,0,0,111.915,603.332,239.344)">
                <path d="M0.064,-0.525c0.032,0 0.065,0 0.098,-0c0.034,-0 0.065,-0.001 0.093,-0.001c0.029,-0.001 0.054,-0.001 0.074,-0.002c0.021,-0 0.035,-0.001 0.041,-0.003l-0.019,0.053c-0.009,-0.002 -0.019,-0.004 -0.03,-0.006c-0.009,-0.002 -0.021,-0.004 -0.035,-0.005c-0.014,-0.001 -0.03,-0.002 -0.048,-0.002c-0.007,-0 -0.014,0 -0.023,0.001l-0.052,0.003l0,0.193c0.026,-0 0.05,-0.001 0.071,-0.002c0.022,-0.001 0.04,-0.002 0.055,-0.004c0.017,-0.001 0.033,-0.003 0.046,-0.005l-0.012,0.058c-0.018,-0.002 -0.036,-0.004 -0.054,-0.006c-0.016,-0.002 -0.033,-0.003 -0.052,-0.004c-0.019,-0.001 -0.037,-0.002 -0.054,-0.002l0,0.222c0.03,-0 0.058,-0.001 0.084,-0.004c0.025,-0.002 0.047,-0.005 0.066,-0.008c0.022,-0.003 0.042,-0.007 0.06,-0.012l-0.011,0.064c-0.005,-0 -0.013,-0.001 -0.024,-0.001c-0.011,-0.001 -0.022,-0.001 -0.034,-0.001c-0.012,-0 -0.023,-0.001 -0.033,-0.001c-0.011,0 -0.018,0 -0.022,0l-0.185,0l-0,-0.002c0.002,-0.007 0.004,-0.016 0.006,-0.026c0.002,-0.011 0.003,-0.024 0.004,-0.04c0.002,-0.016 0.002,-0.035 0.003,-0.057c0.001,-0.021 0.001,-0.047 0.001,-0.076l0,-0.123c0,-0.03 -0,-0.055 -0.001,-0.077c-0.001,-0.021 -0.001,-0.04 -0.003,-0.056c-0.001,-0.016 -0.002,-0.029 -0.004,-0.04c-0.002,-0.01 -0.004,-0.019 -0.006,-0.026l-0,-0.002Z" style="fill:#711;fill-rule:nonzero;"/>
            </g>
            <g transform="matrix(111.915,0,0,111.915,665.105,239.344)">
                <path d="M0.163,-0.255c0.007,0.001 0.013,0.002 0.02,0.002c0.007,0.001 0.013,0.001 0.019,0.001c0.041,0 0.072,-0.011 0.093,-0.033c0.021,-0.021 0.031,-0.054 0.031,-0.098c0,-0.036 -0.008,-0.064 -0.025,-0.085c-0.017,-0.021 -0.041,-0.031 -0.074,-0.031c-0.01,-0 -0.02,0 -0.028,0.001c-0.008,0.001 -0.014,0.002 -0.02,0.003c-0.006,0.001 -0.011,0.002 -0.016,0.004l0,0.236Zm0.075,0.032c-0.007,0.001 -0.013,0.001 -0.019,0.002c-0.007,-0 -0.013,-0 -0.02,-0c-0.005,-0 -0.011,-0 -0.017,-0.001c-0.006,-0 -0.012,-0 -0.019,-0.001l0,0.024c0,0.029 0,0.054 0.001,0.076c0.001,0.021 0.002,0.04 0.003,0.056c0.001,0.015 0.002,0.028 0.004,0.039c0.002,0.011 0.003,0.019 0.006,0.026l-0,0.002l-0.113,0l-0,-0.002c0.002,-0.007 0.004,-0.016 0.006,-0.026c0.002,-0.011 0.003,-0.024 0.004,-0.04c0.002,-0.016 0.002,-0.035 0.003,-0.057c0.001,-0.021 0.001,-0.047 0.001,-0.076l0,-0.123c0,-0.03 -0,-0.055 -0.001,-0.077c-0.001,-0.021 -0.001,-0.04 -0.003,-0.056c-0.001,-0.016 -0.002,-0.029 -0.004,-0.04c-0.002,-0.01 -0.004,-0.019 -0.006,-0.026l-0,-0.002c0.005,0 0.011,0.001 0.017,0.001c0.004,0 0.01,0.001 0.016,0.001c0.006,-0 0.012,0 0.018,0c0.011,0 0.026,-0.001 0.047,-0.003c0.02,-0.002 0.044,-0.003 0.072,-0.003c0.028,0 0.053,0.004 0.076,0.01c0.023,0.007 0.043,0.017 0.059,0.03c0.017,0.012 0.03,0.028 0.038,0.046c0.009,0.018 0.014,0.039 0.014,0.061c-0,0.018 -0.003,0.034 -0.007,0.048c-0.005,0.015 -0.012,0.028 -0.021,0.039c-0.009,0.012 -0.019,0.022 -0.031,0.031c-0.012,0.009 -0.026,0.016 -0.04,0.023l0.102,0.144c0.009,0.012 0.017,0.023 0.026,0.034c0.009,0.01 0.018,0.02 0.026,0.028c0.008,0.009 0.016,0.016 0.023,0.022c0.007,0.005 0.013,0.009 0.018,0.011l0,0.002l-0.128,0c0,-0.003 -0.002,-0.008 -0.006,-0.015c-0.004,-0.008 -0.009,-0.015 -0.014,-0.023c-0.005,-0.008 -0.011,-0.016 -0.016,-0.024c-0.006,-0.007 -0.01,-0.013 -0.012,-0.016l-0.103,-0.145Z" style="fill:#711;fill-rule:nonzero;"/>
            </g>
            <g transform="matrix(111.915,0,0,111.915,735.95,239.344)">
                <path d="M0.533,0.007l-0.019,-0l-0.388,-0.382l-0,0.174c-0,0.029 0,0.055 0,0.076c0.001,0.022 0.001,0.041 0.002,0.057c0.001,0.016 0.002,0.029 0.004,0.04c0.001,0.01 0.003,0.019 0.005,0.026l0,0.002l-0.073,-0l-0,-0.002c0.002,-0.007 0.004,-0.016 0.006,-0.026c0.001,-0.011 0.003,-0.024 0.004,-0.04c0.001,-0.016 0.001,-0.035 0.002,-0.057c0,-0.021 0,-0.047 0,-0.076l0,-0.123c0,-0.03 0,-0.055 -0,-0.077c-0.001,-0.021 -0.001,-0.04 -0.002,-0.056c-0.001,-0.016 -0.003,-0.029 -0.004,-0.04c-0.002,-0.01 -0.004,-0.019 -0.006,-0.026l-0,-0.002l0.03,0l0.389,0.384l-0,-0.183c-0,-0.03 -0,-0.055 -0.001,-0.077c0,-0.021 -0,-0.04 -0.001,-0.056c-0.001,-0.016 -0.002,-0.029 -0.003,-0.04c-0.002,-0.01 -0.004,-0.019 -0.006,-0.026l0,-0.002l0.073,0l-0,0.002c-0.002,0.007 -0.004,0.016 -0.006,0.026c-0.001,0.011 -0.002,0.024 -0.003,0.04c-0.001,0.016 -0.002,0.035 -0.002,0.056c-0.001,0.022 -0.001,0.047 -0.001,0.077l0,0.331Z" style="fill:#711;fill-rule:nonzero;"/>
            </g>
            <g transform="matrix(111.915,0,0,111.915,816.851,239.344)">
                <path d="M0.383,-0.165l-0.125,-0c-0.016,-0 -0.032,0 -0.047,0c-0.015,0 -0.029,0.001 -0.041,0.001c-0.012,-0 -0.022,-0 -0.029,-0l-0.018,0.038c-0.008,0.016 -0.014,0.029 -0.02,0.041c-0.006,0.011 -0.01,0.022 -0.014,0.03c-0.003,0.009 -0.006,0.017 -0.007,0.023c-0.002,0.006 -0.003,0.012 -0.003,0.018c0,0.003 0,0.006 0.001,0.008c-0,0.002 0,0.003 0.001,0.004l0,0.002l-0.086,-0l0,-0.002c0.002,-0.002 0.006,-0.007 0.011,-0.015c0.005,-0.007 0.01,-0.017 0.017,-0.028c0.006,-0.011 0.013,-0.024 0.02,-0.038c0.008,-0.014 0.015,-0.028 0.022,-0.043l0.199,-0.411l0.037,-0l0.195,0.411c0.008,0.016 0.015,0.031 0.023,0.045c0.007,0.014 0.015,0.027 0.021,0.038c0.007,0.012 0.012,0.021 0.017,0.028c0.005,0.007 0.008,0.012 0.01,0.013l-0,0.002l-0.125,0c0.001,-0.003 0.001,-0.005 0.001,-0.007l-0,-0.007c-0,-0.007 -0.002,-0.016 -0.005,-0.026c-0.003,-0.01 -0.007,-0.02 -0.011,-0.031c-0.004,-0.011 -0.009,-0.021 -0.014,-0.031c-0.004,-0.009 -0.008,-0.017 -0.011,-0.024l-0.019,-0.039Zm-0.223,-0.038l0.03,-0l0.136,-0.001c0.014,-0 0.028,-0 0.039,-0l-0.101,-0.216l-0.104,0.217Z" style="fill:#711;fill-rule:nonzero;"/>
            </g>
            <g transform="matrix(111.915,0,0,111.915,894.745,239.344)">
                <path d="M0.163,-0.255c0.007,0.001 0.013,0.002 0.02,0.002c0.007,0.001 0.013,0.001 0.019,0.001c0.041,0 0.072,-0.011 0.093,-0.033c0.021,-0.021 0.031,-0.054 0.031,-0.098c0,-0.036 -0.008,-0.064 -0.025,-0.085c-0.017,-0.021 -0.041,-0.031 -0.074,-0.031c-0.01,-0 -0.02,0 -0.028,0.001c-0.008,0.001 -0.014,0.002 -0.02,0.003c-0.006,0.001 -0.011,0.002 -0.016,0.004l0,0.236Zm0.075,0.032c-0.007,0.001 -0.013,0.001 -0.019,0.002c-0.007,-0 -0.013,-0 -0.02,-0c-0.005,-0 -0.011,-0 -0.017,-0.001c-0.006,-0 -0.012,-0 -0.019,-0.001l0,0.024c0,0.029 0,0.054 0.001,0.076c0.001,0.021 0.002,0.04 0.003,0.056c0.001,0.015 0.002,0.028 0.004,0.039c0.002,0.011 0.003,0.019 0.006,0.026l-0,0.002l-0.113,0l-0,-0.002c0.002,-0.007 0.004,-0.016 0.006,-0.026c0.002,-0.011 0.003,-0.024 0.004,-0.04c0.002,-0.016 0.002,-0.035 0.003,-0.057c0.001,-0.021 0.001,-0.047 0.001,-0.076l0,-0.123c0,-0.03 -0,-0.055 -0.001,-0.077c-0.001,-0.021 -0.001,-0.04 -0.003,-0.056c-0.001,-0.016 -0.002,-0.029 -0.004,-0.04c-0.002,-0.01 -0.004,-0.019 -0.006,-0.026l-0,-0.002c0.005,0 0.011,0.001 0.017,0.001c0.004,0 0.01,0.001 0.016,0.001c0.006,-0 0.012,0 0.018,0c0.011,0 0.026,-0.001 0.047,-0.003c0.02,-0.002 0.044,-0.003 0.072,-0.003c0.028,0 0.053,0.004 0.076,0.01c0.023,0.007 0.043,0.017 0.059,0.03c0.017,0.012 0.03,0.028 0.038,0.046c0.009,0.018 0.014,0.039 0.014,0.061c-0,0.018 -0.003,0.034 -0.007,0.048c-0.005,0.015 -0.012,0.028 -0.021,0.039c-0.009,0.012 -0.019,0.022 -0.031,0.031c-0.012,0.009 -0.026,0.016 -0.04,0.023l0.102,0.144c0.009,0.012 0.017,0.023 0.026,0.034c0.009,0.01 0.018,0.02 0.026,0.028c0.008,0.009 0.016,0.016 0.023,0.022c0.007,0.005 0.013,0.009 0.018,0.011l0,0.002l-0.128,0c0,-0.003 -0.002,-0.008 -0.006,-0.015c-0.004,-0.008 -0.009,-0.015 -0.014,-0.023c-0.005,-0.008 -0.011,-0.016 -0.016,-0.024c-0.006,-0.007 -0.01,-0.013 -0.012,-0.016l-0.103,-0.145Z" style="fill:#711;fill-rule:nonzero;"/>
            </g>
            <g transform="matrix(111.915,0,0,111.915,966.709,239.344)">
                <path d="M0.165,-0.49c-0,0.026 -0.001,0.052 -0.001,0.077c0,0.011 -0,0.022 -0,0.033c-0,0.012 -0.001,0.023 -0.001,0.034c0,0.011 0,0.021 0,0.031l0,0.027c0,0.016 0,0.036 0,0.059c0,0.023 0.001,0.046 0.001,0.07c0,0.024 0.001,0.048 0.002,0.07c0,0.022 0.001,0.041 0.002,0.056c0.003,0 0.007,0.001 0.013,0.002c0.005,-0 0.01,0 0.016,0.001c0.006,0 0.011,0.001 0.017,0.001c0.005,0 0.01,0 0.014,0c0.018,0 0.036,-0.001 0.054,-0.003c0.019,-0.003 0.037,-0.007 0.054,-0.013c0.017,-0.007 0.033,-0.015 0.048,-0.026c0.015,-0.011 0.028,-0.026 0.039,-0.043c0.011,-0.017 0.02,-0.038 0.026,-0.063c0.007,-0.025 0.01,-0.054 0.01,-0.087c-0,-0.074 -0.018,-0.131 -0.053,-0.171c-0.035,-0.04 -0.088,-0.06 -0.158,-0.06c-0.007,-0 -0.014,0 -0.022,0c-0.007,0.001 -0.015,0.001 -0.022,0.002l-0.039,0.003Zm-0.101,-0.036c0.008,0 0.015,0.001 0.022,0.001c0.006,-0 0.011,0 0.017,0l0.012,0c0.005,0 0.013,-0 0.025,-0l0.086,-0.003c0.017,-0.001 0.032,-0.001 0.046,-0.001c0.038,0 0.074,0.005 0.109,0.013c0.034,0.009 0.065,0.024 0.091,0.044c0.026,0.02 0.047,0.046 0.062,0.078c0.015,0.033 0.023,0.073 0.023,0.12c0,0.051 -0.009,0.094 -0.026,0.13c-0.018,0.035 -0.042,0.064 -0.072,0.087c-0.029,0.022 -0.064,0.038 -0.104,0.048c-0.039,0.01 -0.081,0.015 -0.125,0.015c-0.01,-0 -0.023,-0 -0.039,-0.001c-0.016,-0.001 -0.032,-0.001 -0.048,-0.002c-0.016,-0.001 -0.032,-0.001 -0.046,-0.002c-0.015,-0.001 -0.026,-0.001 -0.033,-0.001l-0,-0.002c0.002,-0.007 0.004,-0.016 0.006,-0.026c0.002,-0.011 0.003,-0.024 0.004,-0.04c0.002,-0.016 0.002,-0.035 0.003,-0.057c0.001,-0.021 0.001,-0.047 0.001,-0.076l0,-0.123c0,-0.03 -0,-0.055 -0.001,-0.077c-0.001,-0.022 -0.001,-0.041 -0.003,-0.057c-0.001,-0.015 -0.002,-0.029 -0.004,-0.04c-0.002,-0.01 -0.004,-0.019 -0.006,-0.026l-0,-0.002Z" style="fill:#711;fill-rule:nonzero;"/>
            </g>
            <g transform="matrix(111.915,0,0,111.915,1108.17,239.344)">
                <path d="M0.302,-0.423l-0.01,0c-0.002,-0.005 -0.005,-0.012 -0.01,-0.021c-0.004,-0.008 -0.01,-0.017 -0.017,-0.025c-0.007,-0.008 -0.016,-0.015 -0.027,-0.021c-0.011,-0.005 -0.024,-0.008 -0.039,-0.008c-0.011,-0 -0.021,0.002 -0.03,0.006c-0.009,0.003 -0.017,0.008 -0.023,0.015c-0.006,0.006 -0.011,0.014 -0.014,0.023c-0.003,0.009 -0.005,0.019 -0.005,0.029c-0,0.017 0.005,0.033 0.015,0.049c0.011,0.015 0.023,0.03 0.039,0.045c0.015,0.015 0.032,0.031 0.049,0.046c0.018,0.015 0.035,0.031 0.05,0.048c0.016,0.016 0.028,0.034 0.039,0.052c0.01,0.019 0.015,0.039 0.015,0.06c-0,0.016 -0.003,0.032 -0.009,0.048c-0.005,0.017 -0.014,0.032 -0.027,0.045c-0.013,0.014 -0.029,0.025 -0.049,0.033c-0.02,0.009 -0.044,0.013 -0.072,0.013c-0.016,0 -0.031,-0.001 -0.045,-0.004c-0.014,-0.002 -0.027,-0.006 -0.039,-0.009c-0.012,-0.004 -0.022,-0.008 -0.032,-0.012c-0.009,-0.005 -0.017,-0.009 -0.023,-0.013l0.009,-0.092l0.01,-0c0.003,0.011 0.008,0.023 0.015,0.034c0.006,0.011 0.014,0.022 0.023,0.031c0.009,0.009 0.02,0.017 0.033,0.022c0.012,0.006 0.027,0.009 0.043,0.009c0.011,-0 0.022,-0.002 0.032,-0.006c0.01,-0.003 0.019,-0.009 0.026,-0.016c0.008,-0.006 0.013,-0.015 0.018,-0.025c0.004,-0.01 0.006,-0.021 0.006,-0.033c-0,-0.015 -0.003,-0.028 -0.009,-0.041c-0.006,-0.012 -0.014,-0.024 -0.023,-0.036c-0.01,-0.012 -0.021,-0.023 -0.033,-0.033c-0.012,-0.011 -0.025,-0.022 -0.038,-0.033c-0.013,-0.011 -0.026,-0.023 -0.038,-0.034c-0.012,-0.012 -0.023,-0.024 -0.033,-0.037c-0.01,-0.014 -0.017,-0.028 -0.023,-0.043c-0.006,-0.015 -0.009,-0.032 -0.009,-0.05c-0,-0.019 0.004,-0.037 0.012,-0.052c0.008,-0.015 0.019,-0.028 0.032,-0.039c0.014,-0.01 0.029,-0.019 0.046,-0.024c0.017,-0.006 0.035,-0.009 0.054,-0.009c0.014,0 0.026,0.001 0.038,0.003c0.012,0.002 0.023,0.004 0.032,0.007c0.01,0.003 0.018,0.006 0.026,0.009c0.007,0.002 0.013,0.005 0.017,0.006l-0.002,0.083Z" style="fill:#711;fill-rule:nonzero;"/>
            </g>
            <g transform="matrix(111.915,0,0,111.915,1162.57,239.344)">
                <path d="M0.198,-0.489c-0.029,0 -0.056,0.002 -0.081,0.004c-0.024,0.003 -0.045,0.006 -0.062,0.008c-0.02,0.004 -0.039,0.008 -0.055,0.012l0.01,-0.063c0.005,0.001 0.013,0.001 0.024,0.002c0.011,-0 0.022,0 0.035,0c0.012,0.001 0.023,0.001 0.034,0.001c0.011,0 0.019,0 0.023,0l0.231,0c0.004,0 0.011,0 0.022,-0c0.01,-0 0.022,-0 0.034,-0.001c0.012,0 0.023,-0 0.034,-0c0.011,-0.001 0.019,-0.001 0.024,-0.002l0.01,0.063c-0.016,-0.004 -0.034,-0.008 -0.054,-0.012c-0.017,-0.002 -0.038,-0.005 -0.062,-0.008c-0.024,-0.002 -0.052,-0.004 -0.082,-0.004l0,0.288c0,0.029 0.001,0.055 0.001,0.076c0.001,0.022 0.002,0.041 0.003,0.057c0.001,0.016 0.002,0.029 0.004,0.04c0.002,0.01 0.004,0.019 0.006,0.026l-0,0.002l-0.113,0l0,-0.002c0.002,-0.007 0.004,-0.016 0.006,-0.026c0.002,-0.011 0.003,-0.024 0.004,-0.04c0.002,-0.016 0.003,-0.035 0.003,-0.057c0.001,-0.021 0.001,-0.047 0.001,-0.076l0,-0.288Z" style="fill:#711;fill-rule:nonzero;"/>
            </g>
            <g transform="matrix(111.915,0,0,111.915,1227.54,239.344)">
                <rect x="0.04" y="-0.293" width="0.33" height="0.07" style="fill:#711;fill-rule:nonzero;"/>
            </g>
            <g transform="matrix(111.915,0,0,111.915,1289.56,239.344)">
                <path d="M0.084,-0.324c-0,-0.03 -0,-0.055 -0.001,-0.077c-0.001,-0.021 -0.002,-0.04 -0.003,-0.056c-0.001,-0.016 -0.002,-0.029 -0.004,-0.04c-0.002,-0.01 -0.004,-0.019 -0.006,-0.026l-0,-0.002l0.113,0l0,0.002c-0.002,0.007 -0.004,0.016 -0.006,0.026c-0.002,0.011 -0.003,0.024 -0.004,0.04c-0.002,0.016 -0.002,0.035 -0.003,0.056c-0.001,0.022 -0.001,0.047 -0.001,0.077l-0,0.226c-0,0.046 -0.004,0.085 -0.012,0.117c-0.008,0.032 -0.02,0.06 -0.035,0.083c-0.015,0.024 -0.033,0.045 -0.055,0.064c-0.021,0.018 -0.046,0.037 -0.073,0.057l-0.009,-0.011c0.024,-0.022 0.042,-0.043 0.056,-0.064c0.013,-0.022 0.023,-0.044 0.029,-0.069c0.006,-0.024 0.01,-0.051 0.012,-0.08c0.001,-0.029 0.002,-0.061 0.002,-0.097l-0,-0.226Z" style="fill:#711;fill-rule:nonzero;"/>
            </g>
            <g transform="matrix(111.915,0,0,111.915,1333.54,239.344)">
                <path d="M0.064,-0.525c0.032,0 0.065,0 0.098,-0c0.034,-0 0.065,-0.001 0.093,-0.001c0.029,-0.001 0.054,-0.001 0.074,-0.002c0.021,-0 0.035,-0.001 0.041,-0.003l-0.019,0.053c-0.009,-0.002 -0.019,-0.004 -0.03,-0.006c-0.009,-0.002 -0.021,-0.004 -0.035,-0.005c-0.014,-0.001 -0.03,-0.002 -0.048,-0.002c-0.007,-0 -0.014,0 -0.023,0.001l-0.052,0.003l0,0.193c0.026,-0 0.05,-0.001 0.071,-0.002c0.022,-0.001 0.04,-0.002 0.055,-0.004c0.017,-0.001 0.033,-0.003 0.046,-0.005l-0.012,0.058c-0.018,-0.002 -0.036,-0.004 -0.054,-0.006c-0.016,-0.002 -0.033,-0.003 -0.052,-0.004c-0.019,-0.001 -0.037,-0.002 -0.054,-0.002l0,0.222c0.03,-0 0.058,-0.001 0.084,-0.004c0.025,-0.002 0.047,-0.005 0.066,-0.008c0.022,-0.003 0.042,-0.007 0.06,-0.012l-0.011,0.064c-0.005,-0 -0.013,-0.001 -0.024,-0.001c-0.011,-0.001 -0.022,-0.001 -0.034,-0.001c-0.012,-0 -0.023,-0.001 -0.033,-0.001c-0.011,0 -0.018,0 -0.022,0l-0.185,0l-0,-0.002c0.002,-0.007 0.004,-0.016 0.006,-0.026c0.002,-0.011 0.003,-0.024 0.004,-0.04c0.002,-0.016 0.002,-0.035 0.003,-0.057c0.001,-0.021 0.001,-0.047 0.001,-0.076l0,-0.123c0,-0.03 -0,-0.055 -0.001,-0.077c-0.001,-0.021 -0.001,-0.04 -0.003,-0.056c-0.001,-0.016 -0.002,-0.029 -0.004,-0.04c-0.002,-0.01 -0.004,-0.019 -0.006,-0.026l-0,-0.002Z" style="fill:#711;fill-rule:nonzero;"/>
            </g>
            <g transform="matrix(111.915,0,0,111.915,1396.43,239.344)">
                <path d="M0.383,-0.165l-0.125,-0c-0.016,-0 -0.032,0 -0.047,0c-0.015,0 -0.029,0.001 -0.041,0.001c-0.012,-0 -0.022,-0 -0.029,-0l-0.018,0.038c-0.008,0.016 -0.014,0.029 -0.02,0.041c-0.006,0.011 -0.01,0.022 -0.014,0.03c-0.003,0.009 -0.006,0.017 -0.007,0.023c-0.002,0.006 -0.003,0.012 -0.003,0.018c0,0.003 0,0.006 0.001,0.008c-0,0.002 0,0.003 0.001,0.004l0,0.002l-0.086,-0l0,-0.002c0.002,-0.002 0.006,-0.007 0.011,-0.015c0.005,-0.007 0.01,-0.017 0.017,-0.028c0.006,-0.011 0.013,-0.024 0.02,-0.038c0.008,-0.014 0.015,-0.028 0.022,-0.043l0.199,-0.411l0.037,-0l0.195,0.411c0.008,0.016 0.015,0.031 0.023,0.045c0.007,0.014 0.015,0.027 0.021,0.038c0.007,0.012 0.012,0.021 0.017,0.028c0.005,0.007 0.008,0.012 0.01,0.013l-0,0.002l-0.125,0c0.001,-0.003 0.001,-0.005 0.001,-0.007l-0,-0.007c-0,-0.007 -0.002,-0.016 -0.005,-0.026c-0.003,-0.01 -0.007,-0.02 -0.011,-0.031c-0.004,-0.011 -0.009,-0.021 -0.014,-0.031c-0.004,-0.009 -0.008,-0.017 -0.011,-0.024l-0.019,-0.039Zm-0.223,-0.038l0.03,-0l0.136,-0.001c0.014,-0 0.028,-0 0.039,-0l-0.101,-0.216l-0.104,0.217Z" style="fill:#711;fill-rule:nonzero;"/>
            </g>
            <g transform="matrix(111.915,0,0,111.915,1476.57,239.344)">
                <path d="M0.533,0.007l-0.019,-0l-0.388,-0.382l-0,0.174c-0,0.029 0,0.055 0,0.076c0.001,0.022 0.001,0.041 0.002,0.057c0.001,0.016 0.002,0.029 0.004,0.04c0.001,0.01 0.003,0.019 0.005,0.026l0,0.002l-0.073,-0l-0,-0.002c0.002,-0.007 0.004,-0.016 0.006,-0.026c0.001,-0.011 0.003,-0.024 0.004,-0.04c0.001,-0.016 0.001,-0.035 0.002,-0.057c0,-0.021 0,-0.047 0,-0.076l0,-0.123c0,-0.03 0,-0.055 -0,-0.077c-0.001,-0.021 -0.001,-0.04 -0.002,-0.056c-0.001,-0.016 -0.003,-0.029 -0.004,-0.04c-0.002,-0.01 -0.004,-0.019 -0.006,-0.026l-0,-0.002l0.03,0l0.389,0.384l-0,-0.183c-0,-0.03 -0,-0.055 -0.001,-0.077c0,-0.021 -0,-0.04 -0.001,-0.056c-0.001,-0.016 -0.002,-0.029 -0.003,-0.04c-0.002,-0.01 -0.004,-0.019 -0.006,-0.026l0,-0.002l0.073,0l-0,0.002c-0.002,0.007 -0.004,0.016 -0.006,0.026c-0.001,0.011 -0.002,0.024 -0.003,0.04c-0.001,0.016 -0.002,0.035 -0.002,0.056c-0.001,0.022 -0.001,0.047 -0.001,0.077l0,0.331Z" style="fill:#711;fill-rule:nonzero;"/>
            </g>
        </g>
    </g>
</svg>
