<svg xmlns="http://www.w3.org/2000/svg" viewBox="0 0 1920 1080"><path d="M228.4 613.1H198V576h30.4v37.1m1060.7-369.9h25.6V217h403.1v505.6h-30.4V247.4H1345v26.2h-86.4v-26.2H832.9V471h-14.3V247.4H695.2V471h-14.7V247.4H263.9V272h-35.5v49.4H198v-79.8h35.5V217h1055.7v26.2m428.7 741.9h-403.2v-34H1289v34H233.6v-37.8H198v-79.8h30.4v49.4H264v37.8h994.6v-34h86.4v34h342.5V829h30.4v156.1"/><path d="M254.7 442.6v324.2h-22.4V442.6h22.4z" fill="#FFFFFF"/><path d="M254.7 442.6v324.2h-22.4V442.6h22.4z" fill="none" stroke="#000000" stroke-width="0.3629" stroke-miterlimit="10"/><path d="M241.6 776.6c0-5.1.8-9.3 1.9-9.3 1 0 1.9 4.1 1.9 9.3 0 5.1-.8 9.3-1.9 9.3-1.1 0-1.9-4.2-1.9-9.3z" fill="#FFFFFF"/><path d="M241.6 776.6c0-5.1.8-9.3 1.9-9.3 1 0 1.9 4.1 1.9 9.3 0 5.1-.8 9.3-1.9 9.3-1.1 0-1.9-4.2-1.9-9.3z" fill="none" stroke="#000000" stroke-width="0.3629" stroke-miterlimit="10"/><path d="M241.1 429.5c0-6.7 1.1-12.1 2.4-12.1 1.3 0 2.4 5.4 2.4 12.1 0 6.7-1.1 12.1-2.4 12.1-1.3 0-2.4-5.4-2.4-12.1z" fill="#FFFFFF"/><path d="M241.1 429.5c0-6.7 1.1-12.1 2.4-12.1 1.3 0 2.4 5.4 2.4 12.1 0 6.7-1.1 12.1-2.4 12.1s-2.4-5.4-2.4-12.1z" fill="none" stroke="#000000" stroke-width="0.3629" stroke-miterlimit="10"/><path d="M258.5 454.2c0 2.3-.5 4.1-1 4.1h-27.9c-.5 0-1-1.8-1-4.1s.4-4.1 1-4.1h27.9c.6 0 1 1.8 1 4.1z" fill="#FFFFFF"/><path d="M258.5 454.2c0 2.3-.5 4.1-1 4.1h-27.9c-.5 0-1-1.8-1-4.1s.4-4.1 1-4.1h27.9c.6 0 1 1.8 1 4.1z" fill="none" stroke="#000000" stroke-width="0.2726" stroke-miterlimit="10"/><path d="M258.5 462.1c0 2.3-.5 4.1-1 4.1h-27.9c-.5 0-1-1.9-1-4.1 0-2.3.4-4.1 1-4.1h27.9c.6-.1 1 1.8 1 4.1z" fill="#FFFFFF"/><path d="M258.5 462.1c0 2.3-.5 4.1-1 4.1h-27.9c-.5 0-1-1.9-1-4.1 0-2.3.4-4.1 1-4.1h27.9c.6-.1 1 1.8 1 4.1z" fill="none" stroke="#000000" stroke-width="0.2726" stroke-miterlimit="10"/><path d="M258.5 469.9c0 2.3-.5 4.1-1 4.1h-27.9c-.5 0-1-1.8-1-4.1s.4-4.1 1-4.1h27.9c.6 0 1 1.8 1 4.1z" fill="#FFFFFF"/><path d="M258.5 469.9c0 2.3-.5 4.1-1 4.1h-27.9c-.5 0-1-1.8-1-4.1s.4-4.1 1-4.1h27.9c.6 0 1 1.8 1 4.1z" fill="none" stroke="#000000" stroke-width="0.2726" stroke-miterlimit="10"/><path d="M258.5 477.8c0 2.3-.5 4.1-1 4.1h-27.9c-.5 0-1-1.8-1-4.1s.4-4.1 1-4.1h27.9c.6-.1 1 1.8 1 4.1z" fill="#FFFFFF"/><path d="M258.5 477.8c0 2.3-.5 4.1-1 4.1h-27.9c-.5 0-1-1.8-1-4.1s.4-4.1 1-4.1h27.9c.6-.1 1 1.8 1 4.1z" fill="none" stroke="#000000" stroke-width="0.2726" stroke-miterlimit="10"/><path d="M258.5 485.6c0 2.3-.5 4.1-1 4.1h-27.9c-.5 0-1-1.9-1-4.1 0-2.3.4-4.1 1-4.1h27.9c.6 0 1 1.8 1 4.1z" fill="#FFFFFF"/><path d="M258.5 485.6c0 2.3-.5 4.1-1 4.1h-27.9c-.5 0-1-1.9-1-4.1 0-2.3.4-4.1 1-4.1h27.9c.6 0 1 1.8 1 4.1z" fill="none" stroke="#000000" stroke-width="0.2726" stroke-miterlimit="10"/><path d="M258.5 493.5c0 2.3-.5 4.1-1 4.1h-27.9c-.5 0-1-1.9-1-4.1 0-2.3.4-4.1 1-4.1h27.9c.6-.1 1 1.8 1 4.1z" fill="#FFFFFF"/><path d="M258.5 493.5c0 2.3-.5 4.1-1 4.1h-27.9c-.5 0-1-1.9-1-4.1 0-2.3.4-4.1 1-4.1h27.9c.6-.1 1 1.8 1 4.1z" fill="none" stroke="#000000" stroke-width="0.2726" stroke-miterlimit="10"/><path d="M258.5 501.3c0 2.3-.5 4.1-1 4.1h-27.9c-.5 0-1-1.8-1-4.1s.4-4.1 1-4.1h27.9c.6 0 1 1.9 1 4.1z" fill="#FFFFFF"/><path d="M258.5 501.3c0 2.3-.5 4.1-1 4.1h-27.9c-.5 0-1-1.8-1-4.1s.4-4.1 1-4.1h27.9c.6 0 1 1.9 1 4.1z" fill="none" stroke="#000000" stroke-width="0.2726" stroke-miterlimit="10"/><path d="M258.5 509.2c0 2.3-.5 4.1-1 4.1h-27.9c-.5 0-1-1.8-1-4.1s.4-4.1 1-4.1h27.9c.6 0 1 1.8 1 4.1z" fill="#FFFFFF"/><path d="M258.5 509.2c0 2.3-.5 4.1-1 4.1h-27.9c-.5 0-1-1.8-1-4.1s.4-4.1 1-4.1h27.9c.6 0 1 1.8 1 4.1z" fill="none" stroke="#000000" stroke-width="0.2726" stroke-miterlimit="10"/><path d="M258.5 517c0 2.3-.5 4.1-1 4.1h-27.9c-.5 0-1-1.9-1-4.1 0-2.3.4-4.1 1-4.1h27.9c.6 0 1 1.9 1 4.1z" fill="#FFFFFF"/><path d="M258.5 517c0 2.3-.5 4.1-1 4.1h-27.9c-.5 0-1-1.9-1-4.1 0-2.3.4-4.1 1-4.1h27.9c.6 0 1 1.9 1 4.1z" fill="none" stroke="#000000" stroke-width="0.2726" stroke-miterlimit="10"/><path d="M258.5 524.9c0 2.3-.5 4.1-1 4.1h-27.9c-.5 0-1-1.8-1-4.1s.4-4.1 1-4.1h27.9c.6 0 1 1.8 1 4.1z" fill="#FFFFFF"/><path d="M258.5 524.9c0 2.3-.5 4.1-1 4.1h-27.9c-.5 0-1-1.8-1-4.1s.4-4.1 1-4.1h27.9c.6 0 1 1.8 1 4.1z" fill="none" stroke="#000000" stroke-width="0.2726" stroke-miterlimit="10"/><path d="M258.5 532.7c0 2.3-.5 4.1-1 4.1h-27.9c-.5 0-1-1.8-1-4.1s.4-4.1 1-4.1h27.9c.6 0 1 1.9 1 4.1z" fill="#FFFFFF"/><path d="M258.5 532.7c0 2.3-.5 4.1-1 4.1h-27.9c-.5 0-1-1.8-1-4.1s.4-4.1 1-4.1h27.9c.6 0 1 1.9 1 4.1z" fill="none" stroke="#000000" stroke-width="0.2726" stroke-miterlimit="10"/><path d="M258.5 540.6c0 2.3-.5 4.1-1 4.1h-27.9c-.5 0-1-1.8-1-4.1s.4-4.1 1-4.1h27.9c.6 0 1 1.8 1 4.1z" fill="#FFFFFF"/><path d="M258.5 540.6c0 2.3-.5 4.1-1 4.1h-27.9c-.5 0-1-1.8-1-4.1s.4-4.1 1-4.1h27.9c.6 0 1 1.8 1 4.1z" fill="none" stroke="#000000" stroke-width="0.2726" stroke-miterlimit="10"/><path d="M258.5 548.4c0 2.3-.5 4.1-1 4.1h-27.9c-.5 0-1-1.8-1-4.1s.4-4.1 1-4.1h27.9c.6 0 1 1.9 1 4.1z" fill="#FFFFFF"/><path d="M258.5 548.4c0 2.3-.5 4.1-1 4.1h-27.9c-.5 0-1-1.8-1-4.1s.4-4.1 1-4.1h27.9c.6 0 1 1.9 1 4.1z" fill="none" stroke="#000000" stroke-width="0.2726" stroke-miterlimit="10"/><path d="M258.5 556.3c0 2.3-.5 4.1-1 4.1h-27.9c-.5 0-1-1.8-1-4.1s.4-4.1 1-4.1h27.9c.6 0 1 1.8 1 4.1z" fill="#FFFFFF"/><path d="M258.5 556.3c0 2.3-.5 4.1-1 4.1h-27.9c-.5 0-1-1.8-1-4.1s.4-4.1 1-4.1h27.9c.6 0 1 1.8 1 4.1z" fill="none" stroke="#000000" stroke-width="0.2726" stroke-miterlimit="10"/><path d="M258.5 564.2c0 2.3-.5 4.1-1 4.1h-27.9c-.5 0-1-1.8-1-4.1s.4-4.1 1-4.1h27.9c.6-.1 1 1.8 1 4.1z" fill="#FFFFFF"/><path d="M258.5 564.2c0 2.3-.5 4.1-1 4.1h-27.9c-.5 0-1-1.8-1-4.1s.4-4.1 1-4.1h27.9c.6-.1 1 1.8 1 4.1z" fill="none" stroke="#000000" stroke-width="0.2726" stroke-miterlimit="10"/><path d="M258.5 572c0 2.3-.5 4.1-1 4.1h-27.9c-.6 0-1-1.8-1-4.1s.4-4.1 1-4.1h27.9c.6 0 1 1.8 1 4.1z" fill="#FFFFFF"/><path d="M258.5 572c0 2.3-.5 4.1-1 4.1h-27.9c-.6 0-1-1.8-1-4.1s.4-4.1 1-4.1h27.9c.6 0 1 1.8 1 4.1z" fill="none" stroke="#000000" stroke-width="0.2726" stroke-miterlimit="10"/><path d="M258.5 579.9c0 2.3-.5 4.1-1 4.1h-27.9c-.6 0-1-1.8-1-4.1s.4-4.1 1-4.1h27.9c.6-.1 1 1.8 1 4.1z" fill="#FFFFFF"/><path d="M258.5 579.9c0 2.3-.5 4.1-1 4.1h-27.9c-.6 0-1-1.8-1-4.1s.4-4.1 1-4.1h27.9c.6-.1 1 1.8 1 4.1z" fill="none" stroke="#000000" stroke-width="0.2726" stroke-miterlimit="10"/><path d="M258.5 587.7c0 2.3-.5 4.1-1 4.1h-27.9c-.6 0-1-1.8-1-4.1s.4-4.1 1-4.1h27.9c.6 0 1 1.8 1 4.1z" fill="#FFFFFF"/><path d="M258.5 587.7c0 2.3-.5 4.1-1 4.1h-27.9c-.6 0-1-1.8-1-4.1s.4-4.1 1-4.1h27.9c.6 0 1 1.8 1 4.1z" fill="none" stroke="#000000" stroke-width="0.2726" stroke-miterlimit="10"/><path d="M258.5 595.6c0 2.3-.5 4.1-1 4.1h-27.9c-.6 0-1-1.8-1-4.1s.4-4.1 1-4.1h27.9c.6 0 1 1.8 1 4.1z" fill="#FFFFFF"/><path d="M258.5 595.6c0 2.3-.5 4.1-1 4.1h-27.9c-.6 0-1-1.8-1-4.1s.4-4.1 1-4.1h27.9c.6 0 1 1.8 1 4.1z" fill="none" stroke="#000000" stroke-width="0.2726" stroke-miterlimit="10"/><path d="M258.5 603.4c0 2.3-.5 4.1-1 4.1h-27.9c-.6 0-1-1.8-1-4.1s.4-4.1 1-4.1h27.9c.6 0 1 1.9 1 4.1z" fill="#FFFFFF"/><path d="M258.5 603.4c0 2.3-.5 4.1-1 4.1h-27.9c-.6 0-1-1.8-1-4.1s.4-4.1 1-4.1h27.9c.6 0 1 1.9 1 4.1z" fill="none" stroke="#000000" stroke-width="0.2726" stroke-miterlimit="10"/><path d="M258.5 611.3c0 2.3-.5 4.1-1 4.1h-27.9c-.5 0-1-1.8-1-4.1s.4-4.1 1-4.1h27.9c.6 0 1 1.8 1 4.1z" fill="#FFFFFF"/><path d="M258.5 611.3c0 2.3-.5 4.1-1 4.1h-27.9c-.5 0-1-1.8-1-4.1s.4-4.1 1-4.1h27.9c.6 0 1 1.8 1 4.1z" fill="none" stroke="#000000" stroke-width="0.2726" stroke-miterlimit="10"/><path d="M258.5 619.1c0 2.3-.5 4.1-1 4.1h-27.9c-.5 0-1-1.8-1-4.1s.5-4.1 1-4.1h27.9c.6 0 1 1.9 1 4.1z" fill="#FFFFFF"/><path d="M258.5 619.1c0 2.3-.5 4.1-1 4.1h-27.9c-.5 0-1-1.8-1-4.1s.5-4.1 1-4.1h27.9c.6 0 1 1.9 1 4.1z" fill="none" stroke="#000000" stroke-width="0.2726" stroke-miterlimit="10"/><path d="M258.5 627c0 2.3-.5 4.1-1 4.1h-27.9c-.5 0-1-1.8-1-4.1s.5-4.1 1-4.1h27.9c.6 0 1 1.8 1 4.1z" fill="#FFFFFF"/><path d="M258.5 627c0 2.3-.5 4.1-1 4.1h-27.9c-.5 0-1-1.8-1-4.1s.5-4.1 1-4.1h27.9c.6 0 1 1.8 1 4.1z" fill="none" stroke="#000000" stroke-width="0.2726" stroke-miterlimit="10"/><path d="M258.5 634.8c0 2.3-.5 4.1-1 4.1h-27.9c-.5 0-1-1.8-1-4.1s.5-4.1 1-4.1h27.9c.6 0 1 1.9 1 4.1z" fill="#FFFFFF"/><path d="M258.5 634.8c0 2.3-.5 4.1-1 4.1h-27.9c-.5 0-1-1.8-1-4.1s.5-4.1 1-4.1h27.9c.6 0 1 1.9 1 4.1z" fill="none" stroke="#000000" stroke-width="0.2726" stroke-miterlimit="10"/><path d="M258.5 642.7c0 2.3-.5 4.1-1 4.1h-27.9c-.5 0-1-1.8-1-4.1s.5-4.1 1-4.1h27.9c.6 0 1 1.8 1 4.1z" fill="#FFFFFF"/><path d="M258.5 642.7c0 2.3-.5 4.1-1 4.1h-27.9c-.5 0-1-1.8-1-4.1s.5-4.1 1-4.1h27.9c.6 0 1 1.8 1 4.1z" fill="none" stroke="#000000" stroke-width="0.2726" stroke-miterlimit="10"/><path d="M258.5 650.6c0 2.3-.5 4.1-1 4.1h-27.9c-.5 0-1-1.8-1-4.1s.5-4.1 1-4.1h27.9c.6-.1 1 1.8 1 4.1z" fill="#FFFFFF"/><path d="M258.5 650.6c0 2.3-.5 4.1-1 4.1h-27.9c-.5 0-1-1.8-1-4.1s.5-4.1 1-4.1h27.9c.6-.1 1 1.8 1 4.1z" fill="none" stroke="#000000" stroke-width="0.2726" stroke-miterlimit="10"/><path d="M258.5 658.4c0 2.3-.5 4.1-1 4.1h-27.9c-.5 0-1-1.8-1-4.1s.5-4.1 1-4.1h27.9c.6 0 1 1.8 1 4.1z" fill="#FFFFFF"/><path d="M258.5 658.4c0 2.3-.5 4.1-1 4.1h-27.9c-.5 0-1-1.8-1-4.1s.5-4.1 1-4.1h27.9c.6 0 1 1.8 1 4.1z" fill="none" stroke="#000000" stroke-width="0.2726" stroke-miterlimit="10"/><path d="M258.5 666.3c0 2.3-.5 4.1-1 4.1h-27.9c-.5 0-1-1.8-1-4.1s.5-4.1 1-4.1h27.9c.6 0 1 1.8 1 4.1z" fill="#FFFFFF"/><path d="M258.5 666.3c0 2.3-.5 4.1-1 4.1h-27.9c-.5 0-1-1.8-1-4.1s.5-4.1 1-4.1h27.9c.6 0 1 1.8 1 4.1z" fill="none" stroke="#000000" stroke-width="0.2726" stroke-miterlimit="10"/><path d="M258.5 674.1c0 2.3-.5 4.1-1 4.1h-27.9c-.5 0-1-1.8-1-4.1s.5-4.1 1-4.1h27.9c.6 0 1 1.8 1 4.1z" fill="#FFFFFF"/><path d="M258.5 674.1c0 2.3-.5 4.1-1 4.1h-27.9c-.5 0-1-1.8-1-4.1s.5-4.1 1-4.1h27.9c.6 0 1 1.8 1 4.1z" fill="none" stroke="#000000" stroke-width="0.2726" stroke-miterlimit="10"/><path d="M258.5 682c0 2.3-.5 4.1-1 4.1h-27.9c-.5 0-1-1.8-1-4.1s.5-4.1 1-4.1h27.9c.6 0 1 1.8 1 4.1z" fill="#FFFFFF"/><path d="M258.5 682c0 2.3-.5 4.1-1 4.1h-27.9c-.5 0-1-1.8-1-4.1s.5-4.1 1-4.1h27.9c.6 0 1 1.8 1 4.1z" fill="none" stroke="#000000" stroke-width="0.2726" stroke-miterlimit="10"/><path d="M258.5 689.8c0 2.3-.5 4.1-1 4.1h-27.9c-.5 0-1-1.8-1-4.1s.5-4.1 1-4.1h27.9c.6 0 1 1.9 1 4.1z" fill="#FFFFFF"/><path d="M258.5 689.8c0 2.3-.5 4.1-1 4.1h-27.9c-.5 0-1-1.8-1-4.1s.5-4.1 1-4.1h27.9c.6 0 1 1.9 1 4.1z" fill="none" stroke="#000000" stroke-width="0.2726" stroke-miterlimit="10"/><path d="M258.5 697.7c0 2.3-.5 4.1-1 4.1h-27.9c-.5 0-1-1.8-1-4.1s.5-4.1 1-4.1h27.9c.6 0 1 1.8 1 4.1z" fill="#FFFFFF"/><path d="M258.5 697.7c0 2.3-.5 4.1-1 4.1h-27.9c-.5 0-1-1.8-1-4.1s.5-4.1 1-4.1h27.9c.6 0 1 1.8 1 4.1z" fill="none" stroke="#000000" stroke-width="0.2726" stroke-miterlimit="10"/><path d="M258.5 705.5c0 2.3-.5 4.1-1 4.1h-27.9c-.5 0-1-1.9-1-4.1 0-2.3.5-4.1 1-4.1h27.9c.6 0 1 1.9 1 4.1z" fill="#FFFFFF"/><path d="M258.5 705.5c0 2.3-.5 4.1-1 4.1h-27.9c-.5 0-1-1.9-1-4.1 0-2.3.5-4.1 1-4.1h27.9c.6 0 1 1.9 1 4.1z" fill="none" stroke="#000000" stroke-width="0.2726" stroke-miterlimit="10"/><path d="M258.5 713.4c0 2.3-.5 4.1-1 4.1h-27.9c-.5 0-1-1.9-1-4.1 0-2.3.5-4.1 1-4.1h27.9c.6 0 1 1.8 1 4.1z" fill="#FFFFFF"/><path d="M258.5 713.4c0 2.3-.5 4.1-1 4.1h-27.9c-.5 0-1-1.9-1-4.1 0-2.3.5-4.1 1-4.1h27.9c.6 0 1 1.8 1 4.1z" fill="none" stroke="#000000" stroke-width="0.2726" stroke-miterlimit="10"/><path d="M258.5 721.3c0 2.3-.5 4.1-1 4.1h-27.9c-.5 0-1-1.8-1-4.1s.5-4.1 1-4.1h27.9c.6-.1 1 1.8 1 4.1z" fill="#FFFFFF"/><path d="M258.5 721.3c0 2.3-.5 4.1-1 4.1h-27.9c-.5 0-1-1.8-1-4.1s.5-4.1 1-4.1h27.9c.6-.1 1 1.8 1 4.1z" fill="none" stroke="#000000" stroke-width="0.2726" stroke-miterlimit="10"/><path d="M258.5 729.1c0 2.3-.5 4.1-1 4.1h-27.9c-.5 0-1-1.8-1-4.1s.5-4.1 1-4.1h27.9c.6 0 1 1.8 1 4.1z" fill="#FFFFFF"/><path d="M258.5 729.1c0 2.3-.5 4.1-1 4.1h-27.9c-.5 0-1-1.8-1-4.1s.5-4.1 1-4.1h27.9c.6 0 1 1.8 1 4.1z" fill="none" stroke="#000000" stroke-width="0.2726" stroke-miterlimit="10"/><path d="M258.5 737c0 2.3-.5 4.1-1 4.1h-27.9c-.5 0-1-1.9-1-4.1 0-2.3.5-4.1 1-4.1h27.9c.6-.1 1 1.8 1 4.1z" fill="#FFFFFF"/><path d="M258.5 737c0 2.3-.5 4.1-1 4.1h-27.9c-.5 0-1-1.9-1-4.1 0-2.3.5-4.1 1-4.1h27.9c.6-.1 1 1.8 1 4.1z" fill="none" stroke="#000000" stroke-width="0.2726" stroke-miterlimit="10"/><path d="M258.5 744.8c0 2.3-.5 4.1-1 4.1h-27.9c-.5 0-1-1.8-1-4.1s.5-4.1 1-4.1h27.9c.6 0 1 1.8 1 4.1z" fill="#FFFFFF"/><path d="M258.5 744.8c0 2.3-.5 4.1-1 4.1h-27.9c-.5 0-1-1.8-1-4.1s.5-4.1 1-4.1h27.9c.6 0 1 1.8 1 4.1z" fill="none" stroke="#000000" stroke-width="0.2726" stroke-miterlimit="10"/><path d="M258.5 752.7c0 2.3-.5 4.1-1 4.1h-27.9c-.5 0-1-1.8-1-4.1s.5-4.1 1-4.1h27.9c.6 0 1 1.8 1 4.1z" fill="#FFFFFF"/><path d="M258.5 752.7c0 2.3-.5 4.1-1 4.1h-27.9c-.5 0-1-1.8-1-4.1s.5-4.1 1-4.1h27.9c.6 0 1 1.8 1 4.1z" fill="none" stroke="#000000" stroke-width="0.2726" stroke-miterlimit="10"/><path d="M258.5 760.5c0 2.3-.5 4.1-1 4.1h-27.9c-.5 0-1-1.9-1-4.1 0-2.3.5-4.1 1-4.1h27.9c.6 0 1 1.9 1 4.1z" fill="#FFFFFF"/><path d="M258.5 760.5c0 2.3-.5 4.1-1 4.1h-27.9c-.5 0-1-1.9-1-4.1 0-2.3.5-4.1 1-4.1h27.9c.6 0 1 1.9 1 4.1z" fill="none" stroke="#000000" stroke-width="0.2726" stroke-miterlimit="10"/><path d="M227.6 574.1V322H214v252.1h13.6z" fill="#FFFFFF"/><path d="M227.6 574.1V322H214v252.1h13.6z" fill="none" stroke="#000000" stroke-width="0.6723" stroke-miterlimit="10"/><path d="M223.2 565.1c0-78.1 0-156.2.1-234.2"/><path d="M223.2 565.1c0-78.1 0-156.2.1-234.2" fill="none" stroke="#252525" stroke-width="1.3447" stroke-miterlimit="10"/><path d="M225.7 574.1v-7.6h-5.3v7.6h5.3z"/><path d="M225.7 574.1v-7.6h-5.3v7.6h5.3z" fill="none" stroke="#000000" stroke-width="0.6723" stroke-miterlimit="10"/><path d="M220.8 329.6V322h-4.9v7.6h4.9z"/><path d="M220.8 329.6V322h-4.9v7.6h4.9z" fill="none" stroke="#000000" stroke-width="0.6723" stroke-miterlimit="10"/><path d="M218.3 565.1c0-78.1 0-156.2.1-234.2"/><path d="M218.3 565.1c0-78.1 0-156.2.1-234.2" fill="none" stroke="#252525" stroke-width="1.3447" stroke-miterlimit="10"/><path d="M225.7 329.6V322h-4.9v7.6h4.9z"/><path d="M225.7 329.6V322h-4.9v7.6h4.9z" fill="none" stroke="#000000" stroke-width="0.6723" stroke-miterlimit="10"/><path d="M220.8 574.1v-7.6h-4.9v7.6h4.9z"/><path d="M220.8 574.1v-7.6h-4.9v7.6h4.9z" fill="none" stroke="#000000" stroke-width="0.6723" stroke-miterlimit="10"/><path d="M227.6 865.7v-252H214v252h13.6z" fill="#FFFFFF"/><path d="M227.6 865.7v-252H214v252h13.6z" fill="none" stroke="#000000" stroke-width="0.6723" stroke-miterlimit="10"/><path d="M223.2 856.8c0-78.1 0-156.1.1-234.2"/><path d="M223.2 856.8c0-78.1 0-156.1.1-234.2" fill="none" stroke="#252525" stroke-width="1.3447" stroke-miterlimit="10"/><path d="M225.7 865.7v-7.6h-5.3v7.6h5.3z"/><path d="M225.7 865.7v-7.6h-5.3v7.6h5.3z" fill="none" stroke="#000000" stroke-width="0.6723" stroke-miterlimit="10"/><path d="M220.8 621.3v-7.6h-4.9v7.6h4.9z"/><path d="M220.8 621.3v-7.6h-4.9v7.6h4.9z" fill="none" stroke="#000000" stroke-width="0.6723" stroke-miterlimit="10"/><path d="M218.3 856.8c0-78.1 0-156.1.1-234.2"/><path d="M218.3 856.8c0-78.1 0-156.1.1-234.2" fill="none" stroke="#252525" stroke-width="1.3447" stroke-miterlimit="10"/><path d="M225.7 621.3v-7.6h-4.9v7.6h4.9z"/><path d="M225.7 621.3v-7.6h-4.9v7.6h4.9z" fill="none" stroke="#000000" stroke-width="0.6723" stroke-miterlimit="10"/><path d="M220.8 865.7v-7.6h-4.9v7.6h4.9z"/><path d="M220.8 865.7v-7.6h-4.9v7.6h4.9z" fill="none" stroke="#000000" stroke-width="0.6723" stroke-miterlimit="10"/><path d="M1589.1 828.4c0-58.1 47.5-105.1 106.2-105.1" fill="none" stroke="#636363" stroke-width="0.3026" stroke-miterlimit="10"/><path d="M1258.7 710.3h185.9v15.4h-185.9v-15.4zm-15.4 15.3V247.3h15.4v478.3h-15.4z"/><path fill="none" stroke="#808080" stroke-miterlimit="10" stroke-dasharray="0.6924,0.6924" d="M263.8 247.3L263.8 186.6"/><path fill="none" stroke="#808080" stroke-miterlimit="10" d="M263.8 198.7L263.8 183.5"/><path fill="none" stroke="#808080" stroke-miterlimit="10" stroke-dasharray="0.6924,0.6924" d="M680.4 247.3L680.4 186.6"/><path fill="none" stroke="#808080" stroke-miterlimit="10" d="M680.4 198.7L680.4 183.5"/><path fill="#808080" d="M263.8 186.6L269.9 183.5 269.9 189.6 263.8 186.6"/><path fill="none" stroke="#808080" stroke-miterlimit="10" d="M263.8 186.6L269.9 183.5 269.9 189.6 263.8 186.6"/><path fill="#808080" d="M680.4 186.6L674.4 189.6 674.4 183.5 680.4 186.6"/><path fill="none" stroke="#808080" stroke-miterlimit="10" d="M680.4 186.6L674.4 189.6 674.4 183.5 680.4 186.6"/><path d="M447.2 194.2h-2.1v-10.8-1.1-1.2-1.1-.9l-.4.4-.3.3-.3.3c-.1.1-.3.2-.4.4l-1.8 1.4-1.1-1.5 4.5-3.5h1.8l.1 17.3zm13.3 0h-2.1v-10.8-1.1-1.2-1.1-.9l-.4.4-.3.3-.3.3c-.1.1-.3.2-.4.4l-1.8 1.4-1.1-1.5 4.5-3.5h1.8v17.3zm10.5-17.7l-.6 6.3h-1.5l-.6-6.3h2.7zm20.1 4.4c0 .6-.1 1.1-.3 1.6-.2.5-.4.9-.8 1.2s-.7.6-1.2.9c-.5.2-1 .4-1.5.5v.1c1.4.2 2.5.6 3.2 1.3.7.7 1.1 1.6 1.1 2.8 0 .8-.1 1.5-.4 2.1s-.6 1.2-1.2 1.6c-.5.5-1.2.8-2 1.1-.8.3-1.7.4-2.8.4-.9 0-1.7-.1-2.4-.2-.8-.1-1.5-.4-2.2-.7v-2c.7.4 1.4.6 2.2.8.8.2 1.6.3 2.3.3.7 0 1.4-.1 1.9-.2.5-.2 1-.4 1.3-.7s.6-.7.8-1.1.2-.9.2-1.4c0-.5-.1-1-.3-1.4s-.5-.7-.9-.9c-.4-.2-.9-.4-1.4-.6s-1.2-.2-1.9-.2h-1.6v-1.8h1.6c.6 0 1.2-.1 1.7-.2.5-.2.9-.4 1.3-.7s.6-.6.8-1 .3-.8.3-1.3c0-.4-.1-.8-.2-1.1-.1-.3-.3-.6-.6-.8-.3-.2-.6-.4-.9-.5-.4-.1-.8-.2-1.2-.2-.8 0-1.6.1-2.2.4-.6.3-1.3.6-1.8 1l-1.1-1.5c.3-.2.6-.5 1-.7l1.2-.6c.4-.2.9-.3 1.4-.4.5-.1 1-.1 1.6-.1.9 0 1.6.1 2.2.3.6.2 1.2.5 1.6.9.4.4.8.8 1 1.4.1.4.2 1 .2 1.6zm7.5-4.4l-.6 6.3h-1.5l-.6-6.3h2.7zm4.3 0l-.6 6.3h-1.5l-.6-6.3h2.7z" fill="#808080"/><path d="M523.1 186.6h157.3m-416.6 0h157.3" fill="none" stroke="#808080" stroke-miterlimit="10"/><path fill="none" stroke="#808080" stroke-miterlimit="10" stroke-dasharray="0.6924,0.6924" d="M695.1 247.3L695.1 186.6"/><path fill="none" stroke="#808080" stroke-miterlimit="10" d="M695.1 198.7L695.1 183.5"/><path fill="none" stroke="#808080" stroke-miterlimit="10" stroke-dasharray="0.6924,0.6924" d="M818.6 247.3L818.6 186.6"/><path fill="none" stroke="#808080" stroke-miterlimit="10" d="M818.6 198.7L818.6 183.5"/><path fill="#808080" d="M695.1 186.6L701.2 183.5 701.2 189.6 695.1 186.6"/><path fill="none" stroke="#808080" stroke-miterlimit="10" d="M695.1 186.6L701.2 183.5 701.2 189.6 695.1 186.6"/><path fill="#808080" d="M818.6 186.6L812.5 189.6 812.5 183.5 818.6 186.6"/><path fill="none" stroke="#808080" stroke-miterlimit="10" d="M818.6 186.6L812.5 189.6 812.5 183.5 818.6 186.6"/><path d="M741.8 180.9c0 .6-.1 1.1-.3 1.6-.2.5-.4.9-.8 1.2-.3.3-.7.6-1.2.9-.5.2-1 .4-1.5.5v.1c1.4.2 2.5.6 3.2 1.3.7.7 1.1 1.6 1.1 2.8 0 .8-.1 1.5-.4 2.1-.3.6-.6 1.2-1.2 1.6-.5.5-1.2.8-2 1.1-.8.3-1.7.4-2.8.4-.9 0-1.7-.1-2.4-.2-.8-.1-1.5-.4-2.2-.7v-2c.7.4 1.4.6 2.2.8.8.2 1.6.3 2.3.3.7 0 1.4-.1 1.9-.2.5-.2 1-.4 1.3-.7.3-.3.6-.7.8-1.1s.2-.9.2-1.4c0-.5-.1-1-.3-1.4-.2-.4-.5-.7-.9-.9s-.9-.4-1.4-.6c-.6-.1-1.2-.2-1.9-.2H734v-1.8h1.6c.6 0 1.2-.1 1.7-.2.5-.2.9-.4 1.3-.7s.6-.6.8-1 .3-.8.3-1.3c0-.4-.1-.8-.2-1.1s-.3-.6-.6-.8c-.3-.2-.6-.4-.9-.5-.4-.1-.8-.2-1.2-.2-.8 0-1.6.1-2.2.4-.6.3-1.3.6-1.8 1l-1.1-1.5c.3-.2.6-.5 1-.7l1.2-.6c.4-.2.9-.3 1.4-.4.5-.1 1-.1 1.6-.1.9 0 1.6.1 2.2.3.6.2 1.2.5 1.6.9.4.4.8.8 1 1.4s.1 1 .1 1.6zm7.4-4.4l-.6 6.3h-1.5l-.6-6.3h2.7zm21.7 13.8h-2.5v3.9h-2.1v-3.9h-8v-1.9l7.9-11.7h2.2v11.6h2.5v2zm-4.6-1.9v-4.2-1.4-1.4c0-.5 0-.9.1-1.3v-1h-.1c-.1.2-.1.3-.2.5l-.3.6-.3.6c-.1.2-.2.3-.3.5l-4.9 7.2 6-.1zm10.5-11.9l-.6 6.3h-1.5l-.6-6.3h2.7zm4.3 0l-.6 6.3H779l-.6-6.3h2.7z" fill="#808080"/><path d="M800.9 186.6h17.7m-123.5 0h17.7" fill="none" stroke="#808080" stroke-miterlimit="10"/><path fill="none" stroke="#808080" stroke-miterlimit="10" stroke-dasharray="0.6924,0.6924" d="M832.9 247.3L832.9 186.6"/><path fill="none" stroke="#808080" stroke-miterlimit="10" d="M832.9 198.7L832.9 183.5"/><path fill="none" stroke="#808080" stroke-miterlimit="10" stroke-dasharray="0.6924,0.6924" d="M1258.7 247.3L1258.7 186.5"/><path fill="none" stroke="#808080" stroke-miterlimit="10" d="M1258.7 198.7L1258.7 183.5"/><path fill="#808080" d="M832.9 186.6L838.9 183.5 838.9 189.6 832.9 186.6"/><path fill="none" stroke="#808080" stroke-miterlimit="10" d="M832.9 186.6L838.9 183.5 838.9 189.6 832.9 186.6"/><path fill="#808080" d="M1258.7 186.5L1252.7 189.6 1252.7 183.5 1258.7 186.5"/><path fill="none" stroke="#808080" stroke-miterlimit="10" d="M1258.7 186.5L1252.7 189.6 1252.7 183.5 1258.7 186.5"/><path d="M1020.8 194.2h-2.1v-10.8-1.1-1.2-1.1-.9l-.4.4-.3.3-.3.3c-.1.1-.3.2-.4.4l-1.8 1.4-1.1-1.5 4.5-3.5h1.8v17.3zm13.4 0h-2.1v-10.8-1.1-1.2-1.1-.9l-.4.4-.3.3-.3.3c-.1.1-.3.2-.4.4l-1.8 1.4-1.1-1.5 4.5-3.5h1.8v17.3zm10.4-17.7l-.6 6.3h-1.5l-.6-6.3h2.7zm10.1 10.3c0-.8 0-1.7.1-2.5s.2-1.6.4-2.4c.2-.8.5-1.5.9-2.1.4-.6.8-1.2 1.4-1.7s1.2-.9 2-1.1 1.7-.4 2.8-.4h1.1c.2 0 .4 0 .5.1s.3.1.5.1v1.8c-.3-.1-.6-.2-.9-.2-.3 0-.7-.1-1-.1-.7 0-1.3.1-1.9.3-.5.2-1 .4-1.4.7-.4.3-.7.7-1 1.1-.3.4-.5.9-.6 1.4s-.3 1.1-.4 1.7c-.1.6-.1 1.2-.2 1.8h.1c.2-.3.3-.6.6-.8s.5-.5.8-.6.6-.3 1-.4c.4-.1.8-.2 1.3-.2.8 0 1.4.1 2 .3.6.2 1.1.6 1.6 1s.8 1 1 1.7.4 1.4.4 2.2c0 .9-.1 1.7-.4 2.4-.2.7-.6 1.3-1.1 1.8-.5.5-1 .9-1.7 1.2-.6.3-1.4.4-2.2.4-.8 0-1.5-.2-2.2-.5-.7-.3-1.3-.8-1.8-1.4-.5-.6-.9-1.4-1.2-2.4s-.5-1.9-.5-3.2zm5.6 5.8c.5 0 .9-.1 1.3-.2s.7-.4 1-.7c.3-.3.5-.7.7-1.2.2-.5.2-1.1.2-1.8 0-.6-.1-1-.2-1.5-.1-.4-.3-.8-.6-1.1-.3-.3-.6-.5-1-.7s-.8-.2-1.4-.2c-.5 0-1 .1-1.5.3-.4.2-.8.4-1.1.7-.3.3-.5.6-.7 1-.2.4-.3.8-.3 1.1 0 .5.1 1.1.2 1.6s.4 1 .7 1.4c.3.4.7.8 1.1 1 .5.2 1 .3 1.6.3zm11.9-16.1l-.6 6.3h-1.5l-.6-6.3h2.7zm4.3 0l-.6 6.3h-1.5l-.6-6.3h2.7z" fill="#808080"/><path d="M1096.8 186.5h161.9m-425.8.1h161.9" fill="none" stroke="#808080" stroke-miterlimit="10"/><path fill="none" stroke="#808080" stroke-miterlimit="10" stroke-dasharray="0.6924,0.6924" d="M1258.7 247.3L1258.7 212.8"/><path fill="none" stroke="#808080" stroke-miterlimit="10" d="M1258.7 207.9L1258.7 192.7"/><path fill="none" stroke="#808080" stroke-miterlimit="10" stroke-dasharray="0.6924,0.6924" d="M1687.5 247.3L1687.5 186.5"/><path fill="none" stroke="#808080" stroke-miterlimit="10" d="M1687.5 198.7L1687.5 183.5"/><path fill="#808080" d="M1687.5 186.5L1681.4 189.6 1681.4 183.5 1687.5 186.5"/><path fill="none" stroke="#808080" stroke-miterlimit="10" d="M1687.5 186.5L1681.4 189.6 1681.4 183.5 1687.5 186.5"/><path fill="none" stroke="#808080" stroke-miterlimit="10" stroke-dasharray="0.6924,0.6924" d="M1687.5 247.3L1748.3 247.3"/><path fill="none" stroke="#808080" stroke-miterlimit="10" d="M1736.1 247.3L1751.3 247.3"/><path fill="none" stroke="#808080" stroke-miterlimit="10" stroke-dasharray="0.6924,0.6924" d="M1687.5 722.8L1748.3 722.8"/><path fill="none" stroke="#808080" stroke-miterlimit="10" d="M1736.1 722.8L1751.3 722.8"/><path fill="#808080" d="M1748.3 247.3L1751.3 253.4 1745.2 253.4 1748.3 247.3"/><path fill="none" stroke="#808080" stroke-miterlimit="10" d="M1748.3 247.3L1751.3 253.4 1745.2 253.4 1748.3 247.3"/><path fill="#808080" d="M1748.3 722.8L1745.2 716.7 1751.3 716.7 1748.3 722.8"/><path fill="none" stroke="#808080" stroke-miterlimit="10" d="M1748.3 722.8L1745.2 716.7 1751.3 716.7 1748.3 722.8"/><path d="M1738.2 448.4l6.3.6v1.5l-6.3.6v-2.7zm0 4.3l6.3.6v1.5l-6.3.6v-2.7zm9.1 7.1c1.4 0 2.7.1 3.8.3 1.1.2 2 .5 2.8 1 .8.4 1.4 1 1.8 1.7s.6 1.6.6 2.6c0 .9-.2 1.7-.6 2.4-.4.7-1 1.3-1.8 1.7-.8.5-1.7.8-2.8 1-1.1.2-2.4.3-3.8.3s-2.7-.1-3.8-.3c-1.1-.2-2-.5-2.8-1-.8-.4-1.3-1-1.8-1.7s-.6-1.5-.6-2.5c0-.9.2-1.8.6-2.5.4-.7 1-1.3 1.7-1.7.8-.5 1.7-.8 2.8-1s2.5-.3 3.9-.3zm0 8.8c1.2 0 2.2-.1 3.1-.2s1.6-.3 2.2-.6c.6-.3 1-.6 1.3-1 .3-.4.4-.9.4-1.5s-.1-1.1-.4-1.6c-.3-.4-.7-.8-1.3-1-.6-.3-1.3-.5-2.2-.6s-1.9-.2-3.1-.2c-1.2 0-2.2.1-3.1.2s-1.6.3-2.2.6c-.6.3-1 .6-1.3 1.1-.3.4-.4.9-.4 1.6s.1 1.1.4 1.5c.3.4.7.8 1.3 1 .6.3 1.3.5 2.2.6s1.9.1 3.1.1zm8.7 8.8v2.1h-15.1l.4.4.3.3.3.3c.1.1.2.3.4.4l1.4 1.8-1.5 1.1-3.5-4.5v-1.8l17.3-.1zm-17.8 14.8l6.3.6v1.5l-6.3.6v-2.7zm17.8 7.4v10.8h-1.9l-4.5-4.2c-.6-.6-1.2-1.1-1.8-1.6-.5-.5-1-.9-1.6-1.2-.5-.3-1-.6-1.5-.8-.5-.2-1.1-.3-1.7-.3-.5 0-.9.1-1.2.2-.4.1-.7.3-.9.6s-.4.5-.6.9c-.1.3-.2.7-.2 1.1 0 .8.2 1.4.5 2 .3.6.7 1.2 1.2 1.7l-1.4 1.2c-.3-.3-.6-.7-.8-1s-.5-.8-.6-1.2c-.2-.4-.3-.9-.4-1.3-.1-.5-.2-1-.2-1.5 0-.8.1-1.4.3-2.1.2-.6.5-1.1.9-1.6.4-.4.9-.8 1.5-1 .6-.2 1.2-.4 1.9-.4s1.3.1 1.9.3c.6.2 1.2.5 1.8.9.6.4 1.2.8 1.8 1.3.6.5 1.2 1.1 1.9 1.7l3.5 3.3h.1v-8.2h2zm0 17.3v2.1h-15.1l.4.4.3.3.3.3c.1.1.2.3.4.4l1.4 1.8-1.5 1.1-3.5-4.5V517l17.3-.1z" fill="#808080"/><path d="M1748.3 543v179.8m0-475.5v179.8" fill="none" stroke="#808080" stroke-miterlimit="10"/><path fill="none" stroke="#808080" stroke-miterlimit="10" stroke-dasharray="0.6924,0.6924" d="M1687.5 247.3L1809 247.3"/><path fill="none" stroke="#808080" stroke-miterlimit="10" d="M1796.9 247.3L1812 247.3"/><path fill="none" stroke="#808080" stroke-miterlimit="10" stroke-dasharray="0.6924,0.6924" d="M1687.5 954.7L1809 954.7"/><path fill="none" stroke="#808080" stroke-miterlimit="10" d="M1796.9 954.7L1812.1 954.7"/><path fill="#808080" d="M1809 247.3L1812 253.4 1806 253.4 1809 247.3"/><path fill="none" stroke="#808080" stroke-miterlimit="10" d="M1809 247.3L1812 253.4 1806 253.4 1809 247.3"/><path fill="#808080" d="M1809 954.7L1806 948.6 1812.1 948.6 1809 954.7"/><path fill="none" stroke="#808080" stroke-miterlimit="10" d="M1809 954.7L1806 948.6 1812.1 948.6 1809 954.7"/><path d="M1799 549.8l6.3.6v1.5l-6.3.6v-2.7zm0 4.2l6.3.6v1.5l-6.3.6V554zm13.8 6.5v2.5h3.9v2.1h-3.9v8h-1.9l-11.7-7.9V563h11.6v-2.5h2zm-2 4.6h-7c-.5 0-.9 0-1.3-.1s-.7 0-1 0v.1c.2.1.3.1.5.2l.6.3.6.3c.2.1.3.2.5.3l7.2 4.9v-6zm-14.3 7.9l24.2 6.4v2l-24.2-6.4v-2zm20.2 14.9v2.1h-15.1l.4.4.3.3.3.3c.1.1.2.3.4.4l1.4 1.8-1.5 1.1-3.5-4.5V588l17.3-.1zm0 20.1v2.1h-15.1l.4.4.3.3.3.3c.1.1.2.3.4.4l1.4 1.8-1.5 1.1-3.5-4.5V608h17.3zm-17.7 14.7l6.3.6v1.5l-6.3.6v-2.7zm7.8 7.2c.8 0 1.7 0 2.5.1s1.6.2 2.4.4c.8.2 1.5.5 2.1.9.7.4 1.2.8 1.7 1.4s.8 1.2 1.1 2c.3.8.4 1.7.4 2.8v1c0 .2 0 .4-.1.5 0 .2-.1.3-.1.5h-1.9c.1-.3.2-.6.2-.9 0-.3.1-.7.1-1 0-1.1-.2-1.9-.6-2.6-.4-.7-.9-1.2-1.5-1.6s-1.4-.7-2.2-.9c-.8-.2-1.7-.3-2.7-.3v.2c.3.2.5.3.8.6.2.2.5.5.6.8.2.3.3.6.4 1 .1.4.2.8.2 1.3 0 .8-.1 1.4-.3 2-.2.6-.6 1.1-1 1.6-.5.4-1 .8-1.7 1-.7.2-1.4.3-2.2.3-.9 0-1.7-.1-2.4-.4s-1.3-.6-1.8-1.1c-.5-.5-.9-1-1.2-1.7s-.4-1.4-.4-2.2c0-.8.2-1.5.5-2.2.3-.7.8-1.3 1.4-1.8.6-.5 1.4-.9 2.4-1.2.8-.3 2-.5 3.3-.5zm-5.9 5.6c0 .5.1.9.2 1.3.2.4.4.7.7 1 .3.3.7.5 1.3.7.5.2 1.1.2 1.8.2.6 0 1-.1 1.5-.2.4-.1.8-.3 1.1-.6.3-.3.5-.6.7-1s.2-.8.2-1.4c0-.5-.1-1-.3-1.5-.2-.4-.4-.8-.7-1.1-.3-.3-.6-.5-1-.7s-.8-.3-1.1-.3c-.5 0-1.1.1-1.6.2s-1 .4-1.4.7c-.4.3-.8.7-1 1.1-.2.6-.4 1.1-.4 1.6zm15.8 12v2.1h-15.1l.4.4.3.3.3.3c.1.1.2.3.4.4l1.4 1.8-1.5 1.1-3.5-4.5v-1.8h17.3z" fill="#808080"/><path d="M1809 673.6v281.2m0-707.5v281.2" fill="none" stroke="#808080" stroke-miterlimit="10"/><path fill="none" stroke="#808080" stroke-miterlimit="10" stroke-dasharray="0.6924,0.6924" d="M1687.5 954.7L1687.5 1015.5"/><path fill="none" stroke="#808080" stroke-miterlimit="10" d="M1687.5 1003.3L1687.5 1018.5"/><path fill="none" stroke="#808080" stroke-miterlimit="10" stroke-dasharray="0.6924,0.6924" d="M1345 954.7L1345 1015.5"/><path fill="none" stroke="#808080" stroke-miterlimit="10" d="M1345 1003.3L1345 1018.5"/><path fill="#808080" d="M1687.5 1015.5L1681.5 1018.5 1681.5 1012.4 1687.5 1015.5"/><path fill="none" stroke="#808080" stroke-miterlimit="10" d="M1687.5 1015.5L1681.5 1018.5 1681.5 1012.4 1687.5 1015.5"/><path fill="#808080" d="M1345 1015.5L1351.1 1012.4 1351.1 1018.5 1345 1015.5"/><path fill="none" stroke="#808080" stroke-miterlimit="10" d="M1345 1015.5L1351.1 1012.4 1351.1 1018.5 1345 1015.5"/><path d="M1502 1013.2c0 .8 0 1.7-.1 2.5s-.2 1.6-.4 2.4c-.2.8-.5 1.5-.9 2.1-.4.7-.8 1.2-1.4 1.7s-1.2.8-2 1.1c-.8.3-1.7.4-2.8.4h-1c-.2 0-.4 0-.5-.1-.2 0-.3-.1-.5-.1v-1.9c.3.1.6.2.9.2.3 0 .7.1 1 .1 1.1 0 1.9-.2 2.6-.6.7-.4 1.2-.9 1.6-1.5s.7-1.4.9-2.2c.2-.8.3-1.7.3-2.7h-.2c-.2.3-.3.5-.6.8-.2.2-.5.5-.8.6-.3.2-.6.3-1 .4-.4.1-.8.2-1.3.2-.8 0-1.4-.1-2-.3-.6-.2-1.1-.6-1.6-1-.4-.5-.8-1-1-1.7-.2-.7-.3-1.4-.3-2.2 0-.9.1-1.7.4-2.4s.6-1.3 1.1-1.8c.5-.5 1-.9 1.7-1.2s1.4-.4 2.2-.4c.8 0 1.5.2 2.2.5.7.3 1.3.8 1.8 1.4.5.6.9 1.4 1.2 2.4.3.9.5 2 .5 3.3zm-5.7-5.8c-.5 0-.9.1-1.3.2-.4.2-.7.4-1 .7-.3.3-.5.7-.7 1.3-.2.5-.2 1.1-.2 1.8 0 .6.1 1 .2 1.5.1.4.3.8.6 1.1.3.3.6.5 1 .7s.8.2 1.4.2c.5 0 1-.1 1.5-.3.4-.2.8-.4 1.1-.7.3-.3.5-.6.7-1s.3-.8.3-1.1c0-.5-.1-1.1-.2-1.6s-.4-1-.7-1.4c-.3-.4-.7-.8-1.1-1-.5-.3-1-.4-1.6-.4zm12.3-2l-.6 6.3h-1.5l-.6-6.3h2.7zm20.2 4.4c0 .6-.1 1.1-.3 1.6-.2.5-.4.9-.8 1.2-.3.3-.7.6-1.2.9-.5.2-1 .4-1.5.5v.1c1.4.2 2.5.6 3.2 1.3s1.1 1.6 1.1 2.8c0 .8-.1 1.5-.4 2.1s-.6 1.2-1.2 1.6c-.5.5-1.2.8-2 1.1s-1.7.4-2.8.4c-.9 0-1.7-.1-2.4-.2-.8-.1-1.5-.4-2.2-.7v-2c.7.4 1.4.6 2.2.8.8.2 1.6.3 2.3.3.7 0 1.4-.1 1.9-.2.5-.2 1-.4 1.3-.7.3-.3.6-.7.8-1.1.2-.4.2-.9.2-1.4 0-.5-.1-1-.3-1.4-.2-.4-.5-.7-.9-.9-.4-.2-.9-.4-1.4-.6-.6-.1-1.2-.2-1.9-.2h-1.6v-1.8h1.6c.6 0 1.2-.1 1.7-.2s.9-.4 1.3-.7c.3-.3.6-.6.8-1s.3-.8.3-1.3c0-.4-.1-.8-.2-1.1-.1-.3-.3-.6-.6-.8s-.6-.4-.9-.5c-.4-.1-.8-.2-1.2-.2-.8 0-1.6.1-2.2.4-.6.3-1.3.6-1.8 1l-1.1-1.5c.3-.2.6-.5 1-.7l1.2-.6c.4-.2.9-.3 1.4-.4.5-.1 1-.1 1.6-.1.9 0 1.6.1 2.2.3.6.2 1.2.5 1.6.9.4.4.8.8 1 1.4s.2 1 .2 1.6zm7.5-4.4l-.6 6.3h-1.5l-.6-6.3h2.7zm4.2 0l-.6 6.3h-1.5l-.6-6.3h2.7z" fill="#808080"/><path d="M1472.2 1015.5H1345m342.5 0h-127.2" fill="none" stroke="#808080" stroke-miterlimit="10"/><path fill="none" stroke="#808080" stroke-miterlimit="10" stroke-dasharray="0.6924,0.6924" d="M1345 954.7L1345 981.5"/><path fill="none" stroke="#808080" stroke-miterlimit="10" d="M1345 969.4L1345 984.6"/><path fill="none" stroke="#808080" stroke-miterlimit="10" stroke-dasharray="0.6924,0.6924" d="M1258.6 954.7L1258.6 981.5"/><path fill="none" stroke="#808080" stroke-miterlimit="10" d="M1258.6 969.4L1258.6 984.6"/><path fill="#808080" d="M1345 981.5L1338.9 984.6 1338.9 978.5 1345 981.5"/><path fill="none" stroke="#808080" stroke-miterlimit="10" d="M1345 981.5L1338.9 984.6 1338.9 978.5 1345 981.5"/><path fill="#808080" d="M1258.6 981.5L1264.7 978.5 1264.7 984.6 1258.6 981.5"/><path fill="none" stroke="#808080" stroke-miterlimit="10" d="M1258.6 981.5L1264.7 978.5 1264.7 984.6 1258.6 981.5"/><path d="M1286.8 989.6H1276v-1.9l4.2-4.5c.6-.6 1.1-1.2 1.6-1.8.5-.5.9-1 1.2-1.6.3-.5.6-1 .8-1.5.2-.5.3-1.1.3-1.7 0-.5-.1-.9-.2-1.2-.1-.4-.3-.7-.6-.9-.2-.2-.5-.4-.9-.6-.3-.1-.7-.2-1.1-.2-.8 0-1.4.2-2 .5-.6.3-1.2.7-1.7 1.2l-1.2-1.4c.3-.3.7-.6 1-.8.4-.2.8-.5 1.2-.6.4-.2.9-.3 1.3-.4s1-.2 1.5-.2c.8 0 1.4.1 2.1.3.6.2 1.1.5 1.6.9.4.4.8.9 1 1.5.2.6.3 1.2.3 1.9s-.1 1.3-.3 1.9c-.2.6-.5 1.2-.9 1.8-.4.6-.8 1.2-1.3 1.8-.5.6-1.1 1.2-1.7 1.9l-3.3 3.5v.1h8.2v2zm7-17.7l-.6 6.3h-1.5l-.6-6.3h2.7zm21.6 13.8h-2.5v3.9h-2.1v-3.9h-8v-1.9l7.9-11.7h2.2v11.6h2.5v2zm-4.6-1.9v-4.2-1.4-1.4c0-.5 0-.9.1-1.3v-1h-.1c-.1.2-.1.3-.2.5l-.3.6-.3.6c-.1.2-.2.3-.3.5l-4.9 7.2h6zm10.6-11.9l-.6 6.3h-1.5l-.6-6.3h2.7zm4.2 0l-.6 6.3h-1.5l-.6-6.3h2.7z" fill="#808080"/><path d="M1257.7 981.5h.8m86.5 0h.8" fill="none" stroke="#808080" stroke-miterlimit="10"/><path fill="none" stroke="#808080" stroke-miterlimit="10" stroke-dasharray="0.6924,0.6924" d="M1258.6 954.7L1258.6 1015.5"/><path fill="none" stroke="#808080" stroke-miterlimit="10" d="M1258.6 1003.3L1258.6 1018.5"/><path fill="none" stroke="#808080" stroke-miterlimit="10" stroke-dasharray="0.6924,0.6924" d="M263.9 954.7L263.9 1015.5"/><path fill="none" stroke="#808080" stroke-miterlimit="10" d="M263.9 1003.3L263.9 1018.5"/><path fill="#808080" d="M1258.6 1015.5L1252.5 1018.5 1252.5 1012.4 1258.6 1015.5"/><path fill="none" stroke="#808080" stroke-miterlimit="10" d="M1258.6 1015.5L1252.5 1018.5 1252.5 1012.4 1258.6 1015.5"/><path fill="#808080" d="M263.9 1015.5L269.9 1012.5 269.9 1018.5 263.9 1015.5"/><path fill="none" stroke="#808080" stroke-miterlimit="10" d="M263.9 1015.5L269.9 1012.5 269.9 1018.5 263.9 1015.5"/><path d="M711.2 1023.1h-10.8v-1.9l4.2-4.5c.6-.6 1.1-1.2 1.6-1.8.5-.5.9-1 1.2-1.6.3-.5.6-1 .8-1.5.2-.5.3-1.1.3-1.7 0-.5-.1-.9-.2-1.2-.1-.4-.3-.7-.6-.9s-.5-.4-.9-.6c-.3-.1-.7-.2-1.1-.2-.8 0-1.4.2-2 .5-.6.3-1.2.7-1.7 1.2l-1.2-1.4c.3-.3.7-.6 1-.8.4-.2.8-.5 1.2-.6.4-.2.9-.3 1.3-.4.5-.1 1-.2 1.5-.2.8 0 1.4.1 2.1.3.6.2 1.1.5 1.6.9s.8.9 1 1.5c.2.6.4 1.2.4 1.9s-.1 1.3-.3 1.9c-.2.6-.5 1.2-.9 1.8s-.8 1.2-1.3 1.8c-.5.6-1.1 1.2-1.7 1.9l-3.3 3.5v.1h8.2v2zm2.8-7.4c0-.8 0-1.7.1-2.5s.2-1.6.4-2.4c.2-.8.5-1.5.9-2.1.4-.6.8-1.2 1.4-1.7s1.2-.9 2-1.1c.8-.3 1.7-.4 2.8-.4h1.1c.2 0 .4 0 .5.1.2 0 .3.1.5.1v1.8c-.3-.1-.6-.2-.9-.2-.3 0-.7-.1-1-.1-.7 0-1.3.1-1.9.3-.5.2-1 .4-1.4.7s-.7.7-1 1.1c-.3.4-.5.9-.6 1.4-.2.5-.3 1.1-.4 1.7-.1.6-.1 1.2-.2 1.8h.1c.2-.3.3-.6.6-.8s.5-.5.8-.6c.3-.2.6-.3 1-.4.4-.1.8-.2 1.3-.2.8 0 1.4.1 2 .3.6.2 1.1.6 1.6 1s.8 1 1 1.7c.2.7.4 1.4.4 2.2 0 .9-.1 1.7-.4 2.4s-.6 1.3-1.1 1.8c-.5.5-1 .9-1.7 1.2-.6.3-1.4.4-2.2.4-.8 0-1.5-.2-2.2-.5-.7-.3-1.3-.8-1.8-1.4-.5-.6-.9-1.4-1.2-2.4s-.5-1.9-.5-3.2zm5.6 5.9c.5 0 .9-.1 1.3-.2s.7-.4 1-.7.5-.7.7-1.2c.2-.5.2-1.1.2-1.8 0-.6-.1-1-.2-1.5-.1-.4-.3-.8-.6-1.1s-.6-.5-1-.7c-.4-.2-.8-.2-1.4-.2-.5 0-1 .1-1.5.3-.4.2-.8.4-1.1.7-.3.3-.5.6-.7 1-.2.4-.3.8-.3 1.1 0 .5.1 1.1.2 1.6s.4 1 .7 1.4c.3.4.7.8 1.1 1 .6.1 1.1.3 1.6.3zm11.9-16.2l-.6 6.3h-1.5l-.6-6.3h2.7zm17.2 17.7h-2.1v-10.8-1.1-1.2-1.1-.9l-.4.4-.3.3-.3.3c-.1.1-.3.2-.4.4l-1.8 1.4-1.1-1.5 4.5-3.5h1.8v17.3zm17.2-8.7c0 1.4-.1 2.7-.3 3.8-.2 1.1-.5 2-1 2.8-.4.8-1 1.4-1.7 1.8s-1.6.6-2.6.6c-.9 0-1.7-.2-2.4-.6s-1.3-1-1.7-1.8c-.5-.8-.8-1.7-1-2.8-.2-1.1-.3-2.4-.3-3.8s.1-2.7.3-3.8.5-2 1-2.8 1-1.3 1.7-1.8c.7-.4 1.5-.6 2.5-.6.9 0 1.8.2 2.5.6.7.4 1.3 1 1.7 1.7.5.8.8 1.7 1 2.8s.3 2.5.3 3.9zm-8.9 0c0 1.2.1 2.2.2 3.1s.3 1.6.6 2.2c.3.6.6 1 1 1.3.4.3.9.4 1.5.4s1.1-.1 1.6-.4c.4-.3.8-.7 1-1.3.3-.6.5-1.3.6-2.2s.2-1.9.2-3.1c0-1.2-.1-2.2-.2-3.1-.1-.9-.3-1.6-.6-2.2-.3-.6-.6-1-1-1.3-.4-.3-.9-.4-1.6-.4-.6 0-1.1.1-1.5.4-.4.3-.8.7-1 1.3-.3.6-.5 1.3-.6 2.2-.1.9-.2 2-.2 3.1zm24.8 8.7h-2.1v-10.8-1.1-1.2-1.1-.9l-.4.4-.3.3-.3.3c-.1.1-.3.2-.4.4l-1.8 1.4-1.1-1.5 4.5-3.5h1.8v17.3zm14.3-20.2l-6.4 24.2h-2l6.4-24.2h2zm14 16.3h-2.5v3.9h-2.1v-3.9h-8v-1.9l7.9-11.7h2.2v11.6h2.5v2zm-4.7-1.9v-4.2-1.4-1.4c0-.5 0-.9.1-1.3v-1h-.1c-.1.2-.1.3-.2.5l-.3.6-.3.6c-.1.2-.2.3-.3.5l-4.9 7.2 6-.1zm10.6-11.9l-.6 6.3h-1.5l-.6-6.3h2.7zm4.3 0l-.6 6.3h-1.5l-.6-6.3h2.7z" fill="#808080"/><path d="M681.7 1015.5H263.9m994.7 0H840.7" fill="none" stroke="#808080" stroke-miterlimit="10"/><path fill="none" stroke="#808080" stroke-miterlimit="10" stroke-dasharray="0.6924,0.6924" d="M228.4 867.6L167.6 867.6"/><path fill="none" stroke="#808080" stroke-miterlimit="10" d="M179.8 867.6L164.6 867.6"/><path fill="none" stroke="#808080" stroke-miterlimit="10" stroke-dasharray="0.6924,0.6924" d="M228.4 613L167.6 613"/><path fill="none" stroke="#808080" stroke-miterlimit="10" d="M179.8 613L164.6 613"/><path fill="#808080" d="M167.6 867.6L164.6 861.5 170.7 861.5 167.6 867.6"/><path fill="none" stroke="#808080" stroke-miterlimit="10" d="M167.6 867.6L164.6 861.5 170.7 861.5 167.6 867.6"/><path fill="#808080" d="M167.6 613L170.7 619.1 164.6 619.1 167.6 613"/><path fill="none" stroke="#808080" stroke-miterlimit="10" d="M167.6 613L170.7 619.1 164.6 619.1 167.6 613"/><g><path d="M157.6 689.1l6.3.6v1.5l-6.3.6v-2.7zm0 4.2l6.3.6v1.5l-6.3.6v-2.7zm17.7 7.4v10.8h-1.9l-4.5-4.2c-.6-.6-1.2-1.1-1.8-1.6-.5-.5-1-.9-1.6-1.2-.5-.3-1-.6-1.5-.8-.5-.2-1.1-.3-1.7-.3-.5 0-.9.1-1.2.2-.4.1-.7.3-.9.6-.2.2-.4.5-.6.9-.1.3-.2.7-.2 1.1 0 .8.2 1.4.5 2 .3.6.7 1.2 1.2 1.7l-1.4 1.2c-.3-.3-.6-.7-.8-1-.2-.4-.5-.8-.6-1.2-.2-.4-.3-.9-.4-1.3s-.2-1-.2-1.5c0-.8.1-1.4.3-2.1.2-.6.5-1.1.9-1.6.4-.4.9-.8 1.5-1s1.2-.3 1.9-.3 1.3.1 1.9.3c.6.2 1.2.5 1.8.9.6.4 1.2.8 1.8 1.3.6.5 1.2 1.1 1.9 1.7l3.5 3.3h.1v-8.2h2zm-20.2 11.6l24.2 6.4v2l-24.2-6.4v-2zm20.2 14.9v2.1h-15.1l.4.4.3.3.3.3c.1.1.2.3.4.4l1.4 1.8-1.5 1.1-3.5-4.5v-1.8l17.3-.1zm-8.7 16.3c1.4 0 2.7.1 3.8.3 1.1.2 2 .5 2.8 1 .8.4 1.4 1 1.8 1.7s.6 1.6.6 2.6c0 .9-.2 1.7-.6 2.4-.4.7-1 1.3-1.8 1.7-.8.5-1.7.8-2.8 1s-2.4.3-3.8.3-2.7-.1-3.8-.3c-1.1-.2-2-.5-2.8-1-.8-.4-1.3-1-1.8-1.7-.4-.7-.6-1.5-.6-2.5 0-.9.2-1.8.6-2.5.4-.7 1-1.3 1.7-1.7.8-.5 1.7-.8 2.8-1 1.2-.2 2.5-.3 3.9-.3zm0 8.9c1.2 0 2.2-.1 3.1-.2.9-.1 1.6-.3 2.2-.6.6-.3 1-.6 1.3-1 .3-.4.4-.9.4-1.5s-.1-1.1-.4-1.6c-.3-.4-.7-.8-1.3-1-.6-.3-1.3-.5-2.2-.6-.9-.1-1.9-.2-3.1-.2-1.2 0-2.2.1-3.1.2-.9.1-1.6.3-2.2.6-.6.3-1 .6-1.3 1-.3.4-.4.9-.4 1.6 0 .6.1 1.1.4 1.5.3.4.7.8 1.3 1 .6.3 1.3.5 2.2.6.9.2 1.9.2 3.1.2zm8.7 8.8v2.1h-15.1l.4.4.3.3.3.3c.1.1.2.3.4.4l1.4 1.8-1.5 1.1-3.5-4.6v-1.8h17.3zm-17.7 14.7l6.3.6v1.5l-6.3.6v-2.7zm10.3 18c-.8 0-1.7 0-2.5-.1s-1.6-.2-2.4-.4c-.8-.2-1.5-.5-2.1-.9-.6-.4-1.2-.8-1.7-1.4s-.9-1.2-1.1-2c-.3-.8-.4-1.7-.4-2.8v-.5-.6c0-.2 0-.4.1-.5 0-.2.1-.3.1-.5h1.8c-.1.3-.2.6-.2.9 0 .3-.1.7-.1 1 0 .7.1 1.3.3 1.9.2.5.4 1 .7 1.4s.7.7 1.1 1c.4.3.9.5 1.4.6.5.2 1.1.3 1.7.4s1.2.1 1.8.2v-.1c-.3-.2-.6-.3-.8-.6s-.5-.5-.6-.8c-.2-.3-.3-.6-.4-1-.1-.4-.2-.8-.2-1.3 0-.8.1-1.4.3-2 .2-.6.6-1.1 1-1.6.5-.4 1-.8 1.7-1 .7-.2 1.4-.4 2.2-.4.9 0 1.7.1 2.4.4.7.2 1.3.6 1.8 1.1.5.5.9 1 1.2 1.7.3.6.4 1.4.4 2.2 0 .8-.2 1.5-.5 2.2-.3.7-.8 1.3-1.4 1.8-.6.5-1.4.9-2.4 1.2s-1.9.5-3.2.5zm5.8-5.6c0-.5-.1-.9-.2-1.3s-.4-.7-.7-1c-.3-.3-.7-.5-1.2-.7-.5-.2-1.1-.2-1.8-.2-.6 0-1 .1-1.5.2-.4.1-.8.3-1.1.6-.3.3-.5.6-.7 1s-.2.8-.2 1.4c0 .5.1 1 .3 1.5.2.4.4.8.7 1.1.3.3.6.5 1 .7s.8.3 1.1.3c.5 0 1.1-.1 1.6-.2s1-.4 1.4-.7c.4-.3.8-.7 1-1.1.2-.5.3-1 .3-1.6z" fill="#808080"/></g><path d="M167.6 667.7V613m0 254.6v-54.8" fill="none" stroke="#808080" stroke-miterlimit="10"/><path fill="none" stroke="#808080" stroke-miterlimit="10" stroke-dasharray="0.6924,0.6924" d="M228.4 576L167.6 576"/><path fill="none" stroke="#808080" stroke-miterlimit="10" d="M179.8 576L164.6 576"/><path fill="none" stroke="#808080" stroke-miterlimit="10" stroke-dasharray="0.6924,0.6924" d="M228.4 321.4L167.6 321.4"/><path fill="none" stroke="#808080" stroke-miterlimit="10" d="M179.8 321.4L164.6 321.4"/><path fill="#808080" d="M167.6 576L164.6 569.9 170.7 569.9 167.6 576"/><path fill="none" stroke="#808080" stroke-miterlimit="10" d="M167.6 576L164.6 569.9 170.7 569.9 167.6 576"/><path fill="#808080" d="M167.6 321.4L170.7 327.4 164.6 327.4 167.6 321.4"/><path fill="none" stroke="#808080" stroke-miterlimit="10" d="M167.6 321.4L170.7 327.4 164.6 327.4 167.6 321.4"/><g><path d="M157.6 397.5l6.3.6v1.5l-6.3.6v-2.7zm0 4.2l6.3.6v1.5l-6.3.6v-2.7zm17.7 7.4v10.8h-1.9l-4.5-4.2c-.6-.6-1.2-1.1-1.8-1.6-.5-.5-1-.9-1.6-1.2-.5-.3-1-.6-1.5-.8-.5-.2-1.1-.3-1.7-.3-.5 0-.9.1-1.2.2-.4.1-.7.3-.9.6s-.4.5-.6.9c-.1.3-.2.7-.2 1.1 0 .8.2 1.4.5 2 .3.6.7 1.2 1.2 1.7l-1.4 1.2c-.3-.3-.6-.7-.8-1-.2-.4-.5-.8-.6-1.2-.2-.4-.3-.9-.4-1.3-.1-.5-.2-1-.2-1.5 0-.8.1-1.4.3-2.1.2-.6.5-1.1.9-1.6.4-.4.9-.8 1.5-1s1.2-.4 1.9-.4 1.3.1 1.9.3 1.2.5 1.8.9c.6.4 1.2.8 1.8 1.3.6.5 1.2 1.1 1.9 1.7l3.5 3.3h.1v-8.2h2zm-20.2 11.6l24.2 6.4v2l-24.2-6.4v-2zm20.2 14.9v2.1h-15.1l.4.4.3.3.3.3c.1.1.2.3.4.4l1.4 1.8-1.5 1.1-3.5-4.5v-1.8h17.3zm-8.7 16.3c1.4 0 2.7.1 3.8.3 1.1.2 2 .5 2.8 1 .8.4 1.4 1 1.8 1.7s.6 1.6.6 2.6c0 .9-.2 1.7-.6 2.4-.4.7-1 1.3-1.8 1.7-.8.5-1.7.8-2.8 1-1.1.2-2.4.3-3.8.3s-2.7-.1-3.8-.3c-1.1-.2-2-.5-2.8-1-.8-.4-1.3-1-1.8-1.7s-.6-1.5-.6-2.5c0-.9.2-1.8.6-2.5.4-.7 1-1.3 1.7-1.7.8-.5 1.7-.8 2.8-1 1.2-.2 2.5-.3 3.9-.3zm0 8.9c1.2 0 2.2-.1 3.1-.2s1.6-.3 2.2-.6c.6-.3 1-.6 1.3-1 .3-.4.4-.9.4-1.5s-.1-1.1-.4-1.6c-.3-.4-.7-.8-1.3-1s-1.3-.5-2.2-.6-1.9-.2-3.1-.2c-1.2 0-2.2.1-3.1.2s-1.6.3-2.2.6c-.6.3-1 .6-1.3 1s-.4.9-.4 1.6.1 1.1.4 1.5c.3.4.7.8 1.3 1 .6.3 1.3.5 2.2.6s1.9.2 3.1.2zm8.7 8.8v2.1h-15.1l.4.4.3.3.3.3c.1.1.2.3.4.4l1.4 1.8-1.5 1.1-3.5-4.5v-1.8h17.3zm-17.7 14.7l6.3.6v1.5l-6.3.6v-2.7zm10.3 18c-.8 0-1.7 0-2.5-.1s-1.6-.2-2.4-.4-1.5-.5-2.1-.9-1.2-.8-1.7-1.4-.9-1.2-1.1-2c-.3-.8-.4-1.7-.4-2.8v-.5-.6c0-.2 0-.4.1-.5 0-.2.1-.3.1-.5h1.8c-.1.3-.2.6-.2.9 0 .3-.1.7-.1 1 0 .7.1 1.3.3 1.9s.4 1 .7 1.4.7.7 1.1 1c.4.3.9.5 1.4.6.5.2 1.1.3 1.7.4s1.2.1 1.8.2c-.3-.2-.6-.4-.8-.6-.2-.2-.5-.5-.6-.8-.2-.3-.3-.6-.4-1-.1-.4-.2-.8-.2-1.3 0-.8.1-1.4.3-2 .2-.6.6-1.1 1-1.6.5-.4 1-.8 1.7-1 .7-.2 1.4-.4 2.2-.4.9 0 1.7.1 2.4.4.7.2 1.3.6 1.8 1.1.5.5.9 1 1.2 1.7.3.6.4 1.4.4 2.2 0 .8-.2 1.5-.5 2.2-.3.7-.8 1.3-1.4 1.8-.6.5-1.4.9-2.4 1.2s-1.9.4-3.2.4zm5.8-5.6c0-.5-.1-.9-.2-1.3s-.4-.7-.7-1c-.3-.3-.7-.5-1.2-.7-.5-.2-1.1-.2-1.8-.2-.6 0-1 .1-1.5.2-.4.1-.8.3-1.1.6-.3.3-.5.6-.7 1-.2.4-.2.8-.2 1.4 0 .5.1 1 .3 1.5.2.4.4.8.7 1.1.3.3.6.5 1 .7.4.2.8.3 1.1.3.5 0 1.1-.1 1.6-.2s1-.4 1.4-.7c.4-.3.8-.7 1-1.1.2-.5.3-1 .3-1.6z" fill="#808080"/></g><path d="M167.6 376.1v-54.7m0 254.6v-54.7" fill="none" stroke="#808080" stroke-miterlimit="10"/><path fill="none" stroke="#808080" stroke-miterlimit="10" stroke-dasharray="0.6924,0.6924" d="M228.4 917L106.9 917"/><path fill="none" stroke="#808080" stroke-miterlimit="10" d="M119 917L103.8 917"/><path fill="none" stroke="#808080" stroke-miterlimit="10" stroke-dasharray="0.6924,0.6924" d="M228.4 272L106.9 272"/><path fill="none" stroke="#808080" stroke-miterlimit="10" d="M119 272L103.8 272"/><path fill="#808080" d="M106.9 917L103.8 910.9 109.9 910.9 106.9 917"/><path fill="none" stroke="#808080" stroke-miterlimit="10" d="M106.9 917L103.8 910.9 109.9 910.9 106.9 917"/><path fill="#808080" d="M106.9 272L109.9 278.1 103.8 278.1 106.9 272"/><path fill="none" stroke="#808080" stroke-miterlimit="10" d="M106.9 272L109.9 278.1 103.8 278.1 106.9 272"/><g><path d="M96.8 564.8l6.3.6v1.5l-6.3.6v-2.7zm0 4.2l6.3.6v1.5l-6.3.6V569zm7.1 12.9c0-.8.1-1.5.3-2.2.2-.7.5-1.3 1-1.8.4-.5 1-.9 1.6-1.2s1.4-.4 2.2-.4c.9 0 1.7.1 2.4.4.7.3 1.3.7 1.8 1.2s.9 1.2 1.1 2c.3.8.4 1.7.4 2.7 0 .4 0 .8-.1 1.2 0 .4-.1.8-.2 1.1-.1.4-.2.7-.3 1-.1.3-.3.6-.4.9h-2c.2-.3.3-.6.5-.9.1-.4.3-.7.4-1.1s.2-.8.2-1.2c.1-.4.1-.8.1-1.1 0-.6-.1-1.2-.2-1.7s-.4-.9-.7-1.2c-.3-.3-.7-.6-1.2-.8s-1-.3-1.7-.3c-1.1 0-2 .3-2.6 1-.6.7-.9 1.7-.9 3v.7c0 .2 0 .5.1.7 0 .2.1.5.1.7 0 .2.1.4.1.6l-.7 1.1-8.2-.7v-8.2h2v6.3l5 .5c0-.3-.1-.6-.2-1 .1-.2.1-.7.1-1.3zm-7.1 12.8l6.3.6v1.5l-6.3.6v-2.7zm17.8 16L99.2 604v8.9h-2v-11.2h1.7l15.6 6.6v2.4zm0 8.8v2.1H99.5l.4.4.3.3.3.3c.1.1.2.3.4.4l1.4 1.8-1.5 1.1-3.5-4.5v-1.8h17.3z" fill="#808080"/></g><path d="M106.9 543.5V272m0 645V645.5" fill="none" stroke="#808080" stroke-miterlimit="10"/><g><path d="M123.2 80.4h-15.9V52.8h15.9v4.8h-10v6.1h9.3v4.8h-9.3v7.1h10v4.8zm20-6.3c0 2.2-.8 3.8-2.3 4.9s-3.7 1.7-6.7 1.7c-1.5 0-2.8-.1-3.9-.3-1.1-.2-2.1-.5-3-.9v-4.8c1.1.5 2.3.9 3.6 1.3 1.3.3 2.5.5 3.5.5 2.1 0 3.1-.6 3.1-1.8 0-.5-.1-.8-.4-1.1-.3-.3-.8-.6-1.4-1s-1.6-.8-2.7-1.3c-1.6-.7-2.8-1.3-3.6-1.9-.8-.6-1.3-1.2-1.7-2s-.5-1.7-.5-2.8c0-1.9.7-3.3 2.2-4.3s3.5-1.5 6.2-1.5c2.5 0 5 .6 7.4 1.7l-1.7 4.1c-1.1-.5-2-.8-3-1.1-.9-.3-1.9-.4-2.8-.4-1.7 0-2.5.5-2.5 1.4 0 .5.3 1 .8 1.3.5.4 1.7.9 3.6 1.7 1.6.7 2.9 1.3 3.6 1.9.8.6 1.3 1.2 1.7 2 .4.8.5 1.7.5 2.7zm15.8 6.7c-2.5 0-4.4-.9-5.8-2.7h-.3c.2 1.8.3 2.8.3 3.1v8.5h-5.7V59.3h4.7l.8 2.7h.3c1.3-2.1 3.3-3.1 6-3.1 2.5 0 4.4 1 5.8 2.9s2.1 4.6 2.1 8c0 2.2-.3 4.2-1 5.9-.7 1.7-1.6 2.9-2.8 3.8s-2.8 1.3-4.4 1.3zm-1.7-17.3c-1.4 0-2.5.4-3.1 1.3-.7.9-1 2.3-1 4.3v.6c0 2.3.3 3.9 1 4.9.7 1 1.7 1.5 3.2 1.5 2.6 0 3.9-2.1 3.9-6.4 0-2.1-.3-3.6-1-4.7s-1.7-1.5-3-1.5zm27.5 16.9l-1.1-2.9h-.2c-1 1.2-2 2.1-3 2.5-1 .5-2.4.7-4 .7-2 0-3.6-.6-4.8-1.7s-1.7-2.8-1.7-4.9c0-2.2.8-3.9 2.3-4.9 1.6-1.1 3.9-1.6 7.1-1.8l3.7-.1v-.9c0-2.1-1.1-3.2-3.3-3.2-1.7 0-3.7.5-5.9 1.5l-1.9-3.9c2.4-1.3 5.1-1.9 8.1-1.9 2.8 0 5 .6 6.5 1.8s2.3 3.1 2.3 5.6v14h-4.1zm-1.7-9.8l-2.2.1c-1.7 0-2.9.4-3.7.9-.8.6-1.2 1.4-1.2 2.5 0 1.6.9 2.4 2.8 2.4 1.3 0 2.4-.4 3.2-1.2.8-.8 1.2-1.8 1.2-3.1v-1.6zm19.8 10.2c-6.6 0-9.8-3.6-9.8-10.8 0-3.6.9-6.3 2.7-8.2s4.3-2.8 7.7-2.8c2.4 0 4.6.5 6.6 1.4l-1.7 4.4c-.9-.4-1.7-.7-2.5-.9-.8-.2-1.6-.3-2.3-.3-3 0-4.5 2.1-4.5 6.4 0 4.1 1.5 6.2 4.5 6.2 1.1 0 2.1-.1 3.1-.4s1.9-.8 2.8-1.4v4.9c-.9.6-1.9 1-2.8 1.2-1.2.1-2.4.3-3.8.3zm20.2 0c-3.4 0-6-.9-8-2.8-1.9-1.9-2.9-4.5-2.9-8s.9-6.3 2.6-8.2 4.2-2.9 7.3-2.9c3 0 5.3.8 7 2.5 1.7 1.7 2.5 4 2.5 7v2.8H218c.1 1.6.5 2.9 1.5 3.8.9.9 2.2 1.4 3.8 1.4 1.3 0 2.5-.1 3.6-.4s2.3-.7 3.5-1.3v4.4c-1 .5-2.1.9-3.2 1.1s-2.4.6-4.1.6zm-.8-17.8c-1.2 0-2.2.4-2.9 1.2-.7.8-1.1 1.9-1.2 3.3h8.1c0-1.4-.4-2.5-1.1-3.3-.7-.8-1.7-1.2-2.9-1.2zm41.1 17.4H245v-4.1l6.5-7c.8-.9 1.6-1.7 2.2-2.4s1.2-1.5 1.7-2.2c.5-.7.8-1.4 1.1-2.1.3-.7.4-1.5.4-2.4 0-.9-.3-1.7-.8-2.2-.6-.5-1.3-.8-2.3-.8-1 0-1.9.2-2.9.7S249 59.1 248 60l-3.2-3.8 1.8-1.5c.6-.5 1.3-.9 2-1.3s1.6-.7 2.5-.9c.9-.2 1.9-.3 3-.3 1.3 0 2.5.2 3.6.5s1.9.9 2.7 1.6c.7.7 1.3 1.5 1.7 2.4.4 1 .6 2 .6 3.2 0 1.1-.2 2.1-.6 3.1s-.9 2-1.5 2.9c-.7.9-1.4 1.9-2.3 2.8-.9.9-1.8 1.9-2.8 2.9l-3.3 3.3v.3h11.2v5.2zm21-21.4c0 1-.2 1.8-.5 2.6s-.7 1.4-1.3 2-1.2 1-1.9 1.4-1.5.7-2.3.9v.1c2.2.3 3.9 1 5.1 2 1.1 1.1 1.7 2.5 1.7 4.3 0 1.2-.2 2.3-.7 3.3-.4 1-1.1 1.9-2 2.7s-2 1.3-3.4 1.8c-1.4.4-3 .6-4.8.6-1.5 0-2.9-.1-4.2-.4s-2.5-.6-3.7-1.1v-5c.6.3 1.2.6 1.8.8.6.2 1.3.4 1.9.6.6.2 1.2.3 1.9.3.6.1 1.2.1 1.7.1 1.1 0 2-.1 2.7-.3.7-.2 1.3-.5 1.7-.8.4-.4.7-.8.9-1.3.2-.5.3-1.1.3-1.7 0-.6-.1-1.1-.3-1.5s-.6-.8-1.1-1.2-1.2-.6-2-.7-1.9-.3-3.1-.3h-2v-4.1h1.9c1.2 0 2.1-.1 2.9-.3.8-.2 1.4-.5 1.8-.8.5-.4.8-.8 1-1.3s.3-1 .3-1.5c0-1-.3-1.7-.9-2.3s-1.6-.8-2.9-.8c-.6 0-1.2.1-1.7.2s-1 .3-1.5.5c-.4.2-.9.4-1.2.6-.4.2-.7.4-1 .7l-2.9-3.9c.5-.4 1.1-.7 1.7-1.1.6-.3 1.3-.6 2-.9s1.5-.4 2.4-.6c.8-.1 1.7-.2 2.7-.2 1.4 0 2.6.1 3.7.4 1.1.3 2.1.7 2.9 1.3.8.6 1.4 1.2 1.8 2.1s.6 1.7.6 2.8zm22.9 7.6c0 2.2-.2 4.2-.5 6-.3 1.7-.9 3.2-1.7 4.4s-1.7 2.1-2.9 2.8c-1.2.6-2.6 1-4.3 1-1.6 0-3-.3-4.2-1-1.2-.6-2.2-1.6-2.9-2.8s-1.4-2.7-1.7-4.4c-.4-1.7-.6-3.7-.6-6 0-2.2.2-4.2.5-6 .3-1.8.9-3.2 1.6-4.5.8-1.2 1.7-2.2 2.9-2.8 1.2-.6 2.6-1 4.3-1 1.6 0 3 .3 4.1 1 1.2.6 2.2 1.6 3 2.8.8 1.2 1.4 2.7 1.8 4.5.4 1.8.6 3.8.6 6zm-13.1 0c0 3.1.3 5.5.8 7.1.5 1.6 1.5 2.4 2.8 2.4 1.3 0 2.2-.8 2.8-2.4.6-1.6.9-3.9.9-7.1 0-3.2-.3-5.5-.9-7.1-.6-1.6-1.5-2.4-2.8-2.4-.7 0-1.2.2-1.7.6s-.8 1-1.1 1.8c-.3.8-.5 1.8-.6 3-.1 1.1-.2 2.5-.2 4.1zm-185 60.1l10.6-24.4h-14.2v-3.1h17.7v2.7l-10.5 24.8h-3.6zm34-6.2h-4v6.2h-3.3v-6.2h-12.7v-3L135.7 99h3.5v18.4h4v3.1zm-7.3-3.1v-6.7-2.2c0-.8 0-1.5.1-2.3 0-.7.1-1.4.1-2.1 0-.6.1-1.2.1-1.6h-.2c-.1.3-.2.5-.3.8-.1.3-.3.6-.4.9-.2.3-.3.6-.5.9s-.3.5-.5.7l-7.7 11.5h9.3zm26.5 9.3h-17.2v-2.9l6.6-7.2c.9-1 1.8-1.9 2.5-2.8s1.4-1.7 1.9-2.5.9-1.6 1.2-2.4c.3-.8.4-1.7.4-2.6 0-.7-.1-1.4-.3-2s-.5-1-.9-1.4c-.4-.4-.9-.7-1.4-.9-.5-.2-1.1-.3-1.8-.3-1.2 0-2.3.2-3.2.7-1 .5-1.9 1.1-2.7 1.9l-1.9-2.2c.5-.5 1-.9 1.6-1.3s1.2-.7 1.9-1 1.4-.5 2.1-.7c.7-.2 1.5-.3 2.3-.3 1.2 0 2.3.2 3.3.5s1.8.8 2.5 1.5c.7.6 1.2 1.4 1.6 2.3.4.9.6 1.9.6 3.1 0 1.1-.2 2.1-.5 3.1s-.8 1.9-1.4 2.9c-.6.9-1.3 1.9-2.1 2.8s-1.7 1.9-2.6 2.9l-5.3 5.6v.2h13v3zm4.7-2.1c0-.5.1-.9.2-1.2.1-.3.3-.6.5-.8.2-.2.5-.4.8-.5.3-.1.6-.1.9-.1.3 0 .6 0 .9.1.3.1.5.2.8.5.2.2.4.5.5.8.1.3.2.7.2 1.2s-.1.9-.2 1.2c-.1.3-.3.6-.5.8-.2.2-.5.4-.8.5-.3.1-.6.2-.9.2-.3 0-.7-.1-.9-.2s-.5-.3-.8-.5c-.2-.2-.4-.5-.5-.8s-.2-.7-.2-1.2zm8.9-9.7c0-1.3.1-2.6.2-3.9.1-1.3.4-2.6.7-3.8.3-1.2.8-2.3 1.4-3.3s1.3-1.9 2.2-2.7c.9-.8 2-1.4 3.2-1.8s2.7-.7 4.4-.7h.8c.3 0 .6 0 .9.1s.6.1.8.1c.3 0 .5.1.7.2v2.9c-.4-.2-.9-.3-1.5-.3s-1.1-.1-1.6-.1c-1.1 0-2.1.1-3 .4-.9.3-1.6.7-2.2 1.1-.6.5-1.2 1.1-1.6 1.8s-.8 1.4-1 2.3c-.3.8-.5 1.7-.6 2.6-.1.9-.2 1.9-.2 2.9h.2c.3-.5.6-.9.9-1.3s.8-.7 1.3-1c.5-.3 1-.5 1.6-.7.6-.2 1.3-.2 2-.2 1.2 0 2.3.2 3.2.6 1 .4 1.8.9 2.5 1.6.7.7 1.2 1.6 1.6 2.6.4 1 .6 2.2.6 3.6s-.2 2.7-.6 3.9c-.4 1.1-.9 2.1-1.7 2.9-.7.8-1.6 1.4-2.6 1.8-1 .4-2.2.6-3.5.6-1.3 0-2.4-.2-3.5-.7s-2.1-1.2-2.9-2.2c-.8-1-1.4-2.3-1.9-3.8s-.8-3.4-.8-5.5zm9 9.3c.8 0 1.4-.1 2.1-.4.6-.3 1.2-.6 1.6-1.2.5-.5.8-1.2 1-2 .2-.8.4-1.7.4-2.8 0-.9-.1-1.7-.3-2.4-.2-.7-.5-1.3-.9-1.8s-.9-.9-1.6-1.1-1.3-.4-2.2-.4c-.8 0-1.6.1-2.3.4-.7.3-1.3.7-1.8 1.2s-.9 1-1.1 1.6c-.3.6-.4 1.2-.4 1.8 0 .8.1 1.7.3 2.5s.6 1.6 1 2.3c.5.7 1 1.2 1.7 1.6.8.5 1.6.7 2.5.7zm28.3-18.6c0 .9-.1 1.8-.4 2.5-.3.8-.7 1.4-1.2 2-.5.6-1.1 1-1.9 1.4-.7.4-1.5.6-2.4.8v.1c2.2.3 3.9 1 5.1 2.1 1.2 1.1 1.7 2.6 1.7 4.4 0 1.2-.2 2.3-.6 3.3-.4 1-1 1.9-1.9 2.6-.8.7-1.9 1.3-3.1 1.7-1.3.4-2.8.6-4.5.6-1.4 0-2.7-.1-3.9-.3s-2.4-.6-3.4-1.2v-3.2c1.1.6 2.3 1 3.6 1.3 1.3.3 2.5.5 3.7.5 1.2 0 2.2-.1 3-.4.8-.3 1.5-.6 2.1-1.1.5-.5.9-1 1.2-1.7s.4-1.4.4-2.3c0-.9-.2-1.6-.5-2.2s-.8-1.1-1.4-1.5c-.6-.4-1.4-.7-2.3-.9s-1.9-.3-3-.3h-2.5V111h2.5c1 0 1.9-.1 2.7-.4s1.5-.6 2-1.1.9-1 1.2-1.7.4-1.3.4-2.1c0-.7-.1-1.2-.3-1.8-.2-.5-.5-1-1-1.3-.4-.4-.9-.6-1.5-.8s-1.2-.3-1.9-.3c-1.3 0-2.5.2-3.6.6s-2 1-2.9 1.6l-1.7-2.4c.5-.4 1-.8 1.6-1.1.6-.3 1.2-.6 1.9-.9s1.4-.5 2.2-.6c.8-.2 1.6-.2 2.5-.2 1.4 0 2.5.2 3.6.5 1 .3 1.9.8 2.6 1.4.7.6 1.2 1.3 1.6 2.2.1 1.1.3 2 .3 3zm29.9 15.4c0 1.9-.7 3.4-2.2 4.5-1.4 1.1-3.5 1.6-6.1 1.6-2.7 0-4.9-.4-6.5-1.3v-3.1c2.3 1.1 4.5 1.7 6.6 1.7 1.7 0 3-.3 3.7-.8s1.2-1.3 1.2-2.2c0-.8-.4-1.5-1.1-2.1-.7-.6-2.1-1.2-4-1.9-1.9-.8-3.3-1.4-4.1-1.9-.8-.5-1.4-1.1-1.7-1.8-.4-.7-.6-1.5-.6-2.4 0-1.7.7-3 2.1-4 1.4-1 3.3-1.5 5.7-1.5 2.3 0 4.5.5 6.6 1.4l-1.1 2.7c-2.1-.9-4-1.3-5.7-1.3-1.4 0-2.5.2-3.2.7-.7.4-1.1 1.1-1.1 1.8 0 .8.3 1.4.9 1.9.6.5 2.1 1.2 4.4 2.1 1.7.6 3 1.2 3.8 1.8s1.4 1.2 1.8 1.9c.4.4.6 1.2.6 2.2zm12 6.1c-2.7 0-4.7-.9-6.2-2.8s-2.2-4.5-2.2-7.9c0-3.4.8-6 2.3-7.9 1.5-1.9 3.6-2.9 6.3-2.9 2.8 0 5 1.1 6.4 3.2h.2l.5-2.8h2.7v30h-3.4v-8.8c0-1.4.1-2.5.2-3.2h-.2c-1.6 2-3.7 3.1-6.6 3.1zm.6-2.8c2 0 3.5-.6 4.4-1.7.9-1.1 1.4-2.9 1.5-5.5v-.7c0-2.9-.5-4.9-1.4-6.1-1-1.2-2.5-1.9-4.5-1.9-1.8 0-3.1.7-4.1 2.1-.9 1.4-1.4 3.4-1.4 5.9 0 2.5.5 4.5 1.4 5.8.9 1.4 2.3 2.1 4.1 2.1zm35.4-15.7H286v18.1h-3.4v-18.1H279V107l3.6-1.2v-1.2c0-2.5.5-4.4 1.6-5.7 1.1-1.3 2.8-1.9 5.1-1.9 1.3 0 2.7.2 4 .7l-.9 2.7c-1.2-.4-2.2-.6-3.1-.6-1.1 0-2 .4-2.5 1.1-.6.8-.8 1.9-.8 3.6v1.3h5.2v2.8zm12 15.7c.4 0 1 0 1.5-.1s1-.2 1.3-.3v2.6c-.3.1-.8.3-1.5.4s-1.3.2-2 .2c-4 0-6.1-2.1-6.1-6.4v-12h-2.9V107l3-1.4 1.4-4.4h2v4.8h6v2.6h-6v12c0 1.2.3 2.1.9 2.8.6.6 1.4.9 2.4.9zm16.4-10.6c0-1.8.1-3.6.3-5.3s.6-3.4 1-5c.5-1.6 1-3.2 1.7-4.6.7-1.5 1.5-2.9 2.5-4.2h3.1c-.9 1.4-1.6 2.8-2.3 4.3s-1.3 3.1-1.7 4.7c-.5 1.6-.8 3.3-1 5-.2 1.7-.3 3.4-.3 5.1 0 3.5.5 6.9 1.4 10.2.9 3.3 2.3 6.4 4.1 9.1h-3.2c-1-1.3-1.8-2.8-2.5-4.3s-1.3-3.1-1.7-4.8c-.5-1.7-.8-3.3-1-5.1-.3-1.6-.4-3.3-.4-5.1zm27.5-8.1c0 .9-.1 1.8-.4 2.5s-.7 1.4-1.2 2c-.5.6-1.1 1-1.9 1.4-.7.4-1.5.6-2.4.8v.1c2.2.3 3.9 1 5.1 2.1 1.2 1.1 1.7 2.6 1.7 4.4 0 1.2-.2 2.3-.6 3.3-.4 1-1 1.9-1.9 2.6-.8.7-1.9 1.3-3.1 1.7-1.3.4-2.8.6-4.5.6-1.4 0-2.7-.1-3.9-.3s-2.4-.6-3.4-1.2v-3.2c1.1.6 2.3 1 3.6 1.3 1.3.3 2.5.5 3.7.5 1.2 0 2.2-.1 3-.4s1.5-.6 2.1-1.1.9-1 1.2-1.7c.3-.7.4-1.4.4-2.3 0-.9-.2-1.6-.5-2.2-.3-.6-.8-1.1-1.4-1.5-.6-.4-1.4-.7-2.3-.9s-1.9-.3-3-.3h-2.5V111h2.5c1 0 1.9-.1 2.7-.4.8-.3 1.5-.6 2-1.1s.9-1 1.2-1.7.4-1.3.4-2.1c0-.7-.1-1.2-.3-1.8-.2-.5-.5-1-1-1.3-.4-.4-.9-.6-1.5-.8s-1.2-.3-1.9-.3c-1.3 0-2.5.2-3.6.6-1 .4-2 1-2.9 1.6l-1.7-2.4c.5-.4 1-.8 1.6-1.1.6-.3 1.2-.6 1.9-.9.7-.3 1.4-.5 2.2-.6.8-.2 1.6-.2 2.5-.2 1.4 0 2.5.2 3.6.5 1 .3 1.9.8 2.6 1.4.7.6 1.2 1.3 1.6 2.2.1 1.1.3 2 .3 3zm21.9 5.3c0 1.3-.1 2.6-.2 3.9-.1 1.3-.4 2.6-.7 3.8-.3 1.2-.8 2.3-1.4 3.3-.6 1-1.3 1.9-2.2 2.7s-2 1.3-3.2 1.8-2.7.7-4.4.7h-.8c-.3 0-.6 0-.9-.1s-.6-.1-.8-.1c-.3 0-.5-.1-.7-.2v-2.9c.4.2.9.3 1.5.4.6.1 1.1.1 1.6.1 1.7 0 3.1-.3 4.2-.9s2-1.4 2.6-2.4c.6-1 1.1-2.2 1.4-3.5s.4-2.8.5-4.3h-.2c-.3.5-.6.9-.9 1.3s-.8.7-1.2 1-1 .5-1.6.7c-.6.2-1.3.2-2 .2-1.2 0-2.3-.2-3.2-.6-1-.4-1.8-.9-2.5-1.6-.7-.7-1.2-1.6-1.6-2.6-.4-1-.6-2.2-.6-3.6s.2-2.7.6-3.9c.4-1.1 1-2.1 1.7-2.9.7-.8 1.6-1.4 2.6-1.8 1-.4 2.2-.6 3.5-.6 1.3 0 2.5.2 3.5.7 1.1.5 2 1.2 2.8 2.2.8 1 1.4 2.3 1.9 3.8.4 1.6.7 3.3.7 5.4zm-9-9.2c-.8 0-1.4.1-2.1.4-.6.3-1.2.6-1.6 1.2-.5.5-.8 1.2-1 2s-.4 1.7-.4 2.8c0 .9.1 1.7.3 2.4.2.7.5 1.3.9 1.8s.9.9 1.6 1.1 1.3.4 2.2.4c.9 0 1.6-.1 2.3-.4.7-.3 1.3-.7 1.8-1.1.5-.5.9-1 1.1-1.6.3-.6.4-1.2.4-1.8 0-.8-.1-1.7-.3-2.5-.2-.8-.6-1.6-1-2.3-.5-.7-1-1.2-1.7-1.6-.8-.6-1.6-.8-2.5-.8zm18.6-3.1l-1 10h-2.4l-1-10h4.4zm34.4 21.9h-4v6.2h-3.3v-6.2H393v-3L405.5 99h3.5v18.4h4v3.1zm-7.3-3.1v-6.7-2.2c0-.8 0-1.5.1-2.3 0-.7.1-1.4.1-2.1 0-.6.1-1.2.1-1.6h-.2c-.1.3-.2.5-.3.8-.1.3-.3.6-.4.9-.2.3-.3.6-.5.9s-.3.5-.5.7l-7.7 11.5h9.3zm36.2-11.8c0 .9-.1 1.8-.4 2.5s-.7 1.4-1.2 2c-.5.6-1.1 1-1.9 1.4-.7.4-1.5.6-2.4.8v.1c2.2.3 3.9 1 5.1 2.1 1.2 1.1 1.7 2.6 1.7 4.4 0 1.2-.2 2.3-.6 3.3-.4 1-1 1.9-1.9 2.6-.8.7-1.9 1.3-3.1 1.7-1.3.4-2.8.6-4.5.6-1.4 0-2.7-.1-3.9-.3s-2.4-.6-3.4-1.2v-3.2c1.1.6 2.3 1 3.6 1.3 1.3.3 2.5.5 3.7.5 1.2 0 2.2-.1 3-.4s1.5-.6 2.1-1.1.9-1 1.2-1.7c.3-.7.4-1.4.4-2.3 0-.9-.2-1.6-.5-2.2-.3-.6-.8-1.1-1.4-1.5-.6-.4-1.4-.7-2.3-.9s-1.9-.3-3-.3h-2.5V111h2.5c1 0 1.9-.1 2.7-.4.8-.3 1.5-.6 2-1.1s.9-1 1.2-1.7.4-1.3.4-2.1c0-.7-.1-1.2-.3-1.8-.2-.5-.5-1-1-1.3-.4-.4-.9-.6-1.5-.8s-1.2-.3-1.9-.3c-1.3 0-2.5.2-3.6.6-1 .4-2 1-2.9 1.6l-1.7-2.4c.5-.4 1-.8 1.6-1.1.6-.3 1.2-.6 1.9-.9.7-.3 1.4-.5 2.2-.6.8-.2 1.6-.2 2.5-.2 1.4 0 2.5.2 3.6.5 1 .3 1.9.8 2.6 1.4.7.6 1.2 1.3 1.6 2.2.2 1.1.3 2 .3 3zm16.5-11l-10.1 38.5H445l10.2-38.5h3.2zm20 25.9h-4v6.2h-3.3v-6.2h-12.7v-3L470.9 99h3.5v18.4h4v3.1zm-7.3-3.1v-6.7-2.2c0-.8 0-1.5.1-2.3 0-.7.1-1.4.1-2.1 0-.6.1-1.2.1-1.6h-.2c-.1.3-.2.5-.3.8-.1.3-.3.6-.4.9-.2.3-.3.6-.5.9s-.3.5-.5.7l-7.7 11.5h9.3zm15.1-18.8l-1 10h-2.4l-1-10h4.4zm6.8 0l-1 10h-2.3l-1-10h4.3zm22.5 15.7l-6-6 2-2 6 6 6.1-6 2 1.9-6.1 6.1 6 6-1.9 1.9-6.1-6-6 5.9-1.9-1.9 5.9-5.9zm36.1 12.4h-3.3v-17.2-1.7-1.8c0-.6 0-1.2.1-1.8v-1.5l-.6.6-.5.5-.5.5c-.2.2-.4.4-.7.6l-2.8 2.3-1.8-2.3 7.2-5.6h2.8v27.4zm24.4-15.8c0 1.3-.1 2.6-.2 3.9-.1 1.3-.4 2.6-.7 3.8-.3 1.2-.8 2.3-1.4 3.3-.6 1-1.3 1.9-2.2 2.7-.9.8-2 1.3-3.2 1.8s-2.7.7-4.4.7h-.8c-.3 0-.6 0-.9-.1s-.6-.1-.8-.1c-.3 0-.5-.1-.7-.2v-2.9c.4.2.9.3 1.5.4.6.1 1.1.1 1.6.1 1.7 0 3.1-.3 4.2-.9 1.1-.6 2-1.4 2.6-2.4.6-1 1.1-2.2 1.4-3.5.3-1.3.4-2.8.5-4.3h-.2c-.3.5-.6.9-.9 1.3s-.8.7-1.2 1-1 .5-1.6.7-1.3.2-2 .2c-1.2 0-2.3-.2-3.2-.6-1-.4-1.8-.9-2.5-1.6-.7-.7-1.2-1.6-1.6-2.6-.4-1-.6-2.2-.6-3.6s.2-2.7.6-3.9c.4-1.1 1-2.1 1.7-2.9.7-.8 1.6-1.4 2.6-1.8 1-.4 2.2-.6 3.5-.6 1.3 0 2.5.2 3.5.7 1.1.5 2 1.2 2.8 2.2.8 1 1.4 2.3 1.9 3.8.5 1.6.7 3.3.7 5.4zm-8.9-9.2c-.8 0-1.4.1-2.1.4-.6.3-1.2.6-1.6 1.2-.5.5-.8 1.2-1 2s-.4 1.7-.4 2.8c0 .9.1 1.7.3 2.4.2.7.5 1.3.9 1.8s.9.9 1.6 1.1 1.3.4 2.2.4c.9 0 1.6-.1 2.3-.4.7-.3 1.3-.7 1.8-1.1.5-.5.9-1 1.1-1.6.3-.6.4-1.2.4-1.8 0-.8-.1-1.7-.3-2.5-.2-.8-.6-1.6-1-2.3-.5-.7-1-1.2-1.7-1.6-.8-.6-1.6-.8-2.5-.8zm18.5-3.1l-1 10h-2.4l-1-10h4.4zm27.4 28.1h-3.3v-17.2-1.7-1.8c0-.6 0-1.2.1-1.8v-1.5l-.6.6-.5.5-.5.5c-.2.2-.4.4-.7.6l-2.8 2.3-1.8-2.3 7.2-5.6h2.8v27.4zm31.3 0H641v-17.2-1.7-1.8c0-.6 0-1.2.1-1.8v-1.5l-.6.6-.5.5-.5.5c-.2.2-.4.4-.7.6l-2.8 2.3-1.8-2.3 7.2-5.6h2.8v27.4zm19-32.1l-10.1 38.5H650l10.2-38.5h3.1zm20 25.9h-4v6.2H676v-6.2h-12.7v-3L675.8 99h3.5v18.4h4v3.1zm-7.3-3.1v-6.7-2.2c0-.8 0-1.5.1-2.3s.1-1.4.1-2.1c0-.6.1-1.2.1-1.6h-.2c-.1.3-.2.5-.3.8-.1.3-.3.6-.4.9-.2.3-.3.6-.5.9s-.3.5-.5.7l-7.7 11.5h9.3zm15.1-18.8l-1 10h-2.4l-1-10h4.4zm6.8 0l-1 10h-2.3l-1-10h4.3zm12.6 15.4c0 1.8-.1 3.6-.3 5.3-.2 1.7-.6 3.4-1 5s-1 3.2-1.7 4.6c-.7 1.5-1.5 2.9-2.5 4.2h-3.1c.9-1.4 1.6-2.8 2.3-4.3s1.2-3.1 1.7-4.7.8-3.3 1-5 .3-3.4.3-5.1c0-3.5-.5-6.9-1.4-10.2-.9-3.3-2.3-6.4-4.1-9.1h3.2c1 1.3 1.8 2.8 2.5 4.3s1.3 3.1 1.7 4.8.8 3.3 1 5.1c.3 1.6.4 3.3.4 5.1z" fill="#404040"/></g><g><path d="M1324 441.5c0 2.5-.9 4.4-2.7 5.9-1.8 1.4-4.3 2.1-7.5 2.1-2.9 0-5.5-.6-7.8-1.7v-5.4c1.9.8 3.4 1.4 4.7 1.8 1.3.3 2.5.5 3.5.5 1.3 0 2.3-.2 3-.7s1-1.2 1-2.2c0-.5-.2-1-.5-1.4-.3-.4-.7-.8-1.3-1.2-.6-.4-1.8-1-3.6-1.9-1.7-.8-2.9-1.6-3.8-2.3-.8-.7-1.5-1.6-2-2.5-.5-1-.8-2.1-.8-3.4 0-2.4.8-4.4 2.5-5.7 1.7-1.4 3.9-2.1 6.9-2.1 1.4 0 2.8.2 4.1.5 1.3.3 2.7.8 4.1 1.4l-1.9 4.5c-1.5-.6-2.7-1-3.6-1.3-1-.2-1.9-.4-2.8-.4-1.1 0-2 .3-2.5.8-.6.5-.9 1.2-.9 2 0 .5.1 1 .4 1.3.2.4.6.8 1.1 1.1.5.4 1.8 1 3.7 1.9 2.6 1.2 4.3 2.5 5.3 3.7s1.4 2.9 1.4 4.7zm18 7.7l-1.1-2.9h-.2c-1 1.2-2 2.1-3 2.5-1 .5-2.4.7-4 .7-2 0-3.6-.6-4.8-1.7s-1.7-2.8-1.7-4.9c0-2.2.8-3.9 2.3-4.9 1.6-1.1 3.9-1.6 7.1-1.8l3.7-.1v-.9c0-2.1-1.1-3.2-3.3-3.2-1.7 0-3.7.5-5.9 1.5l-1.9-3.9c2.4-1.3 5.1-1.9 8.1-1.9 2.8 0 5 .6 6.5 1.8s2.3 3.1 2.3 5.6v14h-4.1zm-1.7-9.8l-2.2.1c-1.7 0-2.9.4-3.7.9-.8.6-1.2 1.4-1.2 2.5 0 1.6.9 2.4 2.8 2.4 1.3 0 2.4-.4 3.2-1.2.8-.8 1.2-1.8 1.2-3.1v-1.6zm16.7 9.8h-5.7v-29.3h5.7v29.3zm11.2 0h-5.7v-29.3h5.7v29.3zm15.2.3c-3.4 0-6-.9-8-2.8-1.9-1.9-2.9-4.5-2.9-8s.9-6.3 2.6-8.2 4.2-2.9 7.3-2.9c3 0 5.3.8 7 2.5 1.7 1.7 2.5 4 2.5 7v2.8h-13.6c.1 1.6.5 2.9 1.5 3.8.9.9 2.2 1.4 3.8 1.4 1.3 0 2.5-.1 3.6-.4s2.3-.7 3.5-1.3v4.4c-1 .5-2.1.9-3.2 1.1s-2.5.6-4.1.6zm-.8-17.7c-1.2 0-2.2.4-2.9 1.2-.7.8-1.1 1.9-1.2 3.3h8.1c0-1.4-.4-2.5-1.1-3.3-.8-.8-1.7-1.2-2.9-1.2zm30.7 17.7c-2.5 0-4.4-1-5.8-2.9s-2.1-4.6-2.1-8c0-3.5.7-6.1 2.2-8.1 1.4-1.9 3.4-2.9 5.9-2.9 2.7 0 4.7 1 6.1 3.1h.2c-.3-1.6-.4-3-.4-4.2v-6.7h5.8v29.3h-4.4l-1.1-2.7h-.2c-1.5 2.1-3.5 3.1-6.2 3.1zm2-4.5c1.5 0 2.5-.4 3.2-1.3.7-.9 1.1-2.3 1.1-4.4v-.6c0-2.3-.3-3.9-1-4.9-.7-1-1.8-1.5-3.4-1.5-1.3 0-2.3.5-3 1.6-.7 1.1-1.1 2.7-1.1 4.7s.4 3.6 1.1 4.7c.8 1.1 1.8 1.7 3.1 1.7zm23-23.6c-.2.7-.4 1.4-.6 2.2-.2.8-.5 1.5-.8 2.3-.3.8-.6 1.6-.9 2.3s-.6 1.5-1 2.2h-4.1c.2-.8.4-1.5.5-2.4.2-.8.4-1.7.5-2.5.2-.8.3-1.6.5-2.4.1-.8.3-1.5.4-2.2h5.3l.2.5zm12.3 28.1c-3.4 0-6-.9-8-2.8-1.9-1.9-2.9-4.5-2.9-8s.9-6.3 2.6-8.2 4.2-2.9 7.3-2.9c3 0 5.3.8 7 2.5 1.7 1.7 2.5 4 2.5 7v2.8h-13.6c.1 1.6.5 2.9 1.5 3.8.9.9 2.2 1.4 3.8 1.4 1.3 0 2.5-.1 3.6-.4s2.3-.7 3.5-1.3v4.4c-1 .5-2.1.9-3.2 1.1-1 .5-2.4.6-4.1.6zm-.8-17.7c-1.2 0-2.2.4-2.9 1.2-.7.8-1.1 1.9-1.2 3.3h8.1c0-1.4-.4-2.5-1.1-3.3-.7-.8-1.7-1.2-2.9-1.2zm18.2 6.6l-6.8-10.3h6.5l4.1 6.7 4.1-6.7h6.5l-6.9 10.3 7.2 10.8h-6.5l-4.4-7.2-4.4 7.2h-6.5l7.1-10.8zm29.3 11.1c-2.5 0-4.4-.9-5.8-2.7h-.3c.2 1.8.3 2.8.3 3.1v8.5h-5.7v-30.3h4.7l.8 2.7h.3c1.3-2.1 3.3-3.1 6-3.1 2.5 0 4.4 1 5.8 2.9 1.4 1.9 2.1 4.6 2.1 8 0 2.2-.3 4.2-1 5.9-.7 1.7-1.6 2.9-2.8 3.8s-2.7 1.2-4.4 1.2zm-1.7-17.2c-1.4 0-2.5.4-3.1 1.3-.7.9-1 2.3-1 4.3v.6c0 2.3.3 3.9 1 4.9.7 1 1.7 1.5 3.2 1.5 2.6 0 3.9-2.1 3.9-6.4 0-2.1-.3-3.6-1-4.7-.6-1-1.6-1.5-3-1.5zm33.6 6.3c0 3.4-.9 6.1-2.7 8-1.8 1.9-4.3 2.9-7.6 2.9-2 0-3.8-.4-5.4-1.3-1.5-.9-2.7-2.2-3.6-3.8-.8-1.7-1.2-3.6-1.2-5.8 0-3.4.9-6.1 2.7-8 1.8-1.9 4.3-2.9 7.6-2.9 2 0 3.8.4 5.4 1.3s2.7 2.1 3.6 3.8 1.2 3.6 1.2 5.8zm-14.6 0c0 2.1.3 3.7 1 4.7.7 1.1 1.8 1.6 3.3 1.6 1.5 0 2.6-.5 3.3-1.6.7-1.1 1-2.6 1-4.7s-.3-3.7-1-4.7-1.8-1.6-3.3-1.6c-1.5 0-2.6.5-3.3 1.6-.7 1-1 2.6-1 4.7zm33.7 4.3c0 2.2-.8 3.8-2.3 4.9s-3.7 1.7-6.7 1.7c-1.5 0-2.8-.1-3.9-.3-1.1-.2-2.1-.5-3-.9v-4.8c1.1.5 2.3.9 3.6 1.3 1.3.3 2.5.5 3.5.5 2.1 0 3.1-.6 3.1-1.8 0-.5-.1-.8-.4-1.1-.3-.3-.8-.6-1.4-1s-1.6-.8-2.7-1.3c-1.6-.7-2.8-1.3-3.6-1.9-.8-.6-1.3-1.2-1.7-2s-.5-1.7-.5-2.8c0-1.9.7-3.3 2.2-4.3s3.5-1.5 6.2-1.5c2.5 0 5 .6 7.4 1.7l-1.7 4.1c-1.1-.5-2-.8-3-1.1-.9-.3-1.9-.4-2.8-.4-1.7 0-2.5.5-2.5 1.4 0 .5.3 1 .8 1.3.5.4 1.7.9 3.6 1.7 1.6.7 2.9 1.3 3.6 1.9.8.6 1.3 1.2 1.7 2 .3.8.5 1.7.5 2.7zm3.9-20.3c0-1.9 1-2.8 3.1-2.8s3.1.9 3.1 2.8c0 .9-.3 1.6-.8 2.1s-1.3.7-2.3.7c-2.1.1-3.1-.9-3.1-2.8zm6 26.6h-5.7v-21.1h5.7v21.1zm14.3-4.2c1 0 2.2-.2 3.6-.7v4.3c-1.4.6-3.2 1-5.3 1-2.3 0-4-.6-5-1.7-1-1.2-1.6-2.9-1.6-5.2v-10.2h-2.8V430l3.2-1.9 1.7-4.4h3.7v4.5h5.9v4.3h-5.9v10.2c0 .8.2 1.4.7 1.8.5.3 1.1.5 1.8.5zm7.1-22.4c0-1.9 1-2.8 3.1-2.8s3.1.9 3.1 2.8c0 .9-.3 1.6-.8 2.1s-1.3.7-2.3.7c-2 .1-3.1-.9-3.1-2.8zm6 26.6h-5.7v-21.1h5.7v21.1zm24.7-10.6c0 3.4-.9 6.1-2.7 8-1.8 1.9-4.3 2.9-7.6 2.9-2 0-3.8-.4-5.4-1.3-1.5-.9-2.7-2.2-3.6-3.8-.8-1.7-1.2-3.6-1.2-5.8 0-3.4.9-6.1 2.7-8 1.8-1.9 4.3-2.9 7.6-2.9 2 0 3.8.4 5.4 1.3s2.7 2.1 3.6 3.8 1.2 3.6 1.2 5.8zm-14.6 0c0 2.1.3 3.7 1 4.7.7 1.1 1.8 1.6 3.3 1.6 1.5 0 2.6-.5 3.3-1.6.7-1.1 1-2.6 1-4.7s-.3-3.7-1-4.7-1.8-1.6-3.3-1.6c-1.5 0-2.6.5-3.3 1.6-.7 1-1 2.6-1 4.7zm38.3 10.6h-5.7v-12.3c0-1.5-.3-2.7-.8-3.4-.5-.8-1.4-1.1-2.6-1.1-1.6 0-2.8.5-3.5 1.6-.7 1.1-1.1 2.9-1.1 5.3v9.9h-5.7v-21.1h4.4l.8 2.7h.3c.6-1 1.5-1.8 2.6-2.3 1.1-.5 2.4-.8 3.8-.8 2.5 0 4.3.7 5.6 2 1.3 1.3 1.9 3.2 1.9 5.7v13.8zm-316.4 46.3h-3.3v-17.2-1.7-1.8c0-.6 0-1.2.1-1.8v-1.5l-.6.6-.5.5-.5.5c-.2.2-.4.4-.7.6l-2.8 2.3-1.8-2.3 7.2-5.6h2.8v27.4zm26.1-6.2h-4v6.2h-3.3v-6.2h-12.7v-3l12.5-18.5h3.5v18.4h4v3.1zm-7.3-3.1v-6.7-2.2c0-.8 0-1.5.1-2.3 0-.7.1-1.4.1-2.1 0-.6.1-1.2.1-1.6h-.2c-.1.3-.2.5-.3.8-.1.3-.3.6-.4.9-.2.3-.3.6-.5.9s-.3.5-.5.7l-7.7 11.5h9.3zm19.4-18.7c1.1 0 2.1.1 3 .4.9.3 1.8.7 2.5 1.2s1.3 1.2 1.7 2.1c.4.8.6 1.8.6 2.9 0 .8-.1 1.6-.4 2.3-.3.7-.6 1.3-1 1.8s-1 1-1.6 1.5c-.6.4-1.3.8-2 1.2.7.4 1.4.8 2.1 1.3s1.3 1 1.9 1.6c.5.6 1 1.3 1.3 2s.5 1.6.5 2.5c0 1.2-.2 2.2-.6 3.1-.4.9-1 1.7-1.8 2.4s-1.7 1.2-2.7 1.5c-1.1.4-2.2.5-3.5.5-1.4 0-2.6-.2-3.7-.5s-2-.8-2.7-1.5-1.3-1.4-1.7-2.3c-.4-.9-.6-2-.6-3.1 0-.9.1-1.8.4-2.5.3-.8.7-1.4 1.1-2s1-1.1 1.7-1.6 1.3-.9 2.1-1.2c-.6-.4-1.2-.8-1.7-1.3s-1-1-1.4-1.5-.7-1.2-.9-1.9c-.2-.7-.3-1.4-.3-2.3 0-1.1.2-2.1.6-2.9s1-1.5 1.7-2.1c.7-.6 1.5-1 2.5-1.2.9-.3 1.8-.4 2.9-.4zm-5.3 21c0 .7.1 1.3.3 1.8s.5 1 .9 1.4c.4.4 1 .7 1.6.9s1.4.3 2.3.3c.9 0 1.7-.1 2.3-.3.7-.2 1.2-.5 1.7-.9s.8-.9 1-1.5c.2-.6.3-1.2.3-1.9s-.1-1.2-.4-1.8c-.2-.5-.6-1-1.1-1.5-.5-.5-1-.9-1.6-1.3-.6-.4-1.4-.8-2.1-1.2l-.6-.3c-1.6.8-2.8 1.6-3.6 2.6-.6 1.1-1 2.3-1 3.7zm5.2-18.1c-1.3 0-2.4.3-3.2 1-.8.7-1.2 1.6-1.2 2.9 0 .7.1 1.3.3 1.8.2.5.5 1 .9 1.4.4.4.9.8 1.4 1.1.5.3 1.1.6 1.8.9.6-.3 1.2-.6 1.7-.9.5-.3 1-.7 1.4-1.1.4-.4.7-.9.9-1.4.2-.5.3-1.1.3-1.8 0-1.3-.4-2.2-1.2-2.9-.6-.7-1.7-1-3.1-1zm13.3 23c0-.5.1-.9.2-1.2.1-.3.3-.6.5-.8.2-.2.5-.4.8-.5.3-.1.6-.1.9-.1.3 0 .6 0 .9.1.3.1.5.2.8.5.2.2.4.5.5.8.1.3.2.7.2 1.2s-.1.9-.2 1.2c-.1.3-.3.6-.5.8-.2.2-.5.4-.8.5-.3.1-.6.2-.9.2-.3 0-.7-.1-.9-.2s-.5-.3-.8-.5c-.2-.2-.4-.5-.5-.8s-.2-.7-.2-1.2zm9-9.7c0-1.3.1-2.6.2-3.9.1-1.3.4-2.6.7-3.8.3-1.2.8-2.3 1.4-3.3.6-1 1.3-1.9 2.2-2.7.9-.8 2-1.4 3.2-1.8s2.7-.7 4.4-.7h.8c.3 0 .6 0 .9.1.3 0 .6.1.8.1s.5.1.7.2v2.9c-.4-.2-.9-.3-1.5-.3-.6-.1-1.1-.1-1.6-.1-1.1 0-2.1.1-3 .4-.9.3-1.6.7-2.2 1.1-.6.5-1.2 1.1-1.6 1.8s-.8 1.4-1 2.3-.5 1.7-.6 2.6c-.1.9-.2 1.9-.2 2.9h.2c.3-.5.6-.9.9-1.3.4-.4.8-.7 1.3-1 .5-.3 1-.5 1.6-.7.6-.2 1.3-.2 2-.2 1.2 0 2.3.2 3.2.6 1 .4 1.8.9 2.5 1.6.7.7 1.2 1.6 1.6 2.6.4 1 .6 2.2.6 3.6s-.2 2.7-.6 3.9-.9 2.1-1.7 2.9c-.7.8-1.6 1.4-2.6 1.8-1 .4-2.2.6-3.5.6-1.3 0-2.4-.2-3.5-.7s-2.1-1.2-2.9-2.2c-.8-1-1.4-2.3-1.9-3.8-.6-1.6-.8-3.4-.8-5.5zm8.9 9.3c.8 0 1.4-.1 2.1-.4.6-.3 1.2-.6 1.6-1.2.5-.5.8-1.2 1-2s.4-1.7.4-2.8c0-.9-.1-1.7-.3-2.4s-.5-1.3-.9-1.8-.9-.9-1.6-1.1-1.3-.4-2.2-.4c-.8 0-1.6.1-2.3.4-.7.3-1.3.7-1.8 1.2s-.9 1-1.1 1.6-.4 1.2-.4 1.8c0 .8.1 1.7.3 2.5s.6 1.6 1 2.3 1 1.2 1.7 1.6 1.6.7 2.5.7zm20-14.4c1.2 0 2.4.2 3.5.5s2 .9 2.8 1.5 1.4 1.5 1.9 2.5.7 2.2.7 3.5c0 1.4-.2 2.7-.6 3.9-.4 1.1-1.1 2.1-1.9 2.9-.8.8-1.9 1.4-3.1 1.8-1.2.4-2.7.6-4.3.6-.6 0-1.3 0-1.9-.1l-1.8-.3c-.6-.1-1.1-.3-1.6-.5s-1-.4-1.4-.7V491c.4.3.9.5 1.5.8.6.2 1.1.4 1.8.6.6.2 1.2.3 1.9.3s1.2.1 1.7.1c1 0 1.9-.1 2.7-.3s1.4-.6 2-1.1 1-1.1 1.2-1.8.4-1.6.4-2.6c0-1.8-.6-3.2-1.7-4.1-1.1-.9-2.7-1.4-4.8-1.4h-1.1c-.4 0-.8.1-1.2.1-.4.1-.8.1-1.1.2s-.7.1-.9.2l-1.7-1.1 1-13h13v3.1h-10l-.7 7.9c.4-.1.9-.2 1.6-.2.5-.1 1.2-.1 2.1-.1zm37.8 11.2c0 1.9-.7 3.4-2.2 4.5-1.4 1.1-3.5 1.6-6.1 1.6-2.7 0-4.9-.4-6.5-1.3v-3.1c2.3 1.1 4.5 1.7 6.6 1.7 1.7 0 3-.3 3.7-.8s1.2-1.3 1.2-2.2c0-.8-.4-1.5-1.1-2.1-.7-.6-2.1-1.2-4-1.9-1.9-.8-3.3-1.4-4.1-1.9-.8-.5-1.4-1.1-1.7-1.8-.4-.7-.6-1.5-.6-2.4 0-1.7.7-3 2.1-4 1.4-1 3.3-1.5 5.7-1.5 2.3 0 4.5.5 6.6 1.4l-1.1 2.7c-2.1-.9-4-1.3-5.7-1.3-1.4 0-2.5.2-3.2.7-.7.4-1.1 1.1-1.1 1.8 0 .8.3 1.4.9 1.9.6.5 2.1 1.2 4.4 2.1 1.7.6 3 1.2 3.8 1.8s1.4 1.2 1.8 1.9c.4.4.6 1.2.6 2.2zm12 6.1c-2.7 0-4.7-.9-6.2-2.8s-2.2-4.5-2.2-7.9c0-3.4.8-6 2.3-7.9 1.5-1.9 3.6-2.9 6.3-2.9 2.8 0 5 1.1 6.4 3.2h.2l.5-2.8h2.7v30h-3.4V496c0-1.4.1-2.5.2-3.2h-.2c-1.6 2-3.7 3.1-6.6 3.1zm.6-2.8c2 0 3.5-.6 4.4-1.7.9-1.1 1.4-2.9 1.5-5.5v-.7c0-2.9-.5-4.9-1.4-6.1-1-1.2-2.5-1.9-4.5-1.9-1.8 0-3.1.7-4.1 2.1-.9 1.4-1.4 3.4-1.4 5.9 0 2.5.5 4.5 1.4 5.8.9 1.4 2.3 2.1 4.1 2.1zm35.4-15.7h-5.2v18.1h-3.4v-18.1h-3.6v-1.6l3.6-1.2v-1.2c0-2.5.5-4.4 1.6-5.7 1.1-1.3 2.8-1.9 5.1-1.9 1.3 0 2.7.2 4 .7l-.9 2.7c-1.2-.4-2.2-.6-3.1-.6-1.1 0-2 .4-2.5 1.1-.6.8-.8 1.9-.8 3.6v1.3h5.2v2.8zm12 15.7c.4 0 1 0 1.5-.1s1-.2 1.3-.3v2.6c-.3.1-.8.3-1.5.4-.7.1-1.3.2-2 .2-4 0-6.1-2.1-6.1-6.4v-12h-2.9v-1.6l3-1.4 1.4-4.4h2v4.8h6v2.6h-6v12c0 1.2.3 2.1.9 2.8.6.5 1.4.8 2.4.8zm-197.8 35.7c0-1.8.1-3.6.3-5.3s.6-3.4 1-5 1-3.2 1.7-4.6 1.5-2.9 2.5-4.2h3.1c-.9 1.4-1.6 2.8-2.3 4.3-.7 1.5-1.2 3.1-1.7 4.7s-.8 3.3-1 5c-.2 1.7-.3 3.4-.3 5.1 0 3.5.5 6.9 1.4 10.2.9 3.3 2.3 6.4 4.1 9.1h-3.2c-1-1.3-1.8-2.8-2.5-4.3s-1.3-3.1-1.7-4.8-.8-3.3-1-5.1c-.3-1.6-.4-3.3-.4-5.1zm21.3 13h-3.3v-17.2-1.7-1.8c0-.6 0-1.2.1-1.8v-1.5l-.6.6-.5.5-.5.5c-.2.2-.4.4-.7.6l-2.8 2.3-1.8-2.3 7.2-5.6h2.8v27.4zm17.5 0h-3.3v-17.2-1.7-1.8c0-.6 0-1.2.1-1.8v-1.5l-.6.6-.5.5-.5.5c-.2.2-.4.4-.7.6l-2.8 2.3-1.8-2.3 7.2-5.6h2.8v27.4zm13.2-28.1l-1 10h-2.4l-1-10h4.4zm19.2 28.1l10.6-24.4h-14.2v-3.1h17.7v2.7l-10.5 24.8h-3.6zm24.1-28.1l-1 10h-2.4l-1-10h4.4zm6.8 0l-1 10h-2.3l-1-10h4.3zm22.5 15.7l-6-6 2-2 6 6 6.1-6 2 1.9-6.1 6.1 6 6-1.9 1.9-6.1-6-6 5.9-1.9-1.9 5.9-5.9zm36.1 12.4h-3.3v-17.2-1.7-1.8c0-.6 0-1.2.1-1.8v-1.5l-.6.6-.5.5-.5.5c-.2.2-.4.4-.7.6l-2.8 2.3-1.8-2.3 7.2-5.6h2.8v27.4zm23.9 0h-17.2v-2.9l6.6-7.2c.9-1 1.8-1.9 2.5-2.8s1.4-1.7 1.9-2.5.9-1.6 1.2-2.4c.3-.8.4-1.7.4-2.6 0-.7-.1-1.4-.3-2s-.5-1-.9-1.4c-.4-.4-.9-.7-1.4-.9-.5-.2-1.1-.3-1.8-.3-1.2 0-2.3.2-3.2.7-1 .5-1.9 1.1-2.7 1.9l-1.9-2.2c.5-.5 1-.9 1.6-1.3s1.2-.7 1.9-1 1.4-.5 2.1-.7c.7-.2 1.5-.3 2.3-.3 1.2 0 2.3.2 3.3.5s1.8.8 2.5 1.5c.7.6 1.2 1.4 1.6 2.3.4.9.6 1.9.6 3.1 0 1.1-.2 2.1-.5 3.1s-.8 1.9-1.4 2.9c-.6.9-1.3 1.9-2.1 2.8s-1.7 1.9-2.6 2.9l-5.3 5.6v.2h13v3zm9.6-28.1l-1 10h-2.4l-1-10h4.4zm27.3 28.1h-3.3v-17.2-1.7-1.8c0-.6 0-1.2.1-1.8v-1.5l-.6.6-.5.5-.5.5c-.2.2-.4.4-.7.6l-2.8 2.3-1.8-2.3 7.2-5.6h2.8v27.4zm25.2-13.8c0 2.2-.2 4.2-.5 6-.3 1.8-.8 3.2-1.5 4.5-.7 1.2-1.6 2.1-2.7 2.8-1.1.6-2.5 1-4.1 1-1.5 0-2.8-.3-3.9-1-1.1-.6-2-1.6-2.7-2.8s-1.3-2.7-1.6-4.5c-.4-1.8-.5-3.8-.5-6s.2-4.2.5-6c.3-1.8.8-3.2 1.5-4.5s1.6-2.1 2.7-2.8c1.1-.6 2.5-1 4-1s2.8.3 3.9 1c1.1.6 2 1.6 2.8 2.8.7 1.2 1.3 2.7 1.6 4.5.3 1.8.5 3.8.5 6zm-14.1 0c0 1.9.1 3.5.3 4.9s.5 2.6.9 3.5c.4.9 1 1.6 1.6 2.1.7.5 1.5.7 2.5.7s1.8-.2 2.5-.7c.7-.5 1.2-1.2 1.7-2.1.4-.9.7-2.1.9-3.5.2-1.4.3-3.1.3-5s-.1-3.5-.3-4.9c-.2-1.4-.5-2.6-.9-3.5-.4-.9-1-1.6-1.7-2.1s-1.5-.7-2.5-.7-1.8.2-2.5.7c-.7.5-1.2 1.2-1.6 2.1-.4.9-.7 2.1-.9 3.5-.2 1.5-.3 3.1-.3 5zm23.7-14.3l-1 10h-2.4l-1-10h4.4zm6.8 0l-1 10h-2.3l-1-10h4.3zm12.6 15.4c0 1.8-.1 3.6-.3 5.3s-.6 3.4-1 5-1 3.2-1.7 4.6-1.5 2.9-2.5 4.2h-3.1c.9-1.4 1.6-2.8 2.3-4.3s1.2-3.1 1.7-4.7.8-3.3 1-5c.2-1.7.3-3.4.3-5.1 0-3.5-.5-6.9-1.4-10.2-.9-3.3-2.3-6.4-4.1-9.1h3.2c1 1.3 1.8 2.8 2.5 4.3s1.3 3.1 1.7 4.8.8 3.3 1 5.1c.3 1.6.4 3.3.4 5.1z" fill="#404040"/></g><path fill="none" stroke="#808080" stroke-miterlimit="10" stroke-dasharray="0.6924,0.6924" d="M1258.7 247.4L1258.7 186.6"/><path fill="none" stroke="#808080" stroke-miterlimit="10" d="M1258.7 198.8L1258.7 183.6"/><path fill="none" stroke="#808080" stroke-miterlimit="10" stroke-dasharray="0.6924,0.6924" d="M1687.6 247.3L1687.6 186.6"/><path fill="none" stroke="#808080" stroke-miterlimit="10" d="M1687.6 198.7L1687.6 183.6"/><path fill="#808080" d="M1258.7 186.6L1264.8 183.6 1264.8 189.6 1258.7 186.6"/><path fill="none" stroke="#808080" stroke-miterlimit="10" d="M1258.7 186.6L1264.8 183.6 1264.8 189.6 1258.7 186.6"/><path fill="#808080" d="M1687.6 186.6L1681.5 189.6 1681.5 183.6 1687.6 186.6"/><path fill="none" stroke="#808080" stroke-miterlimit="10" d="M1687.6 186.6L1681.5 189.6 1681.5 183.6 1687.6 186.6"/><g><path d="M1449.6 194.3h-2.1v-10.8-1.1-1.2-1.1-.9l-.4.4-.3.3-.3.3c-.1.1-.3.2-.4.4l-1.8 1.4-1.1-1.5 4.5-3.5h1.8v17.3zm13.4 0h-2.1v-10.8-1.1-1.2-1.1-.9l-.4.4-.3.3-.3.3c-.1.1-.3.2-.4.4l-1.8 1.4-1.1-1.5 4.5-3.5h1.8v17.3zm10.5-17.7l-.6 6.3h-1.5l-.6-6.3h2.7zm12 17.7l6.7-15.4h-8.9v-2h11.2v1.7l-6.6 15.6-2.4.1zm15.6-17.7l-.6 6.3h-1.5l-.6-6.3h2.7zm4.2 0l-.6 6.3h-1.5l-.6-6.3h2.7z" fill="#808080"/></g><path d="M1523.6 186.6h161.9m-425.8 0h161.9" fill="none" stroke="#808080" stroke-miterlimit="10"/><path d="M1588.6 818.4h106.2V829h-106.2v-10.6z" fill="#636363"/></svg>