<svg enable-background="new 0 0 3283.68 1104.17" viewBox="0 0 3283.68 1104.17" xmlns="http://www.w3.org/2000/svg"><g fill="#141516"><path d="m177.41 260.11v52.99h397.72v396.92h-397.72v111.99h561.89v-561.9z"/><path d="m851.3 196v690.78l164.37 95.06v-95.06-690.78-95.06z"/><path d="m1193.04 732.34v-382.79h153.29v73.97h-75.31v74.42h72.19v72.19h-72.19v87.79h80.21v74.42z"/><path d="m1389.78 710.06c-15.45-17.23-23.17-45.01-23.17-83.33v-37.43h75.31v47.68c0 19.02 6.09 28.52 18.27 28.52 6.83 0 11.59-2.01 14.26-6.02s4.01-10.76 4.01-20.28c0-12.48-1.49-22.8-4.46-30.97s-6.76-15-11.36-20.5c-4.61-5.49-12.85-14.04-24.73-25.62l-32.98-32.98c-25.55-24.95-38.32-52.58-38.32-82.89 0-32.68 7.5-57.55 22.5-74.64 15-17.08 36.91-25.62 65.73-25.62 34.46 0 59.27 9.14 74.42 27.41s22.73 46.87 22.73 85.78h-77.99l-.45-26.29c0-5.05-1.41-9.06-4.23-12.03-2.83-2.97-6.76-4.46-11.81-4.46-5.95 0-10.4 1.64-13.37 4.9-2.97 3.27-4.46 7.73-4.46 13.37 0 12.48 7.13 25.4 21.39 38.77l44.56 42.78c10.4 10.1 19.01 19.68 25.85 28.74 6.83 9.07 12.32 19.76 16.49 32.08 4.16 12.33 6.24 26.96 6.24 43.89 0 37.73-6.91 66.33-20.72 85.78-13.81 19.46-36.62 29.19-68.4 29.19-34.76.01-59.87-8.6-75.31-25.83z"/><path d="m1573.73 349.55h101.16c30.59 0 52.43 9.88 65.51 29.63 13.07 19.76 19.61 48.65 19.61 86.67 0 38.03-5.79 66.7-17.38 86-11.59 19.31-32.38 28.97-62.39 28.97h-31.19v151.51h-75.31v-382.78zm79.76 162.21c9.2 0 15.97-1.71 20.28-5.12 4.3-3.41 7.13-8.31 8.47-14.71 1.34-6.38 2.01-15.52 2.01-27.41 0-16.04-1.78-27.63-5.35-34.76-3.56-7.13-10.69-10.69-21.39-10.69h-8.47v92.69z"/><path d="m1761.33 732.34 36.99-382.79h129.68l36.54 382.79h-72.64l-5.35-61.94h-46.34l-4.46 61.94zm84.67-122.99h34.76l-16.93-194.74h-3.56z"/><path d="m2002.67 709.61c-16.79-17.53-25.18-41.59-25.18-72.19v-176.46c0-38.02 7.58-66.69 22.73-86s38.92-28.97 71.3-28.97c28.22 0 50.95 7.73 68.18 23.17 17.23 15.45 25.85 37.73 25.85 66.84v65.95h-76.2v-56.59c0-10.99-1.34-18.56-4.01-22.73-2.67-4.16-7.28-6.24-13.81-6.24-6.84 0-11.52 2.38-14.04 7.13-2.53 4.76-3.79 11.74-3.79 20.94v192.06c0 10.1 1.48 17.46 4.46 22.06 2.97 4.61 7.42 6.91 13.37 6.91 11.88 0 17.82-9.65 17.82-28.97v-69.07h77.09v72.19c0 64.17-32.24 96.25-96.7 96.25-27.93.01-50.29-8.75-67.07-26.28z"/><path d="m2185.73 732.34v-382.79h153.29v73.97h-75.31v74.42h72.19v72.19h-72.19v87.79h80.21v74.42z"/><path d="m2471.36 714.07c0-17.53 2.74-33.71 8.24-48.57 5.5-14.85 12.26-28.22 20.28-40.11 8.02-11.88 18.56-25.85 31.64-41.89 13.37-16.63 23.99-30.75 31.86-42.33 7.87-11.59 14.55-24.88 20.05-39.88s8.24-31.26 8.24-48.8c0-10.4-1.49-18.49-4.46-24.29-2.97-5.79-8.32-8.69-16.04-8.69-12.78 0-19.16 11.44-19.16 34.31v46.79h-80.66l-.89-23.62c0-29.11 2.97-53.03 8.91-71.74 5.94-18.72 16.33-32.98 31.19-42.78 14.85-9.8 35.35-14.71 61.5-14.71 32.08 0 56.89 8.99 74.42 26.96 17.52 17.98 26.29 43.45 26.29 76.42 0 21.1-2.9 40.18-8.69 57.26-5.79 17.09-12.92 32.01-21.39 44.78-8.47 12.78-19.68 27.78-33.64 45.01-10.1 12.18-18.49 23.03-25.18 32.53-6.68 9.51-12.7 19.31-18.05 29.41h104.27v72.19h-198.75z"/><path d="m2709.27 710.28c-15.45-17.67-23.17-44.63-23.17-80.88v-40.11h78.43v40.11c0 11.59 1.48 20.58 4.46 26.96 2.97 6.39 8.91 9.58 17.82 9.58 6.24 0 10.76-2.23 13.59-6.68 2.82-4.46 4.53-9.73 5.12-15.82s.89-14.93.89-26.51v-9.36c0-32.98-10.85-49.46-32.53-49.46-3.86 0-6.39.15-7.58.45v-68.63c13.66 0 23.91-3.04 30.75-9.14 6.83-6.09 10.25-15.82 10.25-29.19 0-21.68-6.24-32.53-18.72-32.53-7.73 0-12.7 1.94-14.93 5.79-2.23 3.86-3.72 8.77-4.46 14.71-.75 5.95-1.27 10.25-1.56 12.92v11.59h-79.32l-.45-13.37c.29-35.05 8.61-60.83 24.95-77.32 16.33-16.49 41.44-24.73 75.31-24.73 65.06 0 97.59 34.02 97.59 102.05 0 19.91-2.67 35.73-8.02 47.46-5.35 11.74-14.56 19.98-27.63 24.73 10.69 5.35 18.64 11.96 23.84 19.83s8.61 17.46 10.25 28.74c1.63 11.29 2.45 26.44 2.45 45.45 0 39.51-8.24 69.37-24.73 89.57-16.49 20.21-42.86 30.3-79.1 30.3-33.54 0-58.05-8.83-73.5-26.51z"/><path d="m2929.8 708.5c-17.53-18.27-26.29-44.34-26.29-78.21v-172.9c0-36.24 8.47-63.87 25.4-82.89 16.94-19.01 42.18-28.52 75.76-28.52 33.87 0 59.27 9.51 76.2 28.52 16.94 19.02 25.4 46.64 25.4 82.89v172.9c0 34.17-8.77 60.31-26.29 78.43-17.53 18.12-42.63 27.18-75.31 27.18-32.39 0-57.34-9.13-74.87-27.4zm88.68-50.8c3.56-5.19 5.35-11.36 5.35-18.49v-188.95c0-10.99-1.27-19.38-3.79-25.18-2.53-5.79-7.65-8.69-15.37-8.69-7.73 0-12.78 2.9-15.15 8.69-2.38 5.79-3.56 14.19-3.56 25.18v188.94c0 7.13 1.71 13.3 5.12 18.49 3.41 5.2 7.94 7.8 13.59 7.8 5.64.01 10.25-2.59 13.81-7.79z"/><path d="m1191.18 926.76 20.18-57.33h12.82l20.21 57.33h-11.08l-4.76-14.14h-21.55l-4.73 14.14zm34.57-22.47-7.75-23.09h-.45l-7.75 23.09z"/><path d="m1251.89 869.44h45.74v8.71h-17.72v48.62h-10.3v-48.62h-17.72z"/><path d="m1315.75 869.44h37.28v8.71h-26.9v15.56h24.97v8.7h-24.97v15.65h27.12v8.71h-37.51v-57.33z"/><path d="m1373.9 869.44h10.38v48.62h25.25v8.71h-35.63z"/><path d="m1438.17 926.76h-10.38v-57.33h10.38z"/><path d="m1460.77 869.44h37.28v8.71h-26.9v15.56h24.97v8.7h-24.97v15.65h27.12v8.71h-37.51v-57.33z"/><path d="m1518.91 869.44h21.5c13.16 0 20.21 7.39 20.21 18.33 0 7.78-3.56 13.55-10.3 16.26l12.4 22.73h-11.59l-11.25-20.99h-10.58v20.99h-10.39zm19.96 27.71c7.7 0 11.17-3.28 11.17-9.38s-3.47-9.66-11.22-9.66h-9.52v19.03h9.57z"/><path d="m1600.46 877.44c-6.49 0-10.36 3.16-10.38 7.47-.06 4.79 5.04 6.77 9.74 7.89l5.37 1.34c8.62 2.04 16.82 6.58 16.85 16.52-.03 10.1-8 16.96-21.75 16.96-13.35 0-21.83-6.41-22.25-17.8h10.22c.42 6.02 5.46 8.93 11.95 8.93 6.77 0 11.42-3.28 11.45-8.17-.03-4.45-4.11-6.38-10.3-7.95l-6.52-1.68c-9.43-2.44-15.28-7.17-15.28-15.4-.03-10.13 9.01-16.91 21.05-16.91 12.2 0 20.46 6.86 20.66 16.54h-9.99c-.55-4.85-4.63-7.74-10.82-7.74z"/><path d="m1672.45 926.76v-57.33h19.82c17.07 0 27.43 10.75 27.43 28.61 0 17.91-10.36 28.72-27.82 28.72zm18.92-8.98c11.95 0 18.03-6.55 18.03-19.73 0-13.13-6.07-19.62-17.72-19.62h-8.85v39.36h8.54z"/><path d="m1747.73 875.15c0 4.96-3.08 10.83-7.19 14.25l-4.7-3.05c2.04-3.08 3.83-6.58 3.83-11.14v-5.77h8.06z"/><path d="m1758.01 926.76 20.18-57.33h12.82l20.21 57.33h-11.08l-4.76-14.14h-21.55l-4.73 14.14zm34.57-22.47-7.75-23.09h-.45l-7.75 23.09z"/><path d="m1828.75 869.44h21.5c13.16 0 20.21 7.39 20.21 18.33 0 7.78-3.56 13.55-10.3 16.26l12.4 22.73h-11.59l-11.25-20.99h-10.58v20.99h-10.38zm19.96 27.71c7.7 0 11.17-3.28 11.17-9.38s-3.47-9.66-11.22-9.66h-9.52v19.03h9.57z"/><path d="m1886.94 869.44h45.74v8.71h-17.72v48.62h-10.3v-48.62h-17.72z"/><path d="m1961.18 926.76h-10.38v-57.33h10.38z"/><path d="m2003.66 877.44c-6.49 0-10.36 3.16-10.38 7.47-.06 4.79 5.04 6.77 9.74 7.89l5.37 1.34c8.62 2.04 16.82 6.58 16.85 16.52-.03 10.1-8 16.96-21.75 16.96-13.35 0-21.83-6.41-22.25-17.8h10.22c.42 6.02 5.46 8.93 11.95 8.93 6.77 0 11.42-3.28 11.45-8.17-.03-4.45-4.11-6.38-10.3-7.95l-6.52-1.68c-9.43-2.44-15.28-7.17-15.28-15.4-.03-10.13 9.01-16.91 21.05-16.91 12.2 0 20.46 6.86 20.66 16.54h-9.99c-.55-4.85-4.64-7.74-10.82-7.74z"/><path d="m2041.4 869.44h45.74v8.71h-17.72v48.62h-10.3v-48.62h-17.72z"/><path d="m2105.26 869.44h37.28v8.71h-26.9v15.56h24.97v8.7h-24.97v15.65h27.12v8.71h-37.51v-57.33z"/><path d="m2182.41 877.44c-6.49 0-10.36 3.16-10.38 7.47-.06 4.79 5.04 6.77 9.74 7.89l5.37 1.34c8.62 2.04 16.82 6.58 16.85 16.52-.03 10.1-8 16.96-21.75 16.96-13.35 0-21.83-6.41-22.25-17.8h10.22c.42 6.02 5.46 8.93 11.95 8.93 6.77 0 11.42-3.28 11.45-8.17-.03-4.45-4.11-6.38-10.3-7.95l-6.52-1.68c-9.43-2.44-15.28-7.17-15.28-15.4-.03-10.13 9.01-16.91 21.05-16.91 12.2 0 20.46 6.86 20.66 16.54h-9.99c-.55-4.85-4.64-7.74-10.82-7.74z"/><path d="m2304.01 935.39h-8.87l18.47-68.63h8.87z"/><path d="m2441.24 877.98c-9.26 0-15.95 7.17-15.95 20.07 0 12.99 6.58 20.18 16.18 20.18 8.62 0 14.08-5.18 14.25-13.35h-13.21v-8.12h23.26v6.89c0 14.78-10.16 23.9-24.35 23.9-15.82 0-26.56-11.25-26.56-29.39 0-18.47 11.25-29.5 26.26-29.5 12.68 0 22.42 7.84 24.18 19.09h-10.58c-1.87-6.08-6.57-9.77-13.48-9.77z"/><path d="m2479.54 926.76 20.18-57.33h12.82l20.21 57.33h-11.08l-4.76-14.14h-21.55l-4.73 14.14zm34.57-22.47-7.75-23.09h-.45l-7.75 23.09z"/><path d="m2550.29 869.44h10.38v48.62h25.25v8.71h-35.63z"/><path d="m2604.18 869.44h37.28v8.71h-26.9v15.56h24.97v8.7h-24.97v15.65h27.12v8.71h-37.51v-57.33z"/><path d="m2662.32 869.44h21.5c13.16 0 20.21 7.39 20.21 18.33 0 7.78-3.56 13.55-10.3 16.26l12.4 22.73h-11.59l-11.25-20.99h-10.58v20.99h-10.38v-57.32zm19.96 27.71c7.7 0 11.17-3.28 11.17-9.38s-3.47-9.66-11.23-9.66h-9.52v19.03h9.58z"/><path d="m2734.86 926.76h-10.38v-57.33h10.38z"/><path d="m2757.46 869.44h37.28v8.71h-26.9v15.56h24.97v8.7h-24.97v15.65h27.12v8.71h-37.51z"/><path d="m2846.53 926.76v-57.33h19.82c17.07 0 27.43 10.75 27.43 28.61 0 17.91-10.36 28.72-27.82 28.72zm18.92-8.98c11.95 0 18.03-6.55 18.03-19.73 0-13.13-6.07-19.62-17.72-19.62h-8.85v39.36h8.54z"/><path d="m2921.8 875.15c0 4.96-3.08 10.83-7.19 14.25l-4.7-3.05c2.04-3.08 3.84-6.58 3.84-11.14v-5.77h8.06v5.71z"/><path d="m2932.09 926.76 20.18-57.33h12.82l20.21 57.33h-11.08l-4.76-14.14h-21.55l-4.73 14.14zm34.56-22.47-7.75-23.09h-.45l-7.75 23.09z"/><path d="m3002.83 869.44h21.5c13.16 0 20.21 7.39 20.21 18.33 0 7.78-3.56 13.55-10.3 16.26l12.4 22.73h-11.59l-11.25-20.99h-10.58v20.99h-10.38v-57.32zm19.95 27.71c7.7 0 11.17-3.28 11.17-9.38s-3.47-9.66-11.23-9.66h-9.52v19.03h9.58z"/><path d="m3061.01 869.44h45.74v8.71h-17.72v48.62h-10.3v-48.62h-17.72z"/><path d="m1192.85 807.87h1913.7v13.67h-1913.7z"/></g><path d="m1207.21 253.63c4.76 0 9.15-.19 13.16-.58 4.02-.38 7.53-.81 10.55-1.27 3.53-.56 6.73-1.2 9.59-1.92l-1.77 10.21c-.72-.05-1.93-.11-3.65-.19-1.71-.08-3.52-.13-5.41-.15-1.89-.03-3.66-.05-5.3-.08s-2.76-.04-3.38-.04h-29.4v-.31c.36-1.07.68-2.46.96-4.14s.51-3.77.69-6.26c.18-2.48.32-5.44.42-8.87s.15-7.45.15-12.05v-19.34c0-4.61-.05-8.61-.15-12.01s-.24-6.34-.42-8.83c-.18-2.48-.41-4.57-.69-6.26s-.6-3.07-.96-4.14v-.31h17.73v.31c-.36 1.07-.67 2.46-.92 4.14-.26 1.69-.47 3.77-.65 6.26-.18 2.48-.32 5.42-.42 8.83-.1 3.4-.15 7.41-.15 12.01z" fill="#711" stroke="#711" stroke-miterlimit="10"/><path d="m1265.89 218.09c0-6.04 1.14-11.64 3.42-16.81s5.38-9.66 9.33-13.47c3.94-3.81 8.6-6.79 13.97-8.94s11.13-3.22 17.27-3.22c6.04 0 11.73 1.01 17.08 3.03s10 4.9 13.97 8.63c3.97 3.74 7.1 8.26 9.4 13.59 2.3 5.32 3.45 11.28 3.45 17.88 0 5.48-.97 10.76-2.92 15.85s-4.79 9.59-8.52 13.51c-3.74 3.91-8.34 7.04-13.82 9.36-5.48 2.33-11.74 3.49-18.8 3.49-5.99 0-11.64-1-16.96-2.99-5.32-2-9.98-4.85-13.97-8.56s-7.14-8.21-9.44-13.51c-2.31-5.29-3.46-11.24-3.46-17.84zm45.75 37.46c3.89 0 7.47-.77 10.75-2.3 3.27-1.54 6.1-3.73 8.48-6.6s4.22-6.36 5.53-10.48c1.3-4.12 1.96-8.76 1.96-13.93 0-5.88-.63-11.33-1.88-16.35-1.25-5.01-3.15-9.35-5.68-13.01s-5.69-6.52-9.48-8.6c-3.79-2.07-8.21-3.11-13.28-3.11-3.89 0-7.47.74-10.75 2.23-3.28 1.48-6.1 3.63-8.48 6.45-2.38 2.81-4.23 6.27-5.56 10.36-1.33 4.1-2 8.75-2 13.97 0 5.83.65 11.27 1.96 16.31s3.22 9.42 5.76 13.13c2.53 3.71 5.69 6.63 9.48 8.75 3.77 2.12 8.17 3.18 13.19 3.18z" fill="#711" stroke="#711" stroke-miterlimit="10"/><path d="m1452.39 208.34c0-4.55-.03-8.52-.08-11.9s-.15-6.29-.31-8.75c-.15-2.46-.33-4.51-.54-6.18-.21-1.66-.46-3.03-.77-4.11v-.31h11.28v.31c-.31 1.07-.56 2.46-.77 4.14-.21 1.69-.38 3.77-.54 6.26-.15 2.48-.26 5.42-.31 8.83-.05 3.4-.08 7.41-.08 12.01v22.03c0 5.53-.86 10.24-2.57 14.12-1.71 3.89-4.08 7.08-7.1 9.56s-6.61 4.3-10.78 5.45-8.74 1.73-13.7 1.73c-5.02 0-9.67-.55-13.97-1.65s-8.02-2.85-11.17-5.26c-3.15-2.4-5.63-5.53-7.45-9.36-1.82-3.84-2.72-8.49-2.72-13.97v-22.64c0-4.61-.05-8.61-.15-12.01s-.26-6.34-.46-8.83c-.21-2.48-.43-4.57-.69-6.26s-.56-3.07-.92-4.14v-.31h17.73v.31c-.36 1.07-.67 2.44-.92 4.11-.26 1.66-.47 3.72-.65 6.18s-.32 5.37-.42 8.75-.15 7.34-.15 11.9v22.95c0 4.56.69 8.3 2.07 11.24s3.2 5.28 5.45 7.02 4.81 2.96 7.68 3.65 5.81 1.04 8.83 1.04c3.07 0 6.05-.35 8.94-1.04s5.47-1.91 7.75-3.65 4.09-4.08 5.45-7.02 2.03-6.69 2.03-11.24z" fill="#711" stroke="#711" stroke-miterlimit="10"/><path d="m1503.92 208.65c0-4.61-.05-8.61-.15-12.01s-.24-6.34-.42-8.83c-.18-2.48-.41-4.57-.69-6.26s-.6-3.07-.96-4.14v-.31h17.81v.31c-.36 1.07-.68 2.46-.96 4.14-.28 1.69-.51 3.77-.69 6.26-.18 2.48-.32 5.42-.42 8.83-.1 3.4-.15 7.41-.15 12.01v19.34c0 4.61.05 8.62.15 12.05s.24 6.38.42 8.87c.18 2.48.41 4.57.69 6.26s.6 3.07.96 4.14v.31h-17.81v-.31c.36-1.07.68-2.46.96-4.14.28-1.69.51-3.77.69-6.26.18-2.48.32-5.44.42-8.87s.15-7.45.15-12.05z" fill="#711" stroke="#711" stroke-miterlimit="10"/><path d="m1597.91 193.14h-1.54c-.31-.87-.81-1.97-1.5-3.3s-1.61-2.64-2.76-3.91c-1.15-1.28-2.57-2.37-4.26-3.26s-3.71-1.34-6.06-1.34c-1.79 0-3.39.3-4.8.88-1.41.59-2.6 1.4-3.57 2.42-.97 1.03-1.72 2.24-2.23 3.65s-.77 2.93-.77 4.57c0 2.66.81 5.19 2.42 7.6s3.62 4.8 6.03 7.18c2.4 2.38 5.01 4.77 7.83 7.18 2.81 2.41 5.42 4.91 7.83 7.52 2.4 2.61 4.41 5.37 6.03 8.29 1.61 2.92 2.42 6.04 2.42 9.36 0 2.46-.45 4.99-1.34 7.6-.9 2.61-2.34 4.96-4.34 7.06s-4.56 3.83-7.68 5.18-6.91 2.03-11.36 2.03c-2.46 0-4.8-.21-7.02-.61-2.23-.41-4.27-.91-6.14-1.5s-3.53-1.23-4.99-1.92-2.68-1.34-3.65-1.96l1.38-14.51h1.61c.51 1.79 1.27 3.58 2.27 5.37s2.23 3.42 3.68 4.87c1.46 1.46 3.17 2.64 5.14 3.53 1.97.9 4.23 1.34 6.79 1.34 1.79 0 3.48-.29 5.07-.88s2.96-1.42 4.11-2.49 2.06-2.39 2.73-3.95c.66-1.56 1-3.31 1-5.26 0-2.3-.46-4.44-1.38-6.41s-2.15-3.86-3.68-5.68c-1.54-1.82-3.26-3.57-5.18-5.26s-3.9-3.4-5.95-5.14-4.03-3.52-5.95-5.33c-1.92-1.82-3.65-3.77-5.18-5.87-1.54-2.1-2.76-4.34-3.68-6.72s-1.38-5-1.38-7.87c0-3.02.64-5.73 1.92-8.14 1.28-2.4 2.97-4.44 5.07-6.1s4.5-2.94 7.21-3.84 5.53-1.34 8.44-1.34c2.15 0 4.16.15 6.03.46s3.56.68 5.07 1.11c1.51.44 2.83.87 3.95 1.31 1.12.43 2.05.78 2.76 1.04z" fill="#711" stroke="#711" stroke-miterlimit="10"/><path d="m1634.5 224.54v-10.98h51.89v10.98z" fill="#711" stroke="#711" stroke-miterlimit="10"/><path d="m1724.46 176.95c.97.05 1.97.08 2.99.08.87.05 1.82.08 2.84.08h2.99c1.59 0 3.79-.1 6.6-.31 2.81-.2 6.32-.31 10.52-.31 3.73 0 7.2.45 10.4 1.34 3.2.9 5.96 2.19 8.29 3.88s4.14 3.76 5.45 6.22 1.96 5.25 1.96 8.37c0 2.66-.37 5.03-1.11 7.1s-1.8 3.89-3.19 5.45c-1.38 1.56-3.05 2.87-4.99 3.91-1.95 1.05-4.1 1.88-6.45 2.49 3.43.51 6.55 1.36 9.36 2.53 2.81 1.18 5.22 2.65 7.21 4.41 2 1.76 3.53 3.84 4.61 6.22 1.07 2.38 1.61 5.03 1.61 7.94 0 8.09-2.89 14.14-8.67 18.15-5.78 4.02-14.4 6.03-25.87 6.03-1.23 0-2.75-.05-4.57-.15s-3.71-.21-5.68-.31-3.86-.21-5.68-.31-3.34-.15-4.57-.15h-4.07v-.31c.36-1.07.68-2.46.96-4.14.28-1.69.51-3.77.69-6.26.18-2.48.32-5.44.42-8.87s.15-7.45.15-12.05v-19.34c0-4.61-.05-8.62-.15-12.05s-.24-6.4-.42-8.9c-.18-2.51-.41-4.61-.69-6.29-.28-1.69-.6-3.07-.96-4.14v-.31zm15.58 37.07c1.02.15 1.94.24 2.76.27s1.66.04 2.53.04c5.17 0 9.27-1.43 12.32-4.3 3.04-2.87 4.57-7.14 4.57-12.82 0-2.3-.31-4.42-.92-6.37-.61-1.94-1.5-3.61-2.65-4.99s-2.58-2.46-4.3-3.22c-1.72-.77-3.67-1.15-5.87-1.15-1.48 0-2.74.06-3.76.19-1.03.13-1.89.24-2.61.34-.82.21-1.51.38-2.07.54zm10.21 5.22c-2.46 0-4.54.09-6.26.27-1.71.18-3.03.35-3.95.5v7.98c0 4.4.01 8.09.04 11.05.02 2.97.08 5.45.15 7.45s.14 3.6.19 4.8.13 2.24.23 3.11c1.33.36 2.75.59 4.26.69s2.7.15 3.57.15c7.06 0 12.19-1.55 15.39-4.64 3.2-3.1 4.8-7.89 4.8-14.39 0-2.46-.38-4.73-1.15-6.83s-1.92-3.89-3.45-5.37c-1.54-1.48-3.45-2.65-5.76-3.49-2.3-.86-4.99-1.28-8.06-1.28z" fill="#711" stroke="#711" stroke-miterlimit="10"/><path d="m1834.55 177.06c5.27-.03 10.16-.08 14.66-.15 4.5-.08 8.38-.17 11.63-.27s5.38-.26 6.41-.46l-2.99 8.29c-1.38-.36-2.94-.69-4.68-1-1.54-.26-3.39-.5-5.56-.73s-4.7-.35-7.56-.35c-1.03 0-2.2.04-3.53.11-1.33.08-2.61.17-3.84.27-1.43.1-2.89.21-4.38.31v30.32c4.14-.05 7.88-.15 11.21-.31 3.33-.15 6.17-.36 8.52-.61 2.76-.2 5.19-.49 7.29-.84l-1.84 9.13c-2.81-.36-5.66-.66-8.52-.92-2.46-.26-5.17-.47-8.14-.65s-5.81-.27-8.52-.27v34.85c4.76 0 9.13-.19 13.13-.58 3.99-.38 7.47-.81 10.44-1.27 3.48-.56 6.63-1.2 9.44-1.92l-1.77 10.06c-.77-.05-2.01-.11-3.72-.19-1.72-.08-3.51-.13-5.37-.15-1.87-.03-3.62-.05-5.26-.08s-2.76-.04-3.38-.04h-29.09v-.31c.36-1.07.68-2.46.96-4.14s.51-3.77.69-6.26c.18-2.48.32-5.44.42-8.87s.15-7.45.15-12.05v-19.34c0-4.61-.05-8.61-.15-12.01s-.24-6.34-.42-8.83c-.18-2.48-.41-4.57-.69-6.26s-.6-3.07-.96-4.14v-.31c5.01.01 10.15 0 15.42-.03z" fill="#711" stroke="#711" stroke-miterlimit="10"/><path d="m1929.73 224.54c-1.03.15-2.03.24-3.03.27s-2.01.04-3.03.04c-.82 0-1.72-.03-2.69-.08s-1.97-.13-2.99-.23v3.76c0 4.56.05 8.53.15 11.93s.24 6.33.42 8.79.4 4.52.65 6.18c.26 1.66.56 3.03.92 4.11v.31h-17.73v-.31c.36-1.07.68-2.46.96-4.14.28-1.69.51-3.77.69-6.26.18-2.48.32-5.44.42-8.87s.15-7.45.15-12.05v-19.34c0-4.61-.05-8.61-.15-12.01s-.24-6.34-.42-8.83c-.18-2.48-.41-4.57-.69-6.26s-.6-3.07-.96-4.14v-.31c.82.05 1.69.1 2.61.15.77.05 1.62.09 2.57.11.95.03 1.91.04 2.88.04 1.64 0 4.07-.15 7.29-.46s7.01-.46 11.36-.46c4.4 0 8.41.54 12.01 1.61 3.61 1.07 6.7 2.61 9.29 4.61 2.58 2 4.58 4.43 5.99 7.29 1.41 2.87 2.11 6.06 2.11 9.59 0 2.76-.38 5.28-1.15 7.56s-1.84 4.32-3.22 6.14-3.02 3.42-4.91 4.8-3.99 2.58-6.29 3.61l16.04 22.64c1.38 1.84 2.77 3.61 4.18 5.3s2.75 3.2 4.03 4.53 2.48 2.44 3.61 3.34c1.12.9 2.07 1.5 2.84 1.8v.31h-20.11c0-.46-.32-1.27-.96-2.42s-1.38-2.35-2.23-3.61c-.84-1.25-1.69-2.47-2.53-3.65s-1.47-2.05-1.88-2.61zm-11.75-4.99c1.02.15 2.06.27 3.11.35s2.06.11 3.03.11c6.4 0 11.25-1.71 14.55-5.14s4.95-8.57 4.95-15.43c0-5.63-1.32-10.08-3.95-13.36-2.64-3.27-6.51-4.91-11.63-4.91-1.64 0-3.08.06-4.34.19-1.25.13-2.32.27-3.19.42-.97.21-1.82.41-2.53.61z" fill="#711" stroke="#711" stroke-miterlimit="10"/><path d="m2077.97 260.69h-2.99l-61.02-60.02v27.32c0 4.61.03 8.62.08 12.05s.14 6.38.27 8.87c.13 2.48.31 4.57.54 6.26s.52 3.07.88 4.14v.31h-11.51v-.31c.36-1.07.66-2.46.92-4.14.26-1.69.46-3.77.61-6.26.15-2.48.26-5.44.31-8.87s.08-7.45.08-12.05v-19.34c0-4.61-.03-8.61-.08-12.01s-.15-6.34-.31-8.83c-.15-2.48-.36-4.57-.61-6.26-.26-1.69-.56-3.07-.92-4.14v-.31h4.76l61.1 60.33v-28.78c0-4.61-.03-8.61-.08-12.01s-.14-6.34-.27-8.83c-.13-2.48-.3-4.57-.5-6.26-.21-1.69-.49-3.07-.84-4.14v-.31h11.44v.31c-.36 1.07-.65 2.46-.88 4.14-.23 1.69-.42 3.77-.58 6.26-.15 2.48-.26 5.42-.31 8.83-.05 3.4-.08 7.41-.08 12.01z" fill="#711" stroke="#711" stroke-miterlimit="10"/><path d="m2171.17 233.67c-1.38 0-3.11 0-5.18 0s-4.34 0-6.79 0-4.99 0-7.6 0-5.09.01-7.45.04-4.5.05-6.45.08-3.45.04-4.53.04l-2.84 5.99c-1.23 2.46-2.28 4.59-3.15 6.41s-1.59 3.42-2.15 4.8-.97 2.57-1.23 3.57-.38 1.93-.38 2.8c0 .56.03.99.08 1.27s.13.5.23.65v.31h-13.51v-.31c.36-.36.92-1.14 1.69-2.34s1.65-2.67 2.65-4.41 2.07-3.71 3.22-5.91 2.29-4.48 3.42-6.83l31.32-64.63h5.76l30.7 64.63c1.17 2.46 2.36 4.81 3.57 7.06 1.2 2.25 2.31 4.26 3.34 6.03 1.02 1.76 1.92 3.22 2.69 4.37s1.28 1.83 1.53 2.03v.31h-19.65c.1-.41.15-.78.15-1.11s0-.7 0-1.11c0-1.12-.24-2.48-.73-4.07s-1.08-3.21-1.76-4.87c-.69-1.66-1.41-3.26-2.15-4.8s-1.34-2.81-1.8-3.84zm-35-5.99h4.68c2.15 0 4.44-.01 6.87-.04 2.43-.02 4.87-.04 7.33-.04s4.84-.01 7.14-.04 4.38-.04 6.22-.04l-15.89-33.93z" fill="#711" stroke="#711" stroke-miterlimit="10"/><path d="m2258.87 224.54c-1.02.15-2.03.24-3.03.27s-2.01.04-3.03.04c-.82 0-1.72-.03-2.69-.08s-1.97-.13-2.99-.23v3.76c0 4.56.05 8.53.15 11.93s.24 6.33.42 8.79.4 4.52.65 6.18c.26 1.66.56 3.03.92 4.11v.31h-17.73v-.31c.36-1.07.68-2.46.96-4.14.28-1.69.51-3.77.69-6.26.18-2.48.32-5.44.42-8.87s.15-7.45.15-12.05v-19.34c0-4.61-.05-8.61-.15-12.01s-.24-6.34-.42-8.83c-.18-2.48-.41-4.57-.69-6.26s-.6-3.07-.96-4.14v-.31c.82.05 1.69.1 2.61.15.77.05 1.62.09 2.57.11.95.03 1.91.04 2.88.04 1.64 0 4.07-.15 7.29-.46s7.01-.46 11.36-.46c4.4 0 8.41.54 12.01 1.61 3.61 1.07 6.7 2.61 9.29 4.61 2.58 2 4.58 4.43 5.99 7.29 1.41 2.87 2.11 6.06 2.11 9.59 0 2.76-.38 5.28-1.15 7.56s-1.84 4.32-3.22 6.14-3.02 3.42-4.91 4.8-3.99 2.58-6.29 3.61l16.04 22.64c1.38 1.84 2.77 3.61 4.18 5.3s2.75 3.2 4.03 4.53 2.48 2.44 3.61 3.34c1.12.9 2.07 1.5 2.84 1.8v.31h-20.11c0-.46-.32-1.27-.96-2.42s-1.38-2.35-2.23-3.61c-.84-1.25-1.69-2.47-2.53-3.65s-1.47-2.05-1.88-2.61zm-11.75-4.99c1.02.15 2.06.27 3.11.35s2.06.11 3.03.11c6.4 0 11.25-1.71 14.55-5.14s4.95-8.57 4.95-15.43c0-5.63-1.32-10.08-3.95-13.36-2.64-3.27-6.51-4.91-11.63-4.91-1.64 0-3.08.06-4.34.19-1.25.13-2.32.27-3.19.42-.97.21-1.82.41-2.53.61z" fill="#711" stroke="#711" stroke-miterlimit="10"/><path d="m2333.35 176.95c1.23.05 2.38.08 3.45.08.92.05 1.82.08 2.69.08h1.92c.72 0 2-.03 3.84-.08s3.93-.11 6.26-.19 4.78-.15 7.37-.23c2.58-.08 4.98-.11 7.18-.11 5.99 0 11.69.69 17.12 2.07s10.2 3.65 14.32 6.79c4.12 3.15 7.38 7.27 9.79 12.36 2.4 5.09 3.61 11.37 3.61 18.84 0 8.03-1.38 14.84-4.15 20.42-2.76 5.58-6.5 10.12-11.2 13.62-4.71 3.5-10.17 6.04-16.39 7.6s-12.78 2.34-19.69 2.34c-1.64 0-3.68-.05-6.14-.15s-4.96-.21-7.52-.31-4.98-.21-7.25-.31c-2.28-.1-4.01-.15-5.18-.15v-.31c.36-1.07.68-2.46.96-4.14.28-1.69.51-3.77.69-6.26.18-2.48.32-5.44.42-8.87s.15-7.45.15-12.05v-19.34c0-4.61-.05-8.62-.15-12.05s-.24-6.4-.42-8.9c-.18-2.51-.41-4.61-.69-6.29-.28-1.69-.6-3.07-.96-4.14zm15.89 5.6c-.05 4.2-.1 8.26-.15 12.2 0 1.69-.01 3.42-.04 5.18s-.05 3.52-.08 5.26-.04 3.39-.04 4.95v4.18c0 2.56.01 5.64.04 9.25s.06 7.3.11 11.09.13 7.43.23 10.94.23 6.44.38 8.79c.51.1 1.18.19 2 .27s1.68.15 2.57.23 1.78.13 2.65.15c.87.03 1.61.04 2.23.04 2.81 0 5.67-.18 8.56-.54s5.68-1.04 8.37-2.03c2.69-1 5.21-2.37 7.56-4.11s4.41-3.98 6.18-6.72c1.76-2.74 3.15-6.04 4.14-9.9 1-3.86 1.5-8.43 1.5-13.7 0-11.62-2.78-20.57-8.33-26.86s-13.83-9.44-24.83-9.44c-1.07 0-2.21.03-3.42.08-1.2.05-2.39.11-3.57.19s-2.29.17-3.34.27-1.96.18-2.72.23z" fill="#711" stroke="#711" stroke-miterlimit="10"/><path d="m2559.05 193.14h-1.53c-.31-.87-.81-1.97-1.5-3.3s-1.61-2.64-2.76-3.91c-1.15-1.28-2.57-2.37-4.26-3.26s-3.71-1.34-6.06-1.34c-1.79 0-3.39.3-4.8.88-1.41.59-2.6 1.4-3.57 2.42-.97 1.03-1.71 2.24-2.23 3.65-.51 1.41-.77 2.93-.77 4.57 0 2.66.81 5.19 2.42 7.6s3.62 4.8 6.03 7.18c2.4 2.38 5.01 4.77 7.83 7.18 2.81 2.41 5.42 4.91 7.83 7.52 2.4 2.61 4.41 5.37 6.03 8.29 1.61 2.92 2.42 6.04 2.42 9.36 0 2.46-.45 4.99-1.34 7.6-.9 2.61-2.34 4.96-4.34 7.06s-4.55 3.83-7.68 5.18c-3.12 1.35-6.91 2.03-11.36 2.03-2.46 0-4.8-.21-7.02-.61-2.23-.41-4.27-.91-6.14-1.5s-3.53-1.23-4.99-1.92-2.67-1.34-3.65-1.96l1.38-14.51h1.61c.51 1.79 1.27 3.58 2.26 5.37 1 1.79 2.23 3.42 3.68 4.87 1.46 1.46 3.17 2.64 5.14 3.53 1.97.9 4.23 1.34 6.79 1.34 1.79 0 3.48-.29 5.07-.88s2.96-1.42 4.11-2.49 2.06-2.39 2.73-3.95c.66-1.56 1-3.31 1-5.26 0-2.3-.46-4.44-1.38-6.41s-2.15-3.86-3.68-5.68c-1.54-1.82-3.26-3.57-5.18-5.26s-3.9-3.4-5.95-5.14-4.03-3.52-5.95-5.33c-1.92-1.82-3.65-3.77-5.18-5.87-1.54-2.1-2.76-4.34-3.68-6.72s-1.38-5-1.38-7.87c0-3.02.64-5.73 1.92-8.14 1.28-2.4 2.97-4.44 5.06-6.1 2.1-1.66 4.5-2.94 7.22-3.84 2.71-.9 5.53-1.34 8.44-1.34 2.15 0 4.16.15 6.03.46s3.56.68 5.07 1.11c1.51.44 2.83.87 3.95 1.31 1.12.43 2.05.78 2.76 1.04z" fill="#711" stroke="#711" stroke-miterlimit="10"/><path d="m2622.55 182.78c-4.66 0-8.89.21-12.7.61-3.81.41-7.1.84-9.86 1.31-3.17.56-6.04 1.18-8.6 1.84l1.54-9.9c.77.1 2.02.18 3.76.23s3.57.09 5.49.11c1.92.03 3.73.05 5.45.08 1.71.03 2.9.04 3.57.04h36.31c.61 0 1.75-.01 3.42-.04 1.66-.03 3.44-.05 5.33-.08 1.89-.02 3.71-.06 5.45-.11s2.99-.13 3.76-.23l1.54 9.9c-2.46-.66-5.27-1.28-8.45-1.84-2.71-.46-5.97-.89-9.79-1.31-3.81-.41-8.1-.61-12.86-.61v45.21c0 4.61.05 8.62.15 12.05s.24 6.38.42 8.87c.18 2.48.4 4.57.65 6.26.26 1.69.56 3.07.92 4.14v.31h-17.73v-.31c.36-1.07.66-2.46.92-4.14.26-1.69.48-3.77.69-6.26.2-2.48.36-5.44.46-8.87s.15-7.45.15-12.05z" fill="#711" stroke="#711" stroke-miterlimit="10"/><path d="m2684.31 224.54v-10.98h51.89v10.98z" fill="#711" stroke="#711" stroke-miterlimit="10"/><path d="m2777.04 208.65c0-4.61-.05-8.61-.15-12.01s-.24-6.34-.42-8.83c-.18-2.48-.41-4.57-.69-6.26s-.6-3.07-.96-4.14v-.31h17.81v.31c-.36 1.07-.68 2.46-.96 4.14-.28 1.69-.51 3.77-.69 6.26-.18 2.48-.32 5.42-.42 8.83-.1 3.4-.15 7.41-.15 12.01v35.54c0 7.27-.63 13.41-1.88 18.42s-3.07 9.38-5.45 13.09-5.26 7.02-8.64 9.94-7.21 5.94-11.51 9.06l-1.46-1.77c3.73-3.38 6.65-6.74 8.75-10.09s3.65-6.95 4.64-10.79c1-3.84 1.61-8.02 1.84-12.55s.35-9.63.35-15.31v-35.54z" fill="#711" stroke="#711" stroke-miterlimit="10"/><path d="m2848.02 177.06c5.27-.03 10.16-.08 14.66-.15 4.5-.08 8.38-.17 11.63-.27s5.38-.26 6.41-.46l-2.99 8.29c-1.38-.36-2.94-.69-4.68-1-1.53-.26-3.39-.5-5.56-.73-2.18-.23-4.7-.35-7.56-.35-1.02 0-2.2.04-3.53.11-1.33.08-2.61.17-3.84.27-1.43.1-2.89.21-4.37.31v30.32c4.14-.05 7.88-.15 11.21-.31 3.33-.15 6.17-.36 8.52-.61 2.76-.2 5.19-.49 7.29-.84l-1.84 9.13c-2.82-.36-5.66-.66-8.52-.92-2.46-.26-5.17-.47-8.13-.65-2.97-.18-5.81-.27-8.52-.27v34.85c4.76 0 9.14-.19 13.13-.58 3.99-.38 7.47-.81 10.44-1.27 3.48-.56 6.63-1.2 9.44-1.92l-1.76 10.06c-.77-.05-2.01-.11-3.72-.19-1.72-.08-3.5-.13-5.37-.15-1.87-.03-3.62-.05-5.26-.08s-2.76-.04-3.38-.04h-29.09v-.31c.36-1.07.68-2.46.96-4.14.28-1.69.51-3.77.69-6.26.18-2.48.32-5.44.42-8.87s.15-7.45.15-12.05v-19.34c0-4.61-.05-8.61-.15-12.01s-.24-6.34-.42-8.83c-.18-2.48-.41-4.57-.69-6.26s-.6-3.07-.96-4.14v-.31c4.97.01 10.12 0 15.39-.03z" fill="#711" stroke="#711" stroke-miterlimit="10"/><path d="m2971.52 233.67c-1.38 0-3.11 0-5.18 0s-4.34 0-6.79 0-4.99 0-7.6 0-5.09.01-7.45.04-4.5.05-6.45.08-3.45.04-4.53.04l-2.84 5.99c-1.23 2.46-2.28 4.59-3.15 6.41s-1.59 3.42-2.15 4.8-.97 2.57-1.23 3.57-.38 1.93-.38 2.8c0 .56.03.99.08 1.27s.13.5.23.65v.31h-13.51v-.31c.36-.36.92-1.14 1.69-2.34s1.65-2.67 2.65-4.41 2.07-3.71 3.22-5.91 2.29-4.48 3.42-6.83l31.32-64.63h5.76l30.7 64.63c1.18 2.46 2.37 4.81 3.57 7.06s2.31 4.26 3.34 6.03c1.02 1.76 1.92 3.22 2.69 4.37s1.28 1.83 1.54 2.03v.31h-19.65c.1-.41.15-.78.15-1.11s0-.7 0-1.11c0-1.12-.24-2.48-.73-4.07s-1.07-3.21-1.76-4.87-1.41-3.26-2.15-4.8-1.34-2.81-1.8-3.84zm-35-5.99h4.68c2.15 0 4.44-.01 6.87-.04 2.43-.02 4.87-.04 7.33-.04s4.84-.01 7.14-.04 4.38-.04 6.22-.04l-15.89-33.93z" fill="#711" stroke="#711" stroke-miterlimit="10"/><path d="m3105.66 260.69h-2.99l-61.02-60.02v27.32c0 4.61.03 8.62.08 12.05s.14 6.38.27 8.87c.13 2.48.31 4.57.54 6.26s.52 3.07.88 4.14v.31h-11.52v-.31c.36-1.07.66-2.46.92-4.14.26-1.69.46-3.77.61-6.26.15-2.48.26-5.44.31-8.87s.08-7.45.08-12.05v-19.34c0-4.61-.03-8.61-.08-12.01s-.15-6.34-.31-8.83c-.15-2.48-.36-4.57-.61-6.26-.26-1.69-.56-3.07-.92-4.14v-.31h4.76l61.1 60.33v-28.78c0-4.61-.03-8.61-.08-12.01s-.14-6.34-.27-8.83c-.13-2.48-.3-4.57-.5-6.26-.21-1.69-.49-3.07-.84-4.14v-.31h11.44v.31c-.36 1.07-.65 2.46-.88 4.14-.23 1.69-.42 3.77-.58 6.26-.15 2.48-.26 5.42-.31 8.83-.05 3.4-.08 7.41-.08 12.01z" fill="#711" stroke="#711" stroke-miterlimit="10"/></svg>