<?xml version="1.0" encoding="UTF-8" standalone="no"?>
<!DOCTYPE svg PUBLIC "-//W3C//DTD SVG 1.1//EN" "http://www.w3.org/Graphics/SVG/1.1/DTD/svg11.dtd">
<svg width="100%" height="100%" viewBox="0 0 128 1024" version="1.1" xmlns="http://www.w3.org/2000/svg" xmlns:xlink="http://www.w3.org/1999/xlink" xml:space="preserve" xmlns:serif="http://www.serif.com/" style="fill-rule:evenodd;clip-rule:evenodd;stroke-linejoin:round;stroke-miterlimit:2;">
    <g transform="matrix(1.55834e-16,-0.508049,0.398487,1.21626e-16,-47.1427,1105.06)">
        <path d="M175.874,411.463L175.874,148.476L258.479,148.476L258.479,199.297L217.897,199.297L217.897,250.425L256.799,250.425L256.799,300.022L217.897,300.022L217.897,360.335L261.121,360.335L261.121,411.463L175.874,411.463Z" style="fill-rule:nonzero;stroke:black;stroke-width:2.19px;"/>
    </g>
    <g transform="matrix(1.55834e-16,-0.508049,0.398487,1.21626e-16,-47.1427,1105.06)">
        <path d="M322.355,413.912C303.624,413.912 290.097,407.993 281.772,396.155C273.448,384.317 269.285,365.233 269.285,338.904L269.285,313.187L309.868,313.187L309.868,345.946C309.868,359.008 313.15,365.539 319.713,365.539C323.395,365.539 325.957,364.162 327.397,361.406C328.838,358.651 329.559,354.008 329.559,347.476C329.559,338.904 328.758,331.811 327.157,326.199C325.556,320.586 323.515,315.891 321.034,312.115C318.553,308.34 314.11,302.472 307.707,294.512L289.937,271.856C276.169,254.711 269.285,235.73 269.285,214.911C269.285,192.46 273.328,175.366 281.412,163.63C289.497,151.894 301.303,146.026 316.832,146.026C335.402,146.026 348.769,152.303 356.934,164.855C365.098,177.407 369.18,197.052 369.18,223.79L327.157,223.79L326.917,205.727C326.917,202.257 326.157,199.501 324.636,197.46C323.115,195.419 320.994,194.399 318.272,194.399C315.071,194.399 312.669,195.521 311.068,197.767C309.468,200.012 308.667,203.073 308.667,206.951C308.667,215.524 312.509,224.402 320.193,233.587L344.207,262.978C349.81,269.917 354.452,276.499 358.134,282.725C361.816,288.95 364.778,296.297 367.019,304.768C369.26,313.238 370.381,323.29 370.381,334.924C370.381,360.845 366.659,380.49 359.215,393.859C351.771,407.228 339.484,413.912 322.355,413.912Z" style="fill-rule:nonzero;stroke:black;stroke-width:2.19px;"/>
    </g>
    <g transform="matrix(1.55834e-16,-0.508049,0.398487,1.21626e-16,-47.1427,1105.06)">
        <path d="M381.427,148.476L435.937,148.476C452.426,148.476 464.193,155.262 471.237,168.835C478.28,182.408 481.802,202.257 481.802,228.382C481.802,254.507 478.681,274.203 472.437,287.47C466.194,300.737 454.988,307.37 438.819,307.37L422.009,307.37L422.009,411.463L381.427,411.463L381.427,148.476ZM424.411,259.916C429.374,259.916 433.016,258.742 435.337,256.395C437.658,254.048 439.179,250.68 439.899,246.292C440.62,241.904 440.98,235.628 440.98,227.464C440.98,216.442 440.019,208.482 438.098,203.584C436.177,198.685 432.335,196.236 426.572,196.236L422.009,196.236L422.009,259.916L424.411,259.916Z" style="fill-rule:nonzero;stroke:black;stroke-width:2.19px;"/>
    </g>
    <g transform="matrix(1.55834e-16,-0.508049,0.398487,1.21626e-16,-47.1427,1105.06)">
        <path d="M481.082,411.463L501.013,148.476L570.891,148.476L590.582,411.463L551.441,411.463L548.559,368.907L523.585,368.907L521.184,411.463L481.082,411.463ZM526.707,326.964L545.437,326.964L536.312,193.174L534.391,193.174L526.707,326.964Z" style="fill-rule:nonzero;stroke:black;stroke-width:2.19px;"/>
    </g>
    <g transform="matrix(1.55834e-16,-0.508049,0.398487,1.21626e-16,-47.1427,1105.06)">
        <path d="M648.214,413.912C633.166,413.912 621.119,407.891 612.074,395.849C603.029,383.807 598.507,367.274 598.507,346.252L598.507,225.014C598.507,198.889 602.589,179.193 610.753,165.926C618.918,152.66 631.725,146.026 649.174,146.026C664.383,146.026 676.63,151.333 685.915,161.946C695.2,172.56 699.842,187.868 699.842,207.87L699.842,253.181L658.78,253.181L658.78,214.299C658.78,206.747 658.059,201.542 656.619,198.685C655.178,195.828 652.696,194.399 649.174,194.399C645.492,194.399 642.971,196.032 641.61,199.297C640.25,202.563 639.569,207.359 639.569,213.687L639.569,345.639C639.569,352.579 640.37,357.63 641.97,360.794C643.571,363.958 645.973,365.539 649.174,365.539C655.578,365.539 658.78,358.906 658.78,345.639L658.78,298.185L700.323,298.185L700.323,347.782C700.323,391.869 682.953,413.912 648.214,413.912Z" style="fill-rule:nonzero;stroke:black;stroke-width:2.19px;"/>
    </g>
    <g transform="matrix(1.55834e-16,-0.508049,0.398487,1.21626e-16,-47.1427,1105.06)">
        <path d="M712.569,411.463L712.569,148.476L795.175,148.476L795.175,199.297L754.592,199.297L754.592,250.425L793.494,250.425L793.494,300.022L754.592,300.022L754.592,360.335L797.816,360.335L797.816,411.463L712.569,411.463Z" style="fill-rule:nonzero;stroke:black;stroke-width:2.19px;"/>
    </g>
    <g transform="matrix(1.55834e-16,-0.508049,0.398487,1.21626e-16,-47.1427,1105.06)">
        <path d="M914.28,413.912C895.55,413.912 882.023,407.993 873.698,396.155C865.373,384.317 861.211,365.233 861.211,338.904L861.211,313.187L901.793,313.187L901.793,345.946C901.793,359.008 905.075,365.539 911.639,365.539C915.321,365.539 917.882,364.162 919.323,361.406C920.764,358.651 921.484,354.008 921.484,347.476C921.484,338.904 920.684,331.811 919.083,326.199C917.482,320.586 915.441,315.891 912.96,312.115C910.478,308.34 906.036,302.472 899.632,294.512L881.862,271.856C868.095,254.711 861.211,235.73 861.211,214.911C861.211,192.46 865.253,175.366 873.338,163.63C881.422,151.894 893.229,146.026 908.757,146.026C927.327,146.026 940.695,152.303 948.859,164.855C957.024,177.407 961.106,197.052 961.106,223.79L919.083,223.79L918.843,205.727C918.843,202.257 918.082,199.501 916.562,197.46C915.041,195.419 912.92,194.399 910.198,194.399C906.996,194.399 904.595,195.521 902.994,197.767C901.393,200.012 900.593,203.073 900.593,206.951C900.593,215.524 904.435,224.402 912.119,233.587L936.132,262.978C941.735,269.917 946.378,276.499 950.06,282.725C953.742,288.95 956.704,296.297 958.945,304.768C961.186,313.238 962.307,323.29 962.307,334.924C962.307,360.845 958.585,380.49 951.141,393.859C943.696,407.228 931.41,413.912 914.28,413.912Z" style="fill-rule:nonzero;stroke:black;stroke-width:2.19px;"/>
    </g>
    <g transform="matrix(1.55834e-16,-0.508049,0.398487,1.21626e-16,-47.1427,1105.06)">
        <path d="M992.563,411.463L992.563,198.991L968.07,198.991L968.07,148.476L1058.36,148.476L1058.36,198.991L1033.87,198.991L1033.87,411.463L992.563,411.463Z" style="fill-rule:nonzero;stroke:black;stroke-width:2.19px;"/>
    </g>
    <g transform="matrix(1.55834e-16,-0.508049,0.398487,1.21626e-16,-47.1427,1105.06)">
        <rect x="1051.88" y="300.635" width="60.513" height="34.596" style="fill-rule:nonzero;stroke:black;stroke-width:2.19px;"/>
    </g>
    <g transform="matrix(1.55834e-16,-0.508049,0.398487,1.21626e-16,-47.1427,1105.06)">
        <path d="M1180.83,413.912C1171.38,413.912 1162.82,411.565 1155.13,406.87C1147.45,402.176 1141.4,395.288 1137,386.205C1132.6,377.122 1130.4,366.152 1130.4,353.293L1130.4,287.47L1170.98,287.47L1170.98,350.232C1170.98,354.926 1171.74,358.651 1173.26,361.406C1174.78,364.162 1177.14,365.539 1180.35,365.539C1183.39,365.539 1185.67,364.264 1187.19,361.713C1188.71,359.161 1189.47,355.538 1189.47,350.844L1189.47,148.476L1231.01,148.476L1231.01,345.639C1231.01,359.314 1228.89,371.305 1224.65,381.613C1220.41,391.92 1214.49,399.88 1206.88,405.493C1199.28,411.106 1190.59,413.912 1180.83,413.912Z" style="fill-rule:nonzero;stroke:black;stroke-width:2.19px;"/>
    </g>
    <g transform="matrix(1.55834e-16,-0.508049,0.398487,1.21626e-16,-47.1427,1105.06)">
        <path d="M1241.82,411.463L1241.82,148.476L1324.43,148.476L1324.43,199.297L1283.84,199.297L1283.84,250.425L1322.75,250.425L1322.75,300.022L1283.84,300.022L1283.84,360.335L1327.07,360.335L1327.07,411.463L1241.82,411.463Z" style="fill-rule:nonzero;stroke:black;stroke-width:2.19px;"/>
    </g>
    <g transform="matrix(1.55834e-16,-0.508049,0.398487,1.21626e-16,-47.1427,1105.06)">
        <path d="M1335.23,411.463L1355.16,148.476L1425.04,148.476L1444.73,411.463L1405.59,411.463L1402.71,368.907L1377.74,368.907L1375.33,411.463L1335.23,411.463ZM1380.86,326.964L1399.59,326.964L1390.46,193.174L1388.54,193.174L1380.86,326.964Z" style="fill-rule:nonzero;stroke:black;stroke-width:2.19px;"/>
    </g>
    <g transform="matrix(1.55834e-16,-0.508049,0.398487,1.21626e-16,-47.1427,1105.06)">
        <path d="M1454.58,411.463L1454.58,148.476L1497.08,148.476L1516.05,274.305L1516.05,148.476L1555.91,148.476L1555.91,411.463L1515.57,411.463L1494.92,279.816L1494.92,411.463L1454.58,411.463Z" style="fill-rule:nonzero;stroke:black;stroke-width:2.19px;"/>
    </g>
</svg>
