<?xml version="1.0" encoding="utf-8"?>
<svg version="1.1" id="Espace_230_Logo" xmlns="http://www.w3.org/2000/svg" xmlns:xlink="http://www.w3.org/1999/xlink" x="0px"
	 y="0px" viewBox="0 0 3283.68 1104.17" style="enable-background:new 0 0 3283.68 1104.17;" xml:space="preserve">
<style type="text/css">
	.st0{fill:#141516;}
	.st1{fill:#771111;stroke:#771111;stroke-miterlimit:10;}
</style>
<g id="Logo">
	<polygon class="st0" points="177.41,260.11 177.41,313.1 575.13,313.1 575.13,710.02 177.41,710.02 177.41,822.01 739.3,822.01 
		739.3,260.11 	"/>
	<polygon class="st0" points="851.3,196 851.3,886.78 1015.67,981.84 1015.67,886.78 1015.67,196 1015.67,100.94 	"/>
</g>
<g id="Logotype_2_">
	<g id="ESPACE_230_2_">
		<path class="st0" d="M1193.04,732.34V349.55h153.29v73.97h-75.31v74.42h72.19v72.19h-72.19v87.79h80.21v74.42H1193.04z"/>
		<path class="st0" d="M1389.78,710.06c-15.45-17.23-23.17-45.01-23.17-83.33v-37.43h75.31v47.68c0,19.02,6.09,28.52,18.27,28.52
			c6.83,0,11.59-2.01,14.26-6.02s4.01-10.76,4.01-20.28c0-12.48-1.49-22.8-4.46-30.97c-2.97-8.17-6.76-15-11.36-20.5
			c-4.61-5.49-12.85-14.04-24.73-25.62l-32.98-32.98c-25.55-24.95-38.32-52.58-38.32-82.89c0-32.68,7.5-57.55,22.5-74.64
			c15-17.08,36.91-25.62,65.73-25.62c34.46,0,59.27,9.14,74.42,27.41c15.15,18.27,22.73,46.87,22.73,85.78H1474l-0.45-26.29
			c0-5.05-1.41-9.06-4.23-12.03c-2.83-2.97-6.76-4.46-11.81-4.46c-5.95,0-10.4,1.64-13.37,4.9c-2.97,3.27-4.46,7.73-4.46,13.37
			c0,12.48,7.13,25.4,21.39,38.77l44.56,42.78c10.4,10.1,19.01,19.68,25.85,28.74c6.83,9.07,12.32,19.76,16.49,32.08
			c4.16,12.33,6.24,26.96,6.24,43.89c0,37.73-6.91,66.33-20.72,85.78c-13.81,19.46-36.62,29.19-68.4,29.19
			C1430.33,735.9,1405.22,727.29,1389.78,710.06z"/>
		<path class="st0" d="M1573.73,349.55h101.16c30.59,0,52.43,9.88,65.51,29.63c13.07,19.76,19.61,48.65,19.61,86.67
			c0,38.03-5.79,66.7-17.38,86c-11.59,19.31-32.38,28.97-62.39,28.97h-31.19v151.51h-75.31V349.55z M1653.49,511.76
			c9.2,0,15.97-1.71,20.28-5.12c4.3-3.41,7.13-8.31,8.47-14.71c1.34-6.38,2.01-15.52,2.01-27.41c0-16.04-1.78-27.63-5.35-34.76
			c-3.56-7.13-10.69-10.69-21.39-10.69h-8.47v92.69H1653.49z"/>
		<path class="st0" d="M1761.33,732.34l36.99-382.79h129.68l36.54,382.79h-72.64l-5.35-61.94h-46.34l-4.46,61.94H1761.33z
			 M1846,609.35h34.76l-16.93-194.74h-3.56L1846,609.35z"/>
		<path class="st0" d="M2002.67,709.61c-16.79-17.53-25.18-41.59-25.18-72.19V460.96c0-38.02,7.58-66.69,22.73-86
			c15.15-19.31,38.92-28.97,71.3-28.97c28.22,0,50.95,7.73,68.18,23.17c17.23,15.45,25.85,37.73,25.85,66.84v65.95h-76.2v-56.59
			c0-10.99-1.34-18.56-4.01-22.73c-2.67-4.16-7.28-6.24-13.81-6.24c-6.84,0-11.52,2.38-14.04,7.13c-2.53,4.76-3.79,11.74-3.79,20.94
			v192.06c0,10.1,1.48,17.46,4.46,22.06c2.97,4.61,7.42,6.91,13.37,6.91c11.88,0,17.82-9.65,17.82-28.97v-69.07h77.09v72.19
			c0,64.17-32.24,96.25-96.7,96.25C2041.81,735.9,2019.45,727.14,2002.67,709.61z"/>
		<path class="st0" d="M2185.73,732.34V349.55h153.29v73.97h-75.31v74.42h72.19v72.19h-72.19v87.79h80.21v74.42H2185.73z"/>
		<path class="st0" d="M2471.36,714.07c0-17.53,2.74-33.71,8.24-48.57c5.5-14.85,12.26-28.22,20.28-40.11
			c8.02-11.88,18.56-25.85,31.64-41.89c13.37-16.63,23.99-30.75,31.86-42.33c7.87-11.59,14.55-24.88,20.05-39.88
			c5.5-15,8.24-31.26,8.24-48.8c0-10.4-1.49-18.49-4.46-24.29c-2.97-5.79-8.32-8.69-16.04-8.69c-12.78,0-19.16,11.44-19.16,34.31
			v46.79h-80.66l-0.89-23.62c0-29.11,2.97-53.03,8.91-71.74c5.94-18.72,16.33-32.98,31.19-42.78c14.85-9.8,35.35-14.71,61.5-14.71
			c32.08,0,56.89,8.99,74.42,26.96c17.52,17.98,26.29,43.45,26.29,76.42c0,21.1-2.9,40.18-8.69,57.26
			c-5.79,17.09-12.92,32.01-21.39,44.78c-8.47,12.78-19.68,27.78-33.64,45.01c-10.1,12.18-18.49,23.03-25.18,32.53
			c-6.68,9.51-12.7,19.31-18.05,29.41h104.27v72.19h-198.75L2471.36,714.07L2471.36,714.07z"/>
		<path class="st0" d="M2709.27,710.28c-15.45-17.67-23.17-44.63-23.17-80.88v-40.11h78.43v40.11c0,11.59,1.48,20.58,4.46,26.96
			c2.97,6.39,8.91,9.58,17.82,9.58c6.24,0,10.76-2.23,13.59-6.68c2.82-4.46,4.53-9.73,5.12-15.82c0.59-6.09,0.89-14.93,0.89-26.51
			v-9.36c0-32.98-10.85-49.46-32.53-49.46c-3.86,0-6.39,0.15-7.58,0.45v-68.63c13.66,0,23.91-3.04,30.75-9.14
			c6.83-6.09,10.25-15.82,10.25-29.19c0-21.68-6.24-32.53-18.72-32.53c-7.73,0-12.7,1.94-14.93,5.79
			c-2.23,3.86-3.72,8.77-4.46,14.71c-0.75,5.95-1.27,10.25-1.56,12.92v11.59h-79.32l-0.45-13.37c0.29-35.05,8.61-60.83,24.95-77.32
			c16.33-16.49,41.44-24.73,75.31-24.73c65.06,0,97.59,34.02,97.59,102.05c0,19.91-2.67,35.73-8.02,47.46
			c-5.35,11.74-14.56,19.98-27.63,24.73c10.69,5.35,18.64,11.96,23.84,19.83c5.2,7.87,8.61,17.46,10.25,28.74
			c1.63,11.29,2.45,26.44,2.45,45.45c0,39.51-8.24,69.37-24.73,89.57c-16.49,20.21-42.86,30.3-79.1,30.3
			C2749.23,736.79,2724.72,727.96,2709.27,710.28z"/>
		<path class="st0" d="M2929.8,708.5c-17.53-18.27-26.29-44.34-26.29-78.21v-172.9c0-36.24,8.47-63.87,25.4-82.89
			c16.94-19.01,42.18-28.52,75.76-28.52c33.87,0,59.27,9.51,76.2,28.52c16.94,19.02,25.4,46.64,25.4,82.89v172.9
			c0,34.17-8.77,60.31-26.29,78.43c-17.53,18.12-42.63,27.18-75.31,27.18C2972.28,735.9,2947.33,726.77,2929.8,708.5z
			 M3018.48,657.7c3.56-5.19,5.35-11.36,5.35-18.49V450.26c0-10.99-1.27-19.38-3.79-25.18c-2.53-5.79-7.65-8.69-15.37-8.69
			c-7.73,0-12.78,2.9-15.15,8.69c-2.38,5.79-3.56,14.19-3.56,25.18V639.2c0,7.13,1.71,13.3,5.12,18.49c3.41,5.2,7.94,7.8,13.59,7.8
			C3010.31,665.5,3014.92,662.9,3018.48,657.7z"/>
	</g>
	<g id="Ateliers_d_x27_artistes">
		<path class="st0" d="M1191.18,926.76l20.18-57.33h12.82l20.21,57.33h-11.08l-4.76-14.14h-21.55l-4.73,14.14H1191.18z
			 M1225.75,904.29l-7.75-23.09h-0.45l-7.75,23.09H1225.75z"/>
		<path class="st0" d="M1251.89,869.44h45.74v8.71h-17.72v48.62h-10.3v-48.62h-17.72V869.44L1251.89,869.44z"/>
		<path class="st0" d="M1315.75,869.44h37.28v8.71h-26.9v15.56h24.97v8.7h-24.97v15.65h27.12v8.71h-37.51V869.44z"/>
		<path class="st0" d="M1373.9,869.44h10.38v48.62h25.25v8.71h-35.63V869.44z"/>
		<path class="st0" d="M1438.17,926.76h-10.38v-57.33h10.38V926.76z"/>
		<path class="st0" d="M1460.77,869.44h37.28v8.71h-26.9v15.56h24.97v8.7h-24.97v15.65h27.12v8.71h-37.51V869.44L1460.77,869.44z"/>
		<path class="st0" d="M1518.91,869.44h21.5c13.16,0,20.21,7.39,20.21,18.33c0,7.78-3.56,13.55-10.3,16.26l12.4,22.73h-11.59
			l-11.25-20.99h-10.58v20.99h-10.39V869.44z M1538.87,897.15c7.7,0,11.17-3.28,11.17-9.38c0-6.1-3.47-9.66-11.22-9.66h-9.52v19.03
			H1538.87z"/>
		<path class="st0" d="M1600.46,877.44c-6.49,0-10.36,3.16-10.38,7.47c-0.06,4.79,5.04,6.77,9.74,7.89l5.37,1.34
			c8.62,2.04,16.82,6.58,16.85,16.52c-0.03,10.1-8,16.96-21.75,16.96c-13.35,0-21.83-6.41-22.25-17.8h10.22
			c0.42,6.02,5.46,8.93,11.95,8.93c6.77,0,11.42-3.28,11.45-8.17c-0.03-4.45-4.11-6.38-10.3-7.95l-6.52-1.68
			c-9.43-2.44-15.28-7.17-15.28-15.4c-0.03-10.13,9.01-16.91,21.05-16.91c12.2,0,20.46,6.86,20.66,16.54h-9.99
			C1610.73,880.33,1606.65,877.44,1600.46,877.44z"/>
		<path class="st0" d="M1672.45,926.76v-57.33h19.82c17.07,0,27.43,10.75,27.43,28.61c0,17.91-10.36,28.72-27.82,28.72H1672.45z
			 M1691.37,917.78c11.95,0,18.03-6.55,18.03-19.73c0-13.13-6.07-19.62-17.72-19.62h-8.85v39.36H1691.37z"/>
		<path class="st0" d="M1747.73,875.15c0,4.96-3.08,10.83-7.19,14.25l-4.7-3.05c2.04-3.08,3.83-6.58,3.83-11.14v-5.77h8.06
			L1747.73,875.15L1747.73,875.15z"/>
		<path class="st0" d="M1758.01,926.76l20.18-57.33h12.82l20.21,57.33h-11.08l-4.76-14.14h-21.55l-4.73,14.14H1758.01z
			 M1792.58,904.29l-7.75-23.09h-0.45l-7.75,23.09H1792.58z"/>
		<path class="st0" d="M1828.75,869.44h21.5c13.16,0,20.21,7.39,20.21,18.33c0,7.78-3.56,13.55-10.3,16.26l12.4,22.73h-11.59
			l-11.25-20.99h-10.58v20.99h-10.38L1828.75,869.44L1828.75,869.44z M1848.71,897.15c7.7,0,11.17-3.28,11.17-9.38
			c0-6.1-3.47-9.66-11.22-9.66h-9.52v19.03H1848.71z"/>
		<path class="st0" d="M1886.94,869.44h45.74v8.71h-17.72v48.62h-10.3v-48.62h-17.72V869.44z"/>
		<path class="st0" d="M1961.18,926.76h-10.38v-57.33h10.38V926.76z"/>
		<path class="st0" d="M2003.66,877.44c-6.49,0-10.36,3.16-10.38,7.47c-0.06,4.79,5.04,6.77,9.74,7.89l5.37,1.34
			c8.62,2.04,16.82,6.58,16.85,16.52c-0.03,10.1-8,16.96-21.75,16.96c-13.35,0-21.83-6.41-22.25-17.8h10.22
			c0.42,6.02,5.46,8.93,11.95,8.93c6.77,0,11.42-3.28,11.45-8.17c-0.03-4.45-4.11-6.38-10.3-7.95l-6.52-1.68
			c-9.43-2.44-15.28-7.17-15.28-15.4c-0.03-10.13,9.01-16.91,21.05-16.91c12.2,0,20.46,6.86,20.66,16.54h-9.99
			C2013.93,880.33,2009.84,877.44,2003.66,877.44z"/>
		<path class="st0" d="M2041.4,869.44h45.74v8.71h-17.72v48.62h-10.3v-48.62h-17.72L2041.4,869.44L2041.4,869.44z"/>
		<path class="st0" d="M2105.26,869.44h37.28v8.71h-26.9v15.56h24.97v8.7h-24.97v15.65h27.12v8.71h-37.51V869.44z"/>
		<path class="st0" d="M2182.41,877.44c-6.49,0-10.36,3.16-10.38,7.47c-0.06,4.79,5.04,6.77,9.74,7.89l5.37,1.34
			c8.62,2.04,16.82,6.58,16.85,16.52c-0.03,10.1-8,16.96-21.75,16.96c-13.35,0-21.83-6.41-22.25-17.8h10.22
			c0.42,6.02,5.46,8.93,11.95,8.93c6.77,0,11.42-3.28,11.45-8.17c-0.03-4.45-4.11-6.38-10.3-7.95l-6.52-1.68
			c-9.43-2.44-15.28-7.17-15.28-15.4c-0.03-10.13,9.01-16.91,21.05-16.91c12.2,0,20.46,6.86,20.66,16.54h-9.99
			C2192.68,880.33,2188.59,877.44,2182.41,877.44z"/>
		<path class="st0" d="M2304.01,935.39h-8.87l18.47-68.63h8.87L2304.01,935.39z"/>
		<path class="st0" d="M2441.24,877.98c-9.26,0-15.95,7.17-15.95,20.07c0,12.99,6.58,20.18,16.18,20.18
			c8.62,0,14.08-5.18,14.25-13.35h-13.21v-8.12h23.26v6.89c0,14.78-10.16,23.9-24.35,23.9c-15.82,0-26.56-11.25-26.56-29.39
			c0-18.47,11.25-29.5,26.26-29.5c12.68,0,22.42,7.84,24.18,19.09h-10.58C2452.85,881.67,2448.15,877.98,2441.24,877.98z"/>
		<path class="st0" d="M2479.54,926.76l20.18-57.33h12.82l20.21,57.33h-11.08l-4.76-14.14h-21.55l-4.73,14.14H2479.54z
			 M2514.11,904.29l-7.75-23.09h-0.45l-7.75,23.09H2514.11z"/>
		<path class="st0" d="M2550.29,869.44h10.38v48.62h25.25v8.71h-35.63L2550.29,869.44L2550.29,869.44z"/>
		<path class="st0" d="M2604.18,869.44h37.28v8.71h-26.9v15.56h24.97v8.7h-24.97v15.65h27.12v8.71h-37.51V869.44L2604.18,869.44z"/>
		<path class="st0" d="M2662.32,869.44h21.5c13.16,0,20.21,7.39,20.21,18.33c0,7.78-3.56,13.55-10.3,16.26l12.4,22.73h-11.59
			l-11.25-20.99h-10.58v20.99h-10.38V869.44z M2682.28,897.15c7.7,0,11.17-3.28,11.17-9.38c0-6.1-3.47-9.66-11.23-9.66h-9.52v19.03
			H2682.28z"/>
		<path class="st0" d="M2734.86,926.76h-10.38v-57.33h10.38V926.76z"/>
		<path class="st0" d="M2757.46,869.44h37.28v8.71h-26.9v15.56h24.97v8.7h-24.97v15.65h27.12v8.71h-37.51L2757.46,869.44
			L2757.46,869.44z"/>
		<path class="st0" d="M2846.53,926.76v-57.33h19.82c17.07,0,27.43,10.75,27.43,28.61c0,17.91-10.36,28.72-27.82,28.72H2846.53z
			 M2865.45,917.78c11.95,0,18.03-6.55,18.03-19.73c0-13.13-6.07-19.62-17.72-19.62h-8.85v39.36H2865.45z"/>
		<path class="st0" d="M2921.8,875.15c0,4.96-3.08,10.83-7.19,14.25l-4.7-3.05c2.04-3.08,3.84-6.58,3.84-11.14v-5.77h8.06V875.15
			L2921.8,875.15z"/>
		<path class="st0" d="M2932.09,926.76l20.18-57.33h12.82l20.21,57.33h-11.08l-4.76-14.14h-21.55l-4.73,14.14H2932.09z
			 M2966.65,904.29l-7.75-23.09h-0.45l-7.75,23.09H2966.65z"/>
		<path class="st0" d="M3002.83,869.44h21.5c13.16,0,20.21,7.39,20.21,18.33c0,7.78-3.56,13.55-10.3,16.26l12.4,22.73h-11.59
			l-11.25-20.99h-10.58v20.99h-10.38V869.44z M3022.78,897.15c7.7,0,11.17-3.28,11.17-9.38c0-6.1-3.47-9.66-11.23-9.66h-9.52v19.03
			H3022.78z"/>
		<path class="st0" d="M3061.01,869.44h45.74v8.71h-17.72v48.62h-10.3v-48.62h-17.72L3061.01,869.44L3061.01,869.44z"/>
	</g>
	<rect id="Underline_1_" x="1192.85" y="807.87" class="st0" width="1913.7" height="13.67"/>
	<g id="Louis-Bernard_St-Jean_2_">
		<path class="st1" d="M1207.21,253.63c4.76,0,9.15-0.19,13.16-0.58c4.02-0.38,7.53-0.81,10.55-1.27c3.53-0.56,6.73-1.2,9.59-1.92
			l-1.77,10.21c-0.72-0.05-1.93-0.11-3.65-0.19c-1.71-0.08-3.52-0.13-5.41-0.15c-1.89-0.03-3.66-0.05-5.3-0.08
			c-1.64-0.03-2.76-0.04-3.38-0.04h-29.4v-0.31c0.36-1.07,0.68-2.46,0.96-4.14s0.51-3.77,0.69-6.26c0.18-2.48,0.32-5.44,0.42-8.87
			c0.1-3.43,0.15-7.45,0.15-12.05v-19.34c0-4.61-0.05-8.61-0.15-12.01c-0.1-3.4-0.24-6.34-0.42-8.83c-0.18-2.48-0.41-4.57-0.69-6.26
			c-0.28-1.69-0.6-3.07-0.96-4.14v-0.31h17.73v0.31c-0.36,1.07-0.67,2.46-0.92,4.14c-0.26,1.69-0.47,3.77-0.65,6.26
			c-0.18,2.48-0.32,5.42-0.42,8.83c-0.1,3.4-0.15,7.41-0.15,12.01L1207.21,253.63L1207.21,253.63z"/>
		<path class="st1" d="M1265.89,218.09c0-6.04,1.14-11.64,3.42-16.81c2.28-5.17,5.38-9.66,9.33-13.47c3.94-3.81,8.6-6.79,13.97-8.94
			c5.37-2.15,11.13-3.22,17.27-3.22c6.04,0,11.73,1.01,17.08,3.03c5.35,2.02,10,4.9,13.97,8.63c3.97,3.74,7.1,8.26,9.4,13.59
			c2.3,5.32,3.45,11.28,3.45,17.88c0,5.48-0.97,10.76-2.92,15.85c-1.95,5.09-4.79,9.59-8.52,13.51c-3.74,3.91-8.34,7.04-13.82,9.36
			c-5.48,2.33-11.74,3.49-18.8,3.49c-5.99,0-11.64-1-16.96-2.99c-5.32-2-9.98-4.85-13.97-8.56c-3.99-3.71-7.14-8.21-9.44-13.51
			C1267.04,230.64,1265.89,224.69,1265.89,218.09z M1311.64,255.55c3.89,0,7.47-0.77,10.75-2.3c3.27-1.54,6.1-3.73,8.48-6.6
			c2.38-2.87,4.22-6.36,5.53-10.48c1.3-4.12,1.96-8.76,1.96-13.93c0-5.88-0.63-11.33-1.88-16.35c-1.25-5.01-3.15-9.35-5.68-13.01
			c-2.53-3.66-5.69-6.52-9.48-8.6c-3.79-2.07-8.21-3.11-13.28-3.11c-3.89,0-7.47,0.74-10.75,2.23c-3.28,1.48-6.1,3.63-8.48,6.45
			c-2.38,2.81-4.23,6.27-5.56,10.36c-1.33,4.1-2,8.75-2,13.97c0,5.83,0.65,11.27,1.96,16.31c1.31,5.04,3.22,9.42,5.76,13.13
			c2.53,3.71,5.69,6.63,9.48,8.75C1302.22,254.49,1306.62,255.55,1311.64,255.55z"/>
		<path class="st1" d="M1452.39,208.34c0-4.55-0.03-8.52-0.08-11.9c-0.05-3.38-0.15-6.29-0.31-8.75c-0.15-2.46-0.33-4.51-0.54-6.18
			c-0.21-1.66-0.46-3.03-0.77-4.11v-0.31h11.28v0.31c-0.31,1.07-0.56,2.46-0.77,4.14c-0.21,1.69-0.38,3.77-0.54,6.26
			c-0.15,2.48-0.26,5.42-0.31,8.83c-0.05,3.4-0.08,7.41-0.08,12.01v22.03c0,5.53-0.86,10.24-2.57,14.12
			c-1.71,3.89-4.08,7.08-7.1,9.56c-3.02,2.48-6.61,4.3-10.78,5.45c-4.17,1.15-8.74,1.73-13.7,1.73c-5.02,0-9.67-0.55-13.97-1.65
			c-4.3-1.1-8.02-2.85-11.17-5.26c-3.15-2.4-5.63-5.53-7.45-9.36c-1.82-3.84-2.72-8.49-2.72-13.97v-22.64
			c0-4.61-0.05-8.61-0.15-12.01c-0.1-3.4-0.26-6.34-0.46-8.83c-0.21-2.48-0.43-4.57-0.69-6.26c-0.26-1.69-0.56-3.07-0.92-4.14v-0.31
			h17.73v0.31c-0.36,1.07-0.67,2.44-0.92,4.11c-0.26,1.66-0.47,3.72-0.65,6.18s-0.32,5.37-0.42,8.75c-0.1,3.38-0.15,7.34-0.15,11.9
			v22.95c0,4.56,0.69,8.3,2.07,11.24c1.38,2.94,3.2,5.28,5.45,7.02c2.25,1.74,4.81,2.96,7.68,3.65c2.87,0.69,5.81,1.04,8.83,1.04
			c3.07,0,6.05-0.35,8.94-1.04c2.89-0.69,5.47-1.91,7.75-3.65c2.28-1.74,4.09-4.08,5.45-7.02c1.36-2.94,2.03-6.69,2.03-11.24
			L1452.39,208.34L1452.39,208.34z"/>
		<path class="st1" d="M1503.92,208.65c0-4.61-0.05-8.61-0.15-12.01c-0.1-3.4-0.24-6.34-0.42-8.83c-0.18-2.48-0.41-4.57-0.69-6.26
			c-0.28-1.69-0.6-3.07-0.96-4.14v-0.31h17.81v0.31c-0.36,1.07-0.68,2.46-0.96,4.14c-0.28,1.69-0.51,3.77-0.69,6.26
			c-0.18,2.48-0.32,5.42-0.42,8.83c-0.1,3.4-0.15,7.41-0.15,12.01v19.34c0,4.61,0.05,8.62,0.15,12.05c0.1,3.43,0.24,6.38,0.42,8.87
			c0.18,2.48,0.41,4.57,0.69,6.26c0.28,1.69,0.6,3.07,0.96,4.14v0.31h-17.81v-0.31c0.36-1.07,0.68-2.46,0.96-4.14
			c0.28-1.69,0.51-3.77,0.69-6.26c0.18-2.48,0.32-5.44,0.42-8.87c0.1-3.43,0.15-7.45,0.15-12.05V208.65z"/>
		<path class="st1" d="M1597.91,193.14h-1.54c-0.31-0.87-0.81-1.97-1.5-3.3c-0.69-1.33-1.61-2.64-2.76-3.91
			c-1.15-1.28-2.57-2.37-4.26-3.26c-1.69-0.89-3.71-1.34-6.06-1.34c-1.79,0-3.39,0.3-4.8,0.88c-1.41,0.59-2.6,1.4-3.57,2.42
			c-0.97,1.03-1.72,2.24-2.23,3.65c-0.51,1.41-0.77,2.93-0.77,4.57c0,2.66,0.81,5.19,2.42,7.6c1.61,2.41,3.62,4.8,6.03,7.18
			c2.4,2.38,5.01,4.77,7.83,7.18c2.81,2.41,5.42,4.91,7.83,7.52c2.4,2.61,4.41,5.37,6.03,8.29c1.61,2.92,2.42,6.04,2.42,9.36
			c0,2.46-0.45,4.99-1.34,7.6c-0.9,2.61-2.34,4.96-4.34,7.06c-2,2.1-4.56,3.83-7.68,5.18c-3.12,1.35-6.91,2.03-11.36,2.03
			c-2.46,0-4.8-0.21-7.02-0.61c-2.23-0.41-4.27-0.91-6.14-1.5c-1.87-0.59-3.53-1.23-4.99-1.92c-1.46-0.69-2.68-1.34-3.65-1.96
			l1.38-14.51h1.61c0.51,1.79,1.27,3.58,2.27,5.37c1,1.79,2.23,3.42,3.68,4.87c1.46,1.46,3.17,2.64,5.14,3.53
			c1.97,0.9,4.23,1.34,6.79,1.34c1.79,0,3.48-0.29,5.07-0.88c1.59-0.59,2.96-1.42,4.11-2.49c1.15-1.07,2.06-2.39,2.73-3.95
			c0.66-1.56,1-3.31,1-5.26c0-2.3-0.46-4.44-1.38-6.41c-0.92-1.97-2.15-3.86-3.68-5.68c-1.54-1.82-3.26-3.57-5.18-5.26
			c-1.92-1.69-3.9-3.4-5.95-5.14c-2.05-1.74-4.03-3.52-5.95-5.33c-1.92-1.82-3.65-3.77-5.18-5.87c-1.54-2.1-2.76-4.34-3.68-6.72
			c-0.92-2.38-1.38-5-1.38-7.87c0-3.02,0.64-5.73,1.92-8.14c1.28-2.4,2.97-4.44,5.07-6.1c2.1-1.66,4.5-2.94,7.21-3.84
			c2.71-0.9,5.53-1.34,8.44-1.34c2.15,0,4.16,0.15,6.03,0.46c1.87,0.31,3.56,0.68,5.07,1.11c1.51,0.44,2.83,0.87,3.95,1.31
			c1.12,0.43,2.05,0.78,2.76,1.04L1597.91,193.14z"/>
		<path class="st1" d="M1634.5,224.54v-10.98h51.89v10.98H1634.5z"/>
		<path class="st1" d="M1724.46,176.95c0.97,0.05,1.97,0.08,2.99,0.08c0.87,0.05,1.82,0.08,2.84,0.08c1.02,0,2.02,0,2.99,0
			c1.59,0,3.79-0.1,6.6-0.31c2.81-0.2,6.32-0.31,10.52-0.31c3.73,0,7.2,0.45,10.4,1.34c3.2,0.9,5.96,2.19,8.29,3.88
			c2.33,1.69,4.14,3.76,5.45,6.22c1.31,2.46,1.96,5.25,1.96,8.37c0,2.66-0.37,5.03-1.11,7.1c-0.74,2.07-1.8,3.89-3.19,5.45
			c-1.38,1.56-3.05,2.87-4.99,3.91c-1.95,1.05-4.1,1.88-6.45,2.49c3.43,0.51,6.55,1.36,9.36,2.53c2.81,1.18,5.22,2.65,7.21,4.41
			c2,1.76,3.53,3.84,4.61,6.22c1.07,2.38,1.61,5.03,1.61,7.94c0,8.09-2.89,14.14-8.67,18.15c-5.78,4.02-14.4,6.03-25.87,6.03
			c-1.23,0-2.75-0.05-4.57-0.15c-1.82-0.1-3.71-0.21-5.68-0.31c-1.97-0.1-3.86-0.21-5.68-0.31c-1.82-0.1-3.34-0.15-4.57-0.15h-4.07
			v-0.31c0.36-1.07,0.68-2.46,0.96-4.14c0.28-1.69,0.51-3.77,0.69-6.26c0.18-2.48,0.32-5.44,0.42-8.87
			c0.1-3.43,0.15-7.45,0.15-12.05v-19.34c0-4.61-0.05-8.62-0.15-12.05c-0.1-3.43-0.24-6.4-0.42-8.9c-0.18-2.51-0.41-4.61-0.69-6.29
			c-0.28-1.69-0.6-3.07-0.96-4.14V176.95L1724.46,176.95z M1740.04,214.02c1.02,0.15,1.94,0.24,2.76,0.27
			c0.82,0.03,1.66,0.04,2.53,0.04c5.17,0,9.27-1.43,12.32-4.3c3.04-2.87,4.57-7.14,4.57-12.82c0-2.3-0.31-4.42-0.92-6.37
			c-0.61-1.94-1.5-3.61-2.65-4.99c-1.15-1.38-2.58-2.46-4.3-3.22c-1.72-0.77-3.67-1.15-5.87-1.15c-1.48,0-2.74,0.06-3.76,0.19
			c-1.03,0.13-1.89,0.24-2.61,0.34c-0.82,0.21-1.51,0.38-2.07,0.54L1740.04,214.02L1740.04,214.02z M1750.25,219.24
			c-2.46,0-4.54,0.09-6.26,0.27c-1.71,0.18-3.03,0.35-3.95,0.5v7.98c0,4.4,0.01,8.09,0.04,11.05c0.02,2.97,0.08,5.45,0.15,7.45
			s0.14,3.6,0.19,4.8c0.05,1.2,0.13,2.24,0.23,3.11c1.33,0.36,2.75,0.59,4.26,0.69c1.51,0.1,2.7,0.15,3.57,0.15
			c7.06,0,12.19-1.55,15.39-4.64c3.2-3.1,4.8-7.89,4.8-14.39c0-2.46-0.38-4.73-1.15-6.83c-0.77-2.1-1.92-3.89-3.45-5.37
			c-1.54-1.48-3.45-2.65-5.76-3.49C1756.01,219.66,1753.32,219.24,1750.25,219.24z"/>
		<path class="st1" d="M1834.55,177.06c5.27-0.03,10.16-0.08,14.66-0.15c4.5-0.08,8.38-0.17,11.63-0.27
			c3.25-0.1,5.38-0.26,6.41-0.46l-2.99,8.29c-1.38-0.36-2.94-0.69-4.68-1c-1.54-0.26-3.39-0.5-5.56-0.73
			c-2.17-0.23-4.7-0.35-7.56-0.35c-1.03,0-2.2,0.04-3.53,0.11c-1.33,0.08-2.61,0.17-3.84,0.27c-1.43,0.1-2.89,0.21-4.38,0.31v30.32
			c4.14-0.05,7.88-0.15,11.21-0.31c3.33-0.15,6.17-0.36,8.52-0.61c2.76-0.2,5.19-0.49,7.29-0.84l-1.84,9.13
			c-2.81-0.36-5.66-0.66-8.52-0.92c-2.46-0.26-5.17-0.47-8.14-0.65c-2.97-0.18-5.81-0.27-8.52-0.27v34.85
			c4.76,0,9.13-0.19,13.13-0.58c3.99-0.38,7.47-0.81,10.44-1.27c3.48-0.56,6.63-1.2,9.44-1.92l-1.77,10.06
			c-0.77-0.05-2.01-0.11-3.72-0.19c-1.72-0.08-3.51-0.13-5.37-0.15c-1.87-0.03-3.62-0.05-5.26-0.08c-1.64-0.03-2.76-0.04-3.38-0.04
			h-29.09v-0.31c0.36-1.07,0.68-2.46,0.96-4.14s0.51-3.77,0.69-6.26c0.18-2.48,0.32-5.44,0.42-8.87c0.1-3.43,0.15-7.45,0.15-12.05
			v-19.34c0-4.61-0.05-8.61-0.15-12.01c-0.1-3.4-0.24-6.34-0.42-8.83c-0.18-2.48-0.41-4.57-0.69-6.26c-0.28-1.69-0.6-3.07-0.96-4.14
			v-0.31C1824.14,177.1,1829.28,177.09,1834.55,177.06z"/>
		<path class="st1" d="M1929.73,224.54c-1.03,0.15-2.03,0.24-3.03,0.27c-1,0.03-2.01,0.04-3.03,0.04c-0.82,0-1.72-0.03-2.69-0.08
			c-0.97-0.05-1.97-0.13-2.99-0.23v3.76c0,4.56,0.05,8.53,0.15,11.93c0.1,3.4,0.24,6.33,0.42,8.79c0.18,2.46,0.4,4.52,0.65,6.18
			c0.26,1.66,0.56,3.03,0.92,4.11v0.31h-17.73v-0.31c0.36-1.07,0.68-2.46,0.96-4.14c0.28-1.69,0.51-3.77,0.69-6.26
			c0.18-2.48,0.32-5.44,0.42-8.87c0.1-3.43,0.15-7.45,0.15-12.05v-19.34c0-4.61-0.05-8.61-0.15-12.01c-0.1-3.4-0.24-6.34-0.42-8.83
			c-0.18-2.48-0.41-4.57-0.69-6.26c-0.28-1.69-0.6-3.07-0.96-4.14v-0.31c0.82,0.05,1.69,0.1,2.61,0.15
			c0.77,0.05,1.62,0.09,2.57,0.11c0.95,0.03,1.91,0.04,2.88,0.04c1.64,0,4.07-0.15,7.29-0.46c3.22-0.31,7.01-0.46,11.36-0.46
			c4.4,0,8.41,0.54,12.01,1.61c3.61,1.07,6.7,2.61,9.29,4.61c2.58,2,4.58,4.43,5.99,7.29c1.41,2.87,2.11,6.06,2.11,9.59
			c0,2.76-0.38,5.28-1.15,7.56c-0.77,2.28-1.84,4.32-3.22,6.14c-1.38,1.82-3.02,3.42-4.91,4.8c-1.89,1.38-3.99,2.58-6.29,3.61
			l16.04,22.64c1.38,1.84,2.77,3.61,4.18,5.3c1.41,1.69,2.75,3.2,4.03,4.53c1.28,1.33,2.48,2.44,3.61,3.34
			c1.12,0.9,2.07,1.5,2.84,1.8v0.31h-20.11c0-0.46-0.32-1.27-0.96-2.42c-0.64-1.15-1.38-2.35-2.23-3.61
			c-0.84-1.25-1.69-2.47-2.53-3.65c-0.84-1.18-1.47-2.05-1.88-2.61L1929.73,224.54z M1917.98,219.55c1.02,0.15,2.06,0.27,3.11,0.35
			c1.05,0.08,2.06,0.11,3.03,0.11c6.4,0,11.25-1.71,14.55-5.14c3.3-3.43,4.95-8.57,4.95-15.43c0-5.63-1.32-10.08-3.95-13.36
			c-2.64-3.27-6.51-4.91-11.63-4.91c-1.64,0-3.08,0.06-4.34,0.19c-1.25,0.13-2.32,0.27-3.19,0.42c-0.97,0.21-1.82,0.41-2.53,0.61
			L1917.98,219.55L1917.98,219.55z"/>
		<path class="st1" d="M2077.97,260.69h-2.99l-61.02-60.02v27.32c0,4.61,0.03,8.62,0.08,12.05c0.05,3.43,0.14,6.38,0.27,8.87
			c0.13,2.48,0.31,4.57,0.54,6.26c0.23,1.69,0.52,3.07,0.88,4.14v0.31h-11.51v-0.31c0.36-1.07,0.66-2.46,0.92-4.14
			c0.26-1.69,0.46-3.77,0.61-6.26c0.15-2.48,0.26-5.44,0.31-8.87c0.05-3.43,0.08-7.45,0.08-12.05v-19.34
			c0-4.61-0.03-8.61-0.08-12.01c-0.05-3.4-0.15-6.34-0.31-8.83c-0.15-2.48-0.36-4.57-0.61-6.26c-0.26-1.69-0.56-3.07-0.92-4.14
			v-0.31h4.76l61.1,60.33v-28.78c0-4.61-0.03-8.61-0.08-12.01c-0.05-3.4-0.14-6.34-0.27-8.83c-0.13-2.48-0.3-4.57-0.5-6.26
			c-0.21-1.69-0.49-3.07-0.84-4.14v-0.31h11.44v0.31c-0.36,1.07-0.65,2.46-0.88,4.14c-0.23,1.69-0.42,3.77-0.58,6.26
			c-0.15,2.48-0.26,5.42-0.31,8.83c-0.05,3.4-0.08,7.41-0.08,12.01L2077.97,260.69L2077.97,260.69z"/>
		<path class="st1" d="M2171.17,233.67c-1.38,0-3.11,0-5.18,0s-4.34,0-6.79,0s-4.99,0-7.6,0c-2.61,0-5.09,0.01-7.45,0.04
			c-2.36,0.03-4.5,0.05-6.45,0.08c-1.95,0.03-3.45,0.04-4.53,0.04l-2.84,5.99c-1.23,2.46-2.28,4.59-3.15,6.41
			c-0.87,1.82-1.59,3.42-2.15,4.8c-0.56,1.38-0.97,2.57-1.23,3.57c-0.26,1-0.38,1.93-0.38,2.8c0,0.56,0.03,0.99,0.08,1.27
			c0.05,0.28,0.13,0.5,0.23,0.65v0.31h-13.51v-0.31c0.36-0.36,0.92-1.14,1.69-2.34c0.77-1.2,1.65-2.67,2.65-4.41
			c1-1.74,2.07-3.71,3.22-5.91c1.15-2.2,2.29-4.48,3.42-6.83l31.32-64.63h5.76l30.7,64.63c1.17,2.46,2.36,4.81,3.57,7.06
			c1.2,2.25,2.31,4.26,3.34,6.03c1.02,1.76,1.92,3.22,2.69,4.37c0.77,1.15,1.28,1.83,1.53,2.03v0.31h-19.65
			c0.1-0.41,0.15-0.78,0.15-1.11c0-0.33,0-0.7,0-1.11c0-1.12-0.24-2.48-0.73-4.07c-0.49-1.59-1.08-3.21-1.76-4.87
			c-0.69-1.66-1.41-3.26-2.15-4.8c-0.74-1.54-1.34-2.81-1.8-3.84L2171.17,233.67z M2136.17,227.68h4.68c2.15,0,4.44-0.01,6.87-0.04
			c2.43-0.02,4.87-0.04,7.33-0.04c2.46,0,4.84-0.01,7.14-0.04c2.3-0.03,4.38-0.04,6.22-0.04l-15.89-33.93L2136.17,227.68z"/>
		<path class="st1" d="M2258.87,224.54c-1.02,0.15-2.03,0.24-3.03,0.27c-1,0.03-2.01,0.04-3.03,0.04c-0.82,0-1.72-0.03-2.69-0.08
			c-0.97-0.05-1.97-0.13-2.99-0.23v3.76c0,4.56,0.05,8.53,0.15,11.93c0.1,3.4,0.24,6.33,0.42,8.79c0.18,2.46,0.4,4.52,0.65,6.18
			c0.26,1.66,0.56,3.03,0.92,4.11v0.31h-17.73v-0.31c0.36-1.07,0.68-2.46,0.96-4.14c0.28-1.69,0.51-3.77,0.69-6.26
			c0.18-2.48,0.32-5.44,0.42-8.87c0.1-3.43,0.15-7.45,0.15-12.05v-19.34c0-4.61-0.05-8.61-0.15-12.01c-0.1-3.4-0.24-6.34-0.42-8.83
			c-0.18-2.48-0.41-4.57-0.69-6.26c-0.28-1.69-0.6-3.07-0.96-4.14v-0.31c0.82,0.05,1.69,0.1,2.61,0.15
			c0.77,0.05,1.62,0.09,2.57,0.11c0.95,0.03,1.91,0.04,2.88,0.04c1.64,0,4.07-0.15,7.29-0.46c3.22-0.31,7.01-0.46,11.36-0.46
			c4.4,0,8.41,0.54,12.01,1.61c3.61,1.07,6.7,2.61,9.29,4.61c2.58,2,4.58,4.43,5.99,7.29c1.41,2.87,2.11,6.06,2.11,9.59
			c0,2.76-0.38,5.28-1.15,7.56c-0.77,2.28-1.84,4.32-3.22,6.14c-1.38,1.82-3.02,3.42-4.91,4.8c-1.89,1.38-3.99,2.58-6.29,3.61
			l16.04,22.64c1.38,1.84,2.77,3.61,4.18,5.3c1.41,1.69,2.75,3.2,4.03,4.53c1.28,1.33,2.48,2.44,3.61,3.34
			c1.12,0.9,2.07,1.5,2.84,1.8v0.31h-20.11c0-0.46-0.32-1.27-0.96-2.42c-0.64-1.15-1.38-2.35-2.23-3.61
			c-0.84-1.25-1.69-2.47-2.53-3.65c-0.84-1.18-1.47-2.05-1.88-2.61L2258.87,224.54z M2247.12,219.55c1.02,0.15,2.06,0.27,3.11,0.35
			c1.05,0.08,2.06,0.11,3.03,0.11c6.4,0,11.25-1.71,14.55-5.14c3.3-3.43,4.95-8.57,4.95-15.43c0-5.63-1.32-10.08-3.95-13.36
			c-2.64-3.27-6.51-4.91-11.63-4.91c-1.64,0-3.08,0.06-4.34,0.19c-1.25,0.13-2.32,0.27-3.19,0.42c-0.97,0.21-1.82,0.41-2.53,0.61
			L2247.12,219.55L2247.12,219.55z"/>
		<path class="st1" d="M2333.35,176.95c1.23,0.05,2.38,0.08,3.45,0.08c0.92,0.05,1.82,0.08,2.69,0.08c0.87,0,1.51,0,1.92,0
			c0.72,0,2-0.03,3.84-0.08s3.93-0.11,6.26-0.19c2.33-0.08,4.78-0.15,7.37-0.23c2.58-0.08,4.98-0.11,7.18-0.11
			c5.99,0,11.69,0.69,17.12,2.07s10.2,3.65,14.32,6.79c4.12,3.15,7.38,7.27,9.79,12.36c2.4,5.09,3.61,11.37,3.61,18.84
			c0,8.03-1.38,14.84-4.15,20.42c-2.76,5.58-6.5,10.12-11.2,13.62c-4.71,3.5-10.17,6.04-16.39,7.6c-6.22,1.56-12.78,2.34-19.69,2.34
			c-1.64,0-3.68-0.05-6.14-0.15c-2.46-0.1-4.96-0.21-7.52-0.31c-2.56-0.1-4.98-0.21-7.25-0.31c-2.28-0.1-4.01-0.15-5.18-0.15v-0.31
			c0.36-1.07,0.68-2.46,0.96-4.14c0.28-1.69,0.51-3.77,0.69-6.26c0.18-2.48,0.32-5.44,0.42-8.87c0.1-3.43,0.15-7.45,0.15-12.05
			v-19.34c0-4.61-0.05-8.62-0.15-12.05c-0.1-3.43-0.24-6.4-0.42-8.9c-0.18-2.51-0.41-4.61-0.69-6.29c-0.28-1.69-0.6-3.07-0.96-4.14
			L2333.35,176.95L2333.35,176.95z M2349.24,182.55c-0.05,4.2-0.1,8.26-0.15,12.2c0,1.69-0.01,3.42-0.04,5.18
			c-0.03,1.76-0.05,3.52-0.08,5.26c-0.03,1.74-0.04,3.39-0.04,4.95c0,1.56,0,2.96,0,4.18c0,2.56,0.01,5.64,0.04,9.25
			c0.03,3.61,0.06,7.3,0.11,11.09c0.05,3.79,0.13,7.43,0.23,10.94c0.1,3.51,0.23,6.44,0.38,8.79c0.51,0.1,1.18,0.19,2,0.27
			c0.82,0.08,1.68,0.15,2.57,0.23c0.89,0.08,1.78,0.13,2.65,0.15c0.87,0.03,1.61,0.04,2.23,0.04c2.81,0,5.67-0.18,8.56-0.54
			c2.89-0.36,5.68-1.04,8.37-2.03c2.69-1,5.21-2.37,7.56-4.11c2.35-1.74,4.41-3.98,6.18-6.72c1.76-2.74,3.15-6.04,4.14-9.9
			c1-3.86,1.5-8.43,1.5-13.7c0-11.62-2.78-20.57-8.33-26.86c-5.55-6.29-13.83-9.44-24.83-9.44c-1.07,0-2.21,0.03-3.42,0.08
			c-1.2,0.05-2.39,0.11-3.57,0.19c-1.18,0.08-2.29,0.17-3.34,0.27C2350.91,182.42,2350,182.5,2349.24,182.55z"/>
		<path class="st1" d="M2559.05,193.14h-1.53c-0.31-0.87-0.81-1.97-1.5-3.3c-0.69-1.33-1.61-2.64-2.76-3.91
			c-1.15-1.28-2.57-2.37-4.26-3.26c-1.69-0.89-3.71-1.34-6.06-1.34c-1.79,0-3.39,0.3-4.8,0.88c-1.41,0.59-2.6,1.4-3.57,2.42
			c-0.97,1.03-1.71,2.24-2.23,3.65c-0.51,1.41-0.77,2.93-0.77,4.57c0,2.66,0.81,5.19,2.42,7.6c1.61,2.41,3.62,4.8,6.03,7.18
			c2.4,2.38,5.01,4.77,7.83,7.18c2.81,2.41,5.42,4.91,7.83,7.52c2.4,2.61,4.41,5.37,6.03,8.29c1.61,2.92,2.42,6.04,2.42,9.36
			c0,2.46-0.45,4.99-1.34,7.6c-0.9,2.61-2.34,4.96-4.34,7.06c-2,2.1-4.55,3.83-7.68,5.18c-3.12,1.35-6.91,2.03-11.36,2.03
			c-2.46,0-4.8-0.21-7.02-0.61c-2.23-0.41-4.27-0.91-6.14-1.5c-1.87-0.59-3.53-1.23-4.99-1.92c-1.46-0.69-2.67-1.34-3.65-1.96
			l1.38-14.51h1.61c0.51,1.79,1.27,3.58,2.26,5.37c1,1.79,2.23,3.42,3.68,4.87c1.46,1.46,3.17,2.64,5.14,3.53
			c1.97,0.9,4.23,1.34,6.79,1.34c1.79,0,3.48-0.29,5.07-0.88c1.59-0.59,2.96-1.42,4.11-2.49c1.15-1.07,2.06-2.39,2.73-3.95
			c0.66-1.56,1-3.31,1-5.26c0-2.3-0.46-4.44-1.38-6.41c-0.92-1.97-2.15-3.86-3.68-5.68c-1.54-1.82-3.26-3.57-5.18-5.26
			c-1.92-1.69-3.9-3.4-5.95-5.14c-2.05-1.74-4.03-3.52-5.95-5.33c-1.92-1.82-3.65-3.77-5.18-5.87c-1.54-2.1-2.76-4.34-3.68-6.72
			c-0.92-2.38-1.38-5-1.38-7.87c0-3.02,0.64-5.73,1.92-8.14c1.28-2.4,2.97-4.44,5.06-6.1c2.1-1.66,4.5-2.94,7.22-3.84
			c2.71-0.9,5.53-1.34,8.44-1.34c2.15,0,4.16,0.15,6.03,0.46c1.87,0.31,3.56,0.68,5.07,1.11c1.51,0.44,2.83,0.87,3.95,1.31
			c1.12,0.43,2.05,0.78,2.76,1.04L2559.05,193.14z"/>
		<path class="st1" d="M2622.55,182.78c-4.66,0-8.89,0.21-12.7,0.61c-3.81,0.41-7.1,0.84-9.86,1.31c-3.17,0.56-6.04,1.18-8.6,1.84
			l1.54-9.9c0.77,0.1,2.02,0.18,3.76,0.23c1.74,0.05,3.57,0.09,5.49,0.11c1.92,0.03,3.73,0.05,5.45,0.08
			c1.71,0.03,2.9,0.04,3.57,0.04h36.31c0.61,0,1.75-0.01,3.42-0.04c1.66-0.03,3.44-0.05,5.33-0.08c1.89-0.02,3.71-0.06,5.45-0.11
			c1.74-0.05,2.99-0.13,3.76-0.23l1.54,9.9c-2.46-0.66-5.27-1.28-8.45-1.84c-2.71-0.46-5.97-0.89-9.79-1.31
			c-3.81-0.41-8.1-0.61-12.86-0.61v45.21c0,4.61,0.05,8.62,0.15,12.05c0.1,3.43,0.24,6.38,0.42,8.87c0.18,2.48,0.4,4.57,0.65,6.26
			c0.26,1.69,0.56,3.07,0.92,4.14v0.31h-17.73v-0.31c0.36-1.07,0.66-2.46,0.92-4.14c0.26-1.69,0.48-3.77,0.69-6.26
			c0.2-2.48,0.36-5.44,0.46-8.87c0.1-3.43,0.15-7.45,0.15-12.05L2622.55,182.78L2622.55,182.78z"/>
		<path class="st1" d="M2684.31,224.54v-10.98h51.89v10.98H2684.31z"/>
		<path class="st1" d="M2777.04,208.65c0-4.61-0.05-8.61-0.15-12.01c-0.1-3.4-0.24-6.34-0.42-8.83c-0.18-2.48-0.41-4.57-0.69-6.26
			c-0.28-1.69-0.6-3.07-0.96-4.14v-0.31h17.81v0.31c-0.36,1.07-0.68,2.46-0.96,4.14c-0.28,1.69-0.51,3.77-0.69,6.26
			c-0.18,2.48-0.32,5.42-0.42,8.83c-0.1,3.4-0.15,7.41-0.15,12.01v35.54c0,7.27-0.63,13.41-1.88,18.42
			c-1.25,5.01-3.07,9.38-5.45,13.09c-2.38,3.71-5.26,7.02-8.64,9.94c-3.38,2.92-7.21,5.94-11.51,9.06l-1.46-1.77
			c3.73-3.38,6.65-6.74,8.75-10.09c2.1-3.35,3.65-6.95,4.64-10.79c1-3.84,1.61-8.02,1.84-12.55c0.23-4.53,0.35-9.63,0.35-15.31
			V208.65z"/>
		<path class="st1" d="M2848.02,177.06c5.27-0.03,10.16-0.08,14.66-0.15c4.5-0.08,8.38-0.17,11.63-0.27
			c3.25-0.1,5.38-0.26,6.41-0.46l-2.99,8.29c-1.38-0.36-2.94-0.69-4.68-1c-1.53-0.26-3.39-0.5-5.56-0.73
			c-2.18-0.23-4.7-0.35-7.56-0.35c-1.02,0-2.2,0.04-3.53,0.11c-1.33,0.08-2.61,0.17-3.84,0.27c-1.43,0.1-2.89,0.21-4.37,0.31v30.32
			c4.14-0.05,7.88-0.15,11.21-0.31c3.33-0.15,6.17-0.36,8.52-0.61c2.76-0.2,5.19-0.49,7.29-0.84l-1.84,9.13
			c-2.82-0.36-5.66-0.66-8.52-0.92c-2.46-0.26-5.17-0.47-8.13-0.65c-2.97-0.18-5.81-0.27-8.52-0.27v34.85
			c4.76,0,9.14-0.19,13.13-0.58c3.99-0.38,7.47-0.81,10.44-1.27c3.48-0.56,6.63-1.2,9.44-1.92l-1.76,10.06
			c-0.77-0.05-2.01-0.11-3.72-0.19c-1.72-0.08-3.5-0.13-5.37-0.15c-1.87-0.03-3.62-0.05-5.26-0.08c-1.64-0.03-2.76-0.04-3.38-0.04
			h-29.09v-0.31c0.36-1.07,0.68-2.46,0.96-4.14c0.28-1.69,0.51-3.77,0.69-6.26c0.18-2.48,0.32-5.44,0.42-8.87
			c0.1-3.43,0.15-7.45,0.15-12.05v-19.34c0-4.61-0.05-8.61-0.15-12.01c-0.1-3.4-0.24-6.34-0.42-8.83c-0.18-2.48-0.41-4.57-0.69-6.26
			c-0.28-1.69-0.6-3.07-0.96-4.14v-0.31C2837.6,177.1,2842.75,177.09,2848.02,177.06z"/>
		<path class="st1" d="M2971.52,233.67c-1.38,0-3.11,0-5.18,0c-2.07,0-4.34,0-6.79,0s-4.99,0-7.6,0c-2.61,0-5.09,0.01-7.45,0.04
			c-2.36,0.03-4.5,0.05-6.45,0.08c-1.95,0.03-3.45,0.04-4.53,0.04l-2.84,5.99c-1.23,2.46-2.28,4.59-3.15,6.41
			c-0.87,1.82-1.59,3.42-2.15,4.8c-0.56,1.38-0.97,2.57-1.23,3.57c-0.26,1-0.38,1.93-0.38,2.8c0,0.56,0.03,0.99,0.08,1.27
			c0.05,0.28,0.13,0.5,0.23,0.65v0.31h-13.51v-0.31c0.36-0.36,0.92-1.14,1.69-2.34c0.77-1.2,1.65-2.67,2.65-4.41
			c1-1.74,2.07-3.71,3.22-5.91c1.15-2.2,2.29-4.48,3.42-6.83l31.32-64.63h5.76l30.7,64.63c1.18,2.46,2.37,4.81,3.57,7.06
			c1.2,2.25,2.31,4.26,3.34,6.03c1.02,1.76,1.92,3.22,2.69,4.37c0.77,1.15,1.28,1.83,1.54,2.03v0.31h-19.65
			c0.1-0.41,0.15-0.78,0.15-1.11c0-0.33,0-0.7,0-1.11c0-1.12-0.24-2.48-0.73-4.07c-0.49-1.59-1.07-3.21-1.76-4.87
			c-0.69-1.66-1.41-3.26-2.15-4.8c-0.74-1.54-1.34-2.81-1.8-3.84L2971.52,233.67z M2936.52,227.68h4.68c2.15,0,4.44-0.01,6.87-0.04
			c2.43-0.02,4.87-0.04,7.33-0.04s4.84-0.01,7.14-0.04c2.3-0.03,4.38-0.04,6.22-0.04l-15.89-33.93L2936.52,227.68z"/>
		<path class="st1" d="M3105.66,260.69h-2.99l-61.02-60.02v27.32c0,4.61,0.03,8.62,0.08,12.05c0.05,3.43,0.14,6.38,0.27,8.87
			c0.13,2.48,0.31,4.57,0.54,6.26c0.23,1.69,0.52,3.07,0.88,4.14v0.31h-11.52v-0.31c0.36-1.07,0.66-2.46,0.92-4.14
			c0.26-1.69,0.46-3.77,0.61-6.26c0.15-2.48,0.26-5.44,0.31-8.87c0.05-3.43,0.08-7.45,0.08-12.05v-19.34
			c0-4.61-0.03-8.61-0.08-12.01c-0.05-3.4-0.15-6.34-0.31-8.83c-0.15-2.48-0.36-4.57-0.61-6.26c-0.26-1.69-0.56-3.07-0.92-4.14
			v-0.31h4.76l61.1,60.33v-28.78c0-4.61-0.03-8.61-0.08-12.01c-0.05-3.4-0.14-6.34-0.27-8.83c-0.13-2.48-0.3-4.57-0.5-6.26
			c-0.21-1.69-0.49-3.07-0.84-4.14v-0.31h11.44v0.31c-0.36,1.07-0.65,2.46-0.88,4.14c-0.23,1.69-0.42,3.77-0.58,6.26
			c-0.15,2.48-0.26,5.42-0.31,8.83c-0.05,3.4-0.08,7.41-0.08,12.01L3105.66,260.69L3105.66,260.69z"/>
	</g>
</g>
</svg>
