<?xml version="1.0" encoding="utf-8"?>
<!-- Generator: Adobe Illustrator 23.1.0, SVG Export Plug-In . SVG Version: 6.00 Build 0)  -->
<!DOCTYPE svg PUBLIC "-//W3C//DTD SVG 1.1//EN" "http://www.w3.org/Graphics/SVG/1.1/DTD/svg11.dtd" [
	<!ENTITY ns_extend "http://ns.adobe.com/Extensibility/1.0/">
	<!ENTITY ns_ai "http://ns.adobe.com/AdobeIllustrator/10.0/">
	<!ENTITY ns_graphs "http://ns.adobe.com/Graphs/1.0/">
	<!ENTITY ns_vars "http://ns.adobe.com/Variables/1.0/">
	<!ENTITY ns_imrep "http://ns.adobe.com/ImageReplacement/1.0/">
	<!ENTITY ns_sfw "http://ns.adobe.com/SaveForWeb/1.0/">
	<!ENTITY ns_custom "http://ns.adobe.com/GenericCustomNamespace/1.0/">
	<!ENTITY ns_adobe_xpath "http://ns.adobe.com/XPath/1.0/">
]>
<svg version="1.1" id="Layer_1" xmlns:x="&ns_extend;" xmlns:i="&ns_ai;" xmlns:graph="&ns_graphs;"
	 xmlns="http://www.w3.org/2000/svg" xmlns:xlink="http://www.w3.org/1999/xlink" x="0px" y="0px" viewBox="0 0 300 1100"
	 style="enable-background:new 0 0 300 1100;" xml:space="preserve">
<metadata>
	<sfw  xmlns="&ns_sfw;">
		<slices></slices>
		<sliceSourceBounds  bottomLeftOrigin="true" height="1045.04" width="243.12" x="465.94" y="-2983.52"></sliceSourceBounds>
	</sfw>
</metadata>
<g>
	<path style="fill:#FFFFFF;" d="M236.52,1072.52H30.36v-82.56H70.2v40.56h40.08v-38.88h38.88v38.88h47.28v-43.2h40.08V1072.52z"/>
	<path style="fill:#FFFFFF;" d="M185.64,981.66l-13.92-0.24v-42l20.64-0.24c4.16,0,7.32-0.8,9.48-2.4c2.16-1.6,3.24-4.24,3.24-7.92
		c0-5.6-4.56-8.4-13.68-8.4c-6.72,0-12,1.32-15.84,3.96c-3.84,2.64-7.92,6.84-12.24,12.6l-17.28,22.32
		c-5.92,7.68-12.04,13.2-18.36,16.56c-6.32,3.36-15.24,5.04-26.76,5.04c-8.96,0-16.6-2.36-22.92-7.08
		c-6.32-4.72-11.08-11-14.28-18.84c-3.2-7.84-4.8-16.56-4.8-26.16c0-34.08,16.96-51.12,50.88-51.12h3.36v43.44h-6.72
		c-4.16,0-7.72,0.68-10.68,2.04c-2.96,1.36-4.44,3.64-4.44,6.84c0,2.88,0.84,5.08,2.52,6.6c1.68,1.52,3.96,2.28,6.84,2.28
		c6.4,0,11.36-2.48,14.88-7.44l18.96-25.92c6.88-9.28,14.36-16.4,22.44-21.36c8.08-4.96,18.28-7.44,30.6-7.44
		c16.32,0,28.88,4.64,37.68,13.92c8.8,9.28,13.2,22.24,13.2,38.88C238.44,964.3,220.84,981.66,185.64,981.66z"/>
	<path style="fill:#FFFFFF;" d="M60.84,869.27v-42.72h9.36c-7.52-6.08-11.28-14.48-11.28-25.2c0-13.6,4.56-23.08,13.68-28.44
		c9.12-5.36,21.76-8.04,37.92-8.04h65.04c13.76,0,25,0.8,33.72,2.4c8.72,1.6,15.76,5.12,21.12,10.56
		c5.36,5.44,8.04,13.68,8.04,24.72c0,10.56-2.96,18.56-8.88,24h42v42.72H60.84z M200.52,809.03c-3.52-1.12-8.64-1.68-15.36-1.68
		h-74.64c-6.08,0-10.72,0.56-13.92,1.68c-3.2,1.12-4.8,3.68-4.8,7.68c0,6.56,6.08,9.84,18.24,9.84h77.04
		c5.92,0,10.52-0.68,13.8-2.04c3.28-1.36,4.92-4.04,4.92-8.04C205.8,812.63,204.04,810.15,200.52,809.03z"/>
	<path style="fill:#FFFFFF;" d="M224.88,750.25c-9.04,5.04-21.96,7.56-38.76,7.56c-13.76,0-24.32-1.8-31.68-5.4
		c-7.36-3.6-12.76-8.6-16.2-15c-3.44-6.4-7.24-16.16-11.4-29.28L123,696.61h-0.48H105c-4.64,0-8.2,0.92-10.68,2.76
		c-2.48,1.84-3.72,4.04-3.72,6.6c0,2.24,1.04,4.2,3.12,5.88c2.08,1.68,4.88,2.52,8.4,2.52h10.56v40.8h-5.76
		c-17.28,0-29.6-4.04-36.96-12.12c-7.36-8.08-11.04-21.24-11.04-39.48c0-14.56,3.8-26.4,11.4-35.52
		c7.6-9.12,18.36-13.68,32.28-13.68h133.92v41.76h-20.88c7.2,2.08,12.8,5.4,16.8,9.96c4,4.56,6,9.96,6,16.2
		C238.44,735.89,233.92,745.21,224.88,750.25z M201.84,698.89c-2.64-1.36-5.88-2.04-9.72-2.04h-48.96c2.4,6.24,5.44,10.84,9.12,13.8
		c3.68,2.96,8.8,4.44,15.36,4.44h22.56c10.4,0,15.6-3.12,15.6-9.36C205.8,702.53,204.48,700.25,201.84,698.89z"/>
	<path style="fill:#FFFFFF;" d="M223.8,632.87c-9.76,8.48-24.72,12.72-44.88,12.72h-54.24c-15.2,0-27.56-1.64-37.08-4.92
		c-9.52-3.28-16.68-8.8-21.48-16.56c-4.8-7.76-7.2-18.52-7.2-32.28c0-15.04,3.92-27.28,11.76-36.72
		c7.84-9.44,18.8-14.16,32.88-14.16h26.88v42.72h-24.72c-4.64,0-8.2,0.64-10.68,1.92c-2.48,1.28-3.72,3.76-3.72,7.44
		c0,6.88,4.88,10.32,14.64,10.32h85.2c4,0,7.4-0.84,10.2-2.52c2.8-1.68,4.2-4.2,4.2-7.56c0-3.36-1.36-5.88-4.08-7.56
		c-2.72-1.68-6.24-2.44-10.56-2.28l-29.52,0.24v-42.72h30.72c14.4,0,25.72,4.68,33.96,14.04c8.24,9.36,12.36,21.48,12.36,36.36
		C238.44,610.55,233.56,624.39,223.8,632.87z"/>
	<path style="fill:#FFFFFF;" d="M223.56,521.58c-9.92,7.84-24.72,11.76-44.4,11.76H108.6c-16.16,0-28.48-4.64-36.96-13.92
		c-8.48-9.28-12.72-22.24-12.72-38.88c0-33.76,16.56-50.64,49.68-50.64h12.72c12.8,0,23.2,0.16,31.2,0.48v60.96h34.08
		c6.08,0,10.84-0.64,14.28-1.92c3.44-1.28,5.16-4,5.16-8.16c0-3.2-0.96-5.48-2.88-6.84c-1.92-1.36-4.12-2.16-6.6-2.4
		c-2.48-0.24-6.12-0.36-10.92-0.36H168.6V429.9h10.08c20.48,0,35.56,3.96,45.24,11.88c9.68,7.92,14.52,21.56,14.52,40.92
		C238.44,500.79,233.48,513.75,223.56,521.58z M131.64,471.66h-22.56c-12.64,0-18.96,3.12-18.96,9.36c0,7.04,6.32,10.56,18.96,10.56
		h22.56V471.66z"/>
	<path style="fill:#FFFFFF;" d="M226.68,364.63c-9.44,0-18.16-1.48-26.16-4.44c-8-2.96-15.2-6.6-21.6-10.92
		c-6.4-4.32-13.92-10-22.56-17.04c-8.96-7.2-16.56-12.92-22.8-17.16c-6.24-4.24-13.4-7.84-21.48-10.8
		c-8.08-2.96-16.84-4.44-26.28-4.44c-5.6,0-9.96,0.8-13.08,2.4c-3.12,1.6-4.68,4.48-4.68,8.64c0,6.88,6.16,10.32,18.48,10.32h25.2
		v43.44L99,365.11c-15.68,0-28.56-1.6-38.64-4.8c-10.08-3.2-17.76-8.8-23.04-16.8c-5.28-8-7.92-19.04-7.92-33.12
		c0-17.28,4.84-30.64,14.52-40.08c9.68-9.44,23.4-14.16,41.16-14.16c11.36,0,21.64,1.56,30.84,4.68c9.2,3.12,17.24,6.96,24.12,11.52
		c6.88,4.56,14.96,10.6,24.24,18.12c6.56,5.44,12.4,9.96,17.52,13.56c5.12,3.6,10.4,6.84,15.84,9.72v-56.16h38.88v107.04H226.68z"/>
	<path style="fill:#FFFFFF;" d="M224.64,238.89c-9.52,8.32-24.04,12.48-43.56,12.48h-21.6v-42.24h21.6c6.24,0,11.08-0.8,14.52-2.4
		c3.44-1.6,5.16-4.8,5.16-9.6c0-3.36-1.2-5.8-3.6-7.32c-2.4-1.52-5.24-2.44-8.52-2.76c-3.28-0.32-8.04-0.48-14.28-0.48h-5.04
		c-17.76,0-26.64,5.84-26.64,17.52c0,2.08,0.08,3.44,0.24,4.08h-36.96c0-7.36-1.64-12.88-4.92-16.56
		c-3.28-3.68-8.52-5.52-15.72-5.52c-11.68,0-17.52,3.36-17.52,10.08c0,4.16,1.04,6.84,3.12,8.04c2.08,1.2,4.72,2,7.92,2.4
		c3.2,0.4,5.52,0.68,6.96,0.84h6.24v42.72l-7.2,0.24c-18.88-0.16-32.76-4.64-41.64-13.44c-8.88-8.8-13.32-22.32-13.32-40.56
		c0-35.04,18.32-52.56,54.96-52.56c10.72,0,19.24,1.44,25.56,4.32c6.32,2.88,10.76,7.84,13.32,14.88
		c2.88-5.76,6.44-10.04,10.68-12.84c4.24-2.8,9.4-4.64,15.48-5.52c6.08-0.88,14.24-1.32,24.48-1.32c21.28,0,37.36,4.44,48.24,13.32
		c10.88,8.88,16.32,23.08,16.32,42.6C238.92,217.38,234.16,230.58,224.64,238.89z"/>
	<path style="fill:#FFFFFF;" d="M223.68,122.52c-9.84,9.44-23.88,14.16-42.12,14.16H88.44c-19.52,0-34.4-4.56-44.64-13.68
		c-10.24-9.12-15.36-22.72-15.36-40.8c0-18.24,5.12-31.92,15.36-41.04c10.24-9.12,25.12-13.68,44.64-13.68h93.12
		c18.4,0,32.48,4.72,42.24,14.16c9.76,9.44,14.64,22.96,14.64,40.56C238.44,99.64,233.52,113.08,223.68,122.52z M196.32,74.76
		c-2.8-1.92-6.12-2.88-9.96-2.88H84.6c-5.92,0-10.44,0.68-13.56,2.04c-3.12,1.36-4.68,4.12-4.68,8.28c0,4.16,1.56,6.88,4.68,8.16
		c3.12,1.28,7.64,1.92,13.56,1.92h101.76c3.84,0,7.16-0.92,9.96-2.76c2.8-1.84,4.2-4.28,4.2-7.32
		C200.52,79.16,199.12,76.68,196.32,74.76z"/>
</g>
<g>
</g>
<g>
</g>
<g>
</g>
<g>
</g>
<g>
</g>
<g>
</g>
<g>
</g>
<g>
</g>
<g>
</g>
<g>
</g>
<g>
</g>
</svg>
