<?xml version="1.0" encoding="utf-8"?>
<!-- Generator: Adobe Illustrator 23.1.0, SVG Export Plug-In . SVG Version: 6.00 Build 0)  -->
<svg version="1.1" xmlns="http://www.w3.org/2000/svg" xmlns:xlink="http://www.w3.org/1999/xlink" x="0px" y="0px"
	 viewBox="0 0 1680 840" style="enable-background:new 0 0 1680 840;" xml:space="preserve">
<g id="Logotype">
	<g id="ESPACE_230">
		<rect x="127.615" y="278.371" style="fill:none;" width="1425.194" height="300"/>
		<path style="fill:#141516;" d="M140.003,560.034V280h112.144v54.116h-55.094v54.442h52.812v52.812h-52.812v64.222h58.68v54.442
			H140.003z"/>
		<path style="fill:#141516;" d="M283.927,543.734c-11.303-12.602-16.952-32.926-16.952-60.962v-27.384h55.094v34.882
			c0,13.911,4.452,20.864,13.366,20.864c4.997,0,8.476-1.467,10.432-4.401c1.956-2.934,2.934-7.875,2.934-14.833
			c0-9.128-1.09-16.677-3.26-22.657c-2.175-5.975-4.946-10.972-8.313-14.996c-3.372-4.019-9.403-10.269-18.093-18.745
			l-24.124-24.124c-18.694-18.256-28.036-38.468-28.036-60.636c0-23.905,5.486-42.105,16.463-54.605
			c10.972-12.495,27.002-18.745,48.085-18.745c25.209,0,43.358,6.683,54.442,20.049c11.084,13.366,16.626,34.286,16.626,62.755
			h-57.05l-0.326-19.234c0-3.693-1.034-6.627-3.097-8.802c-2.068-2.17-4.946-3.26-8.639-3.26c-4.35,0-7.61,1.197-9.78,3.586
			c-2.175,2.394-3.26,5.654-3.26,9.78c0,9.128,5.216,18.582,15.648,28.362l32.6,31.296c7.605,7.391,13.906,14.4,18.908,21.027
			c4.997,6.632,9.016,14.456,12.062,23.472c3.041,9.021,4.564,19.723,4.564,32.111c0,27.603-5.053,48.523-15.159,62.755
			c-10.106,14.237-26.788,21.353-50.041,21.353C313.593,562.642,295.225,556.341,283.927,543.734z"/>
		<path style="fill:#141516;" d="M418.5,280h74.002c22.382,0,38.356,7.228,47.922,21.679c9.561,14.456,14.344,35.59,14.344,63.407
			c0,27.822-4.238,48.793-12.714,62.918c-8.476,14.13-23.691,21.19-45.64,21.19h-22.82v110.84H418.5V280z M476.854,398.664
			c6.734,0,11.68-1.248,14.833-3.749c3.148-2.496,5.216-6.082,6.194-10.758c0.978-4.671,1.467-11.354,1.467-20.049
			c0-11.736-1.304-20.212-3.912-25.428c-2.608-5.216-7.824-7.824-15.648-7.824h-6.194v67.808H476.854z"/>
		<path style="fill:#141516;" d="M555.741,560.034L582.799,280h94.866l26.732,280.034h-53.138l-3.912-45.314h-33.904l-3.26,45.314
			H555.741z M617.681,470.058h25.428l-12.388-142.462h-2.608L617.681,470.058z"/>
		<path style="fill:#141516;" d="M732.297,543.408c-12.281-12.821-18.419-30.425-18.419-52.812V361.5
			c0-27.817,5.542-48.788,16.626-62.918c11.084-14.125,28.469-21.19,52.16-21.19c20.645,0,37.271,5.654,49.877,16.952
			c12.602,11.303,18.908,27.603,18.908,48.9v48.248h-55.746V350.09c0-8.038-0.978-13.58-2.934-16.626
			c-1.956-3.041-5.328-4.564-10.106-4.564c-5.002,0-8.425,1.742-10.269,5.216c-1.849,3.479-2.771,8.588-2.771,15.322v140.506
			c0,7.391,1.085,12.77,3.26,16.137c2.17,3.372,5.43,5.053,9.78,5.053c8.69,0,13.04-7.06,13.04-21.19v-50.53h56.398v52.812
			c0,46.944-23.584,70.416-70.742,70.416C760.929,562.642,744.573,556.234,732.297,543.408z"/>
		<path style="fill:#141516;" d="M866.217,560.034V280h112.145v54.116h-55.094v54.442h52.812v52.812h-52.812v64.222h58.68v54.442
			H866.217z"/>
		<path style="fill:#141516;" d="M1075.178,546.668c0-12.821,2.007-24.664,6.03-35.534c4.02-10.865,8.966-20.645,14.833-29.34
			c5.868-8.69,13.58-18.908,23.146-30.644c9.78-12.169,17.548-22.494,23.309-30.97c5.756-8.476,10.646-18.2,14.67-29.177
			c4.02-10.972,6.031-22.871,6.031-35.697c0-7.605-1.09-13.529-3.26-17.767c-2.175-4.238-6.087-6.357-11.736-6.357
			c-9.347,0-14.018,8.369-14.018,25.102v34.23h-59.006l-0.652-17.278c0-21.297,2.17-38.794,6.521-52.486
			c4.345-13.692,11.949-24.124,22.819-31.296c10.865-7.172,25.861-10.758,44.988-10.758c23.472,0,41.616,6.576,54.442,19.723
			c12.82,13.152,19.233,31.785,19.233,55.909c0,15.434-2.119,29.396-6.356,41.891c-4.238,12.5-9.454,23.421-15.648,32.763
			c-6.194,9.347-14.4,20.324-24.613,32.926c-7.391,8.914-13.528,16.845-18.419,23.798c-4.89,6.958-9.291,14.13-13.203,21.516h76.284
			v52.812h-145.396V546.668z"/>
		<path style="fill:#141516;" d="M1249.226,543.897c-11.304-12.928-16.952-32.651-16.952-59.169v-29.34h57.376v29.34
			c0,8.476,1.085,15.052,3.26,19.723c2.17,4.676,6.52,7.009,13.04,7.009c4.563,0,7.875-1.63,9.943-4.89
			c2.062-3.26,3.311-7.116,3.748-11.573c0.434-4.452,0.652-10.921,0.652-19.397v-6.846c0-24.124-7.936-36.186-23.798-36.186
			c-2.827,0-4.676,0.112-5.542,0.326V382.69c9.994,0,17.492-2.226,22.494-6.683c4.997-4.452,7.498-11.573,7.498-21.353
			c0-15.862-4.564-23.798-13.692-23.798c-5.654,0-9.291,1.417-10.921,4.238c-1.63,2.827-2.72,6.413-3.26,10.758
			c-0.545,4.35-0.927,7.498-1.142,9.454v8.476h-58.027l-0.326-9.78c0.214-25.642,6.301-44.499,18.256-56.561
			c11.95-12.062,30.318-18.093,55.094-18.093c47.597,0,71.395,24.888,71.395,74.654c0,14.563-1.956,26.136-5.868,34.719
			c-3.912,8.588-10.651,14.619-20.212,18.093c7.824,3.912,13.636,8.751,17.44,14.507c3.801,5.761,6.302,12.77,7.498,21.027
			c1.192,8.262,1.793,19.346,1.793,33.252c0,28.907-6.03,50.749-18.093,65.526c-12.062,14.782-31.352,22.168-57.865,22.168
			C1278.453,563.294,1260.523,556.83,1249.226,543.897z"/>
		<path style="fill:#141516;" d="M1410.558,542.593c-12.826-13.366-19.234-32.437-19.234-57.213V358.892
			c0-26.513,6.194-46.725,18.582-60.636c12.389-13.906,30.858-20.864,55.421-20.864c24.775,0,43.357,6.958,55.745,20.864
			c12.389,13.911,18.582,34.123,18.582,60.636V485.38c0,24.995-6.413,44.122-19.233,57.376
			c-12.826,13.259-31.189,19.886-55.094,19.886C1441.635,562.642,1423.379,555.959,1410.558,542.593z M1475.432,505.429
			c2.608-3.8,3.912-8.313,3.912-13.529V353.676c0-8.038-0.927-14.181-2.771-18.419c-1.849-4.238-5.598-6.357-11.246-6.357
			c-5.654,0-9.348,2.119-11.084,6.357c-1.742,4.238-2.608,10.381-2.608,18.419V491.9c0,5.216,1.248,9.729,3.749,13.529
			c2.496,3.805,5.812,5.705,9.943,5.705C1469.451,511.134,1472.823,509.234,1475.432,505.429z"/>
	</g>
	<g>
		<rect x="138.589" y="658.053" style="fill:none;" width="1414.191" height="55.773"/>
		<path style="fill:#141516;" d="M138.639,699.996l14.764-41.938h9.378l14.785,41.938h-8.109l-3.481-10.341h-15.768l-3.46,10.341
			H138.639z M163.928,683.552l-5.672-16.894h-0.328l-5.672,16.894H163.928z"/>
		<path style="fill:#141516;" d="M183.056,658.058h33.46v6.369h-12.962v35.569h-7.536v-35.569h-12.962V658.058z"/>
		<path style="fill:#141516;" d="M229.772,658.058h27.276v6.369h-19.679v11.385h18.266v6.368h-18.266v11.447h19.843v6.369h-27.44
			V658.058z"/>
		<path style="fill:#141516;" d="M272.31,658.058h7.597v35.569h18.471v6.369H272.31V658.058z"/>
		<path style="fill:#141516;" d="M319.333,699.996h-7.597v-41.938h7.597V699.996z"/>
		<path style="fill:#141516;" d="M335.863,658.058h27.276v6.369H343.46v11.385h18.266v6.368H343.46v11.447h19.843v6.369h-27.44
			V658.058z"/>
		<path style="fill:#141516;" d="M378.4,658.058h15.727c9.625,0,14.785,5.406,14.785,13.413c0,5.693-2.601,9.911-7.536,11.897
			l9.072,16.627h-8.478l-8.231-15.358h-7.741v15.358H378.4V658.058z M393.001,678.331c5.631,0,8.17-2.396,8.17-6.86
			s-2.539-7.064-8.211-7.064h-6.962v13.924H393.001z"/>
		<path style="fill:#141516;" d="M438.056,663.915c-4.751,0-7.577,2.314-7.597,5.467c-0.041,3.502,3.686,4.956,7.126,5.775
			l3.932,0.983c6.307,1.495,12.307,4.812,12.328,12.082c-0.021,7.392-5.856,12.409-15.911,12.409
			c-9.768,0-15.972-4.689-16.279-13.023h7.474c0.307,4.402,3.993,6.532,8.744,6.532c4.955,0,8.354-2.396,8.375-5.979
			c-0.021-3.256-3.01-4.669-7.536-5.815l-4.771-1.229c-6.901-1.782-11.181-5.242-11.181-11.263
			c-0.021-7.413,6.594-12.368,15.399-12.368c8.928,0,14.969,5.017,15.112,12.102h-7.31
			C445.571,666.024,442.581,663.915,438.056,663.915z"/>
		<path style="fill:#141516;" d="M490.721,699.996v-41.938h14.498c12.491,0,20.068,7.863,20.068,20.928
			c0,13.105-7.577,21.01-20.354,21.01H490.721z M504.563,693.422c8.744,0,13.188-4.792,13.188-14.437
			c0-9.604-4.444-14.354-12.962-14.354h-6.471v28.791H504.563z"/>
		<path style="fill:#141516;" d="M545.793,662.235c0,3.625-2.252,7.925-5.263,10.423l-3.44-2.232
			c1.495-2.252,2.805-4.812,2.805-8.15v-4.218h5.897V662.235z"/>
		<path style="fill:#141516;" d="M553.315,699.996l14.764-41.938h9.378l14.785,41.938h-8.109l-3.481-10.341h-15.768l-3.46,10.341
			H553.315z M578.604,683.552l-5.672-16.894h-0.328l-5.672,16.894H578.604z"/>
		<path style="fill:#141516;" d="M605.065,658.058h15.727c9.625,0,14.785,5.406,14.785,13.413c0,5.693-2.601,9.911-7.536,11.897
			l9.072,16.627h-8.478l-8.231-15.358h-7.741v15.358h-7.597V658.058z M619.666,678.331c5.631,0,8.17-2.396,8.17-6.86
			s-2.539-7.064-8.211-7.064h-6.962v13.924H619.666z"/>
		<path style="fill:#141516;" d="M647.632,658.058h33.46v6.369H668.13v35.569h-7.536v-35.569h-12.962V658.058z"/>
		<path style="fill:#141516;" d="M701.945,699.996h-7.597v-41.938h7.597V699.996z"/>
		<path style="fill:#141516;" d="M733.022,663.915c-4.751,0-7.577,2.314-7.597,5.467c-0.041,3.502,3.686,4.956,7.126,5.775
			l3.932,0.983c6.307,1.495,12.307,4.812,12.328,12.082c-0.021,7.392-5.856,12.409-15.911,12.409
			c-9.768,0-15.972-4.689-16.279-13.023h7.474c0.307,4.402,3.993,6.532,8.744,6.532c4.956,0,8.355-2.396,8.375-5.979
			c-0.021-3.256-3.01-4.669-7.536-5.815l-4.771-1.229c-6.9-1.782-11.18-5.242-11.18-11.263c-0.021-7.413,6.593-12.368,15.399-12.368
			c8.928,0,14.969,5.017,15.112,12.102h-7.311C740.537,666.024,737.547,663.915,733.022,663.915z"/>
		<path style="fill:#141516;" d="M760.632,658.058h33.46v6.369h-12.962v35.569h-7.536v-35.569h-12.962V658.058z"/>
		<path style="fill:#141516;" d="M807.348,658.058h27.276v6.369h-19.679v11.385h18.266v6.368h-18.266v11.447h19.843v6.369h-27.44
			V658.058z"/>
		<path style="fill:#141516;" d="M863.787,663.915c-4.751,0-7.576,2.314-7.597,5.467c-0.041,3.502,3.686,4.956,7.126,5.775
			l3.932,0.983c6.307,1.495,12.307,4.812,12.327,12.082c-0.021,7.392-5.856,12.409-15.911,12.409
			c-9.768,0-15.972-4.689-16.279-13.023h7.475c0.307,4.402,3.992,6.532,8.743,6.532c4.956,0,8.354-2.396,8.375-5.979
			c-0.021-3.256-3.01-4.669-7.535-5.815l-4.771-1.229c-6.9-1.782-11.181-5.242-11.181-11.263
			c-0.021-7.413,6.594-12.368,15.399-12.368c8.928,0,14.969,5.017,15.112,12.102h-7.311
			C871.303,666.024,868.312,663.915,863.787,663.915z"/>
		<path style="fill:#141516;" d="M952.745,706.303h-6.491l13.515-50.21h6.491L952.745,706.303z"/>
		<path style="fill:#141516;" d="M1053.139,664.304c-6.778,0-11.672,5.242-11.672,14.682c0,9.501,4.812,14.764,11.836,14.764
			c6.307,0,10.3-3.788,10.423-9.768h-9.666v-5.938h17.017v5.038c0,10.812-7.433,17.487-17.814,17.487
			c-11.57,0-19.434-8.232-19.434-21.501c0-13.515,8.232-21.583,19.208-21.583c9.276,0,16.402,5.733,17.692,13.965h-7.74
			C1061.637,667.007,1058.196,664.304,1053.139,664.304z"/>
		<path style="fill:#141516;" d="M1081.164,699.996l14.764-41.938h9.379l14.784,41.938h-8.108l-3.481-10.341h-15.768l-3.461,10.341
			H1081.164z M1106.453,683.552l-5.672-16.894h-0.328l-5.672,16.894H1106.453z"/>
		<path style="fill:#141516;" d="M1132.915,658.058h7.597v35.569h18.471v6.369h-26.067V658.058z"/>
		<path style="fill:#141516;" d="M1172.341,658.058h27.275v6.369h-19.679v11.385h18.266v6.368h-18.266v11.447h19.843v6.369h-27.439
			V658.058z"/>
		<path style="fill:#141516;" d="M1214.879,658.058h15.727c9.624,0,14.784,5.406,14.784,13.413c0,5.693-2.601,9.911-7.535,11.897
			l9.071,16.627h-8.478l-8.232-15.358h-7.74v15.358h-7.597V658.058z M1229.479,678.331c5.632,0,8.171-2.396,8.171-6.86
			s-2.539-7.064-8.212-7.064h-6.962v13.924H1229.479z"/>
		<path style="fill:#141516;" d="M1267.947,699.996h-7.597v-41.938h7.597V699.996z"/>
		<path style="fill:#141516;" d="M1284.477,658.058h27.275v6.369h-19.679v11.385h18.266v6.368h-18.266v11.447h19.843v6.369h-27.439
			V658.058z"/>
		<path style="fill:#141516;" d="M1349.634,699.996v-41.938h14.498c12.491,0,20.067,7.863,20.067,20.928
			c0,13.105-7.576,21.01-20.354,21.01H1349.634z M1363.477,693.422c8.743,0,13.187-4.792,13.187-14.437
			c0-9.604-4.443-14.354-12.962-14.354h-6.471v28.791H1363.477z"/>
		<path style="fill:#141516;" d="M1404.706,662.235c0,3.625-2.253,7.925-5.263,10.423l-3.44-2.232
			c1.495-2.252,2.806-4.812,2.806-8.15v-4.218h5.897V662.235z"/>
		<path style="fill:#141516;" d="M1412.227,699.996l14.764-41.938h9.379l14.784,41.938h-8.108l-3.481-10.341h-15.768l-3.461,10.341
			H1412.227z M1437.516,683.552l-5.672-16.894h-0.328l-5.672,16.894H1437.516z"/>
		<path style="fill:#141516;" d="M1463.978,658.058h15.727c9.624,0,14.784,5.406,14.784,13.413c0,5.693-2.601,9.911-7.535,11.897
			l9.071,16.627h-8.478l-8.232-15.358h-7.74v15.358h-7.597V658.058z M1478.577,678.331c5.632,0,8.171-2.396,8.171-6.86
			s-2.539-7.064-8.212-7.064h-6.962v13.924H1478.577z"/>
		<path style="fill:#141516;" d="M1506.543,658.058h33.46v6.369h-12.962v35.569h-7.535v-35.569h-12.963V658.058z"/>
	</g>
	<rect id="Underline_1_" x="139.865" y="609.871" style="fill:#141516;" width="1400" height="10"/>
	<g id="Louis-Bernard_St-Jean">
		<rect x="131.614" y="140.146" style="fill:none;" width="1421.194" height="71.596"/>
		<path style="fill:#771111;stroke:#771111;stroke-miterlimit:10;" d="M150.369,196.579c3.481,0,6.691-0.141,9.63-0.421
			c2.938-0.281,5.512-0.59,7.721-0.927c2.583-0.412,4.922-0.879,7.019-1.404l-1.292,7.468c-0.525-0.038-1.414-0.084-2.667-0.141
			c-1.254-0.056-2.574-0.094-3.958-0.112c-1.385-0.019-2.677-0.038-3.875-0.056c-1.199-0.02-2.021-0.028-2.471-0.028H138.97v-0.225
			c0.261-0.786,0.496-1.797,0.702-3.032c0.206-1.235,0.374-2.76,0.506-4.576c0.13-1.815,0.233-3.978,0.309-6.486
			c0.075-2.507,0.112-5.447,0.112-8.816v-14.15c0-3.369-0.038-6.298-0.112-8.788c-0.076-2.489-0.178-4.641-0.309-6.457
			c-0.132-1.815-0.3-3.341-0.506-4.577c-0.206-1.235-0.44-2.246-0.702-3.032v-0.225h12.971v0.225
			c-0.262,0.786-0.487,1.797-0.674,3.032c-0.188,1.235-0.347,2.761-0.478,4.577c-0.131,1.816-0.234,3.968-0.309,6.457
			c-0.076,2.49-0.112,5.419-0.112,8.788V196.579z"/>
		<path style="fill:#771111;stroke:#771111;stroke-miterlimit:10;" d="M193.295,170.58c0-4.417,0.833-8.516,2.499-12.297
			c1.665-3.781,3.939-7.065,6.822-9.854c2.882-2.789,6.289-4.97,10.22-6.542s8.142-2.358,12.634-2.358
			c4.417,0,8.582,0.74,12.494,2.218c3.912,1.479,7.318,3.585,10.22,6.317c2.901,2.733,5.194,6.046,6.879,9.939
			c1.685,3.894,2.527,8.254,2.527,13.083c0,4.006-0.711,7.871-2.134,11.596c-1.423,3.725-3.501,7.019-6.233,9.883
			c-2.733,2.863-6.102,5.147-10.107,6.851c-4.006,1.703-8.591,2.555-13.757,2.555c-4.38,0-8.517-0.73-12.41-2.19
			c-3.894-1.46-7.3-3.546-10.22-6.261c-2.92-2.713-5.222-6.008-6.907-9.883C194.137,179.761,193.295,175.409,193.295,170.58z
			 M226.762,197.982c2.844,0,5.465-0.562,7.861-1.685c2.395-1.123,4.464-2.732,6.205-4.829c1.74-2.096,3.088-4.651,4.043-7.665
			c0.954-3.013,1.432-6.41,1.432-10.192c0-4.304-0.459-8.291-1.376-11.96c-0.917-3.668-2.302-6.841-4.155-9.518
			c-1.853-2.676-4.165-4.773-6.935-6.289c-2.771-1.517-6.008-2.274-9.714-2.274c-2.845,0-5.466,0.543-7.861,1.628
			c-2.396,1.086-4.464,2.659-6.205,4.717c-1.741,2.059-3.098,4.586-4.071,7.581c-0.974,2.996-1.46,6.401-1.46,10.22
			c0,4.268,0.478,8.246,1.432,11.933c0.955,3.688,2.358,6.888,4.212,9.602c1.853,2.715,4.164,4.849,6.935,6.401
			C219.874,197.206,223.092,197.982,226.762,197.982z"/>
		<path style="fill:#771111;stroke:#771111;stroke-miterlimit:10;" d="M329.736,163.449c0-3.332-0.02-6.233-0.056-8.704
			c-0.038-2.471-0.112-4.604-0.225-6.401s-0.244-3.303-0.393-4.52c-0.15-1.216-0.337-2.218-0.562-3.004v-0.225h8.254v0.225
			c-0.225,0.786-0.413,1.797-0.562,3.032c-0.15,1.235-0.281,2.761-0.393,4.577c-0.112,1.816-0.188,3.968-0.225,6.457
			c-0.038,2.49-0.056,5.419-0.056,8.788v16.116c0,4.043-0.627,7.488-1.881,10.332c-1.254,2.845-2.985,5.176-5.194,6.991
			c-2.209,1.816-4.839,3.145-7.889,3.987c-3.052,0.842-6.393,1.263-10.023,1.263c-3.669,0-7.075-0.403-10.22-1.208
			c-3.145-0.804-5.868-2.086-8.17-3.846c-2.303-1.759-4.119-4.043-5.447-6.851c-1.329-2.808-1.993-6.213-1.993-10.22v-16.565
			c0-3.369-0.038-6.298-0.112-8.788c-0.076-2.489-0.188-4.641-0.337-6.457c-0.15-1.815-0.318-3.341-0.505-4.577
			c-0.188-1.235-0.413-2.246-0.674-3.032v-0.225h12.971v0.225c-0.262,0.786-0.487,1.788-0.674,3.004
			c-0.188,1.217-0.347,2.723-0.478,4.52c-0.131,1.797-0.234,3.931-0.309,6.401c-0.076,2.471-0.112,5.372-0.112,8.704v16.79
			c0,3.333,0.505,6.074,1.516,8.226c1.011,2.153,2.339,3.866,3.987,5.138c1.647,1.273,3.518,2.162,5.615,2.667
			c2.096,0.505,4.248,0.758,6.458,0.758c2.246,0,4.426-0.253,6.542-0.758c2.115-0.506,4.005-1.395,5.672-2.667
			c1.665-1.272,2.994-2.985,3.986-5.138c0.992-2.152,1.488-4.894,1.488-8.226V163.449z"/>
		<path style="fill:#771111;stroke:#771111;stroke-miterlimit:10;" d="M367.428,163.673c0-3.369-0.038-6.298-0.112-8.788
			c-0.076-2.489-0.178-4.641-0.309-6.457c-0.132-1.815-0.3-3.341-0.506-4.577c-0.206-1.235-0.44-2.246-0.702-3.032v-0.225h13.027
			v0.225c-0.262,0.786-0.497,1.797-0.702,3.032c-0.207,1.235-0.375,2.761-0.506,4.577c-0.131,1.816-0.234,3.968-0.309,6.457
			c-0.076,2.49-0.112,5.419-0.112,8.788v14.15c0,3.369,0.037,6.309,0.112,8.816c0.075,2.508,0.177,4.67,0.309,6.486
			c0.131,1.816,0.299,3.341,0.506,4.576c0.205,1.235,0.439,2.246,0.702,3.032v0.225h-13.027v-0.225
			c0.261-0.786,0.496-1.797,0.702-3.032c0.206-1.235,0.374-2.76,0.506-4.576c0.13-1.815,0.233-3.978,0.309-6.486
			c0.075-2.507,0.112-5.447,0.112-8.816V163.673z"/>
		<path style="fill:#771111;stroke:#771111;stroke-miterlimit:10;" d="M436.193,152.331h-1.123c-0.225-0.636-0.59-1.44-1.095-2.415
			c-0.506-0.973-1.18-1.928-2.021-2.864c-0.843-0.935-1.881-1.731-3.117-2.387c-1.235-0.654-2.715-0.982-4.436-0.982
			c-1.311,0-2.48,0.216-3.51,0.646c-1.03,0.431-1.9,1.021-2.611,1.769c-0.711,0.75-1.255,1.638-1.628,2.667
			c-0.375,1.03-0.562,2.143-0.562,3.341c0,1.947,0.59,3.8,1.769,5.559c1.18,1.76,2.648,3.509,4.408,5.25
			c1.759,1.74,3.668,3.491,5.728,5.25c2.058,1.76,3.967,3.594,5.728,5.503c1.759,1.909,3.229,3.931,4.408,6.064
			c1.179,2.134,1.769,4.417,1.769,6.851c0,1.797-0.328,3.65-0.982,5.559c-0.656,1.909-1.713,3.631-3.173,5.166
			c-1.46,1.536-3.333,2.799-5.615,3.791c-2.284,0.991-5.054,1.488-8.311,1.488c-1.797,0-3.51-0.15-5.138-0.449
			c-1.629-0.3-3.126-0.665-4.492-1.095c-1.367-0.43-2.583-0.898-3.65-1.403c-1.066-0.506-1.957-0.983-2.667-1.432l1.011-10.613
			h1.179c0.374,1.311,0.926,2.621,1.657,3.931c0.729,1.311,1.628,2.499,2.695,3.565c1.066,1.067,2.32,1.929,3.762,2.583
			c1.441,0.656,3.097,0.983,4.97,0.983c1.31,0,2.545-0.215,3.706-0.646c1.16-0.43,2.162-1.039,3.004-1.825
			c0.843-0.786,1.507-1.75,1.994-2.892c0.486-1.141,0.73-2.423,0.73-3.846c0-1.685-0.337-3.247-1.011-4.689
			c-0.674-1.44-1.572-2.826-2.695-4.155c-1.123-1.328-2.387-2.611-3.79-3.846c-1.404-1.235-2.855-2.489-4.352-3.762
			c-1.498-1.272-2.948-2.573-4.352-3.902c-1.403-1.329-2.667-2.76-3.79-4.296c-1.123-1.535-2.021-3.173-2.695-4.913
			c-0.674-1.741-1.011-3.659-1.011-5.756c0-2.208,0.468-4.192,1.404-5.952c0.935-1.759,2.17-3.247,3.706-4.464
			c1.535-1.216,3.293-2.152,5.278-2.808c1.984-0.655,4.043-0.983,6.177-0.983c1.572,0,3.041,0.112,4.408,0.337
			c1.366,0.225,2.602,0.497,3.706,0.814c1.104,0.319,2.068,0.637,2.892,0.955c0.823,0.318,1.497,0.571,2.021,0.758L436.193,152.331z
			"/>
		<path style="fill:#771111;stroke:#771111;stroke-miterlimit:10;" d="M462.959,175.297v-8.03h37.959v8.03H462.959z"/>
		<path style="fill:#771111;stroke:#771111;stroke-miterlimit:10;" d="M528.772,140.482c0.71,0.038,1.44,0.056,2.19,0.056
			c0.636,0.038,1.328,0.056,2.078,0.056c0.749,0,1.479,0,2.19,0c1.16,0,2.77-0.075,4.829-0.225c2.058-0.149,4.623-0.225,7.693-0.225
			c2.732,0,5.269,0.328,7.609,0.983c2.339,0.655,4.36,1.6,6.064,2.835c1.703,1.235,3.032,2.751,3.986,4.548
			c0.955,1.797,1.432,3.838,1.432,6.121c0,1.947-0.272,3.678-0.814,5.194c-0.543,1.517-1.32,2.846-2.331,3.987
			c-1.011,1.142-2.228,2.097-3.65,2.863c-1.423,0.768-2.996,1.376-4.717,1.825c2.507,0.375,4.792,0.992,6.851,1.853
			c2.058,0.862,3.818,1.937,5.278,3.229c1.46,1.291,2.583,2.808,3.369,4.548c0.786,1.741,1.179,3.678,1.179,5.812
			c0,5.916-2.115,10.342-6.345,13.28c-4.231,2.939-10.538,4.408-18.923,4.408c-0.898,0-2.013-0.038-3.341-0.112
			c-1.329-0.076-2.714-0.15-4.155-0.225c-1.441-0.076-2.827-0.15-4.155-0.225c-1.329-0.076-2.442-0.112-3.341-0.112h-2.976v-0.225
			c0.261-0.786,0.496-1.797,0.702-3.032c0.206-1.235,0.374-2.76,0.506-4.576c0.13-1.815,0.233-3.978,0.309-6.486
			c0.075-2.507,0.112-5.447,0.112-8.816v-14.15c0-3.369-0.038-6.308-0.112-8.816c-0.076-2.507-0.178-4.679-0.309-6.514
			c-0.132-1.833-0.3-3.369-0.506-4.604c-0.206-1.235-0.44-2.246-0.702-3.032V140.482z M540.171,167.604
			c0.749,0.112,1.422,0.178,2.021,0.196c0.598,0.02,1.216,0.028,1.853,0.028c3.781,0,6.785-1.047,9.012-3.145
			c2.227-2.096,3.341-5.222,3.341-9.377c0-1.685-0.225-3.237-0.674-4.661c-0.449-1.422-1.095-2.639-1.937-3.65
			c-0.843-1.011-1.891-1.797-3.145-2.358c-1.255-0.562-2.687-0.842-4.296-0.842c-1.086,0-2.003,0.047-2.751,0.141
			c-0.75,0.094-1.385,0.178-1.909,0.252c-0.599,0.15-1.104,0.281-1.516,0.393V167.604z M547.639,171.422
			c-1.797,0-3.323,0.066-4.577,0.196c-1.254,0.132-2.218,0.253-2.892,0.365v5.84c0,3.22,0.009,5.916,0.028,8.086
			c0.018,2.171,0.056,3.987,0.112,5.447c0.056,1.46,0.103,2.63,0.14,3.509c0.037,0.88,0.093,1.638,0.168,2.274
			c0.973,0.262,2.012,0.431,3.116,0.505c1.104,0.076,1.974,0.112,2.611,0.112c5.166,0,8.918-1.132,11.259-3.397
			c2.339-2.265,3.509-5.774,3.509-10.529c0-1.797-0.281-3.462-0.842-4.998c-0.562-1.535-1.404-2.844-2.527-3.931
			c-1.123-1.085-2.527-1.938-4.211-2.555C551.851,171.731,549.885,171.422,547.639,171.422z"/>
		<path style="fill:#771111;stroke:#771111;stroke-miterlimit:10;" d="M609.309,140.567c3.855-0.019,7.431-0.057,10.725-0.112
			c3.293-0.057,6.129-0.121,8.507-0.197c2.376-0.075,3.939-0.187,4.688-0.337l-2.19,6.064c-1.011-0.261-2.153-0.505-3.425-0.73
			c-1.123-0.187-2.48-0.365-4.071-0.533c-1.591-0.169-3.435-0.253-5.531-0.253c-0.75,0-1.61,0.028-2.583,0.084
			c-0.974,0.057-1.909,0.122-2.808,0.197c-1.048,0.076-2.115,0.15-3.201,0.225v22.18c3.032-0.037,5.764-0.112,8.198-0.225
			c2.433-0.112,4.511-0.261,6.233-0.449c2.021-0.149,3.799-0.355,5.334-0.618l-1.348,6.682c-2.059-0.261-4.137-0.486-6.233-0.674
			c-1.797-0.187-3.782-0.346-5.952-0.478c-2.171-0.13-4.249-0.196-6.233-0.196v25.493c3.481,0,6.682-0.141,9.602-0.421
			c2.92-0.281,5.465-0.59,7.637-0.927c2.545-0.412,4.848-0.879,6.907-1.404l-1.292,7.356c-0.562-0.038-1.47-0.084-2.723-0.141
			c-1.255-0.056-2.565-0.094-3.931-0.112c-1.367-0.019-2.649-0.038-3.847-0.056c-1.199-0.02-2.021-0.028-2.471-0.028h-21.282v-0.225
			c0.261-0.786,0.496-1.797,0.702-3.032c0.206-1.235,0.374-2.76,0.506-4.576c0.13-1.815,0.233-3.978,0.309-6.486
			c0.075-2.507,0.112-5.447,0.112-8.816v-14.15c0-3.369-0.038-6.298-0.112-8.788c-0.076-2.489-0.178-4.641-0.309-6.457
			c-0.132-1.815-0.3-3.341-0.506-4.577c-0.206-1.235-0.44-2.246-0.702-3.032v-0.225C601.69,140.595,605.453,140.586,609.309,140.567
			z"/>
		<path style="fill:#771111;stroke:#771111;stroke-miterlimit:10;" d="M678.936,175.297c-0.75,0.112-1.488,0.178-2.218,0.197
			c-0.729,0.019-1.469,0.028-2.218,0.028c-0.599,0-1.255-0.019-1.965-0.056c-0.711-0.037-1.441-0.093-2.19-0.168v2.751
			c0,3.333,0.037,6.243,0.112,8.731c0.075,2.49,0.177,4.633,0.309,6.43c0.131,1.797,0.29,3.304,0.478,4.521
			c0.187,1.217,0.412,2.218,0.674,3.004v0.225h-12.971v-0.225c0.261-0.786,0.496-1.797,0.702-3.032
			c0.206-1.235,0.374-2.76,0.506-4.576c0.13-1.815,0.233-3.978,0.309-6.486c0.075-2.507,0.112-5.447,0.112-8.816v-14.15
			c0-3.369-0.038-6.298-0.112-8.788c-0.076-2.489-0.178-4.641-0.309-6.457c-0.132-1.815-0.3-3.341-0.506-4.577
			c-0.206-1.235-0.44-2.246-0.702-3.032v-0.225c0.598,0.038,1.235,0.076,1.909,0.112c0.562,0.038,1.188,0.066,1.881,0.084
			c0.692,0.019,1.394,0.028,2.105,0.028c1.198,0,2.976-0.112,5.334-0.337s5.128-0.337,8.311-0.337c3.219,0,6.149,0.393,8.788,1.179
			c2.64,0.786,4.904,1.909,6.795,3.369c1.89,1.46,3.35,3.238,4.38,5.334c1.029,2.097,1.544,4.436,1.544,7.019
			c0,2.021-0.281,3.866-0.842,5.531c-0.562,1.666-1.348,3.164-2.358,4.492c-1.011,1.329-2.209,2.499-3.594,3.509
			c-1.385,1.011-2.92,1.891-4.604,2.639l11.736,16.565c1.011,1.348,2.03,2.639,3.061,3.875c1.029,1.235,2.012,2.34,2.948,3.313
			c0.935,0.974,1.815,1.788,2.639,2.443c0.823,0.655,1.516,1.095,2.078,1.319v0.225h-14.712c0-0.337-0.234-0.927-0.702-1.769
			c-0.469-0.843-1.011-1.722-1.629-2.64c-0.617-0.917-1.235-1.805-1.853-2.667c-0.618-0.861-1.077-1.497-1.376-1.909
			L678.936,175.297z M670.344,171.647c0.749,0.112,1.506,0.196,2.274,0.253c0.767,0.056,1.506,0.084,2.218,0.084
			c4.679,0,8.227-1.254,10.641-3.762c2.415-2.507,3.622-6.27,3.622-11.287c0-4.118-0.964-7.375-2.892-9.771
			c-1.929-2.395-4.765-3.594-8.507-3.594c-1.199,0-2.256,0.047-3.172,0.141c-0.918,0.094-1.694,0.196-2.331,0.309
			c-0.711,0.15-1.329,0.3-1.853,0.449V171.647z"/>
		<path style="fill:#771111;stroke:#771111;stroke-miterlimit:10;" d="M787.384,201.745h-2.19l-44.641-43.911v19.99
			c0,3.369,0.019,6.309,0.056,8.816c0.037,2.508,0.103,4.67,0.197,6.486c0.093,1.816,0.225,3.341,0.393,4.576
			c0.169,1.235,0.384,2.246,0.646,3.032v0.225h-8.423v-0.225c0.261-0.786,0.486-1.797,0.674-3.032
			c0.187-1.235,0.337-2.76,0.449-4.576c0.112-1.815,0.187-3.978,0.225-6.486c0.037-2.507,0.056-5.447,0.056-8.816v-14.15
			c0-3.369-0.02-6.298-0.056-8.788c-0.038-2.489-0.112-4.641-0.225-6.457c-0.112-1.815-0.262-3.341-0.449-4.577
			c-0.188-1.235-0.413-2.246-0.674-3.032v-0.225h3.481l44.697,44.136v-21.057c0-3.369-0.02-6.298-0.056-8.788
			c-0.038-2.489-0.104-4.641-0.196-6.457c-0.094-1.815-0.216-3.341-0.365-4.577c-0.15-1.235-0.356-2.246-0.618-3.032v-0.225h8.367
			v0.225c-0.262,0.786-0.478,1.797-0.646,3.032c-0.169,1.235-0.309,2.761-0.421,4.577c-0.112,1.816-0.188,3.968-0.225,6.457
			c-0.038,2.49-0.056,5.419-0.056,8.788V201.745z"/>
		<path style="fill:#771111;stroke:#771111;stroke-miterlimit:10;" d="M855.567,181.979c-1.012,0-2.275,0-3.791,0s-3.172,0-4.969,0
			s-3.65,0-5.559,0c-1.91,0-3.727,0.01-5.447,0.028c-1.723,0.019-3.295,0.038-4.717,0.056c-1.424,0.02-2.527,0.028-3.312,0.028
			l-2.078,4.38c-0.898,1.797-1.666,3.36-2.303,4.688c-0.637,1.33-1.16,2.499-1.572,3.51s-0.711,1.881-0.898,2.611
			c-0.188,0.729-0.281,1.413-0.281,2.049c0,0.413,0.02,0.721,0.057,0.926c0.037,0.207,0.094,0.365,0.168,0.478v0.225h-9.882v-0.225
			c0.262-0.261,0.674-0.833,1.235-1.713c0.562-0.879,1.207-1.956,1.938-3.229c0.729-1.272,1.516-2.714,2.358-4.324
			c0.842-1.609,1.676-3.275,2.5-4.998l22.91-47.28h4.211l22.461,47.28c0.859,1.797,1.73,3.519,2.611,5.166
			c0.879,1.648,1.693,3.116,2.441,4.408c0.748,1.291,1.404,2.358,1.967,3.2c0.561,0.843,0.934,1.339,1.123,1.488v0.225h-14.375
			c0.074-0.299,0.111-0.57,0.111-0.814c0-0.243,0-0.514,0-0.814c0-0.823-0.178-1.815-0.533-2.976
			c-0.357-1.16-0.787-2.349-1.291-3.565c-0.506-1.216-1.031-2.387-1.572-3.51c-0.543-1.123-0.982-2.058-1.32-2.808L855.567,181.979z
			 M829.962,177.599h3.426c1.572,0,3.246-0.009,5.025-0.028c1.777-0.018,3.564-0.028,5.361-0.028s3.539-0.009,5.223-0.028
			c1.686-0.019,3.201-0.028,4.549-0.028l-11.623-24.819L829.962,177.599z"/>
		<path style="fill:#771111;stroke:#771111;stroke-miterlimit:10;" d="M919.724,175.297c-0.749,0.112-1.487,0.178-2.218,0.197
			c-0.729,0.019-1.47,0.028-2.218,0.028c-0.6,0-1.255-0.019-1.965-0.056c-0.712-0.037-1.442-0.093-2.19-0.168v2.751
			c0,3.333,0.037,6.243,0.112,8.731c0.074,2.49,0.177,4.633,0.309,6.43c0.131,1.797,0.29,3.304,0.478,4.521
			c0.187,1.217,0.411,2.218,0.674,3.004v0.225h-12.972v-0.225c0.262-0.786,0.496-1.797,0.702-3.032
			c0.205-1.235,0.374-2.76,0.506-4.576c0.131-1.815,0.233-3.978,0.309-6.486c0.074-2.507,0.112-5.447,0.112-8.816v-14.15
			c0-3.369-0.038-6.298-0.112-8.788c-0.075-2.489-0.178-4.641-0.309-6.457c-0.132-1.815-0.301-3.341-0.506-4.577
			c-0.206-1.235-0.44-2.246-0.702-3.032v-0.225c0.599,0.038,1.236,0.076,1.91,0.112c0.561,0.038,1.188,0.066,1.881,0.084
			c0.692,0.019,1.394,0.028,2.105,0.028c1.197,0,2.977-0.112,5.334-0.337c2.359-0.225,5.129-0.337,8.311-0.337
			c3.22,0,6.149,0.393,8.788,1.179c2.64,0.786,4.904,1.909,6.795,3.369c1.89,1.46,3.35,3.238,4.38,5.334
			c1.029,2.097,1.544,4.436,1.544,7.019c0,2.021-0.28,3.866-0.843,5.531c-0.561,1.666-1.348,3.164-2.357,4.492
			c-1.012,1.329-2.21,2.499-3.594,3.509c-1.386,1.011-2.92,1.891-4.605,2.639l11.736,16.565c1.011,1.348,2.03,2.639,3.061,3.875
			c1.029,1.235,2.012,2.34,2.947,3.313c0.936,0.974,1.815,1.788,2.64,2.443c0.823,0.655,1.517,1.095,2.077,1.319v0.225h-14.711
			c0-0.337-0.234-0.927-0.702-1.769c-0.469-0.843-1.011-1.722-1.629-2.64c-0.617-0.917-1.235-1.805-1.853-2.667
			c-0.618-0.861-1.077-1.497-1.376-1.909L919.724,175.297z M911.133,171.647c0.748,0.112,1.507,0.196,2.274,0.253
			c0.767,0.056,1.506,0.084,2.218,0.084c4.679,0,8.227-1.254,10.641-3.762c2.415-2.507,3.622-6.27,3.622-11.287
			c0-4.118-0.964-7.375-2.892-9.771c-1.929-2.395-4.765-3.594-8.507-3.594c-1.199,0-2.256,0.047-3.173,0.141
			c-0.918,0.094-1.694,0.196-2.331,0.309c-0.711,0.15-1.329,0.3-1.853,0.449V171.647z"/>
		<path style="fill:#771111;stroke:#771111;stroke-miterlimit:10;" d="M974.211,140.482c0.898,0.038,1.741,0.056,2.527,0.056
			c0.674,0.038,1.328,0.056,1.965,0.056s1.104,0,1.404,0c0.523,0,1.46-0.019,2.808-0.056c1.348-0.037,2.872-0.084,4.576-0.141
			c1.703-0.056,3.5-0.112,5.391-0.168c1.89-0.057,3.641-0.084,5.251-0.084c4.379,0,8.553,0.505,12.521,1.516
			c3.968,1.011,7.459,2.667,10.473,4.97c3.013,2.302,5.399,5.316,7.159,9.04c1.759,3.726,2.64,8.32,2.64,13.786
			c0,5.877-1.012,10.857-3.033,14.937c-2.021,4.081-4.754,7.403-8.197,9.967c-3.445,2.564-7.44,4.417-11.989,5.559
			c-4.548,1.142-9.349,1.713-14.403,1.713c-1.198,0-2.695-0.038-4.492-0.112c-1.797-0.076-3.631-0.15-5.502-0.225
			c-1.873-0.076-3.642-0.15-5.307-0.225c-1.666-0.076-2.93-0.112-3.791-0.112v-0.225c0.262-0.786,0.496-1.797,0.702-3.032
			c0.205-1.235,0.374-2.76,0.506-4.576c0.131-1.815,0.233-3.978,0.309-6.486c0.074-2.507,0.112-5.447,0.112-8.816v-14.15
			c0-3.369-0.038-6.308-0.112-8.816c-0.075-2.507-0.178-4.679-0.309-6.514c-0.132-1.833-0.301-3.369-0.506-4.604
			c-0.206-1.235-0.44-2.246-0.702-3.032V140.482z M985.835,144.582c-0.038,3.07-0.075,6.046-0.112,8.928
			c0,1.235-0.01,2.499-0.028,3.791c-0.02,1.291-0.037,2.574-0.056,3.846c-0.02,1.273-0.028,2.48-0.028,3.622
			c0,1.143,0,2.162,0,3.061c0,1.873,0.009,4.127,0.028,6.767c0.019,2.639,0.046,5.344,0.084,8.114
			c0.037,2.771,0.093,5.438,0.168,8.001c0.075,2.565,0.169,4.708,0.281,6.43c0.374,0.076,0.86,0.141,1.46,0.196
			c0.599,0.057,1.226,0.112,1.881,0.169c0.654,0.056,1.301,0.094,1.938,0.112c0.636,0.019,1.179,0.028,1.628,0.028
			c2.059,0,4.146-0.131,6.262-0.393c2.114-0.261,4.155-0.758,6.12-1.488c1.966-0.729,3.809-1.731,5.531-3.004
			c1.722-1.272,3.229-2.91,4.521-4.913c1.291-2.002,2.302-4.417,3.032-7.244c0.729-2.826,1.095-6.167,1.095-10.023
			c0-8.498-2.031-15.049-6.093-19.653c-4.062-4.604-10.117-6.907-18.165-6.907c-0.786,0-1.62,0.02-2.499,0.056
			c-0.88,0.038-1.75,0.084-2.61,0.14c-0.862,0.057-1.677,0.122-2.443,0.197C987.061,144.489,986.396,144.545,985.835,144.582z"/>
		<path style="fill:#771111;stroke:#771111;stroke-miterlimit:10;" d="M1139.327,152.331h-1.123c-0.225-0.636-0.59-1.44-1.095-2.415
			c-0.506-0.973-1.18-1.928-2.021-2.864c-0.843-0.935-1.881-1.731-3.117-2.387c-1.234-0.654-2.714-0.982-4.436-0.982
			c-1.311,0-2.48,0.216-3.51,0.646c-1.03,0.431-1.9,1.021-2.611,1.769c-0.711,0.75-1.254,1.638-1.628,2.667
			c-0.375,1.03-0.562,2.143-0.562,3.341c0,1.947,0.59,3.8,1.769,5.559c1.18,1.76,2.648,3.509,4.408,5.25
			c1.759,1.74,3.668,3.491,5.728,5.25c2.059,1.76,3.968,3.594,5.728,5.503c1.759,1.909,3.229,3.931,4.408,6.064
			c1.179,2.134,1.769,4.417,1.769,6.851c0,1.797-0.328,3.65-0.982,5.559c-0.655,1.909-1.713,3.631-3.173,5.166
			c-1.46,1.536-3.332,2.799-5.615,3.791c-2.284,0.991-5.054,1.488-8.311,1.488c-1.797,0-3.51-0.15-5.138-0.449
			c-1.629-0.3-3.126-0.665-4.492-1.095c-1.367-0.43-2.583-0.898-3.65-1.403c-1.066-0.506-1.956-0.983-2.667-1.432l1.011-10.613h1.18
			c0.373,1.311,0.926,2.621,1.656,3.931c0.729,1.311,1.628,2.499,2.695,3.565c1.066,1.067,2.32,1.929,3.762,2.583
			c1.44,0.656,3.098,0.983,4.97,0.983c1.31,0,2.545-0.215,3.706-0.646c1.16-0.43,2.162-1.039,3.004-1.825
			c0.843-0.786,1.507-1.75,1.994-2.892c0.485-1.141,0.729-2.423,0.729-3.846c0-1.685-0.337-3.247-1.011-4.689
			c-0.674-1.44-1.572-2.826-2.695-4.155c-1.123-1.328-2.387-2.611-3.79-3.846c-1.404-1.235-2.855-2.489-4.353-3.762
			c-1.497-1.272-2.947-2.573-4.352-3.902c-1.403-1.329-2.667-2.76-3.79-4.296c-1.123-1.535-2.021-3.173-2.695-4.913
			c-0.674-1.741-1.011-3.659-1.011-5.756c0-2.208,0.468-4.192,1.404-5.952c0.935-1.759,2.17-3.247,3.705-4.464
			c1.535-1.216,3.294-2.152,5.279-2.808c1.983-0.655,4.043-0.983,6.176-0.983c1.572,0,3.041,0.112,4.408,0.337
			c1.366,0.225,2.602,0.497,3.706,0.814c1.104,0.319,2.068,0.637,2.892,0.955c0.823,0.318,1.497,0.571,2.021,0.758L1139.327,152.331
			z"/>
		<path style="fill:#771111;stroke:#771111;stroke-miterlimit:10;" d="M1185.781,144.75c-3.407,0-6.505,0.15-9.293,0.449
			c-2.789,0.3-5.194,0.618-7.216,0.955c-2.321,0.413-4.418,0.862-6.289,1.348l1.123-7.244c0.562,0.076,1.479,0.132,2.752,0.168
			c1.271,0.038,2.61,0.066,4.015,0.084c1.403,0.02,2.731,0.038,3.986,0.057c1.254,0.019,2.124,0.028,2.611,0.028h26.56
			c0.449,0,1.282-0.009,2.499-0.028c1.216-0.019,2.518-0.037,3.903-0.057c1.384-0.018,2.713-0.046,3.986-0.084
			c1.272-0.037,2.189-0.093,2.752-0.168l1.123,7.244c-1.797-0.486-3.856-0.935-6.178-1.348c-1.984-0.337-4.371-0.654-7.159-0.955
			c-2.789-0.299-5.924-0.449-9.405-0.449v33.074c0,3.369,0.037,6.309,0.112,8.816c0.074,2.508,0.177,4.67,0.309,6.486
			c0.131,1.816,0.29,3.341,0.478,4.576c0.187,1.235,0.411,2.246,0.674,3.032v0.225h-12.971v-0.225
			c0.261-0.786,0.485-1.797,0.674-3.032c0.187-1.235,0.354-2.76,0.505-4.576c0.149-1.815,0.262-3.978,0.337-6.486
			c0.074-2.507,0.112-5.447,0.112-8.816V144.75z"/>
		<path style="fill:#771111;stroke:#771111;stroke-miterlimit:10;" d="M1230.96,175.297v-8.03h37.959v8.03H1230.96z"/>
		<path style="fill:#771111;stroke:#771111;stroke-miterlimit:10;" d="M1298.799,163.673c0-3.369-0.038-6.298-0.112-8.788
			c-0.075-2.489-0.178-4.641-0.309-6.457c-0.132-1.815-0.301-3.341-0.506-4.577c-0.206-1.235-0.44-2.246-0.702-3.032v-0.225h13.027
			v0.225c-0.262,0.786-0.496,1.797-0.701,3.032c-0.206,1.235-0.375,2.761-0.506,4.577c-0.132,1.816-0.234,3.968-0.309,6.457
			c-0.075,2.49-0.112,5.419-0.112,8.788v25.999c0,5.316-0.459,9.808-1.376,13.477c-0.918,3.668-2.246,6.859-3.986,9.574
			c-1.741,2.714-3.847,5.138-6.317,7.272s-5.278,4.342-8.423,6.626l-1.066-1.292c2.731-2.471,4.865-4.933,6.4-7.384
			c1.535-2.453,2.668-5.082,3.397-7.89c0.73-2.808,1.18-5.868,1.348-9.181c0.169-3.313,0.253-7.047,0.253-11.203V163.673z"/>
		<path style="fill:#771111;stroke:#771111;stroke-miterlimit:10;" d="M1350.727,140.567c3.855-0.019,7.431-0.057,10.725-0.112
			c3.294-0.057,6.13-0.121,8.508-0.197c2.377-0.075,3.939-0.187,4.688-0.337l-2.19,6.064c-1.01-0.261-2.152-0.505-3.425-0.73
			c-1.123-0.187-2.48-0.365-4.071-0.533c-1.592-0.169-3.435-0.253-5.531-0.253c-0.749,0-1.609,0.028-2.582,0.084
			c-0.975,0.057-1.91,0.122-2.809,0.197c-1.048,0.076-2.115,0.15-3.2,0.225v22.18c3.032-0.037,5.765-0.112,8.198-0.225
			c2.433-0.112,4.511-0.261,6.232-0.449c2.021-0.149,3.8-0.355,5.335-0.618l-1.348,6.682c-2.06-0.261-4.137-0.486-6.233-0.674
			c-1.797-0.187-3.781-0.346-5.951-0.478c-2.172-0.13-4.25-0.196-6.233-0.196v25.493c3.481,0,6.683-0.141,9.603-0.421
			c2.92-0.281,5.465-0.59,7.637-0.927c2.545-0.412,4.847-0.879,6.906-1.404l-1.291,7.356c-0.562-0.038-1.47-0.084-2.724-0.141
			c-1.255-0.056-2.564-0.094-3.931-0.112c-1.367-0.019-2.649-0.038-3.847-0.056c-1.198-0.02-2.021-0.028-2.471-0.028h-21.282v-0.225
			c0.262-0.786,0.496-1.797,0.702-3.032c0.205-1.235,0.374-2.76,0.506-4.576c0.131-1.815,0.233-3.978,0.309-6.486
			c0.074-2.507,0.112-5.447,0.112-8.816v-14.15c0-3.369-0.038-6.298-0.112-8.788c-0.075-2.489-0.178-4.641-0.309-6.457
			c-0.132-1.815-0.301-3.341-0.506-4.577c-0.206-1.235-0.44-2.246-0.702-3.032v-0.225
			C1343.108,140.595,1346.87,140.586,1350.727,140.567z"/>
		<path style="fill:#771111;stroke:#771111;stroke-miterlimit:10;" d="M1441.079,181.979c-1.011,0-2.274,0-3.79,0
			c-1.517,0-3.173,0-4.97,0s-3.65,0-5.559,0c-1.91,0-3.726,0.01-5.447,0.028c-1.723,0.019-3.295,0.038-4.717,0.056
			c-1.423,0.02-2.527,0.028-3.312,0.028l-2.078,4.38c-0.898,1.797-1.666,3.36-2.303,4.688c-0.637,1.33-1.16,2.499-1.572,3.51
			s-0.711,1.881-0.898,2.611c-0.188,0.729-0.28,1.413-0.28,2.049c0,0.413,0.019,0.721,0.056,0.926
			c0.037,0.207,0.094,0.365,0.169,0.478v0.225h-9.883v-0.225c0.263-0.261,0.674-0.833,1.235-1.713
			c0.562-0.879,1.207-1.956,1.938-3.229c0.729-1.272,1.516-2.714,2.358-4.324c0.842-1.609,1.675-3.275,2.499-4.998l22.91-47.28
			h4.211l22.461,47.28c0.86,1.797,1.731,3.519,2.611,5.166c0.879,1.648,1.693,3.116,2.442,4.408c0.748,1.291,1.403,2.358,1.966,3.2
			c0.561,0.843,0.935,1.339,1.123,1.488v0.225h-14.375c0.074-0.299,0.111-0.57,0.111-0.814c0-0.243,0-0.514,0-0.814
			c0-0.823-0.178-1.815-0.533-2.976c-0.356-1.16-0.786-2.349-1.291-3.565c-0.506-1.216-1.03-2.387-1.572-3.51
			c-0.543-1.123-0.982-2.058-1.32-2.808L1441.079,181.979z M1415.474,177.599h3.426c1.572,0,3.247-0.009,5.025-0.028
			c1.777-0.018,3.565-0.028,5.362-0.028s3.538-0.009,5.222-0.028c1.686-0.019,3.201-0.028,4.549-0.028l-11.623-24.819
			L1415.474,177.599z"/>
		<path style="fill:#771111;stroke:#771111;stroke-miterlimit:10;" d="M1539.209,201.745h-2.189l-44.642-43.911v19.99
			c0,3.369,0.019,6.309,0.056,8.816c0.037,2.508,0.104,4.67,0.197,6.486c0.093,1.816,0.225,3.341,0.393,4.576
			c0.169,1.235,0.384,2.246,0.646,3.032v0.225h-8.424v-0.225c0.262-0.786,0.486-1.797,0.674-3.032s0.338-2.76,0.449-4.576
			c0.113-1.815,0.188-3.978,0.225-6.486c0.037-2.507,0.057-5.447,0.057-8.816v-14.15c0-3.369-0.02-6.298-0.057-8.788
			c-0.037-2.489-0.111-4.641-0.225-6.457c-0.111-1.815-0.262-3.341-0.449-4.577s-0.412-2.246-0.674-3.032v-0.225h3.482
			l44.697,44.136v-21.057c0-3.369-0.02-6.298-0.057-8.788c-0.038-2.489-0.104-4.641-0.196-6.457
			c-0.094-1.815-0.216-3.341-0.365-4.577c-0.15-1.235-0.356-2.246-0.618-3.032v-0.225h8.367v0.225
			c-0.263,0.786-0.478,1.797-0.646,3.032c-0.169,1.235-0.31,2.761-0.421,4.577c-0.113,1.816-0.188,3.968-0.225,6.457
			c-0.038,2.49-0.057,5.419-0.057,8.788V201.745z"/>
	</g>
</g>
<g id="Guides" style="display:none;">
</g>
</svg>
