<svg xmlns="http://www.w3.org/2000/svg" viewBox="0 0 1680 840"><path fill="none" d="M127.615 278.371H1552.809V578.371H127.615z"/><path d="M140.003 560.034V280h112.144v54.116h-55.094v54.442h52.812v52.812h-52.812v64.222h58.68v54.442h-115.73zm143.924-16.3c-11.303-12.602-16.952-32.926-16.952-60.962v-27.384h55.094v34.882c0 13.911 4.452 20.864 13.366 20.864 4.997 0 8.476-1.467 10.432-4.401 1.956-2.934 2.934-7.875 2.934-14.833 0-9.128-1.09-16.677-3.26-22.657-2.175-5.975-4.946-10.972-8.313-14.996-3.372-4.019-9.403-10.269-18.093-18.745l-24.124-24.124c-18.694-18.256-28.036-38.468-28.036-60.636 0-23.905 5.486-42.105 16.463-54.605 10.972-12.495 27.002-18.745 48.085-18.745 25.209 0 43.358 6.683 54.442 20.049 11.084 13.366 16.626 34.286 16.626 62.755h-57.05l-.326-19.234c0-3.693-1.034-6.627-3.097-8.802-2.068-2.17-4.946-3.26-8.639-3.26-4.35 0-7.61 1.197-9.78 3.586-2.175 2.394-3.26 5.654-3.26 9.78 0 9.128 5.216 18.582 15.648 28.362l32.6 31.296c7.605 7.391 13.906 14.4 18.908 21.027 4.997 6.632 9.016 14.456 12.062 23.472 3.041 9.021 4.564 19.723 4.564 32.111 0 27.603-5.053 48.523-15.159 62.755-10.106 14.237-26.788 21.353-50.041 21.353-25.428 0-43.796-6.301-55.094-18.908zM418.5 280h74.002c22.382 0 38.356 7.228 47.922 21.679 9.561 14.456 14.344 35.59 14.344 63.407 0 27.822-4.238 48.793-12.714 62.918-8.476 14.13-23.691 21.19-45.64 21.19h-22.82v110.84H418.5V280zm58.354 118.664c6.734 0 11.68-1.248 14.833-3.749 3.148-2.496 5.216-6.082 6.194-10.758.978-4.671 1.467-11.354 1.467-20.049 0-11.736-1.304-20.212-3.912-25.428-2.608-5.216-7.824-7.824-15.648-7.824h-6.194v67.808h3.26zm78.887 161.37L582.799 280h94.866l26.732 280.034h-53.138l-3.912-45.314h-33.904l-3.26 45.314h-54.442zm61.94-89.976h25.428l-12.388-142.462h-2.608l-10.432 142.462zm114.616 73.35c-12.281-12.821-18.419-30.425-18.419-52.812V361.5c0-27.817 5.542-48.788 16.626-62.918 11.084-14.125 28.469-21.19 52.16-21.19 20.645 0 37.271 5.654 49.877 16.952 12.602 11.303 18.908 27.603 18.908 48.9v48.248h-55.746V350.09c0-8.038-.978-13.58-2.934-16.626-1.956-3.041-5.328-4.564-10.106-4.564-5.002 0-8.425 1.742-10.269 5.216-1.849 3.479-2.771 8.588-2.771 15.322v140.506c0 7.391 1.085 12.77 3.26 16.137 2.17 3.372 5.43 5.053 9.78 5.053 8.69 0 13.04-7.06 13.04-21.19v-50.53h56.398v52.812c0 46.944-23.584 70.416-70.742 70.416-20.43 0-36.786-6.408-49.062-19.234zm133.92 16.626V280h112.145v54.116h-55.094v54.442h52.812v52.812h-52.812v64.222h58.68v54.442H866.217zm208.961-13.366c0-12.821 2.007-24.664 6.03-35.534 4.02-10.865 8.966-20.645 14.833-29.34 5.868-8.69 13.58-18.908 23.146-30.644 9.78-12.169 17.548-22.494 23.309-30.97 5.756-8.476 10.646-18.2 14.67-29.177 4.02-10.972 6.031-22.871 6.031-35.697 0-7.605-1.09-13.529-3.26-17.767-2.175-4.238-6.087-6.357-11.736-6.357-9.347 0-14.018 8.369-14.018 25.102v34.23h-59.006l-.652-17.278c0-21.297 2.17-38.794 6.521-52.486 4.345-13.692 11.949-24.124 22.819-31.296 10.865-7.172 25.861-10.758 44.988-10.758 23.472 0 41.616 6.576 54.442 19.723 12.82 13.152 19.233 31.785 19.233 55.909 0 15.434-2.119 29.396-6.356 41.891-4.238 12.5-9.454 23.421-15.648 32.763-6.194 9.347-14.4 20.324-24.613 32.926-7.391 8.914-13.528 16.845-18.419 23.798a201.078 201.078 0 0 0-13.203 21.516h76.284v52.812h-145.396v-13.366zm174.048-2.771c-11.304-12.928-16.952-32.651-16.952-59.169v-29.34h57.376v29.34c0 8.476 1.085 15.052 3.26 19.723 2.17 4.676 6.52 7.009 13.04 7.009 4.563 0 7.875-1.63 9.943-4.89 2.062-3.26 3.311-7.116 3.748-11.573.434-4.452.652-10.921.652-19.397v-6.846c0-24.124-7.936-36.186-23.798-36.186-2.827 0-4.676.112-5.542.326V382.69c9.994 0 17.492-2.226 22.494-6.683 4.997-4.452 7.498-11.573 7.498-21.353 0-15.862-4.564-23.798-13.692-23.798-5.654 0-9.291 1.417-10.921 4.238-1.63 2.827-2.72 6.413-3.26 10.758-.545 4.35-.927 7.498-1.142 9.454v8.476h-58.027l-.326-9.78c.214-25.642 6.301-44.499 18.256-56.561 11.95-12.062 30.318-18.093 55.094-18.093 47.597 0 71.395 24.888 71.395 74.654 0 14.563-1.956 26.136-5.868 34.719-3.912 8.588-10.651 14.619-20.212 18.093 7.824 3.912 13.636 8.751 17.44 14.507 3.801 5.761 6.302 12.77 7.498 21.027 1.192 8.262 1.793 19.346 1.793 33.252 0 28.907-6.03 50.749-18.093 65.526-12.062 14.782-31.352 22.168-57.865 22.168-24.562 0-42.492-6.464-53.789-19.397zm161.332-1.304c-12.826-13.366-19.234-32.437-19.234-57.213V358.892c0-26.513 6.194-46.725 18.582-60.636 12.389-13.906 30.858-20.864 55.421-20.864 24.775 0 43.357 6.958 55.745 20.864 12.389 13.911 18.582 34.123 18.582 60.636V485.38c0 24.995-6.413 44.122-19.233 57.376-12.826 13.259-31.189 19.886-55.094 19.886-23.692 0-41.948-6.683-54.769-20.049zm64.874-37.164c2.608-3.8 3.912-8.313 3.912-13.529V353.676c0-8.038-.927-14.181-2.771-18.419-1.849-4.238-5.598-6.357-11.246-6.357-5.654 0-9.348 2.119-11.084 6.357-1.742 4.238-2.608 10.381-2.608 18.419V491.9c0 5.216 1.248 9.729 3.749 13.529 2.496 3.805 5.812 5.705 9.943 5.705 4.124 0 7.496-1.9 10.105-5.705z" fill="#141516"/><g><path fill="none" d="M138.589 658.053H1552.78V713.826H138.589z"/><path d="M138.639 699.996l14.764-41.938h9.378l14.785 41.938h-8.109l-3.481-10.341h-15.768l-3.46 10.341h-8.109zm25.289-16.444l-5.672-16.894h-.328l-5.672 16.894h11.672zm19.128-25.494h33.46v6.369h-12.962v35.569h-7.536v-35.569h-12.962v-6.369zm46.716 0h27.276v6.369h-19.679v11.385h18.266v6.368h-18.266v11.447h19.843v6.369h-27.44v-41.938zm42.538 0h7.597v35.569h18.471v6.369H272.31v-41.938zm47.023 41.938h-7.597v-41.938h7.597v41.938zm16.53-41.938h27.276v6.369H343.46v11.385h18.266v6.368H343.46v11.447h19.843v6.369h-27.44v-41.938zm42.537 0h15.727c9.625 0 14.785 5.406 14.785 13.413 0 5.693-2.601 9.911-7.536 11.897l9.072 16.627h-8.478l-8.231-15.358h-7.741v15.358H378.4v-41.937zm14.601 20.273c5.631 0 8.17-2.396 8.17-6.86s-2.539-7.064-8.211-7.064h-6.962v13.924h7.003zm45.055-14.416c-4.751 0-7.577 2.314-7.597 5.467-.041 3.502 3.686 4.956 7.126 5.775l3.932.983c6.307 1.495 12.307 4.812 12.328 12.082-.021 7.392-5.856 12.409-15.911 12.409-9.768 0-15.972-4.689-16.279-13.023h7.474c.307 4.402 3.993 6.532 8.744 6.532 4.955 0 8.354-2.396 8.375-5.979-.021-3.256-3.01-4.669-7.536-5.815l-4.771-1.229c-6.901-1.782-11.181-5.242-11.181-11.263-.021-7.413 6.594-12.368 15.399-12.368 8.928 0 14.969 5.017 15.112 12.102h-7.31c-.39-3.564-3.38-5.673-7.905-5.673zm52.665 36.081v-41.938h14.498c12.491 0 20.068 7.863 20.068 20.928 0 13.105-7.577 21.01-20.354 21.01h-14.212zm13.842-6.574c8.744 0 13.188-4.792 13.188-14.437 0-9.604-4.444-14.354-12.962-14.354h-6.471v28.791h6.245zm41.23-31.187c0 3.625-2.252 7.925-5.263 10.423l-3.44-2.232c1.495-2.252 2.805-4.812 2.805-8.15v-4.218h5.897v4.177zm7.522 37.761l14.764-41.938h9.378l14.785 41.938h-8.109l-3.481-10.341h-15.768l-3.46 10.341h-8.109zm25.289-16.444l-5.672-16.894h-.328l-5.672 16.894h11.672zm26.461-25.494h15.727c9.625 0 14.785 5.406 14.785 13.413 0 5.693-2.601 9.911-7.536 11.897l9.072 16.627h-8.478l-8.231-15.358h-7.741v15.358h-7.597v-41.937zm14.601 20.273c5.631 0 8.17-2.396 8.17-6.86s-2.539-7.064-8.211-7.064h-6.962v13.924h7.003zm27.966-20.273h33.46v6.369H668.13v35.569h-7.536v-35.569h-12.962v-6.369zm54.313 41.938h-7.597v-41.938h7.597v41.938zm31.077-36.081c-4.751 0-7.577 2.314-7.597 5.467-.041 3.502 3.686 4.956 7.126 5.775l3.932.983c6.307 1.495 12.307 4.812 12.328 12.082-.021 7.392-5.856 12.409-15.911 12.409-9.768 0-15.972-4.689-16.279-13.023h7.474c.307 4.402 3.993 6.532 8.744 6.532 4.956 0 8.355-2.396 8.375-5.979-.021-3.256-3.01-4.669-7.536-5.815l-4.771-1.229c-6.9-1.782-11.18-5.242-11.18-11.263-.021-7.413 6.593-12.368 15.399-12.368 8.928 0 14.969 5.017 15.112 12.102h-7.311c-.39-3.564-3.38-5.673-7.905-5.673zm27.61-5.857h33.46v6.369H781.13v35.569h-7.536v-35.569h-12.962v-6.369zm46.716 0h27.276v6.369h-19.679v11.385h18.266v6.368h-18.266v11.447h19.843v6.369h-27.44v-41.938zm56.439 5.857c-4.751 0-7.576 2.314-7.597 5.467-.041 3.502 3.686 4.956 7.126 5.775l3.932.983c6.307 1.495 12.307 4.812 12.327 12.082-.021 7.392-5.856 12.409-15.911 12.409-9.768 0-15.972-4.689-16.279-13.023h7.475c.307 4.402 3.992 6.532 8.743 6.532 4.956 0 8.354-2.396 8.375-5.979-.021-3.256-3.01-4.669-7.535-5.815l-4.771-1.229c-6.9-1.782-11.181-5.242-11.181-11.263-.021-7.413 6.594-12.368 15.399-12.368 8.928 0 14.969 5.017 15.112 12.102h-7.311c-.388-3.564-3.379-5.673-7.904-5.673zm88.958 42.388h-6.491l13.515-50.21h6.491l-13.515 50.21zm100.394-41.999c-6.778 0-11.672 5.242-11.672 14.682 0 9.501 4.812 14.764 11.836 14.764 6.307 0 10.3-3.788 10.423-9.768h-9.666v-5.938h17.017v5.038c0 10.812-7.433 17.487-17.814 17.487-11.57 0-19.434-8.232-19.434-21.501 0-13.515 8.232-21.583 19.208-21.583 9.276 0 16.402 5.733 17.692 13.965h-7.74c-1.352-4.443-4.793-7.146-9.85-7.146zm28.025 35.692l14.764-41.938h9.379l14.784 41.938h-8.108l-3.481-10.341h-15.768l-3.461 10.341h-8.109zm25.289-16.444l-5.672-16.894h-.328l-5.672 16.894h11.672zm26.462-25.494h7.597v35.569h18.471v6.369h-26.067v-41.938zm39.426 0h27.275v6.369h-19.679v11.385h18.266v6.368h-18.266v11.447h19.843v6.369h-27.439v-41.938zm42.538 0h15.727c9.624 0 14.784 5.406 14.784 13.413 0 5.693-2.601 9.911-7.535 11.897l9.071 16.627h-8.478l-8.232-15.358h-7.74v15.358h-7.597v-41.937zm14.6 20.273c5.632 0 8.171-2.396 8.171-6.86s-2.539-7.064-8.212-7.064h-6.962v13.924h7.003zm38.468 21.665h-7.597v-41.938h7.597v41.938zm16.53-41.938h27.275v6.369h-19.679v11.385h18.266v6.368h-18.266v11.447h19.843v6.369h-27.439v-41.938zm65.157 41.938v-41.938h14.498c12.491 0 20.067 7.863 20.067 20.928 0 13.105-7.576 21.01-20.354 21.01h-14.211zm13.843-6.574c8.743 0 13.187-4.792 13.187-14.437 0-9.604-4.443-14.354-12.962-14.354h-6.471v28.791h6.246zm41.229-31.187c0 3.625-2.253 7.925-5.263 10.423l-3.44-2.232c1.495-2.252 2.806-4.812 2.806-8.15v-4.218h5.897v4.177zm7.521 37.761l14.764-41.938h9.379l14.784 41.938h-8.108l-3.481-10.341h-15.768l-3.461 10.341h-8.109zm25.289-16.444l-5.672-16.894h-.328l-5.672 16.894h11.672zm26.462-25.494h15.727c9.624 0 14.784 5.406 14.784 13.413 0 5.693-2.601 9.911-7.535 11.897l9.071 16.627h-8.478l-8.232-15.358h-7.74v15.358h-7.597v-41.937zm14.599 20.273c5.632 0 8.171-2.396 8.171-6.86s-2.539-7.064-8.212-7.064h-6.962v13.924h7.003zm27.966-20.273h33.46v6.369h-12.962v35.569h-7.535v-35.569h-12.963v-6.369z" fill="#141516"/></g><path fill="#141516" d="M139.865 609.871H1539.865V619.871H139.865z"/><g><path fill="none" d="M131.614 140.146H1552.808V211.742H131.614z"/><path d="M150.369 196.579c3.481 0 6.691-.141 9.63-.421 2.938-.281 5.512-.59 7.721-.927 2.583-.412 4.922-.879 7.019-1.404l-1.292 7.468a117.07 117.07 0 0 0-2.667-.141 125.374 125.374 0 0 0-3.958-.112 2937.07 2937.07 0 0 1-3.875-.056 167.68 167.68 0 0 0-2.471-.028H138.97v-.225c.261-.786.496-1.797.702-3.032.206-1.235.374-2.76.506-4.576.13-1.815.233-3.978.309-6.486.075-2.507.112-5.447.112-8.816v-14.15c0-3.369-.038-6.298-.112-8.788a158.964 158.964 0 0 0-.309-6.457c-.132-1.815-.3-3.341-.506-4.577-.206-1.235-.44-2.246-.702-3.032v-.225h12.971v.225c-.262.786-.487 1.797-.674 3.032-.188 1.235-.347 2.761-.478 4.577a157.162 157.162 0 0 0-.309 6.457 293.64 293.64 0 0 0-.112 8.788v32.906zm42.926-25.999c0-4.417.833-8.516 2.499-12.297 1.665-3.781 3.939-7.065 6.822-9.854 2.882-2.789 6.289-4.97 10.22-6.542s8.142-2.358 12.634-2.358c4.417 0 8.582.74 12.494 2.218 3.912 1.479 7.318 3.585 10.22 6.317 2.901 2.733 5.194 6.046 6.879 9.939 1.685 3.894 2.527 8.254 2.527 13.083 0 4.006-.711 7.871-2.134 11.596a29.344 29.344 0 0 1-6.233 9.883c-2.733 2.863-6.102 5.147-10.107 6.851-4.006 1.703-8.591 2.555-13.757 2.555-4.38 0-8.517-.73-12.41-2.19-3.894-1.46-7.3-3.546-10.22-6.261-2.92-2.713-5.222-6.008-6.907-9.883-1.685-3.876-2.527-8.228-2.527-13.057zm33.467 27.402c2.844 0 5.465-.562 7.861-1.685 2.395-1.123 4.464-2.732 6.205-4.829 1.74-2.096 3.088-4.651 4.043-7.665.954-3.013 1.432-6.41 1.432-10.192 0-4.304-.459-8.291-1.376-11.96-.917-3.668-2.302-6.841-4.155-9.518-1.853-2.676-4.165-4.773-6.935-6.289-2.771-1.517-6.008-2.274-9.714-2.274-2.845 0-5.466.543-7.861 1.628-2.396 1.086-4.464 2.659-6.205 4.717-1.741 2.059-3.098 4.586-4.071 7.581-.974 2.996-1.46 6.401-1.46 10.22 0 4.268.478 8.246 1.432 11.933.955 3.688 2.358 6.888 4.212 9.602 1.853 2.715 4.164 4.849 6.935 6.401 2.769 1.554 5.987 2.33 9.657 2.33zm102.974-34.533c0-3.332-.02-6.233-.056-8.704-.038-2.471-.112-4.604-.225-6.401s-.244-3.303-.393-4.52c-.15-1.216-.337-2.218-.562-3.004v-.225h8.254v.225c-.225.786-.413 1.797-.562 3.032a79.642 79.642 0 0 0-.393 4.577 140.583 140.583 0 0 0-.225 6.457c-.038 2.49-.056 5.419-.056 8.788v16.116c0 4.043-.627 7.488-1.881 10.332-1.254 2.845-2.985 5.176-5.194 6.991-2.209 1.816-4.839 3.145-7.889 3.987-3.052.842-6.393 1.263-10.023 1.263-3.669 0-7.075-.403-10.22-1.208-3.145-.804-5.868-2.086-8.17-3.846-2.303-1.759-4.119-4.043-5.447-6.851-1.329-2.808-1.993-6.213-1.993-10.22v-16.565c0-3.369-.038-6.298-.112-8.788a128.304 128.304 0 0 0-.337-6.457c-.15-1.815-.318-3.341-.505-4.577-.188-1.235-.413-2.246-.674-3.032v-.225h12.971v.225c-.262.786-.487 1.788-.674 3.004-.188 1.217-.347 2.723-.478 4.52a153.95 153.95 0 0 0-.309 6.401 288.5 288.5 0 0 0-.112 8.704v16.79c0 3.333.505 6.074 1.516 8.226 1.011 2.153 2.339 3.866 3.987 5.138 1.647 1.273 3.518 2.162 5.615 2.667a27.47 27.47 0 0 0 6.458.758 28.08 28.08 0 0 0 6.542-.758c2.115-.506 4.005-1.395 5.672-2.667 1.665-1.272 2.994-2.985 3.986-5.138.992-2.152 1.488-4.894 1.488-8.226v-16.789zm37.692.224c0-3.369-.038-6.298-.112-8.788a158.964 158.964 0 0 0-.309-6.457c-.132-1.815-.3-3.341-.506-4.577-.206-1.235-.44-2.246-.702-3.032v-.225h13.027v.225c-.262.786-.497 1.797-.702 3.032-.207 1.235-.375 2.761-.506 4.577a157.162 157.162 0 0 0-.309 6.457 293.64 293.64 0 0 0-.112 8.788v14.15c0 3.369.037 6.309.112 8.816.075 2.508.177 4.67.309 6.486.131 1.816.299 3.341.506 4.576.205 1.235.439 2.246.702 3.032v.225h-13.027v-.225c.261-.786.496-1.797.702-3.032.206-1.235.374-2.76.506-4.576.13-1.815.233-3.978.309-6.486.075-2.507.112-5.447.112-8.816v-14.15zm68.765-11.342h-1.123c-.225-.636-.59-1.44-1.095-2.415-.506-.973-1.18-1.928-2.021-2.864-.843-.935-1.881-1.731-3.117-2.387-1.235-.654-2.715-.982-4.436-.982-1.311 0-2.48.216-3.51.646-1.03.431-1.9 1.021-2.611 1.769a7.58 7.58 0 0 0-1.628 2.667c-.375 1.03-.562 2.143-.562 3.341 0 1.947.59 3.8 1.769 5.559 1.18 1.76 2.648 3.509 4.408 5.25a106.249 106.249 0 0 0 5.728 5.25 67.198 67.198 0 0 1 5.728 5.503c1.759 1.909 3.229 3.931 4.408 6.064a13.946 13.946 0 0 1 1.769 6.851c0 1.797-.328 3.65-.982 5.559-.656 1.909-1.713 3.631-3.173 5.166-1.46 1.536-3.333 2.799-5.615 3.791-2.284.991-5.054 1.488-8.311 1.488-1.797 0-3.51-.15-5.138-.449a37.77 37.77 0 0 1-4.492-1.095 28.658 28.658 0 0 1-3.65-1.403c-1.066-.506-1.957-.983-2.667-1.432l1.011-10.613h1.179a18.47 18.47 0 0 0 1.657 3.931 16.03 16.03 0 0 0 2.695 3.565 12.648 12.648 0 0 0 3.762 2.583c1.441.656 3.097.983 4.97.983 1.31 0 2.545-.215 3.706-.646 1.16-.43 2.162-1.039 3.004-1.825.843-.786 1.507-1.75 1.994-2.892.486-1.141.73-2.423.73-3.846 0-1.685-.337-3.247-1.011-4.689-.674-1.44-1.572-2.826-2.695-4.155a36.751 36.751 0 0 0-3.79-3.846 343.908 343.908 0 0 0-4.352-3.762 108.283 108.283 0 0 1-4.352-3.902 31.6 31.6 0 0 1-3.79-4.296 21.355 21.355 0 0 1-2.695-4.913c-.674-1.741-1.011-3.659-1.011-5.756 0-2.208.468-4.192 1.404-5.952a14.028 14.028 0 0 1 3.706-4.464c1.535-1.216 3.293-2.152 5.278-2.808a19.576 19.576 0 0 1 6.177-.983c1.572 0 3.041.112 4.408.337 1.366.225 2.602.497 3.706.814 1.104.319 2.068.637 2.892.955.823.318 1.497.571 2.021.758l-.283 9.545zm26.766 22.966v-8.03h37.959v8.03h-37.959zm65.813-34.815c.71.038 1.44.056 2.19.056.636.038 1.328.056 2.078.056h2.19c1.16 0 2.77-.075 4.829-.225 2.058-.149 4.623-.225 7.693-.225 2.732 0 5.269.328 7.609.983 2.339.655 4.36 1.6 6.064 2.835 1.703 1.235 3.032 2.751 3.986 4.548.955 1.797 1.432 3.838 1.432 6.121 0 1.947-.272 3.678-.814 5.194-.543 1.517-1.32 2.846-2.331 3.987-1.011 1.142-2.228 2.097-3.65 2.863-1.423.768-2.996 1.376-4.717 1.825 2.507.375 4.792.992 6.851 1.853 2.058.862 3.818 1.937 5.278 3.229a13.353 13.353 0 0 1 3.369 4.548c.786 1.741 1.179 3.678 1.179 5.812 0 5.916-2.115 10.342-6.345 13.28-4.231 2.939-10.538 4.408-18.923 4.408-.898 0-2.013-.038-3.341-.112a817.79 817.79 0 0 0-4.155-.225c-1.441-.076-2.827-.15-4.155-.225a59.96 59.96 0 0 0-3.341-.112h-2.976v-.225c.261-.786.496-1.797.702-3.032.206-1.235.374-2.76.506-4.576.13-1.815.233-3.978.309-6.486.075-2.507.112-5.447.112-8.816v-14.15c0-3.369-.038-6.308-.112-8.816a162.406 162.406 0 0 0-.309-6.514c-.132-1.833-.3-3.369-.506-4.604-.206-1.235-.44-2.246-.702-3.032v-.223zm11.399 27.122c.749.112 1.422.178 2.021.196.598.02 1.216.028 1.853.028 3.781 0 6.785-1.047 9.012-3.145 2.227-2.096 3.341-5.222 3.341-9.377 0-1.685-.225-3.237-.674-4.661-.449-1.422-1.095-2.639-1.937-3.65a8.603 8.603 0 0 0-3.145-2.358c-1.255-.562-2.687-.842-4.296-.842-1.086 0-2.003.047-2.751.141-.75.094-1.385.178-1.909.252-.599.15-1.104.281-1.516.393v23.023zm7.468 3.818c-1.797 0-3.323.066-4.577.196a52.483 52.483 0 0 0-2.892.365v5.84c0 3.22.009 5.916.028 8.086.018 2.171.056 3.987.112 5.447s.103 2.63.14 3.509c.037.88.093 1.638.168 2.274.973.262 2.012.431 3.116.505 1.104.076 1.974.112 2.611.112 5.166 0 8.918-1.132 11.259-3.397 2.339-2.265 3.509-5.774 3.509-10.529 0-1.797-.281-3.462-.842-4.998-.562-1.535-1.404-2.844-2.527-3.931-1.123-1.085-2.527-1.938-4.211-2.555-1.682-.615-3.648-.924-5.894-.924zm61.67-30.855c3.855-.019 7.431-.057 10.725-.112 3.293-.057 6.129-.121 8.507-.197 2.376-.075 3.939-.187 4.688-.337l-2.19 6.064a45.503 45.503 0 0 0-3.425-.73 70.11 70.11 0 0 0-4.071-.533c-1.591-.169-3.435-.253-5.531-.253-.75 0-1.61.028-2.583.084-.974.057-1.909.122-2.808.197-1.048.076-2.115.15-3.201.225v22.18c3.032-.037 5.764-.112 8.198-.225 2.433-.112 4.511-.261 6.233-.449 2.021-.149 3.799-.355 5.334-.618l-1.348 6.682a171.152 171.152 0 0 0-6.233-.674 140.064 140.064 0 0 0-5.952-.478c-2.171-.13-4.249-.196-6.233-.196v25.493c3.481 0 6.682-.141 9.602-.421 2.92-.281 5.465-.59 7.637-.927 2.545-.412 4.848-.879 6.907-1.404l-1.292 7.356a142.54 142.54 0 0 0-6.654-.253l-3.847-.056a167.68 167.68 0 0 0-2.471-.028h-21.282v-.225c.261-.786.496-1.797.702-3.032.206-1.235.374-2.76.506-4.576.13-1.815.233-3.978.309-6.486.075-2.507.112-5.447.112-8.816v-14.15c0-3.369-.038-6.298-.112-8.788a158.964 158.964 0 0 0-.309-6.457c-.132-1.815-.3-3.341-.506-4.577-.206-1.235-.44-2.246-.702-3.032v-.225c3.671.002 7.434-.007 11.29-.026zm69.627 34.73c-.75.112-1.488.178-2.218.197-.729.019-1.469.028-2.218.028-.599 0-1.255-.019-1.965-.056a45.967 45.967 0 0 1-2.19-.168v2.751c0 3.333.037 6.243.112 8.731.075 2.49.177 4.633.309 6.43.131 1.797.29 3.304.478 4.521.187 1.217.412 2.218.674 3.004v.225h-12.971v-.225c.261-.786.496-1.797.702-3.032.206-1.235.374-2.76.506-4.576.13-1.815.233-3.978.309-6.486.075-2.507.112-5.447.112-8.816v-14.15c0-3.369-.038-6.298-.112-8.788a158.964 158.964 0 0 0-.309-6.457c-.132-1.815-.3-3.341-.506-4.577-.206-1.235-.44-2.246-.702-3.032v-.225c.598.038 1.235.076 1.909.112.562.038 1.188.066 1.881.084.692.019 1.394.028 2.105.028 1.198 0 2.976-.112 5.334-.337s5.128-.337 8.311-.337c3.219 0 6.149.393 8.788 1.179 2.64.786 4.904 1.909 6.795 3.369 1.89 1.46 3.35 3.238 4.38 5.334 1.029 2.097 1.544 4.436 1.544 7.019 0 2.021-.281 3.866-.842 5.531a15.594 15.594 0 0 1-2.358 4.492 17.27 17.27 0 0 1-3.594 3.509 24.97 24.97 0 0 1-4.604 2.639l11.736 16.565a95.498 95.498 0 0 0 3.061 3.875 62.52 62.52 0 0 0 2.948 3.313c.935.974 1.815 1.788 2.639 2.443.823.655 1.516 1.095 2.078 1.319v.225h-14.712c0-.337-.234-.927-.702-1.769a36.667 36.667 0 0 0-1.629-2.64 109.16 109.16 0 0 0-1.853-2.667 475.538 475.538 0 0 0-1.376-1.909l-11.85-16.676zm-8.592-3.65a30.752 30.752 0 0 0 4.492.337c4.679 0 8.227-1.254 10.641-3.762 2.415-2.507 3.622-6.27 3.622-11.287 0-4.118-.964-7.375-2.892-9.771-1.929-2.395-4.765-3.594-8.507-3.594a31.445 31.445 0 0 0-5.503.45 28 28 0 0 0-1.853.449v27.178zm117.04 30.098h-2.19l-44.641-43.911v19.99c0 3.369.019 6.309.056 8.816.037 2.508.103 4.67.197 6.486.093 1.816.225 3.341.393 4.576.169 1.235.384 2.246.646 3.032v.225h-8.423v-.225c.261-.786.486-1.797.674-3.032.187-1.235.337-2.76.449-4.576.112-1.815.187-3.978.225-6.486.037-2.507.056-5.447.056-8.816v-14.15c0-3.369-.02-6.298-.056-8.788a140.583 140.583 0 0 0-.225-6.457c-.112-1.815-.262-3.341-.449-4.577-.188-1.235-.413-2.246-.674-3.032v-.225h3.481l44.697 44.136v-21.057c0-3.369-.02-6.298-.056-8.788a185.861 185.861 0 0 0-.196-6.457c-.094-1.815-.216-3.341-.365-4.577-.15-1.235-.356-2.246-.618-3.032v-.225h8.367v.225c-.262.786-.478 1.797-.646 3.032-.169 1.235-.309 2.761-.421 4.577a140.583 140.583 0 0 0-.225 6.457c-.038 2.49-.056 5.419-.056 8.788v38.071zm68.183-19.766H841.248c-1.91 0-3.727.01-5.447.028-1.723.019-3.295.038-4.717.056-1.424.02-2.527.028-3.312.028l-2.078 4.38a329.128 329.128 0 0 0-2.303 4.688c-.637 1.33-1.16 2.499-1.572 3.51s-.711 1.881-.898 2.611a8.23 8.23 0 0 0-.281 2.049c0 .413.02.721.057.926.037.207.094.365.168.478v.225h-9.882v-.225c.262-.261.674-.833 1.235-1.713a81.14 81.14 0 0 0 1.938-3.229 128.776 128.776 0 0 0 2.358-4.324 155.136 155.136 0 0 0 2.5-4.998l22.91-47.28h4.211l22.461 47.28c.859 1.797 1.73 3.519 2.611 5.166a145.819 145.819 0 0 0 2.441 4.408 60.127 60.127 0 0 0 1.967 3.2c.561.843.934 1.339 1.123 1.488v.225h-14.375c.074-.299.111-.57.111-.814v-.814c0-.823-.178-1.815-.533-2.976a40.224 40.224 0 0 0-1.291-3.565 70.479 70.479 0 0 0-1.572-3.51 118.306 118.306 0 0 1-1.32-2.808l-2.191-4.49zm-25.605-4.38h3.426c1.572 0 3.246-.009 5.025-.028 1.777-.018 3.564-.028 5.361-.028s3.539-.009 5.223-.028c1.686-.019 3.201-.028 4.549-.028l-11.623-24.819-11.961 24.931zm89.762-2.302a18.17 18.17 0 0 1-2.218.197c-.729.019-1.47.028-2.218.028-.6 0-1.255-.019-1.965-.056a45.768 45.768 0 0 1-2.19-.168v2.751c0 3.333.037 6.243.112 8.731.074 2.49.177 4.633.309 6.43.131 1.797.29 3.304.478 4.521.187 1.217.411 2.218.674 3.004v.225h-12.972v-.225c.262-.786.496-1.797.702-3.032.205-1.235.374-2.76.506-4.576.131-1.815.233-3.978.309-6.486.074-2.507.112-5.447.112-8.816v-14.15c0-3.369-.038-6.298-.112-8.788a157.162 157.162 0 0 0-.309-6.457c-.132-1.815-.301-3.341-.506-4.577-.206-1.235-.44-2.246-.702-3.032v-.225c.599.038 1.236.076 1.91.112.561.038 1.188.066 1.881.084.692.019 1.394.028 2.105.028 1.197 0 2.977-.112 5.334-.337 2.359-.225 5.129-.337 8.311-.337 3.22 0 6.149.393 8.788 1.179 2.64.786 4.904 1.909 6.795 3.369 1.89 1.46 3.35 3.238 4.38 5.334 1.029 2.097 1.544 4.436 1.544 7.019 0 2.021-.28 3.866-.843 5.531a15.591 15.591 0 0 1-2.357 4.492 17.32 17.32 0 0 1-3.594 3.509 24.98 24.98 0 0 1-4.605 2.639l11.736 16.565a95.498 95.498 0 0 0 3.061 3.875 62.976 62.976 0 0 0 2.947 3.313c.936.974 1.815 1.788 2.64 2.443.823.655 1.517 1.095 2.077 1.319v.225h-14.711c0-.337-.234-.927-.702-1.769a36.667 36.667 0 0 0-1.629-2.64 109.16 109.16 0 0 0-1.853-2.667 475.538 475.538 0 0 0-1.376-1.909l-11.849-16.676zm-8.591-3.65a30.752 30.752 0 0 0 4.492.337c4.679 0 8.227-1.254 10.641-3.762 2.415-2.507 3.622-6.27 3.622-11.287 0-4.118-.964-7.375-2.892-9.771-1.929-2.395-4.765-3.594-8.507-3.594a31.48 31.48 0 0 0-5.504.45 28 28 0 0 0-1.853.449v27.178zm63.078-31.165c.898.038 1.741.056 2.527.056.674.038 1.328.056 1.965.056h1.404c.523 0 1.46-.019 2.808-.056 1.348-.037 2.872-.084 4.576-.141 1.703-.056 3.5-.112 5.391-.168 1.89-.057 3.641-.084 5.251-.084 4.379 0 8.553.505 12.521 1.516 3.968 1.011 7.459 2.667 10.473 4.97 3.013 2.302 5.399 5.316 7.159 9.04 1.759 3.726 2.64 8.32 2.64 13.786 0 5.877-1.012 10.857-3.033 14.937-2.021 4.081-4.754 7.403-8.197 9.967-3.445 2.564-7.44 4.417-11.989 5.559-4.548 1.142-9.349 1.713-14.403 1.713-1.198 0-2.695-.038-4.492-.112-1.797-.076-3.631-.15-5.502-.225-1.873-.076-3.642-.15-5.307-.225a89.534 89.534 0 0 0-3.791-.112v-.225c.262-.786.496-1.797.702-3.032.205-1.235.374-2.76.506-4.576.131-1.815.233-3.978.309-6.486.074-2.507.112-5.447.112-8.816v-14.15c0-3.369-.038-6.308-.112-8.816a160.558 160.558 0 0 0-.309-6.514c-.132-1.833-.301-3.369-.506-4.604-.206-1.235-.44-2.246-.702-3.032v-.226zm11.624 4.1l-.112 8.928c0 1.235-.01 2.499-.028 3.791-.02 1.291-.037 2.574-.056 3.846-.02 1.273-.028 2.48-.028 3.622v3.061a1243.836 1243.836 0 0 0 .112 14.881c.037 2.771.093 5.438.168 8.001.075 2.565.169 4.708.281 6.43.374.076.86.141 1.46.196.599.057 1.226.112 1.881.169.654.056 1.301.094 1.938.112.636.019 1.179.028 1.628.028 2.059 0 4.146-.131 6.262-.393a27.026 27.026 0 0 0 6.12-1.488 22.323 22.323 0 0 0 5.531-3.004c1.722-1.272 3.229-2.91 4.521-4.913 1.291-2.002 2.302-4.417 3.032-7.244.729-2.826 1.095-6.167 1.095-10.023 0-8.498-2.031-15.049-6.093-19.653-4.062-4.604-10.117-6.907-18.165-6.907-.786 0-1.62.02-2.499.056-.88.038-1.75.084-2.61.14a77.98 77.98 0 0 0-2.443.197 68.02 68.02 0 0 1-1.995.167zm153.492 7.749h-1.123c-.225-.636-.59-1.44-1.095-2.415-.506-.973-1.18-1.928-2.021-2.864-.843-.935-1.881-1.731-3.117-2.387-1.234-.654-2.714-.982-4.436-.982-1.311 0-2.48.216-3.51.646-1.03.431-1.9 1.021-2.611 1.769a7.595 7.595 0 0 0-1.628 2.667c-.375 1.03-.562 2.143-.562 3.341 0 1.947.59 3.8 1.769 5.559 1.18 1.76 2.648 3.509 4.408 5.25a106.249 106.249 0 0 0 5.728 5.25 66.902 66.902 0 0 1 5.728 5.503c1.759 1.909 3.229 3.931 4.408 6.064a13.946 13.946 0 0 1 1.769 6.851c0 1.797-.328 3.65-.982 5.559-.655 1.909-1.713 3.631-3.173 5.166-1.46 1.536-3.332 2.799-5.615 3.791-2.284.991-5.054 1.488-8.311 1.488-1.797 0-3.51-.15-5.138-.449a37.77 37.77 0 0 1-4.492-1.095 28.658 28.658 0 0 1-3.65-1.403c-1.066-.506-1.956-.983-2.667-1.432l1.011-10.613h1.18a18.464 18.464 0 0 0 1.656 3.931 16.03 16.03 0 0 0 2.695 3.565 12.648 12.648 0 0 0 3.762 2.583c1.44.656 3.098.983 4.97.983 1.31 0 2.545-.215 3.706-.646 1.16-.43 2.162-1.039 3.004-1.825.843-.786 1.507-1.75 1.994-2.892.485-1.141.729-2.423.729-3.846 0-1.685-.337-3.247-1.011-4.689-.674-1.44-1.572-2.826-2.695-4.155a36.751 36.751 0 0 0-3.79-3.846 337.236 337.236 0 0 0-4.353-3.762 109.675 109.675 0 0 1-4.352-3.902 31.6 31.6 0 0 1-3.79-4.296 21.355 21.355 0 0 1-2.695-4.913c-.674-1.741-1.011-3.659-1.011-5.756 0-2.208.468-4.192 1.404-5.952a14.038 14.038 0 0 1 3.705-4.464c1.535-1.216 3.294-2.152 5.279-2.808a19.57 19.57 0 0 1 6.176-.983c1.572 0 3.041.112 4.408.337 1.366.225 2.602.497 3.706.814 1.104.319 2.068.637 2.892.955.823.318 1.497.571 2.021.758l-.28 9.545zm46.454-7.581c-3.407 0-6.505.15-9.293.449-2.789.3-5.194.618-7.216.955a83.052 83.052 0 0 0-6.289 1.348l1.123-7.244c.562.076 1.479.132 2.752.168 1.271.038 2.61.066 4.015.084 1.403.02 2.731.038 3.986.057a200.7 200.7 0 0 0 2.611.028h26.56c.449 0 1.282-.009 2.499-.028 1.216-.019 2.518-.037 3.903-.057 1.384-.018 2.713-.046 3.986-.084 1.272-.037 2.189-.093 2.752-.168l1.123 7.244c-1.797-.486-3.856-.935-6.178-1.348-1.984-.337-4.371-.654-7.159-.955-2.789-.299-5.924-.449-9.405-.449v33.074c0 3.369.037 6.309.112 8.816.074 2.508.177 4.67.309 6.486.131 1.816.29 3.341.478 4.576.187 1.235.411 2.246.674 3.032v.225h-12.971v-.225c.261-.786.485-1.797.674-3.032.187-1.235.354-2.76.505-4.576a127.2 127.2 0 0 0 .337-6.486c.074-2.507.112-5.447.112-8.816V144.75zm45.179 30.547v-8.03h37.959v8.03h-37.959zm67.839-11.624c0-3.369-.038-6.298-.112-8.788a157.162 157.162 0 0 0-.309-6.457c-.132-1.815-.301-3.341-.506-4.577-.206-1.235-.44-2.246-.702-3.032v-.225h13.027v.225c-.262.786-.496 1.797-.701 3.032-.206 1.235-.375 2.761-.506 4.577a155.4 155.4 0 0 0-.309 6.457c-.075 2.49-.112 5.419-.112 8.788v25.999c0 5.316-.459 9.808-1.376 13.477-.918 3.668-2.246 6.859-3.986 9.574-1.741 2.714-3.847 5.138-6.317 7.272s-5.278 4.342-8.423 6.626l-1.066-1.292c2.731-2.471 4.865-4.933 6.4-7.384a28.095 28.095 0 0 0 3.397-7.89c.73-2.808 1.18-5.868 1.348-9.181.169-3.313.253-7.047.253-11.203v-25.998zm51.928-23.106c3.855-.019 7.431-.057 10.725-.112 3.294-.057 6.13-.121 8.508-.197 2.377-.075 3.939-.187 4.688-.337l-2.19 6.064a45.29 45.29 0 0 0-3.425-.73 70.11 70.11 0 0 0-4.071-.533c-1.592-.169-3.435-.253-5.531-.253-.749 0-1.609.028-2.582.084-.975.057-1.91.122-2.809.197-1.048.076-2.115.15-3.2.225v22.18c3.032-.037 5.765-.112 8.198-.225 2.433-.112 4.511-.261 6.232-.449 2.021-.149 3.8-.355 5.335-.618l-1.348 6.682c-2.06-.261-4.137-.486-6.233-.674a140.009 140.009 0 0 0-5.951-.478 104.51 104.51 0 0 0-6.233-.196v25.493c3.481 0 6.683-.141 9.603-.421 2.92-.281 5.465-.59 7.637-.927 2.545-.412 4.847-.879 6.906-1.404l-1.291 7.356a142.305 142.305 0 0 0-6.655-.253l-3.847-.056a167.54 167.54 0 0 0-2.471-.028h-21.282v-.225c.262-.786.496-1.797.702-3.032.205-1.235.374-2.76.506-4.576.131-1.815.233-3.978.309-6.486.074-2.507.112-5.447.112-8.816v-14.15c0-3.369-.038-6.298-.112-8.788a157.162 157.162 0 0 0-.309-6.457c-.132-1.815-.301-3.341-.506-4.577-.206-1.235-.44-2.246-.702-3.032v-.225c3.668.002 7.43-.007 11.287-.026zm90.352 41.412H1426.76c-1.91 0-3.726.01-5.447.028-1.723.019-3.295.038-4.717.056-1.423.02-2.527.028-3.312.028l-2.078 4.38a329.128 329.128 0 0 0-2.303 4.688c-.637 1.33-1.16 2.499-1.572 3.51s-.711 1.881-.898 2.611a8.226 8.226 0 0 0-.28 2.049c0 .413.019.721.056.926.037.207.094.365.169.478v.225h-9.883v-.225c.263-.261.674-.833 1.235-1.713a81.14 81.14 0 0 0 1.938-3.229 128.776 128.776 0 0 0 2.358-4.324 155.146 155.146 0 0 0 2.499-4.998l22.91-47.28h4.211l22.461 47.28a143.517 143.517 0 0 0 5.053 9.574 60.195 60.195 0 0 0 1.966 3.2c.561.843.935 1.339 1.123 1.488v.225h-14.375c.074-.299.111-.57.111-.814v-.814c0-.823-.178-1.815-.533-2.976a39.6 39.6 0 0 0-1.291-3.565 69.572 69.572 0 0 0-1.572-3.51 118.306 118.306 0 0 1-1.32-2.808l-2.19-4.49zm-25.605-4.38h3.426c1.572 0 3.247-.009 5.025-.028 1.777-.018 3.565-.028 5.362-.028s3.538-.009 5.222-.028c1.686-.019 3.201-.028 4.549-.028l-11.623-24.819-11.961 24.931zm123.735 24.146h-2.189l-44.642-43.911v19.99c0 3.369.019 6.309.056 8.816.037 2.508.104 4.67.197 6.486.093 1.816.225 3.341.393 4.576.169 1.235.384 2.246.646 3.032v.225h-8.424v-.225c.262-.786.486-1.797.674-3.032s.338-2.76.449-4.576c.113-1.815.188-3.978.225-6.486.037-2.507.057-5.447.057-8.816v-14.15c0-3.369-.02-6.298-.057-8.788a137.785 137.785 0 0 0-.225-6.457c-.111-1.815-.262-3.341-.449-4.577s-.412-2.246-.674-3.032v-.225h3.482l44.697 44.136v-21.057c0-3.369-.02-6.298-.057-8.788a185.861 185.861 0 0 0-.196-6.457c-.094-1.815-.216-3.341-.365-4.577-.15-1.235-.356-2.246-.618-3.032v-.225h8.367v.225c-.263.786-.478 1.797-.646 3.032-.169 1.235-.31 2.761-.421 4.577a139.17 139.17 0 0 0-.225 6.457 585.8 585.8 0 0 0-.057 8.788v38.071z" fill="#771111" stroke="#771111" stroke-miterlimit="10"/></g></svg>