<?xml version="1.0" encoding="UTF-8" standalone="no"?>
<!DOCTYPE svg PUBLIC "-//W3C//DTD SVG 1.1//EN" "http://www.w3.org/Graphics/SVG/1.1/DTD/svg11.dtd">
<svg width="100%" height="100%" viewBox="0 0 7500 3300" version="1.1" xmlns="http://www.w3.org/2000/svg" xmlns:xlink="http://www.w3.org/1999/xlink" xml:space="preserve" xmlns:serif="http://www.serif.com/" style="fill-rule:evenodd;clip-rule:evenodd;stroke-linejoin:round;stroke-miterlimit:2;">
    <g transform="matrix(1,0,0,1,0,135)">
        <g transform="matrix(4.16667,0,0,4.16667,294.716,1044.82)">
            <g transform="matrix(43,0,0,43,128.405,309.643)">
                <path d="M0.165,-0L0.225,-0.179L0.499,-0.179L0.559,0L0.7,0L0.443,-0.727L0.281,-0.727L0.025,0L0.165,0ZM0.261,-0.285L0.359,-0.578L0.365,-0.578L0.463,-0.285L0.261,-0.285Z" style="fill-rule:nonzero;"/>
            </g>
            <g transform="matrix(43,0,0,43,172.511,309.643)">
                <path d="M0.072,-0L0.203,-0L0.203,-0.266L0.338,-0.266L0.48,0L0.627,0L0.47,-0.288C0.556,-0.323 0.601,-0.396 0.601,-0.495C0.601,-0.634 0.511,-0.727 0.344,-0.727L0.072,-0.727L0.072,0ZM0.203,-0.376L0.203,-0.617L0.324,-0.617C0.423,-0.617 0.467,-0.572 0.467,-0.495C0.467,-0.417 0.423,-0.376 0.325,-0.376L0.203,-0.376Z" style="fill-rule:nonzero;"/>
            </g>
            <g transform="matrix(43,0,0,43,213.471,309.643)">
                <path d="M0.04,-0.617L0.265,-0.617L0.265,0L0.395,0L0.395,-0.617L0.62,-0.617L0.62,-0.727L0.04,-0.727L0.04,-0.617Z" style="fill-rule:nonzero;"/>
            </g>
            <g transform="matrix(43,0,0,43,280.804,309.643)">
                <path d="M0.694,-0.482C0.672,-0.643 0.548,-0.737 0.386,-0.737C0.196,-0.737 0.053,-0.599 0.053,-0.364C0.053,-0.129 0.195,0.01 0.386,0.01C0.559,0.01 0.674,-0.102 0.694,-0.241L0.561,-0.241C0.545,-0.156 0.475,-0.108 0.388,-0.108C0.27,-0.108 0.186,-0.197 0.186,-0.364C0.186,-0.528 0.27,-0.619 0.388,-0.619C0.477,-0.619 0.546,-0.569 0.561,-0.482L0.694,-0.482Z" style="fill-rule:nonzero;"/>
            </g>
            <g transform="matrix(43,0,0,43,325.765,309.643)">
                <path d="M0.722,-0.364C0.722,-0.599 0.578,-0.737 0.387,-0.737C0.196,-0.737 0.053,-0.599 0.053,-0.364C0.053,-0.129 0.196,0.01 0.387,0.01C0.578,0.01 0.722,-0.129 0.722,-0.364ZM0.589,-0.364C0.589,-0.198 0.506,-0.108 0.387,-0.108C0.269,-0.108 0.186,-0.198 0.186,-0.364C0.186,-0.529 0.269,-0.619 0.387,-0.619C0.506,-0.619 0.589,-0.529 0.589,-0.364Z" style="fill-rule:nonzero;"/>
            </g>
            <g transform="matrix(43,0,0,43,372.07,309.643)">
                <path d="M0.669,-0.727L0.538,-0.727L0.538,-0.232L0.532,-0.232L0.19,-0.727L0.072,-0.727L0.072,0L0.203,0L0.203,-0.495L0.21,-0.495L0.552,0L0.669,0L0.669,-0.727Z" style="fill-rule:nonzero;"/>
            </g>
            <g transform="matrix(43,0,0,43,416.909,309.643)">
                <path d="M0.04,-0.617L0.265,-0.617L0.265,0L0.395,0L0.395,-0.617L0.62,-0.617L0.62,-0.727L0.04,-0.727L0.04,-0.617Z" style="fill-rule:nonzero;"/>
            </g>
            <g transform="matrix(43,0,0,43,458.266,309.643)">
                <path d="M0.072,-0L0.548,-0L0.548,-0.11L0.203,-0.11L0.203,-0.309L0.52,-0.309L0.52,-0.419L0.203,-0.419L0.203,-0.617L0.545,-0.617L0.545,-0.727L0.072,-0.727L0.072,0Z" style="fill-rule:nonzero;"/>
            </g>
            <g transform="matrix(43,0,0,43,497.379,309.643)">
                <path d="M0.072,-0.727L0.072,0L0.198,0L0.198,-0.501L0.205,-0.501L0.406,-0.002L0.5,-0.002L0.701,-0.5L0.708,-0.5L0.708,0L0.835,0L0.835,-0.727L0.673,-0.727L0.457,-0.2L0.449,-0.2L0.233,-0.727L0.072,-0.727Z" style="fill-rule:nonzero;"/>
            </g>
            <g transform="matrix(43,0,0,43,549.334,309.643)">
                <path d="M0.072,-0L0.203,-0L0.203,-0.246L0.343,-0.246C0.511,-0.246 0.601,-0.347 0.601,-0.487C0.601,-0.625 0.512,-0.727 0.344,-0.727L0.072,-0.727L0.072,0ZM0.203,-0.354L0.203,-0.617L0.324,-0.617C0.423,-0.617 0.467,-0.564 0.467,-0.487C0.467,-0.409 0.423,-0.354 0.325,-0.354L0.203,-0.354Z" style="fill-rule:nonzero;"/>
            </g>
            <g transform="matrix(43,0,0,43,589.989,309.643)">
                <path d="M0.722,-0.364C0.722,-0.599 0.578,-0.737 0.387,-0.737C0.196,-0.737 0.053,-0.599 0.053,-0.364C0.053,-0.129 0.196,0.01 0.387,0.01C0.578,0.01 0.722,-0.129 0.722,-0.364ZM0.589,-0.364C0.589,-0.198 0.506,-0.108 0.387,-0.108C0.269,-0.108 0.186,-0.198 0.186,-0.364C0.186,-0.529 0.269,-0.619 0.387,-0.619C0.506,-0.619 0.589,-0.529 0.589,-0.364Z" style="fill-rule:nonzero;"/>
            </g>
            <g transform="matrix(43,0,0,43,636.294,309.643)">
                <path d="M0.072,-0L0.203,-0L0.203,-0.266L0.338,-0.266L0.48,0L0.627,0L0.47,-0.288C0.556,-0.323 0.601,-0.396 0.601,-0.495C0.601,-0.634 0.511,-0.727 0.344,-0.727L0.072,-0.727L0.072,0ZM0.203,-0.376L0.203,-0.617L0.324,-0.617C0.423,-0.617 0.467,-0.572 0.467,-0.495C0.467,-0.417 0.423,-0.376 0.325,-0.376L0.203,-0.376Z" style="fill-rule:nonzero;"/>
            </g>
            <g transform="matrix(43,0,0,43,677.254,309.643)">
                <path d="M0.165,-0L0.225,-0.179L0.499,-0.179L0.559,0L0.7,0L0.443,-0.727L0.281,-0.727L0.025,0L0.165,0ZM0.261,-0.285L0.359,-0.578L0.365,-0.578L0.463,-0.285L0.261,-0.285Z" style="fill-rule:nonzero;"/>
            </g>
            <g transform="matrix(43,0,0,43,721.36,309.643)">
                <rect x="0.072" y="-0.727" width="0.132" height="0.727"/>
            </g>
            <g transform="matrix(43,0,0,43,746.165,309.643)">
                <path d="M0.669,-0.727L0.538,-0.727L0.538,-0.232L0.532,-0.232L0.19,-0.727L0.072,-0.727L0.072,0L0.203,0L0.203,-0.495L0.21,-0.495L0.552,0L0.669,0L0.669,-0.727Z" style="fill-rule:nonzero;"/>
            </g>
            <g transform="matrix(43,0,0,43,814.787,309.643)">
                <path d="M0.363,-0.761L0.25,-0.761L0.016,0.109L0.129,0.109L0.363,-0.761Z" style="fill-rule:nonzero;"/>
            </g>
            <g transform="matrix(43,0,0,43,867.876,309.643)">
                <path d="M0.694,-0.482C0.672,-0.643 0.548,-0.737 0.386,-0.737C0.196,-0.737 0.053,-0.599 0.053,-0.364C0.053,-0.129 0.195,0.01 0.386,0.01C0.559,0.01 0.674,-0.102 0.694,-0.241L0.561,-0.241C0.545,-0.156 0.475,-0.108 0.388,-0.108C0.27,-0.108 0.186,-0.197 0.186,-0.364C0.186,-0.528 0.27,-0.619 0.388,-0.619C0.477,-0.619 0.546,-0.569 0.561,-0.482L0.694,-0.482Z" style="fill-rule:nonzero;"/>
            </g>
            <g transform="matrix(43,0,0,43,912.837,309.643)">
                <path d="M0.722,-0.364C0.722,-0.599 0.578,-0.737 0.387,-0.737C0.196,-0.737 0.053,-0.599 0.053,-0.364C0.053,-0.129 0.196,0.01 0.387,0.01C0.578,0.01 0.722,-0.129 0.722,-0.364ZM0.589,-0.364C0.589,-0.198 0.506,-0.108 0.387,-0.108C0.269,-0.108 0.186,-0.198 0.186,-0.364C0.186,-0.529 0.269,-0.619 0.387,-0.619C0.506,-0.619 0.589,-0.529 0.589,-0.364Z" style="fill-rule:nonzero;"/>
            </g>
            <g transform="matrix(43,0,0,43,959.142,309.643)">
                <path d="M0.669,-0.727L0.538,-0.727L0.538,-0.232L0.532,-0.232L0.19,-0.727L0.072,-0.727L0.072,0L0.203,0L0.203,-0.495L0.21,-0.495L0.552,0L0.669,0L0.669,-0.727Z" style="fill-rule:nonzero;"/>
            </g>
            <g transform="matrix(43,0,0,43,1003.98,309.643)">
                <path d="M0.04,-0.617L0.265,-0.617L0.265,0L0.395,0L0.395,-0.617L0.62,-0.617L0.62,-0.727L0.04,-0.727L0.04,-0.617Z" style="fill-rule:nonzero;"/>
            </g>
            <g transform="matrix(43,0,0,43,1045.34,309.643)">
                <path d="M0.072,-0L0.548,-0L0.548,-0.11L0.203,-0.11L0.203,-0.309L0.52,-0.309L0.52,-0.419L0.203,-0.419L0.203,-0.617L0.545,-0.617L0.545,-0.727L0.072,-0.727L0.072,0Z" style="fill-rule:nonzero;"/>
            </g>
            <g transform="matrix(43,0,0,43,1084.45,309.643)">
                <path d="M0.072,-0.727L0.072,0L0.198,0L0.198,-0.501L0.205,-0.501L0.406,-0.002L0.5,-0.002L0.701,-0.5L0.708,-0.5L0.708,0L0.835,0L0.835,-0.727L0.673,-0.727L0.457,-0.2L0.449,-0.2L0.233,-0.727L0.072,-0.727Z" style="fill-rule:nonzero;"/>
            </g>
            <g transform="matrix(43,0,0,43,1136.41,309.643)">
                <path d="M0.072,-0L0.203,-0L0.203,-0.246L0.343,-0.246C0.511,-0.246 0.601,-0.347 0.601,-0.487C0.601,-0.625 0.512,-0.727 0.344,-0.727L0.072,-0.727L0.072,0ZM0.203,-0.354L0.203,-0.617L0.324,-0.617C0.423,-0.617 0.467,-0.564 0.467,-0.487C0.467,-0.409 0.423,-0.354 0.325,-0.354L0.203,-0.354Z" style="fill-rule:nonzero;"/>
            </g>
            <g transform="matrix(43,0,0,43,1177.06,309.643)">
                <path d="M0.722,-0.364C0.722,-0.599 0.578,-0.737 0.387,-0.737C0.196,-0.737 0.053,-0.599 0.053,-0.364C0.053,-0.129 0.196,0.01 0.387,0.01C0.578,0.01 0.722,-0.129 0.722,-0.364ZM0.589,-0.364C0.589,-0.198 0.506,-0.108 0.387,-0.108C0.269,-0.108 0.186,-0.198 0.186,-0.364C0.186,-0.529 0.269,-0.619 0.387,-0.619C0.506,-0.619 0.589,-0.529 0.589,-0.364Z" style="fill-rule:nonzero;"/>
            </g>
            <g transform="matrix(43,0,0,43,1223.37,309.643)">
                <path d="M0.072,-0L0.203,-0L0.203,-0.266L0.338,-0.266L0.48,0L0.627,0L0.47,-0.288C0.556,-0.323 0.601,-0.396 0.601,-0.495C0.601,-0.634 0.511,-0.727 0.344,-0.727L0.072,-0.727L0.072,0ZM0.203,-0.376L0.203,-0.617L0.324,-0.617C0.423,-0.617 0.467,-0.572 0.467,-0.495C0.467,-0.417 0.423,-0.376 0.325,-0.376L0.203,-0.376Z" style="fill-rule:nonzero;"/>
            </g>
            <g transform="matrix(43,0,0,43,1264.33,309.643)">
                <path d="M0.165,-0L0.225,-0.179L0.499,-0.179L0.559,0L0.7,0L0.443,-0.727L0.281,-0.727L0.025,0L0.165,0ZM0.261,-0.285L0.359,-0.578L0.365,-0.578L0.463,-0.285L0.261,-0.285Z" style="fill-rule:nonzero;"/>
            </g>
            <g transform="matrix(43,0,0,43,1308.43,309.643)">
                <path d="M0.072,-0L0.203,-0L0.203,-0.266L0.338,-0.266L0.48,0L0.627,0L0.47,-0.288C0.556,-0.323 0.601,-0.396 0.601,-0.495C0.601,-0.634 0.511,-0.727 0.344,-0.727L0.072,-0.727L0.072,0ZM0.203,-0.376L0.203,-0.617L0.324,-0.617C0.423,-0.617 0.467,-0.572 0.467,-0.495C0.467,-0.417 0.423,-0.376 0.325,-0.376L0.203,-0.376Z" style="fill-rule:nonzero;"/>
            </g>
            <g transform="matrix(43,0,0,43,1348.19,309.643)">
                <path d="M0.022,-0.727L0.287,-0.271L0.287,0L0.418,0L0.418,-0.271L0.683,-0.727L0.534,-0.727L0.356,-0.406L0.349,-0.406L0.171,-0.727L0.022,-0.727Z" style="fill-rule:nonzero;"/>
            </g>
            <g transform="matrix(43,0,0,43,1417.44,309.643)">
                <path d="M0.165,-0L0.225,-0.179L0.499,-0.179L0.559,0L0.7,0L0.443,-0.727L0.281,-0.727L0.025,0L0.165,0ZM0.261,-0.285L0.359,-0.578L0.365,-0.578L0.463,-0.285L0.261,-0.285Z" style="fill-rule:nonzero;"/>
            </g>
            <g transform="matrix(43,0,0,43,1461.55,309.643)">
                <path d="M0.072,-0L0.203,-0L0.203,-0.266L0.338,-0.266L0.48,0L0.627,0L0.47,-0.288C0.556,-0.323 0.601,-0.396 0.601,-0.495C0.601,-0.634 0.511,-0.727 0.344,-0.727L0.072,-0.727L0.072,0ZM0.203,-0.376L0.203,-0.617L0.324,-0.617C0.423,-0.617 0.467,-0.572 0.467,-0.495C0.467,-0.417 0.423,-0.376 0.325,-0.376L0.203,-0.376Z" style="fill-rule:nonzero;"/>
            </g>
            <g transform="matrix(43,0,0,43,1502.51,309.643)">
                <path d="M0.04,-0.617L0.265,-0.617L0.265,0L0.395,0L0.395,-0.617L0.62,-0.617L0.62,-0.727L0.04,-0.727L0.04,-0.617Z" style="fill-rule:nonzero;"/>
            </g>
        </g>
        <g id="Line" transform="matrix(1,0,0,1,0.002,-469.03)">
            <rect x="833.333" y="2521.81" width="5833.33" height="41.674"/>
        </g>
        <g transform="matrix(4.18694,0,0,4.18694,248.79,-476.266)">
            <g transform="matrix(325,0,0,325,127.615,559.17)">
                <path d="M0.038,-0L0.038,-0.859L0.382,-0.859L0.382,-0.693L0.213,-0.693L0.213,-0.526L0.375,-0.526L0.375,-0.364L0.213,-0.364L0.213,-0.167L0.393,-0.167L0.393,0L0.038,0Z" style="fill-rule:nonzero;"/>
            </g>
            <g transform="matrix(325,0,0,325,258.265,559.17)">
                <path d="M0.242,0.008C0.164,0.008 0.108,-0.011 0.073,-0.05C0.038,-0.089 0.021,-0.151 0.021,-0.237L0.021,-0.321L0.19,-0.321L0.19,-0.214C0.19,-0.171 0.204,-0.15 0.231,-0.15C0.246,-0.15 0.257,-0.154 0.263,-0.163C0.269,-0.172 0.272,-0.188 0.272,-0.209C0.272,-0.237 0.269,-0.26 0.262,-0.279C0.255,-0.297 0.247,-0.312 0.237,-0.324C0.226,-0.337 0.208,-0.356 0.181,-0.382L0.107,-0.456C0.05,-0.512 0.021,-0.574 0.021,-0.642C0.021,-0.715 0.038,-0.771 0.071,-0.809C0.105,-0.848 0.154,-0.867 0.219,-0.867C0.296,-0.867 0.352,-0.846 0.386,-0.805C0.42,-0.764 0.437,-0.7 0.437,-0.613L0.262,-0.613L0.261,-0.672C0.261,-0.683 0.258,-0.692 0.251,-0.699C0.245,-0.706 0.236,-0.709 0.225,-0.709C0.212,-0.709 0.202,-0.705 0.195,-0.698C0.188,-0.691 0.185,-0.681 0.185,-0.668C0.185,-0.64 0.201,-0.611 0.233,-0.581L0.333,-0.485C0.356,-0.462 0.376,-0.441 0.391,-0.42C0.406,-0.4 0.419,-0.376 0.428,-0.348C0.437,-0.321 0.442,-0.288 0.442,-0.25C0.442,-0.165 0.427,-0.101 0.396,-0.057C0.365,-0.014 0.313,0.008 0.242,0.008Z" style="fill-rule:nonzero;"/>
            </g>
            <g transform="matrix(325,0,0,325,404.84,559.17)">
                <path d="M0.038,-0.859L0.265,-0.859C0.334,-0.859 0.383,-0.837 0.412,-0.792C0.441,-0.748 0.456,-0.683 0.456,-0.598C0.456,-0.513 0.443,-0.448 0.417,-0.405C0.391,-0.362 0.344,-0.34 0.277,-0.34L0.207,-0.34L0.207,-0L0.038,-0L0.038,-0.859ZM0.217,-0.495C0.238,-0.495 0.253,-0.499 0.263,-0.507C0.272,-0.514 0.279,-0.525 0.282,-0.539C0.285,-0.554 0.286,-0.574 0.286,-0.601C0.286,-0.637 0.282,-0.663 0.274,-0.679C0.266,-0.695 0.25,-0.703 0.226,-0.703L0.207,-0.703L0.207,-0.495L0.217,-0.495Z" style="fill-rule:nonzero;"/>
            </g>
            <g transform="matrix(325,0,0,325,546.865,559.17)">
                <path d="M0.015,-0L0.098,-0.859L0.389,-0.859L0.471,0L0.308,0L0.296,-0.139L0.192,-0.139L0.182,0L0.015,0ZM0.205,-0.276L0.283,-0.276L0.245,-0.713L0.237,-0.713L0.205,-0.276Z" style="fill-rule:nonzero;"/>
            </g>
            <g transform="matrix(325,0,0,325,699.615,559.17)">
                <path d="M0.238,0.008C0.175,0.008 0.125,-0.012 0.087,-0.051C0.05,-0.09 0.031,-0.144 0.031,-0.213L0.031,-0.609C0.031,-0.694 0.048,-0.759 0.082,-0.802C0.116,-0.845 0.169,-0.867 0.242,-0.867C0.305,-0.867 0.356,-0.85 0.395,-0.815C0.434,-0.78 0.453,-0.73 0.453,-0.665L0.453,-0.517L0.282,-0.517L0.282,-0.644C0.282,-0.669 0.279,-0.686 0.273,-0.695C0.267,-0.704 0.257,-0.709 0.242,-0.709C0.227,-0.709 0.216,-0.704 0.21,-0.693C0.205,-0.682 0.202,-0.667 0.202,-0.646L0.202,-0.215C0.202,-0.192 0.205,-0.176 0.212,-0.166C0.219,-0.155 0.229,-0.15 0.242,-0.15C0.269,-0.15 0.282,-0.172 0.282,-0.215L0.282,-0.37L0.455,-0.37L0.455,-0.208C0.455,-0.064 0.383,0.008 0.238,0.008Z" style="fill-rule:nonzero;"/>
            </g>
            <g transform="matrix(325,0,0,325,850.415,559.17)">
                <path d="M0.038,-0L0.038,-0.859L0.382,-0.859L0.382,-0.693L0.213,-0.693L0.213,-0.526L0.375,-0.526L0.375,-0.364L0.213,-0.364L0.213,-0.167L0.393,-0.167L0.393,0L0.038,0Z" style="fill-rule:nonzero;"/>
            </g>
            <g transform="matrix(325,0,0,325,1060.53,559.17)">
                <path d="M0.03,-0.041C0.03,-0.08 0.036,-0.117 0.049,-0.15C0.061,-0.183 0.076,-0.213 0.094,-0.24C0.112,-0.267 0.136,-0.298 0.165,-0.334C0.195,-0.371 0.219,-0.403 0.237,-0.429C0.254,-0.455 0.269,-0.485 0.282,-0.519C0.294,-0.552 0.3,-0.589 0.3,-0.628C0.3,-0.651 0.297,-0.67 0.29,-0.683C0.283,-0.696 0.271,-0.702 0.254,-0.702C0.225,-0.702 0.211,-0.676 0.211,-0.625L0.211,-0.52L0.03,-0.52L0.028,-0.573C0.028,-0.638 0.035,-0.692 0.048,-0.734C0.061,-0.776 0.085,-0.808 0.118,-0.83C0.151,-0.852 0.197,-0.863 0.256,-0.863C0.328,-0.863 0.384,-0.843 0.423,-0.802C0.462,-0.762 0.482,-0.705 0.482,-0.631C0.482,-0.584 0.475,-0.541 0.462,-0.503C0.449,-0.464 0.433,-0.431 0.415,-0.402C0.395,-0.373 0.37,-0.34 0.339,-0.301C0.316,-0.274 0.298,-0.249 0.283,-0.228C0.267,-0.207 0.254,-0.185 0.242,-0.162L0.476,-0.162L0.476,-0L0.03,-0L0.03,-0.041Z" style="fill-rule:nonzero;"/>
            </g>
            <g transform="matrix(325,0,0,325,1221.08,559.17)">
                <path d="M0.236,0.01C0.161,0.01 0.106,-0.01 0.071,-0.05C0.036,-0.089 0.019,-0.15 0.019,-0.231L0.019,-0.321L0.195,-0.321L0.195,-0.231C0.195,-0.205 0.198,-0.185 0.205,-0.171C0.212,-0.156 0.225,-0.149 0.245,-0.149C0.259,-0.149 0.269,-0.154 0.276,-0.164C0.282,-0.174 0.286,-0.186 0.287,-0.2C0.288,-0.213 0.289,-0.233 0.289,-0.259L0.289,-0.28C0.289,-0.354 0.265,-0.391 0.216,-0.391C0.207,-0.391 0.202,-0.391 0.199,-0.39L0.199,-0.544C0.23,-0.544 0.253,-0.551 0.268,-0.564C0.283,-0.578 0.291,-0.6 0.291,-0.63C0.291,-0.679 0.277,-0.703 0.249,-0.703C0.232,-0.703 0.22,-0.699 0.215,-0.69C0.21,-0.681 0.207,-0.67 0.205,-0.657C0.204,-0.644 0.203,-0.634 0.202,-0.628L0.202,-0.602L0.024,-0.602L0.023,-0.632C0.024,-0.711 0.042,-0.768 0.079,-0.805C0.116,-0.842 0.172,-0.861 0.248,-0.861C0.394,-0.861 0.467,-0.785 0.467,-0.632C0.467,-0.587 0.461,-0.552 0.449,-0.525C0.437,-0.499 0.416,-0.481 0.387,-0.47C0.411,-0.458 0.429,-0.443 0.44,-0.425C0.452,-0.408 0.46,-0.386 0.464,-0.361C0.467,-0.336 0.469,-0.302 0.469,-0.259C0.469,-0.17 0.451,-0.103 0.414,-0.058C0.376,-0.013 0.317,0.01 0.236,0.01Z" style="fill-rule:nonzero;"/>
            </g>
            <g transform="matrix(325,0,0,325,1378.38,559.17)">
                <path d="M0.247,0.008C0.174,0.008 0.118,-0.012 0.079,-0.054C0.04,-0.095 0.02,-0.153 0.02,-0.229L0.02,-0.617C0.02,-0.698 0.039,-0.76 0.077,-0.803C0.115,-0.846 0.172,-0.867 0.247,-0.867C0.323,-0.867 0.38,-0.846 0.418,-0.803C0.456,-0.76 0.475,-0.698 0.475,-0.617L0.475,-0.229C0.475,-0.152 0.455,-0.094 0.416,-0.053C0.377,-0.012 0.32,0.008 0.247,0.008ZM0.247,-0.15C0.26,-0.15 0.27,-0.156 0.278,-0.168C0.286,-0.179 0.29,-0.193 0.29,-0.209L0.29,-0.633C0.29,-0.658 0.287,-0.676 0.281,-0.689C0.276,-0.702 0.264,-0.709 0.247,-0.709C0.23,-0.709 0.218,-0.702 0.213,-0.689C0.208,-0.676 0.205,-0.658 0.205,-0.633L0.205,-0.209C0.205,-0.193 0.209,-0.179 0.216,-0.167C0.224,-0.156 0.234,-0.15 0.247,-0.15Z" style="fill-rule:nonzero;"/>
            </g>
        </g>
    </g>
</svg>
