<svg clip-rule="evenodd" fill-rule="evenodd" stroke-miterlimit="10" viewBox="0 0 2400 840" xmlns="http://www.w3.org/2000/svg"><g fill-rule="nonzero"><path d="m177.41 260.11v52.99h397.72v396.92h-397.72v111.99h561.89v-561.9z" fill="#141516" transform="matrix(.731247 0 0 .731247 -3.12405 24.1103)"/><path d="m851.3 196v690.78l164.37 95.06v-880.9z" fill="#141516" transform="matrix(.731247 0 0 .731247 -3.12405 24.1103)"/><path d="m.165 0 .06-.179h.274l.06.179h.141l-.257-.727h-.162l-.256.727zm.096-.285.098-.293h.006l.098.293z" transform="matrix(43.01331249227 0 0 43.01335993827 859.08413123554 672.86590430463)"/><path d="m.072 0h.131v-.266h.135l.142.266h.147l-.157-.288c.086-.035.131-.108.131-.207 0-.139-.09-.232-.257-.232h-.272zm.131-.376v-.241h.121c.099 0 .143.045.143.122 0 .078-.044.119-.142.119z" transform="matrix(43.01331249227 0 0 43.01335993827 903.11732411974 672.86590430463)"/><path d="m.04-.617h.225v.617h.13v-.617h.225v-.11h-.58z" transform="matrix(43.01331249227 0 0 43.01335993827 944.00466553353 672.86590430463)"/><path d="m.694-.482c-.022-.161-.146-.255-.308-.255-.19 0-.333.138-.333.373s.142.374.333.374c.173 0 .288-.112.308-.251h-.133c-.016.085-.086.133-.173.133-.118 0-.202-.089-.202-.256 0-.164.084-.255.202-.255.089 0 .158.05.173.137z" transform="matrix(43.01331249227 0 0 43.01335993827 1011.17790397464 672.86590430463)"/><path d="m.722-.364c0-.235-.144-.373-.335-.373s-.334.138-.334.373.143.374.334.374.335-.139.335-.374zm-.133 0c0 .166-.083.256-.202.256-.118 0-.201-.09-.201-.256 0-.165.083-.255.201-.255.119 0 .202.09.202.255z" transform="matrix(43.01331249227 0 0 43.01335993827 1056.06641159277 672.86590430463)"/><path d="m.669-.727h-.131v.495h-.006l-.342-.495h-.118v.727h.131v-.495h.007l.342.495h.117z" transform="matrix(43.01331249227 0 0 43.01335993827 1102.29995496597 672.86590430463)"/><path d="m.04-.617h.225v.617h.13v-.617h.225v-.11h-.58z" transform="matrix(43.01331249227 0 0 43.01335993827 1147.06627476496 672.86590430463)"/><path d="m.072 0h.476v-.11h-.345v-.199h.317v-.11h-.317v-.198h.342v-.11h-.473z" transform="matrix(43.01331249227 0 0 43.01335993827 1188.35121146324 672.86590430463)"/><path d="m.072-.727v.727h.126v-.501h.007l.201.499h.094l.201-.498h.007v.5h.127v-.727h-.162l-.216.527h-.008l-.216-.527z" transform="matrix(43.01331249227 0 0 43.01335993827 1227.3892499319 672.86590430463)"/><path d="m.072 0h.131v-.246h.14c.168 0 .258-.101.258-.241 0-.138-.089-.24-.257-.24h-.272zm.131-.354v-.263h.121c.099 0 .143.053.143.13 0 .078-.044.133-.142.133z" transform="matrix(43.01331249227 0 0 43.01335993827 1279.27446481233 672.86590430463)"/><path d="m.722-.364c0-.235-.144-.373-.335-.373s-.334.138-.334.373.143.374.334.374.335-.139.335-.374zm-.133 0c0 .166-.083.256-.202.256-.118 0-.201-.09-.201-.256 0-.165.083-.255.201-.255.119 0 .202.09.202.255z" transform="matrix(43.01331249227 0 0 43.01335993827 1319.85633667829 672.86590430463)"/><path d="m.072 0h.131v-.266h.135l.142.266h.147l-.157-.288c.086-.035.131-.108.131-.207 0-.139-.09-.232-.257-.232h-.272zm.131-.376v-.241h.121c.099 0 .143.045.143.122 0 .078-.044.119-.142.119z" transform="matrix(43.01331249227 0 0 43.01335993827 1366.0889103069 672.86590430463)"/><path d="m.165 0 .06-.179h.274l.06.179h.141l-.257-.727h-.162l-.256.727zm.096-.285.098-.293h.006l.098.293z" transform="matrix(43.01331249227 0 0 43.01335993827 1406.97625172069 672.86590430463)"/><path d="m.072-.727h.132v.727h-.132z" transform="matrix(43.01331249227 0 0 43.01335993827 1451.01041434948 672.86590430463)"/><path d="m.669-.727h-.131v.495h-.006l-.342-.495h-.118v.727h.131v-.495h.007l.342.495h.117z" transform="matrix(43.01331249227 0 0 43.01335993827 1475.73696206594 672.86590430463)"/><path d="m.363-.761h-.113l-.234.87h.113z" transform="matrix(43.01331249227 0 0 43.01335993827 1545.14352231233 672.86590430463)"/><path d="m.694-.482c-.022-.161-.146-.255-.308-.255-.19 0-.333.138-.333.373s.142.374.333.374c.173 0 .288-.112.308-.251h-.133c-.016.085-.086.133-.173.133-.118 0-.202-.089-.202-.256 0-.164.084-.255.202-.255.089 0 .158.05.173.137z" transform="matrix(43.01331249227 0 0 43.01335993827 1598.49887000075 672.86590430463)"/><path d="m.722-.364c0-.235-.144-.373-.335-.373s-.334.138-.334.373.143.374.334.374.335-.139.335-.374zm-.133 0c0 .166-.083.256-.202.256-.118 0-.201-.09-.201-.256 0-.165.083-.255.201-.255.119 0 .202.09.202.255z" transform="matrix(43.01331249227 0 0 43.01335993827 1643.38834736348 672.86590430463)"/><path d="m.669-.727h-.131v.495h-.006l-.342-.495h-.118v.727h.131v-.495h.007l.342.495h.117z" transform="matrix(43.01331249227 0 0 43.01335993827 1689.62092099208 672.86590430463)"/><path d="m.04-.617h.225v.617h.13v-.617h.225v-.11h-.58z" transform="matrix(43.01331249227 0 0 43.01335993827 1734.38724079108 672.86590430463)"/><path d="m.072 0h.476v-.11h-.345v-.199h.317v-.11h-.317v-.198h.342v-.11h-.473z" transform="matrix(43.01331249227 0 0 43.01335993827 1775.66926825557 672.86590430463)"/><path d="m.072-.727v.727h.126v-.501h.007l.201.499h.094l.201-.498h.007v.5h.127v-.727h-.162l-.216.527h-.008l-.216-.527z" transform="matrix(43.01331249227 0 0 43.01335993827 1814.71118570261 672.86590430463)"/><path d="m.072 0h.131v-.246h.14c.168 0 .258-.101.258-.241 0-.138-.089-.24-.257-.24h-.272zm.131-.354v-.263h.121c.099 0 .143.053.143.13 0 .078-.044.133-.142.133z" transform="matrix(43.01331249227 0 0 43.01335993827 1866.59252160466 672.86590430463)"/><path d="m.722-.364c0-.235-.144-.373-.335-.373s-.334.138-.334.373.143.374.334.374.335-.139.335-.374zm-.133 0c0 .166-.083.256-.202.256-.118 0-.201-.09-.201-.256 0-.165.083-.255.201-.255.119 0 .202.09.202.255z" transform="matrix(43.01331249227 0 0 43.01335993827 1907.17633295981 672.86590430463)"/><path d="m.072 0h.131v-.266h.135l.142.266h.147l-.157-.288c.086-.035.131-.108.131-.207 0-.139-.09-.232-.257-.232h-.272zm.131-.376v-.241h.121c.099 0 .143.045.143.122 0 .078-.044.119-.142.119z" transform="matrix(43.01331249227 0 0 43.01335993827 1953.4137553114 672.86590430463)"/><path d="m.165 0 .06-.179h.274l.06.179h.141l-.257-.727h-.162l-.256.727zm.096-.285.098-.293h.006l.098.293z" transform="matrix(43.01331249227 0 0 43.01335993827 1994.2981874914 672.86590430463)"/><path d="m.072 0h.131v-.266h.135l.142.266h.147l-.157-.288c.086-.035.131-.108.131-.207 0-.139-.09-.232-.257-.232h-.272zm.131-.376v-.241h.121c.099 0 .143.045.143.122 0 .078-.044.119-.142.119z" transform="matrix(43.01331249227 0 0 43.01335993827 2038.33428960939 672.86590430463)"/><path d="m.022-.727.265.456v.271h.131v-.271l.265-.456h-.149l-.178.321h-.007l-.178-.321z" transform="matrix(43.01331249227 0 0 43.01335993827 2078.01623848998 672.86590430463)"/><path d="m.165 0 .06-.179h.274l.06.179h.141l-.257-.727h-.162l-.256.727zm.096-.285.098-.293h.006l.098.293z" transform="matrix(43.01331249227 0 0 43.01335993827 2147.11054097636 672.86590430463)"/><path d="m.072 0h.131v-.266h.135l.142.266h.147l-.157-.288c.086-.035.131-.108.131-.207 0-.139-.09-.232-.257-.232h-.272zm.131-.376v-.241h.121c.099 0 .143.045.143.122 0 .078-.044.119-.142.119z" transform="matrix(43.01331249227 0 0 43.01335993827 2191.14664309434 672.86590430463)"/><path d="m.04-.617h.225v.617h.13v-.617h.225v-.11h-.58z" transform="matrix(43.01331249227 0 0 43.01335993827 2232.03107527435 672.86590430463)"/><path d="m0 155.096v-155.096h62.11v29.972h-30.513v30.152h29.25v29.25h-29.25v35.57h32.5v30.152z" fill="#121414" transform="matrix(1.8042595666 0 0 1.8042595666 860.05225824178 279.757247649)"/><path d="m0 137.041c-6.26-6.979-9.389-18.236-9.389-33.765v-15.166h30.514v19.32c0 7.704 2.466 11.555 7.403 11.555 2.767 0 4.694-.812 5.777-2.437 1.084-1.625 1.625-4.361 1.625-8.215 0-5.057-.603-9.237-1.805-12.549-1.205-3.309-2.74-6.077-4.604-8.306-1.868-2.225-5.209-5.687-10.021-10.381l-13.361-13.362c-10.354-10.111-15.528-21.305-15.528-33.582 0-13.24 3.038-23.32 9.118-30.243 6.077-6.92 14.955-10.382 26.632-10.382 13.962 0 24.014 3.701 30.152 11.104 6.139 7.403 9.209 18.989 9.209 34.757h-31.597l-.181-10.653c0-2.046-.572-3.671-1.715-4.875-1.146-1.202-2.739-1.805-4.785-1.805-2.409 0-4.215.662-5.417 1.985-1.204 1.327-1.805 3.132-1.805 5.417 0 5.056 2.889 10.292 8.667 15.708l18.055 17.333c4.212 4.094 7.702 7.976 10.472 11.646 2.768 3.673 4.994 8.006 6.681 13 1.684 4.997 2.528 10.923 2.528 17.785 0 15.288-2.799 26.874-8.396 34.757-5.598 7.884-14.837 11.826-27.715 11.826-14.084 0-24.257-3.491-30.514-10.472" fill="#121414" transform="matrix(1.8042595666 0 0 1.8042595666 1003.8733968146 296.04610301627)"/><path d="m0-23.653c3.729 0 6.469-.691 8.215-2.076 1.744-1.382 2.889-3.369 3.431-5.958.542-2.588.812-6.289.812-11.104 0-6.501-.722-11.195-2.166-14.084-1.445-2.888-4.334-4.333-8.667-4.333h-3.431v37.555zm-32.319-65.722h40.986c12.396 0 21.243 4.004 26.541 12.008 5.295 8.006 7.944 19.711 7.944 35.117 0 15.409-2.347 27.024-7.041 34.847-4.694 7.826-13.121 11.736-25.278 11.736h-12.639v61.389h-30.513z" fill="#121414" transform="matrix(1.8042595666 0 0 1.8042595666 1196.66214002495 441.01294641388)"/><path d="m0 55.43h14.083l-6.861-78.902h-1.444zm-34.305 49.833 14.986-155.096h52.541l14.805 155.096h-29.43l-2.166-25.097h-18.778l-1.806 25.097z" fill="#121414" transform="matrix(1.8042595666 0 0 1.8042595666 1337.38716918148 369.66891463138)"/><path d="m0 136.681c-6.802-7.102-10.201-16.851-10.201-29.25v-71.5c0-15.406 3.069-27.021 9.208-34.846 6.139-7.823 15.767-11.737 28.889-11.737 11.434 0 20.642 3.132 27.624 9.39 6.98 6.259 10.472 15.287 10.472 27.083v26.721h-30.874v-22.93c0-4.452-.542-7.521-1.625-9.208-1.084-1.684-2.951-2.528-5.597-2.528-2.771 0-4.667.965-5.688 2.889-1.024 1.927-1.535 4.756-1.535 8.486v77.819c0 4.093.601 7.073 1.806 8.937 1.202 1.867 3.007 2.799 5.417 2.799 4.812 0 7.222-3.91 7.222-11.736v-27.986h31.236v29.249c0 26-13.062 39-39.181 39-11.316 0-20.374-3.548-27.173-10.652" fill="#121414" transform="matrix(1.8042595666 0 0 1.8042595666 1451.92156646925 296.36906547869)"/><path d="m0 155.096v-155.096h62.111v29.972h-30.513v30.152h29.249v29.25h-29.249v35.57h32.499v30.152z" fill="#121414" transform="matrix(1.8042595666 0 0 1.8042595666 1585.74530278354 279.757247649)"/><path d="m0 141.012c0-7.101 1.111-13.659 3.34-19.68 2.226-6.017 4.966-11.434 8.215-16.25 3.25-4.813 7.521-10.471 12.82-16.971 5.416-6.741 9.719-12.459 12.909-17.153 3.188-4.695 5.897-10.081 8.125-16.16 2.226-6.077 3.34-12.667 3.34-19.771 0-4.212-.603-7.493-1.805-9.84-1.205-2.347-3.372-3.521-6.501-3.521-5.175 0-7.762 4.636-7.762 13.903v18.958h-32.681l-.361-9.569c0-11.795 1.202-21.486 3.611-29.07 2.406-7.583 6.618-13.36 12.639-17.333 6.017-3.972 14.323-5.958 24.916-5.958 13 0 23.049 3.643 30.153 10.924 7.101 7.284 10.652 17.604 10.652 30.965 0 8.548-1.173 16.28-3.52 23.201-2.348 6.923-5.236 12.971-8.667 18.145-3.431 5.177-7.976 11.257-13.632 18.237-4.094 4.936-7.493 9.329-10.201 13.18-2.708 3.854-5.147 7.826-7.313 11.916h42.249v29.25h-80.526z" fill="#121414" transform="matrix(1.8042595666 0 0 1.8042595666 1794.55587094529 291.81150581346)"/><path d="m0 135.777c-6.261-7.16-9.389-18.084-9.389-32.771v-16.25h31.778v16.25c0 4.695.6 8.337 1.805 10.924 1.202 2.59 3.611 3.882 7.222 3.882 2.528 0 4.362-.903 5.508-2.709 1.141-1.805 1.833-3.94 2.075-6.409.24-2.466.361-6.049.361-10.743v-3.791c0-13.362-4.394-20.042-13.179-20.042-1.567 0-2.59.062-3.07.18v-27.805c5.535 0 9.688-1.233 12.458-3.701 2.768-2.466 4.153-6.41 4.153-11.827 0-8.785-2.528-13.18-7.583-13.18-3.132 0-5.146.784-6.049 2.347-.903 1.566-1.506 3.552-1.806 5.958-.302 2.41-.513 4.153-.632 5.236v4.695h-32.138l-.181-5.417c.119-14.202 3.49-24.645 10.111-31.326 6.619-6.68 16.792-10.021 30.514-10.021 26.361 0 39.541 13.785 39.541 41.347 0 8.066-1.083 14.476-3.25 19.229-2.166 4.756-5.898 8.097-11.194 10.021 4.334 2.167 7.552 4.847 9.66 8.035 2.104 3.191 3.489 7.073 4.152 11.646.66 4.575.993 10.715.993 18.416 0 16.01-3.339 28.107-10.02 36.291-6.681 8.187-17.364 12.278-32.049 12.278-13.604 0-23.533-3.58-29.791-10.743" fill="#121414" transform="matrix(1.8042595666 0 0 1.8042595666 1968.47747186769 298.48907046945)"/><path d="m0 94.61c1.445-2.104 2.167-4.604 2.167-7.492v-76.555c0-4.453-.513-7.855-1.535-10.202-1.024-2.347-3.1-3.521-6.229-3.521-3.132 0-5.176 1.174-6.138 3.521-.965 2.347-1.445 5.749-1.445 10.202v76.555c0 2.888.692 5.388 2.076 7.492 1.383 2.107 3.219 3.16 5.507 3.16 2.285 0 4.153-1.053 5.597-3.16m-35.93 20.583c-7.103-7.402-10.653-17.965-10.653-31.687v-70.055c0-14.684 3.431-25.878 10.292-33.583 6.861-7.701 17.091-11.555 30.694-11.555 13.722 0 24.014 3.854 30.874 11.555 6.863 7.705 10.292 18.899 10.292 33.583v70.055c0 13.843-3.551 24.437-10.652 31.778-7.104 7.344-17.274 11.013-30.514 11.013-13.121 0-23.232-3.701-30.333-11.104" fill="#121414" transform="matrix(1.8042595666 0 0 1.8042595666 2194.52232740961 334.32346972169)"/></g><path d="m155.002 123.303h775.385v5.538h-775.385z" fill="#121414" transform="matrix(-1.8038094936 0 0 1.8042595666 2538.2927492 382.74758643)"/><path d="m0 28.393c1.928 0 3.706-.078 5.333-.233 1.628-.156 3.053-.327 4.277-.513 1.431-.228 2.726-.487 3.887-.777l-.715 4.136c-.291-.021-.783-.047-1.477-.078-.695-.031-1.426-.052-2.193-.062-.767-.011-1.482-.021-2.146-.031-.664-.011-1.119-.016-1.368-.016h-11.911v-.124c.145-.436.274-.995.388-1.68.114-.684.208-1.529.28-2.534.073-1.006.129-2.203.171-3.592s.063-3.017.063-4.883v-7.837c0-1.866-.021-3.488-.063-4.867s-.098-2.571-.171-3.576c-.072-1.006-.166-1.851-.28-2.536-.114-.684-.243-1.243-.388-1.679v-.124h7.184v.124c-.145.436-.27.995-.373 1.679-.104.685-.192 1.53-.265 2.536-.073 1.005-.129 2.197-.171 3.576-.041 1.379-.062 3.001-.062 4.867z" fill="#771113" fill-rule="nonzero" stroke="#771113" stroke-width=".58" transform="matrix(1.8017703167 0 0 1.8017703167 871.42694809188 172.7668837701)"/><path d="m0 30.167c1.576 0 3.027-.311 4.354-.933s2.473-1.513 3.437-2.675c.963-1.161 1.71-2.576 2.239-4.245.529-1.668.793-3.55.793-5.645 0-2.383-.254-4.591-.762-6.624-.508-2.031-1.275-3.789-2.302-5.271-1.026-1.482-2.306-2.644-3.84-3.483-1.535-.84-3.328-1.26-5.38-1.26-1.576 0-3.028.301-4.354.902-1.328.602-2.473 1.473-3.437 2.612-.964 1.141-1.716 2.54-2.255 4.199s-.808 3.546-.808 5.66c0 2.364.264 4.567.793 6.609.528 2.042 1.306 3.815 2.333 5.318 1.025 1.503 2.305 2.685 3.84 3.545 1.534.861 3.317 1.291 5.349 1.291m-18.535-15.177c0-2.446.461-4.716 1.384-6.811.922-2.094 2.181-3.913 3.778-5.457 1.597-1.545 3.483-2.753 5.661-3.624 2.176-.87 4.509-1.306 6.997-1.306 2.446 0 4.753.41 6.92 1.229 2.166.819 4.053 1.985 5.66 3.498 1.606 1.514 2.877 3.349 3.809 5.505.933 2.157 1.4 4.572 1.4 7.246 0 2.219-.394 4.359-1.182 6.422s-1.939 3.888-3.452 5.474c-1.514 1.585-3.379 2.851-5.598 3.794s-4.758 1.415-7.619 1.415c-2.426 0-4.717-.404-6.873-1.213-2.157-.808-4.043-1.964-5.661-3.468-1.617-1.503-2.892-3.327-3.825-5.473s-1.399-4.556-1.399-7.231" fill="#771113" fill-rule="nonzero" transform="matrix(1.8017703167 0 0 1.8017703167 947.65985019146 170.97196018061)"/><path d="m0-8.894c0-1.845-.011-3.452-.031-4.82-.021-1.369-.062-2.551-.124-3.546-.063-.995-.136-1.829-.218-2.503-.083-.674-.187-1.229-.311-1.664v-.125h4.572v.125c-.125.435-.229.995-.311 1.679-.083.685-.156 1.529-.218 2.535-.063 1.006-.104 2.198-.125 3.576-.021 1.379-.031 3.001-.031 4.868v8.925c0 2.239-.347 4.147-1.042 5.722-.694 1.576-1.653 2.867-2.876 3.872-1.224 1.006-2.68 1.742-4.369 2.209-1.691.466-3.541.699-5.552.699-2.032 0-3.919-.223-5.66-.669-1.742-.445-3.25-1.155-4.525-2.13-1.276-.974-2.281-2.239-3.017-3.794s-1.104-3.441-1.104-5.66v-9.174c0-1.867-.021-3.489-.062-4.868-.042-1.378-.104-2.57-.187-3.576s-.176-1.85-.28-2.535c-.104-.684-.228-1.244-.373-1.679v-.125h7.184v.125c-.145.435-.269.99-.373 1.664s-.192 1.508-.264 2.503c-.073.995-.13 2.177-.171 3.546-.042 1.368-.063 2.975-.063 4.82v9.299c0 1.846.281 3.364.84 4.556.56 1.192 1.295 2.141 2.208 2.846.912.705 1.949 1.197 3.11 1.477s2.353.42 3.577.42c1.244 0 2.451-.14 3.623-.42 1.171-.28 2.218-.772 3.141-1.477.922-.705 1.658-1.654 2.208-2.846.549-1.192.824-2.71.824-4.556z" fill="#771113" fill-rule="nonzero" stroke="#771113" stroke-width=".58" transform="matrix(1.8017703167 0 0 1.8017703167 1050.41841489349 206.88953073589)"/><path d="m0-7.868c0-1.866-.021-3.488-.062-4.867-.042-1.379-.099-2.571-.171-3.576-.073-1.006-.166-1.851-.281-2.536-.113-.684-.243-1.243-.388-1.679v-.124h7.215v.124c-.145.436-.275.995-.389 1.679-.114.685-.207 1.53-.28 2.536-.073 1.005-.129 2.197-.171 3.576-.041 1.379-.062 3.001-.062 4.867v7.837c0 1.866.021 3.494.062 4.883.042 1.389.098 2.586.171 3.592.073 1.005.166 1.85.28 2.534.114.685.244 1.244.389 1.68v.124h-7.215v-.124c.145-.436.275-.995.388-1.68.115-.684.208-1.529.281-2.534.072-1.006.129-2.203.171-3.592.041-1.389.062-3.017.062-4.883z" fill="#771113" fill-rule="nonzero" stroke="#771113" stroke-width=".58" transform="matrix(1.8017703167 0 0 1.8017703167 1088.03217202492 205.26523479539)"/><path d="m0-20.961h-.622c-.124-.353-.327-.798-.606-1.337-.28-.539-.653-1.068-1.12-1.586-.466-.518-1.042-.959-1.726-1.322s-1.504-.545-2.457-.545c-.726 0-1.374.12-1.944.358-.57.239-1.052.565-1.446.98s-.695.907-.902 1.477c-.207.571-.311 1.187-.311 1.85 0 1.079.327 2.105.98 3.08.654.974 1.466 1.943 2.442 2.907.974.964 2.031 1.934 3.171 2.908 1.141.975 2.198 1.99 3.173 3.048.974 1.057 1.788 2.177 2.441 3.359.653 1.181.98 2.446.98 3.794 0 .995-.182 2.021-.544 3.079-.363 1.057-.949 2.011-1.758 2.861-.808.85-1.845 1.55-3.109 2.099-1.266.549-2.8.824-4.603.824-.996 0-1.944-.083-2.846-.249s-1.732-.368-2.488-.606c-.757-.238-1.431-.498-2.021-.777-.591-.281-1.084-.545-1.478-.793l.56-5.878h.653c.207.726.513 1.451.918 2.177.404.726.901 1.384 1.493 1.974.59.591 1.285 1.068 2.083 1.431s1.715.544 2.753.544c.725 0 1.409-.119 2.052-.358.642-.237 1.198-.575 1.664-1.01.467-.435.834-.969 1.104-1.602.269-.632.404-1.342.404-2.13 0-.933-.186-1.799-.559-2.597-.374-.798-.872-1.565-1.494-2.301-.621-.736-1.321-1.447-2.099-2.131-.777-.684-1.581-1.378-2.41-2.083s-1.633-1.425-2.41-2.162c-.777-.736-1.478-1.529-2.099-2.379-.622-.85-1.12-1.757-1.493-2.721s-.56-2.026-.56-3.188c0-1.223.259-2.322.777-3.296.519-.975 1.203-1.799 2.053-2.473.85-.673 1.824-1.192 2.924-1.555 1.098-.362 2.239-.544 3.42-.544.872 0 1.685.062 2.442.186.756.125 1.441.275 2.052.451.612.177 1.146.353 1.602.529.456.177.829.316 1.12.42z" fill="#771113" fill-rule="nonzero" stroke="#771113" stroke-width=".58" transform="matrix(1.8017703167 0 0 1.8017703167 1156.65259453644 217.53637171431)"/><path d="m1183.36293859636 194.67550993602h37.87861736798v8.01247259836h-37.87861736798z" fill="#771113" stroke="#771113" stroke-width="1.04502678369"/><path d="m0 .59c-.995 0-1.84.037-2.535.109-.694.073-1.228.14-1.601.202v3.234c0 1.784.005 3.277.015 4.479.011 1.203.031 2.208.063 3.017.031.808.057 1.457.078 1.943.02.488.051.908.093 1.26.539.145 1.114.238 1.725.28.612.041 1.094.062 1.447.062 2.861 0 4.939-.627 6.236-1.881 1.295-1.255 1.943-3.199 1.943-5.832 0-.995-.155-1.917-.466-2.768-.311-.85-.778-1.575-1.4-2.177-.622-.601-1.399-1.073-2.332-1.414-.933-.343-2.022-.514-3.266-.514m-4.136-2.115c.414.063.788.099 1.119.109.332.011.674.016 1.027.016 2.094 0 3.758-.58 4.991-1.742 1.233-1.161 1.851-2.892 1.851-5.193 0-.933-.125-1.793-.373-2.582-.25-.787-.607-1.461-1.073-2.021-.467-.56-1.048-.995-1.742-1.306-.695-.312-1.488-.467-2.379-.467-.602 0-1.11.026-1.524.078-.415.052-.767.098-1.057.14-.332.083-.612.155-.84.217zm-6.313-15.021c.393.021.797.032 1.213.032.352.02.735.03 1.15.03h1.213c.643 0 1.534-.041 2.675-.124 1.139-.082 2.56-.124 4.26-.124 1.513 0 2.918.181 4.214.544s2.415.886 3.359 1.57c.943.685 1.679 1.524 2.208 2.52.529.995.793 2.125.793 3.389 0 1.078-.15 2.037-.45 2.877-.302.84-.731 1.576-1.291 2.208-.56.633-1.234 1.161-2.022 1.586s-1.659.762-2.612 1.011c1.388.207 2.654.55 3.794 1.026 1.14.478 2.115 1.073 2.924 1.789.808.715 1.43 1.554 1.865 2.518.436.965.654 2.037.654 3.22 0 3.276-1.172 5.727-3.515 7.355-2.343 1.627-5.837 2.441-10.481 2.441-.497 0-1.114-.021-1.85-.063-.736-.041-1.504-.083-2.301-.124-.799-.042-1.566-.083-2.302-.124-.736-.042-1.353-.063-1.85-.063h-1.648v-.124c.144-.435.274-.995.388-1.679s.207-1.529.28-2.534c.073-1.006.129-2.204.171-3.593.042-1.388.063-3.016.063-4.883v-7.837c0-1.866-.021-3.493-.063-4.882s-.098-2.592-.171-3.608c-.073-1.015-.166-1.866-.28-2.55s-.244-1.244-.388-1.679z" fill="#771113" fill-rule="nonzero" transform="matrix(1.8017703167 0 0 1.8017703167 1267.86506556443 197.75815877086)"/><path d="m0-33.276c2.135-.01 4.116-.032 5.94-.062 1.824-.032 3.395-.067 4.712-.109 1.316-.042 2.181-.104 2.597-.187l-1.213 3.359c-.56-.145-1.193-.28-1.897-.404-.622-.104-1.374-.203-2.255-.296-.882-.093-1.903-.14-3.063-.14-.415 0-.892.016-1.431.047s-1.057.067-1.555.108c-.581.042-1.171.083-1.773.125v12.285c1.68-.021 3.193-.063 4.541-.125s2.498-.144 3.452-.249c1.12-.082 2.104-.197 2.955-.342l-.747 3.701c-1.14-.145-2.291-.269-3.452-.373-.995-.104-2.094-.192-3.296-.265-1.203-.072-2.354-.108-3.453-.108v14.119c1.929 0 3.701-.078 5.318-.233 1.618-.156 3.027-.327 4.23-.514 1.41-.228 2.685-.486 3.826-.777l-.716 4.074c-.311-.021-.814-.047-1.508-.078-.695-.031-1.421-.052-2.177-.062-.757-.011-1.467-.021-2.131-.031-.664-.011-1.119-.016-1.368-.016h-11.787v-.124c.145-.435.274-.995.389-1.679.113-.685.207-1.529.28-2.535.072-1.005.129-2.203.171-3.592.041-1.389.062-3.017.062-4.883v-7.837c0-1.866-.021-3.488-.062-4.867-.042-1.378-.099-2.571-.171-3.576-.073-1.006-.167-1.851-.28-2.535-.115-.684-.244-1.244-.389-1.679v-.125c2.032 0 4.116-.005 6.251-.015" fill="#771113" fill-rule="nonzero" transform="matrix(1.8017703167 0 0 1.8017703167 1329.40453073132 227.98663955117)"/><path d="m0 1.213c.415.062.834.109 1.26.14.424.031.834.047 1.228.047 2.592 0 4.556-.695 5.893-2.084 1.338-1.389 2.006-3.473 2.006-6.251 0-2.281-.534-4.084-1.601-5.412-1.069-1.326-2.639-1.99-4.712-1.99-.664 0-1.249.027-1.757.078-.508.052-.939.109-1.291.171-.394.083-.736.166-1.026.249zm4.758 2.021c-.415.062-.824.099-1.228.109-.405.011-.814.016-1.229.016-.332 0-.695-.01-1.088-.031-.394-.02-.798-.052-1.213-.094v1.524c0 1.846.02 3.458.062 4.836.042 1.379.098 2.566.171 3.561.073.996.161 1.83.265 2.504.103.674.228 1.228.373 1.664v.124h-7.184v-.124c.145-.436.274-.995.388-1.68.114-.684.207-1.529.28-2.534.073-1.006.129-2.203.171-3.592s.062-3.017.062-4.883v-7.837c0-1.866-.02-3.488-.062-4.867s-.098-2.571-.171-3.576c-.073-1.006-.166-1.851-.28-2.536-.114-.684-.243-1.243-.388-1.679v-.124c.331.021.684.042 1.057.062.311.021.658.036 1.042.047.383.01.772.015 1.166.015.664 0 1.649-.062 2.955-.186 1.306-.125 2.84-.187 4.602-.187 1.783 0 3.406.218 4.867.653 1.462.436 2.716 1.058 3.764 1.866 1.046.809 1.855 1.794 2.425 2.955s.855 2.456.855 3.887c0 1.12-.155 2.141-.466 3.064-.311.922-.746 1.751-1.306 2.487-.56.737-1.224 1.384-1.99 1.944-.768.56-1.617 1.047-2.551 1.462l6.5 9.174c.56.747 1.124 1.462 1.695 2.146.57.684 1.115 1.296 1.633 1.835s1.005.99 1.461 1.353.84.606 1.151.731v.124h-8.148c0-.187-.13-.513-.389-.98-.259-.466-.559-.953-.902-1.462-.341-.507-.684-.999-1.025-1.477-.343-.476-.597-.828-.763-1.057z" fill="#771113" fill-rule="nonzero" stroke="#771113" stroke-width=".58" transform="matrix(1.8017703167 0 0 1.8017703167 1390.31337628737 196.85997626798)"/><path d="m0 33.868h-1.213l-24.724-24.32v11.071c0 1.867.01 3.495.031 4.883.02 1.389.056 2.587.109 3.593.051 1.005.124 1.85.217 2.534.094.684.213 1.244.358 1.679v.124h-4.665v-.124c.145-.435.269-.995.373-1.679s.187-1.529.249-2.534c.062-1.006.103-2.204.124-3.593.02-1.388.032-3.016.032-4.883v-7.836c0-1.867-.012-3.489-.032-4.868-.021-1.378-.062-2.57-.124-3.576s-.145-1.85-.249-2.535c-.104-.684-.228-1.244-.373-1.679v-.125h1.928l24.755 24.445v-11.662c0-1.867-.01-3.489-.03-4.868-.021-1.378-.058-2.57-.109-3.576-.053-1.006-.12-1.85-.202-2.535-.083-.684-.198-1.244-.343-1.679v-.125h4.634v.125c-.145.435-.264.995-.357 1.679-.094.685-.172 1.529-.234 2.535s-.104 2.198-.124 3.576c-.021 1.379-.031 3.001-.031 4.868z" fill="#771113" fill-rule="nonzero" stroke="#771113" stroke-width=".58" transform="matrix(1.8017703167 0 0 1.8017703167 1507.10773175649 168.05759669334)"/><path d="m0 8.334h1.897c.872 0 1.798-.005 2.784-.016.984-.009 1.974-.015 2.969-.015.996 0 1.96-.005 2.893-.015.933-.011 1.773-.016 2.519-.016l-6.437-13.746zm14.182 2.426h-7.931c-1.058 0-2.064.006-3.017.016-.954.01-1.824.02-2.612.031-.789.01-1.399.015-1.834.015l-1.151 2.426c-.498.995-.923 1.861-1.276 2.597-.352.736-.642 1.384-.87 1.944-.228.559-.394 1.041-.498 1.446-.104.404-.156.783-.156 1.135 0 .228.011.399.032.513.02.114.052.202.093.264v.125h-5.474v-.125c.146-.145.374-.461.685-.948s.668-1.083 1.073-1.788c.404-.705.839-1.504 1.306-2.395.466-.891.928-1.814 1.385-2.768l12.688-26.186h2.332l12.44 26.186c.476.995.958 1.949 1.446 2.861.487.913.938 1.726 1.352 2.442.414.715.778 1.306 1.09 1.772.31.467.517.742.622.824v.125h-7.962c.041-.166.062-.316.062-.451v-.451c0-.456-.099-1.006-.296-1.648-.198-.643-.436-1.301-.714-1.975-.281-.674-.572-1.322-.872-1.944s-.543-1.14-.73-1.555z" fill="#771113" fill-rule="nonzero" stroke="#771113" stroke-width=".58" transform="matrix(1.8017703167 0 0 1.8017703167 1549.5952775946 189.96892551473)"/><path d="m0 1.213c.414.062.834.109 1.26.14.424.031.834.047 1.228.047 2.591 0 4.556-.695 5.893-2.084 1.338-1.389 2.006-3.473 2.006-6.251 0-2.281-.533-4.084-1.601-5.412-1.069-1.326-2.639-1.99-4.712-1.99-.664 0-1.249.027-1.757.078-.508.052-.939.109-1.291.171-.394.083-.736.166-1.026.249zm4.758 2.021c-.415.062-.824.099-1.229.109-.404.011-.814.016-1.228.016-.332 0-.695-.01-1.088-.031-.394-.02-.799-.052-1.213-.094v1.524c0 1.846.021 3.458.062 4.836.041 1.379.098 2.566.171 3.561.073.996.161 1.83.265 2.504.103.674.227 1.228.373 1.664v.124h-7.184v-.124c.144-.436.274-.995.388-1.68.114-.684.207-1.529.28-2.534.073-1.006.13-2.203.171-3.592s.062-3.017.062-4.883v-7.837c0-1.866-.021-3.488-.062-4.867s-.098-2.571-.171-3.576c-.073-1.006-.166-1.851-.28-2.536-.114-.684-.244-1.243-.388-1.679v-.124c.331.021.684.042 1.057.062.311.021.658.036 1.042.047.383.01.772.015 1.166.015.663 0 1.649-.062 2.954-.186 1.307-.125 2.841-.187 4.603-.187 1.783 0 3.406.218 4.867.653 1.462.436 2.716 1.058 3.764 1.866 1.046.809 1.855 1.794 2.425 2.955s.855 2.456.855 3.887c0 1.12-.155 2.141-.466 3.064-.311.922-.746 1.751-1.306 2.487-.56.737-1.224 1.384-1.99 1.944-.768.56-1.617 1.047-2.551 1.462l6.5 9.174c.56.747 1.124 1.462 1.695 2.146.57.684 1.115 1.296 1.633 1.835s1.005.99 1.461 1.353c.457.363.84.606 1.151.731v.124h-8.148c0-.187-.129-.513-.389-.98-.259-.466-.559-.953-.902-1.462-.341-.507-.684-.999-1.026-1.477-.342-.476-.596-.828-.762-1.057z" fill="#771113" fill-rule="nonzero" stroke="#771113" stroke-width=".58" transform="matrix(1.8017703167 0 0 1.8017703167 1630.59566395216 196.85997626798)"/><path d="m0-29.141c-.021 1.7-.041 3.349-.062 4.945 0 .684-.005 1.384-.015 2.099-.012.715-.021 1.426-.031 2.131-.011.704-.016 1.373-.016 2.005v1.695c0 1.038.005 2.286.016 3.748.01 1.461.025 2.96.046 4.494.021 1.535.051 3.012.093 4.431.042 1.421.094 2.608.156 3.561.208.042.476.078.808.109.332.032.679.062 1.042.094.362.031.721.052 1.073.062.352.011.653.016.902.016 1.14 0 2.297-.073 3.467-.218 1.172-.145 2.302-.42 3.39-.824 1.089-.405 2.11-.959 3.064-1.664s1.788-1.612 2.504-2.721c.714-1.109 1.275-2.447 1.679-4.012.405-1.565.607-3.416.607-5.552 0-4.706-1.125-8.335-3.375-10.884-2.25-2.551-5.604-3.826-10.061-3.826-.435 0-.897.011-1.384.031-.487.021-.969.047-1.446.078-.478.031-.929.068-1.353.109-.425.042-.792.073-1.104.093zm-6.437-2.27c.497.02.963.031 1.399.031.373.021.735.031 1.089.031h.777c.29 0 .809-.01 1.555-.031.747-.02 1.591-.047 2.535-.078.943-.031 1.938-.062 2.985-.093s2.017-.047 2.909-.047c2.424 0 4.736.28 6.934.84s4.132 1.477 5.801 2.752c1.668 1.275 2.99 2.945 3.965 5.007.973 2.064 1.462 4.608 1.462 7.635 0 3.256-.561 6.014-1.68 8.273-1.12 2.26-2.633 4.1-4.54 5.52-1.908 1.421-4.121 2.447-6.641 3.079-2.518.632-5.177.949-7.976.949-.664 0-1.493-.021-2.489-.063-.995-.041-2.01-.083-3.046-.124-1.039-.042-2.018-.083-2.94-.124-.923-.042-1.623-.063-2.099-.063v-.124c.144-.435.274-.995.388-1.68.113-.684.207-1.528.28-2.534s.129-2.203.171-3.592c.041-1.389.063-3.017.063-4.883v-7.837c0-1.866-.022-3.493-.063-4.883-.042-1.388-.098-2.591-.171-3.607s-.167-1.866-.28-2.55c-.114-.684-.244-1.244-.388-1.68z" fill="#771113" fill-rule="nonzero" stroke="#771113" stroke-width=".58" transform="matrix(1.8017703167 0 0 1.8017703167 1705.14210903531 224.54165470564)"/><path d="m0-20.961h-.622c-.125-.353-.327-.798-.607-1.337s-.653-1.068-1.12-1.586c-.466-.518-1.041-.959-1.725-1.322-.685-.363-1.504-.545-2.457-.545-.726 0-1.374.12-1.945.358-.57.239-1.051.565-1.446.98-.393.415-.694.907-.901 1.477-.208.571-.311 1.187-.311 1.85 0 1.079.326 2.105.98 3.08.653.974 1.466 1.943 2.441 2.907.974.964 2.031 1.934 3.172 2.908 1.141.975 2.197 1.99 3.172 3.048.974 1.057 1.788 2.177 2.441 3.359.654 1.181.98 2.446.98 3.794 0 .995-.182 2.021-.544 3.079-.362 1.057-.948 2.011-1.757 2.861s-1.846 1.55-3.11 2.099c-1.265.549-2.799.824-4.603.824-.995 0-1.944-.083-2.846-.249s-1.731-.368-2.487-.606c-.758-.238-1.431-.498-2.022-.777-.591-.281-1.083-.545-1.477-.793l.56-5.878h.653c.207.726.513 1.451.917 2.177s.902 1.384 1.493 1.974c.591.591 1.285 1.068 2.083 1.431s1.716.544 2.753.544c.726 0 1.409-.119 2.053-.358.642-.237 1.197-.575 1.663-1.01.467-.435.835-.969 1.104-1.602.27-.632.405-1.342.405-2.13 0-.933-.187-1.799-.56-2.597s-.871-1.565-1.493-2.301-1.321-1.447-2.099-2.131-1.582-1.378-2.411-2.083-1.632-1.425-2.41-2.162c-.777-.736-1.477-1.529-2.099-2.379s-1.12-1.757-1.493-2.721-.559-2.026-.559-3.188c0-1.223.258-2.322.777-3.296.518-.975 1.202-1.799 2.053-2.473.849-.673 1.824-1.192 2.924-1.555 1.098-.362 2.239-.544 3.419-.544.872 0 1.685.062 2.442.186.757.125 1.441.275 2.053.451.611.177 1.145.353 1.601.529.456.177.829.316 1.12.42z" fill="#771113" fill-rule="nonzero" stroke="#771113" stroke-width=".58" transform="matrix(1.8017703167 0 0 1.8017703167 1858.31240542829 217.53637171431)"/><path d="m0-28.643c-1.888 0-3.604.083-5.147.249-1.545.167-2.877.342-3.997.529-1.286.228-2.447.477-3.483.746l.622-4.012c.311.042.818.073 1.525.093.704.021 1.445.037 2.223.047.777.011 1.513.021 2.207.032.695.01 1.177.015 1.446.015h14.71c.249 0 .71-.005 1.385-.015.673-.011 1.394-.021 2.161-.032.767-.01 1.503-.026 2.208-.047.705-.02 1.213-.051 1.525-.093l.622 4.012c-.995-.269-2.136-.518-3.422-.746-1.099-.187-2.421-.362-3.965-.529-1.545-.166-3.281-.249-5.209-.249v18.318c0 1.866.021 3.494.062 4.883.042 1.389.098 2.586.171 3.592.073 1.005.161 1.85.264 2.534.104.685.228 1.244.373 1.68v.124h-7.183v-.124c.144-.436.269-.995.373-1.68.103-.684.196-1.529.28-2.534.083-1.006.145-2.203.187-3.592.041-1.389.062-3.017.062-4.883z" fill="#771113" fill-rule="nonzero" stroke="#771113" stroke-width=".58" transform="matrix(1.8017703167 0 0 1.8017703167 1904.67015390667 223.81193772737)"/><path d="m1949.75314988597 194.67550993602h37.87861736798v8.01247259836h-37.87861736798z" fill="#771113" stroke="#771113" stroke-width="1.04502678369"/><path d="m0-22.081c0-1.866-.021-3.488-.062-4.867-.042-1.379-.098-2.571-.171-3.576-.073-1.006-.166-1.851-.28-2.536-.114-.684-.244-1.243-.389-1.679v-.124h7.215v.124c-.145.436-.275.995-.388 1.679-.114.685-.208 1.53-.28 2.536-.074 1.005-.13 2.197-.171 3.576-.042 1.379-.063 3.001-.063 4.867v14.399c0 2.944-.254 5.432-.762 7.464s-1.244 3.799-2.208 5.303c-.963 1.502-2.129 2.845-3.499 4.027-1.368 1.182-2.922 2.405-4.665 3.67l-.589-.716c1.512-1.368 2.694-2.731 3.544-4.089s1.478-2.815 1.881-4.37c.406-1.555.654-3.25.747-5.084.094-1.835.14-3.903.14-6.205z" fill="#771113" fill-rule="nonzero" stroke="#771113" stroke-width=".58" transform="matrix(1.8017703167 0 0 1.8017703167 2017.44836333987 230.87307559852)"/><path d="m0-33.276c2.136-.01 4.116-.032 5.94-.062 1.825-.032 3.395-.067 4.712-.109s2.182-.104 2.597-.187l-1.213 3.359c-.559-.145-1.192-.28-1.897-.404-.622-.104-1.374-.203-2.255-.296-.882-.093-1.903-.14-3.064-.14-.415 0-.89.016-1.429.047-.54.031-1.058.067-1.556.108-.58.042-1.172.083-1.773.125v12.285c1.68-.021 3.193-.063 4.542-.125 1.346-.062 2.498-.144 3.451-.249 1.12-.082 2.104-.197 2.955-.342l-.746 3.701c-1.141-.145-2.291-.269-3.453-.373-.996-.104-2.094-.192-3.296-.265-1.202-.072-2.354-.108-3.453-.108v14.119c1.929 0 3.702-.078 5.319-.233 1.617-.156 3.026-.327 4.229-.514 1.41-.228 2.685-.486 3.826-.777l-.715 4.074c-.312-.021-.815-.047-1.509-.078-.695-.031-1.42-.052-2.177-.062-.758-.011-1.468-.021-2.131-.031-.663-.011-1.119-.016-1.368-.016h-11.787v-.124c.145-.435.274-.995.389-1.679.114-.685.207-1.529.28-2.535.072-1.005.129-2.203.171-3.592.041-1.389.062-3.017.062-4.883v-7.837c0-1.866-.021-3.488-.062-4.867-.042-1.378-.099-2.571-.171-3.576-.073-1.006-.166-1.851-.28-2.535-.115-.684-.244-1.244-.389-1.679v-.125c2.032 0 4.115-.005 6.251-.015" fill="#771113" fill-rule="nonzero" transform="matrix(1.8017703167 0 0 1.8017703167 2069.26727764816 227.98663955117)"/><path d="m0 8.334h1.897c.872 0 1.798-.005 2.784-.016.984-.009 1.974-.015 2.969-.015.996 0 1.96-.005 2.892-.015.934-.011 1.773-.016 2.52-.016l-6.438-13.746zm14.182 2.426h-7.931c-1.058 0-2.064.006-3.017.016-.954.01-1.825.02-2.612.031-.788.01-1.4.015-1.835.015l-1.15 2.426c-.498.995-.923 1.861-1.276 2.597-.352.736-.642 1.384-.871 1.944-.228.559-.393 1.041-.498 1.446-.103.404-.155.783-.155 1.135 0 .228.011.399.031.513.021.114.052.202.094.264v.125h-5.474v-.125c.146-.145.373-.461.685-.948.31-.487.668-1.083 1.072-1.788s.84-1.504 1.307-2.395c.466-.891.927-1.814 1.384-2.768l12.688-26.186h2.333l12.439 26.186c.477.995.959 1.949 1.447 2.861.487.913.937 1.726 1.352 2.442.414.715.778 1.306 1.089 1.772.311.467.518.742.622.824v.125h-7.962c.042-.166.063-.316.063-.451v-.451c0-.456-.099-1.006-.296-1.648-.197-.643-.436-1.301-.715-1.975-.28-.674-.57-1.322-.871-1.944s-.544-1.14-.731-1.555z" fill="#771113" fill-rule="nonzero" stroke="#771113" stroke-width=".58" transform="matrix(1.8017703167 0 0 1.8017703167 2133.88056297534 189.96892551473)"/><path d="m0 33.868h-1.213l-24.724-24.32v11.071c0 1.867.01 3.495.031 4.883.02 1.389.057 2.587.109 3.593.051 1.005.124 1.85.217 2.534.094.684.213 1.244.358 1.679v.124h-4.665v-.124c.145-.435.269-.995.373-1.679s.187-1.529.248-2.534c.064-1.006.105-2.204.125-3.593.021-1.388.032-3.016.032-4.883v-7.836c0-1.867-.011-3.489-.032-4.868-.02-1.378-.061-2.57-.125-3.576-.061-1.006-.144-1.85-.248-2.535-.104-.684-.228-1.244-.373-1.679v-.125h1.929l24.755 24.445v-11.662c0-1.867-.011-3.489-.031-4.868-.022-1.378-.058-2.57-.109-3.576-.052-1.006-.12-1.85-.202-2.535-.084-.684-.198-1.244-.343-1.679v-.125h4.634v.125c-.145.435-.265.995-.357 1.679-.094.685-.171 1.529-.233 2.535-.063 1.006-.104 2.198-.125 3.576-.02 1.379-.031 3.001-.031 4.868z" fill="#771113" fill-rule="nonzero" stroke="#771113" stroke-width=".58" transform="matrix(1.8017703167 0 0 1.8017703167 2257.35588277879 168.05759669334)"/></svg>