<?xml version="1.0" encoding="UTF-8" standalone="no"?>
<!DOCTYPE svg PUBLIC "-//W3C//DTD SVG 1.1//EN" "http://www.w3.org/Graphics/SVG/1.1/DTD/svg11.dtd">
<svg width="100%" height="100%" viewBox="0 0 1800 840" version="1.1" xmlns="http://www.w3.org/2000/svg" xmlns:xlink="http://www.w3.org/1999/xlink" xml:space="preserve" xmlns:serif="http://www.serif.com/" style="fill-rule:evenodd;clip-rule:evenodd;stroke-miterlimit:10;">
    <g transform="matrix(1,0,0,1,34,0)">
        <g id="Art-contemporain" serif:id="Art contemporain">
            <g id="Art-contemporain1" serif:id="Art contemporain">
                <g transform="matrix(43.0549,0,0,43.0549,165.031,672.946)">
                    <path d="M0.165,0L0.225,-0.179L0.499,-0.179L0.559,0L0.7,0L0.443,-0.727L0.281,-0.727L0.025,0L0.165,0ZM0.261,-0.285L0.359,-0.578L0.365,-0.578L0.463,-0.285L0.261,-0.285Z" style="fill-rule:nonzero;"/>
                </g>
                <g transform="matrix(43.0549,0,0,43.0549,209.107,672.946)">
                    <path d="M0.072,0L0.203,0L0.203,-0.266L0.338,-0.266L0.48,0L0.627,0L0.47,-0.288C0.556,-0.323 0.601,-0.396 0.601,-0.495C0.601,-0.634 0.511,-0.727 0.344,-0.727L0.072,-0.727L0.072,0ZM0.203,-0.376L0.203,-0.617L0.324,-0.617C0.423,-0.617 0.467,-0.572 0.467,-0.495C0.467,-0.417 0.423,-0.376 0.325,-0.376L0.203,-0.376Z" style="fill-rule:nonzero;"/>
                </g>
                <g transform="matrix(43.0549,0,0,43.0549,250.034,672.946)">
                    <path d="M0.04,-0.617L0.265,-0.617L0.265,0L0.395,0L0.395,-0.617L0.62,-0.617L0.62,-0.727L0.04,-0.727L0.04,-0.617Z" style="fill-rule:nonzero;"/>
                </g>
                <g transform="matrix(43.0549,0,0,43.0549,317.272,672.946)">
                    <path d="M0.694,-0.482C0.672,-0.643 0.548,-0.737 0.386,-0.737C0.196,-0.737 0.053,-0.599 0.053,-0.364C0.053,-0.129 0.195,0.01 0.386,0.01C0.559,0.01 0.674,-0.102 0.694,-0.241L0.561,-0.241C0.545,-0.156 0.475,-0.108 0.388,-0.108C0.27,-0.108 0.186,-0.197 0.186,-0.364C0.186,-0.528 0.27,-0.619 0.388,-0.619C0.477,-0.619 0.546,-0.569 0.561,-0.482L0.694,-0.482Z" style="fill-rule:nonzero;"/>
                </g>
                <g transform="matrix(43.0549,0,0,43.0549,362.204,672.946)">
                    <path d="M0.722,-0.364C0.722,-0.599 0.578,-0.737 0.387,-0.737C0.196,-0.737 0.053,-0.599 0.053,-0.364C0.053,-0.129 0.196,0.01 0.387,0.01C0.578,0.01 0.722,-0.129 0.722,-0.364ZM0.589,-0.364C0.589,-0.198 0.506,-0.108 0.387,-0.108C0.269,-0.108 0.186,-0.198 0.186,-0.364C0.186,-0.529 0.269,-0.619 0.387,-0.619C0.506,-0.619 0.589,-0.529 0.589,-0.364Z" style="fill-rule:nonzero;"/>
                </g>
                <g transform="matrix(43.0549,0,0,43.0549,408.482,672.946)">
                    <path d="M0.669,-0.727L0.538,-0.727L0.538,-0.232L0.532,-0.232L0.19,-0.727L0.072,-0.727L0.072,0L0.203,0L0.203,-0.495L0.21,-0.495L0.552,0L0.669,0L0.669,-0.727Z" style="fill-rule:nonzero;"/>
                </g>
                <g transform="matrix(43.0549,0,0,43.0549,453.292,672.946)">
                    <path d="M0.04,-0.617L0.265,-0.617L0.265,0L0.395,0L0.395,-0.617L0.62,-0.617L0.62,-0.727L0.04,-0.727L0.04,-0.617Z" style="fill-rule:nonzero;"/>
                </g>
                <g transform="matrix(43.0549,0,0,43.0549,494.617,672.946)">
                    <path d="M0.072,0L0.548,0L0.548,-0.11L0.203,-0.11L0.203,-0.309L0.52,-0.309L0.52,-0.419L0.203,-0.419L0.203,-0.617L0.545,-0.617L0.545,-0.727L0.072,-0.727L0.072,0Z" style="fill-rule:nonzero;"/>
                </g>
                <g transform="matrix(43.0549,0,0,43.0549,533.692,672.946)">
                    <path d="M0.072,-0.727L0.072,0L0.198,0L0.198,-0.501L0.205,-0.501L0.406,-0.002L0.5,-0.002L0.701,-0.5L0.708,-0.5L0.708,0L0.835,0L0.835,-0.727L0.673,-0.727L0.457,-0.2L0.449,-0.2L0.233,-0.727L0.072,-0.727Z" style="fill-rule:nonzero;"/>
                </g>
                <g transform="matrix(43.0549,0,0,43.0549,585.628,672.946)">
                    <path d="M0.072,0L0.203,0L0.203,-0.246L0.343,-0.246C0.511,-0.246 0.601,-0.347 0.601,-0.487C0.601,-0.625 0.512,-0.727 0.344,-0.727L0.072,-0.727L0.072,0ZM0.203,-0.354L0.203,-0.617L0.324,-0.617C0.423,-0.617 0.467,-0.564 0.467,-0.487C0.467,-0.409 0.423,-0.354 0.325,-0.354L0.203,-0.354Z" style="fill-rule:nonzero;"/>
                </g>
                <g transform="matrix(43.0549,0,0,43.0549,626.249,672.946)">
                    <path d="M0.722,-0.364C0.722,-0.599 0.578,-0.737 0.387,-0.737C0.196,-0.737 0.053,-0.599 0.053,-0.364C0.053,-0.129 0.196,0.01 0.387,0.01C0.578,0.01 0.722,-0.129 0.722,-0.364ZM0.589,-0.364C0.589,-0.198 0.506,-0.108 0.387,-0.108C0.269,-0.108 0.186,-0.198 0.186,-0.364C0.186,-0.529 0.269,-0.619 0.387,-0.619C0.506,-0.619 0.589,-0.529 0.589,-0.364Z" style="fill-rule:nonzero;"/>
                </g>
                <g transform="matrix(43.0549,0,0,43.0549,672.526,672.946)">
                    <path d="M0.072,0L0.203,0L0.203,-0.266L0.338,-0.266L0.48,0L0.627,0L0.47,-0.288C0.556,-0.323 0.601,-0.396 0.601,-0.495C0.601,-0.634 0.511,-0.727 0.344,-0.727L0.072,-0.727L0.072,0ZM0.203,-0.376L0.203,-0.617L0.324,-0.617C0.423,-0.617 0.467,-0.572 0.467,-0.495C0.467,-0.417 0.423,-0.376 0.325,-0.376L0.203,-0.376Z" style="fill-rule:nonzero;"/>
                </g>
                <g transform="matrix(43.0549,0,0,43.0549,713.453,672.946)">
                    <path d="M0.165,0L0.225,-0.179L0.499,-0.179L0.559,0L0.7,0L0.443,-0.727L0.281,-0.727L0.025,0L0.165,0ZM0.261,-0.285L0.359,-0.578L0.365,-0.578L0.463,-0.285L0.261,-0.285Z" style="fill-rule:nonzero;"/>
                </g>
                <g transform="matrix(43.0549,0,0,43.0549,757.53,672.946)">
                    <rect x="0.072" y="-0.727" width="0.132" height="0.727" style="fill-rule:nonzero;"/>
                </g>
                <g transform="matrix(43.0549,0,0,43.0549,782.28,672.946)">
                    <path d="M0.669,-0.727L0.538,-0.727L0.538,-0.232L0.532,-0.232L0.19,-0.727L0.072,-0.727L0.072,0L0.203,0L0.203,-0.495L0.21,-0.495L0.552,0L0.669,0L0.669,-0.727Z" style="fill-rule:nonzero;"/>
                </g>
                <g transform="matrix(43.0549,0,0,43.0549,851.754,672.946)">
                    <path d="M0.363,-0.761L0.25,-0.761L0.016,0.109L0.129,0.109L0.363,-0.761Z" style="fill-rule:nonzero;"/>
                </g>
                <g transform="matrix(43.0549,0,0,43.0549,905.161,672.946)">
                    <path d="M0.694,-0.482C0.672,-0.643 0.548,-0.737 0.386,-0.737C0.196,-0.737 0.053,-0.599 0.053,-0.364C0.053,-0.129 0.195,0.01 0.386,0.01C0.559,0.01 0.674,-0.102 0.694,-0.241L0.561,-0.241C0.545,-0.156 0.475,-0.108 0.388,-0.108C0.27,-0.108 0.186,-0.197 0.186,-0.364C0.186,-0.528 0.27,-0.619 0.388,-0.619C0.477,-0.619 0.546,-0.569 0.561,-0.482L0.694,-0.482Z" style="fill-rule:nonzero;"/>
                </g>
                <g transform="matrix(43.0549,0,0,43.0549,950.094,672.946)">
                    <path d="M0.722,-0.364C0.722,-0.599 0.578,-0.737 0.387,-0.737C0.196,-0.737 0.053,-0.599 0.053,-0.364C0.053,-0.129 0.196,0.01 0.387,0.01C0.578,0.01 0.722,-0.129 0.722,-0.364ZM0.589,-0.364C0.589,-0.198 0.506,-0.108 0.387,-0.108C0.269,-0.108 0.186,-0.198 0.186,-0.364C0.186,-0.529 0.269,-0.619 0.387,-0.619C0.506,-0.619 0.589,-0.529 0.589,-0.364Z" style="fill-rule:nonzero;"/>
                </g>
                <g transform="matrix(43.0549,0,0,43.0549,996.371,672.946)">
                    <path d="M0.669,-0.727L0.538,-0.727L0.538,-0.232L0.532,-0.232L0.19,-0.727L0.072,-0.727L0.072,0L0.203,0L0.203,-0.495L0.21,-0.495L0.552,0L0.669,0L0.669,-0.727Z" style="fill-rule:nonzero;"/>
                </g>
                <g transform="matrix(43.0549,0,0,43.0549,1041.18,672.946)">
                    <path d="M0.04,-0.617L0.265,-0.617L0.265,0L0.395,0L0.395,-0.617L0.62,-0.617L0.62,-0.727L0.04,-0.727L0.04,-0.617Z" style="fill-rule:nonzero;"/>
                </g>
                <g transform="matrix(43.0549,0,0,43.0549,1082.5,672.946)">
                    <path d="M0.072,0L0.548,0L0.548,-0.11L0.203,-0.11L0.203,-0.309L0.52,-0.309L0.52,-0.419L0.203,-0.419L0.203,-0.617L0.545,-0.617L0.545,-0.727L0.072,-0.727L0.072,0Z" style="fill-rule:nonzero;"/>
                </g>
                <g transform="matrix(43.0549,0,0,43.0549,1121.58,672.946)">
                    <path d="M0.072,-0.727L0.072,0L0.198,0L0.198,-0.501L0.205,-0.501L0.406,-0.002L0.5,-0.002L0.701,-0.5L0.708,-0.5L0.708,0L0.835,0L0.835,-0.727L0.673,-0.727L0.457,-0.2L0.449,-0.2L0.233,-0.727L0.072,-0.727Z" style="fill-rule:nonzero;"/>
                </g>
                <g transform="matrix(43.0549,0,0,43.0549,1173.51,672.946)">
                    <path d="M0.072,0L0.203,0L0.203,-0.246L0.343,-0.246C0.511,-0.246 0.601,-0.347 0.601,-0.487C0.601,-0.625 0.512,-0.727 0.344,-0.727L0.072,-0.727L0.072,0ZM0.203,-0.354L0.203,-0.617L0.324,-0.617C0.423,-0.617 0.467,-0.564 0.467,-0.487C0.467,-0.409 0.423,-0.354 0.325,-0.354L0.203,-0.354Z" style="fill-rule:nonzero;"/>
                </g>
                <g transform="matrix(43.0549,0,0,43.0549,1214.14,672.946)">
                    <path d="M0.722,-0.364C0.722,-0.599 0.578,-0.737 0.387,-0.737C0.196,-0.737 0.053,-0.599 0.053,-0.364C0.053,-0.129 0.196,0.01 0.387,0.01C0.578,0.01 0.722,-0.129 0.722,-0.364ZM0.589,-0.364C0.589,-0.198 0.506,-0.108 0.387,-0.108C0.269,-0.108 0.186,-0.198 0.186,-0.364C0.186,-0.529 0.269,-0.619 0.387,-0.619C0.506,-0.619 0.589,-0.529 0.589,-0.364Z" style="fill-rule:nonzero;"/>
                </g>
                <g transform="matrix(43.0549,0,0,43.0549,1260.42,672.946)">
                    <path d="M0.072,0L0.203,0L0.203,-0.266L0.338,-0.266L0.48,0L0.627,0L0.47,-0.288C0.556,-0.323 0.601,-0.396 0.601,-0.495C0.601,-0.634 0.511,-0.727 0.344,-0.727L0.072,-0.727L0.072,0ZM0.203,-0.376L0.203,-0.617L0.324,-0.617C0.423,-0.617 0.467,-0.572 0.467,-0.495C0.467,-0.417 0.423,-0.376 0.325,-0.376L0.203,-0.376Z" style="fill-rule:nonzero;"/>
                </g>
                <g transform="matrix(43.0549,0,0,43.0549,1301.34,672.946)">
                    <path d="M0.165,0L0.225,-0.179L0.499,-0.179L0.559,0L0.7,0L0.443,-0.727L0.281,-0.727L0.025,0L0.165,0ZM0.261,-0.285L0.359,-0.578L0.365,-0.578L0.463,-0.285L0.261,-0.285Z" style="fill-rule:nonzero;"/>
                </g>
                <g transform="matrix(43.0549,0,0,43.0549,1345.42,672.946)">
                    <path d="M0.072,0L0.203,0L0.203,-0.266L0.338,-0.266L0.48,0L0.627,0L0.47,-0.288C0.556,-0.323 0.601,-0.396 0.601,-0.495C0.601,-0.634 0.511,-0.727 0.344,-0.727L0.072,-0.727L0.072,0ZM0.203,-0.376L0.203,-0.617L0.324,-0.617C0.423,-0.617 0.467,-0.572 0.467,-0.495C0.467,-0.417 0.423,-0.376 0.325,-0.376L0.203,-0.376Z" style="fill-rule:nonzero;"/>
                </g>
                <g transform="matrix(43.0549,0,0,43.0549,1385.14,672.946)">
                    <path d="M0.022,-0.727L0.287,-0.271L0.287,0L0.418,0L0.418,-0.271L0.683,-0.727L0.534,-0.727L0.356,-0.406L0.349,-0.406L0.171,-0.727L0.022,-0.727Z" style="fill-rule:nonzero;"/>
                </g>
                <g transform="matrix(43.0549,0,0,43.0549,1454.3,672.946)">
                    <path d="M0.165,0L0.225,-0.179L0.499,-0.179L0.559,0L0.7,0L0.443,-0.727L0.281,-0.727L0.025,0L0.165,0ZM0.261,-0.285L0.359,-0.578L0.365,-0.578L0.463,-0.285L0.261,-0.285Z" style="fill-rule:nonzero;"/>
                </g>
                <g transform="matrix(43.0549,0,0,43.0549,1498.38,672.946)">
                    <path d="M0.072,0L0.203,0L0.203,-0.266L0.338,-0.266L0.48,0L0.627,0L0.47,-0.288C0.556,-0.323 0.601,-0.396 0.601,-0.495C0.601,-0.634 0.511,-0.727 0.344,-0.727L0.072,-0.727L0.072,0ZM0.203,-0.376L0.203,-0.617L0.324,-0.617C0.423,-0.617 0.467,-0.572 0.467,-0.495C0.467,-0.417 0.423,-0.376 0.325,-0.376L0.203,-0.376Z" style="fill-rule:nonzero;"/>
                </g>
                <g transform="matrix(43.0549,0,0,43.0549,1539.31,672.946)">
                    <path d="M0.04,-0.617L0.265,-0.617L0.265,0L0.395,0L0.395,-0.617L0.62,-0.617L0.62,-0.727L0.04,-0.727L0.04,-0.617Z" style="fill-rule:nonzero;"/>
                </g>
            </g>
        </g>
    </g>
    <g id="Espace-230" serif:id="Espace 230" transform="matrix(1,0,0,1,34,0)">
        <g transform="matrix(1.806,0,0,1.806,166,279.458)">
            <path d="M0,155.096L0,0L62.11,0L62.11,29.972L31.597,29.972L31.597,60.124L60.847,60.124L60.847,89.374L31.597,89.374L31.597,124.944L64.097,124.944L64.097,155.096L0,155.096Z" style="fill:#121414;fill-rule:nonzero;"/>
        </g>
        <g transform="matrix(1.806,0,0,1.806,309.961,295.762)">
            <path d="M0,137.041C-6.26,130.062 -9.389,118.805 -9.389,103.276L-9.389,88.11L21.125,88.11L21.125,107.43C21.125,115.134 23.591,118.985 28.528,118.985C31.295,118.985 33.222,118.173 34.305,116.548C35.389,114.923 35.93,112.187 35.93,108.333C35.93,103.276 35.327,99.096 34.125,95.784C32.92,92.475 31.385,89.707 29.521,87.478C27.653,85.253 24.312,81.791 19.5,77.097L6.139,63.735C-4.215,53.624 -9.389,42.43 -9.389,30.153C-9.389,16.913 -6.351,6.833 -0.271,-0.09C5.806,-7.01 14.684,-10.472 26.361,-10.472C40.323,-10.472 50.375,-6.771 56.513,0.632C62.652,8.035 65.722,19.621 65.722,35.389L34.125,35.389L33.944,24.736C33.944,22.69 33.372,21.065 32.229,19.861C31.083,18.659 29.49,18.056 27.444,18.056C25.035,18.056 23.229,18.718 22.027,20.041C20.823,21.368 20.222,23.173 20.222,25.458C20.222,30.514 23.111,35.75 28.889,41.166L46.944,58.499C51.156,62.593 54.646,66.475 57.416,70.145C60.184,73.818 62.41,78.151 64.097,83.145C65.781,88.142 66.625,94.068 66.625,100.93C66.625,116.218 63.826,127.804 58.229,135.687C52.631,143.571 43.392,147.513 30.514,147.513C16.43,147.513 6.257,144.022 0,137.041" style="fill:#121414;fill-rule:nonzero;"/>
        </g>
        <g transform="matrix(1.806,0,0,1.806,502.936,440.869)">
            <path d="M0,-23.653C3.729,-23.653 6.469,-24.344 8.215,-25.729C9.959,-27.111 11.104,-29.098 11.646,-31.687C12.188,-34.275 12.458,-37.976 12.458,-42.791C12.458,-49.292 11.736,-53.986 10.292,-56.875C8.847,-59.763 5.958,-61.208 1.625,-61.208L-1.806,-61.208L-1.806,-23.653L0,-23.653ZM-32.319,-89.375L8.667,-89.375C21.063,-89.375 29.91,-85.371 35.208,-77.367C40.503,-69.361 43.152,-57.656 43.152,-42.25C43.152,-26.841 40.805,-15.226 36.111,-7.403C31.417,0.423 22.99,4.333 10.833,4.333L-1.806,4.333L-1.806,65.722L-32.319,65.722L-32.319,-89.375Z" style="fill:#121414;fill-rule:nonzero;"/>
        </g>
        <g transform="matrix(1.806,0,0,1.806,643.797,369.456)">
            <path d="M0,55.43L14.083,55.43L7.222,-23.472L5.778,-23.472L0,55.43ZM-34.305,105.263L-19.319,-49.833L33.222,-49.833L48.027,105.263L18.597,105.263L16.431,80.166L-2.347,80.166L-4.153,105.263L-34.305,105.263Z" style="fill:#121414;fill-rule:nonzero;"/>
        </g>
        <g transform="matrix(1.806,0,0,1.806,758.442,296.086)">
            <path d="M0,136.681C-6.802,129.579 -10.201,119.83 -10.201,107.431L-10.201,35.931C-10.201,20.525 -7.132,8.91 -0.993,1.085C5.146,-6.738 14.774,-10.652 27.896,-10.652C39.33,-10.652 48.538,-7.52 55.52,-1.262C62.5,4.997 65.992,14.025 65.992,25.821L65.992,52.542L35.118,52.542L35.118,29.612C35.118,25.16 34.576,22.091 33.493,20.404C32.409,18.72 30.542,17.876 27.896,17.876C25.125,17.876 23.229,18.841 22.208,20.765C21.184,22.692 20.673,25.521 20.673,29.251L20.673,107.07C20.673,111.163 21.274,114.143 22.479,116.007C23.681,117.874 25.486,118.806 27.896,118.806C32.708,118.806 35.118,114.896 35.118,107.07L35.118,79.084L66.354,79.084L66.354,108.333C66.354,134.333 53.292,147.333 27.173,147.333C15.857,147.333 6.799,143.785 0,136.681" style="fill:#121414;fill-rule:nonzero;"/>
        </g>
        <g transform="matrix(1.806,0,0,1.806,892.395,279.458)">
            <path d="M0,155.096L0,0L62.111,0L62.111,29.972L31.598,29.972L31.598,60.124L60.847,60.124L60.847,89.374L31.598,89.374L31.598,124.944L64.097,124.944L64.097,155.096L0,155.096Z" style="fill:#121414;fill-rule:nonzero;"/>
        </g>
        <g transform="matrix(1.806,0,0,1.806,1101.41,291.524)">
            <path d="M0,141.012C0,133.911 1.111,127.353 3.34,121.332C5.566,115.315 8.306,109.898 11.555,105.082C14.805,100.269 19.076,94.611 24.375,88.111C29.791,81.37 34.094,75.652 37.284,70.958C40.472,66.263 43.181,60.877 45.409,54.798C47.635,48.721 48.749,42.131 48.749,35.027C48.749,30.815 48.146,27.534 46.944,25.187C45.739,22.84 43.572,21.666 40.443,21.666C35.268,21.666 32.681,26.302 32.681,35.569L32.681,54.527L0,54.527L-0.361,44.958C-0.361,33.163 0.841,23.472 3.25,15.888C5.656,8.305 9.868,2.528 15.889,-1.445C21.906,-5.417 30.212,-7.403 40.805,-7.403C53.805,-7.403 63.854,-3.76 70.958,3.521C78.059,10.805 81.61,21.125 81.61,34.486C81.61,43.034 80.437,50.766 78.09,57.687C75.742,64.61 72.854,70.658 69.423,75.832C65.992,81.009 61.447,87.089 55.791,94.069C51.697,99.005 48.298,103.398 45.59,107.249C42.882,111.103 40.443,115.075 38.277,119.165L80.526,119.165L80.526,148.415L0,148.415L0,141.012Z" style="fill:#121414;fill-rule:nonzero;"/>
        </g>
        <g transform="matrix(1.806,0,0,1.806,1275.5,298.208)">
            <path d="M0,135.777C-6.261,128.617 -9.389,117.693 -9.389,103.006L-9.389,86.756L22.389,86.756L22.389,103.006C22.389,107.701 22.989,111.343 24.194,113.93C25.396,116.52 27.805,117.812 31.416,117.812C33.944,117.812 35.778,116.909 36.924,115.103C38.065,113.298 38.757,111.163 38.999,108.694C39.239,106.228 39.36,102.645 39.36,97.951L39.36,94.16C39.36,80.798 34.966,74.118 26.181,74.118C24.614,74.118 23.591,74.18 23.111,74.298L23.111,46.493C28.646,46.493 32.799,45.26 35.569,42.792C38.337,40.326 39.722,36.382 39.722,30.965C39.722,22.18 37.194,17.785 32.139,17.785C29.007,17.785 26.993,18.569 26.09,20.132C25.187,21.698 24.584,23.684 24.284,26.09C23.982,28.5 23.771,30.243 23.652,31.326L23.652,36.021L-8.486,36.021L-8.667,30.604C-8.548,16.402 -5.177,5.959 1.444,-0.722C8.063,-7.402 18.236,-10.743 31.958,-10.743C58.319,-10.743 71.499,3.042 71.499,30.604C71.499,38.67 70.416,45.08 68.249,49.833C66.083,54.589 62.351,57.93 57.055,59.854C61.389,62.021 64.607,64.701 66.715,67.889C68.819,71.08 70.204,74.962 70.867,79.535C71.527,84.11 71.86,90.25 71.86,97.951C71.86,113.961 68.521,126.058 61.84,134.242C55.159,142.429 44.476,146.52 29.791,146.52C16.187,146.52 6.258,142.94 -0,135.777" style="fill:#121414;fill-rule:nonzero;"/>
        </g>
        <g transform="matrix(1.806,0,0,1.806,1501.76,334.077)">
            <path d="M0,94.61C1.445,92.506 2.167,90.006 2.167,87.118L2.167,10.563C2.167,6.11 1.654,2.708 0.632,0.361C-0.392,-1.986 -2.468,-3.16 -5.597,-3.16C-8.729,-3.16 -10.773,-1.986 -11.735,0.361C-12.7,2.708 -13.18,6.11 -13.18,10.563L-13.18,87.118C-13.18,90.006 -12.488,92.506 -11.104,94.61C-9.721,96.717 -7.885,97.77 -5.597,97.77C-3.312,97.77 -1.444,96.717 0,94.61M-35.93,115.193C-43.033,107.791 -46.583,97.228 -46.583,83.506L-46.583,13.451C-46.583,-1.233 -43.152,-12.427 -36.291,-20.132C-29.43,-27.833 -19.2,-31.687 -5.597,-31.687C8.125,-31.687 18.417,-27.833 25.277,-20.132C32.14,-12.427 35.569,-1.233 35.569,13.451L35.569,83.506C35.569,97.349 32.018,107.943 24.917,115.284C17.813,122.628 7.643,126.297 -5.597,126.297C-18.718,126.297 -28.829,122.596 -35.93,115.193" style="fill:#121414;fill-rule:nonzero;"/>
        </g>
    </g>
    <g id="Line" transform="matrix(-1.80555,0,0,1.806,1879.86,382.548)">
        <rect x="155.002" y="123.303" width="775.385" height="5.538" style="fill:#121414;"/>
    </g>
    <g transform="matrix(1,0,0,1,34,0)">
        <g id="Louis-Bernard-St-Jean" serif:id="Louis-Bernard St-Jean">
            <g id="Louis-Bernard-St-Jean1" serif:id="Louis-Bernard St-Jean">
                <g transform="matrix(1.80351,0,0,1.80351,177.386,172.364)">
                    <path d="M0,28.393C1.928,28.393 3.706,28.315 5.333,28.16C6.961,28.004 8.386,27.833 9.61,27.647C11.041,27.419 12.336,27.16 13.497,26.87L12.782,31.006C12.491,30.985 11.999,30.959 11.305,30.928C10.61,30.897 9.879,30.876 9.112,30.866C8.345,30.855 7.63,30.845 6.966,30.835C6.302,30.824 5.847,30.819 5.598,30.819L-6.313,30.819L-6.313,30.695C-6.168,30.259 -6.039,29.7 -5.925,29.015C-5.811,28.331 -5.717,27.486 -5.645,26.481C-5.572,25.475 -5.516,24.278 -5.474,22.889C-5.432,21.5 -5.411,19.872 -5.411,18.006L-5.411,10.169C-5.411,8.303 -5.432,6.681 -5.474,5.302C-5.516,3.923 -5.572,2.731 -5.645,1.726C-5.717,0.72 -5.811,-0.125 -5.925,-0.81C-6.039,-1.494 -6.168,-2.053 -6.313,-2.489L-6.313,-2.613L0.871,-2.613L0.871,-2.489C0.726,-2.053 0.601,-1.494 0.498,-0.81C0.394,-0.125 0.306,0.72 0.233,1.726C0.16,2.731 0.104,3.923 0.062,5.302C0.021,6.681 0,8.303 0,10.169L0,28.393Z" style="fill:#711;fill-rule:nonzero;stroke:#711;stroke-width:0.55px;"/>
                </g>
                <g transform="matrix(1.80351,0,0,1.80351,253.693,170.567)">
                    <path d="M0,30.167C1.576,30.167 3.027,29.856 4.354,29.234C5.681,28.612 6.827,27.721 7.791,26.559C8.754,25.398 9.501,23.983 10.03,22.314C10.559,20.646 10.823,18.764 10.823,16.669C10.823,14.286 10.569,12.078 10.061,10.045C9.553,8.014 8.786,6.256 7.759,4.774C6.733,3.292 5.453,2.13 3.919,1.291C2.384,0.451 0.591,0.031 -1.461,0.031C-3.037,0.031 -4.489,0.332 -5.815,0.933C-7.143,1.535 -8.288,2.406 -9.252,3.545C-10.216,4.686 -10.968,6.085 -11.507,7.744C-12.046,9.403 -12.315,11.29 -12.315,13.404C-12.315,15.768 -12.051,17.971 -11.522,20.013C-10.994,22.055 -10.216,23.828 -9.189,25.331C-8.164,26.834 -6.884,28.016 -5.349,28.876C-3.815,29.737 -2.032,30.167 0,30.167M-18.535,14.99C-18.535,12.544 -18.074,10.274 -17.151,8.179C-16.229,6.085 -14.97,4.266 -13.373,2.722C-11.776,1.177 -9.89,-0.031 -7.712,-0.902C-5.536,-1.772 -3.203,-2.208 -0.715,-2.208C1.731,-2.208 4.038,-1.798 6.205,-0.979C8.371,-0.16 10.258,1.006 11.865,2.519C13.471,4.033 14.742,5.868 15.674,8.024C16.607,10.181 17.074,12.596 17.074,15.27C17.074,17.489 16.68,19.629 15.892,21.692C15.104,23.755 13.953,25.58 12.44,27.166C10.926,28.751 9.061,30.017 6.842,30.96C4.623,31.903 2.084,32.375 -0.777,32.375C-3.203,32.375 -5.494,31.971 -7.65,31.162C-9.807,30.354 -11.693,29.198 -13.311,27.694C-14.928,26.191 -16.203,24.367 -17.136,22.221C-18.069,20.075 -18.535,17.665 -18.535,14.99" style="fill:#711;fill-rule:nonzero;stroke:#711;stroke-width:0.55px;stroke-linejoin:round;stroke-miterlimit:2;"/>
                </g>
                <g transform="matrix(1.80351,0,0,1.80351,356.551,206.52)">
                    <path d="M0,-8.894C0,-10.739 -0.011,-12.346 -0.031,-13.714C-0.052,-15.083 -0.093,-16.265 -0.155,-17.26C-0.218,-18.255 -0.291,-19.089 -0.373,-19.763C-0.456,-20.437 -0.56,-20.992 -0.684,-21.427L-0.684,-21.552L3.888,-21.552L3.888,-21.427C3.763,-20.992 3.659,-20.432 3.577,-19.748C3.494,-19.063 3.421,-18.219 3.359,-17.213C3.296,-16.207 3.255,-15.015 3.234,-13.637C3.213,-12.258 3.203,-10.636 3.203,-8.769L3.203,0.156C3.203,2.395 2.856,4.303 2.161,5.878C1.467,7.454 0.508,8.745 -0.715,9.75C-1.939,10.756 -3.395,11.492 -5.084,11.959C-6.775,12.425 -8.625,12.658 -10.636,12.658C-12.668,12.658 -14.555,12.435 -16.296,11.989C-18.038,11.544 -19.546,10.834 -20.821,9.859C-22.097,8.885 -23.102,7.62 -23.838,6.065C-24.574,4.51 -24.942,2.624 -24.942,0.405L-24.942,-8.769C-24.942,-10.636 -24.963,-12.258 -25.004,-13.637C-25.046,-15.015 -25.108,-16.207 -25.191,-17.213C-25.274,-18.219 -25.367,-19.063 -25.471,-19.748C-25.575,-20.432 -25.699,-20.992 -25.844,-21.427L-25.844,-21.552L-18.66,-21.552L-18.66,-21.427C-18.805,-20.992 -18.929,-20.437 -19.033,-19.763C-19.137,-19.089 -19.225,-18.255 -19.297,-17.26C-19.37,-16.265 -19.427,-15.083 -19.468,-13.714C-19.51,-12.346 -19.531,-10.739 -19.531,-8.894L-19.531,0.405C-19.531,2.251 -19.25,3.769 -18.691,4.961C-18.131,6.153 -17.396,7.102 -16.483,7.807C-15.571,8.512 -14.534,9.004 -13.373,9.284C-12.212,9.564 -11.02,9.704 -9.796,9.704C-8.552,9.704 -7.345,9.564 -6.173,9.284C-5.002,9.004 -3.955,8.512 -3.032,7.807C-2.11,7.102 -1.374,6.153 -0.824,4.961C-0.275,3.769 0,2.251 0,0.405L0,-8.894Z" style="fill:#711;fill-rule:nonzero;stroke:#711;stroke-width:0.55px;"/>
                </g>
                <g transform="matrix(1.80351,0,0,1.80351,394.201,204.894)">
                    <path d="M0,-7.868C0,-9.734 -0.021,-11.356 -0.062,-12.735C-0.104,-14.114 -0.161,-15.306 -0.233,-16.311C-0.306,-17.317 -0.399,-18.162 -0.514,-18.847C-0.627,-19.531 -0.757,-20.09 -0.902,-20.526L-0.902,-20.65L6.313,-20.65L6.313,-20.526C6.168,-20.09 6.038,-19.531 5.924,-18.847C5.81,-18.162 5.717,-17.317 5.644,-16.311C5.571,-15.306 5.515,-14.114 5.473,-12.735C5.432,-11.356 5.411,-9.734 5.411,-7.868L5.411,-0.031C5.411,1.835 5.432,3.463 5.473,4.852C5.515,6.241 5.571,7.438 5.644,8.444C5.717,9.449 5.81,10.294 5.924,10.978C6.038,11.663 6.168,12.222 6.313,12.658L6.313,12.782L-0.902,12.782L-0.902,12.658C-0.757,12.222 -0.627,11.663 -0.514,10.978C-0.399,10.294 -0.306,9.449 -0.233,8.444C-0.161,7.438 -0.104,6.241 -0.062,4.852C-0.021,3.463 -0,1.835 -0,-0.031L0,-7.868Z" style="fill:#711;fill-rule:nonzero;stroke:#711;stroke-width:0.55px;"/>
                </g>
                <g transform="matrix(1.80351,0,0,1.80351,462.887,217.177)">
                    <path d="M0,-20.961L-0.622,-20.961C-0.746,-21.314 -0.949,-21.759 -1.228,-22.298C-1.508,-22.837 -1.881,-23.366 -2.348,-23.884C-2.814,-24.402 -3.39,-24.843 -4.074,-25.206C-4.758,-25.569 -5.578,-25.751 -6.531,-25.751C-7.257,-25.751 -7.905,-25.631 -8.475,-25.393C-9.045,-25.154 -9.527,-24.828 -9.921,-24.413C-10.315,-23.998 -10.616,-23.506 -10.823,-22.936C-11.03,-22.365 -11.134,-21.749 -11.134,-21.086C-11.134,-20.007 -10.807,-18.981 -10.154,-18.006C-9.5,-17.032 -8.688,-16.063 -7.712,-15.099C-6.738,-14.135 -5.681,-13.165 -4.541,-12.191C-3.4,-11.216 -2.343,-10.201 -1.368,-9.143C-0.394,-8.086 0.42,-6.966 1.073,-5.784C1.726,-4.603 2.053,-3.338 2.053,-1.99C2.053,-0.995 1.871,0.031 1.509,1.089C1.146,2.146 0.56,3.1 -0.249,3.95C-1.057,4.8 -2.094,5.5 -3.358,6.049C-4.624,6.598 -6.158,6.873 -7.961,6.873C-8.957,6.873 -9.905,6.79 -10.807,6.624C-11.709,6.458 -12.539,6.256 -13.295,6.018C-14.052,5.78 -14.726,5.52 -15.316,5.241C-15.907,4.96 -16.4,4.696 -16.794,4.448L-16.234,-1.43L-15.581,-1.43C-15.374,-0.704 -15.068,0.021 -14.663,0.747C-14.259,1.473 -13.762,2.131 -13.17,2.721C-12.58,3.312 -11.885,3.789 -11.087,4.152C-10.289,4.515 -9.372,4.696 -8.334,4.696C-7.609,4.696 -6.925,4.577 -6.282,4.338C-5.64,4.101 -5.084,3.763 -4.618,3.328C-4.151,2.893 -3.784,2.359 -3.514,1.726C-3.245,1.094 -3.11,0.384 -3.11,-0.404C-3.11,-1.337 -3.296,-2.203 -3.669,-3.001C-4.043,-3.799 -4.541,-4.566 -5.163,-5.302C-5.784,-6.038 -6.484,-6.749 -7.262,-7.433C-8.039,-8.117 -8.843,-8.811 -9.672,-9.516C-10.501,-10.221 -11.305,-10.941 -12.082,-11.678C-12.859,-12.414 -13.56,-13.207 -14.181,-14.057C-14.803,-14.907 -15.301,-15.814 -15.674,-16.778C-16.047,-17.742 -16.234,-18.804 -16.234,-19.966C-16.234,-21.189 -15.975,-22.288 -15.457,-23.262C-14.938,-24.237 -14.254,-25.061 -13.404,-25.735C-12.554,-26.408 -11.58,-26.927 -10.48,-27.29C-9.382,-27.652 -8.241,-27.834 -7.06,-27.834C-6.188,-27.834 -5.375,-27.772 -4.618,-27.648C-3.862,-27.523 -3.177,-27.373 -2.566,-27.197C-1.954,-27.02 -1.42,-26.844 -0.964,-26.668C-0.508,-26.491 -0.135,-26.352 0.156,-26.248L0,-20.961Z" style="fill:#711;fill-rule:nonzero;stroke:#711;stroke-width:0.55px;"/>
                </g>
                <g transform="matrix(1.00097,0,0,1.00097,-694.883,-0.569848)">
                    <rect x="1183.36" y="194.676" width="37.879" height="8.012" style="fill:#711;stroke:#711;stroke-width:1px;"/>
                </g>
                <g transform="matrix(1.80351,0,0,1.80351,574.207,197.379)">
                    <path d="M0,0.59C-0.995,0.59 -1.84,0.627 -2.535,0.699C-3.229,0.772 -3.763,0.839 -4.136,0.901L-4.136,4.135C-4.136,5.919 -4.131,7.412 -4.121,8.614C-4.11,9.817 -4.09,10.822 -4.058,11.631C-4.027,12.439 -4.001,13.088 -3.98,13.574C-3.96,14.062 -3.929,14.482 -3.887,14.834C-3.348,14.979 -2.773,15.072 -2.162,15.114C-1.55,15.155 -1.068,15.176 -0.715,15.176C2.146,15.176 4.224,14.549 5.521,13.295C6.816,12.04 7.464,10.096 7.464,7.463C7.464,6.468 7.309,5.546 6.998,4.695C6.687,3.845 6.22,3.12 5.598,2.518C4.976,1.917 4.199,1.445 3.266,1.104C2.333,0.761 1.244,0.59 -0,0.59M-4.136,-1.525C-3.722,-1.462 -3.348,-1.426 -3.017,-1.416C-2.685,-1.405 -2.343,-1.4 -1.99,-1.4C0.104,-1.4 1.768,-1.98 3.001,-3.142C4.234,-4.303 4.852,-6.034 4.852,-8.335C4.852,-9.268 4.727,-10.128 4.479,-10.917C4.229,-11.704 3.872,-12.378 3.406,-12.938C2.939,-13.498 2.358,-13.933 1.664,-14.244C0.969,-14.556 0.176,-14.711 -0.715,-14.711C-1.317,-14.711 -1.825,-14.685 -2.239,-14.633C-2.654,-14.581 -3.006,-14.535 -3.296,-14.493C-3.628,-14.41 -3.908,-14.338 -4.136,-14.276L-4.136,-1.525ZM-10.449,-16.546C-10.056,-16.525 -9.652,-16.514 -9.236,-16.514C-8.884,-16.494 -8.501,-16.484 -8.086,-16.484L-6.873,-16.484C-6.23,-16.484 -5.339,-16.525 -4.198,-16.608C-3.059,-16.69 -1.638,-16.732 0.062,-16.732C1.575,-16.732 2.98,-16.551 4.276,-16.188C5.572,-15.825 6.691,-15.302 7.635,-14.618C8.578,-13.933 9.314,-13.094 9.843,-12.098C10.372,-11.103 10.636,-9.973 10.636,-8.709C10.636,-7.631 10.486,-6.672 10.186,-5.832C9.884,-4.992 9.455,-4.256 8.895,-3.624C8.335,-2.991 7.661,-2.463 6.873,-2.038C6.085,-1.613 5.214,-1.276 4.261,-1.027C5.649,-0.82 6.915,-0.477 8.055,-0.001C9.195,0.477 10.17,1.072 10.979,1.788C11.787,2.503 12.409,3.342 12.844,4.306C13.28,5.271 13.498,6.343 13.498,7.526C13.498,10.802 12.326,13.253 9.983,14.881C7.64,16.508 4.146,17.322 -0.498,17.322C-0.995,17.322 -1.612,17.301 -2.348,17.259C-3.084,17.218 -3.852,17.176 -4.649,17.135C-5.448,17.093 -6.215,17.052 -6.951,17.011C-7.687,16.969 -8.304,16.948 -8.801,16.948L-10.449,16.948L-10.449,16.824C-10.305,16.389 -10.175,15.829 -10.061,15.145C-9.947,14.461 -9.854,13.616 -9.781,12.611C-9.708,11.605 -9.652,10.407 -9.61,9.018C-9.568,7.63 -9.547,6.002 -9.547,4.135L-9.547,-3.702C-9.547,-5.568 -9.568,-7.195 -9.61,-8.584C-9.652,-9.973 -9.708,-11.176 -9.781,-12.192C-9.854,-13.207 -9.947,-14.058 -10.061,-14.742C-10.175,-15.426 -10.305,-15.986 -10.449,-16.421L-10.449,-16.546Z" style="fill:#711;fill-rule:nonzero;stroke:#711;stroke-width:0.55px;stroke-linejoin:round;stroke-miterlimit:2;"/>
                </g>
                <g transform="matrix(1.80351,0,0,1.80351,635.806,227.637)">
                    <path d="M0,-33.276C2.135,-33.286 4.116,-33.308 5.94,-33.338C7.764,-33.37 9.335,-33.405 10.652,-33.447C11.968,-33.489 12.833,-33.551 13.249,-33.634L12.036,-30.275C11.476,-30.42 10.843,-30.555 10.139,-30.679C9.517,-30.783 8.765,-30.882 7.884,-30.975C7.002,-31.068 5.981,-31.115 4.821,-31.115C4.406,-31.115 3.929,-31.099 3.39,-31.068C2.851,-31.037 2.333,-31.001 1.835,-30.96C1.254,-30.918 0.664,-30.877 0.062,-30.835L0.062,-18.55C1.742,-18.571 3.255,-18.613 4.603,-18.675C5.951,-18.737 7.101,-18.819 8.055,-18.924C9.175,-19.006 10.159,-19.121 11.01,-19.266L10.263,-15.565C9.123,-15.71 7.972,-15.834 6.811,-15.938C5.816,-16.042 4.717,-16.13 3.515,-16.203C2.312,-16.275 1.161,-16.311 0.062,-16.311L0.062,-2.192C1.991,-2.192 3.763,-2.27 5.38,-2.425C6.998,-2.581 8.407,-2.752 9.61,-2.939C11.02,-3.167 12.295,-3.425 13.436,-3.716L12.72,0.358C12.409,0.337 11.906,0.311 11.212,0.28C10.517,0.249 9.791,0.228 9.035,0.218C8.278,0.207 7.568,0.197 6.904,0.187C6.24,0.176 5.785,0.171 5.536,0.171L-6.251,0.171L-6.251,0.047C-6.106,-0.388 -5.977,-0.948 -5.862,-1.632C-5.749,-2.317 -5.655,-3.161 -5.582,-4.167C-5.51,-5.172 -5.453,-6.37 -5.411,-7.759C-5.37,-9.148 -5.349,-10.776 -5.349,-12.642L-5.349,-20.479C-5.349,-22.345 -5.37,-23.967 -5.411,-25.346C-5.453,-26.724 -5.51,-27.917 -5.582,-28.922C-5.655,-29.928 -5.749,-30.773 -5.862,-31.457C-5.977,-32.141 -6.106,-32.701 -6.251,-33.136L-6.251,-33.261C-4.219,-33.261 -2.135,-33.266 0,-33.276" style="fill:#711;fill-rule:nonzero;stroke:#711;stroke-width:0.55px;stroke-linejoin:round;stroke-miterlimit:2;"/>
                </g>
                <g transform="matrix(1.80351,0,0,1.80351,696.774,196.48)">
                    <path d="M0,1.213C0.415,1.275 0.834,1.322 1.26,1.353C1.684,1.384 2.094,1.4 2.488,1.4C5.08,1.4 7.044,0.705 8.381,-0.684C9.719,-2.073 10.387,-4.157 10.387,-6.935C10.387,-9.216 9.853,-11.019 8.786,-12.347C7.717,-13.673 6.147,-14.337 4.074,-14.337C3.41,-14.337 2.825,-14.31 2.317,-14.259C1.809,-14.207 1.378,-14.15 1.026,-14.088C0.632,-14.005 0.29,-13.922 0,-13.839L0,1.213ZM4.758,3.234C4.343,3.296 3.934,3.333 3.53,3.343C3.125,3.354 2.716,3.359 2.301,3.359C1.969,3.359 1.606,3.349 1.213,3.328C0.819,3.308 0.415,3.276 0,3.234L0,4.758C0,6.604 0.02,8.216 0.062,9.594C0.104,10.973 0.16,12.16 0.233,13.155C0.306,14.151 0.394,14.985 0.498,15.659C0.601,16.333 0.726,16.887 0.871,17.323L0.871,17.447L-6.313,17.447L-6.313,17.323C-6.168,16.887 -6.039,16.328 -5.925,15.643C-5.811,14.959 -5.718,14.114 -5.645,13.109C-5.572,12.103 -5.516,10.906 -5.474,9.517C-5.432,8.128 -5.412,6.5 -5.412,4.634L-5.412,-3.203C-5.412,-5.069 -5.432,-6.691 -5.474,-8.07C-5.516,-9.449 -5.572,-10.641 -5.645,-11.646C-5.718,-12.652 -5.811,-13.497 -5.925,-14.182C-6.039,-14.866 -6.168,-15.425 -6.313,-15.861L-6.313,-15.985C-5.982,-15.964 -5.629,-15.943 -5.256,-15.923C-4.945,-15.902 -4.598,-15.887 -4.214,-15.876C-3.831,-15.866 -3.442,-15.861 -3.048,-15.861C-2.384,-15.861 -1.399,-15.923 -0.093,-16.047C1.213,-16.172 2.747,-16.234 4.509,-16.234C6.292,-16.234 7.915,-16.016 9.376,-15.581C10.838,-15.145 12.092,-14.523 13.14,-13.715C14.186,-12.906 14.995,-11.921 15.565,-10.76C16.135,-9.599 16.42,-8.304 16.42,-6.873C16.42,-5.753 16.265,-4.732 15.954,-3.809C15.643,-2.887 15.208,-2.058 14.648,-1.322C14.088,-0.585 13.424,0.062 12.658,0.622C11.89,1.182 11.041,1.669 10.107,2.084L16.607,11.258C17.167,12.005 17.731,12.72 18.302,13.404C18.872,14.088 19.417,14.7 19.935,15.239C20.453,15.778 20.94,16.229 21.396,16.592C21.852,16.955 22.236,17.198 22.547,17.323L22.547,17.447L14.399,17.447C14.399,17.26 14.269,16.934 14.01,16.467C13.751,16.001 13.451,15.514 13.108,15.005C12.767,14.498 12.424,14.006 12.083,13.528C11.74,13.052 11.486,12.7 11.32,12.471L4.758,3.234Z" style="fill:#711;fill-rule:nonzero;stroke:#711;stroke-width:0.55px;"/>
                </g>
                <g transform="matrix(1.80351,0,0,1.80351,813.681,167.65)">
                    <path d="M0,33.868L-1.213,33.868L-25.937,9.548L-25.937,20.619C-25.937,22.486 -25.927,24.114 -25.906,25.502C-25.886,26.891 -25.85,28.089 -25.797,29.095C-25.746,30.1 -25.673,30.945 -25.58,31.629C-25.486,32.313 -25.367,32.873 -25.222,33.308L-25.222,33.432L-29.887,33.432L-29.887,33.308C-29.742,32.873 -29.618,32.313 -29.514,31.629C-29.41,30.945 -29.327,30.1 -29.265,29.095C-29.203,28.089 -29.162,26.891 -29.141,25.502C-29.121,24.114 -29.109,22.486 -29.109,20.619L-29.109,12.783C-29.109,10.916 -29.121,9.294 -29.141,7.915C-29.162,6.537 -29.203,5.345 -29.265,4.339C-29.327,3.333 -29.41,2.489 -29.514,1.804C-29.618,1.12 -29.742,0.56 -29.887,0.125L-29.887,0L-27.959,0L-3.204,24.445L-3.204,12.783C-3.204,10.916 -3.214,9.294 -3.234,7.915C-3.255,6.537 -3.292,5.345 -3.343,4.339C-3.396,3.333 -3.463,2.489 -3.545,1.804C-3.628,1.12 -3.743,0.56 -3.888,0.125L-3.888,0L0.746,0L0.746,0.125C0.601,0.56 0.482,1.12 0.389,1.804C0.295,2.489 0.217,3.333 0.155,4.339C0.093,5.345 0.051,6.537 0.031,7.915C0.01,9.294 0,10.916 0,12.783L0,33.868Z" style="fill:#711;fill-rule:nonzero;stroke:#711;stroke-width:0.55px;"/>
                </g>
                <g transform="matrix(1.80351,0,0,1.80351,856.21,189.583)">
                    <path d="M0,8.334L1.897,8.334C2.769,8.334 3.695,8.329 4.681,8.318C5.665,8.309 6.655,8.303 7.65,8.303C8.646,8.303 9.61,8.298 10.543,8.288C11.476,8.277 12.316,8.272 13.062,8.272L6.625,-5.474L0,8.334ZM14.182,10.76L6.251,10.76C5.193,10.76 4.187,10.766 3.234,10.776C2.28,10.786 1.41,10.796 0.622,10.807C-0.167,10.817 -0.777,10.822 -1.212,10.822L-2.363,13.248C-2.861,14.243 -3.286,15.109 -3.639,15.845C-3.991,16.581 -4.281,17.229 -4.509,17.789C-4.737,18.348 -4.903,18.83 -5.007,19.235C-5.111,19.639 -5.163,20.018 -5.163,20.37C-5.163,20.598 -5.152,20.769 -5.131,20.883C-5.111,20.997 -5.079,21.085 -5.038,21.147L-5.038,21.272L-10.512,21.272L-10.512,21.147C-10.366,21.002 -10.138,20.686 -9.827,20.199C-9.516,19.712 -9.159,19.116 -8.754,18.411C-8.35,17.706 -7.915,16.907 -7.448,16.016C-6.982,15.125 -6.52,14.202 -6.063,13.248L6.625,-12.938L8.957,-12.938L21.397,13.248C21.873,14.243 22.355,15.197 22.843,16.109C23.33,17.022 23.781,17.835 24.195,18.551C24.609,19.266 24.973,19.857 25.285,20.323C25.595,20.79 25.802,21.065 25.907,21.147L25.907,21.272L17.945,21.272C17.986,21.106 18.007,20.956 18.007,20.821L18.007,20.37C18.007,19.914 17.908,19.364 17.711,18.722C17.513,18.079 17.275,17.421 16.997,16.747C16.716,16.073 16.425,15.425 16.125,14.803C15.825,14.181 15.582,13.663 15.395,13.248L14.182,10.76Z" style="fill:#711;fill-rule:nonzero;stroke:#711;stroke-width:0.55px;"/>
                </g>
                <g transform="matrix(1.80351,0,0,1.80351,937.289,196.48)">
                    <path d="M0,1.213C0.414,1.275 0.834,1.322 1.26,1.353C1.684,1.384 2.094,1.4 2.488,1.4C5.079,1.4 7.044,0.705 8.381,-0.684C9.719,-2.073 10.387,-4.157 10.387,-6.935C10.387,-9.216 9.854,-11.019 8.786,-12.347C7.717,-13.673 6.147,-14.337 4.074,-14.337C3.41,-14.337 2.825,-14.31 2.317,-14.259C1.809,-14.207 1.378,-14.15 1.026,-14.088C0.632,-14.005 0.29,-13.922 0,-13.839L0,1.213ZM4.758,3.234C4.343,3.296 3.934,3.333 3.529,3.343C3.125,3.354 2.715,3.359 2.301,3.359C1.969,3.359 1.606,3.349 1.213,3.328C0.819,3.308 0.414,3.276 0,3.234L0,4.758C0,6.604 0.021,8.216 0.062,9.594C0.103,10.973 0.16,12.16 0.233,13.155C0.306,14.151 0.394,14.985 0.498,15.659C0.601,16.333 0.725,16.887 0.871,17.323L0.871,17.447L-6.313,17.447L-6.313,17.323C-6.169,16.887 -6.039,16.328 -5.925,15.643C-5.811,14.959 -5.718,14.114 -5.645,13.109C-5.572,12.103 -5.515,10.906 -5.474,9.517C-5.433,8.128 -5.412,6.5 -5.412,4.634L-5.412,-3.203C-5.412,-5.069 -5.433,-6.691 -5.474,-8.07C-5.515,-9.449 -5.572,-10.641 -5.645,-11.646C-5.718,-12.652 -5.811,-13.497 -5.925,-14.182C-6.039,-14.866 -6.169,-15.425 -6.313,-15.861L-6.313,-15.985C-5.982,-15.964 -5.629,-15.943 -5.256,-15.923C-4.945,-15.902 -4.598,-15.887 -4.214,-15.876C-3.831,-15.866 -3.442,-15.861 -3.048,-15.861C-2.385,-15.861 -1.399,-15.923 -0.094,-16.047C1.213,-16.172 2.747,-16.234 4.509,-16.234C6.292,-16.234 7.915,-16.016 9.376,-15.581C10.838,-15.145 12.092,-14.523 13.14,-13.715C14.186,-12.906 14.995,-11.921 15.565,-10.76C16.135,-9.599 16.42,-8.304 16.42,-6.873C16.42,-5.753 16.265,-4.732 15.954,-3.809C15.643,-2.887 15.208,-2.058 14.648,-1.322C14.088,-0.585 13.424,0.062 12.658,0.622C11.89,1.182 11.041,1.669 10.107,2.084L16.607,11.258C17.167,12.005 17.731,12.72 18.302,13.404C18.872,14.088 19.417,14.7 19.935,15.239C20.453,15.778 20.94,16.229 21.396,16.592C21.853,16.955 22.236,17.198 22.547,17.323L22.547,17.447L14.399,17.447C14.399,17.26 14.27,16.934 14.01,16.467C13.751,16.001 13.451,15.514 13.108,15.005C12.767,14.498 12.424,14.006 12.082,13.528C11.74,13.052 11.486,12.7 11.32,12.471L4.758,3.234Z" style="fill:#711;fill-rule:nonzero;stroke:#711;stroke-width:0.55px;"/>
                </g>
                <g transform="matrix(1.80351,0,0,1.80351,1011.91,224.189)">
                    <path d="M0,-29.141C-0.021,-27.441 -0.041,-25.792 -0.062,-24.196C-0.062,-23.512 -0.067,-22.812 -0.077,-22.097C-0.089,-21.382 -0.098,-20.671 -0.108,-19.966C-0.119,-19.262 -0.124,-18.593 -0.124,-17.961L-0.124,-16.266C-0.124,-15.228 -0.119,-13.98 -0.108,-12.518C-0.098,-11.057 -0.083,-9.558 -0.062,-8.024C-0.041,-6.489 -0.011,-5.012 0.031,-3.593C0.073,-2.172 0.125,-0.985 0.187,-0.032C0.395,0.01 0.663,0.046 0.995,0.077C1.327,0.109 1.674,0.139 2.037,0.171C2.399,0.202 2.758,0.223 3.11,0.233C3.462,0.244 3.763,0.249 4.012,0.249C5.152,0.249 6.309,0.176 7.479,0.031C8.651,-0.114 9.781,-0.389 10.869,-0.793C11.958,-1.198 12.979,-1.752 13.933,-2.457C14.887,-3.162 15.721,-4.069 16.437,-5.178C17.151,-6.287 17.712,-7.625 18.116,-9.19C18.521,-10.755 18.723,-12.606 18.723,-14.742C18.723,-19.448 17.598,-23.077 15.348,-25.626C13.098,-28.177 9.744,-29.452 5.287,-29.452C4.852,-29.452 4.39,-29.441 3.903,-29.421C3.416,-29.4 2.934,-29.374 2.457,-29.343C1.979,-29.312 1.528,-29.275 1.104,-29.234C0.679,-29.192 0.312,-29.161 -0,-29.141ZM-6.437,-31.411C-5.94,-31.391 -5.474,-31.38 -5.038,-31.38C-4.665,-31.359 -4.303,-31.349 -3.949,-31.349L-3.172,-31.349C-2.882,-31.349 -2.363,-31.359 -1.617,-31.38C-0.87,-31.4 -0.026,-31.427 0.918,-31.458C1.861,-31.489 2.856,-31.52 3.903,-31.551C4.95,-31.582 5.92,-31.598 6.812,-31.598C9.236,-31.598 11.548,-31.318 13.746,-30.758C15.944,-30.198 17.878,-29.281 19.547,-28.006C21.215,-26.731 22.537,-25.061 23.512,-22.999C24.485,-20.935 24.974,-18.391 24.974,-15.364C24.974,-12.108 24.413,-9.35 23.294,-7.091C22.174,-4.831 20.661,-2.991 18.754,-1.571C16.846,-0.15 14.633,0.876 12.113,1.508C9.595,2.14 6.936,2.457 4.137,2.457C3.473,2.457 2.644,2.436 1.648,2.394C0.653,2.353 -0.362,2.311 -1.398,2.27C-2.437,2.228 -3.416,2.187 -4.338,2.146C-5.261,2.104 -5.961,2.083 -6.437,2.083L-6.437,1.959C-6.293,1.524 -6.163,0.964 -6.049,0.279C-5.936,-0.405 -5.842,-1.249 -5.769,-2.255C-5.696,-3.261 -5.64,-4.458 -5.598,-5.847C-5.557,-7.236 -5.535,-8.864 -5.535,-10.73L-5.535,-18.567C-5.535,-20.433 -5.557,-22.06 -5.598,-23.45C-5.64,-24.838 -5.696,-26.041 -5.769,-27.057C-5.842,-28.073 -5.936,-28.923 -6.049,-29.607C-6.163,-30.291 -6.293,-30.851 -6.437,-31.287L-6.437,-31.411Z" style="fill:#711;fill-rule:nonzero;stroke:#711;stroke-width:0.55px;"/>
                </g>
                <g transform="matrix(1.80351,0,0,1.80351,1165.23,217.177)">
                    <path d="M0,-20.961L-0.622,-20.961C-0.747,-21.314 -0.949,-21.759 -1.229,-22.298C-1.509,-22.837 -1.882,-23.366 -2.349,-23.884C-2.815,-24.402 -3.39,-24.843 -4.074,-25.206C-4.759,-25.569 -5.578,-25.751 -6.531,-25.751C-7.257,-25.751 -7.905,-25.631 -8.476,-25.393C-9.046,-25.154 -9.527,-24.828 -9.922,-24.413C-10.315,-23.998 -10.616,-23.506 -10.823,-22.936C-11.031,-22.365 -11.134,-21.749 -11.134,-21.086C-11.134,-20.007 -10.808,-18.981 -10.154,-18.006C-9.501,-17.032 -8.688,-16.063 -7.713,-15.099C-6.739,-14.135 -5.682,-13.165 -4.541,-12.191C-3.4,-11.216 -2.344,-10.201 -1.369,-9.143C-0.395,-8.086 0.419,-6.966 1.072,-5.784C1.726,-4.603 2.052,-3.338 2.052,-1.99C2.052,-0.995 1.87,0.031 1.508,1.089C1.146,2.146 0.56,3.1 -0.249,3.95C-1.058,4.8 -2.095,5.5 -3.359,6.049C-4.624,6.598 -6.158,6.873 -7.962,6.873C-8.957,6.873 -9.906,6.79 -10.808,6.624C-11.71,6.458 -12.539,6.256 -13.295,6.018C-14.053,5.78 -14.726,5.52 -15.317,5.241C-15.908,4.96 -16.4,4.696 -16.794,4.448L-16.234,-1.43L-15.581,-1.43C-15.374,-0.704 -15.068,0.021 -14.664,0.747C-14.26,1.473 -13.762,2.131 -13.171,2.721C-12.58,3.312 -11.886,3.789 -11.088,4.152C-10.29,4.515 -9.372,4.696 -8.335,4.696C-7.609,4.696 -6.926,4.577 -6.282,4.338C-5.64,4.101 -5.085,3.763 -4.619,3.328C-4.152,2.893 -3.784,2.359 -3.515,1.726C-3.245,1.094 -3.11,0.384 -3.11,-0.404C-3.11,-1.337 -3.297,-2.203 -3.67,-3.001C-4.043,-3.799 -4.541,-4.566 -5.163,-5.302C-5.785,-6.038 -6.484,-6.749 -7.262,-7.433C-8.04,-8.117 -8.844,-8.811 -9.673,-9.516C-10.502,-10.221 -11.305,-10.941 -12.083,-11.678C-12.86,-12.414 -13.56,-13.207 -14.182,-14.057C-14.804,-14.907 -15.302,-15.814 -15.675,-16.778C-16.048,-17.742 -16.234,-18.804 -16.234,-19.966C-16.234,-21.189 -15.976,-22.288 -15.457,-23.262C-14.939,-24.237 -14.255,-25.061 -13.404,-25.735C-12.555,-26.408 -11.58,-26.927 -10.48,-27.29C-9.382,-27.652 -8.241,-27.834 -7.061,-27.834C-6.189,-27.834 -5.376,-27.772 -4.619,-27.648C-3.862,-27.523 -3.178,-27.373 -2.566,-27.197C-1.955,-27.02 -1.421,-26.844 -0.965,-26.668C-0.509,-26.491 -0.136,-26.352 0.155,-26.248L0,-20.961Z" style="fill:#711;fill-rule:nonzero;stroke:#711;stroke-width:0.55px;"/>
                </g>
                <g transform="matrix(1.80351,0,0,1.80351,1211.63,223.458)">
                    <path d="M0,-28.643C-1.888,-28.643 -3.604,-28.56 -5.147,-28.394C-6.692,-28.227 -8.024,-28.052 -9.144,-27.865C-10.43,-27.637 -11.591,-27.388 -12.627,-27.119L-12.005,-31.131C-11.694,-31.089 -11.187,-31.058 -10.48,-31.038C-9.776,-31.017 -9.035,-31.001 -8.257,-30.991C-7.48,-30.98 -6.744,-30.97 -6.05,-30.959C-5.355,-30.949 -4.873,-30.944 -4.604,-30.944L10.106,-30.944C10.355,-30.944 10.816,-30.949 11.491,-30.959C12.164,-30.97 12.885,-30.98 13.652,-30.991C14.419,-31.001 15.155,-31.017 15.86,-31.038C16.565,-31.058 17.073,-31.089 17.385,-31.131L18.007,-27.119C17.012,-27.388 15.871,-27.637 14.585,-27.865C13.486,-28.052 12.164,-28.227 10.62,-28.394C9.075,-28.56 7.339,-28.643 5.411,-28.643L5.411,-10.325C5.411,-8.459 5.432,-6.831 5.473,-5.442C5.515,-4.053 5.571,-2.856 5.644,-1.85C5.717,-0.845 5.805,0 5.908,0.684C6.012,1.369 6.136,1.928 6.281,2.364L6.281,2.488L-0.902,2.488L-0.902,2.364C-0.758,1.928 -0.633,1.369 -0.529,0.684C-0.426,0 -0.333,-0.845 -0.249,-1.85C-0.166,-2.856 -0.104,-4.053 -0.062,-5.442C-0.021,-6.831 -0,-8.459 -0,-10.325L0,-28.643Z" style="fill:#711;fill-rule:nonzero;stroke:#711;stroke-width:0.55px;"/>
                </g>
                <g transform="matrix(1.00097,0,0,1.00097,-694.883,-0.569848)">
                    <rect x="1949.75" y="194.676" width="37.879" height="8.012" style="fill:#711;stroke:#711;stroke-width:1px;"/>
                </g>
                <g transform="matrix(1.80351,0,0,1.80351,1324.52,230.526)">
                    <path d="M0,-22.081C0,-23.947 -0.021,-25.569 -0.062,-26.948C-0.104,-28.327 -0.16,-29.519 -0.233,-30.524C-0.306,-31.53 -0.399,-32.375 -0.513,-33.06C-0.627,-33.744 -0.757,-34.303 -0.902,-34.739L-0.902,-34.863L6.313,-34.863L6.313,-34.739C6.168,-34.303 6.038,-33.744 5.925,-33.06C5.811,-32.375 5.717,-31.53 5.645,-30.524C5.571,-29.519 5.515,-28.327 5.474,-26.948C5.432,-25.569 5.411,-23.947 5.411,-22.081L5.411,-7.682C5.411,-4.738 5.157,-2.25 4.649,-0.218C4.141,1.814 3.405,3.581 2.441,5.085C1.478,6.587 0.312,7.93 -1.058,9.112C-2.426,10.294 -3.98,11.517 -5.723,12.782L-6.312,12.066C-4.8,10.698 -3.618,9.335 -2.768,7.977C-1.918,6.619 -1.29,5.162 -0.887,3.607C-0.481,2.052 -0.233,0.357 -0.14,-1.477C-0.046,-3.312 -0,-5.38 -0,-7.682L0,-22.081Z" style="fill:#711;fill-rule:nonzero;stroke:#711;stroke-width:0.55px;"/>
                </g>
                <g transform="matrix(1.80351,0,0,1.80351,1376.38,227.637)">
                    <path d="M0,-33.276C2.136,-33.286 4.116,-33.308 5.94,-33.338C7.765,-33.37 9.335,-33.405 10.652,-33.447C11.969,-33.489 12.834,-33.551 13.249,-33.634L12.036,-30.275C11.477,-30.42 10.844,-30.555 10.139,-30.679C9.517,-30.783 8.765,-30.882 7.884,-30.975C7.002,-31.068 5.981,-31.115 4.82,-31.115C4.405,-31.115 3.93,-31.099 3.391,-31.068C2.851,-31.037 2.333,-31.001 1.835,-30.96C1.255,-30.918 0.663,-30.877 0.062,-30.835L0.062,-18.55C1.742,-18.571 3.255,-18.613 4.604,-18.675C5.95,-18.737 7.102,-18.819 8.055,-18.924C9.175,-19.006 10.159,-19.121 11.01,-19.266L10.264,-15.565C9.123,-15.71 7.973,-15.834 6.811,-15.938C5.815,-16.042 4.717,-16.13 3.515,-16.203C2.313,-16.275 1.161,-16.311 0.062,-16.311L0.062,-2.192C1.991,-2.192 3.764,-2.27 5.381,-2.425C6.998,-2.581 8.407,-2.752 9.61,-2.939C11.02,-3.167 12.295,-3.425 13.436,-3.716L12.721,0.358C12.409,0.337 11.906,0.311 11.212,0.28C10.517,0.249 9.792,0.228 9.035,0.218C8.277,0.207 7.567,0.197 6.904,0.187C6.241,0.176 5.785,0.171 5.536,0.171L-6.251,0.171L-6.251,0.047C-6.106,-0.388 -5.977,-0.948 -5.862,-1.632C-5.748,-2.317 -5.655,-3.161 -5.582,-4.167C-5.51,-5.172 -5.453,-6.37 -5.411,-7.759C-5.37,-9.148 -5.349,-10.776 -5.349,-12.642L-5.349,-20.479C-5.349,-22.345 -5.37,-23.967 -5.411,-25.346C-5.453,-26.724 -5.51,-27.917 -5.582,-28.922C-5.655,-29.928 -5.748,-30.773 -5.862,-31.457C-5.977,-32.141 -6.106,-32.701 -6.251,-33.136L-6.251,-33.261C-4.219,-33.261 -2.136,-33.266 0,-33.276" style="fill:#711;fill-rule:nonzero;stroke:#711;stroke-width:0.55px;stroke-linejoin:round;stroke-miterlimit:2;"/>
                </g>
                <g transform="matrix(1.80351,0,0,1.80351,1441.06,189.583)">
                    <path d="M0,8.334L1.897,8.334C2.769,8.334 3.695,8.329 4.681,8.318C5.665,8.309 6.655,8.303 7.65,8.303C8.646,8.303 9.61,8.298 10.542,8.288C11.476,8.277 12.315,8.272 13.062,8.272L6.624,-5.474L0,8.334ZM14.182,10.76L6.251,10.76C5.193,10.76 4.187,10.766 3.234,10.776C2.28,10.786 1.409,10.796 0.622,10.807C-0.166,10.817 -0.778,10.822 -1.213,10.822L-2.363,13.248C-2.861,14.243 -3.286,15.109 -3.639,15.845C-3.991,16.581 -4.281,17.229 -4.51,17.789C-4.738,18.348 -4.903,18.83 -5.008,19.235C-5.111,19.639 -5.163,20.018 -5.163,20.37C-5.163,20.598 -5.152,20.769 -5.132,20.883C-5.111,20.997 -5.08,21.085 -5.038,21.147L-5.038,21.272L-10.512,21.272L-10.512,21.147C-10.366,21.002 -10.139,20.686 -9.827,20.199C-9.517,19.712 -9.159,19.116 -8.755,18.411C-8.351,17.706 -7.915,16.907 -7.448,16.016C-6.982,15.125 -6.521,14.202 -6.064,13.248L6.624,-12.938L8.957,-12.938L21.396,13.248C21.873,14.243 22.355,15.197 22.843,16.109C23.33,17.022 23.78,17.835 24.195,18.551C24.609,19.266 24.973,19.857 25.284,20.323C25.595,20.79 25.802,21.065 25.906,21.147L25.906,21.272L17.944,21.272C17.986,21.106 18.007,20.956 18.007,20.821L18.007,20.37C18.007,19.914 17.908,19.364 17.711,18.722C17.514,18.079 17.275,17.421 16.996,16.747C16.716,16.073 16.426,15.425 16.125,14.803C15.824,14.181 15.581,13.663 15.394,13.248L14.182,10.76Z" style="fill:#711;fill-rule:nonzero;stroke:#711;stroke-width:0.55px;"/>
                </g>
                <g transform="matrix(1.80351,0,0,1.80351,1564.65,167.65)">
                    <path d="M0,33.868L-1.213,33.868L-25.937,9.548L-25.937,20.619C-25.937,22.486 -25.927,24.114 -25.906,25.502C-25.886,26.891 -25.849,28.089 -25.797,29.095C-25.746,30.1 -25.673,30.945 -25.58,31.629C-25.486,32.313 -25.367,32.873 -25.222,33.308L-25.222,33.432L-29.887,33.432L-29.887,33.308C-29.742,32.873 -29.618,32.313 -29.514,31.629C-29.41,30.945 -29.327,30.1 -29.266,29.095C-29.202,28.089 -29.161,26.891 -29.141,25.502C-29.12,24.114 -29.109,22.486 -29.109,20.619L-29.109,12.783C-29.109,10.916 -29.12,9.294 -29.141,7.915C-29.161,6.537 -29.202,5.345 -29.266,4.339C-29.327,3.333 -29.41,2.489 -29.514,1.804C-29.618,1.12 -29.742,0.56 -29.887,0.125L-29.887,0L-27.958,0L-3.203,24.445L-3.203,12.783C-3.203,10.916 -3.214,9.294 -3.234,7.915C-3.256,6.537 -3.292,5.345 -3.343,4.339C-3.395,3.333 -3.463,2.489 -3.545,1.804C-3.629,1.12 -3.743,0.56 -3.888,0.125L-3.888,0L0.746,0L0.746,0.125C0.601,0.56 0.481,1.12 0.389,1.804C0.295,2.489 0.218,3.333 0.156,4.339C0.093,5.345 0.052,6.537 0.031,7.915C0.011,9.294 -0,10.916 -0,12.783L0,33.868Z" style="fill:#711;fill-rule:nonzero;stroke:#711;stroke-width:0.55px;"/>
                </g>
            </g>
        </g>
    </g>
</svg>
