<?xml version="1.0" encoding="utf-8"?>
<!-- Generator: Adobe Illustrator 23.1.0, SVG Export Plug-In . SVG Version: 6.00 Build 0)  -->
<svg version="1.1" id="Espace_230" xmlns="http://www.w3.org/2000/svg" xmlns:xlink="http://www.w3.org/1999/xlink" x="0px" y="0px"
	 viewBox="0 0 1920 1080" style="enable-background:new 0 0 1920 1080;" xml:space="preserve">
<path d="M228.4,613.1H198V576h30.4V613.1 M1289.1,243.2h25.6V217h403.1v505.6h-30.4V247.4h-342.4v26.2h-86.4v-26.2H832.9V471h-14.3
	V247.4H695.2V471h-14.7V247.4H263.9V272h-35.5v49.4H198v-79.8h35.5V217h1055.7V243.2 M1717.9,985.1h-403.2v-34H1289v34H233.6v-37.8
	H198v-79.8h30.4v49.4H264v37.8h994.6v-34h86.4v34h342.5V829h30.4V985.1"/>
<path style="fill:#FFFFFF;" d="M254.7,442.6c0,108.1,0,216.1,0,324.2c-7.5,0-15,0-22.4,0c0-108.1,0-216.1,0-324.2
	C239.7,442.6,247.2,442.6,254.7,442.6z"/>
<path style="fill:none;stroke:#000000;stroke-width:0.3629;stroke-miterlimit:10;" d="M254.7,442.6c0,108.1,0,216.1,0,324.2
	c-7.5,0-15,0-22.4,0c0-108.1,0-216.1,0-324.2C239.7,442.6,247.2,442.6,254.7,442.6z"/>
<path style="fill:#FFFFFF;" d="M241.6,776.6c0-5.1,0.8-9.3,1.9-9.3c1,0,1.9,4.1,1.9,9.3c0,5.1-0.8,9.3-1.9,9.3
	C242.4,785.9,241.6,781.7,241.6,776.6z"/>
<path style="fill:none;stroke:#000000;stroke-width:0.3629;stroke-miterlimit:10;" d="M241.6,776.6c0-5.1,0.8-9.3,1.9-9.3
	c1,0,1.9,4.1,1.9,9.3c0,5.1-0.8,9.3-1.9,9.3C242.4,785.9,241.6,781.7,241.6,776.6z"/>
<path style="fill:#FFFFFF;" d="M241.1,429.5c0-6.7,1.1-12.1,2.4-12.1c1.3,0,2.4,5.4,2.4,12.1c0,6.7-1.1,12.1-2.4,12.1
	C242.2,441.6,241.1,436.2,241.1,429.5z"/>
<path style="fill:none;stroke:#000000;stroke-width:0.3629;stroke-miterlimit:10;" d="M241.1,429.5c0-6.7,1.1-12.1,2.4-12.1
	c1.3,0,2.4,5.4,2.4,12.1c0,6.7-1.1,12.1-2.4,12.1S241.1,436.2,241.1,429.5z"/>
<path style="fill:#FFFFFF;" d="M258.5,454.2c0,2.3-0.5,4.1-1,4.1c-9.3,0-18.6,0-27.9,0c-0.5,0-1-1.8-1-4.1c0-2.3,0.4-4.1,1-4.1
	c9.3,0,18.6,0,27.9,0C258.1,450.1,258.5,451.9,258.5,454.2z"/>
<path style="fill:none;stroke:#000000;stroke-width:0.2726;stroke-miterlimit:10;" d="M258.5,454.2c0,2.3-0.5,4.1-1,4.1
	c-9.3,0-18.6,0-27.9,0c-0.5,0-1-1.8-1-4.1c0-2.3,0.4-4.1,1-4.1c9.3,0,18.6,0,27.9,0C258.1,450.1,258.5,451.9,258.5,454.2z"/>
<path style="fill:#FFFFFF;" d="M258.5,462.1c0,2.3-0.5,4.1-1,4.1c-9.3,0-18.6,0-27.9,0c-0.5,0-1-1.9-1-4.1c0-2.3,0.4-4.1,1-4.1
	c9.3,0,18.6,0,27.9,0C258.1,457.9,258.5,459.8,258.5,462.1z"/>
<path style="fill:none;stroke:#000000;stroke-width:0.2726;stroke-miterlimit:10;" d="M258.5,462.1c0,2.3-0.5,4.1-1,4.1
	c-9.3,0-18.6,0-27.9,0c-0.5,0-1-1.9-1-4.1c0-2.3,0.4-4.1,1-4.1c9.3,0,18.6,0,27.9,0C258.1,457.9,258.5,459.8,258.5,462.1z"/>
<path style="fill:#FFFFFF;" d="M258.5,469.9c0,2.3-0.5,4.1-1,4.1c-9.3,0-18.6,0-27.9,0c-0.5,0-1-1.8-1-4.1c0-2.3,0.4-4.1,1-4.1
	c9.3,0,18.6,0,27.9,0C258.1,465.8,258.5,467.6,258.5,469.9z"/>
<path style="fill:none;stroke:#000000;stroke-width:0.2726;stroke-miterlimit:10;" d="M258.5,469.9c0,2.3-0.5,4.1-1,4.1
	c-9.3,0-18.6,0-27.9,0c-0.5,0-1-1.8-1-4.1c0-2.3,0.4-4.1,1-4.1c9.3,0,18.6,0,27.9,0C258.1,465.8,258.5,467.6,258.5,469.9z"/>
<path style="fill:#FFFFFF;" d="M258.5,477.8c0,2.3-0.5,4.1-1,4.1c-9.3,0-18.6,0-27.9,0c-0.5,0-1-1.8-1-4.1c0-2.3,0.4-4.1,1-4.1
	c9.3,0,18.6,0,27.9,0C258.1,473.6,258.5,475.5,258.5,477.8z"/>
<path style="fill:none;stroke:#000000;stroke-width:0.2726;stroke-miterlimit:10;" d="M258.5,477.8c0,2.3-0.5,4.1-1,4.1
	c-9.3,0-18.6,0-27.9,0c-0.5,0-1-1.8-1-4.1c0-2.3,0.4-4.1,1-4.1c9.3,0,18.6,0,27.9,0C258.1,473.6,258.5,475.5,258.5,477.8z"/>
<path style="fill:#FFFFFF;" d="M258.5,485.6c0,2.3-0.5,4.1-1,4.1c-9.3,0-18.6,0-27.9,0c-0.5,0-1-1.9-1-4.1c0-2.3,0.4-4.1,1-4.1
	c9.3,0,18.6,0,27.9,0C258.1,481.5,258.5,483.3,258.5,485.6z"/>
<path style="fill:none;stroke:#000000;stroke-width:0.2726;stroke-miterlimit:10;" d="M258.5,485.6c0,2.3-0.5,4.1-1,4.1
	c-9.3,0-18.6,0-27.9,0c-0.5,0-1-1.9-1-4.1c0-2.3,0.4-4.1,1-4.1c9.3,0,18.6,0,27.9,0C258.1,481.5,258.5,483.3,258.5,485.6z"/>
<path style="fill:#FFFFFF;" d="M258.5,493.5c0,2.3-0.5,4.1-1,4.1c-9.3,0-18.6,0-27.9,0c-0.5,0-1-1.9-1-4.1c0-2.3,0.4-4.1,1-4.1
	c9.3,0,18.6,0,27.9,0C258.1,489.3,258.5,491.2,258.5,493.5z"/>
<path style="fill:none;stroke:#000000;stroke-width:0.2726;stroke-miterlimit:10;" d="M258.5,493.5c0,2.3-0.5,4.1-1,4.1
	c-9.3,0-18.6,0-27.9,0c-0.5,0-1-1.9-1-4.1c0-2.3,0.4-4.1,1-4.1c9.3,0,18.6,0,27.9,0C258.1,489.3,258.5,491.2,258.5,493.5z"/>
<path style="fill:#FFFFFF;" d="M258.5,501.3c0,2.3-0.5,4.1-1,4.1c-9.3,0-18.6,0-27.9,0c-0.5,0-1-1.8-1-4.1c0-2.3,0.4-4.1,1-4.1
	c9.3,0,18.6,0,27.9,0C258.1,497.2,258.5,499.1,258.5,501.3z"/>
<path style="fill:none;stroke:#000000;stroke-width:0.2726;stroke-miterlimit:10;" d="M258.5,501.3c0,2.3-0.5,4.1-1,4.1
	c-9.3,0-18.6,0-27.9,0c-0.5,0-1-1.8-1-4.1c0-2.3,0.4-4.1,1-4.1c9.3,0,18.6,0,27.9,0C258.1,497.2,258.5,499.1,258.5,501.3z"/>
<path style="fill:#FFFFFF;" d="M258.5,509.2c0,2.3-0.5,4.1-1,4.1c-9.3,0-18.6,0-27.9,0c-0.5,0-1-1.8-1-4.1c0-2.3,0.4-4.1,1-4.1
	c9.3,0,18.6,0,27.9,0C258.1,505.1,258.5,506.9,258.5,509.2z"/>
<path style="fill:none;stroke:#000000;stroke-width:0.2726;stroke-miterlimit:10;" d="M258.5,509.2c0,2.3-0.5,4.1-1,4.1
	c-9.3,0-18.6,0-27.9,0c-0.5,0-1-1.8-1-4.1c0-2.3,0.4-4.1,1-4.1c9.3,0,18.6,0,27.9,0C258.1,505.1,258.5,506.9,258.5,509.2z"/>
<path style="fill:#FFFFFF;" d="M258.5,517c0,2.3-0.5,4.1-1,4.1c-9.3,0-18.6,0-27.9,0c-0.5,0-1-1.9-1-4.1c0-2.3,0.4-4.1,1-4.1
	c9.3,0,18.6,0,27.9,0C258.1,512.9,258.5,514.8,258.5,517z"/>
<path style="fill:none;stroke:#000000;stroke-width:0.2726;stroke-miterlimit:10;" d="M258.5,517c0,2.3-0.5,4.1-1,4.1
	c-9.3,0-18.6,0-27.9,0c-0.5,0-1-1.9-1-4.1c0-2.3,0.4-4.1,1-4.1c9.3,0,18.6,0,27.9,0C258.1,512.9,258.5,514.8,258.5,517z"/>
<path style="fill:#FFFFFF;" d="M258.5,524.9c0,2.3-0.5,4.1-1,4.1c-9.3,0-18.6,0-27.9,0c-0.5,0-1-1.8-1-4.1c0-2.3,0.4-4.1,1-4.1
	c9.3,0,18.6,0,27.9,0C258.1,520.8,258.5,522.6,258.5,524.9z"/>
<path style="fill:none;stroke:#000000;stroke-width:0.2726;stroke-miterlimit:10;" d="M258.5,524.9c0,2.3-0.5,4.1-1,4.1
	c-9.3,0-18.6,0-27.9,0c-0.5,0-1-1.8-1-4.1c0-2.3,0.4-4.1,1-4.1c9.3,0,18.6,0,27.9,0C258.1,520.8,258.5,522.6,258.5,524.9z"/>
<path style="fill:#FFFFFF;" d="M258.5,532.7c0,2.3-0.5,4.1-1,4.1c-9.3,0-18.6,0-27.9,0c-0.5,0-1-1.8-1-4.1c0-2.3,0.4-4.1,1-4.1
	c9.3,0,18.6,0,27.9,0C258.1,528.6,258.5,530.5,258.5,532.7z"/>
<path style="fill:none;stroke:#000000;stroke-width:0.2726;stroke-miterlimit:10;" d="M258.5,532.7c0,2.3-0.5,4.1-1,4.1
	c-9.3,0-18.6,0-27.9,0c-0.5,0-1-1.8-1-4.1c0-2.3,0.4-4.1,1-4.1c9.3,0,18.6,0,27.9,0C258.1,528.6,258.5,530.5,258.5,532.7z"/>
<path style="fill:#FFFFFF;" d="M258.5,540.6c0,2.3-0.5,4.1-1,4.1c-9.3,0-18.6,0-27.9,0c-0.5,0-1-1.8-1-4.1c0-2.3,0.4-4.1,1-4.1
	c9.3,0,18.6,0,27.9,0C258.1,536.5,258.5,538.3,258.5,540.6z"/>
<path style="fill:none;stroke:#000000;stroke-width:0.2726;stroke-miterlimit:10;" d="M258.5,540.6c0,2.3-0.5,4.1-1,4.1
	c-9.3,0-18.6,0-27.9,0c-0.5,0-1-1.8-1-4.1c0-2.3,0.4-4.1,1-4.1c9.3,0,18.6,0,27.9,0C258.1,536.5,258.5,538.3,258.5,540.6z"/>
<path style="fill:#FFFFFF;" d="M258.5,548.4c0,2.3-0.5,4.1-1,4.1c-9.3,0-18.6,0-27.9,0c-0.5,0-1-1.8-1-4.1c0-2.3,0.4-4.1,1-4.1
	c9.3,0,18.6,0,27.9,0C258.1,544.3,258.5,546.2,258.5,548.4z"/>
<path style="fill:none;stroke:#000000;stroke-width:0.2726;stroke-miterlimit:10;" d="M258.5,548.4c0,2.3-0.5,4.1-1,4.1
	c-9.3,0-18.6,0-27.9,0c-0.5,0-1-1.8-1-4.1c0-2.3,0.4-4.1,1-4.1c9.3,0,18.6,0,27.9,0C258.1,544.3,258.5,546.2,258.5,548.4z"/>
<path style="fill:#FFFFFF;" d="M258.5,556.3c0,2.3-0.5,4.1-1,4.1c-9.3,0-18.6,0-27.9,0c-0.5,0-1-1.8-1-4.1c0-2.3,0.4-4.1,1-4.1
	c9.3,0,18.6,0,27.9,0C258.1,552.2,258.5,554,258.5,556.3z"/>
<path style="fill:none;stroke:#000000;stroke-width:0.2726;stroke-miterlimit:10;" d="M258.5,556.3c0,2.3-0.5,4.1-1,4.1
	c-9.3,0-18.6,0-27.9,0c-0.5,0-1-1.8-1-4.1c0-2.3,0.4-4.1,1-4.1c9.3,0,18.6,0,27.9,0C258.1,552.2,258.5,554,258.5,556.3z"/>
<path style="fill:#FFFFFF;" d="M258.5,564.2c0,2.3-0.5,4.1-1,4.1c-9.3,0-18.6,0-27.9,0c-0.5,0-1-1.8-1-4.1c0-2.3,0.4-4.1,1-4.1
	c9.3,0,18.6,0,27.9,0C258.1,560,258.5,561.9,258.5,564.2z"/>
<path style="fill:none;stroke:#000000;stroke-width:0.2726;stroke-miterlimit:10;" d="M258.5,564.2c0,2.3-0.5,4.1-1,4.1
	c-9.3,0-18.6,0-27.9,0c-0.5,0-1-1.8-1-4.1c0-2.3,0.4-4.1,1-4.1c9.3,0,18.6,0,27.9,0C258.1,560,258.5,561.9,258.5,564.2z"/>
<path style="fill:#FFFFFF;" d="M258.5,572c0,2.3-0.5,4.1-1,4.1c-9.3,0-18.6,0-27.9,0c-0.6,0-1-1.8-1-4.1c0-2.3,0.4-4.1,1-4.1
	c9.3,0,18.6,0,27.9,0C258.1,567.9,258.5,569.7,258.5,572z"/>
<path style="fill:none;stroke:#000000;stroke-width:0.2726;stroke-miterlimit:10;" d="M258.5,572c0,2.3-0.5,4.1-1,4.1
	c-9.3,0-18.6,0-27.9,0c-0.6,0-1-1.8-1-4.1c0-2.3,0.4-4.1,1-4.1c9.3,0,18.6,0,27.9,0C258.1,567.9,258.5,569.7,258.5,572z"/>
<path style="fill:#FFFFFF;" d="M258.5,579.9c0,2.3-0.5,4.1-1,4.1c-9.3,0-18.6,0-27.9,0c-0.6,0-1-1.8-1-4.1c0-2.3,0.4-4.1,1-4.1
	c9.3,0,18.6,0,27.9,0C258.1,575.7,258.5,577.6,258.5,579.9z"/>
<path style="fill:none;stroke:#000000;stroke-width:0.2726;stroke-miterlimit:10;" d="M258.5,579.9c0,2.3-0.5,4.1-1,4.1
	c-9.3,0-18.6,0-27.9,0c-0.6,0-1-1.8-1-4.1c0-2.3,0.4-4.1,1-4.1c9.3,0,18.6,0,27.9,0C258.1,575.7,258.5,577.6,258.5,579.9z"/>
<path style="fill:#FFFFFF;" d="M258.5,587.7c0,2.3-0.5,4.1-1,4.1c-9.3,0-18.6,0-27.9,0c-0.6,0-1-1.8-1-4.1c0-2.3,0.4-4.1,1-4.1
	c9.3,0,18.6,0,27.9,0C258.1,583.6,258.5,585.4,258.5,587.7z"/>
<path style="fill:none;stroke:#000000;stroke-width:0.2726;stroke-miterlimit:10;" d="M258.5,587.7c0,2.3-0.5,4.1-1,4.1
	c-9.3,0-18.6,0-27.9,0c-0.6,0-1-1.8-1-4.1c0-2.3,0.4-4.1,1-4.1c9.3,0,18.6,0,27.9,0C258.1,583.6,258.5,585.4,258.5,587.7z"/>
<path style="fill:#FFFFFF;" d="M258.5,595.6c0,2.3-0.5,4.1-1,4.1c-9.3,0-18.6,0-27.9,0c-0.6,0-1-1.8-1-4.1c0-2.3,0.4-4.1,1-4.1
	c9.3,0,18.6,0,27.9,0C258.1,591.5,258.5,593.3,258.5,595.6z"/>
<path style="fill:none;stroke:#000000;stroke-width:0.2726;stroke-miterlimit:10;" d="M258.5,595.6c0,2.3-0.5,4.1-1,4.1
	c-9.3,0-18.6,0-27.9,0c-0.6,0-1-1.8-1-4.1c0-2.3,0.4-4.1,1-4.1c9.3,0,18.6,0,27.9,0C258.1,591.5,258.5,593.3,258.5,595.6z"/>
<path style="fill:#FFFFFF;" d="M258.5,603.4c0,2.3-0.5,4.1-1,4.1c-9.3,0-18.6,0-27.9,0c-0.6,0-1-1.8-1-4.1c0-2.3,0.4-4.1,1-4.1
	c9.3,0,18.6,0,27.9,0C258.1,599.3,258.5,601.2,258.5,603.4z"/>
<path style="fill:none;stroke:#000000;stroke-width:0.2726;stroke-miterlimit:10;" d="M258.5,603.4c0,2.3-0.5,4.1-1,4.1
	c-9.3,0-18.6,0-27.9,0c-0.6,0-1-1.8-1-4.1c0-2.3,0.4-4.1,1-4.1c9.3,0,18.6,0,27.9,0C258.1,599.3,258.5,601.2,258.5,603.4z"/>
<path style="fill:#FFFFFF;" d="M258.5,611.3c0,2.3-0.5,4.1-1,4.1c-9.3,0-18.6,0-27.9,0c-0.5,0-1-1.8-1-4.1c0-2.3,0.4-4.1,1-4.1
	c9.3,0,18.6,0,27.9,0C258.1,607.2,258.5,609,258.5,611.3z"/>
<path style="fill:none;stroke:#000000;stroke-width:0.2726;stroke-miterlimit:10;" d="M258.5,611.3c0,2.3-0.5,4.1-1,4.1
	c-9.3,0-18.6,0-27.9,0c-0.5,0-1-1.8-1-4.1c0-2.3,0.4-4.1,1-4.1c9.3,0,18.6,0,27.9,0C258.1,607.2,258.5,609,258.5,611.3z"/>
<path style="fill:#FFFFFF;" d="M258.5,619.1c0,2.3-0.5,4.1-1,4.1c-9.3,0-18.6,0-27.9,0c-0.5,0-1-1.8-1-4.1c0-2.3,0.5-4.1,1-4.1
	c9.3,0,18.6,0,27.9,0C258.1,615,258.5,616.9,258.5,619.1z"/>
<path style="fill:none;stroke:#000000;stroke-width:0.2726;stroke-miterlimit:10;" d="M258.5,619.1c0,2.3-0.5,4.1-1,4.1
	c-9.3,0-18.6,0-27.9,0c-0.5,0-1-1.8-1-4.1c0-2.3,0.5-4.1,1-4.1c9.3,0,18.6,0,27.9,0C258.1,615,258.5,616.9,258.5,619.1z"/>
<path style="fill:#FFFFFF;" d="M258.5,627c0,2.3-0.5,4.1-1,4.1c-9.3,0-18.6,0-27.9,0c-0.5,0-1-1.8-1-4.1c0-2.3,0.5-4.1,1-4.1
	c9.3,0,18.6,0,27.9,0C258.1,622.9,258.5,624.7,258.5,627z"/>
<path style="fill:none;stroke:#000000;stroke-width:0.2726;stroke-miterlimit:10;" d="M258.5,627c0,2.3-0.5,4.1-1,4.1
	c-9.3,0-18.6,0-27.9,0c-0.5,0-1-1.8-1-4.1c0-2.3,0.5-4.1,1-4.1c9.3,0,18.6,0,27.9,0C258.1,622.9,258.5,624.7,258.5,627z"/>
<path style="fill:#FFFFFF;" d="M258.5,634.8c0,2.3-0.5,4.1-1,4.1c-9.3,0-18.6,0-27.9,0c-0.5,0-1-1.8-1-4.1c0-2.3,0.5-4.1,1-4.1
	c9.3,0,18.6,0,27.9,0C258.1,630.7,258.5,632.6,258.5,634.8z"/>
<path style="fill:none;stroke:#000000;stroke-width:0.2726;stroke-miterlimit:10;" d="M258.5,634.8c0,2.3-0.5,4.1-1,4.1
	c-9.3,0-18.6,0-27.9,0c-0.5,0-1-1.8-1-4.1c0-2.3,0.5-4.1,1-4.1c9.3,0,18.6,0,27.9,0C258.1,630.7,258.5,632.6,258.5,634.8z"/>
<path style="fill:#FFFFFF;" d="M258.5,642.7c0,2.3-0.5,4.1-1,4.1c-9.3,0-18.6,0-27.9,0c-0.5,0-1-1.8-1-4.1c0-2.3,0.5-4.1,1-4.1
	c9.3,0,18.6,0,27.9,0C258.1,638.6,258.5,640.4,258.5,642.7z"/>
<path style="fill:none;stroke:#000000;stroke-width:0.2726;stroke-miterlimit:10;" d="M258.5,642.7c0,2.3-0.5,4.1-1,4.1
	c-9.3,0-18.6,0-27.9,0c-0.5,0-1-1.8-1-4.1c0-2.3,0.5-4.1,1-4.1c9.3,0,18.6,0,27.9,0C258.1,638.6,258.5,640.4,258.5,642.7z"/>
<path style="fill:#FFFFFF;" d="M258.5,650.6c0,2.3-0.5,4.1-1,4.1c-9.3,0-18.6,0-27.9,0c-0.5,0-1-1.8-1-4.1c0-2.3,0.5-4.1,1-4.1
	c9.3,0,18.6,0,27.9,0C258.1,646.4,258.5,648.3,258.5,650.6z"/>
<path style="fill:none;stroke:#000000;stroke-width:0.2726;stroke-miterlimit:10;" d="M258.5,650.6c0,2.3-0.5,4.1-1,4.1
	c-9.3,0-18.6,0-27.9,0c-0.5,0-1-1.8-1-4.1c0-2.3,0.5-4.1,1-4.1c9.3,0,18.6,0,27.9,0C258.1,646.4,258.5,648.3,258.5,650.6z"/>
<path style="fill:#FFFFFF;" d="M258.5,658.4c0,2.3-0.5,4.1-1,4.1c-9.3,0-18.6,0-27.9,0c-0.5,0-1-1.8-1-4.1c0-2.3,0.5-4.1,1-4.1
	c9.3,0,18.6,0,27.9,0C258.1,654.3,258.5,656.1,258.5,658.4z"/>
<path style="fill:none;stroke:#000000;stroke-width:0.2726;stroke-miterlimit:10;" d="M258.5,658.4c0,2.3-0.5,4.1-1,4.1
	c-9.3,0-18.6,0-27.9,0c-0.5,0-1-1.8-1-4.1c0-2.3,0.5-4.1,1-4.1c9.3,0,18.6,0,27.9,0C258.1,654.3,258.5,656.1,258.5,658.4z"/>
<path style="fill:#FFFFFF;" d="M258.5,666.3c0,2.3-0.5,4.1-1,4.1c-9.3,0-18.6,0-27.9,0c-0.5,0-1-1.8-1-4.1c0-2.3,0.5-4.1,1-4.1
	c9.3,0,18.6,0,27.9,0C258.1,662.2,258.5,664,258.5,666.3z"/>
<path style="fill:none;stroke:#000000;stroke-width:0.2726;stroke-miterlimit:10;" d="M258.5,666.3c0,2.3-0.5,4.1-1,4.1
	c-9.3,0-18.6,0-27.9,0c-0.5,0-1-1.8-1-4.1c0-2.3,0.5-4.1,1-4.1c9.3,0,18.6,0,27.9,0C258.1,662.2,258.5,664,258.5,666.3z"/>
<path style="fill:#FFFFFF;" d="M258.5,674.1c0,2.3-0.5,4.1-1,4.1c-9.3,0-18.6,0-27.9,0c-0.5,0-1-1.8-1-4.1c0-2.3,0.5-4.1,1-4.1
	c9.3,0,18.6,0,27.9,0C258.1,670,258.5,671.8,258.5,674.1z"/>
<path style="fill:none;stroke:#000000;stroke-width:0.2726;stroke-miterlimit:10;" d="M258.5,674.1c0,2.3-0.5,4.1-1,4.1
	c-9.3,0-18.6,0-27.9,0c-0.5,0-1-1.8-1-4.1c0-2.3,0.5-4.1,1-4.1c9.3,0,18.6,0,27.9,0C258.1,670,258.5,671.8,258.5,674.1z"/>
<path style="fill:#FFFFFF;" d="M258.5,682c0,2.3-0.5,4.1-1,4.1c-9.3,0-18.6,0-27.9,0c-0.5,0-1-1.8-1-4.1c0-2.3,0.5-4.1,1-4.1
	c9.3,0,18.6,0,27.9,0C258.1,677.9,258.5,679.7,258.5,682z"/>
<path style="fill:none;stroke:#000000;stroke-width:0.2726;stroke-miterlimit:10;" d="M258.5,682c0,2.3-0.5,4.1-1,4.1
	c-9.3,0-18.6,0-27.9,0c-0.5,0-1-1.8-1-4.1c0-2.3,0.5-4.1,1-4.1c9.3,0,18.6,0,27.9,0C258.1,677.9,258.5,679.7,258.5,682z"/>
<path style="fill:#FFFFFF;" d="M258.5,689.8c0,2.3-0.5,4.1-1,4.1c-9.3,0-18.6,0-27.9,0c-0.5,0-1-1.8-1-4.1c0-2.3,0.5-4.1,1-4.1
	c9.3,0,18.6,0,27.9,0C258.1,685.7,258.5,687.6,258.5,689.8z"/>
<path style="fill:none;stroke:#000000;stroke-width:0.2726;stroke-miterlimit:10;" d="M258.5,689.8c0,2.3-0.5,4.1-1,4.1
	c-9.3,0-18.6,0-27.9,0c-0.5,0-1-1.8-1-4.1c0-2.3,0.5-4.1,1-4.1c9.3,0,18.6,0,27.9,0C258.1,685.7,258.5,687.6,258.5,689.8z"/>
<path style="fill:#FFFFFF;" d="M258.5,697.7c0,2.3-0.5,4.1-1,4.1c-9.3,0-18.6,0-27.9,0c-0.5,0-1-1.8-1-4.1c0-2.3,0.5-4.1,1-4.1
	c9.3,0,18.6,0,27.9,0C258.1,693.6,258.5,695.4,258.5,697.7z"/>
<path style="fill:none;stroke:#000000;stroke-width:0.2726;stroke-miterlimit:10;" d="M258.5,697.7c0,2.3-0.5,4.1-1,4.1
	c-9.3,0-18.6,0-27.9,0c-0.5,0-1-1.8-1-4.1c0-2.3,0.5-4.1,1-4.1c9.3,0,18.6,0,27.9,0C258.1,693.6,258.5,695.4,258.5,697.7z"/>
<path style="fill:#FFFFFF;" d="M258.5,705.5c0,2.3-0.5,4.1-1,4.1c-9.3,0-18.6,0-27.9,0c-0.5,0-1-1.9-1-4.1c0-2.3,0.5-4.1,1-4.1
	c9.3,0,18.6,0,27.9,0C258.1,701.4,258.5,703.3,258.5,705.5z"/>
<path style="fill:none;stroke:#000000;stroke-width:0.2726;stroke-miterlimit:10;" d="M258.5,705.5c0,2.3-0.5,4.1-1,4.1
	c-9.3,0-18.6,0-27.9,0c-0.5,0-1-1.9-1-4.1c0-2.3,0.5-4.1,1-4.1c9.3,0,18.6,0,27.9,0C258.1,701.4,258.5,703.3,258.5,705.5z"/>
<path style="fill:#FFFFFF;" d="M258.5,713.4c0,2.3-0.5,4.1-1,4.1c-9.3,0-18.6,0-27.9,0c-0.5,0-1-1.9-1-4.1c0-2.3,0.5-4.1,1-4.1
	c9.3,0,18.6,0,27.9,0C258.1,709.3,258.5,711.1,258.5,713.4z"/>
<path style="fill:none;stroke:#000000;stroke-width:0.2726;stroke-miterlimit:10;" d="M258.5,713.4c0,2.3-0.5,4.1-1,4.1
	c-9.3,0-18.6,0-27.9,0c-0.5,0-1-1.9-1-4.1c0-2.3,0.5-4.1,1-4.1c9.3,0,18.6,0,27.9,0C258.1,709.3,258.5,711.1,258.5,713.4z"/>
<path style="fill:#FFFFFF;" d="M258.5,721.3c0,2.3-0.5,4.1-1,4.1c-9.3,0-18.6,0-27.9,0c-0.5,0-1-1.8-1-4.1c0-2.3,0.5-4.1,1-4.1
	c9.3,0,18.6,0,27.9,0C258.1,717.1,258.5,719,258.5,721.3z"/>
<path style="fill:none;stroke:#000000;stroke-width:0.2726;stroke-miterlimit:10;" d="M258.5,721.3c0,2.3-0.5,4.1-1,4.1
	c-9.3,0-18.6,0-27.9,0c-0.5,0-1-1.8-1-4.1c0-2.3,0.5-4.1,1-4.1c9.3,0,18.6,0,27.9,0C258.1,717.1,258.5,719,258.5,721.3z"/>
<path style="fill:#FFFFFF;" d="M258.5,729.1c0,2.3-0.5,4.1-1,4.1c-9.3,0-18.6,0-27.9,0c-0.5,0-1-1.8-1-4.1c0-2.3,0.5-4.1,1-4.1
	c9.3,0,18.6,0,27.9,0C258.1,725,258.5,726.8,258.5,729.1z"/>
<path style="fill:none;stroke:#000000;stroke-width:0.2726;stroke-miterlimit:10;" d="M258.5,729.1c0,2.3-0.5,4.1-1,4.1
	c-9.3,0-18.6,0-27.9,0c-0.5,0-1-1.8-1-4.1c0-2.3,0.5-4.1,1-4.1c9.3,0,18.6,0,27.9,0C258.1,725,258.5,726.8,258.5,729.1z"/>
<path style="fill:#FFFFFF;" d="M258.5,737c0,2.3-0.5,4.1-1,4.1c-9.3,0-18.6,0-27.9,0c-0.5,0-1-1.9-1-4.1c0-2.3,0.5-4.1,1-4.1
	c9.3,0,18.6,0,27.9,0C258.1,732.8,258.5,734.7,258.5,737z"/>
<path style="fill:none;stroke:#000000;stroke-width:0.2726;stroke-miterlimit:10;" d="M258.5,737c0,2.3-0.5,4.1-1,4.1
	c-9.3,0-18.6,0-27.9,0c-0.5,0-1-1.9-1-4.1c0-2.3,0.5-4.1,1-4.1c9.3,0,18.6,0,27.9,0C258.1,732.8,258.5,734.7,258.5,737z"/>
<path style="fill:#FFFFFF;" d="M258.5,744.8c0,2.3-0.5,4.1-1,4.1c-9.3,0-18.6,0-27.9,0c-0.5,0-1-1.8-1-4.1c0-2.3,0.5-4.1,1-4.1
	c9.3,0,18.6,0,27.9,0C258.1,740.7,258.5,742.5,258.5,744.8z"/>
<path style="fill:none;stroke:#000000;stroke-width:0.2726;stroke-miterlimit:10;" d="M258.5,744.8c0,2.3-0.5,4.1-1,4.1
	c-9.3,0-18.6,0-27.9,0c-0.5,0-1-1.8-1-4.1c0-2.3,0.5-4.1,1-4.1c9.3,0,18.6,0,27.9,0C258.1,740.7,258.5,742.5,258.5,744.8z"/>
<path style="fill:#FFFFFF;" d="M258.5,752.7c0,2.3-0.5,4.1-1,4.1c-9.3,0-18.6,0-27.9,0c-0.5,0-1-1.8-1-4.1c0-2.3,0.5-4.1,1-4.1
	c9.3,0,18.6,0,27.9,0C258.1,748.6,258.5,750.4,258.5,752.7z"/>
<path style="fill:none;stroke:#000000;stroke-width:0.2726;stroke-miterlimit:10;" d="M258.5,752.7c0,2.3-0.5,4.1-1,4.1
	c-9.3,0-18.6,0-27.9,0c-0.5,0-1-1.8-1-4.1c0-2.3,0.5-4.1,1-4.1c9.3,0,18.6,0,27.9,0C258.1,748.6,258.5,750.4,258.5,752.7z"/>
<path style="fill:#FFFFFF;" d="M258.5,760.5c0,2.3-0.5,4.1-1,4.1c-9.3,0-18.6,0-27.9,0c-0.5,0-1-1.9-1-4.1c0-2.3,0.5-4.1,1-4.1
	c9.3,0,18.6,0,27.9,0C258.1,756.4,258.5,758.3,258.5,760.5z"/>
<path style="fill:none;stroke:#000000;stroke-width:0.2726;stroke-miterlimit:10;" d="M258.5,760.5c0,2.3-0.5,4.1-1,4.1
	c-9.3,0-18.6,0-27.9,0c-0.5,0-1-1.9-1-4.1c0-2.3,0.5-4.1,1-4.1c9.3,0,18.6,0,27.9,0C258.1,756.4,258.5,758.3,258.5,760.5z"/>
<path style="fill:#FFFFFF;" d="M227.6,574.1c0-84,0-168,0-252.1c-4.5,0-9.1,0-13.6,0c0,84,0,168,0,252.1
	C218.6,574.1,223.1,574.1,227.6,574.1z"/>
<path style="fill:none;stroke:#000000;stroke-width:0.6723;stroke-miterlimit:10;" d="M227.6,574.1c0-84,0-168,0-252.1
	c-4.5,0-9.1,0-13.6,0c0,84,0,168,0,252.1C218.6,574.1,223.1,574.1,227.6,574.1z"/>
<path d="M223.2,565.1c0-78.1,0-156.2,0.1-234.2"/>
<path style="fill:none;stroke:#252525;stroke-width:1.3447;stroke-miterlimit:10;" d="M223.2,565.1c0-78.1,0-156.2,0.1-234.2"/>
<path d="M225.7,574.1c0-2.6,0-5.1,0-7.6c-1.8,0-3.6,0-5.3,0c0,2.5,0,5.1,0,7.6C222.1,574.1,223.9,574.1,225.7,574.1z"/>
<path style="fill:none;stroke:#000000;stroke-width:0.6723;stroke-miterlimit:10;" d="M225.7,574.1c0-2.6,0-5.1,0-7.6
	c-1.8,0-3.6,0-5.3,0c0,2.5,0,5.1,0,7.6C222.1,574.1,223.9,574.1,225.7,574.1z"/>
<path d="M220.8,329.6c0-2.5,0-5.1,0-7.6c-1.6,0-3.2,0-4.9,0c0,2.5,0,5.1,0,7.6C217.6,329.6,219.2,329.6,220.8,329.6z"/>
<path style="fill:none;stroke:#000000;stroke-width:0.6723;stroke-miterlimit:10;" d="M220.8,329.6c0-2.5,0-5.1,0-7.6
	c-1.6,0-3.2,0-4.9,0c0,2.5,0,5.1,0,7.6C217.6,329.6,219.2,329.6,220.8,329.6z"/>
<path d="M218.3,565.1c0-78.1,0-156.2,0.1-234.2"/>
<path style="fill:none;stroke:#252525;stroke-width:1.3447;stroke-miterlimit:10;" d="M218.3,565.1c0-78.1,0-156.2,0.1-234.2"/>
<path d="M225.7,329.6c0-2.5,0-5.1,0-7.6c-1.6,0-3.2,0-4.9,0c0,2.5,0,5.1,0,7.6C222.4,329.6,224.1,329.6,225.7,329.6z"/>
<path style="fill:none;stroke:#000000;stroke-width:0.6723;stroke-miterlimit:10;" d="M225.7,329.6c0-2.5,0-5.1,0-7.6
	c-1.6,0-3.2,0-4.9,0c0,2.5,0,5.1,0,7.6C222.4,329.6,224.1,329.6,225.7,329.6z"/>
<path d="M220.8,574.1c0-2.6,0-5.1,0-7.6c-1.6,0-3.2,0-4.9,0c0,2.5,0,5.1,0,7.6C217.6,574.1,219.2,574.1,220.8,574.1z"/>
<path style="fill:none;stroke:#000000;stroke-width:0.6723;stroke-miterlimit:10;" d="M220.8,574.1c0-2.6,0-5.1,0-7.6
	c-1.6,0-3.2,0-4.9,0c0,2.5,0,5.1,0,7.6C217.6,574.1,219.2,574.1,220.8,574.1z"/>
<path style="fill:#FFFFFF;" d="M227.6,865.7c0-84,0-168,0-252c-4.5,0-9.1,0-13.6,0c0,84,0,168,0,252
	C218.6,865.7,223.1,865.7,227.6,865.7z"/>
<path style="fill:none;stroke:#000000;stroke-width:0.6723;stroke-miterlimit:10;" d="M227.6,865.7c0-84,0-168,0-252
	c-4.5,0-9.1,0-13.6,0c0,84,0,168,0,252C218.6,865.7,223.1,865.7,227.6,865.7z"/>
<path d="M223.2,856.8c0-78.1,0-156.1,0.1-234.2"/>
<path style="fill:none;stroke:#252525;stroke-width:1.3447;stroke-miterlimit:10;" d="M223.2,856.8c0-78.1,0-156.1,0.1-234.2"/>
<path d="M225.7,865.7c0-2.6,0-5.1,0-7.6c-1.8,0-3.6,0-5.3,0c0,2.5,0,5.1,0,7.6C222.1,865.7,223.9,865.7,225.7,865.7z"/>
<path style="fill:none;stroke:#000000;stroke-width:0.6723;stroke-miterlimit:10;" d="M225.7,865.7c0-2.6,0-5.1,0-7.6
	c-1.8,0-3.6,0-5.3,0c0,2.5,0,5.1,0,7.6C222.1,865.7,223.9,865.7,225.7,865.7z"/>
<path d="M220.8,621.3c0-2.6,0-5.1,0-7.6c-1.6,0-3.2,0-4.9,0c0,2.6,0,5.1,0,7.6C217.6,621.3,219.2,621.3,220.8,621.3z"/>
<path style="fill:none;stroke:#000000;stroke-width:0.6723;stroke-miterlimit:10;" d="M220.8,621.3c0-2.6,0-5.1,0-7.6
	c-1.6,0-3.2,0-4.9,0c0,2.6,0,5.1,0,7.6C217.6,621.3,219.2,621.3,220.8,621.3z"/>
<path d="M218.3,856.8c0-78.1,0-156.1,0.1-234.2"/>
<path style="fill:none;stroke:#252525;stroke-width:1.3447;stroke-miterlimit:10;" d="M218.3,856.8c0-78.1,0-156.1,0.1-234.2"/>
<path d="M225.7,621.3c0-2.6,0-5.1,0-7.6c-1.6,0-3.2,0-4.9,0c0,2.6,0,5.1,0,7.6C222.4,621.3,224.1,621.3,225.7,621.3z"/>
<path style="fill:none;stroke:#000000;stroke-width:0.6723;stroke-miterlimit:10;" d="M225.7,621.3c0-2.6,0-5.1,0-7.6
	c-1.6,0-3.2,0-4.9,0c0,2.6,0,5.1,0,7.6C222.4,621.3,224.1,621.3,225.7,621.3z"/>
<path d="M220.8,865.7c0-2.6,0-5.1,0-7.6c-1.6,0-3.2,0-4.9,0c0,2.5,0,5.1,0,7.6C217.6,865.7,219.2,865.7,220.8,865.7z"/>
<path style="fill:none;stroke:#000000;stroke-width:0.6723;stroke-miterlimit:10;" d="M220.8,865.7c0-2.6,0-5.1,0-7.6
	c-1.6,0-3.2,0-4.9,0c0,2.5,0,5.1,0,7.6C217.6,865.7,219.2,865.7,220.8,865.7z"/>
<path style="fill:none;stroke:#636363;stroke-width:0.3026;stroke-miterlimit:10;" d="M1589.1,828.4c0-58.1,47.5-105.1,106.2-105.1"
	/>
<path d="M1258.7,710.3c62,0,124,0,185.9,0c0,5.1,0,10.3,0,15.4c-62,0-124,0-185.9,0C1258.7,720.6,1258.7,715.4,1258.7,710.3z"/>
<path d="M1243.3,725.6c0-159.4,0-318.9,0-478.3c5.2,0,10.3,0,15.4,0c0,159.4,0,318.9,0,478.3
	C1253.6,725.6,1248.4,725.6,1243.3,725.6z"/>
<line style="fill:none;stroke:#808080;stroke-miterlimit:10;stroke-dasharray:0.6924,0.6924;" x1="263.8" y1="247.3" x2="263.8" y2="186.6"/>
<line style="fill:none;stroke:#808080;stroke-miterlimit:10;" x1="263.8" y1="198.7" x2="263.8" y2="183.5"/>
<line style="fill:none;stroke:#808080;stroke-miterlimit:10;stroke-dasharray:0.6924,0.6924;" x1="680.4" y1="247.3" x2="680.4" y2="186.6"/>
<line style="fill:none;stroke:#808080;stroke-miterlimit:10;" x1="680.4" y1="198.7" x2="680.4" y2="183.5"/>
<polyline style="fill:#808080;" points="263.8,186.6 269.9,183.5 269.9,189.6 263.8,186.6 "/>
<polyline style="fill:none;stroke:#808080;stroke-miterlimit:10;" points="263.8,186.6 269.9,183.5 269.9,189.6 263.8,186.6 "/>
<polyline style="fill:#808080;" points="680.4,186.6 674.4,189.6 674.4,183.5 680.4,186.6 "/>
<polyline style="fill:none;stroke:#808080;stroke-miterlimit:10;" points="680.4,186.6 674.4,189.6 674.4,183.5 680.4,186.6 "/>
<g>
	<path style="fill:#808080;" d="M447.2,194.2h-2.1l0-10.8c0-0.3,0-0.7,0-1.1c0-0.4,0-0.8,0-1.2c0-0.4,0-0.8,0-1.1s0-0.7,0-0.9
		c-0.1,0.1-0.3,0.3-0.4,0.4c-0.1,0.1-0.2,0.2-0.3,0.3s-0.2,0.2-0.3,0.3c-0.1,0.1-0.3,0.2-0.4,0.4l-1.8,1.4l-1.1-1.5l4.5-3.5h1.8
		L447.2,194.2z"/>
	<path style="fill:#808080;" d="M460.5,194.2h-2.1v-10.8c0-0.3,0-0.7,0-1.1c0-0.4,0-0.8,0-1.2c0-0.4,0-0.8,0-1.1c0-0.4,0-0.7,0-0.9
		c-0.1,0.1-0.3,0.3-0.4,0.4c-0.1,0.1-0.2,0.2-0.3,0.3c-0.1,0.1-0.2,0.2-0.3,0.3c-0.1,0.1-0.3,0.2-0.4,0.4l-1.8,1.4l-1.1-1.5l4.5-3.5
		h1.8V194.2z"/>
	<path style="fill:#808080;" d="M471,176.5l-0.6,6.3h-1.5l-0.6-6.3H471z"/>
	<path style="fill:#808080;" d="M491.1,180.9c0,0.6-0.1,1.1-0.3,1.6c-0.2,0.5-0.4,0.9-0.8,1.2s-0.7,0.6-1.2,0.9
		c-0.5,0.2-1,0.4-1.5,0.5v0.1c1.4,0.2,2.5,0.6,3.2,1.3c0.7,0.7,1.1,1.6,1.1,2.8c0,0.8-0.1,1.5-0.4,2.1s-0.6,1.2-1.2,1.6
		c-0.5,0.5-1.2,0.8-2,1.1c-0.8,0.3-1.7,0.4-2.8,0.4c-0.9,0-1.7-0.1-2.4-0.2c-0.8-0.1-1.5-0.4-2.2-0.7v-2c0.7,0.4,1.4,0.6,2.2,0.8
		c0.8,0.2,1.6,0.3,2.3,0.3c0.7,0,1.4-0.1,1.9-0.2c0.5-0.2,1-0.4,1.3-0.7s0.6-0.7,0.8-1.1s0.2-0.9,0.2-1.4c0-0.5-0.1-1-0.3-1.4
		s-0.5-0.7-0.9-0.9c-0.4-0.2-0.9-0.4-1.4-0.6s-1.2-0.2-1.9-0.2h-1.6v-1.8h1.6c0.6,0,1.2-0.1,1.7-0.2c0.5-0.2,0.9-0.4,1.3-0.7
		s0.6-0.6,0.8-1s0.3-0.8,0.3-1.3c0-0.4-0.1-0.8-0.2-1.1c-0.1-0.3-0.3-0.6-0.6-0.8c-0.3-0.2-0.6-0.4-0.9-0.5
		c-0.4-0.1-0.8-0.2-1.2-0.2c-0.8,0-1.6,0.1-2.2,0.4c-0.6,0.3-1.3,0.6-1.8,1l-1.1-1.5c0.3-0.2,0.6-0.5,1-0.7c0.4-0.2,0.8-0.4,1.2-0.6
		c0.4-0.2,0.9-0.3,1.4-0.4c0.5-0.1,1-0.1,1.6-0.1c0.9,0,1.6,0.1,2.2,0.3c0.6,0.2,1.2,0.5,1.6,0.9c0.4,0.4,0.8,0.8,1,1.4
		C491,179.7,491.1,180.3,491.1,180.9z"/>
	<path style="fill:#808080;" d="M498.6,176.5l-0.6,6.3l-1.5,0l-0.6-6.3L498.6,176.5z M502.9,176.5l-0.6,6.3h-1.5l-0.6-6.3H502.9z"/>
</g>
<path style="fill:none;stroke:#808080;stroke-miterlimit:10;" d="M523.1,186.6h157.3 M263.8,186.6h157.3"/>
<line style="fill:none;stroke:#808080;stroke-miterlimit:10;stroke-dasharray:0.6924,0.6924;" x1="695.1" y1="247.3" x2="695.1" y2="186.6"/>
<line style="fill:none;stroke:#808080;stroke-miterlimit:10;" x1="695.1" y1="198.7" x2="695.1" y2="183.5"/>
<line style="fill:none;stroke:#808080;stroke-miterlimit:10;stroke-dasharray:0.6924,0.6924;" x1="818.6" y1="247.3" x2="818.6" y2="186.6"/>
<line style="fill:none;stroke:#808080;stroke-miterlimit:10;" x1="818.6" y1="198.7" x2="818.6" y2="183.5"/>
<polyline style="fill:#808080;" points="695.1,186.6 701.2,183.5 701.2,189.6 695.1,186.6 "/>
<polyline style="fill:none;stroke:#808080;stroke-miterlimit:10;" points="695.1,186.6 701.2,183.5 701.2,189.6 695.1,186.6 "/>
<polyline style="fill:#808080;" points="818.6,186.6 812.5,189.6 812.5,183.5 818.6,186.6 "/>
<polyline style="fill:none;stroke:#808080;stroke-miterlimit:10;" points="818.6,186.6 812.5,189.6 812.5,183.5 818.6,186.6 "/>
<g>
	<path style="fill:#808080;" d="M741.8,180.9c0,0.6-0.1,1.1-0.3,1.6c-0.2,0.5-0.4,0.9-0.8,1.2c-0.3,0.3-0.7,0.6-1.2,0.9
		c-0.5,0.2-1,0.4-1.5,0.5v0.1c1.4,0.2,2.5,0.6,3.2,1.3c0.7,0.7,1.1,1.6,1.1,2.8c0,0.8-0.1,1.5-0.4,2.1c-0.3,0.6-0.6,1.2-1.2,1.6
		c-0.5,0.5-1.2,0.8-2,1.1c-0.8,0.3-1.7,0.4-2.8,0.4c-0.9,0-1.7-0.1-2.4-0.2c-0.8-0.1-1.5-0.4-2.2-0.7v-2c0.7,0.4,1.4,0.6,2.2,0.8
		c0.8,0.2,1.6,0.3,2.3,0.3c0.7,0,1.4-0.1,1.9-0.2c0.5-0.2,1-0.4,1.3-0.7c0.3-0.3,0.6-0.7,0.8-1.1s0.2-0.9,0.2-1.4
		c0-0.5-0.1-1-0.3-1.4c-0.2-0.4-0.5-0.7-0.9-0.9s-0.9-0.4-1.4-0.6c-0.6-0.1-1.2-0.2-1.9-0.2H734v-1.8h1.6c0.6,0,1.2-0.1,1.7-0.2
		c0.5-0.2,0.9-0.4,1.3-0.7s0.6-0.6,0.8-1s0.3-0.8,0.3-1.3c0-0.4-0.1-0.8-0.2-1.1s-0.3-0.6-0.6-0.8c-0.3-0.2-0.6-0.4-0.9-0.5
		c-0.4-0.1-0.8-0.2-1.2-0.2c-0.8,0-1.6,0.1-2.2,0.4c-0.6,0.3-1.3,0.6-1.8,1l-1.1-1.5c0.3-0.2,0.6-0.5,1-0.7c0.4-0.2,0.8-0.4,1.2-0.6
		c0.4-0.2,0.9-0.3,1.4-0.4c0.5-0.1,1-0.1,1.6-0.1c0.9,0,1.6,0.1,2.2,0.3c0.6,0.2,1.2,0.5,1.6,0.9c0.4,0.4,0.8,0.8,1,1.4
		S741.8,180.3,741.8,180.9z"/>
	<path style="fill:#808080;" d="M749.2,176.5l-0.6,6.3h-1.5l-0.6-6.3H749.2z"/>
	<path style="fill:#808080;" d="M770.9,190.3h-2.5v3.9h-2.1v-3.9l-8,0v-1.9l7.9-11.7h2.2l0,11.6h2.5V190.3z M766.3,188.4l0-4.2
		c0-0.4,0-0.9,0-1.4c0-0.5,0-1,0-1.4c0-0.5,0-0.9,0.1-1.3c0-0.4,0-0.7,0-1h-0.1c-0.1,0.2-0.1,0.3-0.2,0.5c-0.1,0.2-0.2,0.4-0.3,0.6
		s-0.2,0.4-0.3,0.6s-0.2,0.3-0.3,0.5l-4.9,7.2L766.3,188.4z"/>
	<path style="fill:#808080;" d="M776.8,176.5l-0.6,6.3h-1.5l-0.6-6.3H776.8z M781.1,176.5l-0.6,6.3H779l-0.6-6.3H781.1z"/>
</g>
<path style="fill:none;stroke:#808080;stroke-miterlimit:10;" d="M800.9,186.6h17.7 M695.1,186.6h17.7"/>
<line style="fill:none;stroke:#808080;stroke-miterlimit:10;stroke-dasharray:0.6924,0.6924;" x1="832.9" y1="247.3" x2="832.9" y2="186.6"/>
<line style="fill:none;stroke:#808080;stroke-miterlimit:10;" x1="832.9" y1="198.7" x2="832.9" y2="183.5"/>
<line style="fill:none;stroke:#808080;stroke-miterlimit:10;stroke-dasharray:0.6924,0.6924;" x1="1258.7" y1="247.3" x2="1258.7" y2="186.5"/>
<line style="fill:none;stroke:#808080;stroke-miterlimit:10;" x1="1258.7" y1="198.7" x2="1258.7" y2="183.5"/>
<polyline style="fill:#808080;" points="832.9,186.6 838.9,183.5 838.9,189.6 832.9,186.6 "/>
<polyline style="fill:none;stroke:#808080;stroke-miterlimit:10;" points="832.9,186.6 838.9,183.5 838.9,189.6 832.9,186.6 "/>
<polyline style="fill:#808080;" points="1258.7,186.5 1252.7,189.6 1252.7,183.5 1258.7,186.5 "/>
<polyline style="fill:none;stroke:#808080;stroke-miterlimit:10;" points="1258.7,186.5 1252.7,189.6 1252.7,183.5 1258.7,186.5 "/>
<g>
	<path style="fill:#808080;" d="M1020.8,194.2h-2.1v-10.8c0-0.3,0-0.7,0-1.1c0-0.4,0-0.8,0-1.2c0-0.4,0-0.8,0-1.1s0-0.7,0-0.9
		c-0.1,0.1-0.3,0.3-0.4,0.4c-0.1,0.1-0.2,0.2-0.3,0.3s-0.2,0.2-0.3,0.3c-0.1,0.1-0.3,0.2-0.4,0.4l-1.8,1.4l-1.1-1.5l4.5-3.5h1.8
		V194.2z"/>
	<path style="fill:#808080;" d="M1034.2,194.2l-2.1,0v-10.8c0-0.3,0-0.7,0-1.1c0-0.4,0-0.8,0-1.2c0-0.4,0-0.8,0-1.1s0-0.7,0-0.9
		c-0.1,0.1-0.3,0.3-0.4,0.4c-0.1,0.1-0.2,0.2-0.3,0.3s-0.2,0.2-0.3,0.3c-0.1,0.1-0.3,0.2-0.4,0.4l-1.8,1.4l-1.1-1.5l4.5-3.5l1.8,0
		V194.2z"/>
	<path style="fill:#808080;" d="M1044.6,176.5l-0.6,6.3h-1.5l-0.6-6.3H1044.6z"/>
	<path style="fill:#808080;" d="M1054.7,186.8c0-0.8,0-1.7,0.1-2.5c0.1-0.8,0.2-1.6,0.4-2.4c0.2-0.8,0.5-1.5,0.9-2.1
		c0.4-0.6,0.8-1.2,1.4-1.7s1.2-0.9,2-1.1s1.7-0.4,2.8-0.4c0.2,0,0.3,0,0.5,0c0.2,0,0.4,0,0.6,0c0.2,0,0.4,0,0.5,0.1s0.3,0.1,0.5,0.1
		v1.8c-0.3-0.1-0.6-0.2-0.9-0.2c-0.3,0-0.7-0.1-1-0.1c-0.7,0-1.3,0.1-1.9,0.3c-0.5,0.2-1,0.4-1.4,0.7c-0.4,0.3-0.7,0.7-1,1.1
		c-0.3,0.4-0.5,0.9-0.6,1.4s-0.3,1.1-0.4,1.7c-0.1,0.6-0.1,1.2-0.2,1.8h0.1c0.2-0.3,0.3-0.6,0.6-0.8s0.5-0.5,0.8-0.6s0.6-0.3,1-0.4
		c0.4-0.1,0.8-0.2,1.3-0.2c0.8,0,1.4,0.1,2,0.3c0.6,0.2,1.1,0.6,1.6,1s0.8,1,1,1.7s0.4,1.4,0.4,2.2c0,0.9-0.1,1.7-0.4,2.4
		c-0.2,0.7-0.6,1.3-1.1,1.8c-0.5,0.5-1,0.9-1.7,1.2c-0.6,0.3-1.4,0.4-2.2,0.4c-0.8,0-1.5-0.2-2.2-0.5c-0.7-0.3-1.3-0.8-1.8-1.4
		c-0.5-0.6-0.9-1.4-1.2-2.4S1054.7,188.1,1054.7,186.8z M1060.3,192.6c0.5,0,0.9-0.1,1.3-0.2s0.7-0.4,1-0.7c0.3-0.3,0.5-0.7,0.7-1.2
		c0.2-0.5,0.2-1.1,0.2-1.8c0-0.6-0.1-1-0.2-1.5c-0.1-0.4-0.3-0.8-0.6-1.1c-0.3-0.3-0.6-0.5-1-0.7s-0.8-0.2-1.4-0.2
		c-0.5,0-1,0.1-1.5,0.3c-0.4,0.2-0.8,0.4-1.1,0.7c-0.3,0.3-0.5,0.6-0.7,1c-0.2,0.4-0.3,0.8-0.3,1.1c0,0.5,0.1,1.1,0.2,1.6
		s0.4,1,0.7,1.4c0.3,0.4,0.7,0.8,1.1,1C1059.2,192.5,1059.7,192.6,1060.3,192.6z"/>
	<path style="fill:#808080;" d="M1072.2,176.5l-0.6,6.3h-1.5l-0.6-6.3H1072.2z M1076.5,176.5l-0.6,6.3h-1.5l-0.6-6.3H1076.5z"/>
</g>
<path style="fill:none;stroke:#808080;stroke-miterlimit:10;" d="M1096.8,186.5h161.9 M832.9,186.6l161.9,0"/>
<line style="fill:none;stroke:#808080;stroke-miterlimit:10;stroke-dasharray:0.6924,0.6924;" x1="1258.7" y1="247.3" x2="1258.7" y2="212.8"/>
<line style="fill:none;stroke:#808080;stroke-miterlimit:10;" x1="1258.7" y1="207.9" x2="1258.7" y2="192.7"/>
<line style="fill:none;stroke:#808080;stroke-miterlimit:10;stroke-dasharray:0.6924,0.6924;" x1="1687.5" y1="247.3" x2="1687.5" y2="186.5"/>
<line style="fill:none;stroke:#808080;stroke-miterlimit:10;" x1="1687.5" y1="198.7" x2="1687.5" y2="183.5"/>
<polyline style="fill:#808080;" points="1687.5,186.5 1681.4,189.6 1681.4,183.5 1687.5,186.5 "/>
<polyline style="fill:none;stroke:#808080;stroke-miterlimit:10;" points="1687.5,186.5 1681.4,189.6 1681.4,183.5 1687.5,186.5 "/>
<line style="fill:none;stroke:#808080;stroke-miterlimit:10;stroke-dasharray:0.6924,0.6924;" x1="1687.5" y1="247.3" x2="1748.3" y2="247.3"/>
<line style="fill:none;stroke:#808080;stroke-miterlimit:10;" x1="1736.1" y1="247.3" x2="1751.3" y2="247.3"/>
<line style="fill:none;stroke:#808080;stroke-miterlimit:10;stroke-dasharray:0.6924,0.6924;" x1="1687.5" y1="722.8" x2="1748.3" y2="722.8"/>
<line style="fill:none;stroke:#808080;stroke-miterlimit:10;" x1="1736.1" y1="722.8" x2="1751.3" y2="722.8"/>
<polyline style="fill:#808080;" points="1748.3,247.3 1751.3,253.4 1745.2,253.4 1748.3,247.3 "/>
<polyline style="fill:none;stroke:#808080;stroke-miterlimit:10;" points="1748.3,247.3 1751.3,253.4 1745.2,253.4 1748.3,247.3 "/>
<polyline style="fill:#808080;" points="1748.3,722.8 1745.2,716.7 1751.3,716.7 1748.3,722.8 "/>
<polyline style="fill:none;stroke:#808080;stroke-miterlimit:10;" points="1748.3,722.8 1745.2,716.7 1751.3,716.7 1748.3,722.8 "/>
<g>
	<g>
		<path style="fill:#808080;" d="M1738.2,448.4l6.3,0.6v1.5l-6.3,0.6V448.4z M1738.2,452.7l6.3,0.6v1.5l-6.3,0.6V452.7z"/>
	</g>
	<g>
		<path style="fill:#808080;" d="M1747.3,459.8c1.4,0,2.7,0.1,3.8,0.3c1.1,0.2,2,0.5,2.8,1c0.8,0.4,1.4,1,1.8,1.7s0.6,1.6,0.6,2.6
			c0,0.9-0.2,1.7-0.6,2.4c-0.4,0.7-1,1.3-1.8,1.7c-0.8,0.5-1.7,0.8-2.8,1c-1.1,0.2-2.4,0.3-3.8,0.3c-1.4,0-2.7-0.1-3.8-0.3
			c-1.1-0.2-2-0.5-2.8-1c-0.8-0.4-1.3-1-1.8-1.7s-0.6-1.5-0.6-2.5c0-0.9,0.2-1.8,0.6-2.5c0.4-0.7,1-1.3,1.7-1.7
			c0.8-0.5,1.7-0.8,2.8-1S1745.9,459.8,1747.3,459.8z M1747.3,468.6c1.2,0,2.2-0.1,3.1-0.2s1.6-0.3,2.2-0.6c0.6-0.3,1-0.6,1.3-1
			c0.3-0.4,0.4-0.9,0.4-1.5s-0.1-1.1-0.4-1.6c-0.3-0.4-0.7-0.8-1.3-1c-0.6-0.3-1.3-0.5-2.2-0.6s-1.9-0.2-3.1-0.2
			c-1.2,0-2.2,0.1-3.1,0.2s-1.6,0.3-2.2,0.6c-0.6,0.3-1,0.6-1.3,1.1c-0.3,0.4-0.4,0.9-0.4,1.6s0.1,1.1,0.4,1.5
			c0.3,0.4,0.7,0.8,1.3,1c0.6,0.3,1.3,0.5,2.2,0.6S1746.1,468.6,1747.3,468.6z"/>
	</g>
	<g>
		<path style="fill:#808080;" d="M1756,477.4v2.1h-10.8c-0.3,0-0.7,0-1.1,0c-0.4,0-0.8,0-1.2,0s-0.8,0-1.1,0c-0.4,0-0.7,0-0.9,0
			c0.1,0.1,0.3,0.3,0.4,0.4c0.1,0.1,0.2,0.2,0.3,0.3c0.1,0.1,0.2,0.2,0.3,0.3c0.1,0.1,0.2,0.3,0.4,0.4l1.4,1.8l-1.5,1.1l-3.5-4.5
			v-1.8L1756,477.4z"/>
	</g>
	<g>
	</g>
	<g>
		<path style="fill:#808080;" d="M1738.2,492.2l6.3,0.6l0,1.5l-6.3,0.6L1738.2,492.2z"/>
	</g>
	<g>
		<path style="fill:#808080;" d="M1756,499.6v10.8h-1.9l-4.5-4.2c-0.6-0.6-1.2-1.1-1.8-1.6c-0.5-0.5-1-0.9-1.6-1.2
			c-0.5-0.3-1-0.6-1.5-0.8c-0.5-0.2-1.1-0.3-1.7-0.3c-0.5,0-0.9,0.1-1.2,0.2c-0.4,0.1-0.7,0.3-0.9,0.6s-0.4,0.5-0.6,0.9
			c-0.1,0.3-0.2,0.7-0.2,1.1c0,0.8,0.2,1.4,0.5,2c0.3,0.6,0.7,1.2,1.2,1.7l-1.4,1.2c-0.3-0.3-0.6-0.7-0.8-1s-0.5-0.8-0.6-1.2
			c-0.2-0.4-0.3-0.9-0.4-1.3c-0.1-0.5-0.2-1-0.2-1.5c0-0.8,0.1-1.4,0.3-2.1c0.2-0.6,0.5-1.1,0.9-1.6c0.4-0.4,0.9-0.8,1.5-1
			c0.6-0.2,1.2-0.4,1.9-0.4c0.7,0,1.3,0.1,1.9,0.3c0.6,0.2,1.2,0.5,1.8,0.9c0.6,0.4,1.2,0.8,1.8,1.3c0.6,0.5,1.2,1.1,1.9,1.7
			l3.5,3.3h0.1v-8.2H1756z"/>
	</g>
	<g>
		<path style="fill:#808080;" d="M1756,516.9v2.1h-10.8c-0.3,0-0.7,0-1.1,0c-0.4,0-0.8,0-1.2,0s-0.8,0-1.1,0c-0.4,0-0.7,0-0.9,0
			c0.1,0.1,0.3,0.3,0.4,0.4c0.1,0.1,0.2,0.2,0.3,0.3c0.1,0.1,0.2,0.2,0.3,0.3c0.1,0.1,0.2,0.3,0.4,0.4l1.4,1.8l-1.5,1.1l-3.5-4.5
			v-1.8L1756,516.9z"/>
	</g>
</g>
<path style="fill:none;stroke:#808080;stroke-miterlimit:10;" d="M1748.3,543v179.8 M1748.3,247.3v179.8"/>
<line style="fill:none;stroke:#808080;stroke-miterlimit:10;stroke-dasharray:0.6924,0.6924;" x1="1687.5" y1="247.3" x2="1809" y2="247.3"/>
<line style="fill:none;stroke:#808080;stroke-miterlimit:10;" x1="1796.9" y1="247.3" x2="1812" y2="247.3"/>
<line style="fill:none;stroke:#808080;stroke-miterlimit:10;stroke-dasharray:0.6924,0.6924;" x1="1687.5" y1="954.7" x2="1809" y2="954.7"/>
<line style="fill:none;stroke:#808080;stroke-miterlimit:10;" x1="1796.9" y1="954.7" x2="1812.1" y2="954.7"/>
<polyline style="fill:#808080;" points="1809,247.3 1812,253.4 1806,253.4 1809,247.3 "/>
<polyline style="fill:none;stroke:#808080;stroke-miterlimit:10;" points="1809,247.3 1812,253.4 1806,253.4 1809,247.3 "/>
<polyline style="fill:#808080;" points="1809,954.7 1806,948.6 1812.1,948.6 1809,954.7 "/>
<polyline style="fill:none;stroke:#808080;stroke-miterlimit:10;" points="1809,954.7 1806,948.6 1812.1,948.6 1809,954.7 "/>
<g>
	<g>
		<path style="fill:#808080;" d="M1799,549.8l6.3,0.6v1.5l-6.3,0.6V549.8z M1799,554l6.3,0.6v1.5l-6.3,0.6V554z"/>
	</g>
	<g>
		<path style="fill:#808080;" d="M1812.8,560.5v2.5l3.9,0v2.1l-3.9,0v8h-1.9l-11.7-7.9V563h11.6v-2.5H1812.8z M1810.8,565.1h-4.2
			c-0.4,0-0.9,0-1.4,0c-0.5,0-1,0-1.4,0c-0.5,0-0.9,0-1.3-0.1s-0.7,0-1,0v0.1c0.2,0.1,0.3,0.1,0.5,0.2c0.2,0.1,0.4,0.2,0.6,0.3
			c0.2,0.1,0.4,0.2,0.6,0.3c0.2,0.1,0.3,0.2,0.5,0.3l7.2,4.9V565.1z"/>
	</g>
	<g>
		<path style="fill:#808080;" d="M1796.5,573l24.2,6.4v2l-24.2-6.4V573z"/>
	</g>
	<g>
		<path style="fill:#808080;" d="M1816.7,587.9v2.1l-10.8,0c-0.3,0-0.7,0-1.1,0c-0.4,0-0.8,0-1.2,0s-0.8,0-1.1,0c-0.4,0-0.7,0-0.9,0
			c0.1,0.1,0.3,0.3,0.4,0.4c0.1,0.1,0.2,0.2,0.3,0.3c0.1,0.1,0.2,0.2,0.3,0.3c0.1,0.1,0.2,0.3,0.4,0.4l1.4,1.8l-1.5,1.1l-3.5-4.5
			v-1.8L1816.7,587.9z"/>
	</g>
	<g>
	</g>
	<g>
		<path style="fill:#808080;" d="M1816.7,608v2.1h-10.8c-0.3,0-0.7,0-1.1,0c-0.4,0-0.8,0-1.2,0c-0.4,0-0.8,0-1.1,0
			c-0.4,0-0.7,0-0.9,0c0.1,0.1,0.3,0.3,0.4,0.4c0.1,0.1,0.2,0.2,0.3,0.3s0.2,0.2,0.3,0.3c0.1,0.1,0.2,0.3,0.4,0.4l1.4,1.8l-1.5,1.1
			l-3.5-4.5V608H1816.7z"/>
	</g>
	<g>
	</g>
	<g>
		<path style="fill:#808080;" d="M1799,622.7l6.3,0.6v1.5l-6.3,0.6V622.7z"/>
	</g>
	<g>
		<path style="fill:#808080;" d="M1806.8,629.9c0.8,0,1.7,0,2.5,0.1s1.6,0.2,2.4,0.4c0.8,0.2,1.5,0.5,2.1,0.9
			c0.7,0.4,1.2,0.8,1.7,1.4s0.8,1.2,1.1,2c0.3,0.8,0.4,1.7,0.4,2.8c0,0.1,0,0.3,0,0.5s0,0.4,0,0.5c0,0.2,0,0.4-0.1,0.5
			c0,0.2-0.1,0.3-0.1,0.5h-1.9c0.1-0.3,0.2-0.6,0.2-0.9c0-0.3,0.1-0.7,0.1-1c0-1.1-0.2-1.9-0.6-2.6c-0.4-0.7-0.9-1.2-1.5-1.6
			s-1.4-0.7-2.2-0.9c-0.8-0.2-1.7-0.3-2.7-0.3v0.2c0.3,0.2,0.5,0.3,0.8,0.6c0.2,0.2,0.5,0.5,0.6,0.8c0.2,0.3,0.3,0.6,0.4,1
			c0.1,0.4,0.2,0.8,0.2,1.3c0,0.8-0.1,1.4-0.3,2c-0.2,0.6-0.6,1.1-1,1.6c-0.5,0.4-1,0.8-1.7,1c-0.7,0.2-1.4,0.3-2.2,0.3
			c-0.9,0-1.7-0.1-2.4-0.4s-1.3-0.6-1.8-1.1c-0.5-0.5-0.9-1-1.2-1.7s-0.4-1.4-0.4-2.2c0-0.8,0.2-1.5,0.5-2.2
			c0.3-0.7,0.8-1.3,1.4-1.8c0.6-0.5,1.4-0.9,2.4-1.2C1804.3,630.1,1805.5,629.9,1806.8,629.9z M1800.9,635.5c0,0.5,0.1,0.9,0.2,1.3
			c0.2,0.4,0.4,0.7,0.7,1c0.3,0.3,0.7,0.5,1.3,0.7c0.5,0.2,1.1,0.2,1.8,0.2c0.6,0,1-0.1,1.5-0.2c0.4-0.1,0.8-0.3,1.1-0.6
			c0.3-0.3,0.5-0.6,0.7-1s0.2-0.8,0.2-1.4c0-0.5-0.1-1-0.3-1.5c-0.2-0.4-0.4-0.8-0.7-1.1c-0.3-0.3-0.6-0.5-1-0.7s-0.8-0.3-1.1-0.3
			c-0.5,0-1.1,0.1-1.6,0.2c-0.5,0.1-1,0.4-1.4,0.7c-0.4,0.3-0.8,0.7-1,1.1C1801.1,634.5,1800.9,635,1800.9,635.5z"/>
	</g>
	<g>
		<path style="fill:#808080;" d="M1816.7,647.5v2.1h-10.8c-0.3,0-0.7,0-1.1,0c-0.4,0-0.8,0-1.2,0c-0.4,0-0.8,0-1.1,0
			c-0.4,0-0.7,0-0.9,0c0.1,0.1,0.3,0.3,0.4,0.4c0.1,0.1,0.2,0.2,0.3,0.3s0.2,0.2,0.3,0.3c0.1,0.1,0.2,0.3,0.4,0.4l1.4,1.8l-1.5,1.1
			l-3.5-4.5v-1.8H1816.7z"/>
	</g>
</g>
<path style="fill:none;stroke:#808080;stroke-miterlimit:10;" d="M1809,673.6v281.2 M1809,247.3l0,281.2"/>
<line style="fill:none;stroke:#808080;stroke-miterlimit:10;stroke-dasharray:0.6924,0.6924;" x1="1687.5" y1="954.7" x2="1687.5" y2="1015.5"/>
<line style="fill:none;stroke:#808080;stroke-miterlimit:10;" x1="1687.5" y1="1003.3" x2="1687.5" y2="1018.5"/>
<line style="fill:none;stroke:#808080;stroke-miterlimit:10;stroke-dasharray:0.6924,0.6924;" x1="1345" y1="954.7" x2="1345" y2="1015.5"/>
<line style="fill:none;stroke:#808080;stroke-miterlimit:10;" x1="1345" y1="1003.3" x2="1345" y2="1018.5"/>
<polyline style="fill:#808080;" points="1687.5,1015.5 1681.5,1018.5 1681.5,1012.4 1687.5,1015.5 "/>
<polyline style="fill:none;stroke:#808080;stroke-miterlimit:10;" points="1687.5,1015.5 1681.5,1018.5 1681.5,1012.4 
	1687.5,1015.5 "/>
<polyline style="fill:#808080;" points="1345,1015.5 1351.1,1012.4 1351.1,1018.5 1345,1015.5 "/>
<polyline style="fill:none;stroke:#808080;stroke-miterlimit:10;" points="1345,1015.5 1351.1,1012.4 1351.1,1018.5 1345,1015.5 "/>
<g>
	<path style="fill:#808080;" d="M1502,1013.2c0,0.8,0,1.7-0.1,2.5s-0.2,1.6-0.4,2.4c-0.2,0.8-0.5,1.5-0.9,2.1
		c-0.4,0.7-0.8,1.2-1.4,1.7s-1.2,0.8-2,1.1c-0.8,0.3-1.7,0.4-2.8,0.4c-0.1,0-0.3,0-0.5,0s-0.4,0-0.5,0c-0.2,0-0.4,0-0.5-0.1
		c-0.2,0-0.3-0.1-0.5-0.1v-1.9c0.3,0.1,0.6,0.2,0.9,0.2c0.3,0,0.7,0.1,1,0.1c1.1,0,1.9-0.2,2.6-0.6c0.7-0.4,1.2-0.9,1.6-1.5
		s0.7-1.4,0.9-2.2c0.2-0.8,0.3-1.7,0.3-2.7h-0.2c-0.2,0.3-0.3,0.5-0.6,0.8c-0.2,0.2-0.5,0.5-0.8,0.6c-0.3,0.2-0.6,0.3-1,0.4
		c-0.4,0.1-0.8,0.2-1.3,0.2c-0.8,0-1.4-0.1-2-0.3c-0.6-0.2-1.1-0.6-1.6-1c-0.4-0.5-0.8-1-1-1.7c-0.2-0.7-0.3-1.4-0.3-2.2
		c0-0.9,0.1-1.7,0.4-2.4s0.6-1.3,1.1-1.8c0.5-0.5,1-0.9,1.7-1.2s1.4-0.4,2.2-0.4c0.8,0,1.5,0.2,2.2,0.5c0.7,0.3,1.3,0.8,1.8,1.4
		c0.5,0.6,0.9,1.4,1.2,2.4C1501.8,1010.8,1502,1011.9,1502,1013.2z M1496.3,1007.4c-0.5,0-0.9,0.1-1.3,0.2c-0.4,0.2-0.7,0.4-1,0.7
		c-0.3,0.3-0.5,0.7-0.7,1.3c-0.2,0.5-0.2,1.1-0.2,1.8c0,0.6,0.1,1,0.2,1.5c0.1,0.4,0.3,0.8,0.6,1.1c0.3,0.3,0.6,0.5,1,0.7
		s0.8,0.2,1.4,0.2c0.5,0,1-0.1,1.5-0.3c0.4-0.2,0.8-0.4,1.1-0.7c0.3-0.3,0.5-0.6,0.7-1s0.3-0.8,0.3-1.1c0-0.5-0.1-1.1-0.2-1.6
		c-0.1-0.5-0.4-1-0.7-1.4c-0.3-0.4-0.7-0.8-1.1-1C1497.4,1007.5,1496.9,1007.4,1496.3,1007.4z"/>
	<path style="fill:#808080;" d="M1508.6,1005.4l-0.6,6.3h-1.5l-0.6-6.3H1508.6z"/>
	<path style="fill:#808080;" d="M1528.8,1009.8c0,0.6-0.1,1.1-0.3,1.6c-0.2,0.5-0.4,0.9-0.8,1.2c-0.3,0.3-0.7,0.6-1.2,0.9
		c-0.5,0.2-1,0.4-1.5,0.5v0.1c1.4,0.2,2.5,0.6,3.2,1.3s1.1,1.6,1.1,2.8c0,0.8-0.1,1.5-0.4,2.1s-0.6,1.2-1.2,1.6
		c-0.5,0.5-1.2,0.8-2,1.1s-1.7,0.4-2.8,0.4c-0.9,0-1.7-0.1-2.4-0.2c-0.8-0.1-1.5-0.4-2.2-0.7v-2c0.7,0.4,1.4,0.6,2.2,0.8
		c0.8,0.2,1.6,0.3,2.3,0.3c0.7,0,1.4-0.1,1.9-0.2c0.5-0.2,1-0.4,1.3-0.7c0.3-0.3,0.6-0.7,0.8-1.1c0.2-0.4,0.2-0.9,0.2-1.4
		c0-0.5-0.1-1-0.3-1.4c-0.2-0.4-0.5-0.7-0.9-0.9c-0.4-0.2-0.9-0.4-1.4-0.6c-0.6-0.1-1.2-0.2-1.9-0.2h-1.6v-1.8h1.6
		c0.6,0,1.2-0.1,1.7-0.2s0.9-0.4,1.3-0.7c0.3-0.3,0.6-0.6,0.8-1s0.3-0.8,0.3-1.3c0-0.4-0.1-0.8-0.2-1.1c-0.1-0.3-0.3-0.6-0.6-0.8
		s-0.6-0.4-0.9-0.5c-0.4-0.1-0.8-0.2-1.2-0.2c-0.8,0-1.6,0.1-2.2,0.4c-0.6,0.3-1.3,0.6-1.8,1l-1.1-1.5c0.3-0.2,0.6-0.5,1-0.7
		c0.4-0.2,0.8-0.4,1.2-0.6c0.4-0.2,0.9-0.3,1.4-0.4c0.5-0.1,1-0.1,1.6-0.1c0.9,0,1.6,0.1,2.2,0.3c0.6,0.2,1.2,0.5,1.6,0.9
		c0.4,0.4,0.8,0.8,1,1.4S1528.8,1009.2,1528.8,1009.8z"/>
	<path style="fill:#808080;" d="M1536.3,1005.4l-0.6,6.3l-1.5,0l-0.6-6.3L1536.3,1005.4z M1540.5,1005.4l-0.6,6.3h-1.5l-0.6-6.3
		H1540.5z"/>
</g>
<path style="fill:none;stroke:#808080;stroke-miterlimit:10;" d="M1472.2,1015.5H1345 M1687.5,1015.5l-127.2,0"/>
<line style="fill:none;stroke:#808080;stroke-miterlimit:10;stroke-dasharray:0.6924,0.6924;" x1="1345" y1="954.7" x2="1345" y2="981.5"/>
<line style="fill:none;stroke:#808080;stroke-miterlimit:10;" x1="1345" y1="969.4" x2="1345" y2="984.6"/>
<line style="fill:none;stroke:#808080;stroke-miterlimit:10;stroke-dasharray:0.6924,0.6924;" x1="1258.6" y1="954.7" x2="1258.6" y2="981.5"/>
<line style="fill:none;stroke:#808080;stroke-miterlimit:10;" x1="1258.6" y1="969.4" x2="1258.6" y2="984.6"/>
<polyline style="fill:#808080;" points="1345,981.5 1338.9,984.6 1338.9,978.5 1345,981.5 "/>
<polyline style="fill:none;stroke:#808080;stroke-miterlimit:10;" points="1345,981.5 1338.9,984.6 1338.9,978.5 1345,981.5 "/>
<polyline style="fill:#808080;" points="1258.6,981.5 1264.7,978.5 1264.7,984.6 1258.6,981.5 "/>
<polyline style="fill:none;stroke:#808080;stroke-miterlimit:10;" points="1258.6,981.5 1264.7,978.5 1264.7,984.6 1258.6,981.5 "/>
<g>
	<path style="fill:#808080;" d="M1286.8,989.6H1276v-1.9l4.2-4.5c0.6-0.6,1.1-1.2,1.6-1.8c0.5-0.5,0.9-1,1.2-1.6
		c0.3-0.5,0.6-1,0.8-1.5c0.2-0.5,0.3-1.1,0.3-1.7c0-0.5-0.1-0.9-0.2-1.2c-0.1-0.4-0.3-0.7-0.6-0.9c-0.2-0.2-0.5-0.4-0.9-0.6
		c-0.3-0.1-0.7-0.2-1.1-0.2c-0.8,0-1.4,0.2-2,0.5c-0.6,0.3-1.2,0.7-1.7,1.2l-1.2-1.4c0.3-0.3,0.7-0.6,1-0.8c0.4-0.2,0.8-0.5,1.2-0.6
		c0.4-0.2,0.9-0.3,1.3-0.4s1-0.2,1.5-0.2c0.8,0,1.4,0.1,2.1,0.3c0.6,0.2,1.1,0.5,1.6,0.9c0.4,0.4,0.8,0.9,1,1.5
		c0.2,0.6,0.3,1.2,0.3,1.9c0,0.7-0.1,1.3-0.3,1.9c-0.2,0.6-0.5,1.2-0.9,1.8c-0.4,0.6-0.8,1.2-1.3,1.8c-0.5,0.6-1.1,1.2-1.7,1.9
		l-3.3,3.5v0.1h8.2V989.6z"/>
	<path style="fill:#808080;" d="M1293.8,971.9l-0.6,6.3h-1.5l-0.6-6.3H1293.8z"/>
	<path style="fill:#808080;" d="M1315.4,985.7h-2.5v3.9h-2.1v-3.9h-8v-1.9l7.9-11.7h2.2v11.6h2.5V985.7z M1310.8,983.8v-4.2
		c0-0.4,0-0.9,0-1.4c0-0.5,0-1,0-1.4c0-0.5,0-0.9,0.1-1.3c0-0.4,0-0.7,0-1h-0.1c-0.1,0.2-0.1,0.3-0.2,0.5c-0.1,0.2-0.2,0.4-0.3,0.6
		c-0.1,0.2-0.2,0.4-0.3,0.6c-0.1,0.2-0.2,0.3-0.3,0.5l-4.9,7.2H1310.8z"/>
	<path style="fill:#808080;" d="M1321.4,971.9l-0.6,6.3h-1.5l-0.6-6.3H1321.4z M1325.6,971.9l-0.6,6.3h-1.5l-0.6-6.3H1325.6z"/>
</g>
<path style="fill:none;stroke:#808080;stroke-miterlimit:10;" d="M1257.7,981.5h0.8 M1345,981.5h0.8"/>
<line style="fill:none;stroke:#808080;stroke-miterlimit:10;stroke-dasharray:0.6924,0.6924;" x1="1258.6" y1="954.7" x2="1258.6" y2="1015.5"/>
<line style="fill:none;stroke:#808080;stroke-miterlimit:10;" x1="1258.6" y1="1003.3" x2="1258.6" y2="1018.5"/>
<line style="fill:none;stroke:#808080;stroke-miterlimit:10;stroke-dasharray:0.6924,0.6924;" x1="263.9" y1="954.7" x2="263.9" y2="1015.5"/>
<line style="fill:none;stroke:#808080;stroke-miterlimit:10;" x1="263.9" y1="1003.3" x2="263.9" y2="1018.5"/>
<polyline style="fill:#808080;" points="1258.6,1015.5 1252.5,1018.5 1252.5,1012.4 1258.6,1015.5 "/>
<polyline style="fill:none;stroke:#808080;stroke-miterlimit:10;" points="1258.6,1015.5 1252.5,1018.5 1252.5,1012.4 
	1258.6,1015.5 "/>
<polyline style="fill:#808080;" points="263.9,1015.5 269.9,1012.5 269.9,1018.5 263.9,1015.5 "/>
<polyline style="fill:none;stroke:#808080;stroke-miterlimit:10;" points="263.9,1015.5 269.9,1012.5 269.9,1018.5 263.9,1015.5 "/>
<g>
	<path style="fill:#808080;" d="M711.2,1023.1l-10.8,0v-1.9l4.2-4.5c0.6-0.6,1.1-1.2,1.6-1.8c0.5-0.5,0.9-1,1.2-1.6
		c0.3-0.5,0.6-1,0.8-1.5c0.2-0.5,0.3-1.1,0.3-1.7c0-0.5-0.1-0.9-0.2-1.2c-0.1-0.4-0.3-0.7-0.6-0.9s-0.5-0.4-0.9-0.6
		c-0.3-0.1-0.7-0.2-1.1-0.2c-0.8,0-1.4,0.2-2,0.5c-0.6,0.3-1.2,0.7-1.7,1.2l-1.2-1.4c0.3-0.3,0.7-0.6,1-0.8c0.4-0.2,0.8-0.5,1.2-0.6
		c0.4-0.2,0.9-0.3,1.3-0.4c0.5-0.1,1-0.2,1.5-0.2c0.8,0,1.4,0.1,2.1,0.3c0.6,0.2,1.1,0.5,1.6,0.9s0.8,0.9,1,1.5
		c0.2,0.6,0.4,1.2,0.4,1.9c0,0.7-0.1,1.3-0.3,1.9c-0.2,0.6-0.5,1.2-0.9,1.8s-0.8,1.2-1.3,1.8c-0.5,0.6-1.1,1.2-1.7,1.9l-3.3,3.5v0.1
		l8.2,0V1023.1z"/>
	<path style="fill:#808080;" d="M714,1015.7c0-0.8,0-1.7,0.1-2.5s0.2-1.6,0.4-2.4c0.2-0.8,0.5-1.5,0.9-2.1c0.4-0.6,0.8-1.2,1.4-1.7
		s1.2-0.9,2-1.1c0.8-0.3,1.7-0.4,2.8-0.4c0.2,0,0.3,0,0.5,0s0.4,0,0.6,0c0.2,0,0.4,0,0.5,0.1c0.2,0,0.3,0.1,0.5,0.1v1.8
		c-0.3-0.1-0.6-0.2-0.9-0.2c-0.3,0-0.7-0.1-1-0.1c-0.7,0-1.3,0.1-1.9,0.3c-0.5,0.2-1,0.4-1.4,0.7s-0.7,0.7-1,1.1
		c-0.3,0.4-0.5,0.9-0.6,1.4c-0.2,0.5-0.3,1.1-0.4,1.7c-0.1,0.6-0.1,1.2-0.2,1.8h0.1c0.2-0.3,0.3-0.6,0.6-0.8s0.5-0.5,0.8-0.6
		c0.3-0.2,0.6-0.3,1-0.4c0.4-0.1,0.8-0.2,1.3-0.2c0.8,0,1.4,0.1,2,0.3c0.6,0.2,1.1,0.6,1.6,1s0.8,1,1,1.7c0.2,0.7,0.4,1.4,0.4,2.2
		c0,0.9-0.1,1.7-0.4,2.4s-0.6,1.3-1.1,1.8c-0.5,0.5-1,0.9-1.7,1.2c-0.6,0.3-1.4,0.4-2.2,0.4c-0.8,0-1.5-0.2-2.2-0.5
		c-0.7-0.3-1.3-0.8-1.8-1.4c-0.5-0.6-0.9-1.4-1.2-2.4S714,1017,714,1015.7z M719.6,1021.6c0.5,0,0.9-0.1,1.3-0.2s0.7-0.4,1-0.7
		s0.5-0.7,0.7-1.2c0.2-0.5,0.2-1.1,0.2-1.8c0-0.6-0.1-1-0.2-1.5c-0.1-0.4-0.3-0.8-0.6-1.1s-0.6-0.5-1-0.7c-0.4-0.2-0.8-0.2-1.4-0.2
		c-0.5,0-1,0.1-1.5,0.3c-0.4,0.2-0.8,0.4-1.1,0.7c-0.3,0.3-0.5,0.6-0.7,1c-0.2,0.4-0.3,0.8-0.3,1.1c0,0.5,0.1,1.1,0.2,1.6
		c0.1,0.5,0.4,1,0.7,1.4c0.3,0.4,0.7,0.8,1.1,1C718.6,1021.4,719.1,1021.6,719.6,1021.6z"/>
	<path style="fill:#808080;" d="M731.5,1005.4l-0.6,6.3h-1.5l-0.6-6.3H731.5z"/>
	<path style="fill:#808080;" d="M748.7,1023.1h-2.1v-10.8c0-0.3,0-0.7,0-1.1c0-0.4,0-0.8,0-1.2s0-0.8,0-1.1c0-0.4,0-0.7,0-0.9
		c-0.1,0.1-0.3,0.3-0.4,0.4c-0.1,0.1-0.2,0.2-0.3,0.3c-0.1,0.1-0.2,0.2-0.3,0.3c-0.1,0.1-0.3,0.2-0.4,0.4l-1.8,1.4l-1.1-1.5l4.5-3.5
		h1.8V1023.1z"/>
	<path style="fill:#808080;" d="M765.9,1014.4c0,1.4-0.1,2.7-0.3,3.8c-0.2,1.1-0.5,2-1,2.8c-0.4,0.8-1,1.4-1.7,1.8s-1.6,0.6-2.6,0.6
		c-0.9,0-1.7-0.2-2.4-0.6s-1.3-1-1.7-1.8c-0.5-0.8-0.8-1.7-1-2.8c-0.2-1.1-0.3-2.4-0.3-3.8c0-1.4,0.1-2.7,0.3-3.8s0.5-2,1-2.8
		s1-1.3,1.7-1.8c0.7-0.4,1.5-0.6,2.5-0.6c0.9,0,1.8,0.2,2.5,0.6c0.7,0.4,1.3,1,1.7,1.7c0.5,0.8,0.8,1.7,1,2.8
		S765.9,1013,765.9,1014.4z M757,1014.4c0,1.2,0.1,2.2,0.2,3.1s0.3,1.6,0.6,2.2c0.3,0.6,0.6,1,1,1.3c0.4,0.3,0.9,0.4,1.5,0.4
		c0.6,0,1.1-0.1,1.6-0.4c0.4-0.3,0.8-0.7,1-1.3c0.3-0.6,0.5-1.3,0.6-2.2s0.2-1.9,0.2-3.1c0-1.2-0.1-2.2-0.2-3.1
		c-0.1-0.9-0.3-1.6-0.6-2.2c-0.3-0.6-0.6-1-1-1.3c-0.4-0.3-0.9-0.4-1.6-0.4c-0.6,0-1.1,0.1-1.5,0.4c-0.4,0.3-0.8,0.7-1,1.3
		c-0.3,0.6-0.5,1.3-0.6,2.2C757.1,1012.2,757,1013.3,757,1014.4z"/>
	<path style="fill:#808080;" d="M781.8,1023.1h-2.1v-10.8c0-0.3,0-0.7,0-1.1c0-0.4,0-0.8,0-1.2s0-0.8,0-1.1c0-0.4,0-0.7,0-0.9
		c-0.1,0.1-0.3,0.3-0.4,0.4c-0.1,0.1-0.2,0.2-0.3,0.3c-0.1,0.1-0.2,0.2-0.3,0.3c-0.1,0.1-0.3,0.2-0.4,0.4l-1.8,1.4l-1.1-1.5l4.5-3.5
		h1.8V1023.1z"/>
	<path style="fill:#808080;" d="M796.1,1002.9l-6.4,24.2h-2l6.4-24.2H796.1z"/>
	<path style="fill:#808080;" d="M810.1,1019.2h-2.5v3.9h-2.1v-3.9l-8,0v-1.9l7.9-11.7h2.2v11.6h2.5V1019.2z M805.4,1017.3v-4.2
		c0-0.4,0-0.9,0-1.4c0-0.5,0-1,0-1.4c0-0.5,0-0.9,0.1-1.3c0-0.4,0-0.7,0-1h-0.1c-0.1,0.2-0.1,0.3-0.2,0.5c-0.1,0.2-0.2,0.4-0.3,0.6
		c-0.1,0.2-0.2,0.4-0.3,0.6c-0.1,0.2-0.2,0.3-0.3,0.5l-4.9,7.2L805.4,1017.3z"/>
	<path style="fill:#808080;" d="M816,1005.4l-0.6,6.3h-1.5l-0.6-6.3H816z M820.3,1005.4l-0.6,6.3h-1.5l-0.6-6.3H820.3z"/>
</g>
<path style="fill:none;stroke:#808080;stroke-miterlimit:10;" d="M681.7,1015.5H263.9 M1258.6,1015.5l-417.9,0"/>
<line style="fill:none;stroke:#808080;stroke-miterlimit:10;stroke-dasharray:0.6924,0.6924;" x1="228.4" y1="867.6" x2="167.6" y2="867.6"/>
<line style="fill:none;stroke:#808080;stroke-miterlimit:10;" x1="179.8" y1="867.6" x2="164.6" y2="867.6"/>
<line style="fill:none;stroke:#808080;stroke-miterlimit:10;stroke-dasharray:0.6924,0.6924;" x1="228.4" y1="613" x2="167.6" y2="613"/>
<line style="fill:none;stroke:#808080;stroke-miterlimit:10;" x1="179.8" y1="613" x2="164.6" y2="613"/>
<polyline style="fill:#808080;" points="167.6,867.6 164.6,861.5 170.7,861.5 167.6,867.6 "/>
<polyline style="fill:none;stroke:#808080;stroke-miterlimit:10;" points="167.6,867.6 164.6,861.5 170.7,861.5 167.6,867.6 "/>
<polyline style="fill:#808080;" points="167.6,613 170.7,619.1 164.6,619.1 167.6,613 "/>
<polyline style="fill:none;stroke:#808080;stroke-miterlimit:10;" points="167.6,613 170.7,619.1 164.6,619.1 167.6,613 "/>
<g>
	<g>
		<path style="fill:#808080;" d="M157.6,689.1l6.3,0.6v1.5l-6.3,0.6V689.1z M157.6,693.3l6.3,0.6v1.5l-6.3,0.6V693.3z"/>
	</g>
	<g>
		<path style="fill:#808080;" d="M175.3,700.7v10.8h-1.9l-4.5-4.2c-0.6-0.6-1.2-1.1-1.8-1.6c-0.5-0.5-1-0.9-1.6-1.2
			c-0.5-0.3-1-0.6-1.5-0.8c-0.5-0.2-1.1-0.3-1.7-0.3c-0.5,0-0.9,0.1-1.2,0.2c-0.4,0.1-0.7,0.3-0.9,0.6c-0.2,0.2-0.4,0.5-0.6,0.9
			c-0.1,0.3-0.2,0.7-0.2,1.1c0,0.8,0.2,1.4,0.5,2c0.3,0.6,0.7,1.2,1.2,1.7l-1.4,1.2c-0.3-0.3-0.6-0.7-0.8-1
			c-0.2-0.4-0.5-0.8-0.6-1.2c-0.2-0.4-0.3-0.9-0.4-1.3s-0.2-1-0.2-1.5c0-0.8,0.1-1.4,0.3-2.1c0.2-0.6,0.5-1.1,0.9-1.6
			c0.4-0.4,0.9-0.8,1.5-1s1.2-0.3,1.9-0.3c0.7,0,1.3,0.1,1.9,0.3c0.6,0.2,1.2,0.5,1.8,0.9c0.6,0.4,1.2,0.8,1.8,1.3
			c0.6,0.5,1.2,1.1,1.9,1.7l3.5,3.3h0.1l0-8.2H175.3z"/>
	</g>
	<g>
		<path style="fill:#808080;" d="M155.1,712.3l24.2,6.4v2l-24.2-6.4V712.3z"/>
	</g>
	<g>
		<path style="fill:#808080;" d="M175.3,727.2v2.1l-10.8,0c-0.3,0-0.7,0-1.1,0c-0.4,0-0.8,0-1.2,0c-0.4,0-0.8,0-1.1,0
			c-0.4,0-0.7,0-0.9,0c0.1,0.1,0.3,0.3,0.4,0.4c0.1,0.1,0.2,0.2,0.3,0.3s0.2,0.2,0.3,0.3c0.1,0.1,0.2,0.3,0.4,0.4l1.4,1.8l-1.5,1.1
			l-3.5-4.5v-1.8L175.3,727.2z"/>
	</g>
	<g>
	</g>
	<g>
		<path style="fill:#808080;" d="M166.6,743.5c1.4,0,2.7,0.1,3.8,0.3c1.1,0.2,2,0.5,2.8,1c0.8,0.4,1.4,1,1.8,1.7s0.6,1.6,0.6,2.6
			c0,0.9-0.2,1.7-0.6,2.4c-0.4,0.7-1,1.3-1.8,1.7c-0.8,0.5-1.7,0.8-2.8,1s-2.4,0.3-3.8,0.3c-1.4,0-2.7-0.1-3.8-0.3
			c-1.1-0.2-2-0.5-2.8-1c-0.8-0.4-1.3-1-1.8-1.7c-0.4-0.7-0.6-1.5-0.6-2.5c0-0.9,0.2-1.8,0.6-2.5c0.4-0.7,1-1.3,1.7-1.7
			c0.8-0.5,1.7-0.8,2.8-1C163.9,743.6,165.2,743.5,166.6,743.5z M166.6,752.4c1.2,0,2.2-0.1,3.1-0.2c0.9-0.1,1.6-0.3,2.2-0.6
			c0.6-0.3,1-0.6,1.3-1c0.3-0.4,0.4-0.9,0.4-1.5s-0.1-1.1-0.4-1.6c-0.3-0.4-0.7-0.8-1.3-1c-0.6-0.3-1.3-0.5-2.2-0.6
			c-0.9-0.1-1.9-0.2-3.1-0.2c-1.2,0-2.2,0.1-3.1,0.2c-0.9,0.1-1.6,0.3-2.2,0.6c-0.6,0.3-1,0.6-1.3,1c-0.3,0.4-0.4,0.9-0.4,1.6
			c0,0.6,0.1,1.1,0.4,1.5c0.3,0.4,0.7,0.8,1.3,1c0.6,0.3,1.3,0.5,2.2,0.6C164.4,752.4,165.4,752.4,166.6,752.4z"/>
	</g>
	<g>
		<path style="fill:#808080;" d="M175.3,761.2v2.1l-10.8,0c-0.3,0-0.7,0-1.1,0s-0.8,0-1.2,0c-0.4,0-0.8,0-1.1,0c-0.4,0-0.7,0-0.9,0
			c0.1,0.1,0.3,0.3,0.4,0.4c0.1,0.1,0.2,0.2,0.3,0.3s0.2,0.2,0.3,0.3c0.1,0.1,0.2,0.3,0.4,0.4l1.4,1.8l-1.5,1.1L158,763v-1.8
			L175.3,761.2z"/>
	</g>
	<g>
	</g>
	<g>
		<path style="fill:#808080;" d="M157.6,775.9l6.3,0.6v1.5l-6.3,0.6V775.9z"/>
	</g>
	<g>
		<path style="fill:#808080;" d="M167.9,793.9c-0.8,0-1.7,0-2.5-0.1c-0.8-0.1-1.6-0.2-2.4-0.4c-0.8-0.2-1.5-0.5-2.1-0.9
			c-0.6-0.4-1.2-0.8-1.7-1.4s-0.9-1.2-1.1-2c-0.3-0.8-0.4-1.7-0.4-2.8c0-0.2,0-0.3,0-0.5c0-0.2,0-0.4,0-0.6c0-0.2,0-0.4,0.1-0.5
			c0-0.2,0.1-0.3,0.1-0.5h1.8c-0.1,0.3-0.2,0.6-0.2,0.9c0,0.3-0.1,0.7-0.1,1c0,0.7,0.1,1.3,0.3,1.9c0.2,0.5,0.4,1,0.7,1.4
			s0.7,0.7,1.1,1c0.4,0.3,0.9,0.5,1.4,0.6c0.5,0.2,1.1,0.3,1.7,0.4s1.2,0.1,1.8,0.2v-0.1c-0.3-0.2-0.6-0.3-0.8-0.6s-0.5-0.5-0.6-0.8
			c-0.2-0.3-0.3-0.6-0.4-1c-0.1-0.4-0.2-0.8-0.2-1.3c0-0.8,0.1-1.4,0.3-2c0.2-0.6,0.6-1.1,1-1.6c0.5-0.4,1-0.8,1.7-1
			c0.7-0.2,1.4-0.4,2.2-0.4c0.9,0,1.7,0.1,2.4,0.4c0.7,0.2,1.3,0.6,1.8,1.1c0.5,0.5,0.9,1,1.2,1.7c0.3,0.6,0.4,1.4,0.4,2.2
			c0,0.8-0.2,1.5-0.5,2.2c-0.3,0.7-0.8,1.3-1.4,1.8c-0.6,0.5-1.4,0.9-2.4,1.2S169.2,793.9,167.9,793.9z M173.7,788.3
			c0-0.5-0.1-0.9-0.2-1.3s-0.4-0.7-0.7-1c-0.3-0.3-0.7-0.5-1.2-0.7c-0.5-0.2-1.1-0.2-1.8-0.2c-0.6,0-1,0.1-1.5,0.2
			c-0.4,0.1-0.8,0.3-1.1,0.6c-0.3,0.3-0.5,0.6-0.7,1s-0.2,0.8-0.2,1.4c0,0.5,0.1,1,0.3,1.5c0.2,0.4,0.4,0.8,0.7,1.1
			c0.3,0.3,0.6,0.5,1,0.7s0.8,0.3,1.1,0.3c0.5,0,1.1-0.1,1.6-0.2c0.5-0.1,1-0.4,1.4-0.7c0.4-0.3,0.8-0.7,1-1.1
			C173.6,789.4,173.7,788.9,173.7,788.3z"/>
	</g>
</g>
<path style="fill:none;stroke:#808080;stroke-miterlimit:10;" d="M167.6,667.7l0-54.7 M167.6,867.6v-54.8"/>
<line style="fill:none;stroke:#808080;stroke-miterlimit:10;stroke-dasharray:0.6924,0.6924;" x1="228.4" y1="576" x2="167.6" y2="576"/>
<line style="fill:none;stroke:#808080;stroke-miterlimit:10;" x1="179.8" y1="576" x2="164.6" y2="576"/>
<line style="fill:none;stroke:#808080;stroke-miterlimit:10;stroke-dasharray:0.6924,0.6924;" x1="228.4" y1="321.4" x2="167.6" y2="321.4"/>
<line style="fill:none;stroke:#808080;stroke-miterlimit:10;" x1="179.8" y1="321.4" x2="164.6" y2="321.4"/>
<polyline style="fill:#808080;" points="167.6,576 164.6,569.9 170.7,569.9 167.6,576 "/>
<polyline style="fill:none;stroke:#808080;stroke-miterlimit:10;" points="167.6,576 164.6,569.9 170.7,569.9 167.6,576 "/>
<polyline style="fill:#808080;" points="167.6,321.4 170.7,327.4 164.6,327.4 167.6,321.4 "/>
<polyline style="fill:none;stroke:#808080;stroke-miterlimit:10;" points="167.6,321.4 170.7,327.4 164.6,327.4 167.6,321.4 "/>
<g>
	<g>
		<path style="fill:#808080;" d="M157.6,397.5l6.3,0.6v1.5l-6.3,0.6V397.5z M157.6,401.7l6.3,0.6v1.5l-6.3,0.6V401.7z"/>
	</g>
	<g>
		<path style="fill:#808080;" d="M175.3,409.1v10.8h-1.9l-4.5-4.2c-0.6-0.6-1.2-1.1-1.8-1.6c-0.5-0.5-1-0.9-1.6-1.2
			c-0.5-0.3-1-0.6-1.5-0.8c-0.5-0.2-1.1-0.3-1.7-0.3c-0.5,0-0.9,0.1-1.2,0.2c-0.4,0.1-0.7,0.3-0.9,0.6s-0.4,0.5-0.6,0.9
			c-0.1,0.3-0.2,0.7-0.2,1.1c0,0.8,0.2,1.4,0.5,2c0.3,0.6,0.7,1.2,1.2,1.7l-1.4,1.2c-0.3-0.3-0.6-0.7-0.8-1
			c-0.2-0.4-0.5-0.8-0.6-1.2c-0.2-0.4-0.3-0.9-0.4-1.3c-0.1-0.5-0.2-1-0.2-1.5c0-0.8,0.1-1.4,0.3-2.1c0.2-0.6,0.5-1.1,0.9-1.6
			c0.4-0.4,0.9-0.8,1.5-1s1.2-0.4,1.9-0.4c0.7,0,1.3,0.1,1.9,0.3s1.2,0.5,1.8,0.9c0.6,0.4,1.2,0.8,1.8,1.3c0.6,0.5,1.2,1.1,1.9,1.7
			l3.5,3.3h0.1v-8.2H175.3z"/>
	</g>
	<g>
		<path style="fill:#808080;" d="M155.1,420.7l24.2,6.4v2l-24.2-6.4V420.7z"/>
	</g>
	<g>
		<path style="fill:#808080;" d="M175.3,435.6v2.1h-10.8c-0.3,0-0.7,0-1.1,0c-0.4,0-0.8,0-1.2,0s-0.8,0-1.1,0c-0.4,0-0.7,0-0.9,0
			c0.1,0.1,0.3,0.3,0.4,0.4c0.1,0.1,0.2,0.2,0.3,0.3c0.1,0.1,0.2,0.2,0.3,0.3c0.1,0.1,0.2,0.3,0.4,0.4l1.4,1.8l-1.5,1.1l-3.5-4.5
			v-1.8H175.3z"/>
	</g>
	<g>
	</g>
	<g>
		<path style="fill:#808080;" d="M166.6,451.9c1.4,0,2.7,0.1,3.8,0.3c1.1,0.2,2,0.5,2.8,1c0.8,0.4,1.4,1,1.8,1.7s0.6,1.6,0.6,2.6
			c0,0.9-0.2,1.7-0.6,2.4c-0.4,0.7-1,1.3-1.8,1.7c-0.8,0.5-1.7,0.8-2.8,1c-1.1,0.2-2.4,0.3-3.8,0.3c-1.4,0-2.7-0.1-3.8-0.3
			c-1.1-0.2-2-0.5-2.8-1c-0.8-0.4-1.3-1-1.8-1.7s-0.6-1.5-0.6-2.5c0-0.9,0.2-1.8,0.6-2.5c0.4-0.7,1-1.3,1.7-1.7
			c0.8-0.5,1.7-0.8,2.8-1C163.9,452,165.2,451.9,166.6,451.9z M166.6,460.8c1.2,0,2.2-0.1,3.1-0.2s1.6-0.3,2.2-0.6
			c0.6-0.3,1-0.6,1.3-1c0.3-0.4,0.4-0.9,0.4-1.5s-0.1-1.1-0.4-1.6c-0.3-0.4-0.7-0.8-1.3-1s-1.3-0.5-2.2-0.6s-1.9-0.2-3.1-0.2
			c-1.2,0-2.2,0.1-3.1,0.2s-1.6,0.3-2.2,0.6c-0.6,0.3-1,0.6-1.3,1s-0.4,0.9-0.4,1.6s0.1,1.1,0.4,1.5c0.3,0.4,0.7,0.8,1.3,1
			c0.6,0.3,1.3,0.5,2.2,0.6S165.4,460.8,166.6,460.8z"/>
	</g>
	<g>
		<path style="fill:#808080;" d="M175.3,469.6v2.1h-10.8c-0.3,0-0.7,0-1.1,0s-0.8,0-1.2,0c-0.4,0-0.8,0-1.1,0c-0.4,0-0.7,0-0.9,0
			c0.1,0.1,0.3,0.3,0.4,0.4c0.1,0.1,0.2,0.2,0.3,0.3c0.1,0.1,0.2,0.2,0.3,0.3s0.2,0.3,0.4,0.4l1.4,1.8l-1.5,1.1l-3.5-4.5v-1.8H175.3
			z"/>
	</g>
	<g>
	</g>
	<g>
		<path style="fill:#808080;" d="M157.6,484.3l6.3,0.6v1.5l-6.3,0.6V484.3z"/>
	</g>
	<g>
		<path style="fill:#808080;" d="M167.9,502.3c-0.8,0-1.7,0-2.5-0.1c-0.8-0.1-1.6-0.2-2.4-0.4s-1.5-0.5-2.1-0.9s-1.2-0.8-1.7-1.4
			s-0.9-1.2-1.1-2c-0.3-0.8-0.4-1.7-0.4-2.8c0-0.2,0-0.3,0-0.5c0-0.2,0-0.4,0-0.6c0-0.2,0-0.4,0.1-0.5c0-0.2,0.1-0.3,0.1-0.5h1.8
			c-0.1,0.3-0.2,0.6-0.2,0.9c0,0.3-0.1,0.7-0.1,1c0,0.7,0.1,1.3,0.3,1.9s0.4,1,0.7,1.4s0.7,0.7,1.1,1c0.4,0.3,0.9,0.5,1.4,0.6
			c0.5,0.2,1.1,0.3,1.7,0.4s1.2,0.1,1.8,0.2V500c-0.3-0.2-0.6-0.4-0.8-0.6c-0.2-0.2-0.5-0.5-0.6-0.8c-0.2-0.3-0.3-0.6-0.4-1
			c-0.1-0.4-0.2-0.8-0.2-1.3c0-0.8,0.1-1.4,0.3-2c0.2-0.6,0.6-1.1,1-1.6c0.5-0.4,1-0.8,1.7-1c0.7-0.2,1.4-0.4,2.2-0.4
			c0.9,0,1.7,0.1,2.4,0.4c0.7,0.2,1.3,0.6,1.8,1.1c0.5,0.5,0.9,1,1.2,1.7c0.3,0.6,0.4,1.4,0.4,2.2c0,0.8-0.2,1.5-0.5,2.2
			c-0.3,0.7-0.8,1.3-1.4,1.8c-0.6,0.5-1.4,0.9-2.4,1.2S169.2,502.3,167.9,502.3z M173.7,496.7c0-0.5-0.1-0.9-0.2-1.3s-0.4-0.7-0.7-1
			c-0.3-0.3-0.7-0.5-1.2-0.7c-0.5-0.2-1.1-0.2-1.8-0.2c-0.6,0-1,0.1-1.5,0.2c-0.4,0.1-0.8,0.3-1.1,0.6c-0.3,0.3-0.5,0.6-0.7,1
			c-0.2,0.4-0.2,0.8-0.2,1.4c0,0.5,0.1,1,0.3,1.5c0.2,0.4,0.4,0.8,0.7,1.1c0.3,0.3,0.6,0.5,1,0.7c0.4,0.2,0.8,0.3,1.1,0.3
			c0.5,0,1.1-0.1,1.6-0.2c0.5-0.1,1-0.4,1.4-0.7c0.4-0.3,0.8-0.7,1-1.1C173.6,497.8,173.7,497.3,173.7,496.7z"/>
	</g>
</g>
<path style="fill:none;stroke:#808080;stroke-miterlimit:10;" d="M167.6,376.1v-54.7 M167.6,576v-54.7"/>
<line style="fill:none;stroke:#808080;stroke-miterlimit:10;stroke-dasharray:0.6924,0.6924;" x1="228.4" y1="917" x2="106.9" y2="917"/>
<line style="fill:none;stroke:#808080;stroke-miterlimit:10;" x1="119" y1="917" x2="103.8" y2="917"/>
<line style="fill:none;stroke:#808080;stroke-miterlimit:10;stroke-dasharray:0.6924,0.6924;" x1="228.4" y1="272" x2="106.9" y2="272"/>
<line style="fill:none;stroke:#808080;stroke-miterlimit:10;" x1="119" y1="272" x2="103.8" y2="272"/>
<polyline style="fill:#808080;" points="106.9,917 103.8,910.9 109.9,910.9 106.9,917 "/>
<polyline style="fill:none;stroke:#808080;stroke-miterlimit:10;" points="106.9,917 103.8,910.9 109.9,910.9 106.9,917 "/>
<polyline style="fill:#808080;" points="106.9,272 109.9,278.1 103.8,278.1 106.9,272 "/>
<polyline style="fill:none;stroke:#808080;stroke-miterlimit:10;" points="106.9,272 109.9,278.1 103.8,278.1 106.9,272 "/>
<g>
	<g>
		<path style="fill:#808080;" d="M96.8,564.8l6.3,0.6v1.5l-6.3,0.6V564.8z M96.8,569l6.3,0.6v1.5l-6.3,0.6V569z"/>
	</g>
	<g>
		<path style="fill:#808080;" d="M103.9,581.9c0-0.8,0.1-1.5,0.3-2.2c0.2-0.7,0.5-1.3,1-1.8c0.4-0.5,1-0.9,1.6-1.2s1.4-0.4,2.2-0.4
			c0.9,0,1.7,0.1,2.4,0.4c0.7,0.3,1.3,0.7,1.8,1.2c0.5,0.5,0.9,1.2,1.1,2c0.3,0.8,0.4,1.7,0.4,2.7c0,0.4,0,0.8-0.1,1.2
			c0,0.4-0.1,0.8-0.2,1.1c-0.1,0.4-0.2,0.7-0.3,1c-0.1,0.3-0.3,0.6-0.4,0.9h-2c0.2-0.3,0.3-0.6,0.5-0.9c0.1-0.4,0.3-0.7,0.4-1.1
			s0.2-0.8,0.2-1.2c0.1-0.4,0.1-0.8,0.1-1.1c0-0.6-0.1-1.2-0.2-1.7s-0.4-0.9-0.7-1.2c-0.3-0.3-0.7-0.6-1.2-0.8s-1-0.3-1.7-0.3
			c-1.1,0-2,0.3-2.6,1c-0.6,0.7-0.9,1.7-0.9,3c0,0.2,0,0.4,0,0.7c0,0.2,0,0.5,0.1,0.7c0,0.2,0.1,0.5,0.1,0.7c0,0.2,0.1,0.4,0.1,0.6
			l-0.7,1.1l-8.2-0.7l0-8.2h2v6.3l5,0.5c0-0.3-0.1-0.6-0.2-1C103.9,583,103.9,582.5,103.9,581.9z"/>
	</g>
	<g>
	</g>
	<g>
		<path style="fill:#808080;" d="M96.8,594.7l6.3,0.6v1.5l-6.3,0.6V594.7z"/>
	</g>
	<g>
		<path style="fill:#808080;" d="M114.6,610.7L99.2,604v8.9h-2v-11.2h1.7l15.6,6.6V610.7z"/>
	</g>
	<g>
		<path style="fill:#808080;" d="M114.6,619.5v2.1h-10.8c-0.3,0-0.7,0-1.1,0s-0.8,0-1.2,0c-0.4,0-0.8,0-1.1,0c-0.4,0-0.7,0-0.9,0
			c0.1,0.1,0.3,0.3,0.4,0.4c0.1,0.1,0.2,0.2,0.3,0.3s0.2,0.2,0.3,0.3c0.1,0.1,0.2,0.3,0.4,0.4l1.4,1.8l-1.5,1.1l-3.5-4.5v-1.8H114.6
			z"/>
	</g>
</g>
<path style="fill:none;stroke:#808080;stroke-miterlimit:10;" d="M106.9,543.5V272 M106.9,917l0-271.5"/>
<g>
	<path style="fill:#404040;" d="M123.2,80.4h-15.9V52.8h15.9v4.8h-10v6.1h9.3v4.8h-9.3v7.1h10V80.4z"/>
	<path style="fill:#404040;" d="M143.2,74.1c0,2.2-0.8,3.8-2.3,4.9s-3.7,1.7-6.7,1.7c-1.5,0-2.8-0.1-3.9-0.3c-1.1-0.2-2.1-0.5-3-0.9
		v-4.8c1.1,0.5,2.3,0.9,3.6,1.3c1.3,0.3,2.5,0.5,3.5,0.5c2.1,0,3.1-0.6,3.1-1.8c0-0.5-0.1-0.8-0.4-1.1c-0.3-0.3-0.8-0.6-1.4-1
		s-1.6-0.8-2.7-1.3c-1.6-0.7-2.8-1.3-3.6-1.9c-0.8-0.6-1.3-1.2-1.7-2s-0.5-1.7-0.5-2.8c0-1.9,0.7-3.3,2.2-4.3s3.5-1.5,6.2-1.5
		c2.5,0,5,0.6,7.4,1.7l-1.7,4.1c-1.1-0.5-2-0.8-3-1.1c-0.9-0.3-1.9-0.4-2.8-0.4c-1.7,0-2.5,0.5-2.5,1.4c0,0.5,0.3,1,0.8,1.3
		c0.5,0.4,1.7,0.9,3.6,1.7c1.6,0.7,2.9,1.3,3.6,1.9c0.8,0.6,1.3,1.2,1.7,2C143.1,72.2,143.2,73.1,143.2,74.1z"/>
	<path style="fill:#404040;" d="M159,80.8c-2.5,0-4.4-0.9-5.8-2.7h-0.3c0.2,1.8,0.3,2.8,0.3,3.1v8.5h-5.7V59.3h4.7l0.8,2.7h0.3
		c1.3-2.1,3.3-3.1,6-3.1c2.5,0,4.4,1,5.8,2.9s2.1,4.6,2.1,8c0,2.2-0.3,4.2-1,5.9c-0.7,1.7-1.6,2.9-2.8,3.8S160.6,80.8,159,80.8z
		 M157.3,63.5c-1.4,0-2.5,0.4-3.1,1.3c-0.7,0.9-1,2.3-1,4.3v0.6c0,2.3,0.3,3.9,1,4.9c0.7,1,1.7,1.5,3.2,1.5c2.6,0,3.9-2.1,3.9-6.4
		c0-2.1-0.3-3.6-1-4.7S158.6,63.5,157.3,63.5z"/>
	<path style="fill:#404040;" d="M184.8,80.4l-1.1-2.9h-0.2c-1,1.2-2,2.1-3,2.5c-1,0.5-2.4,0.7-4,0.7c-2,0-3.6-0.6-4.8-1.7
		s-1.7-2.8-1.7-4.9c0-2.2,0.8-3.9,2.3-4.9c1.6-1.1,3.9-1.6,7.1-1.8l3.7-0.1v-0.9c0-2.1-1.1-3.2-3.3-3.2c-1.7,0-3.7,0.5-5.9,1.5
		l-1.9-3.9c2.4-1.3,5.1-1.9,8.1-1.9c2.8,0,5,0.6,6.5,1.8s2.3,3.1,2.3,5.6v14H184.8z M183.1,70.6l-2.2,0.1c-1.7,0-2.9,0.4-3.7,0.9
		c-0.8,0.6-1.2,1.4-1.2,2.5c0,1.6,0.9,2.4,2.8,2.4c1.3,0,2.4-0.4,3.2-1.2c0.8-0.8,1.2-1.8,1.2-3.1V70.6z"/>
	<path style="fill:#404040;" d="M202.9,80.8c-6.6,0-9.8-3.6-9.8-10.8c0-3.6,0.9-6.3,2.7-8.2s4.3-2.8,7.7-2.8c2.4,0,4.6,0.5,6.6,1.4
		l-1.7,4.4c-0.9-0.4-1.7-0.7-2.5-0.9c-0.8-0.2-1.6-0.3-2.3-0.3c-3,0-4.5,2.1-4.5,6.4c0,4.1,1.5,6.2,4.5,6.2c1.1,0,2.1-0.1,3.1-0.4
		s1.9-0.8,2.8-1.4v4.9c-0.9,0.6-1.9,1-2.8,1.2C205.5,80.6,204.3,80.8,202.9,80.8z"/>
	<path style="fill:#404040;" d="M223.1,80.8c-3.4,0-6-0.9-8-2.8c-1.9-1.9-2.9-4.5-2.9-8c0-3.5,0.9-6.3,2.6-8.2s4.2-2.9,7.3-2.9
		c3,0,5.3,0.8,7,2.5c1.7,1.7,2.5,4,2.5,7v2.8h-13.6c0.1,1.6,0.5,2.9,1.5,3.8c0.9,0.9,2.2,1.4,3.8,1.4c1.3,0,2.5-0.1,3.6-0.4
		s2.3-0.7,3.5-1.3v4.4c-1,0.5-2.1,0.9-3.2,1.1S224.8,80.8,223.1,80.8z M222.3,63c-1.2,0-2.2,0.4-2.9,1.2c-0.7,0.8-1.1,1.9-1.2,3.3
		h8.1c0-1.4-0.4-2.5-1.1-3.3C224.5,63.4,223.5,63,222.3,63z"/>
	<path style="fill:#404040;" d="M263.4,80.4H245v-4.1l6.5-7c0.8-0.9,1.6-1.7,2.2-2.4s1.2-1.5,1.7-2.2c0.5-0.7,0.8-1.4,1.1-2.1
		c0.3-0.7,0.4-1.5,0.4-2.4c0-0.9-0.3-1.7-0.8-2.2c-0.6-0.5-1.3-0.8-2.3-0.8c-1,0-1.9,0.2-2.9,0.7s-1.9,1.2-2.9,2.1l-3.2-3.8
		c0.6-0.5,1.2-1,1.8-1.5c0.6-0.5,1.3-0.9,2-1.3c0.7-0.4,1.6-0.7,2.5-0.9c0.9-0.2,1.9-0.3,3-0.3c1.3,0,2.5,0.2,3.6,0.5
		s1.9,0.9,2.7,1.6c0.7,0.7,1.3,1.5,1.7,2.4c0.4,1,0.6,2,0.6,3.2c0,1.1-0.2,2.1-0.6,3.1s-0.9,2-1.5,2.9c-0.7,0.9-1.4,1.9-2.3,2.8
		c-0.9,0.9-1.8,1.9-2.8,2.9l-3.3,3.3v0.3h11.2V80.4z"/>
	<path style="fill:#404040;" d="M284.4,59c0,1-0.2,1.8-0.5,2.6s-0.7,1.4-1.3,2s-1.2,1-1.9,1.4s-1.5,0.7-2.3,0.9V66
		c2.2,0.3,3.9,1,5.1,2c1.1,1.1,1.7,2.5,1.7,4.3c0,1.2-0.2,2.3-0.7,3.3c-0.4,1-1.1,1.9-2,2.7s-2,1.3-3.4,1.8c-1.4,0.4-3,0.6-4.8,0.6
		c-1.5,0-2.9-0.1-4.2-0.4s-2.5-0.6-3.7-1.1v-5c0.6,0.3,1.2,0.6,1.8,0.8c0.6,0.2,1.3,0.4,1.9,0.6c0.6,0.2,1.2,0.3,1.9,0.3
		c0.6,0.1,1.2,0.1,1.7,0.1c1.1,0,2-0.1,2.7-0.3c0.7-0.2,1.3-0.5,1.7-0.8c0.4-0.4,0.7-0.8,0.9-1.3c0.2-0.5,0.3-1.1,0.3-1.7
		c0-0.6-0.1-1.1-0.3-1.5s-0.6-0.8-1.1-1.2s-1.2-0.6-2-0.7s-1.9-0.3-3.1-0.3h-2v-4.1h1.9c1.2,0,2.1-0.1,2.9-0.3
		c0.8-0.2,1.4-0.5,1.8-0.8c0.5-0.4,0.8-0.8,1-1.3s0.3-1,0.3-1.5c0-1-0.3-1.7-0.9-2.3s-1.6-0.8-2.9-0.8c-0.6,0-1.2,0.1-1.7,0.2
		s-1,0.3-1.5,0.5c-0.4,0.2-0.9,0.4-1.2,0.6c-0.4,0.2-0.7,0.4-1,0.7l-2.9-3.9c0.5-0.4,1.1-0.7,1.7-1.1c0.6-0.3,1.3-0.6,2-0.9
		s1.5-0.4,2.4-0.6c0.8-0.1,1.7-0.2,2.7-0.2c1.4,0,2.6,0.1,3.7,0.4c1.1,0.3,2.1,0.7,2.9,1.3c0.8,0.6,1.4,1.2,1.8,2.1
		S284.4,57.9,284.4,59z"/>
	<path style="fill:#404040;" d="M307.3,66.6c0,2.2-0.2,4.2-0.5,6c-0.3,1.7-0.9,3.2-1.7,4.4s-1.7,2.1-2.9,2.8c-1.2,0.6-2.6,1-4.3,1
		c-1.6,0-3-0.3-4.2-1c-1.2-0.6-2.2-1.6-2.9-2.8s-1.4-2.7-1.7-4.4c-0.4-1.7-0.6-3.7-0.6-6c0-2.2,0.2-4.2,0.5-6
		c0.3-1.8,0.9-3.2,1.6-4.5c0.8-1.2,1.7-2.2,2.9-2.8c1.2-0.6,2.6-1,4.3-1c1.6,0,3,0.3,4.1,1c1.2,0.6,2.2,1.6,3,2.8
		c0.8,1.2,1.4,2.7,1.8,4.5C307.1,62.4,307.3,64.4,307.3,66.6z M294.2,66.6c0,3.1,0.3,5.5,0.8,7.1c0.5,1.6,1.5,2.4,2.8,2.4
		c1.3,0,2.2-0.8,2.8-2.4c0.6-1.6,0.9-3.9,0.9-7.1c0-3.2-0.3-5.5-0.9-7.1c-0.6-1.6-1.5-2.4-2.8-2.4c-0.7,0-1.2,0.2-1.7,0.6
		s-0.8,1-1.1,1.8c-0.3,0.8-0.5,1.8-0.6,3C294.3,63.6,294.2,65,294.2,66.6z"/>
	<path style="fill:#404040;" d="M109.2,126.7l10.6-24.4h-14.2v-3.1h17.7v2.7l-10.5,24.8H109.2z"/>
	<path style="fill:#404040;" d="M143.2,120.5h-4v6.2h-3.3v-6.2h-12.7v-3L135.7,99h3.5v18.4h4V120.5z M135.9,117.4v-6.7
		c0-0.7,0-1.4,0-2.2c0-0.8,0-1.5,0.1-2.3c0-0.7,0.1-1.4,0.1-2.1c0-0.6,0.1-1.2,0.1-1.6H136c-0.1,0.3-0.2,0.5-0.3,0.8
		c-0.1,0.3-0.3,0.6-0.4,0.9c-0.2,0.3-0.3,0.6-0.5,0.9s-0.3,0.5-0.5,0.7l-7.7,11.5H135.9z"/>
	<path style="fill:#404040;" d="M162.4,126.7h-17.2v-2.9l6.6-7.2c0.9-1,1.8-1.9,2.5-2.8s1.4-1.7,1.9-2.5c0.5-0.8,0.9-1.6,1.2-2.4
		c0.3-0.8,0.4-1.7,0.4-2.6c0-0.7-0.1-1.4-0.3-2s-0.5-1-0.9-1.4c-0.4-0.4-0.9-0.7-1.4-0.9c-0.5-0.2-1.1-0.3-1.8-0.3
		c-1.2,0-2.3,0.2-3.2,0.7c-1,0.5-1.9,1.1-2.7,1.9l-1.9-2.2c0.5-0.5,1-0.9,1.6-1.3s1.2-0.7,1.9-1s1.4-0.5,2.1-0.7
		c0.7-0.2,1.5-0.3,2.3-0.3c1.2,0,2.3,0.2,3.3,0.5c1,0.3,1.8,0.8,2.5,1.5c0.7,0.6,1.2,1.4,1.6,2.3c0.4,0.9,0.6,1.9,0.6,3.1
		c0,1.1-0.2,2.1-0.5,3.1s-0.8,1.9-1.4,2.9c-0.6,0.9-1.3,1.9-2.1,2.8s-1.7,1.9-2.6,2.9l-5.3,5.6v0.2h13V126.7z"/>
	<path style="fill:#404040;" d="M167.1,124.6c0-0.5,0.1-0.9,0.2-1.2c0.1-0.3,0.3-0.6,0.5-0.8c0.2-0.2,0.5-0.4,0.8-0.5
		c0.3-0.1,0.6-0.1,0.9-0.1c0.3,0,0.6,0,0.9,0.1c0.3,0.1,0.5,0.2,0.8,0.5c0.2,0.2,0.4,0.5,0.5,0.8c0.1,0.3,0.2,0.7,0.2,1.2
		c0,0.5-0.1,0.9-0.2,1.2c-0.1,0.3-0.3,0.6-0.5,0.8c-0.2,0.2-0.5,0.4-0.8,0.5c-0.3,0.1-0.6,0.2-0.9,0.2c-0.3,0-0.7-0.1-0.9-0.2
		s-0.5-0.3-0.8-0.5c-0.2-0.2-0.4-0.5-0.5-0.8S167.1,125.1,167.1,124.6z"/>
	<path style="fill:#404040;" d="M176,114.9c0-1.3,0.1-2.6,0.2-3.9c0.1-1.3,0.4-2.6,0.7-3.8c0.3-1.2,0.8-2.3,1.4-3.3s1.3-1.9,2.2-2.7
		c0.9-0.8,2-1.4,3.2-1.8s2.7-0.7,4.4-0.7c0.2,0,0.5,0,0.8,0c0.3,0,0.6,0,0.9,0.1s0.6,0.1,0.8,0.1c0.3,0,0.5,0.1,0.7,0.2v2.9
		c-0.4-0.2-0.9-0.3-1.5-0.3s-1.1-0.1-1.6-0.1c-1.1,0-2.1,0.1-3,0.4c-0.9,0.3-1.6,0.7-2.2,1.1c-0.6,0.5-1.2,1.1-1.6,1.8
		s-0.8,1.4-1,2.3c-0.3,0.8-0.5,1.7-0.6,2.6c-0.1,0.9-0.2,1.9-0.2,2.9h0.2c0.3-0.5,0.6-0.9,0.9-1.3s0.8-0.7,1.3-1
		c0.5-0.3,1-0.5,1.6-0.7c0.6-0.2,1.3-0.2,2-0.2c1.2,0,2.3,0.2,3.2,0.6c1,0.4,1.8,0.9,2.5,1.6c0.7,0.7,1.2,1.6,1.6,2.6
		c0.4,1,0.6,2.2,0.6,3.6c0,1.4-0.2,2.7-0.6,3.9c-0.4,1.1-0.9,2.1-1.7,2.9c-0.7,0.8-1.6,1.4-2.6,1.8c-1,0.4-2.2,0.6-3.5,0.6
		c-1.3,0-2.4-0.2-3.5-0.7s-2.1-1.2-2.9-2.2c-0.8-1-1.4-2.3-1.9-3.8S176,117,176,114.9z M185,124.2c0.8,0,1.4-0.1,2.1-0.4
		c0.6-0.3,1.2-0.6,1.6-1.2c0.5-0.5,0.8-1.2,1-2c0.2-0.8,0.4-1.7,0.4-2.8c0-0.9-0.1-1.7-0.3-2.4c-0.2-0.7-0.5-1.3-0.9-1.8
		s-0.9-0.9-1.6-1.1s-1.3-0.4-2.2-0.4c-0.8,0-1.6,0.1-2.3,0.4c-0.7,0.3-1.3,0.7-1.8,1.2c-0.5,0.5-0.9,1-1.1,1.6
		c-0.3,0.6-0.4,1.2-0.4,1.8c0,0.8,0.1,1.7,0.3,2.5s0.6,1.6,1,2.3c0.5,0.7,1,1.2,1.7,1.6C183.3,124,184.1,124.2,185,124.2z"/>
	<path style="fill:#404040;" d="M213.3,105.6c0,0.9-0.1,1.8-0.4,2.5c-0.3,0.8-0.7,1.4-1.2,2c-0.5,0.6-1.1,1-1.9,1.4
		c-0.7,0.4-1.5,0.6-2.4,0.8v0.1c2.2,0.3,3.9,1,5.1,2.1c1.2,1.1,1.7,2.6,1.7,4.4c0,1.2-0.2,2.3-0.6,3.3c-0.4,1-1,1.9-1.9,2.6
		c-0.8,0.7-1.9,1.3-3.1,1.7c-1.3,0.4-2.8,0.6-4.5,0.6c-1.4,0-2.7-0.1-3.9-0.3s-2.4-0.6-3.4-1.2v-3.2c1.1,0.6,2.3,1,3.6,1.3
		c1.3,0.3,2.5,0.5,3.7,0.5c1.2,0,2.2-0.1,3-0.4c0.8-0.3,1.5-0.6,2.1-1.1c0.5-0.5,0.9-1,1.2-1.7s0.4-1.4,0.4-2.3
		c0-0.9-0.2-1.6-0.5-2.2s-0.8-1.1-1.4-1.5c-0.6-0.4-1.4-0.7-2.3-0.9s-1.9-0.3-3-0.3h-2.5V111h2.5c1,0,1.9-0.1,2.7-0.4s1.5-0.6,2-1.1
		s0.9-1,1.2-1.7s0.4-1.3,0.4-2.1c0-0.7-0.1-1.2-0.3-1.8c-0.2-0.5-0.5-1-1-1.3c-0.4-0.4-0.9-0.6-1.5-0.8s-1.2-0.3-1.9-0.3
		c-1.3,0-2.5,0.2-3.6,0.6s-2,1-2.9,1.6l-1.7-2.4c0.5-0.4,1-0.8,1.6-1.1c0.6-0.3,1.2-0.6,1.9-0.9s1.4-0.5,2.2-0.6
		c0.8-0.2,1.6-0.2,2.5-0.2c1.4,0,2.5,0.2,3.6,0.5c1,0.3,1.9,0.8,2.6,1.4c0.7,0.6,1.2,1.3,1.6,2.2
		C213.1,103.7,213.3,104.6,213.3,105.6z"/>
	<path style="fill:#404040;" d="M243.2,121c0,1.9-0.7,3.4-2.2,4.5c-1.4,1.1-3.5,1.6-6.1,1.6c-2.7,0-4.9-0.4-6.5-1.3v-3.1
		c2.3,1.1,4.5,1.7,6.6,1.7c1.7,0,3-0.3,3.7-0.8s1.2-1.3,1.2-2.2c0-0.8-0.4-1.5-1.1-2.1c-0.7-0.6-2.1-1.2-4-1.9
		c-1.9-0.8-3.3-1.4-4.1-1.9c-0.8-0.5-1.4-1.1-1.7-1.8c-0.4-0.7-0.6-1.5-0.6-2.4c0-1.7,0.7-3,2.1-4c1.4-1,3.3-1.5,5.7-1.5
		c2.3,0,4.5,0.5,6.6,1.4l-1.1,2.7c-2.1-0.9-4-1.3-5.7-1.3c-1.4,0-2.5,0.2-3.2,0.7c-0.7,0.4-1.1,1.1-1.1,1.8c0,0.8,0.3,1.4,0.9,1.9
		c0.6,0.5,2.1,1.2,4.4,2.1c1.7,0.6,3,1.2,3.8,1.8s1.4,1.2,1.8,1.9C243,119.2,243.2,120,243.2,121z"/>
	<path style="fill:#404040;" d="M255.2,127.1c-2.7,0-4.7-0.9-6.2-2.8c-1.5-1.9-2.2-4.5-2.2-7.9c0-3.4,0.8-6,2.3-7.9
		c1.5-1.9,3.6-2.9,6.3-2.9c2.8,0,5,1.1,6.4,3.2h0.2l0.5-2.8h2.7v30h-3.4v-8.8c0-1.4,0.1-2.5,0.2-3.2h-0.2
		C260.2,126,258.1,127.1,255.2,127.1z M255.8,124.3c2,0,3.5-0.6,4.4-1.7c0.9-1.1,1.4-2.9,1.5-5.5v-0.7c0-2.9-0.5-4.9-1.4-6.1
		c-1-1.2-2.5-1.9-4.5-1.9c-1.8,0-3.1,0.7-4.1,2.1c-0.9,1.4-1.4,3.4-1.4,5.9c0,2.5,0.5,4.5,1.4,5.8
		C252.6,123.6,254,124.3,255.8,124.3z"/>
	<path style="fill:#404040;" d="M291.2,108.6H286v18.1h-3.4v-18.1H279v-1.6l3.6-1.2v-1.2c0-2.5,0.5-4.4,1.6-5.7
		c1.1-1.3,2.8-1.9,5.1-1.9c1.3,0,2.7,0.2,4,0.7l-0.9,2.7c-1.2-0.4-2.2-0.6-3.1-0.6c-1.1,0-2,0.4-2.5,1.1c-0.6,0.8-0.8,1.9-0.8,3.6
		v1.3h5.2V108.6z"/>
	<path style="fill:#404040;" d="M303.2,124.3c0.4,0,1,0,1.5-0.1s1-0.2,1.3-0.3v2.6c-0.3,0.1-0.8,0.3-1.5,0.4s-1.3,0.2-2,0.2
		c-4,0-6.1-2.1-6.1-6.4v-12h-2.9V107l3-1.4l1.4-4.4h2v4.8h6v2.6h-6v12c0,1.2,0.3,2.1,0.9,2.8C301.4,124,302.2,124.3,303.2,124.3z"/>
	<path style="fill:#404040;" d="M319.6,113.7c0-1.8,0.1-3.6,0.3-5.3s0.6-3.4,1-5c0.5-1.6,1-3.2,1.7-4.6c0.7-1.5,1.5-2.9,2.5-4.2h3.1
		c-0.9,1.4-1.6,2.8-2.3,4.3s-1.3,3.1-1.7,4.7c-0.5,1.6-0.8,3.3-1,5c-0.2,1.7-0.3,3.4-0.3,5.1c0,3.5,0.5,6.9,1.4,10.2
		c0.9,3.3,2.3,6.4,4.1,9.1h-3.2c-1-1.3-1.8-2.8-2.5-4.3c-0.7-1.5-1.3-3.1-1.7-4.8c-0.5-1.7-0.8-3.3-1-5.1
		C319.7,117.2,319.6,115.5,319.6,113.7z"/>
	<path style="fill:#404040;" d="M347.1,105.6c0,0.9-0.1,1.8-0.4,2.5s-0.7,1.4-1.2,2c-0.5,0.6-1.1,1-1.9,1.4
		c-0.7,0.4-1.5,0.6-2.4,0.8v0.1c2.2,0.3,3.9,1,5.1,2.1c1.2,1.1,1.7,2.6,1.7,4.4c0,1.2-0.2,2.3-0.6,3.3c-0.4,1-1,1.9-1.9,2.6
		c-0.8,0.7-1.9,1.3-3.1,1.7c-1.3,0.4-2.8,0.6-4.5,0.6c-1.4,0-2.7-0.1-3.9-0.3s-2.4-0.6-3.4-1.2v-3.2c1.1,0.6,2.3,1,3.6,1.3
		c1.3,0.3,2.5,0.5,3.7,0.5c1.2,0,2.2-0.1,3-0.4s1.5-0.6,2.1-1.1s0.9-1,1.2-1.7c0.3-0.7,0.4-1.4,0.4-2.3c0-0.9-0.2-1.6-0.5-2.2
		c-0.3-0.6-0.8-1.1-1.4-1.5c-0.6-0.4-1.4-0.7-2.3-0.9s-1.9-0.3-3-0.3h-2.5V111h2.5c1,0,1.9-0.1,2.7-0.4c0.8-0.3,1.5-0.6,2-1.1
		s0.9-1,1.2-1.7s0.4-1.3,0.4-2.1c0-0.7-0.1-1.2-0.3-1.8c-0.2-0.5-0.5-1-1-1.3c-0.4-0.4-0.9-0.6-1.5-0.8s-1.2-0.3-1.9-0.3
		c-1.3,0-2.5,0.2-3.6,0.6c-1,0.4-2,1-2.9,1.6l-1.7-2.4c0.5-0.4,1-0.8,1.6-1.1c0.6-0.3,1.2-0.6,1.9-0.9c0.7-0.3,1.4-0.5,2.2-0.6
		c0.8-0.2,1.6-0.2,2.5-0.2c1.4,0,2.5,0.2,3.6,0.5c1,0.3,1.9,0.8,2.6,1.4c0.7,0.6,1.2,1.3,1.6,2.2
		C346.9,103.7,347.1,104.6,347.1,105.6z"/>
	<path style="fill:#404040;" d="M369,110.9c0,1.3-0.1,2.6-0.2,3.9c-0.1,1.3-0.4,2.6-0.7,3.8c-0.3,1.2-0.8,2.3-1.4,3.3
		c-0.6,1-1.3,1.9-2.2,2.7s-2,1.3-3.2,1.8s-2.7,0.7-4.4,0.7c-0.2,0-0.5,0-0.8,0c-0.3,0-0.6,0-0.9-0.1s-0.6-0.1-0.8-0.1
		c-0.3,0-0.5-0.1-0.7-0.2v-2.9c0.4,0.2,0.9,0.3,1.5,0.4c0.6,0.1,1.1,0.1,1.6,0.1c1.7,0,3.1-0.3,4.2-0.9s2-1.4,2.6-2.4
		c0.6-1,1.1-2.2,1.4-3.5s0.4-2.8,0.5-4.3h-0.2c-0.3,0.5-0.6,0.9-0.9,1.3s-0.8,0.7-1.2,1s-1,0.5-1.6,0.7c-0.6,0.2-1.3,0.2-2,0.2
		c-1.2,0-2.3-0.2-3.2-0.6c-1-0.4-1.8-0.9-2.5-1.6c-0.7-0.7-1.2-1.6-1.6-2.6c-0.4-1-0.6-2.2-0.6-3.6c0-1.4,0.2-2.7,0.6-3.9
		c0.4-1.1,1-2.1,1.7-2.9c0.7-0.8,1.6-1.4,2.6-1.8c1-0.4,2.2-0.6,3.5-0.6c1.3,0,2.5,0.2,3.5,0.7c1.1,0.5,2,1.2,2.8,2.2
		c0.8,1,1.4,2.3,1.9,3.8C368.7,107.1,369,108.8,369,110.9z M360,101.7c-0.8,0-1.4,0.1-2.1,0.4c-0.6,0.3-1.2,0.6-1.6,1.2
		c-0.5,0.5-0.8,1.2-1,2s-0.4,1.7-0.4,2.8c0,0.9,0.1,1.7,0.3,2.4c0.2,0.7,0.5,1.3,0.9,1.8c0.4,0.5,0.9,0.9,1.6,1.1s1.3,0.4,2.2,0.4
		c0.9,0,1.6-0.1,2.3-0.4c0.7-0.3,1.3-0.7,1.8-1.1c0.5-0.5,0.9-1,1.1-1.6c0.3-0.6,0.4-1.2,0.4-1.8c0-0.8-0.1-1.7-0.3-2.5
		c-0.2-0.8-0.6-1.6-1-2.3c-0.5-0.7-1-1.2-1.7-1.6C361.7,101.9,360.9,101.7,360,101.7z"/>
	<path style="fill:#404040;" d="M378.6,98.6l-1,10h-2.4l-1-10H378.6z"/>
	<path style="fill:#404040;" d="M413,120.5h-4v6.2h-3.3v-6.2H393v-3L405.5,99h3.5v18.4h4V120.5z M405.7,117.4v-6.7
		c0-0.7,0-1.4,0-2.2c0-0.8,0-1.5,0.1-2.3c0-0.7,0.1-1.4,0.1-2.1c0-0.6,0.1-1.2,0.1-1.6h-0.2c-0.1,0.3-0.2,0.5-0.3,0.8
		c-0.1,0.3-0.3,0.6-0.4,0.9c-0.2,0.3-0.3,0.6-0.5,0.9s-0.3,0.5-0.5,0.7l-7.7,11.5H405.7z"/>
	<path style="fill:#404040;" d="M441.9,105.6c0,0.9-0.1,1.8-0.4,2.5s-0.7,1.4-1.2,2c-0.5,0.6-1.1,1-1.9,1.4
		c-0.7,0.4-1.5,0.6-2.4,0.8v0.1c2.2,0.3,3.9,1,5.1,2.1c1.2,1.1,1.7,2.6,1.7,4.4c0,1.2-0.2,2.3-0.6,3.3c-0.4,1-1,1.9-1.9,2.6
		c-0.8,0.7-1.9,1.3-3.1,1.7c-1.3,0.4-2.8,0.6-4.5,0.6c-1.4,0-2.7-0.1-3.9-0.3s-2.4-0.6-3.4-1.2v-3.2c1.1,0.6,2.3,1,3.6,1.3
		c1.3,0.3,2.5,0.5,3.7,0.5c1.2,0,2.2-0.1,3-0.4s1.5-0.6,2.1-1.1s0.9-1,1.2-1.7c0.3-0.7,0.4-1.4,0.4-2.3c0-0.9-0.2-1.6-0.5-2.2
		c-0.3-0.6-0.8-1.1-1.4-1.5c-0.6-0.4-1.4-0.7-2.3-0.9s-1.9-0.3-3-0.3h-2.5V111h2.5c1,0,1.9-0.1,2.7-0.4c0.8-0.3,1.5-0.6,2-1.1
		s0.9-1,1.2-1.7s0.4-1.3,0.4-2.1c0-0.7-0.1-1.2-0.3-1.8c-0.2-0.5-0.5-1-1-1.3c-0.4-0.4-0.9-0.6-1.5-0.8s-1.2-0.3-1.9-0.3
		c-1.3,0-2.5,0.2-3.6,0.6c-1,0.4-2,1-2.9,1.6l-1.7-2.4c0.5-0.4,1-0.8,1.6-1.1c0.6-0.3,1.2-0.6,1.9-0.9c0.7-0.3,1.4-0.5,2.2-0.6
		c0.8-0.2,1.6-0.2,2.5-0.2c1.4,0,2.5,0.2,3.6,0.5c1,0.3,1.9,0.8,2.6,1.4c0.7,0.6,1.2,1.3,1.6,2.2
		C441.8,103.7,441.9,104.6,441.9,105.6z"/>
	<path style="fill:#404040;" d="M458.4,94.6l-10.1,38.5H445l10.2-38.5H458.4z"/>
	<path style="fill:#404040;" d="M478.4,120.5h-4v6.2h-3.3v-6.2h-12.7v-3L470.9,99h3.5v18.4h4V120.5z M471.1,117.4v-6.7
		c0-0.7,0-1.4,0-2.2c0-0.8,0-1.5,0.1-2.3c0-0.7,0.1-1.4,0.1-2.1c0-0.6,0.1-1.2,0.1-1.6h-0.2c-0.1,0.3-0.2,0.5-0.3,0.8
		c-0.1,0.3-0.3,0.6-0.4,0.9c-0.2,0.3-0.3,0.6-0.5,0.9s-0.3,0.5-0.5,0.7l-7.7,11.5H471.1z"/>
	<path style="fill:#404040;" d="M486.2,98.6l-1,10h-2.4l-1-10H486.2z M493,98.6l-1,10h-2.3l-1-10H493z"/>
	<path style="fill:#404040;" d="M515.5,114.3l-6-6l2-2l6,6l6.1-6l2,1.9l-6.1,6.1l6,6l-1.9,1.9l-6.1-6l-6,5.9l-1.9-1.9L515.5,114.3z"
		/>
	<path style="fill:#404040;" d="M551.6,126.7h-3.3v-17.2c0-0.5,0-1.1,0-1.7c0-0.6,0-1.2,0-1.8c0-0.6,0-1.2,0.1-1.8
		c0-0.6,0-1.1,0-1.5c-0.2,0.2-0.4,0.4-0.6,0.6c-0.2,0.2-0.3,0.3-0.5,0.5c-0.2,0.2-0.3,0.3-0.5,0.5c-0.2,0.2-0.4,0.4-0.7,0.6
		l-2.8,2.3l-1.8-2.3l7.2-5.6h2.8V126.7z"/>
	<path style="fill:#404040;" d="M576,110.9c0,1.3-0.1,2.6-0.2,3.9c-0.1,1.3-0.4,2.6-0.7,3.8c-0.3,1.2-0.8,2.3-1.4,3.3
		c-0.6,1-1.3,1.9-2.2,2.7c-0.9,0.8-2,1.3-3.2,1.8s-2.7,0.7-4.4,0.7c-0.2,0-0.5,0-0.8,0c-0.3,0-0.6,0-0.9-0.1s-0.6-0.1-0.8-0.1
		c-0.3,0-0.5-0.1-0.7-0.2v-2.9c0.4,0.2,0.9,0.3,1.5,0.4c0.6,0.1,1.1,0.1,1.6,0.1c1.7,0,3.1-0.3,4.2-0.9c1.1-0.6,2-1.4,2.6-2.4
		c0.6-1,1.1-2.2,1.4-3.5c0.3-1.3,0.4-2.8,0.5-4.3h-0.2c-0.3,0.5-0.6,0.9-0.9,1.3s-0.8,0.7-1.2,1s-1,0.5-1.6,0.7s-1.3,0.2-2,0.2
		c-1.2,0-2.3-0.2-3.2-0.6c-1-0.4-1.8-0.9-2.5-1.6c-0.7-0.7-1.2-1.6-1.6-2.6c-0.4-1-0.6-2.2-0.6-3.6c0-1.4,0.2-2.7,0.6-3.9
		c0.4-1.1,1-2.1,1.7-2.9c0.7-0.8,1.6-1.4,2.6-1.8c1-0.4,2.2-0.6,3.5-0.6c1.3,0,2.5,0.2,3.5,0.7c1.1,0.5,2,1.2,2.8,2.2
		c0.8,1,1.4,2.3,1.9,3.8C575.8,107.1,576,108.8,576,110.9z M567.1,101.7c-0.8,0-1.4,0.1-2.1,0.4c-0.6,0.3-1.2,0.6-1.6,1.2
		c-0.5,0.5-0.8,1.2-1,2s-0.4,1.7-0.4,2.8c0,0.9,0.1,1.7,0.3,2.4c0.2,0.7,0.5,1.3,0.9,1.8c0.4,0.5,0.9,0.9,1.6,1.1s1.3,0.4,2.2,0.4
		c0.9,0,1.6-0.1,2.3-0.4c0.7-0.3,1.3-0.7,1.8-1.1c0.5-0.5,0.9-1,1.1-1.6c0.3-0.6,0.4-1.2,0.4-1.8c0-0.8-0.1-1.7-0.3-2.5
		c-0.2-0.8-0.6-1.6-1-2.3c-0.5-0.7-1-1.2-1.7-1.6C568.8,101.9,568,101.7,567.1,101.7z"/>
	<path style="fill:#404040;" d="M585.6,98.6l-1,10h-2.4l-1-10H585.6z"/>
	<path style="fill:#404040;" d="M613,126.7h-3.3v-17.2c0-0.5,0-1.1,0-1.7c0-0.6,0-1.2,0-1.8c0-0.6,0-1.2,0.1-1.8c0-0.6,0-1.1,0-1.5
		c-0.2,0.2-0.4,0.4-0.6,0.6c-0.2,0.2-0.3,0.3-0.5,0.5c-0.2,0.2-0.3,0.3-0.5,0.5c-0.2,0.2-0.4,0.4-0.7,0.6l-2.8,2.3l-1.8-2.3l7.2-5.6
		h2.8V126.7z"/>
	<path style="fill:#404040;" d="M644.3,126.7h-3.3v-17.2c0-0.5,0-1.1,0-1.7c0-0.6,0-1.2,0-1.8c0-0.6,0-1.2,0.1-1.8
		c0-0.6,0-1.1,0-1.5c-0.2,0.2-0.4,0.4-0.6,0.6c-0.2,0.2-0.3,0.3-0.5,0.5c-0.2,0.2-0.3,0.3-0.5,0.5c-0.2,0.2-0.4,0.4-0.7,0.6
		l-2.8,2.3l-1.8-2.3l7.2-5.6h2.8V126.7z"/>
	<path style="fill:#404040;" d="M663.3,94.6l-10.1,38.5H650l10.2-38.5H663.3z"/>
	<path style="fill:#404040;" d="M683.3,120.5h-4v6.2H676v-6.2h-12.7v-3L675.8,99h3.5v18.4h4V120.5z M676,117.4v-6.7
		c0-0.7,0-1.4,0-2.2c0-0.8,0-1.5,0.1-2.3s0.1-1.4,0.1-2.1c0-0.6,0.1-1.2,0.1-1.6h-0.2c-0.1,0.3-0.2,0.5-0.3,0.8
		c-0.1,0.3-0.3,0.6-0.4,0.9c-0.2,0.3-0.3,0.6-0.5,0.9s-0.3,0.5-0.5,0.7l-7.7,11.5H676z"/>
	<path style="fill:#404040;" d="M691.1,98.6l-1,10h-2.4l-1-10H691.1z M697.9,98.6l-1,10h-2.3l-1-10H697.9z"/>
	<path style="fill:#404040;" d="M710.5,114c0,1.8-0.1,3.6-0.3,5.3c-0.2,1.7-0.6,3.4-1,5s-1,3.2-1.7,4.6c-0.7,1.5-1.5,2.9-2.5,4.2
		h-3.1c0.9-1.4,1.6-2.8,2.3-4.3s1.2-3.1,1.7-4.7c0.5-1.6,0.8-3.3,1-5s0.3-3.4,0.3-5.1c0-3.5-0.5-6.9-1.4-10.2
		c-0.9-3.3-2.3-6.4-4.1-9.1h3.2c1,1.3,1.8,2.8,2.5,4.3c0.7,1.5,1.3,3.1,1.7,4.8s0.8,3.3,1,5.1C710.4,110.5,710.5,112.2,710.5,114z"
		/>
</g>
<g>
	<path style="fill:#404040;" d="M1324,441.5c0,2.5-0.9,4.4-2.7,5.9c-1.8,1.4-4.3,2.1-7.5,2.1c-2.9,0-5.5-0.6-7.8-1.7v-5.4
		c1.9,0.8,3.4,1.4,4.7,1.8c1.3,0.3,2.5,0.5,3.5,0.5c1.3,0,2.3-0.2,3-0.7s1-1.2,1-2.2c0-0.5-0.2-1-0.5-1.4c-0.3-0.4-0.7-0.8-1.3-1.2
		c-0.6-0.4-1.8-1-3.6-1.9c-1.7-0.8-2.9-1.6-3.8-2.3c-0.8-0.7-1.5-1.6-2-2.5c-0.5-1-0.8-2.1-0.8-3.4c0-2.4,0.8-4.4,2.5-5.7
		c1.7-1.4,3.9-2.1,6.9-2.1c1.4,0,2.8,0.2,4.1,0.5c1.3,0.3,2.7,0.8,4.1,1.4l-1.9,4.5c-1.5-0.6-2.7-1-3.6-1.3c-1-0.2-1.9-0.4-2.8-0.4
		c-1.1,0-2,0.3-2.5,0.8c-0.6,0.5-0.9,1.2-0.9,2c0,0.5,0.1,1,0.4,1.3c0.2,0.4,0.6,0.8,1.1,1.1c0.5,0.4,1.8,1,3.7,1.9
		c2.6,1.2,4.3,2.5,5.3,3.7S1324,439.7,1324,441.5z"/>
	<path style="fill:#404040;" d="M1342,449.2l-1.1-2.9h-0.2c-1,1.2-2,2.1-3,2.5c-1,0.5-2.4,0.7-4,0.7c-2,0-3.6-0.6-4.8-1.7
		s-1.7-2.8-1.7-4.9c0-2.2,0.8-3.9,2.3-4.9c1.6-1.1,3.9-1.6,7.1-1.8l3.7-0.1v-0.9c0-2.1-1.1-3.2-3.3-3.2c-1.7,0-3.7,0.5-5.9,1.5
		l-1.9-3.9c2.4-1.3,5.1-1.9,8.1-1.9c2.8,0,5,0.6,6.5,1.8s2.3,3.1,2.3,5.6v14H1342z M1340.3,439.4l-2.2,0.1c-1.7,0-2.9,0.4-3.7,0.9
		c-0.8,0.6-1.2,1.4-1.2,2.5c0,1.6,0.9,2.4,2.8,2.4c1.3,0,2.4-0.4,3.2-1.2c0.8-0.8,1.2-1.8,1.2-3.1V439.4z"/>
	<path style="fill:#404040;" d="M1357,449.2h-5.7v-29.3h5.7V449.2z"/>
	<path style="fill:#404040;" d="M1368.2,449.2h-5.7v-29.3h5.7V449.2z"/>
	<path style="fill:#404040;" d="M1383.4,449.5c-3.4,0-6-0.9-8-2.8c-1.9-1.9-2.9-4.5-2.9-8c0-3.5,0.9-6.3,2.6-8.2s4.2-2.9,7.3-2.9
		c3,0,5.3,0.8,7,2.5c1.7,1.7,2.5,4,2.5,7v2.8h-13.6c0.1,1.6,0.5,2.9,1.5,3.8c0.9,0.9,2.2,1.4,3.8,1.4c1.3,0,2.5-0.1,3.6-0.4
		s2.3-0.7,3.5-1.3v4.4c-1,0.5-2.1,0.9-3.2,1.1S1385,449.5,1383.4,449.5z M1382.6,431.8c-1.2,0-2.2,0.4-2.9,1.2
		c-0.7,0.8-1.1,1.9-1.2,3.3h8.1c0-1.4-0.4-2.5-1.1-3.3C1384.7,432.2,1383.8,431.8,1382.6,431.8z"/>
	<path style="fill:#404040;" d="M1413.3,449.5c-2.5,0-4.4-1-5.8-2.9s-2.1-4.6-2.1-8c0-3.5,0.7-6.1,2.2-8.1c1.4-1.9,3.4-2.9,5.9-2.9
		c2.7,0,4.7,1,6.1,3.1h0.2c-0.3-1.6-0.4-3-0.4-4.2v-6.7h5.8v29.3h-4.4l-1.1-2.7h-0.2C1418,448.5,1416,449.5,1413.3,449.5z
		 M1415.3,445c1.5,0,2.5-0.4,3.2-1.3c0.7-0.9,1.1-2.3,1.1-4.4v-0.6c0-2.3-0.3-3.9-1-4.9c-0.7-1-1.8-1.5-3.4-1.5
		c-1.3,0-2.3,0.5-3,1.6c-0.7,1.1-1.1,2.7-1.1,4.7s0.4,3.6,1.1,4.7C1413,444.4,1414,445,1415.3,445z"/>
	<path style="fill:#404040;" d="M1438.3,421.4c-0.2,0.7-0.4,1.4-0.6,2.2c-0.2,0.8-0.5,1.5-0.8,2.3c-0.3,0.8-0.6,1.6-0.9,2.3
		s-0.6,1.5-1,2.2h-4.1c0.2-0.8,0.4-1.5,0.5-2.4c0.2-0.8,0.4-1.7,0.5-2.5c0.2-0.8,0.3-1.6,0.5-2.4c0.1-0.8,0.3-1.5,0.4-2.2h5.3
		L1438.3,421.4z"/>
	<path style="fill:#404040;" d="M1450.6,449.5c-3.4,0-6-0.9-8-2.8c-1.9-1.9-2.9-4.5-2.9-8c0-3.5,0.9-6.3,2.6-8.2s4.2-2.9,7.3-2.9
		c3,0,5.3,0.8,7,2.5c1.7,1.7,2.5,4,2.5,7v2.8h-13.6c0.1,1.6,0.5,2.9,1.5,3.8c0.9,0.9,2.2,1.4,3.8,1.4c1.3,0,2.5-0.1,3.6-0.4
		s2.3-0.7,3.5-1.3v4.4c-1,0.5-2.1,0.9-3.2,1.1C1453.7,449.4,1452.3,449.5,1450.6,449.5z M1449.8,431.8c-1.2,0-2.2,0.4-2.9,1.2
		c-0.7,0.8-1.1,1.9-1.2,3.3h8.1c0-1.4-0.4-2.5-1.1-3.3C1452,432.2,1451,431.8,1449.8,431.8z"/>
	<path style="fill:#404040;" d="M1468,438.4l-6.8-10.3h6.5l4.1,6.7l4.1-6.7h6.5l-6.9,10.3l7.2,10.8h-6.5l-4.4-7.2l-4.4,7.2h-6.5
		L1468,438.4z"/>
	<path style="fill:#404040;" d="M1497.3,449.5c-2.5,0-4.4-0.9-5.8-2.7h-0.3c0.2,1.8,0.3,2.8,0.3,3.1v8.5h-5.7v-30.3h4.7l0.8,2.7h0.3
		c1.3-2.1,3.3-3.1,6-3.1c2.5,0,4.4,1,5.8,2.9c1.4,1.9,2.1,4.6,2.1,8c0,2.2-0.3,4.2-1,5.9c-0.7,1.7-1.6,2.9-2.8,3.8
		S1499,449.5,1497.3,449.5z M1495.6,432.3c-1.4,0-2.5,0.4-3.1,1.3c-0.7,0.9-1,2.3-1,4.3v0.6c0,2.3,0.3,3.9,1,4.9
		c0.7,1,1.7,1.5,3.2,1.5c2.6,0,3.9-2.1,3.9-6.4c0-2.1-0.3-3.6-1-4.7C1498,432.8,1497,432.3,1495.6,432.3z"/>
	<path style="fill:#404040;" d="M1529.2,438.6c0,3.4-0.9,6.1-2.7,8c-1.8,1.9-4.3,2.9-7.6,2.9c-2,0-3.8-0.4-5.4-1.3
		c-1.5-0.9-2.7-2.2-3.6-3.8c-0.8-1.7-1.2-3.6-1.2-5.8c0-3.4,0.9-6.1,2.7-8c1.8-1.9,4.3-2.9,7.6-2.9c2,0,3.8,0.4,5.4,1.3
		s2.7,2.1,3.6,3.8S1529.2,436.4,1529.2,438.6z M1514.6,438.6c0,2.1,0.3,3.7,1,4.7c0.7,1.1,1.8,1.6,3.3,1.6c1.5,0,2.6-0.5,3.3-1.6
		c0.7-1.1,1-2.6,1-4.7c0-2.1-0.3-3.7-1-4.7c-0.7-1-1.8-1.6-3.3-1.6c-1.5,0-2.6,0.5-3.3,1.6C1514.9,434.9,1514.6,436.5,1514.6,438.6z
		"/>
	<path style="fill:#404040;" d="M1548.3,442.9c0,2.2-0.8,3.8-2.3,4.9s-3.7,1.7-6.7,1.7c-1.5,0-2.8-0.1-3.9-0.3
		c-1.1-0.2-2.1-0.5-3-0.9v-4.8c1.1,0.5,2.3,0.9,3.6,1.3c1.3,0.3,2.5,0.5,3.5,0.5c2.1,0,3.1-0.6,3.1-1.8c0-0.5-0.1-0.8-0.4-1.1
		c-0.3-0.3-0.8-0.6-1.4-1s-1.6-0.8-2.7-1.3c-1.6-0.7-2.8-1.3-3.6-1.9c-0.8-0.6-1.3-1.2-1.7-2s-0.5-1.7-0.5-2.8
		c0-1.9,0.7-3.3,2.2-4.3s3.5-1.5,6.2-1.5c2.5,0,5,0.6,7.4,1.7l-1.7,4.1c-1.1-0.5-2-0.8-3-1.1c-0.9-0.3-1.9-0.4-2.8-0.4
		c-1.7,0-2.5,0.5-2.5,1.4c0,0.5,0.3,1,0.8,1.3c0.5,0.4,1.7,0.9,3.6,1.7c1.6,0.7,2.9,1.3,3.6,1.9c0.8,0.6,1.3,1.2,1.7,2
		C1548.1,441,1548.3,441.9,1548.3,442.9z"/>
	<path style="fill:#404040;" d="M1552.2,422.6c0-1.9,1-2.8,3.1-2.8s3.1,0.9,3.1,2.8c0,0.9-0.3,1.6-0.8,2.1s-1.3,0.7-2.3,0.7
		C1553.2,425.5,1552.2,424.5,1552.2,422.6z M1558.2,449.2h-5.7v-21.1h5.7V449.2z"/>
	<path style="fill:#404040;" d="M1572.5,445c1,0,2.2-0.2,3.6-0.7v4.3c-1.4,0.6-3.2,1-5.3,1c-2.3,0-4-0.6-5-1.7
		c-1-1.2-1.6-2.9-1.6-5.2v-10.2h-2.8V430l3.2-1.9l1.7-4.4h3.7v4.5h5.9v4.3h-5.9v10.2c0,0.8,0.2,1.4,0.7,1.8
		C1571.2,444.8,1571.8,445,1572.5,445z"/>
	<path style="fill:#404040;" d="M1579.6,422.6c0-1.9,1-2.8,3.1-2.8s3.1,0.9,3.1,2.8c0,0.9-0.3,1.6-0.8,2.1s-1.3,0.7-2.3,0.7
		C1580.7,425.5,1579.6,424.5,1579.6,422.6z M1585.6,449.2h-5.7v-21.1h5.7V449.2z"/>
	<path style="fill:#404040;" d="M1610.3,438.6c0,3.4-0.9,6.1-2.7,8c-1.8,1.9-4.3,2.9-7.6,2.9c-2,0-3.8-0.4-5.4-1.3
		c-1.5-0.9-2.7-2.2-3.6-3.8c-0.8-1.7-1.2-3.6-1.2-5.8c0-3.4,0.9-6.1,2.7-8c1.8-1.9,4.3-2.9,7.6-2.9c2,0,3.8,0.4,5.4,1.3
		s2.7,2.1,3.6,3.8S1610.3,436.4,1610.3,438.6z M1595.7,438.6c0,2.1,0.3,3.7,1,4.7c0.7,1.1,1.8,1.6,3.3,1.6c1.5,0,2.6-0.5,3.3-1.6
		c0.7-1.1,1-2.6,1-4.7c0-2.1-0.3-3.7-1-4.7c-0.7-1-1.8-1.6-3.3-1.6c-1.5,0-2.6,0.5-3.3,1.6C1596,434.9,1595.7,436.5,1595.7,438.6z"
		/>
	<path style="fill:#404040;" d="M1634,449.2h-5.7v-12.3c0-1.5-0.3-2.7-0.8-3.4c-0.5-0.8-1.4-1.1-2.6-1.1c-1.6,0-2.8,0.5-3.5,1.6
		c-0.7,1.1-1.1,2.9-1.1,5.3v9.9h-5.7v-21.1h4.4l0.8,2.7h0.3c0.6-1,1.5-1.8,2.6-2.3c1.1-0.5,2.4-0.8,3.8-0.8c2.5,0,4.3,0.7,5.6,2
		c1.3,1.3,1.9,3.2,1.9,5.7V449.2z"/>
	<path style="fill:#404040;" d="M1317.6,495.5h-3.3v-17.2c0-0.5,0-1.1,0-1.7c0-0.6,0-1.2,0-1.8c0-0.6,0-1.2,0.1-1.8
		c0-0.6,0-1.1,0-1.5c-0.2,0.2-0.4,0.4-0.6,0.6c-0.2,0.2-0.3,0.3-0.5,0.5c-0.2,0.2-0.3,0.3-0.5,0.5c-0.2,0.2-0.4,0.4-0.7,0.6
		l-2.8,2.3l-1.8-2.3l7.2-5.6h2.8V495.5z"/>
	<path style="fill:#404040;" d="M1343.7,489.3h-4v6.2h-3.3v-6.2h-12.7v-3l12.5-18.5h3.5v18.4h4V489.3z M1336.4,486.2v-6.7
		c0-0.7,0-1.4,0-2.2c0-0.8,0-1.5,0.1-2.3c0-0.7,0.1-1.4,0.1-2.1c0-0.6,0.1-1.2,0.1-1.6h-0.2c-0.1,0.3-0.2,0.5-0.3,0.8
		c-0.1,0.3-0.3,0.6-0.4,0.9c-0.2,0.3-0.3,0.6-0.5,0.9s-0.3,0.5-0.5,0.7l-7.7,11.5H1336.4z"/>
	<path style="fill:#404040;" d="M1355.8,467.5c1.1,0,2.1,0.1,3,0.4c0.9,0.3,1.8,0.7,2.5,1.2s1.3,1.2,1.7,2.1
		c0.4,0.8,0.6,1.8,0.6,2.9c0,0.8-0.1,1.6-0.4,2.3c-0.3,0.7-0.6,1.3-1,1.8c-0.4,0.5-1,1-1.6,1.5c-0.6,0.4-1.3,0.8-2,1.2
		c0.7,0.4,1.4,0.8,2.1,1.3s1.3,1,1.9,1.6c0.5,0.6,1,1.3,1.3,2s0.5,1.6,0.5,2.5c0,1.2-0.2,2.2-0.6,3.1c-0.4,0.9-1,1.7-1.8,2.4
		c-0.8,0.7-1.7,1.2-2.7,1.5c-1.1,0.4-2.2,0.5-3.5,0.5c-1.4,0-2.6-0.2-3.7-0.5c-1.1-0.3-2-0.8-2.7-1.5s-1.3-1.4-1.7-2.3
		c-0.4-0.9-0.6-2-0.6-3.1c0-0.9,0.1-1.8,0.4-2.5c0.3-0.8,0.7-1.4,1.1-2s1-1.1,1.7-1.6c0.7-0.5,1.3-0.9,2.1-1.2
		c-0.6-0.4-1.2-0.8-1.7-1.3s-1-1-1.4-1.5s-0.7-1.2-0.9-1.9c-0.2-0.7-0.3-1.4-0.3-2.3c0-1.1,0.2-2.1,0.6-2.9s1-1.5,1.7-2.1
		c0.7-0.6,1.5-1,2.5-1.2C1353.8,467.6,1354.7,467.5,1355.8,467.5z M1350.5,488.5c0,0.7,0.1,1.3,0.3,1.8s0.5,1,0.9,1.4
		c0.4,0.4,1,0.7,1.6,0.9s1.4,0.3,2.3,0.3c0.9,0,1.7-0.1,2.3-0.3c0.7-0.2,1.2-0.5,1.7-0.9s0.8-0.9,1-1.5c0.2-0.6,0.3-1.2,0.3-1.9
		c0-0.7-0.1-1.2-0.4-1.8c-0.2-0.5-0.6-1-1.1-1.5c-0.5-0.5-1-0.9-1.6-1.3c-0.6-0.4-1.4-0.8-2.1-1.2l-0.6-0.3
		c-1.6,0.8-2.8,1.6-3.6,2.6C1350.9,485.9,1350.5,487.1,1350.5,488.5z M1355.7,470.4c-1.3,0-2.4,0.3-3.2,1c-0.8,0.7-1.2,1.6-1.2,2.9
		c0,0.7,0.1,1.3,0.3,1.8c0.2,0.5,0.5,1,0.9,1.4c0.4,0.4,0.9,0.8,1.4,1.1c0.5,0.3,1.1,0.6,1.8,0.9c0.6-0.3,1.2-0.6,1.7-0.9
		c0.5-0.3,1-0.7,1.4-1.1c0.4-0.4,0.7-0.9,0.9-1.4c0.2-0.5,0.3-1.1,0.3-1.8c0-1.3-0.4-2.2-1.2-2.9
		C1358.2,470.7,1357.1,470.4,1355.7,470.4z"/>
	<path style="fill:#404040;" d="M1369,493.4c0-0.5,0.1-0.9,0.2-1.2c0.1-0.3,0.3-0.6,0.5-0.8c0.2-0.2,0.5-0.4,0.8-0.5
		c0.3-0.1,0.6-0.1,0.9-0.1c0.3,0,0.6,0,0.9,0.1c0.3,0.1,0.5,0.2,0.8,0.5c0.2,0.2,0.4,0.5,0.5,0.8c0.1,0.3,0.2,0.7,0.2,1.2
		c0,0.5-0.1,0.9-0.2,1.2c-0.1,0.3-0.3,0.6-0.5,0.8c-0.2,0.2-0.5,0.4-0.8,0.5c-0.3,0.1-0.6,0.2-0.9,0.2c-0.3,0-0.7-0.1-0.9-0.2
		s-0.5-0.3-0.8-0.5c-0.2-0.2-0.4-0.5-0.5-0.8S1369,493.9,1369,493.4z"/>
	<path style="fill:#404040;" d="M1378,483.7c0-1.3,0.1-2.6,0.2-3.9c0.1-1.3,0.4-2.6,0.7-3.8c0.3-1.2,0.8-2.3,1.4-3.3
		c0.6-1,1.3-1.9,2.2-2.7c0.9-0.8,2-1.4,3.2-1.8s2.7-0.7,4.4-0.7c0.2,0,0.5,0,0.8,0c0.3,0,0.6,0,0.9,0.1c0.3,0,0.6,0.1,0.8,0.1
		s0.5,0.1,0.7,0.2v2.9c-0.4-0.2-0.9-0.3-1.5-0.3c-0.6-0.1-1.1-0.1-1.6-0.1c-1.1,0-2.1,0.1-3,0.4c-0.9,0.3-1.6,0.7-2.2,1.1
		c-0.6,0.5-1.2,1.1-1.6,1.8s-0.8,1.4-1,2.3s-0.5,1.7-0.6,2.6c-0.1,0.9-0.2,1.9-0.2,2.9h0.2c0.3-0.5,0.6-0.9,0.9-1.3
		c0.4-0.4,0.8-0.7,1.3-1c0.5-0.3,1-0.5,1.6-0.7c0.6-0.2,1.3-0.2,2-0.2c1.2,0,2.3,0.2,3.2,0.6c1,0.4,1.8,0.9,2.5,1.6
		c0.7,0.7,1.2,1.6,1.6,2.6c0.4,1,0.6,2.2,0.6,3.6c0,1.4-0.2,2.7-0.6,3.9s-0.9,2.1-1.7,2.9c-0.7,0.8-1.6,1.4-2.6,1.8
		c-1,0.4-2.2,0.6-3.5,0.6c-1.3,0-2.4-0.2-3.5-0.7s-2.1-1.2-2.9-2.2c-0.8-1-1.4-2.3-1.9-3.8C1378.2,487.6,1378,485.8,1378,483.7z
		 M1386.9,493c0.8,0,1.4-0.1,2.1-0.4c0.6-0.3,1.2-0.6,1.6-1.2c0.5-0.5,0.8-1.2,1-2s0.4-1.7,0.4-2.8c0-0.9-0.1-1.7-0.3-2.4
		s-0.5-1.3-0.9-1.8c-0.4-0.5-0.9-0.9-1.6-1.1s-1.3-0.4-2.2-0.4c-0.8,0-1.6,0.1-2.3,0.4c-0.7,0.3-1.3,0.7-1.8,1.2
		c-0.5,0.5-0.9,1-1.1,1.6s-0.4,1.2-0.4,1.8c0,0.8,0.1,1.7,0.3,2.5s0.6,1.6,1,2.3s1,1.2,1.7,1.6S1386,493,1386.9,493z"/>
	<path style="fill:#404040;" d="M1406.9,478.6c1.2,0,2.4,0.2,3.5,0.5s2,0.9,2.8,1.5s1.4,1.5,1.9,2.5c0.5,1,0.7,2.2,0.7,3.5
		c0,1.4-0.2,2.7-0.6,3.9c-0.4,1.1-1.1,2.1-1.9,2.9c-0.8,0.8-1.9,1.4-3.1,1.8c-1.2,0.4-2.7,0.6-4.3,0.6c-0.6,0-1.3,0-1.9-0.1
		c-0.6-0.1-1.2-0.2-1.8-0.3c-0.6-0.1-1.1-0.3-1.6-0.5s-1-0.4-1.4-0.7v-3.2c0.4,0.3,0.9,0.5,1.5,0.8c0.6,0.2,1.1,0.4,1.8,0.6
		c0.6,0.2,1.2,0.3,1.9,0.3s1.2,0.1,1.7,0.1c1,0,1.9-0.1,2.7-0.3s1.4-0.6,2-1.1s1-1.1,1.2-1.8s0.4-1.6,0.4-2.6c0-1.8-0.6-3.2-1.7-4.1
		c-1.1-0.9-2.7-1.4-4.8-1.4c-0.3,0-0.7,0-1.1,0s-0.8,0.1-1.2,0.1c-0.4,0.1-0.8,0.1-1.1,0.2s-0.7,0.1-0.9,0.2l-1.7-1.1l1-13h13v3.1
		h-10l-0.7,7.9c0.4-0.1,0.9-0.2,1.6-0.2C1405.3,478.6,1406,478.6,1406.9,478.6z"/>
	<path style="fill:#404040;" d="M1444.7,489.8c0,1.9-0.7,3.4-2.2,4.5c-1.4,1.1-3.5,1.6-6.1,1.6c-2.7,0-4.9-0.4-6.5-1.3v-3.1
		c2.3,1.1,4.5,1.7,6.6,1.7c1.7,0,3-0.3,3.7-0.8s1.2-1.3,1.2-2.2c0-0.8-0.4-1.5-1.1-2.1c-0.7-0.6-2.1-1.2-4-1.9
		c-1.9-0.8-3.3-1.4-4.1-1.9c-0.8-0.5-1.4-1.1-1.7-1.8c-0.4-0.7-0.6-1.5-0.6-2.4c0-1.7,0.7-3,2.1-4c1.4-1,3.3-1.5,5.7-1.5
		c2.3,0,4.5,0.5,6.6,1.4l-1.1,2.7c-2.1-0.9-4-1.3-5.7-1.3c-1.4,0-2.5,0.2-3.2,0.7c-0.7,0.4-1.1,1.1-1.1,1.8c0,0.8,0.3,1.4,0.9,1.9
		c0.6,0.5,2.1,1.2,4.4,2.1c1.7,0.6,3,1.2,3.8,1.8s1.4,1.2,1.8,1.9C1444.5,488,1444.7,488.8,1444.7,489.8z"/>
	<path style="fill:#404040;" d="M1456.7,495.9c-2.7,0-4.7-0.9-6.2-2.8c-1.5-1.9-2.2-4.5-2.2-7.9c0-3.4,0.8-6,2.3-7.9
		c1.5-1.9,3.6-2.9,6.3-2.9c2.8,0,5,1.1,6.4,3.2h0.2l0.5-2.8h2.7v30h-3.4v-8.8c0-1.4,0.1-2.5,0.2-3.2h-0.2
		C1461.7,494.8,1459.6,495.9,1456.7,495.9z M1457.3,493.1c2,0,3.5-0.6,4.4-1.7c0.9-1.1,1.4-2.9,1.5-5.5v-0.7c0-2.9-0.5-4.9-1.4-6.1
		c-1-1.2-2.5-1.9-4.5-1.9c-1.8,0-3.1,0.7-4.1,2.1c-0.9,1.4-1.4,3.4-1.4,5.9c0,2.5,0.5,4.5,1.4,5.8
		C1454.1,492.4,1455.5,493.1,1457.3,493.1z"/>
	<path style="fill:#404040;" d="M1492.7,477.4h-5.2v18.1h-3.4v-18.1h-3.6v-1.6l3.6-1.2v-1.2c0-2.5,0.5-4.4,1.6-5.7
		c1.1-1.3,2.8-1.9,5.1-1.9c1.3,0,2.7,0.2,4,0.7l-0.9,2.7c-1.2-0.4-2.2-0.6-3.1-0.6c-1.1,0-2,0.4-2.5,1.1c-0.6,0.8-0.8,1.9-0.8,3.6
		v1.3h5.2V477.4z"/>
	<path style="fill:#404040;" d="M1504.7,493.1c0.4,0,1,0,1.5-0.1s1-0.2,1.3-0.3v2.6c-0.3,0.1-0.8,0.3-1.5,0.4
		c-0.7,0.1-1.3,0.2-2,0.2c-4,0-6.1-2.1-6.1-6.4v-12h-2.9v-1.6l3-1.4l1.4-4.4h2v4.8h6v2.6h-6v12c0,1.2,0.3,2.1,0.9,2.8
		C1502.9,492.8,1503.7,493.1,1504.7,493.1z"/>
	<path style="fill:#404040;" d="M1306.9,528.8c0-1.8,0.1-3.6,0.3-5.3s0.6-3.4,1-5s1-3.2,1.7-4.6s1.5-2.9,2.5-4.2h3.1
		c-0.9,1.4-1.6,2.8-2.3,4.3c-0.7,1.5-1.2,3.1-1.7,4.7c-0.5,1.6-0.8,3.3-1,5c-0.2,1.7-0.3,3.4-0.3,5.1c0,3.5,0.5,6.9,1.4,10.2
		c0.9,3.3,2.3,6.4,4.1,9.1h-3.2c-1-1.3-1.8-2.8-2.5-4.3c-0.7-1.5-1.3-3.1-1.7-4.8s-0.8-3.3-1-5.1
		C1307,532.3,1306.9,530.6,1306.9,528.8z"/>
	<path style="fill:#404040;" d="M1328.2,541.8h-3.3v-17.2c0-0.5,0-1.1,0-1.7c0-0.6,0-1.2,0-1.8c0-0.6,0-1.2,0.1-1.8
		c0-0.6,0-1.1,0-1.5c-0.2,0.2-0.4,0.4-0.6,0.6c-0.2,0.2-0.3,0.3-0.5,0.5c-0.2,0.2-0.3,0.3-0.5,0.5c-0.2,0.2-0.4,0.4-0.7,0.6
		l-2.8,2.3l-1.8-2.3l7.2-5.6h2.8V541.8z"/>
	<path style="fill:#404040;" d="M1345.7,541.8h-3.3v-17.2c0-0.5,0-1.1,0-1.7c0-0.6,0-1.2,0-1.8c0-0.6,0-1.2,0.1-1.8
		c0-0.6,0-1.1,0-1.5c-0.2,0.2-0.4,0.4-0.6,0.6c-0.2,0.2-0.3,0.3-0.5,0.5c-0.2,0.2-0.3,0.3-0.5,0.5c-0.2,0.2-0.4,0.4-0.7,0.6
		l-2.8,2.3l-1.8-2.3l7.2-5.6h2.8V541.8z"/>
	<path style="fill:#404040;" d="M1358.9,513.7l-1,10h-2.4l-1-10H1358.9z"/>
	<path style="fill:#404040;" d="M1378.1,541.8l10.6-24.4h-14.2v-3.1h17.7v2.7l-10.5,24.8H1378.1z"/>
	<path style="fill:#404040;" d="M1402.2,513.7l-1,10h-2.4l-1-10H1402.2z M1409,513.7l-1,10h-2.3l-1-10H1409z"/>
	<path style="fill:#404040;" d="M1431.5,529.4l-6-6l2-2l6,6l6.1-6l2,1.9l-6.1,6.1l6,6l-1.9,1.9l-6.1-6l-6,5.9l-1.9-1.9L1431.5,529.4
		z"/>
	<path style="fill:#404040;" d="M1467.6,541.8h-3.3v-17.2c0-0.5,0-1.1,0-1.7c0-0.6,0-1.2,0-1.8c0-0.6,0-1.2,0.1-1.8
		c0-0.6,0-1.1,0-1.5c-0.2,0.2-0.4,0.4-0.6,0.6c-0.2,0.2-0.3,0.3-0.5,0.5c-0.2,0.2-0.3,0.3-0.5,0.5c-0.2,0.2-0.4,0.4-0.7,0.6
		l-2.8,2.3l-1.8-2.3l7.2-5.6h2.8V541.8z"/>
	<path style="fill:#404040;" d="M1491.5,541.8h-17.2v-2.9l6.6-7.2c0.9-1,1.8-1.9,2.5-2.8s1.4-1.7,1.9-2.5c0.5-0.8,0.9-1.6,1.2-2.4
		c0.3-0.8,0.4-1.7,0.4-2.6c0-0.7-0.1-1.4-0.3-2s-0.5-1-0.9-1.4c-0.4-0.4-0.9-0.7-1.4-0.9c-0.5-0.2-1.1-0.3-1.8-0.3
		c-1.2,0-2.3,0.2-3.2,0.7c-1,0.5-1.9,1.1-2.7,1.9l-1.9-2.2c0.5-0.5,1-0.9,1.6-1.3s1.2-0.7,1.9-1s1.4-0.5,2.1-0.7
		c0.7-0.2,1.5-0.3,2.3-0.3c1.2,0,2.3,0.2,3.3,0.5c1,0.3,1.8,0.8,2.5,1.5c0.7,0.6,1.2,1.4,1.6,2.3c0.4,0.9,0.6,1.9,0.6,3.1
		c0,1.1-0.2,2.1-0.5,3.1s-0.8,1.9-1.4,2.9c-0.6,0.9-1.3,1.9-2.1,2.8s-1.7,1.9-2.6,2.9l-5.3,5.6v0.2h13V541.8z"/>
	<path style="fill:#404040;" d="M1501.1,513.7l-1,10h-2.4l-1-10H1501.1z"/>
	<path style="fill:#404040;" d="M1528.4,541.8h-3.3v-17.2c0-0.5,0-1.1,0-1.7c0-0.6,0-1.2,0-1.8c0-0.6,0-1.2,0.1-1.8
		c0-0.6,0-1.1,0-1.5c-0.2,0.2-0.4,0.4-0.6,0.6c-0.2,0.2-0.3,0.3-0.5,0.5c-0.2,0.2-0.3,0.3-0.5,0.5c-0.2,0.2-0.4,0.4-0.7,0.6
		l-2.8,2.3l-1.8-2.3l7.2-5.6h2.8V541.8z"/>
	<path style="fill:#404040;" d="M1553.6,528c0,2.2-0.2,4.2-0.5,6c-0.3,1.8-0.8,3.2-1.5,4.5c-0.7,1.2-1.6,2.1-2.7,2.8
		c-1.1,0.6-2.5,1-4.1,1c-1.5,0-2.8-0.3-3.9-1c-1.1-0.6-2-1.6-2.7-2.8s-1.3-2.7-1.6-4.5c-0.4-1.8-0.5-3.8-0.5-6c0-2.2,0.2-4.2,0.5-6
		c0.3-1.8,0.8-3.2,1.5-4.5s1.6-2.1,2.7-2.8c1.1-0.6,2.5-1,4-1c1.5,0,2.8,0.3,3.9,1c1.1,0.6,2,1.6,2.8,2.8c0.7,1.2,1.3,2.7,1.6,4.5
		C1553.4,523.8,1553.6,525.8,1553.6,528z M1539.5,528c0,1.9,0.1,3.5,0.3,4.9s0.5,2.6,0.9,3.5c0.4,0.9,1,1.6,1.6,2.1
		c0.7,0.5,1.5,0.7,2.5,0.7s1.8-0.2,2.5-0.7c0.7-0.5,1.2-1.2,1.7-2.1c0.4-0.9,0.7-2.1,0.9-3.5c0.2-1.4,0.3-3.1,0.3-5
		c0-1.9-0.1-3.5-0.3-4.9c-0.2-1.4-0.5-2.6-0.9-3.5c-0.4-0.9-1-1.6-1.7-2.1c-0.7-0.5-1.5-0.7-2.5-0.7s-1.8,0.2-2.5,0.7
		c-0.7,0.5-1.2,1.2-1.6,2.1c-0.4,0.9-0.7,2.1-0.9,3.5C1539.6,524.5,1539.5,526.1,1539.5,528z"/>
	<path style="fill:#404040;" d="M1563.2,513.7l-1,10h-2.4l-1-10H1563.2z M1570,513.7l-1,10h-2.3l-1-10H1570z"/>
	<path style="fill:#404040;" d="M1582.6,529.1c0,1.8-0.1,3.6-0.3,5.3s-0.6,3.4-1,5s-1,3.2-1.7,4.6s-1.5,2.9-2.5,4.2h-3.1
		c0.9-1.4,1.6-2.8,2.3-4.3s1.2-3.1,1.7-4.7c0.5-1.6,0.8-3.3,1-5c0.2-1.7,0.3-3.4,0.3-5.1c0-3.5-0.5-6.9-1.4-10.2
		c-0.9-3.3-2.3-6.4-4.1-9.1h3.2c1,1.3,1.8,2.8,2.5,4.3c0.7,1.5,1.3,3.1,1.7,4.8s0.8,3.3,1,5.1
		C1582.5,525.6,1582.6,527.3,1582.6,529.1z"/>
</g>
<line style="fill:none;stroke:#808080;stroke-miterlimit:10;stroke-dasharray:0.6924,0.6924;" x1="1258.7" y1="247.4" x2="1258.7" y2="186.6"/>
<line style="fill:none;stroke:#808080;stroke-miterlimit:10;" x1="1258.7" y1="198.8" x2="1258.7" y2="183.6"/>
<line style="fill:none;stroke:#808080;stroke-miterlimit:10;stroke-dasharray:0.6924,0.6924;" x1="1687.6" y1="247.3" x2="1687.6" y2="186.6"/>
<line style="fill:none;stroke:#808080;stroke-miterlimit:10;" x1="1687.6" y1="198.7" x2="1687.6" y2="183.6"/>
<polyline style="fill:#808080;" points="1258.7,186.6 1264.8,183.6 1264.8,189.6 1258.7,186.6 "/>
<polyline style="fill:none;stroke:#808080;stroke-miterlimit:10;" points="1258.7,186.6 1264.8,183.6 1264.8,189.6 1258.7,186.6 "/>
<polyline style="fill:#808080;" points="1687.6,186.6 1681.5,189.6 1681.5,183.6 1687.6,186.6 "/>
<polyline style="fill:none;stroke:#808080;stroke-miterlimit:10;" points="1687.6,186.6 1681.5,189.6 1681.5,183.6 1687.6,186.6 "/>
<g>
	<path style="fill:#808080;" d="M1449.6,194.3h-2.1v-10.8c0-0.3,0-0.7,0-1.1c0-0.4,0-0.8,0-1.2c0-0.4,0-0.8,0-1.1s0-0.7,0-0.9
		c-0.1,0.1-0.3,0.3-0.4,0.4c-0.1,0.1-0.2,0.2-0.3,0.3s-0.2,0.2-0.3,0.3c-0.1,0.1-0.3,0.2-0.4,0.4l-1.8,1.4l-1.1-1.5l4.5-3.5h1.8
		V194.3z"/>
	<path style="fill:#808080;" d="M1463,194.3l-2.1,0v-10.8c0-0.3,0-0.7,0-1.1c0-0.4,0-0.8,0-1.2c0-0.4,0-0.8,0-1.1s0-0.7,0-0.9
		c-0.1,0.1-0.3,0.3-0.4,0.4c-0.1,0.1-0.2,0.2-0.3,0.3s-0.2,0.2-0.3,0.3c-0.1,0.1-0.3,0.2-0.4,0.4l-1.8,1.4l-1.1-1.5l4.5-3.5l1.8,0
		V194.3z"/>
	<path style="fill:#808080;" d="M1473.5,176.6l-0.6,6.3h-1.5l-0.6-6.3H1473.5z"/>
	<path style="fill:#808080;" d="M1485.5,194.3l6.7-15.4l-8.9,0v-2l11.2,0v1.7l-6.6,15.6L1485.5,194.3z"/>
	<path style="fill:#808080;" d="M1501.1,176.6l-0.6,6.3h-1.5l-0.6-6.3H1501.1z M1505.3,176.6l-0.6,6.3h-1.5l-0.6-6.3H1505.3z"/>
</g>
<path style="fill:none;stroke:#808080;stroke-miterlimit:10;" d="M1523.6,186.6h161.9 M1259.7,186.6l161.9,0"/>
<path style="fill:#636363;" d="M1588.6,818.4c35.4,0,70.8,0,106.2,0c0,3.5,0,7.1,0,10.6c-35.4,0-70.8,0-106.2,0
	C1588.6,825.4,1588.6,821.9,1588.6,818.4z"/>
<g>
</g>
<g>
</g>
<g>
</g>
<g>
</g>
<g>
</g>
<g>
</g>
<g>
</g>
<g>
</g>
<g>
</g>
<g>
</g>
<g>
</g>
<g>
</g>
<g>
</g>
<g>
</g>
<g>
</g>
</svg>
