<?xml version="1.0" encoding="UTF-8" standalone="no"?>
<!DOCTYPE svg PUBLIC "-//W3C//DTD SVG 1.1//EN" "http://www.w3.org/Graphics/SVG/1.1/DTD/svg11.dtd">
<svg width="100%" height="100%" viewBox="0 0 1234 280" version="1.1" xmlns="http://www.w3.org/2000/svg" xmlns:xlink="http://www.w3.org/1999/xlink" xml:space="preserve" xmlns:serif="http://www.serif.com/" style="fill-rule:evenodd;clip-rule:evenodd;stroke-linejoin:round;stroke-miterlimit:2;">
    <g id="Logotype" transform="matrix(1,0,0,1,-183,-180)">
        <g id="ART-CONTEMPORAIN---CONTEMPORARY-ART" serif:id="ART CONTEMPORAIN / CONTEMPORARY ART" transform="matrix(0.675197,0,0,0.026806,88.899,417.382)">
            <g>
                <path d="M169.52,1423.35L178.647,1423.35L163.64,410.67L154.345,410.67L139.227,1423.35L147.794,1423.35L150.874,1206.15L166.496,1206.15L169.52,1423.35ZM158.769,644.801L164.144,1035.49L153.281,1035.49L158.769,644.801Z" style="fill:rgb(35,31,32);fill-rule:nonzero;"/>
                <path d="M208.661,1423.35L208.661,1065.11L213.98,1065.11L223.051,1423.35L233.186,1423.35L222.827,1032.67C228.539,984.713 231.899,876.11 231.899,739.299C231.899,529.146 226.019,410.67 215.884,410.67L200.149,410.67L200.149,1423.35L208.661,1423.35ZM208.661,588.384L215.492,588.384C220.644,588.384 223.387,639.159 223.387,739.299C223.387,838.029 220.644,888.804 215.492,888.804L208.661,888.804L208.661,588.384Z" style="fill:rgb(35,31,32);fill-rule:nonzero;"/>
                <path d="M272.42,1423.35L272.42,603.898L285.131,603.898L285.131,410.67L251.254,410.67L251.254,603.898L263.909,603.898L263.909,1423.35L272.42,1423.35Z" style="fill:rgb(35,31,32);fill-rule:nonzero;"/>
                <path d="M352.997,1444.51C363.58,1444.51 371.867,1268.21 373.267,1005.87L364.252,1005.87C363.244,1151.14 358.821,1252.69 353.109,1252.69C346.222,1252.69 341.574,1114.47 341.574,915.602C341.574,718.143 346.222,581.332 353.109,581.332C358.821,581.332 363.3,681.472 364.252,826.745L373.267,826.745C371.867,567.227 363.58,389.514 352.997,389.514C341.686,389.514 332.839,619.413 332.839,915.602C332.839,1213.2 341.686,1444.51 352.997,1444.51Z" style="fill:rgb(35,31,32);fill-rule:nonzero;"/>
                <path d="M414.032,1444.51C425.679,1444.51 434.694,1218.84 434.694,915.602C434.694,612.361 425.679,389.514 414.032,389.514C402.441,389.514 393.482,612.361 393.482,915.602C393.482,1218.84 402.441,1444.51 414.032,1444.51ZM414.032,1252.69C406.696,1252.69 402.217,1101.78 402.217,915.602C402.217,729.426 406.696,581.332 414.032,581.332C421.423,581.332 425.903,729.426 425.903,915.602C425.903,1101.78 421.423,1252.69 414.032,1252.69Z" style="fill:rgb(35,31,32);fill-rule:nonzero;"/>
                <path d="M483.41,1423.35L491.753,1423.35L491.753,410.67L483.914,410.67L483.914,1082.03L466.387,410.67L457.204,410.67L457.204,1423.35L464.987,1423.35L464.987,716.732L483.41,1423.35Z" style="fill:rgb(35,31,32);fill-rule:nonzero;"/>
                <path d="M534.645,1423.35L534.645,603.898L547.356,603.898L547.356,410.67L513.479,410.67L513.479,603.898L526.134,603.898L526.134,1423.35L534.645,1423.35Z" style="fill:rgb(35,31,32);fill-rule:nonzero;"/>
                <path d="M596.128,1237.18L577.594,1237.18L577.594,994.586L594.056,994.586L594.056,809.82L577.594,809.82L577.594,596.846L595.736,596.846L595.736,410.67L569.082,410.67L569.082,1423.35L596.128,1423.35L596.128,1237.18Z" style="fill:rgb(35,31,32);fill-rule:nonzero;"/>
                <path d="M637.621,1423.35L644.732,1423.35L655.371,744.941L655.371,1423.35L663.098,1423.35L663.098,410.67L652.907,410.67L641.204,1161.02L629.557,410.67L619.366,410.67L619.366,1423.35L627.094,1423.35L627.094,750.582L637.621,1423.35Z" style="fill:rgb(35,31,32);fill-rule:nonzero;"/>
                <path d="M702.799,1093.32C712.598,1093.32 718.702,967.788 718.702,747.762C718.702,527.735 712.598,410.67 702.799,410.67L687.96,410.67L687.96,1423.35L696.472,1423.35L696.472,1093.32L702.799,1093.32ZM702.743,591.205C707.559,591.205 710.246,649.032 710.246,749.172C710.246,849.312 707.559,912.781 702.743,912.781L696.472,912.781L696.472,591.205L702.743,591.205Z" style="fill:rgb(35,31,32);fill-rule:nonzero;"/>
                <path d="M759.298,1444.51C770.945,1444.51 779.96,1218.84 779.96,915.602C779.96,612.361 770.945,389.514 759.298,389.514C747.707,389.514 738.748,612.361 738.748,915.602C738.748,1218.84 747.707,1444.51 759.298,1444.51ZM759.298,1252.69C751.963,1252.69 747.483,1101.78 747.483,915.602C747.483,729.426 751.963,581.332 759.298,581.332C766.689,581.332 771.169,729.426 771.169,915.602C771.169,1101.78 766.689,1252.69 759.298,1252.69Z" style="fill:rgb(35,31,32);fill-rule:nonzero;"/>
                <path d="M810.982,1423.35L810.982,1065.11L816.301,1065.11L825.372,1423.35L835.508,1423.35L825.148,1032.67C830.86,984.713 834.22,876.11 834.22,739.299C834.22,529.146 828.34,410.67 818.205,410.67L802.47,410.67L802.47,1423.35L810.982,1423.35ZM810.982,588.384L817.813,588.384C822.965,588.384 825.708,639.159 825.708,739.299C825.708,838.029 822.965,888.804 817.813,888.804L810.982,888.804L810.982,588.384Z" style="fill:rgb(35,31,32);fill-rule:nonzero;"/>
                <path d="M884.047,1423.35L893.175,1423.35L878.168,410.67L868.873,410.67L853.754,1423.35L862.321,1423.35L865.401,1206.15L881.024,1206.15L884.047,1423.35ZM873.296,644.801L878.672,1035.49L867.809,1035.49L873.296,644.801Z" style="fill:rgb(35,31,32);fill-rule:nonzero;"/>
                <rect x="914.677" y="410.67" width="8.511" height="1012.68" style="fill:rgb(35,31,32);fill-rule:nonzero;"/>
                <path d="M974.256,1423.35L982.599,1423.35L982.599,410.67L974.76,410.67L974.76,1082.03L957.233,410.67L948.05,410.67L948.05,1423.35L955.833,1423.35L955.833,716.732L974.256,1423.35Z" style="fill:rgb(35,31,32);fill-rule:nonzero;"/>
            </g>
            <path d="M1037.36,1583.63L1062.06,298.732L1054.38,298.732L1029.69,1583.63L1037.36,1583.63Z" style="fill:rgb(35,31,32);fill-rule:nonzero;"/>
            <g>
                <path d="M1126.9,1444.51C1137.48,1444.51 1145.77,1268.21 1147.17,1005.87L1138.15,1005.87C1137.15,1151.14 1132.72,1252.69 1127.01,1252.69C1120.12,1252.69 1115.48,1114.47 1115.48,915.602C1115.48,718.143 1120.12,581.332 1127.01,581.332C1132.72,581.332 1137.2,681.472 1138.15,826.745L1147.17,826.745C1145.77,567.227 1137.48,389.514 1126.9,389.514C1115.59,389.514 1106.74,619.413 1106.74,915.602C1106.74,1213.2 1115.59,1444.51 1126.9,1444.51Z" style="fill:rgb(35,31,32);fill-rule:nonzero;"/>
                <path d="M1187.93,1444.51C1199.58,1444.51 1208.6,1218.84 1208.6,915.602C1208.6,612.361 1199.58,389.514 1187.93,389.514C1176.34,389.514 1167.38,612.361 1167.38,915.602C1167.38,1218.84 1176.34,1444.51 1187.93,1444.51ZM1187.93,1252.69C1180.6,1252.69 1176.12,1101.78 1176.12,915.602C1176.12,729.426 1180.6,581.332 1187.93,581.332C1195.33,581.332 1199.8,729.426 1199.8,915.602C1199.8,1101.78 1195.33,1252.69 1187.93,1252.69Z" style="fill:rgb(35,31,32);fill-rule:nonzero;"/>
                <path d="M1257.31,1423.35L1265.65,1423.35L1265.65,410.67L1257.82,410.67L1257.82,1082.03L1240.29,410.67L1231.11,410.67L1231.11,1423.35L1238.89,1423.35L1238.89,716.732L1257.31,1423.35Z" style="fill:rgb(35,31,32);fill-rule:nonzero;"/>
                <path d="M1308.55,1423.35L1308.55,603.898L1321.26,603.898L1321.26,410.67L1287.38,410.67L1287.38,603.898L1300.04,603.898L1300.04,1423.35L1308.55,1423.35Z" style="fill:rgb(35,31,32);fill-rule:nonzero;"/>
                <path d="M1370.03,1237.18L1351.5,1237.18L1351.5,994.586L1367.96,994.586L1367.96,809.82L1351.5,809.82L1351.5,596.846L1369.64,596.846L1369.64,410.67L1342.98,410.67L1342.98,1423.35L1370.03,1423.35L1370.03,1237.18Z" style="fill:rgb(35,31,32);fill-rule:nonzero;"/>
                <path d="M1411.52,1423.35L1418.63,1423.35L1429.27,744.941L1429.27,1423.35L1437,1423.35L1437,410.67L1426.81,410.67L1415.11,1161.02L1403.46,410.67L1393.27,410.67L1393.27,1423.35L1401,1423.35L1401,750.582L1411.52,1423.35Z" style="fill:rgb(35,31,32);fill-rule:nonzero;"/>
                <path d="M1476.7,1093.32C1486.5,1093.32 1492.6,967.788 1492.6,747.762C1492.6,527.735 1486.5,410.67 1476.7,410.67L1461.86,410.67L1461.86,1423.35L1470.37,1423.35L1470.37,1093.32L1476.7,1093.32ZM1476.64,591.205C1481.46,591.205 1484.15,649.032 1484.15,749.172C1484.15,849.312 1481.46,912.781 1476.64,912.781L1470.37,912.781L1470.37,591.205L1476.64,591.205Z" style="fill:rgb(35,31,32);fill-rule:nonzero;"/>
                <path d="M1533.2,1444.51C1544.85,1444.51 1553.86,1218.84 1553.86,915.602C1553.86,612.361 1544.85,389.514 1533.2,389.514C1521.61,389.514 1512.65,612.361 1512.65,915.602C1512.65,1218.84 1521.61,1444.51 1533.2,1444.51ZM1533.2,1252.69C1525.86,1252.69 1521.38,1101.78 1521.38,915.602C1521.38,729.426 1525.86,581.332 1533.2,581.332C1540.59,581.332 1545.07,729.426 1545.07,915.602C1545.07,1101.78 1540.59,1252.69 1533.2,1252.69Z" style="fill:rgb(35,31,32);fill-rule:nonzero;"/>
                <path d="M1584.88,1423.35L1584.88,1065.11L1590.2,1065.11L1599.27,1423.35L1609.41,1423.35L1599.05,1032.67C1604.76,984.713 1608.12,876.11 1608.12,739.299C1608.12,529.146 1602.24,410.67 1592.11,410.67L1576.37,410.67L1576.37,1423.35L1584.88,1423.35ZM1584.88,588.384L1591.72,588.384C1596.87,588.384 1599.61,639.159 1599.61,739.299C1599.61,838.029 1596.87,888.804 1591.72,888.804L1584.88,888.804L1584.88,588.384Z" style="fill:rgb(35,31,32);fill-rule:nonzero;"/>
                <path d="M1657.95,1423.35L1667.08,1423.35L1652.07,410.67L1642.77,410.67L1627.66,1423.35L1636.22,1423.35L1639.3,1206.15L1654.92,1206.15L1657.95,1423.35ZM1647.2,644.801L1652.57,1035.49L1641.71,1035.49L1647.2,644.801Z" style="fill:rgb(35,31,32);fill-rule:nonzero;"/>
                <path d="M1697.09,1423.35L1697.09,1065.11L1702.41,1065.11L1711.48,1423.35L1721.62,1423.35L1711.26,1032.67C1716.97,984.713 1720.33,876.11 1720.33,739.299C1720.33,529.146 1714.45,410.67 1704.31,410.67L1688.58,410.67L1688.58,1423.35L1697.09,1423.35ZM1697.09,588.384L1703.92,588.384C1709.07,588.384 1711.82,639.159 1711.82,739.299C1711.82,838.029 1709.07,888.804 1703.92,888.804L1697.09,888.804L1697.09,588.384Z" style="fill:rgb(35,31,32);fill-rule:nonzero;"/>
                <path d="M1761.34,1042.54L1775.67,410.67L1767.11,410.67L1757.37,846.491L1747.79,410.67L1738.61,410.67L1752.83,1042.54L1752.83,1423.35L1761.34,1423.35L1761.34,1042.54Z" style="fill:rgb(35,31,32);fill-rule:nonzero;"/>
                <path d="M1850.88,1423.35L1860,1423.35L1845,410.67L1835.7,410.67L1820.58,1423.35L1829.15,1423.35L1832.23,1206.15L1847.85,1206.15L1850.88,1423.35ZM1840.13,644.801L1845.5,1035.49L1834.64,1035.49L1840.13,644.801Z" style="fill:rgb(35,31,32);fill-rule:nonzero;"/>
                <path d="M1890.02,1423.35L1890.02,1065.11L1895.34,1065.11L1904.41,1423.35L1914.54,1423.35L1904.18,1032.67C1909.9,984.713 1913.26,876.11 1913.26,739.299C1913.26,529.146 1907.38,410.67 1897.24,410.67L1881.51,410.67L1881.51,1423.35L1890.02,1423.35ZM1890.02,588.384L1896.85,588.384C1902,588.384 1904.74,639.159 1904.74,739.299C1904.74,838.029 1902,888.804 1896.85,888.804L1890.02,888.804L1890.02,588.384Z" style="fill:rgb(35,31,32);fill-rule:nonzero;"/>
                <path d="M1953.78,1423.35L1953.78,603.898L1966.49,603.898L1966.49,410.67L1932.61,410.67L1932.61,603.898L1945.27,603.898L1945.27,1423.35L1953.78,1423.35Z" style="fill:rgb(35,31,32);fill-rule:nonzero;"/>
            </g>
        </g>
        <g id="Line" transform="matrix(-0.880536,0,0,0.868507,1539.82,205.377)">
            <rect x="139.864" y="220.129" width="1400" height="10" style="fill:rgb(18,19,20);"/>
        </g>
        <g id="ESPACE-ST-JEAN" serif:id="ESPACE ST-JEAN" transform="matrix(0.901028,0,0,0.696276,25.5682,78.2367)">
            <path d="M175.739,411.463L175.739,148.476L257.124,148.476L257.124,199.297L217.141,199.297L217.141,250.425L255.468,250.425L255.468,300.022L217.141,300.022L217.141,360.335L259.726,360.335L259.726,411.463L175.739,411.463Z" style="fill:rgb(18,19,20);fill-rule:nonzero;"/>
            <path d="M320.292,413.912C301.838,413.912 288.511,407.993 280.309,396.155C272.107,384.317 268.007,365.233 268.007,338.904L268.007,313.187L307.989,313.187L307.989,345.946C307.989,359.008 311.223,365.539 317.689,365.539C321.317,365.539 323.84,364.162 325.26,361.406C326.679,358.651 327.389,354.008 327.389,347.476C327.389,338.904 326.6,331.811 325.023,326.199C323.446,320.586 321.435,315.891 318.99,312.115C316.546,308.34 312.169,302.472 305.86,294.512L288.353,271.856C274.789,254.711 268.007,235.73 268.007,214.911C268.007,192.46 271.989,175.366 279.954,163.63C287.919,151.894 299.551,146.026 314.85,146.026C333.146,146.026 346.316,152.303 354.36,164.855C362.403,177.407 366.425,197.052 366.425,223.79L325.023,223.79L324.787,205.727C324.787,202.257 324.038,199.501 322.539,197.46C321.041,195.419 318.951,194.399 316.27,194.399C313.115,194.399 310.749,195.521 309.172,197.767C307.595,200.012 306.806,203.073 306.806,206.951C306.806,215.524 310.592,224.402 318.162,233.587L341.821,262.978C347.341,269.917 351.915,276.499 355.543,282.725C359.17,288.95 362.088,296.297 364.296,304.768C366.504,313.238 367.608,323.29 367.608,334.924C367.608,360.845 363.941,380.49 356.607,393.859C349.273,407.228 337.168,413.912 320.292,413.912Z" style="fill:rgb(18,19,20);fill-rule:nonzero;"/>
            <path d="M379.911,148.476L433.615,148.476C449.86,148.476 461.453,155.262 468.393,168.835C475.333,182.408 478.802,202.257 478.802,228.382C478.802,254.507 475.727,274.203 469.576,287.47C463.424,300.737 452.384,307.37 436.454,307.37L419.893,307.37L419.893,411.463L379.911,411.463L379.911,148.476ZM422.259,259.916C427.148,259.916 430.737,258.742 433.024,256.395C435.311,254.048 436.809,250.68 437.519,246.292C438.228,241.904 438.583,235.628 438.583,227.464C438.583,216.442 437.637,208.482 435.744,203.584C433.852,198.685 430.066,196.236 424.388,196.236L419.893,196.236L419.893,259.916L422.259,259.916Z" style="fill:rgb(18,19,20);fill-rule:nonzero;"/>
            <path d="M476.673,411.463L496.31,148.476L565.155,148.476L584.555,411.463L545.992,411.463L543.153,368.907L518.548,368.907L516.183,411.463L476.673,411.463ZM521.624,326.964L540.077,326.964L531.087,193.174L529.195,193.174L521.624,326.964Z" style="fill:rgb(18,19,20);fill-rule:nonzero;"/>
            <path d="M640.625,413.912C625.799,413.912 613.931,407.891 605.02,395.849C596.108,383.807 591.653,367.274 591.653,346.252L591.653,225.014C591.653,198.889 595.675,179.193 603.718,165.926C611.762,152.66 624.38,146.026 641.572,146.026C656.555,146.026 668.621,151.333 677.769,161.946C686.917,172.56 691.491,187.868 691.491,207.87L691.491,253.181L651.035,253.181L651.035,214.299C651.035,206.747 650.325,201.542 648.906,198.685C647.486,195.828 645.042,194.399 641.572,194.399C637.944,194.399 635.46,196.032 634.119,199.297C632.779,202.563 632.108,207.359 632.108,213.687L632.108,345.639C632.108,352.579 632.897,357.63 634.474,360.794C636.051,363.958 638.417,365.539 641.572,365.539C647.881,365.539 651.035,358.906 651.035,345.639L651.035,298.185L691.964,298.185L691.964,347.782C691.964,391.869 674.851,413.912 640.625,413.912Z" style="fill:rgb(18,19,20);fill-rule:nonzero;"/>
            <path d="M704.266,411.463L704.266,148.476L785.651,148.476L785.651,199.297L745.668,199.297L745.668,250.425L783.995,250.425L783.995,300.022L745.668,300.022L745.668,360.335L788.253,360.335L788.253,411.463L704.266,411.463Z" style="fill:rgb(18,19,20);fill-rule:nonzero;"/>
            <path d="M905.362,413.912C886.909,413.912 873.581,407.993 865.38,396.155C857.178,384.317 853.077,365.233 853.077,338.904L853.077,313.187L893.06,313.187L893.06,345.946C893.06,359.008 896.293,365.539 902.76,365.539C906.387,365.539 908.911,364.162 910.33,361.406C911.75,358.651 912.46,354.008 912.46,347.476C912.46,338.904 911.671,331.811 910.094,326.199C908.517,320.586 906.506,315.891 904.061,312.115C901.616,308.34 897.239,302.472 890.931,294.512L873.423,271.856C859.859,254.711 853.077,235.73 853.077,214.911C853.077,192.46 857.06,175.366 865.025,163.63C872.99,151.894 884.622,146.026 899.921,146.026C918.216,146.026 931.386,152.303 939.43,164.855C947.474,177.407 951.496,197.052 951.496,223.79L910.094,223.79L909.857,205.727C909.857,202.257 909.108,199.501 907.61,197.46C906.111,195.419 904.021,194.399 901.34,194.399C898.186,194.399 895.82,195.521 894.243,197.767C892.665,200.012 891.877,203.073 891.877,206.951C891.877,215.524 895.662,224.402 903.233,233.587L926.891,262.978C932.411,269.917 936.985,276.499 940.613,282.725C944.241,288.95 947.158,296.297 949.367,304.768C951.575,313.238 952.679,323.29 952.679,334.924C952.679,360.845 949.012,380.49 941.678,393.859C934.344,407.228 922.238,413.912 905.362,413.912Z" style="fill:rgb(18,19,20);fill-rule:nonzero;"/>
            <path d="M982.488,411.463L982.488,198.991L958.357,198.991L958.357,148.476L1047.31,148.476L1047.31,198.991L1023.18,198.991L1023.18,411.463L982.488,411.463Z" style="fill:rgb(18,19,20);fill-rule:nonzero;"/>
            <rect x="1042.34" y="300.635" width="59.619" height="34.596" style="fill:rgb(18,19,20);fill-rule:nonzero;"/>
            <path d="M1170.34,413.912C1161.03,413.912 1152.59,411.565 1145.02,406.87C1137.45,402.176 1131.5,395.288 1127.16,386.205C1122.82,377.122 1120.65,366.152 1120.65,353.293L1120.65,287.47L1160.63,287.47L1160.63,350.232C1160.63,354.926 1161.38,358.651 1162.88,361.406C1164.38,364.162 1166.71,365.539 1169.86,365.539C1172.86,365.539 1175.11,364.264 1176.61,361.713C1178.1,359.161 1178.85,355.538 1178.85,350.844L1178.85,148.476L1219.78,148.476L1219.78,345.639C1219.78,359.314 1217.69,371.305 1213.51,381.613C1209.33,391.92 1203.5,399.88 1196.01,405.493C1188.51,411.106 1179.96,413.912 1170.34,413.912Z" style="fill:rgb(18,19,20);fill-rule:nonzero;"/>
            <path d="M1231.85,411.463L1231.85,148.476L1313.23,148.476L1313.23,199.297L1273.25,199.297L1273.25,250.425L1311.58,250.425L1311.58,300.022L1273.25,300.022L1273.25,360.335L1315.83,360.335L1315.83,411.463L1231.85,411.463Z" style="fill:rgb(18,19,20);fill-rule:nonzero;"/>
            <path d="M1325.06,411.463L1344.7,148.476L1413.54,148.476L1432.94,411.463L1394.38,411.463L1391.54,368.907L1366.94,368.907L1364.57,411.463L1325.06,411.463ZM1370.01,326.964L1388.46,326.964L1379.48,193.174L1377.58,193.174L1370.01,326.964Z" style="fill:rgb(18,19,20);fill-rule:nonzero;"/>
            <path d="M1444.06,411.463L1444.06,148.476L1485.94,148.476L1504.63,274.305L1504.63,148.476L1543.9,148.476L1543.9,411.463L1504.15,411.463L1483.81,279.816L1483.81,411.463L1444.06,411.463Z" style="fill:rgb(18,19,20);fill-rule:nonzero;"/>
        </g>
    </g>
</svg>
