<svg xmlns="http://www.w3.org/2000/svg" viewBox="0 0 128 1024"><path d="M116.821 1012.354H12.023v-41.969h20.252v20.619h20.374v-19.765h19.764v19.765h24.034v-21.961h20.374v43.311zm-6.099-52.642c-4.717 4.229-12.322 6.344-22.814 6.344H77.659v-20.618h13.054c5.206 0 7.809-1.666 7.809-5.002 0-1.87-.549-3.172-1.647-3.904-1.098-.731-2.947-1.098-5.551-1.098-3.416 0-6.241.408-8.479 1.221-2.236.813-4.106 1.851-5.612 3.11-1.505 1.263-3.844 3.519-7.016 6.771l-9.027 9.028c-6.832 6.996-14.396 10.492-22.692 10.492-8.946 0-15.757-2.054-20.435-6.161-4.677-4.105-7.016-10.105-7.016-17.994 0-9.435 2.501-16.227 7.503-20.375s12.831-6.222 23.485-6.222v21.351l-7.198.121c-1.382 0-2.479.387-3.294 1.159-.812.774-1.22 1.851-1.22 3.233 0 1.627.448 2.848 1.342 3.66.896.813 2.116 1.22 3.66 1.22 3.416 0 6.954-1.952 10.614-5.856l11.712-12.199c2.766-2.847 5.389-5.205 7.869-7.076 2.481-1.871 5.409-3.375 8.783-4.514 3.376-1.139 7.382-1.709 12.018-1.709 10.33 0 18.159 1.891 23.485 5.674 5.327 3.781 7.99 10.024 7.99 18.727.001 9.514-2.357 16.388-7.074 20.617zM12.023 910.57v-27.694c0-8.376 2.704-14.354 8.112-17.935 5.41-3.577 13.319-5.367 23.729-5.367 10.412 0 18.26 1.586 23.546 4.758 5.288 3.172 7.93 8.866 7.93 17.08v8.54h41.48v20.618H12.023zm44.408-21.838c0-2.521-.467-4.371-1.402-5.551-.935-1.179-2.276-1.953-4.026-2.318-1.748-.366-4.249-.549-7.503-.549-4.392 0-7.564.488-9.516 1.463-1.952.977-2.929 2.929-2.929 5.857v2.317h25.376v-1.219zm60.39-28.302L12.023 850.305v-35.502l104.798-10.004v19.885l-16.958 1.465v12.688l16.958 1.221v20.372zm-33.672-23.18v-9.516l-53.314 4.636v.976l53.314 3.904zm27.451-41.674c-4.799 4.596-11.387 6.893-19.765 6.893H42.523c-10.41 0-18.259-2.073-23.547-6.221-5.285-4.148-7.93-10.654-7.93-19.521 0-7.726 2.116-13.948 6.344-18.666 4.23-4.716 10.33-7.076 18.301-7.076h18.056v20.862H38.253c-3.008 0-5.082.365-6.222 1.098-1.139.732-1.708 1.994-1.708 3.782 0 1.872.651 3.153 1.952 3.843 1.302.691 3.214 1.037 5.733 1.037H90.59c2.767 0 4.779-.406 6.039-1.22 1.263-.812 1.892-2.032 1.892-3.66 0-3.252-2.643-4.88-7.931-4.88H71.68v-21.105h19.765c17.568 0 26.352 8.825 26.352 26.473 0 7.646-2.398 13.767-7.197 18.361zm6.221-48.897H12.023v-41.968h20.252v20.618h20.374v-19.765h19.764v19.765h24.034v-21.96h20.374v43.31zm-5.002-75.394c-4.798 0-9.23-.752-13.298-2.258-4.066-1.504-7.727-3.354-10.98-5.551-3.252-2.195-7.075-5.082-11.468-8.662-4.555-3.66-8.418-6.566-11.59-8.723-3.172-2.154-6.812-3.984-10.919-5.49-4.106-1.504-8.56-2.257-13.359-2.257-2.846 0-5.063.408-6.649 1.22-1.586.814-2.379 2.278-2.379 4.393 0 3.498 3.132 5.246 9.395 5.246h12.81v22.082l-6.466.244c-7.97 0-14.518-.812-19.642-2.44-5.124-1.626-9.028-4.472-11.712-8.54-2.685-4.066-4.026-9.678-4.026-16.836 0-8.784 2.461-15.574 7.381-20.374 4.922-4.798 11.896-7.198 20.923-7.198 5.776 0 11.001.793 15.677 2.379 4.679 1.586 8.766 3.538 12.262 5.856 3.498 2.317 7.605 5.389 12.321 9.211 3.337 2.767 6.305 5.063 8.906 6.894a75.01 75.01 0 0 0 8.053 4.94v-28.548h19.764v54.412h-5.004zm-1.037-63.915c-4.838 4.229-12.219 6.345-22.143 6.345h-10.98v-21.473h10.98c3.172 0 5.633-.406 7.381-1.22 1.75-.812 2.623-2.44 2.623-4.88 0-1.709-.61-2.947-1.83-3.721-1.22-.772-2.663-1.24-4.331-1.404-1.666-.162-4.087-.243-7.259-.243h-2.562c-9.028 0-13.542 2.97-13.542 8.905 0 1.059.042 1.75.122 2.074H50.453c0-3.74-.833-6.546-2.501-8.418-1.666-1.869-4.331-2.806-7.991-2.806-5.936 0-8.906 1.708-8.906 5.124 0 2.115.53 3.477 1.586 4.087 1.059.61 2.4 1.019 4.026 1.22 1.628.204 2.806.348 3.538.428h3.172v21.715l-3.66.123c-9.596-.08-16.652-2.358-21.167-6.832-4.514-4.473-6.771-11.346-6.771-20.618 0-17.812 9.313-26.718 27.938-26.718 5.45 0 9.781.731 12.993 2.195 3.214 1.465 5.471 3.986 6.771 7.564 1.464-2.928 3.274-5.104 5.429-6.527 2.156-1.422 4.779-2.357 7.869-2.806 3.092-.446 7.239-.671 12.444-.671 10.817 0 18.991 2.257 24.521 6.771 5.532 4.514 8.296 11.732 8.296 21.654.001 9.194-2.418 15.905-7.258 20.132zm-.488-59.156c-5.002 4.8-12.139 7.198-21.411 7.198H41.547c-9.922 0-17.486-2.318-22.691-6.954-5.204-4.636-7.809-11.548-7.809-20.739 0-9.272 2.604-16.227 7.809-20.863 5.205-4.636 12.77-6.954 22.691-6.954h47.336c9.354 0 16.513 2.4 21.473 7.198 4.962 4.8 7.441 11.671 7.441 20.619 0 8.865-2.501 15.697-7.503 20.495zm-13.907-24.278c-1.423-.976-3.111-1.463-5.063-1.463H39.595c-3.008 0-5.307.346-6.893 1.037s-2.379 2.094-2.379 4.209.793 3.497 2.379 4.147c1.586.651 3.885.976 6.893.976h51.729c1.952 0 3.641-.467 5.063-1.402 1.424-.935 2.135-2.176 2.135-3.721s-.711-2.807-2.135-3.783z"/></svg>