<?xml version="1.0" encoding="UTF-8" standalone="no"?>
<!DOCTYPE svg PUBLIC "-//W3C//DTD SVG 1.1//EN" "http://www.w3.org/Graphics/SVG/1.1/DTD/svg11.dtd">
<svg width="100%" height="100%" viewBox="0 0 570 119" version="1.1" xmlns="http://www.w3.org/2000/svg" xmlns:xlink="http://www.w3.org/1999/xlink" xml:space="preserve" xmlns:serif="http://www.serif.com/" style="fill-rule:evenodd;clip-rule:evenodd;stroke-linejoin:round;stroke-miterlimit:2;">
    <g transform="matrix(6.81033e-17,1.11221,-1.11221,6.81033e-17,1125.95,-12.2855)">
        <path d="M116.821,1012.35L12.023,1012.35L12.023,970.385L32.275,970.385L32.275,991.004L52.649,991.004L52.649,971.239L72.413,971.239L72.413,991.004L96.447,991.004L96.447,969.043L116.821,969.043L116.821,1012.35ZM110.722,959.712C106.005,963.941 98.4,966.056 87.908,966.056L77.659,966.056L77.659,945.438L90.713,945.438C95.919,945.438 98.522,943.772 98.522,940.436C98.522,938.566 97.973,937.264 96.875,936.532C95.777,935.801 93.928,935.434 91.324,935.434C87.908,935.434 85.083,935.842 82.845,936.655C80.609,937.468 78.739,938.506 77.233,939.765C75.728,941.028 73.389,943.284 70.217,946.536L61.19,955.564C54.358,962.56 46.794,966.056 38.498,966.056C29.552,966.056 22.741,964.002 18.063,959.895C13.386,955.79 11.047,949.79 11.047,941.901C11.047,932.466 13.548,925.674 18.55,921.526C23.552,917.378 31.381,915.304 42.035,915.304L42.035,936.655L34.837,936.776C33.455,936.776 32.358,937.163 31.543,937.935C30.731,938.709 30.323,939.786 30.323,941.168C30.323,942.795 30.771,944.016 31.665,944.828C32.561,945.641 33.781,946.048 35.325,946.048C38.741,946.048 42.279,944.096 45.939,940.192L57.651,927.993C60.417,925.146 63.04,922.788 65.52,920.917C68.001,919.046 70.929,917.542 74.303,916.403C77.679,915.264 81.685,914.694 86.321,914.694C96.651,914.694 104.48,916.585 109.806,920.368C115.133,924.149 117.796,930.392 117.796,939.095C117.797,948.609 115.439,955.483 110.722,959.712ZM12.023,910.57L12.023,882.876C12.023,874.5 14.727,868.522 20.135,864.941C25.545,861.364 33.454,859.574 43.864,859.574C54.276,859.574 62.124,861.16 67.41,864.332C72.698,867.504 75.34,873.198 75.34,881.412L75.34,889.952L116.82,889.952L116.82,910.57L12.023,910.57ZM56.431,888.732C56.431,886.211 55.964,884.361 55.029,883.181C54.094,882.002 52.753,881.228 51.003,880.863C49.255,880.497 46.754,880.314 43.5,880.314C39.108,880.314 35.936,880.802 33.984,881.777C32.032,882.754 31.055,884.706 31.055,887.634L31.055,889.951L56.431,889.951L56.431,888.732ZM116.821,860.43L12.023,850.305L12.023,814.803L116.821,804.799L116.821,824.684L99.863,826.149L99.863,838.837L116.821,840.058L116.821,860.43ZM83.149,837.25L83.149,827.734L29.835,832.37L29.835,833.346L83.149,837.25ZM110.6,795.576C105.801,800.172 99.213,802.469 90.835,802.469L42.523,802.469C32.113,802.469 24.264,800.396 18.976,796.248C13.691,792.1 11.046,785.594 11.046,776.727C11.046,769.001 13.162,762.779 17.39,758.061C21.62,753.345 27.72,750.985 35.691,750.985L53.747,750.985L53.747,771.847L38.253,771.847C35.245,771.847 33.171,772.212 32.031,772.945C30.892,773.677 30.323,774.939 30.323,776.727C30.323,778.599 30.974,779.88 32.275,780.57C33.577,781.261 35.489,781.607 38.008,781.607L90.59,781.607C93.357,781.607 95.369,781.201 96.629,780.387C97.892,779.575 98.521,778.355 98.521,776.727C98.521,773.475 95.878,771.847 90.59,771.847L71.68,771.847L71.68,750.742L91.445,750.742C109.013,750.742 117.797,759.567 117.797,777.215C117.797,784.861 115.399,790.982 110.6,795.576ZM116.821,746.679L12.023,746.679L12.023,704.711L32.275,704.711L32.275,725.329L52.649,725.329L52.649,705.564L72.413,705.564L72.413,725.329L96.447,725.329L96.447,703.369L116.821,703.369L116.821,746.679ZM111.819,671.285C107.021,671.285 102.589,670.533 98.521,669.027C94.455,667.523 90.794,665.673 87.541,663.476C84.289,661.281 80.466,658.394 76.073,654.814C71.518,651.154 67.655,648.248 64.483,646.091C61.311,643.937 57.671,642.107 53.564,640.601C49.458,639.097 45.004,638.344 40.205,638.344C37.359,638.344 35.142,638.752 33.556,639.564C31.97,640.378 31.177,641.842 31.177,643.957C31.177,647.455 34.309,649.203 40.572,649.203L53.382,649.203L53.382,671.285L46.916,671.529C38.946,671.529 32.398,670.717 27.274,669.089C22.15,667.463 18.246,664.617 15.562,660.549C12.877,656.483 11.536,650.871 11.536,643.713C11.536,634.929 13.997,628.139 18.917,623.339C23.839,618.541 30.813,616.141 39.84,616.141C45.616,616.141 50.841,616.934 55.517,618.52C60.196,620.106 64.283,622.058 67.779,624.376C71.277,626.693 75.384,629.765 80.1,633.587C83.437,636.354 86.405,638.65 89.006,640.481C91.584,642.295 94.274,643.945 97.059,645.421L97.059,616.873L116.823,616.873L116.823,671.285L111.819,671.285ZM110.782,607.37C105.944,611.599 98.563,613.715 88.639,613.715L77.659,613.715L77.659,592.242L88.639,592.242C91.811,592.242 94.272,591.836 96.02,591.022C97.77,590.21 98.643,588.582 98.643,586.142C98.643,584.433 98.033,583.195 96.813,582.421C95.593,581.649 94.15,581.181 92.482,581.017C90.816,580.855 88.395,580.774 85.223,580.774L82.661,580.774C73.633,580.774 69.119,583.744 69.119,589.679C69.119,590.738 69.161,591.429 69.241,591.753L50.453,591.753C50.453,588.013 49.62,585.207 47.952,583.335C46.286,581.466 43.621,580.529 39.961,580.529C34.025,580.529 31.055,582.237 31.055,585.653C31.055,587.768 31.585,589.13 32.641,589.74C33.7,590.35 35.041,590.759 36.667,590.96C38.295,591.164 39.473,591.308 40.205,591.388L43.377,591.388L43.377,613.103L39.717,613.226C30.121,613.146 23.065,610.868 18.55,606.394C14.036,601.921 11.779,595.048 11.779,585.776C11.779,567.964 21.092,559.058 39.717,559.058C45.167,559.058 49.498,559.789 52.71,561.253C55.924,562.718 58.181,565.239 59.481,568.817C60.945,565.889 62.755,563.713 64.91,562.29C67.066,560.868 69.689,559.933 72.779,559.484C75.871,559.038 80.018,558.813 85.223,558.813C96.04,558.813 104.214,561.07 109.744,565.584C115.276,570.098 118.04,577.316 118.04,587.238C118.041,596.432 115.622,603.143 110.782,607.37ZM110.294,548.214C105.292,553.014 98.155,555.412 88.883,555.412L41.547,555.412C31.625,555.412 24.061,553.094 18.856,548.458C13.652,543.822 11.047,536.91 11.047,527.719C11.047,518.447 13.651,511.492 18.856,506.856C24.061,502.22 31.626,499.902 41.547,499.902L88.883,499.902C98.237,499.902 105.396,502.302 110.356,507.1C115.318,511.9 117.797,518.771 117.797,527.719C117.797,536.584 115.296,543.416 110.294,548.214ZM96.387,523.936C94.964,522.96 93.276,522.473 91.324,522.473L39.595,522.473C36.587,522.473 34.288,522.819 32.702,523.51C31.116,524.201 30.323,525.604 30.323,527.719C30.323,529.834 31.116,531.216 32.702,531.866C34.288,532.517 36.587,532.842 39.595,532.842L91.324,532.842C93.276,532.842 94.965,532.375 96.387,531.44C97.811,530.505 98.522,529.264 98.522,527.719C98.522,526.174 97.811,524.912 96.387,523.936Z" style="fill-rule:nonzero;"/>
    </g>
</svg>
