<?xml version="1.0" encoding="utf-8"?>
<svg version="1.1" xmlns="http://www.w3.org/2000/svg" xmlns:xlink="http://www.w3.org/1999/xlink" x="0px" y="0px"
	 viewBox="0 0 128 1024" style="enable-background:new 0 0 128 1024;" xml:space="preserve">
<g id="H1_Expositions">
	<g>
		<path d="M116.821,1012.398H12.023v-41.968h20.252v20.618h20.374v-19.764h19.764v19.764h24.034v-21.96h20.374V1012.398z"/>
		<path d="M116.821,966.346l-55.632-11.225l-49.288,8.906v-20.496l36.111-5.49l-36.111-4.758v-20.617l49.288,9.027l55.632-11.224
			v21.228l-40.992,6.588l40.992,6.711V966.346z"/>
		<path d="M12.023,906.676v-27.693c0-8.377,2.704-14.354,8.112-17.935c5.41-3.577,13.319-5.368,23.729-5.368
			c10.412,0,18.26,1.586,23.546,4.758c5.288,3.172,7.93,8.867,7.93,17.08v8.541h41.48v20.617H12.023z M56.431,884.838
			c0-2.52-0.467-4.371-1.402-5.551c-0.935-1.178-2.276-1.952-4.026-2.318c-1.748-0.365-4.249-0.549-7.503-0.549
			c-4.392,0-7.564,0.488-9.516,1.464c-1.952,0.976-2.929,2.929-2.929,5.856v2.318h25.376V884.838z"/>
		<path d="M110.05,845.52c-5.163,4.392-12.423,6.588-21.776,6.588H38.375c-9.028,0-15.839-2.196-20.435-6.588
			c-4.595-4.393-6.894-10.816-6.894-19.276c0-8.458,2.299-14.884,6.894-19.276c4.596-4.392,11.406-6.588,20.435-6.588h49.898
			c9.436,0,16.714,2.196,21.838,6.588c5.124,4.393,7.686,10.818,7.686,19.276C117.797,834.703,115.216,841.127,110.05,845.52z
			 M96.081,822.461c-1.626-0.65-3.903-0.976-6.832-0.976h-51.24c-2.275,0-4.127,0.305-5.551,0.915
			c-1.422,0.609-2.135,1.851-2.135,3.721c0,3.498,2.644,5.246,7.93,5.246h51.118c3.01,0,5.288-0.366,6.832-1.098
			c1.546-0.732,2.318-2.074,2.318-4.026C98.521,824.373,97.709,823.113,96.081,822.461z"/>
		<path d="M110.722,790.254c-4.717,4.23-12.322,6.344-22.814,6.344H77.659V775.98h13.054c5.206,0,7.809-1.666,7.809-5.002
			c0-1.871-0.549-3.172-1.647-3.904c-1.098-0.732-2.947-1.098-5.551-1.098c-3.416,0-6.241,0.408-8.479,1.22
			c-2.236,0.813-4.106,1.851-5.612,3.11c-1.505,1.263-3.844,3.52-7.016,6.771l-9.027,9.027
			c-6.832,6.996-14.396,10.492-22.692,10.492c-8.946,0-15.757-2.053-20.435-6.16c-4.677-4.106-7.016-10.105-7.016-17.995
			c0-9.435,2.501-16.226,7.503-20.374s12.831-6.223,23.485-6.223v21.351l-7.198,0.122c-1.382,0-2.479,0.387-3.294,1.158
			c-0.812,0.774-1.22,1.852-1.22,3.233c0,1.628,0.448,2.849,1.342,3.66c0.896,0.813,2.116,1.22,3.66,1.22
			c3.416,0,6.954-1.951,10.614-5.855l11.712-12.2c2.766-2.847,5.389-5.204,7.869-7.076c2.481-1.87,5.409-3.374,8.783-4.514
			c3.376-1.138,7.382-1.708,12.018-1.708c10.33,0,18.159,1.891,23.485,5.673c5.327,3.782,7.99,10.024,7.99,18.728
			C117.797,779.152,115.439,786.025,110.722,790.254z"/>
		<path d="M116.821,741.552H12.023V721.3h104.798V741.552z"/>
		<path d="M116.821,705.611H32.153v12.444h-20.13v-45.872h20.13v12.444h84.668V705.611z"/>
		<path d="M116.821,669.061H12.023v-20.252h104.798V669.061z"/>
		<path d="M110.05,637.586c-5.163,4.393-12.423,6.588-21.776,6.588H38.375c-9.028,0-15.839-2.195-20.435-6.588
			c-4.595-4.392-6.894-10.815-6.894-19.275c0-8.458,2.299-14.884,6.894-19.275c4.596-4.393,11.406-6.588,20.435-6.588h49.898
			c9.436,0,16.714,2.195,21.838,6.588c5.124,4.392,7.686,10.817,7.686,19.275C117.797,626.771,115.216,633.194,110.05,637.586z
			 M96.081,614.528c-1.626-0.649-3.903-0.976-6.832-0.976h-51.24c-2.275,0-4.127,0.305-5.551,0.915
			c-1.422,0.61-2.135,1.851-2.135,3.721c0,3.498,2.644,5.246,7.93,5.246h51.118c3.01,0,5.288-0.366,6.832-1.099
			c1.546-0.731,2.318-2.073,2.318-4.025C98.521,616.44,97.709,615.181,96.081,614.528z"/>
		<path d="M116.821,587.567H12.023v-21.594l50.142-9.638H12.023v-20.252h104.798v20.496l-52.46,10.492h52.46V587.567z"/>
		<path d="M110.722,525.568c-4.717,4.23-12.322,6.344-22.814,6.344H77.659v-20.618h13.054c5.206,0,7.809-1.666,7.809-5.002
			c0-1.87-0.549-3.172-1.647-3.904c-1.098-0.732-2.947-1.098-5.551-1.098c-3.416,0-6.241,0.408-8.479,1.22
			c-2.236,0.814-4.106,1.851-5.612,3.111c-1.505,1.262-3.844,3.519-7.016,6.771l-9.027,9.027
			c-6.832,6.996-14.396,10.492-22.692,10.492c-8.946,0-15.757-2.053-20.435-6.16c-4.677-4.106-7.016-10.105-7.016-17.995
			c0-9.434,2.501-16.226,7.503-20.374c5.002-4.148,12.831-6.222,23.485-6.222v21.35l-7.198,0.122c-1.382,0-2.479,0.387-3.294,1.159
			c-0.812,0.774-1.22,1.851-1.22,3.233c0,1.628,0.448,2.848,1.342,3.66c0.896,0.814,2.116,1.22,3.66,1.22
			c3.416,0,6.954-1.952,10.614-5.856l11.712-12.2c2.766-2.846,5.389-5.204,7.869-7.076c2.481-1.87,5.409-3.374,8.783-4.514
			c3.376-1.138,7.382-1.708,12.018-1.708c10.33,0,18.159,1.891,23.485,5.673c5.327,3.782,7.99,10.025,7.99,18.727
			C117.797,514.467,115.439,521.34,110.722,525.568z"/>
	</g>
</g>
</svg>
