<svg xmlns="http://www.w3.org/2000/svg" viewBox="0 0 128 1024"><path d="M116.821 1012.398H12.023V970.43h20.252v20.618h20.374v-19.764h19.764v19.764h24.034v-21.96h20.374v43.31zm0-46.052l-55.632-11.225-49.288 8.906v-20.496l36.111-5.49-36.111-4.758v-20.617l49.288 9.027 55.632-11.224v21.228l-40.992 6.588 40.992 6.711v21.35zm-104.798-59.67v-27.693c0-8.377 2.704-14.354 8.112-17.935 5.41-3.577 13.319-5.368 23.729-5.368 10.412 0 18.26 1.586 23.546 4.758 5.288 3.172 7.93 8.867 7.93 17.08v8.541h41.48v20.617H12.023zm44.408-21.838c0-2.52-.467-4.371-1.402-5.551-.935-1.178-2.276-1.952-4.026-2.318-1.748-.365-4.249-.549-7.503-.549-4.392 0-7.564.488-9.516 1.464s-2.929 2.929-2.929 5.856v2.318h25.376v-1.22zm53.619-39.318c-5.163 4.392-12.423 6.588-21.776 6.588H38.375c-9.028 0-15.839-2.196-20.435-6.588-4.595-4.393-6.894-10.816-6.894-19.276 0-8.458 2.299-14.884 6.894-19.276 4.596-4.392 11.406-6.588 20.435-6.588h49.898c9.436 0 16.714 2.196 21.838 6.588 5.124 4.393 7.686 10.818 7.686 19.276 0 8.459-2.581 14.883-7.747 19.276zm-13.969-23.059c-1.626-.65-3.903-.976-6.832-.976h-51.24c-2.275 0-4.127.305-5.551.915-1.422.609-2.135 1.851-2.135 3.721 0 3.498 2.644 5.246 7.93 5.246h51.118c3.01 0 5.288-.366 6.832-1.098 1.546-.732 2.318-2.074 2.318-4.026 0-1.87-.812-3.13-2.44-3.782zm14.641-32.207c-4.717 4.23-12.322 6.344-22.814 6.344H77.659V775.98h13.054c5.206 0 7.809-1.666 7.809-5.002 0-1.871-.549-3.172-1.647-3.904-1.098-.732-2.947-1.098-5.551-1.098-3.416 0-6.241.408-8.479 1.22-2.236.813-4.106 1.851-5.612 3.11-1.505 1.263-3.844 3.52-7.016 6.771l-9.027 9.027c-6.832 6.996-14.396 10.492-22.692 10.492-8.946 0-15.757-2.053-20.435-6.16-4.677-4.106-7.016-10.105-7.016-17.995 0-9.435 2.501-16.226 7.503-20.374s12.831-6.223 23.485-6.223v21.351l-7.198.122c-1.382 0-2.479.387-3.294 1.158-.812.774-1.22 1.852-1.22 3.233 0 1.628.448 2.849 1.342 3.66.896.813 2.116 1.22 3.66 1.22 3.416 0 6.954-1.951 10.614-5.855l11.712-12.2c2.766-2.847 5.389-5.204 7.869-7.076 2.481-1.87 5.409-3.374 8.783-4.514 3.376-1.138 7.382-1.708 12.018-1.708 10.33 0 18.159 1.891 23.485 5.673 5.327 3.782 7.99 10.024 7.99 18.728.001 9.516-2.357 16.389-7.074 20.618zm6.099-48.702H12.023V721.3h104.798v20.252zm0-35.941H32.153v12.444h-20.13v-45.872h20.13v12.444h84.668v20.984zm0-36.55H12.023v-20.252h104.798v20.252zm-6.771-31.475c-5.163 4.393-12.423 6.588-21.776 6.588H38.375c-9.028 0-15.839-2.195-20.435-6.588-4.595-4.392-6.894-10.815-6.894-19.275 0-8.458 2.299-14.884 6.894-19.275 4.596-4.393 11.406-6.588 20.435-6.588h49.898c9.436 0 16.714 2.195 21.838 6.588 5.124 4.392 7.686 10.817 7.686 19.275 0 8.46-2.581 14.883-7.747 19.275zm-13.969-23.058c-1.626-.649-3.903-.976-6.832-.976h-51.24c-2.275 0-4.127.305-5.551.915-1.422.61-2.135 1.851-2.135 3.721 0 3.498 2.644 5.246 7.93 5.246h51.118c3.01 0 5.288-.366 6.832-1.099 1.546-.731 2.318-2.073 2.318-4.025 0-1.87-.812-3.129-2.44-3.782zm20.74-26.961H12.023v-21.594l50.142-9.638H12.023v-20.252h104.798v20.496l-52.46 10.492h52.46v20.496zm-6.099-61.999c-4.717 4.23-12.322 6.344-22.814 6.344H77.659v-20.618h13.054c5.206 0 7.809-1.666 7.809-5.002 0-1.87-.549-3.172-1.647-3.904-1.098-.732-2.947-1.098-5.551-1.098-3.416 0-6.241.408-8.479 1.22-2.236.814-4.106 1.851-5.612 3.111-1.505 1.262-3.844 3.519-7.016 6.771l-9.027 9.027c-6.832 6.996-14.396 10.492-22.692 10.492-8.946 0-15.757-2.053-20.435-6.16-4.677-4.106-7.016-10.105-7.016-17.995 0-9.434 2.501-16.226 7.503-20.374 5.002-4.148 12.831-6.222 23.485-6.222v21.35l-7.198.122c-1.382 0-2.479.387-3.294 1.159-.812.774-1.22 1.851-1.22 3.233 0 1.628.448 2.848 1.342 3.66.896.814 2.116 1.22 3.66 1.22 3.416 0 6.954-1.952 10.614-5.856l11.712-12.2c2.766-2.846 5.389-5.204 7.869-7.076 2.481-1.87 5.409-3.374 8.783-4.514 3.376-1.138 7.382-1.708 12.018-1.708 10.33 0 18.159 1.891 23.485 5.673 5.327 3.782 7.99 10.025 7.99 18.727.001 9.517-2.357 16.39-7.074 20.618z"/></svg>