<?xml version="1.0" encoding="utf-8"?>
<svg version="1.1" xmlns="http://www.w3.org/2000/svg" xmlns:xlink="http://www.w3.org/1999/xlink" x="0px" y="0px"
	 viewBox="0 0 128 1024" style="enable-background:new 0 0 128 1024;" xml:space="preserve">
<g id="H1_Galerie">
	<g>
		<path d="M109.807,1008.599c-5.326,3.702-13.399,5.551-24.218,5.551h-45.14c-9.678,0-16.998-2.153-21.96-6.466
			c-4.96-4.311-7.442-10.736-7.442-19.275c0-6.912,1.384-12.281,4.148-16.104c2.766-3.822,6.792-6.466,12.078-7.931
			c5.287-1.463,12.077-2.195,20.374-2.195v20.496h-9.395c-2.52,0-4.472,0.347-5.855,1.037c-1.383,0.691-2.074,1.933-2.074,3.721
			c0,3.986,2.604,5.979,7.808,5.979h50.752c3.173,0,5.572-0.406,7.198-1.221c1.628-0.812,2.44-2.236,2.44-4.27
			c0-2.032-0.812-3.457-2.44-4.271c-1.626-0.812-4.025-1.22-7.198-1.22H73.877v5.611H55.821v-25.619h61v8.418l-8.784,3.537
			c6.508,3.742,9.76,9.517,9.76,17.324C117.797,999.266,115.134,1004.898,109.807,1008.599z"/>
		<path d="M116.821,958.959L12.023,948.833v-35.502l104.798-10.004v19.886l-16.958,1.465v12.688l16.958,1.22V958.959z
			 M83.149,935.779v-9.516l-53.314,4.635v0.977L83.149,935.779z"/>
		<path d="M116.821,899.474H12.023V878.49H99.01v-21.594h17.812V899.474z"/>
		<path d="M116.821,853.262H12.023v-41.969h20.252v20.619h20.374v-19.765h19.764v19.765h24.034v-21.961h20.374V853.262z"/>
		<path d="M12.023,805.891v-32.209c0-5.123,1.158-9.088,3.477-11.895c2.318-2.806,5.572-4.697,9.76-5.673
			c4.19-0.976,9.537-1.464,16.043-1.464c5.938,0,10.574,0.773,13.908,2.318c3.336,1.545,5.654,4.229,6.954,8.052
			c0.652-3.173,2.238-5.47,4.758-6.894c2.522-1.422,5.938-2.135,10.248-2.135l39.65,0.244v20.496H75.829
			c-2.928,0-4.798,0.57-5.612,1.708c-0.812,1.14-1.22,3.214-1.22,6.222h47.824v21.229H12.023z M50.819,779.539
			c0-2.929-3.172-4.393-9.517-4.393c-2.764,0-4.838,0.122-6.222,0.365c-1.382,0.244-2.337,0.692-2.867,1.343
			c-0.528,0.651-0.793,1.586-0.793,2.806v4.881h19.398V779.539z"/>
		<path d="M116.821,750.967H12.023v-20.252h104.798V750.967z"/>
		<path d="M116.821,725.604H12.023v-41.967h20.252v20.617h20.374V684.49h19.764v19.764h24.034v-21.959h20.374V725.604z"/>
	</g>
</g>
</svg>
