<svg xmlns="http://www.w3.org/2000/svg" viewBox="0 0 128 1024"><path d="M109.807 1008.599c-5.326 3.702-13.399 5.551-24.218 5.551h-45.14c-9.678 0-16.998-2.153-21.96-6.466-4.96-4.311-7.442-10.736-7.442-19.275 0-6.912 1.384-12.281 4.148-16.104 2.766-3.822 6.792-6.466 12.078-7.931 5.287-1.463 12.077-2.195 20.374-2.195v20.496h-9.395c-2.52 0-4.472.347-5.855 1.037-1.383.691-2.074 1.933-2.074 3.721 0 3.986 2.604 5.979 7.808 5.979h50.752c3.173 0 5.572-.406 7.198-1.221 1.628-.812 2.44-2.236 2.44-4.27 0-2.032-.812-3.457-2.44-4.271-1.626-.812-4.025-1.22-7.198-1.22H73.877v5.611H55.821v-25.619h61v8.418l-8.784 3.537c6.508 3.742 9.76 9.517 9.76 17.324 0 7.565-2.663 13.197-7.99 16.898zm7.014-49.64L12.023 948.833v-35.502l104.798-10.004v19.886l-16.958 1.465v12.688l16.958 1.22v20.373zm-33.672-23.18v-9.516l-53.314 4.635v.977l53.314 3.904zm33.672-36.305H12.023V878.49H99.01v-21.594h17.812v42.578zm0-46.212H12.023v-41.969h20.252v20.619h20.374v-19.765h19.764v19.765h24.034v-21.961h20.374v43.311zM12.023 805.891v-32.209c0-5.123 1.158-9.088 3.477-11.895 2.318-2.806 5.572-4.697 9.76-5.673 4.19-.976 9.537-1.464 16.043-1.464 5.938 0 10.574.773 13.908 2.318 3.336 1.545 5.654 4.229 6.954 8.052.652-3.173 2.238-5.47 4.758-6.894 2.522-1.422 5.938-2.135 10.248-2.135l39.65.244v20.496H75.829c-2.928 0-4.798.57-5.612 1.708-.812 1.14-1.22 3.214-1.22 6.222h47.824v21.229H12.023zm38.796-26.352c0-2.929-3.172-4.393-9.517-4.393-2.764 0-4.838.122-6.222.365-1.382.244-2.337.692-2.867 1.343-.528.651-.793 1.586-.793 2.806v4.881h19.398v-5.002zm66.002-28.572H12.023v-20.252h104.798v20.252zm0-25.363H12.023v-41.967h20.252v20.617h20.374V684.49h19.764v19.764h24.034v-21.959h20.374v43.309z"/></svg>