<svg id="Events" data-name="H1 Artist Names" xmlns="http://www.w3.org/2000/svg" viewBox="0 0 128 1024">
  <title>Événements</title>
  <g>
    <path d="M5.08,1011.16H-7.57L-20,984.25H-.26Zm102.66,7.19H8.09v-39.9H27.35v19.6H46.72V979.26H65.51v18.79H88.36V977.17h19.38Z" fill="#fff"/>
    <path d="M107.74,961.86,22.82,975.43v-20.3L65.74,951l13.81-.7-13.92-.81-42.81-4.64v-20.3l84.92,13.8Z" fill="#fff"/>
    <path d="M18.88,911.25H6.24L-6.18,884.34H13.54Zm82.59,6.26Q94.29,923.2,80,923.2H45.91q-11.71,0-17.87-6.73T21.9,897.68q0-24.48,24-24.48h6.14q9.29,0,15.08.23V902.9H83.61a20.39,20.39,0,0,0,6.9-.93,4.47,4.47,0,0,0,1.1-7.25,6.42,6.42,0,0,0-3.19-1.16q-1.8-.18-5.28-.18H74.91V873.2h4.87q14.85,0,21.87,5.74t7,19.78Q108.66,911.83,101.47,917.51ZM57,893.38H46.14q-9.16,0-9.16,4.53,0,5.1,9.16,5.1H57Z" fill="#fff"/>
    <path d="M22.82,868.8V848.51H33.61a18.11,18.11,0,0,1-8.47-4.41,11.09,11.09,0,0,1-3.24-8.35q0-8.6,5.27-12.71t15-4.11h65.54v20H44.28a9.64,9.64,0,0,0-4.75,1.1,3.65,3.65,0,0,0-2,3.42,4,4,0,0,0,2.85,4.12,23.72,23.72,0,0,0,7.6,1h59.74V868.8Z" fill="#fff"/>
    <path d="M101.47,808.79q-7.18,5.69-21.46,5.68H45.91q-11.71,0-17.87-6.73T21.9,789q0-24.48,24-24.47h6.14q9.29,0,15.08.23v29.46H83.61a20.39,20.39,0,0,0,6.9-.93,4.47,4.47,0,0,0,1.1-7.25,6.61,6.61,0,0,0-3.19-1.16c-1.2-.11-3-.17-5.28-.17H74.91V764.48h4.87q14.85,0,21.87,5.74t7,19.78Q108.66,803.11,101.47,808.79ZM57,784.66H46.14q-9.16,0-9.16,4.52,0,5.12,9.16,5.11H57Z" fill="#fff"/>
    <path d="M22.82,760.08V740.24h9.86a14.54,14.54,0,0,1-8.12-4.75q-2.65-3.36-2.66-9.51a16.09,16.09,0,0,1,2.26-8.65,12.38,12.38,0,0,1,6.2-5.16,18.51,18.51,0,0,1-6.44-5.68q-2-3.13-2-8.7,0-10,6.09-13.86T45.67,680l62.07.23v20.42H45.33q-8.23,0-8.24,4.17A4.32,4.32,0,0,0,39.93,709a16.52,16.52,0,0,0,6.79,1.28h61v20.3H45.33a18.43,18.43,0,0,0-5.8.75,3.06,3.06,0,0,0-2.21,3.19A4.48,4.48,0,0,0,40.4,739a19.17,19.17,0,0,0,7.36,1.27h60v19.84Z" fill="#fff"/>
    <path d="M101.47,670Q94.29,675.71,80,675.7H45.91Q34.2,675.7,28,669T21.9,650.18q0-24.46,24-24.47h6.14q9.29,0,15.08.23V655.4H83.61a20.39,20.39,0,0,0,6.9-.93,4.47,4.47,0,0,0,1.1-7.25,6.61,6.61,0,0,0-3.19-1.16c-1.2-.11-3-.17-5.28-.17H74.91V625.71h4.87q14.85,0,21.87,5.74t7,19.78Q108.66,664.34,101.47,670ZM57,645.89H46.14q-9.16,0-9.16,4.52,0,5.12,9.16,5.11H57Z" fill="#fff"/>
    <path d="M22.82,621.31V601H33.61a18.11,18.11,0,0,1-8.47-4.41,11.06,11.06,0,0,1-3.24-8.35q0-8.58,5.27-12.7t15-4.12h65.54v20H44.28a9.64,9.64,0,0,0-4.75,1.1,3.67,3.67,0,0,0-2,3.43A4,4,0,0,0,40.4,600a24,24,0,0,0,7.6,1h59.74v20.3Z" fill="#fff"/>
    <path d="M105.3,559.31q-3.36,3-10.79,3h-53V568H26.07v-5.68h-18V542.61h18v-5.8H41.5v5.8H89.18a11.05,11.05,0,0,0,3.24-.35q1-.35,1-1.86a19.21,19.21,0,0,0-.12-2.2c-.07-.7-.11-1.16-.11-1.39h13.92q.45,1.74,1,5a41.07,41.07,0,0,1,.52,6.44Q108.66,556.29,105.3,559.31Z" fill="#fff"/>
    <path d="M83.14,534.15,76.42,534V513.73l10-.11A7.64,7.64,0,0,0,91,512.46a4.43,4.43,0,0,0,1.57-3.83c0-2.71-2.21-4.06-6.61-4.06a13.41,13.41,0,0,0-7.66,1.91,27.13,27.13,0,0,0-5.91,6.09L64,523.36a28.63,28.63,0,0,1-8.87,8c-3.05,1.62-7.37,2.43-12.93,2.43a18,18,0,0,1-11.08-3.42,21,21,0,0,1-6.91-9.11,33.24,33.24,0,0,1-2.31-12.64q0-24.7,24.59-24.71h1.62v21H44.86a12.4,12.4,0,0,0-5.16,1,3.4,3.4,0,0,0-2.15,3.31,4.09,4.09,0,0,0,1.22,3.19,4.73,4.73,0,0,0,3.31,1.1,8.32,8.32,0,0,0,7.19-3.59l9.17-12.53a39.32,39.32,0,0,1,10.84-10.33q5.86-3.58,14.79-3.59,11.84,0,18.21,6.73T108.66,509Q108.66,534.15,83.14,534.15Z" fill="#fff"/>
  </g>
</svg>
