<svg id="H1_Artist_Names" data-name="H1 Artist Names" xmlns="http://www.w3.org/2000/svg" viewBox="0 0 128 1024">
  <title>h1-</title>
  <g id="Espace_230" data-name="Espace 230">
    <path d="M107.74,1018.3H8.09V978.39H27.35V998H46.72V979.21H65.51V998H88.36V977.12h19.38Z" fill="#fff"/>
    <path d="M83.14,974.38l-6.72-.11V954l10-.12A7.64,7.64,0,0,0,91,952.69a4.43,4.43,0,0,0,1.57-3.83c0-2.7-2.21-4.06-6.61-4.06a13.33,13.33,0,0,0-7.66,1.92,26.71,26.71,0,0,0-5.91,6.09L64,963.59a28.51,28.51,0,0,1-8.87,8C52.08,973.22,47.76,974,42.2,974a18,18,0,0,1-11.08-3.43,21,21,0,0,1-6.91-9.1,33.33,33.33,0,0,1-2.31-12.65q0-24.71,24.59-24.71h1.62v21H44.86a12.24,12.24,0,0,0-5.16,1,3.39,3.39,0,0,0-2.15,3.3,4.09,4.09,0,0,0,1.22,3.19,4.73,4.73,0,0,0,3.31,1.1,8.29,8.29,0,0,0,7.19-3.59l9.17-12.53a39.43,39.43,0,0,1,10.84-10.32q5.86-3.6,14.79-3.6,11.84,0,18.21,6.73t6.38,18.79Q108.66,974.38,83.14,974.38Z" fill="#fff"/>
    <path d="M22.82,920.06V899.41h4.53c-3.64-2.94-5.45-7-5.45-12.18q0-9.86,6.61-13.74t18.32-3.89H78.27a93.62,93.62,0,0,1,16.3,1.16,18.64,18.64,0,0,1,10.21,5.11q3.89,3.95,3.88,11.94,0,7.66-4.29,11.6h20.3v20.65ZM90.33,891a25.48,25.48,0,0,0-7.42-.82H46.83a21.12,21.12,0,0,0-6.72.82c-1.55.54-2.32,1.77-2.32,3.71q0,4.76,8.81,4.75H83.84a18.16,18.16,0,0,0,6.67-1,3.81,3.81,0,0,0,2.38-3.89A3.41,3.41,0,0,0,90.33,891Z" fill="#fff"/>
    <path d="M102.11,862.54q-6.56,3.65-18.73,3.65-10,0-15.32-2.61a17.15,17.15,0,0,1-7.83-7.25,89,89,0,0,1-5.51-14.15l-1.85-5.57h-8.7A8.58,8.58,0,0,0,39,838a3.89,3.89,0,0,0-1.79,3.18,3.6,3.6,0,0,0,1.5,2.85,6.33,6.33,0,0,0,4.07,1.22h5.1v19.71H45.09q-12.53,0-17.86-5.85T21.9,840q0-10.54,5.51-17.16T43,816.2h64.73v20.18H97.64a16.58,16.58,0,0,1,8.12,4.81,11.47,11.47,0,0,1,2.9,7.83Q108.66,858.89,102.11,862.54ZM91,837.71a10.23,10.23,0,0,0-4.69-1H62.61A15.48,15.48,0,0,0,67,843.4q2.67,2.15,7.42,2.14H85.35q7.55,0,7.54-4.52A3.43,3.43,0,0,0,91,837.71Z" fill="#fff"/>
    <path d="M101.59,805.8Q94.51,812,79.9,812H53.68q-11,0-17.92-2.38a19,19,0,0,1-10.38-8q-3.49-5.62-3.48-15.6,0-10.9,5.68-17.75t15.89-6.84h13V782h-12a11.49,11.49,0,0,0-5.16.93c-1.19.62-1.8,1.82-1.8,3.6,0,3.32,2.37,5,7.08,5H85.81a9.41,9.41,0,0,0,4.93-1.22A4.34,4.34,0,0,0,90.8,783a8.93,8.93,0,0,0-5.1-1.1L71.43,782V761.38H86.28q10.44,0,16.41,6.78t6,17.57Q108.66,799.67,101.59,805.8Z" fill="#fff"/>
    <path d="M101.47,752Q94.29,757.7,80,757.7H45.91Q34.2,757.7,28,751T21.9,732.18q0-24.48,24-24.48h6.14q9.29,0,15.08.23V737.4H83.61a20.39,20.39,0,0,0,6.9-.93,4.47,4.47,0,0,0,1.1-7.25,6.51,6.51,0,0,0-3.19-1.16c-1.2-.12-3-.17-5.28-.17H74.91V707.7h4.87q14.85,0,21.87,5.74t7,19.78Q108.66,746.33,101.47,752ZM57,727.89H46.14q-9.16,0-9.16,4.52,0,5.1,9.16,5.1H57Z" fill="#fff"/>
    <path d="M103,676.15A36.24,36.24,0,0,1,90.33,674a48.78,48.78,0,0,1-10.43-5.28Q75.25,665.6,69,660.49q-6.49-5.22-11-8.29A47.08,47.08,0,0,0,47.59,647a36.69,36.69,0,0,0-12.7-2.15A14.08,14.08,0,0,0,28.57,646a4.29,4.29,0,0,0-2.27,4.18q0,5,8.94,5H47.42v21l-6.15.23q-11.37,0-18.68-2.32a20.07,20.07,0,0,1-11.13-8.12q-3.84-5.79-3.83-16,0-12.54,7-19.38t19.89-6.84A46.21,46.21,0,0,1,49.45,626a50.39,50.39,0,0,1,11.65,5.57q5,3.3,11.72,8.76,4.75,3.95,8.47,6.55a71.39,71.39,0,0,0,7.65,4.7V624.42h18.8v51.73Z" fill="#fff"/>
    <path d="M102,615.38q-6.9,6-21,6H70.5V601H80.94a17.13,17.13,0,0,0,7-1.16c1.66-.78,2.49-2.32,2.49-4.64a3.87,3.87,0,0,0-1.74-3.54,9.25,9.25,0,0,0-4.12-1.34q-2.37-.23-6.9-.23H75.25q-12.87,0-12.87,8.47a9.9,9.9,0,0,0,.12,2H44.63q0-5.32-2.38-8c-1.58-1.78-4.12-2.67-7.59-2.67q-8.47,0-8.47,4.87c0,2,.5,3.31,1.51,3.89a10.07,10.07,0,0,0,3.82,1.16c1.55.19,2.67.33,3.37.4h3v20.65l-3.48.12q-13.68-.12-20.12-6.5t-6.44-19.6q0-25.41,26.56-25.4c5.19,0,9.3.69,12.36,2.08a12,12,0,0,1,6.43,7.19,15.56,15.56,0,0,1,5.17-6.2,18.21,18.21,0,0,1,7.48-2.67,87.32,87.32,0,0,1,11.83-.64q15.44,0,23.32,6.44t7.89,20.59Q108.9,609.35,102,615.38Z" fill="#fff"/>
    <path d="M101.53,559.13Q94.39,566,81.17,566h-45Q22,566,14.59,559.37T7.16,539.65q0-13.23,7.43-19.84t21.57-6.61h45q13.35,0,20.42,6.84t7.07,19.61Q108.66,552.3,101.53,559.13ZM88.31,536.05a8.31,8.31,0,0,0-4.82-1.39H34.31a17.23,17.23,0,0,0-6.56,1c-1.5.66-2.26,2-2.26,4s.76,3.32,2.26,3.94a18,18,0,0,0,6.56.93H83.49a8.59,8.59,0,0,0,4.82-1.34,4,4,0,0,0,2-3.53A4.21,4.21,0,0,0,88.31,536.05Z" fill="#fff"/>
  </g>
</svg>
