<svg id="H1_Artist_Names" data-name="H1 Artist Names" xmlns="http://www.w3.org/2000/svg" viewBox="0 0 128 1024">
  <title>h1-</title>
  <g id="Louis-Bernard_St-Jean" data-name="Louis-Bernard St-Jean">
    <path d="M107.74,1018.3H8.09V998.35H90.8V977.81h16.94Z" fill="#fff"/>
    <path d="M82.33,975.16H48.23q-12.07,0-19.2-6.79T21.9,949.76q0-11.84,7.13-18.62t19.2-6.79h34.1q26.34,0,26.33,25.41T82.33,975.16Zm8.93-29A8.49,8.49,0,0,0,86.51,945H45q-7.42,0-7.43,4.76T45,954.51H86.51a8.41,8.41,0,0,0,4.75-1.16,4.58,4.58,0,0,0,0-7.19Z" fill="#fff"/>
    <path d="M103,916.42Q97.29,920,86,920H22.82V899.54H86.33c2.36,0,4-.37,5-1.1A4,4,0,0,0,92.77,895q0-3.13-2.61-3.95a26.56,26.56,0,0,0-7.48-.81H82l-59.16-.12V870h84.92v20.3h-9q5.34,2.09,7.65,4.87c1.55,1.86,2.32,4.6,2.32,8.24Q108.66,912.88,103,916.42Z" fill="#fff"/>
    <path d="M17.14,864.79H3v-20.3H17.14Zm90.6,0H22.82v-20.3h84.92Z" fill="#fff"/>
    <path d="M83.14,841l-6.72-.11v-20.3l10-.12A7.57,7.57,0,0,0,91,819.29a4.43,4.43,0,0,0,1.57-3.83c0-2.7-2.21-4.06-6.61-4.06a13.33,13.33,0,0,0-7.66,1.92,26.71,26.71,0,0,0-5.91,6.09L64,830.2a28.46,28.46,0,0,1-8.87,8q-4.59,2.44-12.94,2.44a17.91,17.91,0,0,1-11.07-3.43,20.9,20.9,0,0,1-6.91-9.1,33.29,33.29,0,0,1-2.31-12.65q0-24.71,24.59-24.7h1.62v21H44.86a12.24,12.24,0,0,0-5.16,1,3.4,3.4,0,0,0-2.15,3.3,4.07,4.07,0,0,0,1.22,3.19,4.73,4.73,0,0,0,3.31,1.11,8.3,8.3,0,0,0,7.19-3.6l9.17-12.53a39.43,39.43,0,0,1,10.84-10.32q5.86-3.6,14.79-3.6,11.84,0,18.21,6.73t6.38,18.79Q108.66,841,83.14,841Z" fill="#fff"/>
    <path d="M78.85,787H65.74V757.74H78.85Z" fill="#fff"/>
    <path d="M8.09,753.06V726q0-10.9,5.34-15.83t17.4-4.93h4.4q14.28,0,17.06,10.2a12.55,12.55,0,0,1,7.54-8.81q5.91-2.55,15.66-2.55,15.89,0,24.07,4.75T107.74,726v27Zm37.47-23.55A3.51,3.51,0,0,0,43.65,726a12.66,12.66,0,0,0-5.4-.93h-10c-3.24,0-4.87,1.44-4.87,4.3v4.17H45.56Zm37.23-5.68H70.38a14,14,0,0,0-6.84,1.33q-2.32,1.33-2.32,4.7v3.71H90.1l.12-2Q90.22,723.83,82.79,723.83Z" fill="#fff"/>
    <path d="M101.47,695.11Q94.29,700.8,80,700.79H45.91q-11.71,0-17.87-6.73T21.9,675.27q0-24.46,24-24.48h6.14q9.29,0,15.08.24v29.46H83.61a20.39,20.39,0,0,0,6.9-.93,4.47,4.47,0,0,0,1.1-7.25,6.61,6.61,0,0,0-3.19-1.16c-1.2-.11-3-.17-5.28-.17H74.91V650.79h4.87q14.85,0,21.87,5.75t7,19.77Q108.66,689.42,101.47,695.11ZM57,671H46.14Q37,671,37,675.5q0,5.12,9.16,5.11H57Z" fill="#fff"/>
    <path d="M22.82,646.4V626.1h9.4a14.22,14.22,0,0,1-7.72-5.28,15.55,15.55,0,0,1-2.72-9.34H38.71a41.54,41.54,0,0,0,1.22,9.46q1.22,5.16,2.84,5.16h65v20.3Z" fill="#fff"/>
    <path d="M22.82,608.43v-20.3H33.61a18.11,18.11,0,0,1-8.47-4.41,11.06,11.06,0,0,1-3.24-8.35q0-8.58,5.27-12.7t15-4.12h65.55v20H44.28a9.53,9.53,0,0,0-4.75,1.1,3.64,3.64,0,0,0-2,3.42,4,4,0,0,0,2.85,4.12,24,24,0,0,0,7.59,1h59.75v20.3Z" fill="#fff"/>
    <path d="M102.11,551.21q-6.56,3.66-18.73,3.66-10,0-15.32-2.61A17.15,17.15,0,0,1,60.23,545a88.26,88.26,0,0,1-5.51-14.16l-1.85-5.56h-8.7A8.57,8.57,0,0,0,39,526.62a3.91,3.91,0,0,0-1.79,3.19,3.58,3.58,0,0,0,1.5,2.84,6.3,6.3,0,0,0,4.06,1.22h5.11v19.72H45.09q-12.53,0-17.86-5.86T21.9,528.65q0-10.56,5.5-17.17T43,504.87h64.73v20.18H97.64a16.59,16.59,0,0,1,8.12,4.82,11.44,11.44,0,0,1,2.9,7.83Q108.66,547.55,102.11,551.21ZM91,526.39a10.1,10.1,0,0,0-4.69-1H62.61A15.42,15.42,0,0,0,67,532.07q2.67,2.14,7.42,2.15H85.35q7.55,0,7.54-4.53A3.42,3.42,0,0,0,91,526.39Z" fill="#fff"/>
    <path d="M22.82,499.82V479.53h9.4a14.33,14.33,0,0,1-7.72-5.28,15.59,15.59,0,0,1-2.72-9.34H38.71a41.53,41.53,0,0,0,1.22,9.45c.81,3.44,1.76,5.17,2.84,5.17h65v20.29Z" fill="#fff"/>
    <path d="M105.12,456.09a17.2,17.2,0,0,1-9.39,5,76.07,76.07,0,0,1-15,1.22l-38.28-.23q-9,0-14.79-4.58T21.9,444.55q0-8.24,5.45-12.29H7.51V412H107.74v20.3h-9a16.75,16.75,0,0,1,7.48,4.69,12,12,0,0,1,2.49,7.95C108.66,449.85,107.49,453.58,105.12,456.09ZM89.81,433.18a27.72,27.72,0,0,0-7.94-.92H46.37a16.49,16.49,0,0,0-6.26,1A3.74,3.74,0,0,0,37.55,437a3.89,3.89,0,0,0,2.38,4,17.17,17.17,0,0,0,6.44,1H82.1q10.66,0,10.67-4.87A3.81,3.81,0,0,0,89.81,433.18Z" fill="#fff"/>
    <path d="M101.94,374.61q-6.73,6-21.7,6H70.5V361H82.91q7.43,0,7.42-4.75c0-1.78-.52-3-1.56-3.71s-2.8-1.05-5.28-1.05a24,24,0,0,0-8.06,1.16,17.79,17.79,0,0,0-5.34,3q-2.15,1.8-6.67,6.44l-8.58,8.58q-9.75,10-21.58,10-12.75,0-19.43-5.86T7.16,357.67q0-13.46,7.14-19.37t22.33-5.92v20.3l-6.85.12a4.38,4.38,0,0,0-3.13,1.1A4.06,4.06,0,0,0,25.49,357a4.46,4.46,0,0,0,1.28,3.48,5,5,0,0,0,3.48,1.16q4.86,0,10.09-5.56l11.14-11.6A65.08,65.08,0,0,1,59,337.72a29.21,29.21,0,0,1,8.35-4.29,35.67,35.67,0,0,1,11.43-1.63q14.73,0,22.33,5.4t7.59,17.8Q108.66,368.58,101.94,374.61Z" fill="#fff"/>
    <path d="M105.3,320.78q-3.36,3-10.79,3h-53v5.68H26.07V323.8h-18V304.08h18v-5.8H41.5v5.8H89.18a11.05,11.05,0,0,0,3.24-.35q1-.35,1-1.86a19.34,19.34,0,0,0-.12-2.2c-.07-.7-.11-1.16-.11-1.39h13.92q.45,1.74,1,5a41.07,41.07,0,0,1,.52,6.44Q108.66,317.77,105.3,320.78Z" fill="#fff"/>
    <path d="M78.85,297.51H65.74V268.28H78.85Z" fill="#fff"/>
    <path d="M106,252.68a20.52,20.52,0,0,1-7.83,8.76,23.24,23.24,0,0,1-12.47,3.19h-25V245H84.54a7.17,7.17,0,0,0,4.23-1.1,4.53,4.53,0,0,0,.12-6.73,6.73,6.73,0,0,0-4.12-1.1H8.09V216h74.7a28.94,28.94,0,0,1,13.64,3.08,22,22,0,0,1,9,8.58,24.65,24.65,0,0,1,3.19,12.59A28.47,28.47,0,0,1,106,252.68Z" fill="#fff"/>
    <path d="M101.47,206.47q-7.18,5.68-21.46,5.68H45.91q-11.71,0-17.87-6.73T21.9,186.63q0-24.47,24-24.47h6.14q9.29,0,15.08.23v29.46H83.61a20.39,20.39,0,0,0,6.9-.93,4.47,4.47,0,0,0,1.1-7.25,6.61,6.61,0,0,0-3.19-1.16c-1.2-.11-3-.17-5.28-.17H74.91V162.16h4.87q14.85,0,21.87,5.74t7,19.78Q108.66,200.79,101.47,206.47ZM57,182.34H46.14q-9.16,0-9.16,4.52Q37,192,46.14,192H57Z" fill="#fff"/>
    <path d="M102.11,155.2q-6.56,3.65-18.73,3.65-10,0-15.32-2.61A17.15,17.15,0,0,1,60.23,149a88.07,88.07,0,0,1-5.51-14.15l-1.85-5.57h-8.7A8.64,8.64,0,0,0,39,130.6a3.92,3.92,0,0,0-1.79,3.19,3.6,3.6,0,0,0,1.5,2.85,6.3,6.3,0,0,0,4.06,1.21h5.11v19.72H45.09q-12.53,0-17.86-5.85T21.9,132.63q0-10.55,5.5-17.16T43,108.85h64.73V129H97.64a16.58,16.58,0,0,1,8.12,4.81,11.47,11.47,0,0,1,2.9,7.83Q108.66,151.55,102.11,155.2ZM91,130.37a10.23,10.23,0,0,0-4.69-1H62.61A15.48,15.48,0,0,0,67,136.06q2.67,2.15,7.42,2.14H85.35q7.55,0,7.54-4.52A3.43,3.43,0,0,0,91,130.37Z" fill="#fff"/>
    <path d="M22.82,103.81V83.51H33.61a18.11,18.11,0,0,1-8.47-4.41,11.08,11.08,0,0,1-3.24-8.35q0-8.58,5.27-12.7t15-4.12h65.55V73.88H44.28A9.64,9.64,0,0,0,39.53,75a3.67,3.67,0,0,0-2,3.43,4,4,0,0,0,2.85,4.11,23.65,23.65,0,0,0,7.59,1h59.75v20.3Z" fill="#fff"/>
  </g>
</svg>
