<svg id="H1_Artist_Names" data-name="H1 Artist Names" xmlns="http://www.w3.org/2000/svg" viewBox="0 0 128 1024">
  <title>h1-</title>
  <g id="Max_Wright" data-name="Max Wright">
    <path d="M107.74,1018.21H8.09V987.82l60.79-8.35L8.09,971.12V940.49h99.65v18.22H35.93l71.81,11.48v17.86l-71.81,12.18h71.81Z" fill="#fff"/>
    <path d="M102.11,932.94q-6.56,3.66-18.73,3.66-10,0-15.32-2.61a17.15,17.15,0,0,1-7.83-7.25,89,89,0,0,1-5.51-14.15L52.87,907h-8.7A8.59,8.59,0,0,0,39,908.35a3.92,3.92,0,0,0-1.79,3.19,3.57,3.57,0,0,0,1.5,2.84,6.27,6.27,0,0,0,4.07,1.22h5.1v19.72H45.09q-12.53,0-17.86-5.86T21.9,910.38q0-10.54,5.51-17.17T43,886.6h64.73v20.19H97.64a16.58,16.58,0,0,1,8.12,4.81,11.44,11.44,0,0,1,2.9,7.83Q108.66,929.29,102.11,932.94ZM91,908.12a10.1,10.1,0,0,0-4.69-1H62.61A15.42,15.42,0,0,0,67,913.8c1.78,1.44,4.25,2.15,7.42,2.15H85.35q7.55,0,7.54-4.52A3.43,3.43,0,0,0,91,908.12Z" fill="#fff"/>
    <path d="M107.74,831.54v20.3l-23.9,8.58,23.9,8.12v15.31L62.15,868.31,22.71,882.46V861.81l20.65-7.3-20.65-7.2V832.23l42,14.62Z" fill="#fff"/>
    <path d="M107.74,794.07,8.09,804.74V785.25L71,779.69,8.09,774.12V755.56L71,750.22,8.09,744.89V725.17l99.65,10.9V760l-48,5,48,4.75Z" fill="#fff"/>
    <path d="M22.82,722.55v-20.3h9.4A14.33,14.33,0,0,1,24.5,697a15.57,15.57,0,0,1-2.72-9.34H38.71a41.53,41.53,0,0,0,1.22,9.45c.82,3.45,1.76,5.17,2.85,5.17h65v20.3Z" fill="#fff"/>
    <path d="M17.14,684.64H3v-20.3H17.14Zm90.6,0H22.82v-20.3h84.92Z" fill="#fff"/>
    <path d="M118.7,651.07a28.5,28.5,0,0,1-5.51,10.15l-11.72-7a28.68,28.68,0,0,0,4.41-14.73c0-3.17-1-5.57-3-7.2s-4.75-2.43-8.23-2.43H90q8.7,2.43,8.7,12.87,0,8.7-5.92,12.82T77,659.71H45.09q-11.25,0-17.22-3.77t-6-13.17c0-3.63.9-6.51,2.72-8.64a13.39,13.39,0,0,1,7.71-4.23H22.82V609.13H93.35q14.27,0,20.53,6.62t6.27,21.11A55.13,55.13,0,0,1,118.7,651.07ZM74.79,629.9H44.51a9.34,9.34,0,0,0-4.87,1.39,4.06,4.06,0,0,0-2.32,3.48,3.61,3.61,0,0,0,1.92,3.6,12.24,12.24,0,0,0,5.27.92H74.79a17.38,17.38,0,0,0,6.21-.92,3.62,3.62,0,0,0,2.38-3.72Q83.38,629.9,74.79,629.9Z" fill="#fff"/>
    <path d="M7.51,604V583.13H31.17q-9.27-3.25-9.27-12.42,0-8.58,5.45-13t15-4.4h65.43v20.3H43.59a7.48,7.48,0,0,0-4.53,1.27,4.32,4.32,0,0,0-1.74,3.71,3.79,3.79,0,0,0,1.8,3.31,7.59,7.59,0,0,0,4.35,1.22h64.27V604Z" fill="#fff"/>
    <path d="M105.3,541.25q-3.36,3-10.79,3h-53V550H26.07v-5.68h-18V524.55h18v-5.8H41.5v5.8H89.18a11.05,11.05,0,0,0,3.24-.35q1-.35,1-1.86a19.34,19.34,0,0,0-.12-2.2c-.07-.69-.11-1.16-.11-1.39h13.92q.45,1.74,1,5a41.07,41.07,0,0,1,.52,6.44Q108.66,538.24,105.3,541.25Z" fill="#fff"/>
  </g>
</svg>
