<svg id="H1_Artist_Names" data-name="H1 Artist Names" xmlns="http://www.w3.org/2000/svg" viewBox="0 0 128 1024">
  <title>h1-</title>
  <g id="Sylvie_Adams" data-name="Sylvie Adams">
    <path d="M101.94,1013.4q-6.73,6-21.7,6H70.5V999.83H82.91q7.43,0,7.42-4.75,0-2.67-1.56-3.72t-5.28-1a24,24,0,0,0-8.06,1.16,17.58,17.58,0,0,0-5.34,3q-2.15,1.8-6.67,6.44l-8.58,8.58q-9.75,10-21.58,10-12.75,0-19.43-5.86T7.16,996.47q0-13.46,7.14-19.37t22.33-5.92v20.3l-6.85.12a4.33,4.33,0,0,0-3.13,1.1,4,4,0,0,0-1.16,3.07,4.46,4.46,0,0,0,1.28,3.48,5,5,0,0,0,3.48,1.16q4.88,0,10.09-5.57l11.14-11.6A66.73,66.73,0,0,1,59,976.52a29.48,29.48,0,0,1,8.35-4.3,36,36,0,0,1,11.43-1.62q14.73,0,22.33,5.39t7.59,17.81Q108.66,1007.38,101.94,1013.4Z" fill="#fff"/>
    <path d="M109,967.63v-9.74c0-1.4-.58-2.09-1.74-2.09a6,6,0,0,0-1.27.11L22.82,969.14V949.77l41.42-3.83,21.11-1.86-21.11-2.2-41.42-4.53V917.87l89.32,15.77c3.33.54,5.78,1.65,7.37,3.31s2.38,4.27,2.38,7.83v22.85Z" fill="#fff"/>
    <path d="M107.74,914.67H7.51V894H107.74Z" fill="#fff"/>
    <path d="M107.74,877.25,22.82,890.82v-20.3l42.92-4.18,13.81-.7-13.92-.81-42.81-4.64v-20.3l84.92,13.81Z" fill="#fff"/>
    <path d="M17.14,836.74H3v-20.3H17.14Zm90.6,0H22.82v-20.3h84.92Z" fill="#fff"/>
    <path d="M101.47,806.17q-7.18,5.69-21.46,5.69H45.91q-11.71,0-17.87-6.73T21.9,786.34q0-24.48,24-24.48h6.14q9.29,0,15.08.23v29.47H83.61a20.39,20.39,0,0,0,6.9-.93,4.47,4.47,0,0,0,1.1-7.25,6.42,6.42,0,0,0-3.19-1.16q-1.8-.18-5.28-.18H74.91V761.86h4.87q14.85,0,21.87,5.74t7,19.78Q108.66,800.49,101.47,806.17ZM57,782H46.14Q37,782,37,786.57q0,5.1,9.16,5.1H57Z" fill="#fff"/>
    <path d="M107.74,732.05,8.09,722.42V688.67l99.65-9.52v18.91l-16.13,1.4v12.06l16.13,1.16Zm-32-22v-9L25,705.37v.93Z" fill="#fff"/>
    <path d="M105.12,670.85a17.27,17.27,0,0,1-9.39,5,76.07,76.07,0,0,1-15,1.22l-38.28-.24q-9,0-14.79-4.58T21.9,659.31q0-8.23,5.45-12.3H7.51v-20.3H107.74V647h-9a16.76,16.76,0,0,1,7.48,4.7,11.94,11.94,0,0,1,2.49,7.95C108.66,664.61,107.49,668.34,105.12,670.85ZM89.81,647.94a27.32,27.32,0,0,0-7.94-.93H46.37a16.48,16.48,0,0,0-6.26,1,3.73,3.73,0,0,0-2.56,3.71,3.9,3.9,0,0,0,2.38,4,17.17,17.17,0,0,0,6.44,1H82.1q10.66,0,10.67-4.88A3.81,3.81,0,0,0,89.81,647.94Z" fill="#fff"/>
    <path d="M102.11,619.32Q95.56,623,83.38,623q-10,0-15.32-2.61a17.15,17.15,0,0,1-7.83-7.25A89,89,0,0,1,54.72,599l-1.85-5.57h-8.7A8.59,8.59,0,0,0,39,594.73a3.92,3.92,0,0,0-1.79,3.19,3.57,3.57,0,0,0,1.5,2.84A6.27,6.27,0,0,0,42.78,602h5.1V621.7H45.09q-12.53,0-17.86-5.86T21.9,596.76q0-10.54,5.51-17.17T43,573h64.73v20.19H97.64a16.58,16.58,0,0,1,8.12,4.81,11.46,11.46,0,0,1,2.9,7.83Q108.66,615.67,102.11,619.32ZM91,594.5a10.1,10.1,0,0,0-4.69-1H62.61A15.52,15.52,0,0,0,67,600.19q2.67,2.14,7.42,2.14H85.35q7.55,0,7.54-4.52A3.43,3.43,0,0,0,91,594.5Z" fill="#fff"/>
    <path d="M22.82,567.94V548.1h9.86a14.6,14.6,0,0,1-8.12-4.75q-2.65-3.37-2.66-9.52a16.08,16.08,0,0,1,2.26-8.64,12.38,12.38,0,0,1,6.2-5.16,18.61,18.61,0,0,1-6.44-5.68q-2-3.14-2-8.7,0-10,6.09-13.86t17.68-3.89l62.07.23v20.42H45.33q-8.23,0-8.24,4.17a4.32,4.32,0,0,0,2.84,4.18,16.52,16.52,0,0,0,6.79,1.27h61v20.3H45.33a18.39,18.39,0,0,0-5.8.76,3.06,3.06,0,0,0-2.21,3.19,4.48,4.48,0,0,0,3.08,4.41,19.17,19.17,0,0,0,7.36,1.27h60v19.84Z" fill="#fff"/>
    <path d="M83.14,484.44l-6.72-.11V464l10-.12A7.64,7.64,0,0,0,91,462.75a4.43,4.43,0,0,0,1.57-3.83c0-2.7-2.21-4.06-6.61-4.06a13.33,13.33,0,0,0-7.66,1.92,26.71,26.71,0,0,0-5.91,6.09L64,473.65a28.38,28.38,0,0,1-8.87,8c-3.05,1.62-7.37,2.43-12.93,2.43a17.93,17.93,0,0,1-11.08-3.42,21,21,0,0,1-6.91-9.1,33.33,33.33,0,0,1-2.31-12.65q0-24.71,24.59-24.71h1.62v21H44.86a12.24,12.24,0,0,0-5.16,1,3.39,3.39,0,0,0-2.15,3.3,4.09,4.09,0,0,0,1.22,3.19,4.73,4.73,0,0,0,3.31,1.1,8.29,8.29,0,0,0,7.19-3.59l9.17-12.53a39.28,39.28,0,0,1,10.84-10.32q5.86-3.6,14.79-3.6,11.84,0,18.21,6.73t6.38,18.79Q108.66,484.44,83.14,484.44Z" fill="#fff"/>
  </g>
</svg>
