<?xml version="1.0" encoding="utf-8"?>
<!-- Generator: Adobe Illustrator 23.1.0, SVG Export Plug-In . SVG Version: 6.00 Build 0)  -->
<svg version="1.1" xmlns="http://www.w3.org/2000/svg" xmlns:xlink="http://www.w3.org/1999/xlink" x="0px" y="0px"
	 viewBox="0 0 128 1024" style="enable-background:new 0 0 128 1024;" xml:space="preserve">
<g id="H1_Artist_Names">
	<g>
		<path d="M116.8,1012.2H12v-21h87v-21.6h17.8V1012.2z"/>
		<path d="M116.8,966H12v-42h20.3v20.6h20.4v-19.8h19.8v19.8h24v-22h20.4V966z"/>
		<path d="M110.7,913.4c-4.7,4.2-12.3,6.3-22.8,6.3H77.7v-20.6h13.1c5.2,0,7.8-1.7,7.8-5c0-1.9-0.5-3.2-1.6-3.9
			c-1.1-0.7-2.9-1.1-5.6-1.1c-3.4,0-6.2,0.4-8.5,1.2c-2.2,0.8-4.1,1.9-5.6,3.1c-1.5,1.3-3.8,3.5-7,6.8l-9,9
			c-6.8,7-14.4,10.5-22.7,10.5c-8.9,0-15.8-2.1-20.4-6.2c-4.7-4.1-7-10.1-7-18c0-9.4,2.5-16.2,7.5-20.4c5-4.1,12.8-6.2,23.5-6.2
			v21.3l-7.2,0.1c-1.4,0-2.5,0.4-3.3,1.2c-0.8,0.8-1.2,1.9-1.2,3.2c0,1.6,0.4,2.8,1.3,3.7c0.9,0.8,2.1,1.2,3.7,1.2
			c3.4,0,7-2,10.6-5.9l11.7-12.2c2.8-2.8,5.4-5.2,7.9-7.1c2.5-1.9,5.4-3.4,8.8-4.5c3.4-1.1,7.4-1.7,12-1.7c10.3,0,18.2,1.9,23.5,5.7
			c5.3,3.8,8,10,8,18.7C117.8,902.3,115.4,909.1,110.7,913.4z"/>
		<path d="M116.8,838.1L12,828v-35.5l104.8-10v19.9l-17,1.5v12.7l17,1.2V838.1z M83.1,814.9v-9.5L29.8,810v1L83.1,814.9z"/>
		<path d="M116.8,772.1H32.2v12.4H12v-45.9h20.1v12.4h84.7V772.1z"/>
		<path d="M116.8,735.1H12v-42h20.3v20.6h20.4V694h19.8v19.8h24v-22h20.4V735.1z"/>
		<path d="M116.8,687.7H12v-21h87v-21.6h17.8V687.7z"/>
		<path d="M116.8,641.9H12v-20.3h104.8V641.9z"/>
		<path d="M116.8,616.6H12v-42h20.3v20.6h20.4v-19.8h19.8v19.8h24v-22h20.4V616.6z"/>
		<path d="M12,569.2V537c0-5.1,1.2-9.1,3.5-11.9s5.6-4.7,9.8-5.7c4.2-1,9.5-1.5,16-1.5c5.9,0,10.6,0.8,13.9,2.3
			c3.3,1.5,5.7,4.2,7,8.1c0.7-3.2,2.2-5.5,4.8-6.9c2.5-1.4,5.9-2.1,10.2-2.1l39.7,0.2V540h-41c-2.9,0-4.8,0.6-5.6,1.7
			c-0.8,1.1-1.2,3.2-1.2,6.2h47.8v21.2H12z M50.8,542.8c0-2.9-3.2-4.4-9.5-4.4c-2.8,0-4.8,0.1-6.2,0.4c-1.4,0.2-2.3,0.7-2.9,1.3
			c-0.5,0.7-0.8,1.6-0.8,2.8v4.9h19.4V542.8z"/>
		<path d="M110.7,508.4c-4.7,4.2-12.3,6.3-22.8,6.3H77.7v-20.6h13.1c5.2,0,7.8-1.7,7.8-5c0-1.9-0.5-3.2-1.6-3.9
			c-1.1-0.7-2.9-1.1-5.6-1.1c-3.4,0-6.2,0.4-8.5,1.2c-2.2,0.8-4.1,1.9-5.6,3.1c-1.5,1.3-3.8,3.5-7,6.8l-9,9
			c-6.8,7-14.4,10.5-22.7,10.5c-8.9,0-15.8-2.1-20.4-6.2c-4.7-4.1-7-10.1-7-18c0-9.4,2.5-16.2,7.5-20.4c5-4.1,12.8-6.2,23.5-6.2
			v21.4l-7.2,0.1c-1.4,0-2.5,0.4-3.3,1.2c-0.8,0.8-1.2,1.9-1.2,3.2c0,1.6,0.4,2.8,1.3,3.7c0.9,0.8,2.1,1.2,3.7,1.2
			c3.4,0,7-2,10.6-5.9l11.7-12.2c2.8-2.8,5.4-5.2,7.9-7.1c2.5-1.9,5.4-3.4,8.8-4.5c3.4-1.1,7.4-1.7,12-1.7c10.3,0,18.2,1.9,23.5,5.7
			c5.3,3.8,8,10,8,18.7C117.8,497.3,115.4,504.2,110.7,508.4z"/>
	</g>
</g>
<g id="Guides">
</g>
</svg>
