<svg xmlns="http://www.w3.org/2000/svg" viewBox="0 0 1350.76 452.47"><path d="M.34 280.91V2.59H111.8v53.78H57.04v54.11h52.49v52.49H57.04v63.83h58.32v54.11H.34zm138.51-16.2C127.62 252.19 122 231.99 122 204.12V176.9h54.76v34.67c0 13.83 4.42 20.74 13.28 20.74 4.97 0 8.42-1.46 10.37-4.37s2.92-7.83 2.92-14.74c0-9.07-1.08-16.57-3.24-22.52-2.16-5.94-4.92-10.9-8.26-14.9-3.35-3.99-9.35-10.21-17.98-18.63l-23.98-23.98c-18.58-18.14-27.86-38.23-27.86-60.26 0-23.76 5.45-41.85 16.36-54.27C149.27 6.22 165.21.01 186.16.01c25.05 0 43.09 6.64 54.11 19.93 11.02 13.28 16.52 34.08 16.52 62.37h-56.7l-.32-19.12c0-3.67-1.03-6.59-3.08-8.75-2.06-2.16-4.92-3.24-8.59-3.24-4.32 0-7.56 1.19-9.72 3.56-2.16 2.38-3.24 5.62-3.24 9.72 0 9.07 5.18 18.47 15.55 28.19l32.4 31.1c7.56 7.35 13.82 14.31 18.79 20.9s8.96 14.37 11.99 23.33c3.02 8.97 4.54 19.6 4.54 31.91 0 27.43-5.02 48.23-15.07 62.37-10.04 14.15-26.62 21.22-49.73 21.22-25.28 0-43.53-6.26-54.76-18.79zM268.06 2.59h73.55c22.24 0 38.12 7.18 47.63 21.55 9.5 14.37 14.26 35.37 14.26 63.02s-4.21 48.49-12.64 62.53c-8.42 14.04-23.55 21.06-45.36 21.06h-22.68v110.16h-54.76V2.59zm57.99 117.94c6.69 0 11.61-1.24 14.74-3.73 3.13-2.48 5.18-6.04 6.16-10.69.97-4.64 1.46-11.28 1.46-19.93 0-11.66-1.3-20.09-3.89-25.27s-7.78-7.78-15.55-7.78h-6.16v67.39h3.24v.01zm73.87 160.38L426.81 2.59h94.28l26.57 278.32h-52.81l-3.89-45.04h-33.7l-3.24 45.04h-54.1zm61.56-89.43h25.27L474.44 49.89h-2.59l-10.37 141.59zm109.38 72.9c-12.21-12.74-18.31-30.24-18.31-52.49V83.59c0-27.65 5.51-48.49 16.52-62.53C580.09 7.02 597.36 0 620.91 0c20.52 0 37.04 5.62 49.57 16.85 12.52 11.23 18.79 27.43 18.79 48.6v47.95h-55.4V72.25c0-7.99-.97-13.5-2.92-16.52-1.94-3.02-5.3-4.54-10.04-4.54-4.97 0-8.37 1.73-10.21 5.18-1.84 3.46-2.75 8.54-2.75 15.23v139.64c0 7.35 1.08 12.69 3.24 16.04 2.16 3.35 5.4 5.02 9.72 5.02 8.64 0 12.96-7.02 12.96-21.06v-50.22h56.05v52.49c0 46.66-23.44 69.98-70.31 69.98-20.29.01-36.55-6.36-48.75-19.11zm128.56 16.53V2.59h111.46v53.78h-54.76v54.11h52.49v52.49h-52.49v63.83h58.32v54.11H699.42zm197.63-13.29c0-12.74 2-24.51 5.99-35.32 3.99-10.8 8.91-20.52 14.74-29.16s13.5-18.79 23-30.46c9.72-12.09 17.44-22.36 23.17-30.78 5.72-8.42 10.58-18.09 14.58-29 3.99-10.9 5.99-22.73 5.99-35.48 0-7.56-1.08-13.45-3.24-17.66s-6.05-6.32-11.66-6.32c-9.29 0-13.93 8.32-13.93 24.95v34.02h-58.64l-.65-17.17c0-21.17 2.16-38.56 6.48-52.16 4.32-13.61 11.88-23.98 22.68-31.1 10.8-7.13 25.7-10.69 44.71-10.69 23.33 0 41.36 6.54 54.11 19.6 12.74 13.07 19.12 31.59 19.12 55.57 0 15.34-2.11 29.22-6.32 41.63-4.21 12.42-9.4 23.28-15.55 32.56-6.16 9.29-14.31 20.2-24.46 32.72-7.35 8.86-13.45 16.74-18.31 23.65-4.86 6.92-9.23 14.04-13.12 21.38h75.82v52.49h-144.5l-.01-13.27zm168.45-2.75c-11.23-12.85-16.85-32.45-16.85-58.81V176.9h57.02v29.16c0 8.42 1.08 14.96 3.24 19.6 2.16 4.65 6.48 6.97 12.96 6.97 4.54 0 7.83-1.62 9.88-4.86s3.29-7.07 3.73-11.5c.43-4.42.65-10.85.65-19.28v-6.8c0-23.98-7.89-35.96-23.65-35.96-2.81 0-4.65.11-5.51.32v-49.9c9.93 0 17.38-2.21 22.36-6.64 4.97-4.42 7.45-11.5 7.45-21.22 0-15.76-4.54-23.65-13.61-23.65-5.62 0-9.23 1.41-10.85 4.21-1.62 2.81-2.7 6.37-3.24 10.69s-.92 7.45-1.13 9.4v8.42h-57.67l-.32-9.72c.21-25.48 6.26-44.23 18.14-56.21 11.88-11.99 30.13-17.98 54.76-17.98 47.3 0 70.96 24.74 70.96 74.2 0 14.47-1.94 25.98-5.83 34.51-3.89 8.54-10.58 14.53-20.09 17.98 7.78 3.89 13.55 8.7 17.33 14.42 3.78 5.73 6.26 12.69 7.45 20.9 1.18 8.21 1.78 19.23 1.78 33.05 0 28.73-5.99 50.44-17.98 65.12-11.99 14.69-31.16 22.03-57.51 22.03-24.42-.01-42.24-6.44-53.47-19.29zm155.81-1.3c-12.75-13.28-19.12-32.24-19.12-56.86V81c0-26.35 6.16-46.44 18.47-60.26C1232.97 6.92 1251.33 0 1275.74 0c24.62 0 43.09 6.92 55.4 20.74 12.31 13.83 18.47 33.91 18.47 60.26v125.71c0 24.84-6.37 43.85-19.12 57.02-12.75 13.18-31 19.76-54.76 19.76-23.54.01-41.68-6.63-54.42-19.92zm64.47-36.93c2.59-3.78 3.89-8.26 3.89-13.45V75.81c0-7.99-.92-14.09-2.75-18.31-1.84-4.21-5.56-6.32-11.18-6.32s-9.29 2.11-11.02 6.32-2.59 10.32-2.59 18.31v137.38c0 5.18 1.24 9.67 3.73 13.45 2.48 3.78 5.78 5.67 9.88 5.67 4.1 0 7.45-1.89 10.04-5.67z"/><g><path d="M29.87 381.73h-18.9l-3.73 8.75H0l17.01-37.8h6.91l17.06 37.8h-7.34l-3.77-8.75zm-2.32-5.51l-7.13-16.52-7.07 16.52h14.2zm28.11-17.6H43.13v-5.94h32.08v5.94H62.68v31.86h-7.02v-31.86zm59.26 25.97v5.89H86.57v-37.8h27.59v5.89H93.59v9.83h18.25v5.78H93.59v10.42h21.33v-.01zm13.53-31.91h7.02v31.86h19.76v5.94h-26.78v-37.8zm38.27 0h7.02v37.8h-7.02v-37.8zm51.39 31.91v5.89h-28.35v-37.8h27.59v5.89h-20.57v9.83h18.25v5.78h-18.25v10.42h21.33v-.01zm38.27 5.89l-7.72-11.07c-.32.04-.81.05-1.46.05h-8.53v11.02h-7.02v-37.8h15.55c3.28 0 6.13.54 8.56 1.62s4.29 2.63 5.59 4.64c1.3 2.02 1.94 4.41 1.94 7.18 0 2.84-.69 5.29-2.08 7.34-1.39 2.05-3.38 3.58-5.97 4.59l8.69 12.42-7.55.01zm-2.54-29.92c-1.58-1.3-3.91-1.94-6.97-1.94h-8.21v15.07h8.21c3.06 0 5.38-.66 6.97-1.97 1.58-1.31 2.38-3.18 2.38-5.59 0-2.42-.8-4.27-2.38-5.57zm26.95 29.22c-2.72-.83-4.87-1.93-6.45-3.29l2.43-5.45c1.55 1.22 3.45 2.22 5.7 3 2.25.77 4.51 1.16 6.78 1.16 2.81 0 4.9-.45 6.29-1.35 1.39-.9 2.08-2.09 2.08-3.56 0-1.08-.39-1.97-1.16-2.67s-1.75-1.25-2.94-1.65-2.81-.85-4.86-1.35c-2.88-.68-5.21-1.37-6.99-2.05s-3.31-1.75-4.59-3.21-1.92-3.43-1.92-5.91c0-2.09.57-3.99 1.7-5.7s2.84-3.07 5.13-4.08c2.29-1.01 5.08-1.51 8.4-1.51 2.3 0 4.57.29 6.8.86 2.23.58 4.16 1.4 5.78 2.48l-2.21 5.45c-1.66-.97-3.38-1.71-5.18-2.21s-3.55-.76-5.24-.76c-2.77 0-4.83.47-6.18 1.4-1.35.94-2.02 2.18-2.02 3.73 0 1.08.39 1.96 1.16 2.65.77.68 1.75 1.22 2.94 1.62s2.81.85 4.86 1.35c2.81.65 5.11 1.32 6.91 2.03 1.8.7 3.34 1.77 4.62 3.21s1.92 3.38 1.92 5.83c0 2.09-.57 3.98-1.7 5.67s-2.85 3.04-5.16 4.05c-2.3 1.01-5.11 1.51-8.42 1.51a29.54 29.54 0 0 1-8.48-1.25zm59.75-37.1h16.52c4.03 0 7.61.78 10.75 2.35 3.13 1.57 5.56 3.78 7.29 6.64 1.73 2.86 2.59 6.17 2.59 9.91s-.86 7.05-2.59 9.91c-1.73 2.86-4.16 5.08-7.29 6.64-3.13 1.57-6.71 2.35-10.75 2.35h-16.52v-37.8zm16.2 31.86c2.77 0 5.21-.53 7.32-1.59s3.73-2.57 4.86-4.54c1.13-1.96 1.7-4.24 1.7-6.83s-.57-4.87-1.7-6.83-2.75-3.47-4.86-4.54c-2.11-1.06-4.54-1.59-7.32-1.59h-9.18v25.92h9.18zm39.51-33.27c.83.83 1.24 1.89 1.24 3.19 0 .65-.08 1.28-.24 1.89-.16.61-.48 1.53-.94 2.75l-2.81 7.67h-4.37l2.16-8.32c-.79-.29-1.41-.78-1.86-1.48s-.67-1.54-.67-2.51c0-1.3.41-2.36 1.24-3.19.83-.83 1.87-1.24 3.13-1.24 1.25 0 2.29.42 3.12 1.24zm35.22 30.46h-18.9l-3.73 8.75h-7.24l17.01-37.8h6.91l17.06 37.8h-7.34l-3.77-8.75zm-2.32-5.51l-7.13-16.52-7.07 16.52h14.2zm49.28 14.26l-7.72-11.07c-.32.04-.81.05-1.46.05h-8.53v11.02h-7.02v-37.8h15.55c3.28 0 6.13.54 8.56 1.62s4.29 2.63 5.59 4.64c1.3 2.02 1.94 4.41 1.94 7.18 0 2.84-.69 5.29-2.08 7.34-1.39 2.05-3.38 3.58-5.97 4.59l8.69 12.42-7.55.01zm-2.54-29.92c-1.58-1.3-3.91-1.94-6.97-1.94h-8.21v15.07h8.21c3.06 0 5.38-.66 6.97-1.97 1.58-1.31 2.38-3.18 2.38-5.59 0-2.42-.8-4.27-2.38-5.57zm31.27-1.94h-12.53v-5.94h32.08v5.94h-12.53v31.86h-7.02v-31.86zm30.9-5.94h7.02v37.8h-7.02v-37.8zm26.85 37.1c-2.72-.83-4.87-1.93-6.45-3.29l2.43-5.45c1.55 1.22 3.45 2.22 5.7 3 2.25.77 4.51 1.16 6.78 1.16 2.81 0 4.9-.45 6.29-1.35 1.39-.9 2.08-2.09 2.08-3.56 0-1.08-.39-1.97-1.16-2.67-.77-.7-1.75-1.25-2.94-1.65-1.19-.4-2.81-.85-4.86-1.35-2.88-.68-5.21-1.37-6.99-2.05s-3.31-1.75-4.59-3.21-1.92-3.43-1.92-5.91c0-2.09.57-3.99 1.7-5.7s2.84-3.07 5.13-4.08c2.29-1.01 5.08-1.51 8.4-1.51 2.3 0 4.57.29 6.8.86 2.23.58 4.16 1.4 5.78 2.48l-2.21 5.45c-1.66-.97-3.38-1.71-5.18-2.21-1.8-.5-3.55-.76-5.24-.76-2.77 0-4.83.47-6.18 1.4-1.35.94-2.02 2.18-2.02 3.73 0 1.08.39 1.96 1.16 2.65.77.68 1.75 1.22 2.94 1.62 1.19.4 2.81.85 4.86 1.35 2.81.65 5.11 1.32 6.91 2.03 1.8.7 3.34 1.77 4.62 3.21 1.28 1.44 1.92 3.38 1.92 5.83 0 2.09-.57 3.98-1.7 5.67s-2.85 3.04-5.16 4.05c-2.3 1.01-5.11 1.51-8.42 1.51a29.54 29.54 0 0 1-8.48-1.25zm45.28-31.16h-12.53v-5.94h32.08v5.94h-12.53v31.86h-7.02v-31.86zm59.25 25.97v5.89h-28.35v-37.8h27.59v5.89h-20.57v9.83h18.25v5.78h-18.25v10.42h21.33v-.01zm17.48 5.19c-2.72-.83-4.87-1.93-6.45-3.29l2.43-5.45c1.55 1.22 3.45 2.22 5.7 3 2.25.77 4.51 1.16 6.78 1.16 2.81 0 4.9-.45 6.29-1.35 1.39-.9 2.08-2.09 2.08-3.56 0-1.08-.39-1.97-1.16-2.67-.77-.7-1.75-1.25-2.94-1.65-1.19-.4-2.81-.85-4.86-1.35-2.88-.68-5.21-1.37-6.99-2.05s-3.31-1.75-4.59-3.21-1.92-3.43-1.92-5.91c0-2.09.57-3.99 1.7-5.7s2.84-3.07 5.13-4.08c2.29-1.01 5.08-1.51 8.4-1.51 2.3 0 4.57.29 6.8.86 2.23.58 4.16 1.4 5.78 2.48l-2.21 5.45c-1.66-.97-3.38-1.71-5.18-2.21-1.8-.5-3.55-.76-5.24-.76-2.77 0-4.83.47-6.18 1.4-1.35.94-2.03 2.18-2.03 3.73 0 1.08.39 1.96 1.16 2.65.77.68 1.75 1.22 2.94 1.62 1.19.4 2.81.85 4.86 1.35 2.81.65 5.11 1.32 6.91 2.03 1.8.7 3.34 1.77 4.62 3.21 1.28 1.44 1.92 3.38 1.92 5.83 0 2.09-.57 3.98-1.7 5.67s-2.85 3.04-5.16 4.05c-2.3 1.01-5.11 1.51-8.42 1.51-2.94-.01-5.75-.43-8.47-1.25zm79.43-44.77h6.05l-17.82 50.87h-6.05l17.82-50.87zm71.04 36.72h-18.9l-3.73 8.75h-7.24l17.01-37.8h6.91l17.06 37.8h-7.34l-3.77-8.75zm-2.32-5.51l-7.13-16.52-7.07 16.52h14.2zm49.28 14.26l-7.72-11.07c-.32.04-.81.05-1.46.05h-8.53v11.02h-7.02v-37.8h15.55c3.28 0 6.13.54 8.56 1.62s4.29 2.63 5.59 4.64c1.3 2.02 1.94 4.41 1.94 7.18 0 2.84-.69 5.29-2.08 7.34-1.39 2.05-3.38 3.58-5.97 4.59l8.69 12.42-7.55.01zm-2.54-29.92c-1.58-1.3-3.91-1.94-6.97-1.94h-8.21v15.07h8.21c3.06 0 5.38-.66 6.97-1.97 1.58-1.31 2.38-3.18 2.38-5.59-.01-2.42-.8-4.27-2.38-5.57zm31.27-1.94h-12.53v-5.94h32.08v5.94H920.1v31.86h-7.02v-31.86zm30.9-5.94H951v37.8h-7.02v-37.8zm26.85 37.1c-2.72-.83-4.87-1.93-6.45-3.29l2.43-5.45c1.55 1.22 3.45 2.22 5.7 3 2.25.77 4.51 1.16 6.78 1.16 2.81 0 4.9-.45 6.29-1.35 1.39-.9 2.08-2.09 2.08-3.56 0-1.08-.39-1.97-1.16-2.67s-1.75-1.25-2.94-1.65-2.81-.85-4.86-1.35c-2.88-.68-5.21-1.37-6.99-2.05s-3.31-1.75-4.59-3.21c-1.28-1.46-1.92-3.43-1.92-5.91 0-2.09.57-3.99 1.7-5.7s2.84-3.07 5.13-4.08c2.29-1.01 5.08-1.51 8.4-1.51 2.3 0 4.57.29 6.8.86 2.23.58 4.16 1.4 5.78 2.48l-2.21 5.45c-1.66-.97-3.38-1.71-5.18-2.21s-3.55-.76-5.24-.76c-2.77 0-4.83.47-6.18 1.4-1.35.94-2.03 2.18-2.03 3.73 0 1.08.39 1.96 1.16 2.65.77.68 1.75 1.22 2.94 1.62s2.81.85 4.86 1.35c2.81.65 5.11 1.32 6.91 2.03 1.8.7 3.34 1.77 4.62 3.21s1.92 3.38 1.92 5.83c0 2.09-.57 3.98-1.7 5.67s-2.85 3.04-5.16 4.05c-2.3 1.01-5.11 1.51-8.42 1.51-2.93-.01-5.75-.43-8.47-1.25zm45.28-31.16h-12.53v-5.94h32.08v5.94h-12.53v31.86h-7.02v-31.86zm57.15 31.16c-2.72-.83-4.87-1.93-6.45-3.29l2.43-5.45c1.55 1.22 3.45 2.22 5.7 3 2.25.77 4.51 1.16 6.78 1.16 2.81 0 4.9-.45 6.29-1.35 1.39-.9 2.08-2.09 2.08-3.56 0-1.08-.39-1.97-1.16-2.67s-1.75-1.25-2.94-1.65-2.81-.85-4.86-1.35c-2.88-.68-5.21-1.37-6.99-2.05s-3.31-1.75-4.59-3.21c-1.28-1.46-1.92-3.43-1.92-5.91 0-2.09.57-3.99 1.7-5.7s2.84-3.07 5.13-4.08c2.29-1.01 5.08-1.51 8.4-1.51 2.3 0 4.57.29 6.8.86 2.23.58 4.16 1.4 5.78 2.48l-2.21 5.45c-1.66-.97-3.38-1.71-5.18-2.21s-3.55-.76-5.24-.76c-2.77 0-4.83.47-6.18 1.4-1.35.94-2.03 2.18-2.03 3.73 0 1.08.39 1.96 1.16 2.65.77.68 1.75 1.22 2.94 1.62s2.81.85 4.86 1.35c2.81.65 5.11 1.32 6.91 2.03 1.8.7 3.34 1.77 4.62 3.21s1.92 3.38 1.92 5.83c0 2.09-.57 3.98-1.7 5.67s-2.85 3.04-5.16 4.05c-2.3 1.01-5.11 1.51-8.42 1.51-2.93-.01-5.75-.43-8.47-1.25zm45.28-31.16h-12.53v-5.94h32.08v5.94h-12.53v31.86h-7.02v-31.86zm35.12 28c-2.92-2.93-4.37-7.14-4.37-12.61v-21.33h7.02v21.06c0 7.42 3.2 11.12 9.61 11.12 6.37 0 9.56-3.71 9.56-11.12v-21.06h6.91v21.33c0 5.47-1.45 9.68-4.35 12.61s-6.96 4.4-12.18 4.4c-5.21 0-9.28-1.47-12.2-4.4zm44.45-33.94h16.52c4.03 0 7.61.78 10.75 2.35 3.13 1.57 5.56 3.78 7.29 6.64 1.73 2.86 2.59 6.17 2.59 9.91s-.86 7.05-2.59 9.91-4.16 5.08-7.29 6.64-6.71 2.35-10.75 2.35h-16.52v-37.8zm16.2 31.86c2.77 0 5.21-.53 7.32-1.59s3.73-2.57 4.86-4.54c1.13-1.96 1.7-4.24 1.7-6.83s-.57-4.87-1.7-6.83-2.75-3.47-4.86-4.54c-2.11-1.06-4.54-1.59-7.32-1.59h-9.18v25.92h9.18zm34.55-31.86h7.02v37.8h-7.02v-37.8zm30.56 35.83c-3.1-1.67-5.53-4-7.29-6.97s-2.65-6.29-2.65-9.96.88-6.99 2.65-9.96c1.76-2.97 4.19-5.29 7.29-6.97 3.1-1.67 6.57-2.51 10.42-2.51 3.85 0 7.33.84 10.42 2.51 3.1 1.67 5.53 3.99 7.29 6.94s2.65 6.28 2.65 9.99-.88 7.04-2.65 9.99c-1.76 2.95-4.19 5.27-7.29 6.94-3.1 1.67-6.57 2.51-10.42 2.51s-7.32-.84-10.42-2.51zm17.23-5.35c2.02-1.13 3.6-2.72 4.75-4.75s1.73-4.31 1.73-6.83-.58-4.8-1.73-6.83c-1.15-2.03-2.74-3.62-4.75-4.75-2.02-1.13-4.28-1.7-6.8-1.7s-4.79.57-6.8 1.7c-2.02 1.13-3.6 2.72-4.75 4.75s-1.73 4.31-1.73 6.83.58 4.8 1.73 6.83 2.74 3.62 4.75 4.75c2.02 1.13 4.28 1.7 6.8 1.7 2.51 0 4.78-.57 6.8-1.7zm30.36 6.62c-2.72-.83-4.87-1.93-6.45-3.29l2.43-5.45c1.55 1.22 3.45 2.22 5.7 3 2.25.77 4.51 1.16 6.78 1.16 2.81 0 4.9-.45 6.29-1.35 1.39-.9 2.08-2.09 2.08-3.56 0-1.08-.39-1.97-1.16-2.67s-1.75-1.25-2.94-1.65-2.81-.85-4.86-1.35c-2.88-.68-5.21-1.37-6.99-2.05s-3.31-1.75-4.59-3.21c-1.28-1.46-1.92-3.43-1.92-5.91 0-2.09.57-3.99 1.7-5.7s2.84-3.07 5.13-4.08c2.29-1.01 5.08-1.51 8.4-1.51 2.3 0 4.57.29 6.8.86 2.23.58 4.16 1.4 5.78 2.48l-2.21 5.45c-1.66-.97-3.38-1.71-5.18-2.21s-3.55-.76-5.24-.76c-2.77 0-4.83.47-6.18 1.4-1.35.94-2.03 2.18-2.03 3.73 0 1.08.39 1.96 1.16 2.65.77.68 1.75 1.22 2.94 1.62s2.81.85 4.86 1.35c2.81.65 5.11 1.32 6.91 2.03 1.8.7 3.34 1.77 4.62 3.21s1.92 3.38 1.92 5.83c0 2.09-.57 3.98-1.7 5.67s-2.85 3.04-5.16 4.05c-2.3 1.01-5.11 1.51-8.42 1.51a29.42 29.42 0 0 1-8.47-1.25z"/></g><path d="M0.28 442.47H1350.28V452.47H0.28z"/></svg>