<svg clip-rule="evenodd" fill-rule="evenodd" stroke-linejoin="round" stroke-miterlimit="2" viewBox="0 0 2448 1400" xmlns="http://www.w3.org/2000/svg"><path d="m.0003413336.00046h2447.501958v1400.00112h-2447.501958z" fill="none" stroke-width="1.0000008"/><g fill-rule="nonzero"><path d="m1301.79688277 772.0010776h4.16667v384.30030744h-4.16667z" fill="#231f20" stroke-width="4.16667"/><path d="m224.855 259.983v-63.663l9.955 9.953z" fill="#ef3d42" transform="matrix(4.16667 0 0 4.16667 -426.667 -575)"/><path d="m244.761 216.224 8.757 8.757-28.663 62.884v-8.509z" fill="#ef3d42" transform="matrix(4.16667 0 0 4.16667 -426.667 -575)"/><path d="m260.948 232.412 8.609 8.609-44.702 55.201v-3.741z" fill="#ef3d42" transform="matrix(4.16667 0 0 4.16667 -426.667 -575)"/><path d="m228.139 298.258h-3.284l101.946-101.945v30.268z" fill="#fcb131" transform="matrix(4.16667 0 0 4.16667 -426.667 -575)"/><path d="m230.935 298.261h8.512l87.353-32.66v-23.811z" fill="#007ac2" transform="matrix(4.16667 0 0 4.16667 -426.667 -575)"/><path d="m247.571 298.258h79.229v-21.971z" fill="#007ac2" transform="matrix(4.16667 0 0 4.16667 -426.667 -575)"/><path d="m364.391 414.204c0-.651-.446-1.301-1.301-1.301h-8.047v-19.964c0-.857-.651-1.301-1.302-1.301-.65 0-1.302.444-1.302 1.301v21.265c0 .685.618 1.301 1.302 1.301h9.349c.855 0 1.301-.651 1.301-1.301zm-20.956-6.951h-6.815l3.391-10.958zm4.896 7.19c0-.136-.034-.273-.068-.41l-6.677-21.436c-.206-.616-.857-.959-1.575-.959-.686 0-1.336.343-1.541.959l-6.678 21.436c-.034.137-.068.274-.068.41 0 .685.547 1.266 1.335 1.266.514 0 .993-.272 1.199-.923l1.541-4.931h8.458l1.506 4.931c.206.651.718.923 1.232.923.787 0 1.336-.581 1.336-1.266zm-18.662-.239c0-.651-.41-1.301-1.301-1.301h-9.416v-8.322h6.539c.857 0 1.301-.65 1.301-1.3 0-.651-.444-1.302-1.301-1.302h-6.539v-7.533h9.416c.891 0 1.301-.651 1.301-1.301 0-.651-.41-1.301-1.301-1.301h-10.718c-.684 0-1.301.615-1.301 1.301v21.059c0 .685.617 1.301 1.301 1.301h10.718c.891 0 1.301-.651 1.301-1.301zm-2.603-28.044c0-.685-.547-1.371-1.3-1.371-.171 0-.377.069-.582.138l-5.377 2.499c-.547.239-.787.685-.787 1.13 0 .685.547 1.37 1.301 1.37.172 0 .377-.068.582-.137l5.41-2.5c.514-.239.753-.684.753-1.129zm-18.112 12.498c0 2.157-1.61 3.903-3.768 3.903h-4.588v-8.115h4.452c2.156 0 3.904 1.746 3.904 3.904zm2.602 0v-.308c0-3.596-2.912-6.506-6.506-6.506h-5.754c-.684 0-1.301.615-1.301 1.301v21.264c0 .856.651 1.3 1.301 1.3.652 0 1.302-.444 1.302-1.3v-9.245h3.493l4.656 9.792c.274.549.72.753 1.131.753.822 0 1.369-.581 1.369-1.3 0-.171-.033-.376-.137-.582l-4.246-8.87c2.774-.786 4.692-3.286 4.692-6.299zm-17.156-5.513c0-.651-.444-1.301-1.301-1.301h-10.135c-.857 0-1.301.65-1.301 1.301 0 .65.444 1.301 1.301 1.301h3.766v19.963c0 .856.65 1.3 1.302 1.3.649 0 1.301-.444 1.301-1.3v-19.963h3.766c.857 0 1.301-.651 1.301-1.301zm-16.333 21.025v-21.231c0-.857-.615-1.301-1.266-1.301-.652 0-1.335.444-1.335 1.301v16.745l-7.432-16.95c-.41-.925-.992-1.096-1.746-1.096-.787 0-1.541.411-1.541 1.336v21.435c0 .856.65 1.3 1.302 1.3.651 0 1.3-.444 1.3-1.3v-16.745l7.465 16.882c.515 1.163 1.267 1.163 1.782 1.163.753 0 1.471-.409 1.471-1.539zm-21.571-4.966c0 2.158-1.712 3.904-3.87 3.904h-.342c-2.158 0-3.905-1.746-3.905-3.904v-11.094c0-2.123 1.747-3.869 3.905-3.869h.342c2.158 0 3.87 1.746 3.87 3.903zm2.601 0v-11.094c0-3.561-2.876-6.472-6.471-6.472h-.342c-3.596 0-6.506 2.877-6.506 6.472v11.094c0 3.596 2.91 6.505 6.506 6.505h.342c3.595 0 6.471-2.909 6.471-6.505zm-65.96 5c0-.651-.412-1.301-1.303-1.301h-9.416v-8.322h6.54c.856 0 1.302-.65 1.302-1.3 0-.651-.446-1.302-1.302-1.302h-6.54v-7.533h9.416c.891 0 1.303-.651 1.303-1.301 0-.651-.412-1.301-1.303-1.301h-10.716c-.686 0-1.303.615-1.303 1.301v21.059c0 .685.617 1.301 1.303 1.301h10.716c.891 0 1.303-.651 1.303-1.301zm-21.538-5.206c0 2.158-1.747 3.905-3.904 3.905h-4.246v-18.457h4.279c2.159 0 3.871 1.746 3.871 3.904zm2.567 0v-10.683c0-3.561-2.876-6.471-6.471-6.471h-5.548c-.685 0-1.3.615-1.3 1.301v21.059c0 .685.615 1.301 1.3 1.301h5.548c3.595 0 6.471-2.911 6.471-6.507z" fill="#231f20" transform="matrix(4.16667 0 0 4.16667 -426.667 -575)"/><path d="m288.281 375.099c0-4.657-3.253-5.787-6.677-7.602-1.849-.958-3.972-1.78-3.972-4.246 0-1.198.959-3.253 3.767-3.253h.309c2.088 0 3.526 1.233 3.697 2.911.104.822.753 1.233 1.37 1.233.65 0 1.234-.411 1.234-1.268 0-3.149-2.946-5.478-6.234-5.478h-.343c-3.593 0-6.436 2.534-6.436 5.855 0 4.349 3.321 5.274 6.608 7.055 2.123 1.164 4.075 1.951 4.075 4.759 0 2.431-1.198 3.801-3.869 3.801h-.342c-2.226 0-4.211-1.267-4.211-3.699 0-.889-.652-1.3-1.303-1.3-.65 0-1.301.411-1.301 1.267 0 4.073 3.253 6.334 6.779 6.334h.309c4.109 0 6.54-2.466 6.54-6.369zm-15.852-16.196c0-.652-.447-1.301-1.303-1.301h-10.135c-.856 0-1.301.649-1.301 1.301 0 .65.445 1.301 1.301 1.301h3.766v19.963c0 .856.651 1.301 1.303 1.301.65 0 1.3-.445 1.3-1.301v-19.963h3.766c.856 0 1.303-.651 1.303-1.301zm-17.567 5.512c0 2.158-1.61 3.904-3.767 3.904h-4.588v-8.115h4.451c2.157 0 3.904 1.746 3.904 3.904zm2.601 0v-.307c0-3.596-2.91-6.506-6.505-6.506h-5.753c-.685 0-1.301.616-1.301 1.301v21.264c0 .856.651 1.301 1.301 1.301.651 0 1.302-.445 1.302-1.301v-9.246h3.492l4.657 9.794c.274.548.719.753 1.13.753.822 0 1.37-.582 1.37-1.301 0-.171-.034-.377-.137-.583l-4.246-8.868c2.773-.787 4.69-3.287 4.69-6.301zm-48.102 10.684c0-4.657-3.253-5.787-6.677-7.602-1.849-.958-3.972-1.78-3.972-4.246 0-1.198.958-3.253 3.766-3.253h.308c2.089 0 3.527 1.233 3.699 2.911.102.822.753 1.233 1.369 1.233.651 0 1.233-.411 1.233-1.268 0-3.149-2.945-5.478-6.232-5.478h-.343c-3.595 0-6.437 2.534-6.437 5.855 0 4.349 3.321 5.274 6.609 7.055 2.123 1.164 4.075 1.951 4.075 4.759 0 2.431-1.199 3.801-3.87 3.801h-.342c-2.226 0-4.212-1.267-4.212-3.699 0-.889-.651-1.3-1.301-1.3-.651 0-1.301.411-1.301 1.267 0 4.073 3.253 6.334 6.779 6.334h.309c4.109 0 6.54-2.466 6.54-6.369zm-16.367 4.862c0-.65-.411-1.3-1.302-1.3h-9.416v-8.321h6.54c.856 0 1.301-.651 1.301-1.301 0-.651-.445-1.302-1.301-1.302h-6.54v-7.533h9.416c.891 0 1.302-.651 1.302-1.301 0-.652-.411-1.301-1.302-1.301h-10.717c-.685 0-1.302.616-1.302 1.301v21.058c0 .686.617 1.302 1.302 1.302h10.717c.891 0 1.302-.651 1.302-1.302zm-21.538-5.204c0 2.157-1.747 3.904-3.904 3.904h-4.246v-18.457h4.28c2.158 0 3.87 1.746 3.87 3.904zm2.568 0v-10.684c0-3.561-2.876-6.471-6.472-6.471h-5.547c-.685 0-1.301.616-1.301 1.301v21.058c0 .686.616 1.302 1.301 1.302h5.547c3.596 0 6.472-2.911 6.472-6.506z" fill="#231f20" transform="matrix(4.16667 0 0 4.16667 -426.667 -575)"/><path d="m336.413 345.719c0-.65-.445-1.301-1.301-1.301h-8.047v-19.962c0-.857-.65-1.302-1.301-1.302s-1.301.445-1.301 1.302v21.263c0 .685.616 1.302 1.301 1.302h9.348c.856 0 1.301-.65 1.301-1.302zm-18.456.206v-21.469c0-.857-.65-1.302-1.301-1.302-.65 0-1.302.445-1.302 1.302v21.469c0 .857.652 1.301 1.302 1.301.651 0 1.301-.444 1.301-1.301zm-7.053-.206c0-.65-.411-1.301-1.302-1.301h-9.416v-8.321h6.539c.857 0 1.303-.65 1.303-1.301 0-.65-.446-1.3-1.303-1.3h-6.539v-7.534h9.416c.891 0 1.302-.651 1.302-1.301 0-.651-.411-1.302-1.302-1.302h-10.716c-.686 0-1.302.617-1.302 1.302v21.058c0 .685.616 1.302 1.302 1.302h10.716c.891 0 1.302-.65 1.302-1.302zm-18.114-4.862c0-4.656-3.253-5.787-6.677-7.602-1.849-.959-3.971-1.78-3.971-4.246 0-1.198.958-3.253 3.766-3.253h.308c2.09 0 3.527 1.234 3.698 2.911.103.823.753 1.233 1.37 1.233.651 0 1.233-.41 1.233-1.267 0-3.151-2.945-5.479-6.233-5.479h-.342c-3.595 0-6.438 2.534-6.438 5.855 0 4.349 3.322 5.274 6.609 7.054 2.123 1.164 4.075 1.952 4.075 4.761 0 2.43-1.199 3.8-3.869 3.8h-.344c-2.225 0-4.211-1.267-4.211-3.699 0-.889-.65-1.301-1.301-1.301-.65 0-1.301.412-1.301 1.267 0 4.075 3.253 6.335 6.78 6.335h.308c4.108 0 6.54-2.465 6.54-6.369zm-18.421 4.828v-21.229c0-.857-.617-1.302-1.267-1.302-.651 0-1.335.445-1.335 1.302v16.744l-7.431-16.95c-.411-.924-.993-1.096-1.747-1.096-.787 0-1.541.411-1.541 1.336v21.435c0 .857.651 1.301 1.302 1.301.65 0 1.301-.444 1.301-1.301v-16.745l7.465 16.882c.513 1.164 1.268 1.164 1.779 1.164.754 0 1.474-.411 1.474-1.541zm-21.572-4.965c0 2.157-1.713 3.904-3.87 3.904h-.342c-2.157 0-3.904-1.747-3.904-3.904v-11.094c0-2.123 1.747-3.87 3.904-3.87h.342c2.157 0 3.87 1.747 3.87 3.905zm2.602 0v-11.094c0-3.562-2.876-6.472-6.472-6.472h-.342c-3.596 0-6.506 2.876-6.506 6.472v11.094c0 3.595 2.91 6.506 6.506 6.506h.342c3.596 0 6.472-2.911 6.472-6.506z" fill="#231f20" transform="matrix(4.16667 0 0 4.16667 -426.667 -575)"/><path d="m240.128 414.41v-21.265c0-.925-.343-1.507-1.507-1.507h-.103c-.958 0-1.369.514-1.575.993l-5.444 12.259-5.479-12.259c-.205-.479-.616-.993-1.541-.993h-.102c-1.199 0-1.541.582-1.541 1.507v21.265c0 .855.65 1.3 1.301 1.3s1.301-.445 1.301-1.3v-16.745l4.657 10.375c.274.582.856.89 1.472.89.583 0 1.165-.274 1.439-.89l4.52-10.375v16.745c0 .855.65 1.3 1.301 1.3.65 0 1.301-.445 1.301-1.3z" fill="#231f20" transform="matrix(4.16667 0 0 4.16667 -426.667 -575)"/><path d="m234.898 373.01h-6.814l3.39-10.957zm4.897 7.192c0-.138-.034-.275-.068-.412l-6.678-21.435c-.205-.616-.856-.959-1.575-.959-.685 0-1.335.343-1.54.959l-6.678 21.435c-.034.137-.068.274-.068.412 0 .684.547 1.266 1.335 1.266.515 0 .994-.273 1.198-.925l1.541-4.929h8.458l1.507 4.929c.205.652.719.925 1.233.925.787 0 1.335-.582 1.335-1.266z" fill="#231f20" transform="matrix(4.16667 0 0 4.16667 -426.667 -575)"/><path d="m238.142 341.679v-.24c0-.822-.617-1.267-1.268-1.267-.548 0-1.129.343-1.301 1.13-.377 1.849-1.918 3.322-3.87 3.322h-.342c-2.157 0-3.904-1.747-3.904-3.904v-11.094c0-2.123 1.747-3.87 3.904-3.87h.342c1.952 0 3.493 1.473 3.87 3.322.172.753.719 1.13 1.301 1.13.651 0 1.268-.445 1.268-1.267v-.206c-.446-3.184-3.151-5.581-6.439-5.581h-.342c-3.594 0-6.506 2.876-6.506 6.472v11.094c0 3.596 2.912 6.506 6.506 6.506h.342c3.253 0 5.96-2.431 6.439-5.547z" fill="#231f20" transform="matrix(4.16667 0 0 4.16667 -426.667 -575)"/><path d="m466.272 357.766h5.39l7.003 18.97h.073l7.04-18.97h5.207v23.332h-3.631v-20.153h-.073l-7.406 20.153h-3.08l-7.407-20.153h-.074v20.153h-3.042z" fill="#030404" transform="matrix(4.16667 0 0 4.16667 -426.667 -575)"/><path d="m501.407 380.05c3.301 0 3.704-4.059 3.704-7.001 0-2.94-.403-6.999-3.704-6.999-3.262 0-3.666 4.059-3.666 6.999 0 2.942.404 7.001 3.666 7.001zm-7.699-7.001c0-5.443 2.568-8.419 7.699-8.419 5.134 0 7.738 2.976 7.738 8.419 0 5.445-2.604 8.42-7.738 8.42-5.131 0-7.699-2.975-7.699-8.42z" fill="#030404" transform="matrix(4.16667 0 0 4.16667 -426.667 -575)"/><path d="m512.015 365.002h3.703v3.821h.073c.587-1.184 2.274-4.193 6.123-4.193 3.081 0 4.401 2.368 4.401 4.701v11.767h-3.705v-10.078c0-2.028-.329-3.853-2.198-3.853-3.667 0-4.694 5.274-4.694 7.269v6.662h-3.703z" fill="#030404" transform="matrix(4.16667 0 0 4.16667 -426.667 -575)"/><path d="m539.598 381.232c-.734.17-1.724.238-2.567.238-3.483 0-5.5-.981-5.5-4.092v-10.618h-2.786v-1.758h2.786v-3.787l3.704-2.063v5.85h4.766v1.758h-4.766v9.265c0 2.367.256 3.517 2.639 3.517.588 0 1.211-.068 1.724-.27z" fill="#030404" transform="matrix(4.16667 0 0 4.16667 -426.667 -575)"/><path d="m542.385 365.002h3.703v4.092h.073c1.173-2.164 2.457-4.226 5.647-4.464v3.551c-3.557.102-5.72 1.218-5.72 5.544v7.373h-3.703z" fill="#030404" transform="matrix(4.16667 0 0 4.16667 -426.667 -575)"/><path d="m560.961 357.781h3.887l-3.58 4.415h-2.751zm2.654 11.887c0-1.25-.478-3.618-3.227-3.618-2.861 0-3.411 2.706-3.485 3.618zm3.298 10.888c-1.539.574-2.896.914-5.096.914-4.84 0-8.727-2.638-8.727-9.13 0-4.464 1.944-7.71 7.443-7.71 5.648 0 6.711 3.484 6.711 6.594h-10.45c0 3.179 1.54 8.453 6.782 8.453 1.138 0 2.237-.202 3.337-.677z" fill="#030404" transform="matrix(4.16667 0 0 4.16667 -426.667 -575)"/><path d="m579.05 373.557c-1.539.102-5.72.405-5.72 3.382 0 1.453.917 2.4 2.127 2.4 1.284 0 3.593-1.15 3.593-3.89zm0 5.309h-.073c-.587.946-2.127 2.603-4.914 2.603-2.749 0-4.765-1.792-4.765-4.024 0-4.97 7.443-5.207 9.752-5.309v-1.419c0-1.758 0-4.667-2.456-4.667-2.274 0-2.678 1.623-2.824 3.517h-3.886c.184-2.4 1.209-4.937 6.71-4.937 5.683 0 6.16 2.942 6.16 6.087v10.381h-3.704z" fill="#030404" transform="matrix(4.16667 0 0 4.16667 -426.667 -575)"/><path d="m2017.44745529 915.69285922h15.42917901v97.21674444h-15.42917901z" fill="#030404" stroke-width="4.16667"/><path d="m616.003 383.946c-.74-.734-1.176-1.717-1.177-2.767v-9.047c.001-1.119 1.035-1.733 1.739-1.734h9.116c1.883-.001 3.916 1.475 3.92 3.882.003 2.146-1.739 3.896-3.884 3.9-1.379.001-2.303-.638-2.834-1.174-.002-.001-.348-.343-.458-.455.074-.204.15-.465.15-.829v-.001c0-1.295-1.07-2.351-2.388-2.356-.633-.002-1.196.225-1.634.658-.449.444-.718 1.082-.72 1.706 0 .603.277 1.254.721 1.698.435.433 1.006.661 1.655.66.356-.001.653-.1.808-.155.081.08.469.455.469.455.282.266 1.199 1.248 1.201 2.798v.005c0 2.402-2.029 3.894-3.91 3.896-1.044.003-2.031-.403-2.774-1.14zm-16.699-6.85c-.743-.738-1.17-1.748-1.172-2.773-.002-1.042.404-2.023 1.145-2.762.738-.738 1.722-1.161 2.778-1.163h9.085c1.123.002 1.756 1.017 1.758 1.717v9.083c.001 1.029-.431 2.044-1.174 2.785-.508.509-1.397 1.116-2.742 1.117-2.156.003-3.912-1.731-3.915-3.866v-.006c0-1.367.641-2.287 1.178-2.819.001 0 .346-.344.455-.455.207.074.468.151.833.152 1.304 0 2.362-1.067 2.368-2.38.001-.631-.226-1.194-.661-1.631-.445-.446-1.086-.713-1.712-.715-.604 0-1.259.273-1.705.716-.434.434-.666 1.002-.666 1.646v.004c0 .352.103.651.159.805-.082.082-.459.47-.459.47-.264.28-1.254 1.191-2.808 1.193-1.043.004-2.016-.395-2.745-1.118zm15.522-19.424c-.003-1.028.405-2.042 1.146-2.783.508-.509 1.401-1.116 2.744-1.119 1.035 0 2.054.419 2.788 1.151.725.72 1.126 1.685 1.126 2.717v.005c0 1.37-.638 2.288-1.176 2.817-.001.001-.345.345-.456.457-.203-.074-.467-.151-.833-.152-1.298-.001-2.36 1.068-2.367 2.38-.001.631.226 1.195.664 1.631.446.447 1.083.714 1.71.716h.003c.608 0 1.257-.276 1.701-.719.436-.43.664-.998.664-1.644v-.004c0-.352-.102-.651-.154-.806.078-.08.456-.468.456-.468.267-.281 1.253-1.192 2.807-1.194 2.415-.005 3.914 2.016 3.919 3.892.001 1.04-.406 2.022-1.146 2.762-.737.737-1.724 1.152-2.78 1.153h-9.08c-1.123-.001-1.735-1.009-1.736-1.71zm-8.554 2.8-.001-.001c-.282-.264-1.196-1.246-1.198-2.797v-.009c0-2.399 2.025-3.889 3.906-3.893 1.046-.002 2.029.403 2.772 1.139.741.735 1.145 1.719 1.147 2.77v9.046c-.001 1.118-.998 1.737-1.7 1.737h-9.123c-1.032.004-2.05-.415-2.794-1.153-.511-.507-1.121-1.393-1.122-2.733-.002-1.03.418-2.042 1.154-2.775.725-.723 1.691-1.121 2.726-1.123 1.378-.001 2.303.637 2.836 1.173 0 0 .346.343.46.453-.078.202-.155.466-.155.83 0 1.296 1.073 2.354 2.389 2.36.634.003 1.2-.228 1.641-.663.448-.445.717-1.081.717-1.704 0-.603-.274-1.253-.719-1.697-.437-.434-1.009-.662-1.659-.662-.355.001-.651.103-.81.156-.08-.078-.467-.454-.467-.454zm7.606-5.845c-1.134-1.68-2.988-2.724-4.879-2.724-3.241 0-5.78 2.563-5.78 5.836 0 .314.067.754.189 1.302-.297-.063-.855-.168-1.315-.168-3.285 0-5.86 2.518-5.86 5.732 0 1.891 1.058 3.739 2.762 4.87-1.719 1.146-2.748 2.93-2.748 4.807 0 3.175 2.629 5.757 5.862 5.757.395 0 .875-.092 1.29-.183-.115.526-.18.969-.18 1.288 0 3.272 2.539 5.836 5.78 5.836 1.92 0 3.711-.998 4.834-2.669 1.082 1.6 3.023 2.669 4.885 2.669 3.228 0 5.753-2.564 5.753-5.836 0-.426-.092-.938-.167-1.288.551.117.991.183 1.305.183 3.231 0 5.859-2.582 5.859-5.757 0-1.895-1.023-3.734-2.676-4.842 1.653-1.107 2.676-2.941 2.676-4.839 0-3.158-2.641-5.731-5.886-5.731-.407 0-.898.103-1.281.186.064-.299.17-.864.17-1.317 0-3.273-2.525-5.836-5.753-5.836-1.88 0-3.714 1.043-4.84 2.724z" fill="#ed1f24" transform="matrix(4.16667 0 0 4.16667 -426.667 -575)"/></g></svg>