<?xml version="1.0" encoding="utf-8"?>
<!-- Generator: Adobe Illustrator 23.1.0, SVG Export Plug-In . SVG Version: 6.00 Build 0)  -->
<!DOCTYPE svg PUBLIC "-//W3C//DTD SVG 1.1//EN" "http://www.w3.org/Graphics/SVG/1.1/DTD/svg11.dtd" [
	<!ENTITY ns_extend "http://ns.adobe.com/Extensibility/1.0/">
	<!ENTITY ns_ai "http://ns.adobe.com/AdobeIllustrator/10.0/">
	<!ENTITY ns_graphs "http://ns.adobe.com/Graphs/1.0/">
	<!ENTITY ns_vars "http://ns.adobe.com/Variables/1.0/">
	<!ENTITY ns_imrep "http://ns.adobe.com/ImageReplacement/1.0/">
	<!ENTITY ns_sfw "http://ns.adobe.com/SaveForWeb/1.0/">
	<!ENTITY ns_custom "http://ns.adobe.com/GenericCustomNamespace/1.0/">
	<!ENTITY ns_adobe_xpath "http://ns.adobe.com/XPath/1.0/">
]>
<svg version="1.1" id="Logotype_1_" xmlns:x="&ns_extend;" xmlns:i="&ns_ai;" xmlns:graph="&ns_graphs;"
	 xmlns="http://www.w3.org/2000/svg" xmlns:xlink="http://www.w3.org/1999/xlink" x="0px" y="0px" viewBox="0 0 1350.76 452.47"
	 style="enable-background:new 0 0 1350.76 452.47;" xml:space="preserve">
<metadata>
	<sfw  xmlns="&ns_sfw;">
		<slices></slices>
		<sliceSourceBounds  bottomLeftOrigin="true" height="452.47" width="1350.76" x="149.62" y="148.76"></sliceSourceBounds>
	</sfw>
</metadata>
<g id="Logotype">
	<g id="ESPACE_230">
		<path d="M0.34,280.91V2.59H111.8v53.78H57.04v54.11h52.49v52.49H57.04v63.83h58.32v54.11H0.34z"/>
		<path d="M138.85,264.71C127.62,252.19,122,231.99,122,204.12V176.9h54.76v34.67c0,13.83,4.42,20.74,13.28,20.74
			c4.97,0,8.42-1.46,10.37-4.37s2.92-7.83,2.92-14.74c0-9.07-1.08-16.57-3.24-22.52c-2.16-5.94-4.92-10.9-8.26-14.9
			c-3.35-3.99-9.35-10.21-17.98-18.63l-23.98-23.98c-18.58-18.14-27.86-38.23-27.86-60.26c0-23.76,5.45-41.85,16.36-54.27
			c10.9-12.42,26.84-18.63,47.79-18.63c25.05,0,43.09,6.64,54.11,19.93c11.02,13.28,16.52,34.08,16.52,62.37h-56.7l-0.32-19.12
			c0-3.67-1.03-6.59-3.08-8.75c-2.06-2.16-4.92-3.24-8.59-3.24c-4.32,0-7.56,1.19-9.72,3.56c-2.16,2.38-3.24,5.62-3.24,9.72
			c0,9.07,5.18,18.47,15.55,28.19l32.4,31.1c7.56,7.35,13.82,14.31,18.79,20.9s8.96,14.37,11.99,23.33
			c3.02,8.97,4.54,19.6,4.54,31.91c0,27.43-5.02,48.23-15.07,62.37c-10.04,14.15-26.62,21.22-49.73,21.22
			C168.33,283.5,150.08,277.24,138.85,264.71z"/>
		<path d="M268.06,2.59h73.55c22.24,0,38.12,7.18,47.63,21.55c9.5,14.37,14.26,35.37,14.26,63.02s-4.21,48.49-12.64,62.53
			c-8.42,14.04-23.55,21.06-45.36,21.06h-22.68v110.16h-54.76L268.06,2.59L268.06,2.59z M326.05,120.53
			c6.69,0,11.61-1.24,14.74-3.73c3.13-2.48,5.18-6.04,6.16-10.69c0.97-4.64,1.46-11.28,1.46-19.93c0-11.66-1.3-20.09-3.89-25.27
			c-2.59-5.18-7.78-7.78-15.55-7.78h-6.16v67.39h3.24L326.05,120.53L326.05,120.53z"/>
		<path d="M399.92,280.91L426.81,2.59h94.28l26.57,278.32h-52.81l-3.89-45.04h-33.7l-3.24,45.04H399.92z M461.48,191.48h25.27
			L474.44,49.89h-2.59L461.48,191.48z"/>
		<path d="M570.86,264.38c-12.21-12.74-18.31-30.24-18.31-52.49V83.59c0-27.65,5.51-48.49,16.52-62.53
			C580.09,7.02,597.36,0,620.91,0c20.52,0,37.04,5.62,49.57,16.85c12.52,11.23,18.79,27.43,18.79,48.6v47.95h-55.4V72.25
			c0-7.99-0.97-13.5-2.92-16.52c-1.94-3.02-5.3-4.54-10.04-4.54c-4.97,0-8.37,1.73-10.21,5.18c-1.84,3.46-2.75,8.54-2.75,15.23
			v139.64c0,7.35,1.08,12.69,3.24,16.04c2.16,3.35,5.4,5.02,9.72,5.02c8.64,0,12.96-7.02,12.96-21.06v-50.22h56.05v52.49
			c0,46.66-23.44,69.98-70.31,69.98C599.32,283.5,583.06,277.13,570.86,264.38z"/>
		<path d="M699.42,280.91V2.59h111.46v53.78h-54.76v54.11h52.49v52.49h-52.49v63.83h58.32v54.11H699.42z"/>
		<path d="M897.05,267.62c0-12.74,2-24.51,5.99-35.32c3.99-10.8,8.91-20.52,14.74-29.16s13.5-18.79,23-30.46
			c9.72-12.09,17.44-22.36,23.17-30.78c5.72-8.42,10.58-18.09,14.58-29c3.99-10.9,5.99-22.73,5.99-35.48
			c0-7.56-1.08-13.45-3.24-17.66s-6.05-6.32-11.66-6.32c-9.29,0-13.93,8.32-13.93,24.95v34.02h-58.64l-0.65-17.17
			c0-21.17,2.16-38.56,6.48-52.16c4.32-13.61,11.88-23.98,22.68-31.1c10.8-7.13,25.7-10.69,44.71-10.69
			c23.33,0,41.36,6.54,54.11,19.6c12.74,13.07,19.12,31.59,19.12,55.57c0,15.34-2.11,29.22-6.32,41.63
			c-4.21,12.42-9.4,23.28-15.55,32.56c-6.16,9.29-14.31,20.2-24.46,32.72c-7.35,8.86-13.45,16.74-18.31,23.65
			c-4.86,6.92-9.23,14.04-13.12,21.38h75.82v52.49h-144.5L897.05,267.62L897.05,267.62z"/>
		<path d="M1065.5,264.87c-11.23-12.85-16.85-32.45-16.85-58.81V176.9h57.02v29.16c0,8.42,1.08,14.96,3.24,19.6
			c2.16,4.65,6.48,6.97,12.96,6.97c4.54,0,7.83-1.62,9.88-4.86s3.29-7.07,3.73-11.5c0.43-4.42,0.65-10.85,0.65-19.28v-6.8
			c0-23.98-7.89-35.96-23.65-35.96c-2.81,0-4.65,0.11-5.51,0.32v-49.9c9.93,0,17.38-2.21,22.36-6.64c4.97-4.42,7.45-11.5,7.45-21.22
			c0-15.76-4.54-23.65-13.61-23.65c-5.62,0-9.23,1.41-10.85,4.21c-1.62,2.81-2.7,6.37-3.24,10.69s-0.92,7.45-1.13,9.4v8.42h-57.67
			l-0.32-9.72c0.21-25.48,6.26-44.23,18.14-56.21c11.88-11.99,30.13-17.98,54.76-17.98c47.3,0,70.96,24.74,70.96,74.2
			c0,14.47-1.94,25.98-5.83,34.51c-3.89,8.54-10.58,14.53-20.09,17.98c7.78,3.89,13.55,8.7,17.33,14.42
			c3.78,5.73,6.26,12.69,7.45,20.9c1.18,8.21,1.78,19.23,1.78,33.05c0,28.73-5.99,50.44-17.98,65.12
			c-11.99,14.69-31.16,22.03-57.51,22.03C1094.55,284.15,1076.73,277.72,1065.5,264.87z"/>
		<path d="M1221.31,263.57c-12.75-13.28-19.12-32.24-19.12-56.86V81c0-26.35,6.16-46.44,18.47-60.26
			C1232.97,6.92,1251.33,0,1275.74,0c24.62,0,43.09,6.92,55.4,20.74c12.31,13.83,18.47,33.91,18.47,60.26v125.71
			c0,24.84-6.37,43.85-19.12,57.02c-12.75,13.18-31,19.76-54.76,19.76C1252.19,283.5,1234.05,276.86,1221.31,263.57z
			 M1285.78,226.64c2.59-3.78,3.89-8.26,3.89-13.45V75.81c0-7.99-0.92-14.09-2.75-18.31c-1.84-4.21-5.56-6.32-11.18-6.32
			s-9.29,2.11-11.02,6.32s-2.59,10.32-2.59,18.31v137.38c0,5.18,1.24,9.67,3.73,13.45c2.48,3.78,5.78,5.67,9.88,5.67
			C1279.84,232.31,1283.19,230.42,1285.78,226.64z"/>
	</g>
	<g id="Ateliers">
		<path d="M29.87,381.73h-18.9l-3.73,8.75H0l17.01-37.8h6.91l17.06,37.8h-7.34L29.87,381.73z M27.55,376.22l-7.13-16.52l-7.07,16.52
			H27.55z"/>
		<path d="M55.66,358.62H43.13v-5.94h32.08v5.94H62.68v31.86h-7.02L55.66,358.62L55.66,358.62z"/>
		<path d="M114.92,384.59v5.89H86.57v-37.8h27.59v5.89H93.59v9.83h18.25v5.78H93.59v10.42h21.33L114.92,384.59L114.92,384.59z"/>
		<path d="M128.45,352.68h7.02v31.86h19.76v5.94h-26.78V352.68z"/>
		<path d="M166.72,352.68h7.02v37.8h-7.02V352.68z"/>
		<path d="M218.11,384.59v5.89h-28.35v-37.8h27.59v5.89h-20.57v9.83h18.25v5.78h-18.25v10.42h21.33V384.59z"/>
		<path d="M256.38,390.48l-7.72-11.07c-0.32,0.04-0.81,0.05-1.46,0.05h-8.53v11.02h-7.02v-37.8h15.55c3.28,0,6.13,0.54,8.56,1.62
			s4.29,2.63,5.59,4.64c1.3,2.02,1.94,4.41,1.94,7.18c0,2.84-0.69,5.29-2.08,7.34c-1.39,2.05-3.38,3.58-5.97,4.59l8.69,12.42
			L256.38,390.48L256.38,390.48z M253.84,360.56c-1.58-1.3-3.91-1.94-6.97-1.94h-8.21v15.07h8.21c3.06,0,5.38-0.66,6.97-1.97
			c1.58-1.31,2.38-3.18,2.38-5.59C256.22,363.71,255.42,361.86,253.84,360.56z"/>
		<path d="M280.79,389.78c-2.72-0.83-4.87-1.93-6.45-3.29l2.43-5.45c1.55,1.22,3.45,2.22,5.7,3c2.25,0.77,4.51,1.16,6.78,1.16
			c2.81,0,4.9-0.45,6.29-1.35c1.39-0.9,2.08-2.09,2.08-3.56c0-1.08-0.39-1.97-1.16-2.67s-1.75-1.25-2.94-1.65s-2.81-0.85-4.86-1.35
			c-2.88-0.68-5.21-1.37-6.99-2.05s-3.31-1.75-4.59-3.21s-1.92-3.43-1.92-5.91c0-2.09,0.57-3.99,1.7-5.7
			c1.13-1.71,2.84-3.07,5.13-4.08c2.29-1.01,5.08-1.51,8.4-1.51c2.3,0,4.57,0.29,6.8,0.86c2.23,0.58,4.16,1.4,5.78,2.48l-2.21,5.45
			c-1.66-0.97-3.38-1.71-5.18-2.21s-3.55-0.76-5.24-0.76c-2.77,0-4.83,0.47-6.18,1.4c-1.35,0.94-2.02,2.18-2.02,3.73
			c0,1.08,0.39,1.96,1.16,2.65c0.77,0.68,1.75,1.22,2.94,1.62s2.81,0.85,4.86,1.35c2.81,0.65,5.11,1.32,6.91,2.03
			c1.8,0.7,3.34,1.77,4.62,3.21s1.92,3.38,1.92,5.83c0,2.09-0.57,3.98-1.7,5.67s-2.85,3.04-5.16,4.05c-2.3,1.01-5.11,1.51-8.42,1.51
			C286.33,391.02,283.51,390.6,280.79,389.78z"/>
		<path d="M340.54,352.68h16.52c4.03,0,7.61,0.78,10.75,2.35c3.13,1.57,5.56,3.78,7.29,6.64c1.73,2.86,2.59,6.17,2.59,9.91
			s-0.86,7.05-2.59,9.91c-1.73,2.86-4.16,5.08-7.29,6.64c-3.13,1.57-6.71,2.35-10.75,2.35h-16.52L340.54,352.68L340.54,352.68z
			 M356.74,384.54c2.77,0,5.21-0.53,7.32-1.59s3.73-2.57,4.86-4.54c1.13-1.96,1.7-4.24,1.7-6.83s-0.57-4.87-1.7-6.83
			c-1.13-1.96-2.75-3.47-4.86-4.54c-2.11-1.06-4.54-1.59-7.32-1.59h-9.18v25.92L356.74,384.54L356.74,384.54z"/>
		<path d="M396.25,351.27c0.83,0.83,1.24,1.89,1.24,3.19c0,0.65-0.08,1.28-0.24,1.89c-0.16,0.61-0.48,1.53-0.94,2.75l-2.81,7.67
			h-4.37l2.16-8.32c-0.79-0.29-1.41-0.78-1.86-1.48s-0.67-1.54-0.67-2.51c0-1.3,0.41-2.36,1.24-3.19c0.83-0.83,1.87-1.24,3.13-1.24
			C394.38,350.03,395.42,350.45,396.25,351.27z"/>
		<path d="M431.47,381.73h-18.9l-3.73,8.75h-7.24l17.01-37.8h6.91l17.06,37.8h-7.34L431.47,381.73z M429.15,376.22l-7.13-16.52
			l-7.07,16.52H429.15z"/>
		<path d="M478.43,390.48l-7.72-11.07c-0.32,0.04-0.81,0.05-1.46,0.05h-8.53v11.02h-7.02v-37.8h15.55c3.28,0,6.13,0.54,8.56,1.62
			s4.29,2.63,5.59,4.64c1.3,2.02,1.94,4.41,1.94,7.18c0,2.84-0.69,5.29-2.08,7.34c-1.39,2.05-3.38,3.58-5.97,4.59l8.69,12.42
			L478.43,390.48L478.43,390.48z M475.89,360.56c-1.58-1.3-3.91-1.94-6.97-1.94h-8.21v15.07h8.21c3.06,0,5.38-0.66,6.97-1.97
			c1.58-1.31,2.38-3.18,2.38-5.59C478.27,363.71,477.47,361.86,475.89,360.56z"/>
		<path d="M507.16,358.62h-12.53v-5.94h32.08v5.94h-12.53v31.86h-7.02V358.62z"/>
		<path d="M538.06,352.68h7.02v37.8h-7.02V352.68z"/>
		<path d="M564.91,389.78c-2.72-0.83-4.87-1.93-6.45-3.29l2.43-5.45c1.55,1.22,3.45,2.22,5.7,3c2.25,0.77,4.51,1.16,6.78,1.16
			c2.81,0,4.9-0.45,6.29-1.35c1.39-0.9,2.08-2.09,2.08-3.56c0-1.08-0.39-1.97-1.16-2.67c-0.77-0.7-1.75-1.25-2.94-1.65
			c-1.19-0.4-2.81-0.85-4.86-1.35c-2.88-0.68-5.21-1.37-6.99-2.05s-3.31-1.75-4.59-3.21s-1.92-3.43-1.92-5.91
			c0-2.09,0.57-3.99,1.7-5.7c1.13-1.71,2.84-3.07,5.13-4.08c2.29-1.01,5.08-1.51,8.4-1.51c2.3,0,4.57,0.29,6.8,0.86
			c2.23,0.58,4.16,1.4,5.78,2.48l-2.21,5.45c-1.66-0.97-3.38-1.71-5.18-2.21c-1.8-0.5-3.55-0.76-5.24-0.76
			c-2.77,0-4.83,0.47-6.18,1.4c-1.35,0.94-2.02,2.18-2.02,3.73c0,1.08,0.39,1.96,1.16,2.65c0.77,0.68,1.75,1.22,2.94,1.62
			c1.19,0.4,2.81,0.85,4.86,1.35c2.81,0.65,5.11,1.32,6.91,2.03c1.8,0.7,3.34,1.77,4.62,3.21c1.28,1.44,1.92,3.38,1.92,5.83
			c0,2.09-0.57,3.98-1.7,5.67s-2.85,3.04-5.16,4.05c-2.3,1.01-5.11,1.51-8.42,1.51C570.45,391.02,567.63,390.6,564.91,389.78z"/>
		<path d="M610.19,358.62h-12.53v-5.94h32.08v5.94h-12.53v31.86h-7.02V358.62L610.19,358.62z"/>
		<path d="M669.44,384.59v5.89h-28.35v-37.8h27.59v5.89h-20.57v9.83h18.25v5.78h-18.25v10.42h21.33L669.44,384.59L669.44,384.59z"/>
		<path d="M686.92,389.78c-2.72-0.83-4.87-1.93-6.45-3.29l2.43-5.45c1.55,1.22,3.45,2.22,5.7,3c2.25,0.77,4.51,1.16,6.78,1.16
			c2.81,0,4.9-0.45,6.29-1.35c1.39-0.9,2.08-2.09,2.08-3.56c0-1.08-0.39-1.97-1.16-2.67c-0.77-0.7-1.75-1.25-2.94-1.65
			c-1.19-0.4-2.81-0.85-4.86-1.35c-2.88-0.68-5.21-1.37-6.99-2.05s-3.31-1.75-4.59-3.21s-1.92-3.43-1.92-5.91
			c0-2.09,0.57-3.99,1.7-5.7c1.13-1.71,2.84-3.07,5.13-4.08c2.29-1.01,5.08-1.51,8.4-1.51c2.3,0,4.57,0.29,6.8,0.86
			c2.23,0.58,4.16,1.4,5.78,2.48l-2.21,5.45c-1.66-0.97-3.38-1.71-5.18-2.21c-1.8-0.5-3.55-0.76-5.24-0.76
			c-2.77,0-4.83,0.47-6.18,1.4c-1.35,0.94-2.03,2.18-2.03,3.73c0,1.08,0.39,1.96,1.16,2.65c0.77,0.68,1.75,1.22,2.94,1.62
			c1.19,0.4,2.81,0.85,4.86,1.35c2.81,0.65,5.11,1.32,6.91,2.03c1.8,0.7,3.34,1.77,4.62,3.21c1.28,1.44,1.92,3.38,1.92,5.83
			c0,2.09-0.57,3.98-1.7,5.67s-2.85,3.04-5.16,4.05c-2.3,1.01-5.11,1.51-8.42,1.51C692.45,391.02,689.64,390.6,686.92,389.78z"/>
		<path d="M766.35,345.01h6.05l-17.82,50.87h-6.05L766.35,345.01z"/>
		<path d="M837.39,381.73h-18.9l-3.73,8.75h-7.24l17.01-37.8h6.91l17.06,37.8h-7.34L837.39,381.73z M835.07,376.22l-7.13-16.52
			l-7.07,16.52H835.07z"/>
		<path d="M884.35,390.48l-7.72-11.07c-0.32,0.04-0.81,0.05-1.46,0.05h-8.53v11.02h-7.02v-37.8h15.55c3.28,0,6.13,0.54,8.56,1.62
			s4.29,2.63,5.59,4.64c1.3,2.02,1.94,4.41,1.94,7.18c0,2.84-0.69,5.29-2.08,7.34c-1.39,2.05-3.38,3.58-5.97,4.59l8.69,12.42
			L884.35,390.48L884.35,390.48z M881.81,360.56c-1.58-1.3-3.91-1.94-6.97-1.94h-8.21v15.07h8.21c3.06,0,5.38-0.66,6.97-1.97
			c1.58-1.31,2.38-3.18,2.38-5.59C884.18,363.71,883.39,361.86,881.81,360.56z"/>
		<path d="M913.08,358.62h-12.53v-5.94h32.08v5.94H920.1v31.86h-7.02L913.08,358.62L913.08,358.62z"/>
		<path d="M943.98,352.68H951v37.8h-7.02V352.68z"/>
		<path d="M970.83,389.78c-2.72-0.83-4.87-1.93-6.45-3.29l2.43-5.45c1.55,1.22,3.45,2.22,5.7,3c2.25,0.77,4.51,1.16,6.78,1.16
			c2.81,0,4.9-0.45,6.29-1.35c1.39-0.9,2.08-2.09,2.08-3.56c0-1.08-0.39-1.97-1.16-2.67s-1.75-1.25-2.94-1.65s-2.81-0.85-4.86-1.35
			c-2.88-0.68-5.21-1.37-6.99-2.05s-3.31-1.75-4.59-3.21c-1.28-1.46-1.92-3.43-1.92-5.91c0-2.09,0.57-3.99,1.7-5.7
			c1.13-1.71,2.84-3.07,5.13-4.08c2.29-1.01,5.08-1.51,8.4-1.51c2.3,0,4.57,0.29,6.8,0.86c2.23,0.58,4.16,1.4,5.78,2.48l-2.21,5.45
			c-1.66-0.97-3.38-1.71-5.18-2.21s-3.55-0.76-5.24-0.76c-2.77,0-4.83,0.47-6.18,1.4c-1.35,0.94-2.03,2.18-2.03,3.73
			c0,1.08,0.39,1.96,1.16,2.65c0.77,0.68,1.75,1.22,2.94,1.62s2.81,0.85,4.86,1.35c2.81,0.65,5.11,1.32,6.91,2.03
			c1.8,0.7,3.34,1.77,4.62,3.21s1.92,3.38,1.92,5.83c0,2.09-0.57,3.98-1.7,5.67s-2.85,3.04-5.16,4.05c-2.3,1.01-5.11,1.51-8.42,1.51
			C976.37,391.02,973.55,390.6,970.83,389.78z"/>
		<path d="M1016.11,358.62h-12.53v-5.94h32.08v5.94h-12.53v31.86h-7.02L1016.11,358.62L1016.11,358.62z"/>
		<path d="M1073.26,389.78c-2.72-0.83-4.87-1.93-6.45-3.29l2.43-5.45c1.55,1.22,3.45,2.22,5.7,3c2.25,0.77,4.51,1.16,6.78,1.16
			c2.81,0,4.9-0.45,6.29-1.35c1.39-0.9,2.08-2.09,2.08-3.56c0-1.08-0.39-1.97-1.16-2.67s-1.75-1.25-2.94-1.65s-2.81-0.85-4.86-1.35
			c-2.88-0.68-5.21-1.37-6.99-2.05s-3.31-1.75-4.59-3.21c-1.28-1.46-1.92-3.43-1.92-5.91c0-2.09,0.57-3.99,1.7-5.7
			c1.13-1.71,2.84-3.07,5.13-4.08c2.29-1.01,5.08-1.51,8.4-1.51c2.3,0,4.57,0.29,6.8,0.86c2.23,0.58,4.16,1.4,5.78,2.48l-2.21,5.45
			c-1.66-0.97-3.38-1.71-5.18-2.21s-3.55-0.76-5.24-0.76c-2.77,0-4.83,0.47-6.18,1.4c-1.35,0.94-2.03,2.18-2.03,3.73
			c0,1.08,0.39,1.96,1.16,2.65c0.77,0.68,1.75,1.22,2.94,1.62s2.81,0.85,4.86,1.35c2.81,0.65,5.11,1.32,6.91,2.03
			c1.8,0.7,3.34,1.77,4.62,3.21s1.92,3.38,1.92,5.83c0,2.09-0.57,3.98-1.7,5.67s-2.85,3.04-5.16,4.05c-2.3,1.01-5.11,1.51-8.42,1.51
			C1078.8,391.02,1075.98,390.6,1073.26,389.78z"/>
		<path d="M1118.54,358.62h-12.53v-5.94h32.08v5.94h-12.53v31.86h-7.02L1118.54,358.62L1118.54,358.62z"/>
		<path d="M1153.66,386.62c-2.92-2.93-4.37-7.14-4.37-12.61v-21.33h7.02v21.06c0,7.42,3.2,11.12,9.61,11.12
			c6.37,0,9.56-3.71,9.56-11.12v-21.06h6.91v21.33c0,5.47-1.45,9.68-4.35,12.61s-6.96,4.4-12.18,4.4
			C1160.65,391.02,1156.58,389.55,1153.66,386.62z"/>
		<path d="M1198.11,352.68h16.52c4.03,0,7.61,0.78,10.75,2.35c3.13,1.57,5.56,3.78,7.29,6.64c1.73,2.86,2.59,6.17,2.59,9.91
			s-0.86,7.05-2.59,9.91s-4.16,5.08-7.29,6.64s-6.71,2.35-10.75,2.35h-16.52V352.68z M1214.31,384.54c2.77,0,5.21-0.53,7.32-1.59
			s3.73-2.57,4.86-4.54c1.13-1.96,1.7-4.24,1.7-6.83s-0.57-4.87-1.7-6.83c-1.13-1.96-2.75-3.47-4.86-4.54
			c-2.11-1.06-4.54-1.59-7.32-1.59h-9.18v25.92L1214.31,384.54L1214.31,384.54z"/>
		<path d="M1248.86,352.68h7.02v37.8h-7.02V352.68z"/>
		<path d="M1279.42,388.51c-3.1-1.67-5.53-4-7.29-6.97s-2.65-6.29-2.65-9.96s0.88-6.99,2.65-9.96c1.76-2.97,4.19-5.29,7.29-6.97
			c3.1-1.67,6.57-2.51,10.42-2.51c3.85,0,7.33,0.84,10.42,2.51c3.1,1.67,5.53,3.99,7.29,6.94s2.65,6.28,2.65,9.99
			c0,3.71-0.88,7.04-2.65,9.99c-1.76,2.95-4.19,5.27-7.29,6.94c-3.1,1.67-6.57,2.51-10.42,2.51S1282.52,390.18,1279.42,388.51z
			 M1296.65,383.16c2.02-1.13,3.6-2.72,4.75-4.75s1.73-4.31,1.73-6.83s-0.58-4.8-1.73-6.83c-1.15-2.03-2.74-3.62-4.75-4.75
			c-2.02-1.13-4.28-1.7-6.8-1.7s-4.79,0.57-6.8,1.7c-2.02,1.13-3.6,2.72-4.75,4.75c-1.15,2.03-1.73,4.31-1.73,6.83
			s0.58,4.8,1.73,6.83s2.74,3.62,4.75,4.75c2.02,1.13,4.28,1.7,6.8,1.7C1292.36,384.86,1294.63,384.29,1296.65,383.16z"/>
		<path d="M1327.01,389.78c-2.72-0.83-4.87-1.93-6.45-3.29l2.43-5.45c1.55,1.22,3.45,2.22,5.7,3c2.25,0.77,4.51,1.16,6.78,1.16
			c2.81,0,4.9-0.45,6.29-1.35c1.39-0.9,2.08-2.09,2.08-3.56c0-1.08-0.39-1.97-1.16-2.67s-1.75-1.25-2.94-1.65s-2.81-0.85-4.86-1.35
			c-2.88-0.68-5.21-1.37-6.99-2.05s-3.31-1.75-4.59-3.21c-1.28-1.46-1.92-3.43-1.92-5.91c0-2.09,0.57-3.99,1.7-5.7
			c1.13-1.71,2.84-3.07,5.13-4.08c2.29-1.01,5.08-1.51,8.4-1.51c2.3,0,4.57,0.29,6.8,0.86c2.23,0.58,4.16,1.4,5.78,2.48l-2.21,5.45
			c-1.66-0.97-3.38-1.71-5.18-2.21s-3.55-0.76-5.24-0.76c-2.77,0-4.83,0.47-6.18,1.4c-1.35,0.94-2.03,2.18-2.03,3.73
			c0,1.08,0.39,1.96,1.16,2.65c0.77,0.68,1.75,1.22,2.94,1.62s2.81,0.85,4.86,1.35c2.81,0.65,5.11,1.32,6.91,2.03
			c1.8,0.7,3.34,1.77,4.62,3.21s1.92,3.38,1.92,5.83c0,2.09-0.57,3.98-1.7,5.67s-2.85,3.04-5.16,4.05c-2.3,1.01-5.11,1.51-8.42,1.51
			C1332.54,391.02,1329.72,390.6,1327.01,389.78z"/>
	</g>
	<rect id="Underline" x="0.28" y="442.47" width="1350" height="10"/>
</g>
</svg>
