<svg viewBox="0 0 512 512" xmlns="http://www.w3.org/2000/svg" fill-rule="evenodd" clip-rule="evenodd" stroke-linejoin="round" stroke-miterlimit="2"><path d="M331 30c0-16.557-13.443-30-30-30h-90c-16.557 0-30 13.443-30 30v90c0 16.557 13.443 30 30 30h90c16.557 0 30-13.443 30-30V30zm0 181c0-16.557-13.443-30-30-30h-90c-16.557 0-30 13.443-30 30v90c0 16.557 13.443 30 30 30h90c16.557 0 30-13.443 30-30v-90zm0 181c0-16.557-13.443-30-30-30h-90c-16.557 0-30 13.443-30 30v90c0 16.557 13.443 30 30 30h90c16.557 0 30-13.443 30-30v-90zM150 30c0-16.557-13.443-30-30-30H30C13.443 0 0 13.443 0 30v90c0 16.557 13.443 30 30 30h90c16.557 0 30-13.443 30-30V30zm0 181c0-16.557-13.443-30-30-30H30c-16.557 0-30 13.443-30 30v90c0 16.557 13.443 30 30 30h90c16.557 0 30-13.443 30-30v-90zm0 181c0-16.557-13.443-30-30-30H30c-16.557 0-30 13.443-30 30v90c0 16.557 13.443 30 30 30h90c16.557 0 30-13.443 30-30v-90zM512 30c0-16.557-13.443-30-30-30h-90c-16.557 0-30 13.443-30 30v90c0 16.557 13.443 30 30 30h90c16.557 0 30-13.443 30-30V30zm0 181c0-16.557-13.443-30-30-30h-90c-16.557 0-30 13.443-30 30v90c0 16.557 13.443 30 30 30h90c16.557 0 30-13.443 30-30v-90zm0 181c0-16.557-13.443-30-30-30h-90c-16.557 0-30 13.443-30 30v90c0 16.557 13.443 30 30 30h90c16.557 0 30-13.443 30-30v-90z" fill="#111"/></svg>