<?xml version="1.0" encoding="utf-8"?>
<!-- Generator: Adobe Illustrator 23.1.0, SVG Export Plug-In . SVG Version: 6.00 Build 0)  -->
<!DOCTYPE svg PUBLIC "-//W3C//DTD SVG 1.1//EN" "http://www.w3.org/Graphics/SVG/1.1/DTD/svg11.dtd" [
	<!ENTITY ns_extend "http://ns.adobe.com/Extensibility/1.0/">
	<!ENTITY ns_ai "http://ns.adobe.com/AdobeIllustrator/10.0/">
	<!ENTITY ns_graphs "http://ns.adobe.com/Graphs/1.0/">
	<!ENTITY ns_vars "http://ns.adobe.com/Variables/1.0/">
	<!ENTITY ns_imrep "http://ns.adobe.com/ImageReplacement/1.0/">
	<!ENTITY ns_sfw "http://ns.adobe.com/SaveForWeb/1.0/">
	<!ENTITY ns_custom "http://ns.adobe.com/GenericCustomNamespace/1.0/">
	<!ENTITY ns_adobe_xpath "http://ns.adobe.com/XPath/1.0/">
]>
<svg version="1.1" id="Layer_1" xmlns:x="&ns_extend;" xmlns:i="&ns_ai;" xmlns:graph="&ns_graphs;"
	 xmlns="http://www.w3.org/2000/svg" xmlns:xlink="http://www.w3.org/1999/xlink" x="0px" y="0px" viewBox="0 0 300 750"
	 style="enable-background:new 0 0 300 750;" xml:space="preserve">
<metadata>
	<sfw  xmlns="&ns_sfw;">
		<slices></slices>
		<sliceSourceBounds  bottomLeftOrigin="true" height="683.15" width="210" x="466.12" y="-2978.02"></sliceSourceBounds>
	</sfw>
</metadata>
<g>
	<path style="fill:#FFFFFF;" d="M224.7,704.54c-9.28,8.32-24.24,12.48-44.88,12.48h-20.16v-40.56h25.68
		c10.24,0,15.36-3.28,15.36-9.84c0-3.68-1.08-6.24-3.24-7.68c-2.16-1.44-5.8-2.16-10.92-2.16c-6.72,0-12.28,0.8-16.68,2.4
		c-4.4,1.6-8.08,3.64-11.04,6.12c-2.96,2.48-7.56,6.92-13.8,13.32l-17.76,17.76c-13.44,13.76-28.32,20.64-44.64,20.64
		c-17.6,0-31-4.04-40.2-12.12c-9.2-8.08-13.8-19.88-13.8-35.4c0-18.56,4.92-31.92,14.76-40.08c9.84-8.16,25.24-12.24,46.2-12.24v42
		l-14.16,0.24c-2.72,0-4.88,0.76-6.48,2.28c-1.6,1.52-2.4,3.64-2.4,6.36c0,3.2,0.88,5.6,2.64,7.2c1.76,1.6,4.16,2.4,7.2,2.4
		c6.72,0,13.68-3.84,20.88-11.52l23.04-24c5.44-5.6,10.6-10.24,15.48-13.92c4.88-3.68,10.64-6.64,17.28-8.88
		c6.64-2.24,14.52-3.36,23.64-3.36c20.32,0,35.72,3.72,46.2,11.16c10.48,7.44,15.72,19.72,15.72,36.84
		C238.62,682.7,233.98,696.22,224.7,704.54z"/>
	<path style="fill:#FFFFFF;" d="M231.66,591.98c-4.64,4.16-12.08,6.24-22.32,6.24H99.66v11.76H67.74v-11.76h-37.2v-40.8h37.2v-12
		h31.92v12h98.64c3.04,0,5.28-0.24,6.72-0.72c1.44-0.48,2.16-1.76,2.16-3.84c0-1.6-0.08-3.12-0.24-4.56
		c-0.16-1.44-0.24-2.4-0.24-2.88h28.8c0.64,2.4,1.32,5.88,2.04,10.44c0.72,4.56,1.08,9,1.08,13.32
		C238.62,580.22,236.3,587.82,231.66,591.98z"/>
	<path style="fill:#FFFFFF;" d="M176.94,542.63h-27.12v-60.48h27.12V542.63z"/>
	<path style="fill:#FFFFFF;" d="M233.1,448.68c-3.68,7.68-9.08,13.72-16.2,18.12c-7.12,4.4-15.72,6.6-25.8,6.6h-51.6v-40.56h49.2
		c3.68,0,6.6-0.76,8.76-2.28c2.16-1.52,3.24-3.88,3.24-7.08c0-3.04-1-5.32-3-6.84c-2-1.52-4.84-2.28-8.52-2.28H30.54v-41.52H185.1
		c10.72,0,20.12,2.12,28.2,6.36c8.08,4.24,14.32,10.16,18.72,17.76c4.4,7.6,6.6,16.28,6.6,26.04
		C238.62,432.44,236.78,441,233.1,448.68z"/>
	<path style="fill:#FFFFFF;" d="M223.74,351.86c-9.92,7.84-24.72,11.76-44.4,11.76h-70.56c-16.16,0-28.48-4.64-36.96-13.92
		c-8.48-9.28-12.72-22.24-12.72-38.88c0-33.76,16.56-50.64,49.68-50.64h12.72c12.8,0,23.2,0.16,31.2,0.48v60.96h34.08
		c6.08,0,10.84-0.64,14.28-1.92c3.44-1.28,5.16-4,5.16-8.16c0-3.2-0.96-5.48-2.88-6.84c-1.92-1.36-4.12-2.16-6.6-2.4
		c-2.48-0.24-6.12-0.36-10.92-0.36h-17.04v-41.76h10.08c20.48,0,35.56,3.96,45.24,11.88c9.68,7.92,14.52,21.56,14.52,40.92
		C238.62,331.07,233.66,344.03,223.74,351.86z M131.82,301.94h-22.56c-12.64,0-18.96,3.12-18.96,9.36c0,7.04,6.32,10.56,18.96,10.56
		h22.56V301.94z"/>
	<path style="fill:#FFFFFF;" d="M225.06,244.59c-9.04,5.04-21.96,7.56-38.76,7.56c-13.76,0-24.32-1.8-31.68-5.4
		c-7.36-3.6-12.76-8.6-16.2-15c-3.44-6.4-7.24-16.16-11.4-29.28l-3.84-11.52h-0.48h-17.52c-4.64,0-8.2,0.92-10.68,2.76
		c-2.48,1.84-3.72,4.04-3.72,6.6c0,2.24,1.04,4.2,3.12,5.88c2.08,1.68,4.88,2.52,8.4,2.52h10.56v40.8h-5.76
		c-17.28,0-29.6-4.04-36.96-12.12c-7.36-8.08-11.04-21.24-11.04-39.48c0-14.56,3.8-26.4,11.4-35.52
		c7.6-9.12,18.36-13.68,32.28-13.68H236.7v41.76h-20.88c7.2,2.08,12.8,5.4,16.8,9.96c4,4.56,6,9.96,6,16.2
		C238.62,230.23,234.1,239.55,225.06,244.59z M202.02,193.23c-2.64-1.36-5.88-2.04-9.72-2.04h-48.96c2.4,6.24,5.44,10.84,9.12,13.8
		c3.68,2.96,8.8,4.44,15.36,4.44h22.56c10.4,0,15.6-3.12,15.6-9.36C205.98,196.87,204.66,194.59,202.02,193.23z"/>
	<path style="fill:#FFFFFF;" d="M61.02,137.07v-42h22.32c-7.2-1.76-13.04-4.8-17.52-9.12c-4.48-4.32-6.72-10.08-6.72-17.28
		c0-11.84,3.64-20.6,10.92-26.28c7.28-5.68,17.64-8.52,31.08-8.52h135.6v41.28H105.42c-3.84,0-7.12,0.76-9.84,2.28
		c-2.72,1.52-4.08,3.88-4.08,7.08c0,4.32,1.96,7.16,5.88,8.52c3.92,1.36,9.16,2.04,15.72,2.04h123.6v42H61.02z"/>
</g>
<g>
</g>
<g>
</g>
<g>
</g>
<g>
</g>
<g>
</g>
<g>
</g>
<g>
</g>
<g>
</g>
<g>
</g>
<g>
</g>
<g>
</g>
</svg>
