<svg xmlns="http://www.w3.org/2000/svg" viewBox="0 0 128 1024"><path d="M116.8 1001.5l-104.9 12.9v-20l71.4-7.7-71.4-6.8v-20l104.9 12.9v28.7zm0-44.8H12v-20.3h104.8v20.3zm-6.1-30.4c-4.7 4.2-12.3 6.3-22.8 6.3H77.7V912h13.1c5.2 0 7.8-1.7 7.8-5 0-1.9-.5-3.2-1.6-3.9-1.1-.7-2.9-1.1-5.6-1.1-3.4 0-6.2.4-8.5 1.2-2.2.8-4.1 1.9-5.6 3.1-1.5 1.3-3.8 3.5-7 6.8l-9 9c-6.8 7-14.4 10.5-22.7 10.5-8.9 0-15.8-2.1-20.4-6.2-4.7-4.1-7-10.1-7-18 0-9.4 2.5-16.2 7.5-20.4s12.8-6.2 23.5-6.2v21.4l-7.2.1c-1.4 0-2.5.4-3.3 1.2-.8.8-1.2 1.9-1.2 3.2 0 1.6.4 2.8 1.3 3.7.9.8 2.1 1.2 3.7 1.2 3.4 0 7-2 10.6-5.9l11.7-12.2c2.8-2.8 5.4-5.2 7.9-7.1 2.5-1.9 5.4-3.4 8.8-4.5 3.4-1.1 7.4-1.7 12-1.7 10.3 0 18.2 1.9 23.5 5.7 5.3 3.8 8 10 8 18.7-.2 9.6-2.6 16.5-7.3 20.7zm6.1-48.7H12v-20.3h104.8v20.3zm0-35.9H32.2v12.4H12v-45.9h20.1v12.4h84.7v21.1zm0-37H12v-42h20.3v20.6h20.4v-19.8h19.8v19.8h24v-22h20.4v43.4zm0-86L11.9 731.6v-20l71.4-7.7-71.4-6.8v-20L116.8 690v28.7zm0-44.8H12v-20.3h104.8v20.3zM12 648.6v-32.2c0-5.1 1.2-9.1 3.5-11.9s5.6-4.7 9.8-5.7c4.2-1 9.5-1.5 16-1.5 5.9 0 10.6.8 13.9 2.3 3.3 1.5 5.7 4.2 7 8.1.7-3.2 2.2-5.5 4.8-6.9 2.5-1.4 5.9-2.1 10.2-2.1l39.7.2v20.5h-41c-2.9 0-4.8.6-5.6 1.7-.8 1.1-1.2 3.2-1.2 6.2h47.8v21.2H12zm38.8-26.4c0-2.9-3.2-4.4-9.5-4.4-2.8 0-4.8.1-6.2.4-1.4.2-2.3.7-2.9 1.3-.5.7-.8 1.6-.8 2.8v4.9h19.4v-5zm66-39.7H32.2v12.4H12V549h20.1v12.4h84.7v21.1zm-6.3-42.7c-4.9 4.2-12.1 6.3-21.7 6.3H12v-20.4h75.9c3.3 0 5.9-.3 7.8-1 1.9-.6 2.8-2 2.8-4.1 0-2.1-.9-3.5-2.7-4.1-1.8-.7-4.5-1-7.9-1H12v-20.4h76.7c9.6 0 16.8 2.1 21.7 6.3 4.9 4.2 7.3 10.6 7.3 19.2.1 8.6-2.3 15-7.2 19.2zm6.3-49.5H12v-42h20.3v20.6h20.4v-19.8h19.8v19.8h24v-22h20.4v43.4zm0-47.4H12v-21h87v-21.6h17.8v42.6zm0-46.2H12v-21h87v-21.6h17.8v42.6zm0-46.2H12v-42h20.3v20.6h20.4v-19.8h19.8v19.8h24v-22h20.4v43.4z"/></svg>