<?xml version="1.0" encoding="utf-8"?>
<!-- Generator: Adobe Illustrator 23.1.0, SVG Export Plug-In . SVG Version: 6.00 Build 0)  -->
<svg version="1.1" xmlns="http://www.w3.org/2000/svg" xmlns:xlink="http://www.w3.org/1999/xlink" x="0px" y="0px"
	 viewBox="0 0 128 1024" style="enable-background:new 0 0 128 1024;" xml:space="preserve">
<g id="H1_Artist_Names">
	<g>
		<path d="M116.8,1001.5l-104.9,12.9v-20l71.4-7.7l-71.4-6.8v-20l104.9,12.9V1001.5z"/>
		<path d="M116.8,956.7H12v-20.3h104.8V956.7z"/>
		<path d="M110.7,926.3c-4.7,4.2-12.3,6.3-22.8,6.3H77.7V912h13.1c5.2,0,7.8-1.7,7.8-5c0-1.9-0.5-3.2-1.6-3.9
			c-1.1-0.7-2.9-1.1-5.6-1.1c-3.4,0-6.2,0.4-8.5,1.2c-2.2,0.8-4.1,1.9-5.6,3.1c-1.5,1.3-3.8,3.5-7,6.8l-9,9
			c-6.8,7-14.4,10.5-22.7,10.5c-8.9,0-15.8-2.1-20.4-6.2c-4.7-4.1-7-10.1-7-18c0-9.4,2.5-16.2,7.5-20.4s12.8-6.2,23.5-6.2v21.4
			l-7.2,0.1c-1.4,0-2.5,0.4-3.3,1.2c-0.8,0.8-1.2,1.9-1.2,3.2c0,1.6,0.4,2.8,1.3,3.7c0.9,0.8,2.1,1.2,3.7,1.2c3.4,0,7-2,10.6-5.9
			l11.7-12.2c2.8-2.8,5.4-5.2,7.9-7.1c2.5-1.9,5.4-3.4,8.8-4.5c3.4-1.1,7.4-1.7,12-1.7c10.3,0,18.2,1.9,23.5,5.7
			c5.3,3.8,8,10,8,18.7C117.8,915.2,115.4,922.1,110.7,926.3z"/>
		<path d="M116.8,877.6H12v-20.3h104.8V877.6z"/>
		<path d="M116.8,841.7H32.2v12.4H12v-45.9h20.1v12.4h84.7V841.7z"/>
		<path d="M116.8,804.7H12v-42h20.3v20.6h20.4v-19.8h19.8v19.8h24v-22h20.4V804.7z"/>
		<path d="M116.8,718.7L11.9,731.6v-20l71.4-7.7l-71.4-6.8v-20L116.8,690V718.7z"/>
		<path d="M116.8,673.9H12v-20.3h104.8V673.9z"/>
		<path d="M12,648.6v-32.2c0-5.1,1.2-9.1,3.5-11.9s5.6-4.7,9.8-5.7c4.2-1,9.5-1.5,16-1.5c5.9,0,10.6,0.8,13.9,2.3
			c3.3,1.5,5.7,4.2,7,8.1c0.7-3.2,2.2-5.5,4.8-6.9c2.5-1.4,5.9-2.1,10.2-2.1l39.7,0.2v20.5h-41c-2.9,0-4.8,0.6-5.6,1.7
			c-0.8,1.1-1.2,3.2-1.2,6.2h47.8v21.2H12z M50.8,622.2c0-2.9-3.2-4.4-9.5-4.4c-2.8,0-4.8,0.1-6.2,0.4c-1.4,0.2-2.3,0.7-2.9,1.3
			c-0.5,0.7-0.8,1.6-0.8,2.8v4.9h19.4V622.2z"/>
		<path d="M116.8,582.5H32.2v12.4H12v-45.9h20.1v12.4h84.7V582.5z"/>
		<path d="M110.5,539.8c-4.9,4.2-12.1,6.3-21.7,6.3H12v-20.4h75.9c3.3,0,5.9-0.3,7.8-1c1.9-0.6,2.8-2,2.8-4.1c0-2.1-0.9-3.5-2.7-4.1
			c-1.8-0.7-4.5-1-7.9-1H12v-20.4h76.7c9.6,0,16.8,2.1,21.7,6.3c4.9,4.2,7.3,10.6,7.3,19.2C117.8,529.2,115.4,535.6,110.5,539.8z"/>
		<path d="M116.8,490.3H12v-42h20.3v20.6h20.4v-19.8h19.8v19.8h24v-22h20.4V490.3z"/>
		<path d="M116.8,442.9H12v-21h87v-21.6h17.8V442.9z"/>
		<path d="M116.8,396.7H12v-21h87v-21.6h17.8V396.7z"/>
		<path d="M116.8,350.5H12v-42h20.3v20.6h20.4v-19.8h19.8v19.8h24v-22h20.4V350.5z"/>
	</g>
</g>
<g id="Guides">
</g>
</svg>
