<?xml version="1.0" encoding="utf-8"?>
<!-- Generator: Adobe Illustrator 23.1.0, SVG Export Plug-In . SVG Version: 6.00 Build 0)  -->
<!DOCTYPE svg PUBLIC "-//W3C//DTD SVG 1.1//EN" "http://www.w3.org/Graphics/SVG/1.1/DTD/svg11.dtd" [
	<!ENTITY ns_extend "http://ns.adobe.com/Extensibility/1.0/">
	<!ENTITY ns_ai "http://ns.adobe.com/AdobeIllustrator/10.0/">
	<!ENTITY ns_graphs "http://ns.adobe.com/Graphs/1.0/">
	<!ENTITY ns_vars "http://ns.adobe.com/Variables/1.0/">
	<!ENTITY ns_imrep "http://ns.adobe.com/ImageReplacement/1.0/">
	<!ENTITY ns_sfw "http://ns.adobe.com/SaveForWeb/1.0/">
	<!ENTITY ns_custom "http://ns.adobe.com/GenericCustomNamespace/1.0/">
	<!ENTITY ns_adobe_xpath "http://ns.adobe.com/XPath/1.0/">
]>
<svg version="1.1" id="Layer_1" xmlns:x="&ns_extend;" xmlns:i="&ns_ai;" xmlns:graph="&ns_graphs;"
	 xmlns="http://www.w3.org/2000/svg" xmlns:xlink="http://www.w3.org/1999/xlink" x="0px" y="0px" viewBox="0 0 300 665"
	 style="enable-background:new 0 0 300 665;" xml:space="preserve">
<metadata>
	<sfw  xmlns="&ns_sfw;">
		<slices></slices>
		<sliceSourceBounds  bottomLeftOrigin="true" height="597.71" width="242.4" x="466.3" y="-2979.94"></sliceSourceBounds>
	</sfw>
</metadata>
<g>
	<path style="fill:#FFFFFF;" d="M245.52,611.86L39.36,633.94v-40.32l130.08-11.52L39.36,570.58v-38.4l130.08-11.04L39.36,510.1
		v-40.8l206.16,22.56v49.44l-99.36,10.32l99.36,9.84V611.86z"/>
	<path style="fill:#FFFFFF;" d="M69.84,462.67v-42h19.44c-6.88-2.08-12.2-5.72-15.96-10.92c-3.76-5.2-5.64-11.64-5.64-19.32h35.04
		c0,5.92,0.84,12.44,2.52,19.56c1.68,7.12,3.64,10.68,5.88,10.68h134.4v42H69.84z"/>
	<path style="fill:#FFFFFF;" d="M58.08,383.04H28.8v-42h29.28V383.04z M245.52,383.04H69.84v-42h175.68V383.04z"/>
	<path style="fill:#FFFFFF;" d="M268.2,312.39c-2,7.12-5.8,14.12-11.4,21l-24.24-14.4c6.08-10.24,9.12-20.4,9.12-30.48
		c0-6.56-2.08-11.52-6.24-14.88c-4.16-3.36-9.84-5.04-17.04-5.04h-9.6c12,3.36,18,12.24,18,26.64c0,12-4.08,20.84-12.24,26.52
		c-8.16,5.68-19.04,8.52-32.64,8.52h-66c-15.52,0-27.4-2.6-35.64-7.8c-8.24-5.2-12.36-14.28-12.36-27.24
		c0-7.52,1.88-13.48,5.64-17.88c3.76-4.4,9.08-7.32,15.96-8.76H69.84v-42.96h145.92c19.68,0,33.84,4.56,42.48,13.68
		s12.96,23.68,12.96,43.68C271.2,295.47,270.2,305.27,268.2,312.39z M177.36,268.59h-62.64c-3.52,0-6.88,0.96-10.08,2.88
		c-3.2,1.92-4.8,4.32-4.8,7.2c0,3.68,1.32,6.16,3.96,7.44c2.64,1.28,6.28,1.92,10.92,1.92h62.64c5.28,0,9.56-0.64,12.84-1.92
		c3.28-1.28,4.92-3.84,4.92-7.68C195.12,271.87,189.2,268.59,177.36,268.59z"/>
	<path style="fill:#FFFFFF;" d="M38.16,213.82v-43.2h48.96c-12.8-4.48-19.2-13.04-19.2-25.68c0-11.84,3.76-20.8,11.28-26.88
		c7.52-6.08,17.84-9.12,30.96-9.12h135.36v42H112.8c-3.84,0-6.96,0.88-9.36,2.64c-2.4,1.76-3.6,4.32-3.6,7.68
		c0,2.88,1.24,5.16,3.72,6.84c2.48,1.68,5.48,2.52,9,2.52h132.96v43.2H38.16z"/>
	<path style="fill:#FFFFFF;" d="M240.48,82.78c-4.64,4.16-12.08,6.24-22.32,6.24H108.48v11.76H76.56V89.02h-37.2v-40.8h37.2v-12
		h31.92v12h98.64c3.04,0,5.28-0.24,6.72-0.72c1.44-0.48,2.16-1.76,2.16-3.84c0-1.6-0.08-3.12-0.24-4.56
		c-0.16-1.44-0.24-2.4-0.24-2.88h28.8c0.64,2.4,1.32,5.88,2.04,10.44c0.72,4.56,1.08,9,1.08,13.32
		C247.44,71.02,245.12,78.62,240.48,82.78z"/>
</g>
<g>
</g>
<g>
</g>
<g>
</g>
<g>
</g>
<g>
</g>
<g>
</g>
<g>
</g>
<g>
</g>
<g>
</g>
<g>
</g>
<g>
</g>
</svg>
