<?xml version="1.0" encoding="utf-8"?>
<svg version="1.1" xmlns="http://www.w3.org/2000/svg" xmlns:xlink="http://www.w3.org/1999/xlink" x="0px" y="0px"
	 viewBox="0 0 128 1024" style="enable-background:new 0 0 128 1024;" xml:space="preserve">
<g id="H1_Oeuvres_d_art">
	<g>
		<path d="M91.201,1014.291H36.057c-8.701,0-14.884-2.825-18.544-8.479c-3.659-5.651-5.489-13.725-5.489-24.217v-39.894h18.422
			v20.008h21.838v-19.154h17.812v19.154h28.183v-21.35h18.544v40.748C116.821,1003.23,108.281,1014.291,91.201,1014.291z
			 M98.277,983.059H30.445v3.294c0,2.278,0.713,4.048,2.135,5.308c1.424,1.262,3.396,1.891,5.917,1.891h49.776
			c2.928,0,5.328-0.568,7.198-1.708c1.871-1.138,2.806-2.847,2.806-5.124V983.059z"/>
		<path d="M110.478,930.697c-4.88,4.19-12.118,6.283-21.716,6.283H12.023v-20.373h75.884c3.336,0,5.938-0.324,7.808-0.977
			c1.872-0.65,2.807-2.031,2.807-4.148c0-2.113-0.915-3.496-2.745-4.147c-1.83-0.649-4.453-0.976-7.869-0.976H12.023v-20.375h76.738
			c9.598,0,16.836,2.096,21.716,6.283c4.88,4.19,7.319,10.596,7.319,19.215C117.797,920.105,115.357,926.51,110.478,930.697z"/>
		<path d="M116.821,870.04l-104.92,12.933v-20.009l71.37-7.687l-71.37-6.832v-20.008l104.92,12.933V870.04z"/>
		<path d="M12.023,824.889V792.68c0-5.123,1.158-9.088,3.477-11.895c2.318-2.806,5.572-4.697,9.76-5.673
			c4.19-0.976,9.537-1.464,16.043-1.464c5.938,0,10.574,0.773,13.908,2.318c3.336,1.545,5.654,4.229,6.954,8.052
			c0.652-3.173,2.238-5.47,4.758-6.894c2.522-1.422,5.938-2.135,10.248-2.135l39.65,0.244v20.496H75.829
			c-2.928,0-4.798,0.57-5.612,1.708c-0.812,1.14-1.22,3.214-1.22,6.222h47.824v21.229H12.023z M50.819,798.537
			c0-2.929-3.172-4.393-9.517-4.393c-2.764,0-4.838,0.122-6.222,0.365c-1.382,0.244-2.337,0.692-2.867,1.343
			c-0.528,0.651-0.793,1.586-0.793,2.806v4.881h19.398V798.537z"/>
		<path d="M116.821,769.525H12.023v-41.967h20.252v20.617h20.374v-19.764h19.764v19.764h24.034v-21.959h20.374V769.525z"/>
		<path d="M110.722,716.885c-4.717,4.229-12.322,6.344-22.814,6.344H77.659V702.61h13.054c5.206,0,7.809-1.666,7.809-5.002
			c0-1.87-0.549-3.172-1.647-3.903c-1.098-0.732-2.947-1.099-5.551-1.099c-3.416,0-6.241,0.408-8.479,1.22
			c-2.236,0.814-4.106,1.852-5.612,3.111c-1.505,1.262-3.844,3.52-7.016,6.771l-9.027,9.027
			c-6.832,6.996-14.396,10.492-22.692,10.492c-8.946,0-15.757-2.053-20.435-6.161c-4.677-4.106-7.016-10.104-7.016-17.995
			c0-9.434,2.501-16.226,7.503-20.373c5.002-4.148,12.831-6.223,23.485-6.223v21.35l-7.198,0.123c-1.382,0-2.479,0.387-3.294,1.158
			c-0.812,0.773-1.22,1.852-1.22,3.232c0,1.629,0.448,2.849,1.342,3.66c0.896,0.814,2.116,1.221,3.66,1.221
			c3.416,0,6.954-1.952,10.614-5.855l11.712-12.201c2.766-2.846,5.389-5.203,7.869-7.076c2.481-1.869,5.409-3.373,8.783-4.514
			c3.376-1.138,7.382-1.707,12.018-1.707c10.33,0,18.159,1.891,23.485,5.672c5.327,3.782,7.99,10.025,7.99,18.728
			C117.797,705.783,115.439,712.656,110.722,716.885z"/>
		<path d="M12.023,638.805v-28.913c0-7.482,2.073-13.095,6.222-16.837c4.147-3.739,10.29-5.651,18.422-5.733l49.044-0.243
			c10.33-0.08,18.099,1.707,23.303,5.367c5.206,3.66,7.808,9.721,7.808,18.178v28.182H12.023z M98.277,614.039
			c0-3.822-1.87-5.734-5.612-5.734H38.619c-2.358,0-4.127,0.184-5.307,0.55c-1.179,0.366-1.972,1.037-2.38,2.013
			c-0.405,0.977-0.609,2.482-0.609,4.514v2.318h67.954V614.039z"/>
		<path d="M42.767,579.867l-14.151-3.904v7.564h-17.69v-22.326h17.202l14.64,6.101V579.867z"/>
		<path d="M116.821,562.568L12.023,552.443v-35.502l104.798-10.004v19.885l-16.958,1.465v12.688l16.958,1.221V562.568z
			 M83.149,539.389v-9.516l-53.314,4.636v0.976L83.149,539.389z"/>
		<path d="M12.023,503.083v-32.208c0-5.124,1.158-9.089,3.477-11.895c2.318-2.806,5.572-4.697,9.76-5.673
			c4.19-0.976,9.537-1.464,16.043-1.464c5.938,0,10.574,0.774,13.908,2.318c3.336,1.546,5.654,4.23,6.954,8.052
			c0.652-3.172,2.238-5.469,4.758-6.893c2.522-1.422,5.938-2.135,10.248-2.135l39.65,0.244v20.496H75.829
			c-2.928,0-4.798,0.57-5.612,1.708c-0.812,1.14-1.22,3.214-1.22,6.222h47.824v21.228H12.023z M50.819,476.731
			c0-2.928-3.172-4.392-9.517-4.392c-2.764,0-4.838,0.122-6.222,0.366c-1.382,0.244-2.337,0.692-2.867,1.342
			c-0.528,0.652-0.793,1.586-0.793,2.806v4.88h19.398V476.731z"/>
		<path d="M116.821,437.009H32.153v12.444h-20.13v-45.872h20.13v12.444h84.668V437.009z"/>
	</g>
</g>
</svg>
