<svg xmlns="http://www.w3.org/2000/svg" viewBox="0 0 128 1024"><path d="M91.201 1014.291H36.057c-8.701 0-14.884-2.825-18.544-8.479-3.659-5.651-5.489-13.725-5.489-24.217v-39.894h18.422v20.008h21.838v-19.154h17.812v19.154h28.183v-21.35h18.544v40.748c-.002 22.123-8.542 33.184-25.622 33.184zm7.076-31.232H30.445v3.294c0 2.278.713 4.048 2.135 5.308 1.424 1.262 3.396 1.891 5.917 1.891h49.776c2.928 0 5.328-.568 7.198-1.708 1.871-1.138 2.806-2.847 2.806-5.124v-3.661zm12.201-52.362c-4.88 4.19-12.118 6.283-21.716 6.283H12.023v-20.373h75.884c3.336 0 5.938-.324 7.808-.977 1.872-.65 2.807-2.031 2.807-4.148 0-2.113-.915-3.496-2.745-4.147-1.83-.649-4.453-.976-7.869-.976H12.023v-20.375h76.738c9.598 0 16.836 2.096 21.716 6.283 4.88 4.19 7.319 10.596 7.319 19.215.001 8.623-2.439 15.028-7.318 19.215zm6.343-60.657l-104.92 12.933v-20.009l71.37-7.687-71.37-6.832v-20.008l104.92 12.933v28.67zM12.023 824.889V792.68c0-5.123 1.158-9.088 3.477-11.895 2.318-2.806 5.572-4.697 9.76-5.673 4.19-.976 9.537-1.464 16.043-1.464 5.938 0 10.574.773 13.908 2.318 3.336 1.545 5.654 4.229 6.954 8.052.652-3.173 2.238-5.47 4.758-6.894 2.522-1.422 5.938-2.135 10.248-2.135l39.65.244v20.496H75.829c-2.928 0-4.798.57-5.612 1.708-.812 1.14-1.22 3.214-1.22 6.222h47.824v21.229H12.023zm38.796-26.352c0-2.929-3.172-4.393-9.517-4.393-2.764 0-4.838.122-6.222.365-1.382.244-2.337.692-2.867 1.343-.528.651-.793 1.586-.793 2.806v4.881h19.398v-5.002zm66.002-29.012H12.023v-41.967h20.252v20.617h20.374v-19.764h19.764v19.764h24.034v-21.959h20.374v43.309zm-6.099-52.64c-4.717 4.229-12.322 6.344-22.814 6.344H77.659V702.61h13.054c5.206 0 7.809-1.666 7.809-5.002 0-1.87-.549-3.172-1.647-3.903-1.098-.732-2.947-1.099-5.551-1.099-3.416 0-6.241.408-8.479 1.22-2.236.814-4.106 1.852-5.612 3.111-1.505 1.262-3.844 3.52-7.016 6.771l-9.027 9.027c-6.832 6.996-14.396 10.492-22.692 10.492-8.946 0-15.757-2.053-20.435-6.161-4.677-4.106-7.016-10.104-7.016-17.995 0-9.434 2.501-16.226 7.503-20.373 5.002-4.148 12.831-6.223 23.485-6.223v21.35l-7.198.123c-1.382 0-2.479.387-3.294 1.158-.812.773-1.22 1.852-1.22 3.232 0 1.629.448 2.849 1.342 3.66.896.814 2.116 1.221 3.66 1.221 3.416 0 6.954-1.952 10.614-5.855l11.712-12.201c2.766-2.846 5.389-5.203 7.869-7.076 2.481-1.869 5.409-3.373 8.783-4.514 3.376-1.138 7.382-1.707 12.018-1.707 10.33 0 18.159 1.891 23.485 5.672 5.327 3.782 7.99 10.025 7.99 18.728.001 9.517-2.357 16.39-7.074 20.619zm-98.699-78.08v-28.913c0-7.482 2.073-13.095 6.222-16.837 4.147-3.739 10.29-5.651 18.422-5.733l49.044-.243c10.33-.08 18.099 1.707 23.303 5.367 5.206 3.66 7.808 9.721 7.808 18.178v28.182H12.023zm86.254-24.766c0-3.822-1.87-5.734-5.612-5.734H38.619c-2.358 0-4.127.184-5.307.55-1.179.366-1.972 1.037-2.38 2.013-.405.977-.609 2.482-.609 4.514v2.318h67.954v-3.661zm-55.51-34.172l-14.151-3.904v7.564h-17.69v-22.326h17.202l14.64 6.101v12.565zm74.054-17.299L12.023 552.443v-35.502l104.798-10.004v19.885l-16.958 1.465v12.688l16.958 1.221v20.372zm-33.672-23.179v-9.516l-53.314 4.636v.976l53.314 3.904zm-71.126-36.306v-32.208c0-5.124 1.158-9.089 3.477-11.895 2.318-2.806 5.572-4.697 9.76-5.673 4.19-.976 9.537-1.464 16.043-1.464 5.938 0 10.574.774 13.908 2.318 3.336 1.546 5.654 4.23 6.954 8.052.652-3.172 2.238-5.469 4.758-6.893 2.522-1.422 5.938-2.135 10.248-2.135l39.65.244v20.496H75.829c-2.928 0-4.798.57-5.612 1.708-.812 1.14-1.22 3.214-1.22 6.222h47.824v21.228H12.023zm38.796-26.352c0-2.928-3.172-4.392-9.517-4.392-2.764 0-4.838.122-6.222.366-1.382.244-2.337.692-2.867 1.342-.528.652-.793 1.586-.793 2.806v4.88h19.398v-5.002zm66.002-39.722H32.153v12.444h-20.13v-45.872h20.13v12.444h84.668v20.984z"/></svg>