<?xml version="1.0" encoding="UTF-8" standalone="no"?>
<!DOCTYPE svg PUBLIC "-//W3C//DTD SVG 1.1//EN" "http://www.w3.org/Graphics/SVG/1.1/DTD/svg11.dtd">
<svg width="100%" height="100%" viewBox="0 0 1080 1080" version="1.1" xmlns="http://www.w3.org/2000/svg" xmlns:xlink="http://www.w3.org/1999/xlink" xml:space="preserve" xmlns:serif="http://www.serif.com/" style="fill-rule:evenodd;clip-rule:evenodd;stroke-linejoin:round;stroke-miterlimit:2;">
    <g id="belgo.art" transform="matrix(0.153868,0,0,0.0243428,26.9359,429.791)">
        <path d="M350.426,-0L350.426,2390.53C409.087,1967.72 486.274,1756.31 581.985,1756.31C677.696,1756.31 756.94,1993.73 819.718,2468.59C882.497,2943.44 913.886,3593.93 913.886,4420.04C913.886,5252.66 882.497,5909.65 819.718,6391.01C756.94,6885.38 674.094,7132.56 571.179,7132.56C469.293,7132.56 390.563,6878.87 334.989,6371.49L327.27,6947.17L84.905,6947.17L84.905,-0L350.426,-0ZM500.167,5717.76C546.479,5717.76 582.757,5603.92 609,5376.25C635.243,5148.58 648.365,4823.34 648.365,4400.53C648.365,3984.22 635.243,3662.23 609,3434.56C582.757,3206.89 546.479,3093.05 500.167,3093.05C452.826,3093.05 414.748,3211.77 385.931,3449.19C357.115,3686.62 342.707,4003.73 342.707,4400.53C342.707,4797.32 357.115,5116.06 385.931,5356.74C414.748,5597.42 452.826,5717.76 500.167,5717.76Z" style="fill-rule:nonzero;"/>
        <path d="M1815.42,4624.94L1815.42,4878.63L1234.98,4878.63C1248.36,5568.15 1303.93,5912.9 1401.7,5912.9C1469.63,5912.9 1515.94,5734.02 1540.64,5376.25L1795.35,5483.58C1767.57,6010.48 1719.97,6417.03 1652.56,6703.24C1585.15,6989.45 1502.05,7132.56 1403.25,7132.56C1269.46,7132.56 1163.97,6882.12 1086.78,6381.25C1009.6,5880.38 971.004,5229.89 971.004,4429.8C971.004,3636.21 1009.6,2992.23 1086.78,2497.86C1161.91,2003.49 1262.77,1756.31 1389.35,1756.31C1522.11,1756.31 1626.57,2026.26 1702.73,2566.16C1777.86,3099.56 1815.42,3785.82 1815.42,4624.94ZM1236.52,3873.63L1543.73,3873.63C1531.38,3255.67 1480.95,2946.69 1392.44,2946.69C1303.93,2946.69 1251.96,3255.67 1236.52,3873.63Z" style="fill-rule:nonzero;"/>
        <rect x="1912.68" y="-0" width="265.521" height="6947.17" style="fill-rule:nonzero;"/>
        <path d="M2854.35,2468.59L2863.61,1912.42L3105.98,1912.42L3105.98,6810.57C3105.98,7519.6 3069.44,8070.88 2996.37,8464.43C2923.3,8857.97 2820.39,9054.74 2687.63,9054.74C2458.13,9054.74 2328.97,8498.58 2300.15,7386.25L2550.24,7308.19C2567.73,7672.46 2615.07,7854.6 2692.26,7854.6C2744.74,7854.6 2782.57,7783.05 2805.72,7639.94C2828.88,7496.83 2840.46,7275.67 2840.46,6976.44L2840.46,6303.19C2785.91,6706.49 2711.81,6908.14 2618.16,6908.14C2516.27,6908.14 2433.94,6670.72 2371.16,6195.86C2308.39,5734.02 2277,5106.3 2277,4312.71C2277,3519.12 2308.9,2891.4 2372.71,2429.56C2435.49,1980.73 2516.27,1756.31 2615.07,1756.31C2714.9,1756.31 2794.66,1993.73 2854.35,2468.59ZM2690.71,5561.64C2738.05,5561.64 2775.88,5446.18 2804.18,5215.26C2832.48,4984.34 2846.63,4676.98 2846.63,4293.2C2846.63,3915.92 2832.48,3611.81 2804.18,3380.89C2775.88,3149.97 2738.05,3034.51 2690.71,3034.51C2644.4,3034.51 2608.12,3143.47 2581.88,3361.38C2555.64,3579.29 2542.52,3889.9 2542.52,4293.2C2542.52,4696.5 2555.64,5008.73 2581.88,5229.89C2608.12,5451.06 2644.4,5561.64 2690.71,5561.64Z" style="fill-rule:nonzero;"/>
        <path d="M4060,4439.56C4060,5233.15 4020.38,5880.38 3941.13,6381.25C3861.89,6882.12 3758.97,7132.56 3632.39,7132.56C3505.8,7132.56 3402.89,6882.12 3323.64,6381.25C3244.4,5880.38 3204.78,5233.15 3204.78,4439.56C3204.78,3652.47 3244.4,3008.49 3323.64,2507.62C3402.89,2006.74 3505.8,1756.31 3632.39,1756.31C3758.97,1756.31 3861.89,2006.74 3941.13,2507.62C4020.38,3008.49 4060,3652.47 4060,4439.56ZM3511.98,5522.61C3539.76,5776.3 3579.9,5903.15 3632.39,5903.15C3683.85,5903.15 3724.5,5776.3 3754.34,5522.61C3782.13,5275.43 3796.02,4914.41 3796.02,4439.56C3796.02,3971.21 3781.87,3611.81 3753.57,3361.38C3725.27,3110.94 3684.87,2985.72 3632.39,2985.72C3579.9,2985.72 3539.76,3110.94 3511.98,3361.38C3484.19,3611.81 3470.3,3971.21 3470.3,4439.56C3470.3,4914.41 3484.19,5275.43 3511.98,5522.61Z" style="fill-rule:nonzero;"/>
        <rect x="4144.9" y="5278.68" width="297.939" height="1668.49" style="fill:rgb(155,27,30);fill-rule:nonzero;"/>
        <path d="M5370.62,6947.17L5105.1,6947.17C5092.75,6739.02 5085.03,6556.88 5081.95,6400.77C5026.37,6882.12 4942.5,7122.8 4830.32,7122.8C4743.87,7122.8 4674.92,6982.95 4623.46,6703.24C4572,6423.53 4546.27,6049.5 4546.27,5581.16C4546.27,4755.04 4628.61,4250.91 4793.27,4068.78L5071.14,3756.55L5071.14,3395.53C5071.14,3063.78 5032.03,2897.91 4953.82,2897.91C4915.74,2897.91 4887.44,2945.07 4868.91,3039.39C4850.39,3133.71 4839.07,3288.2 4834.95,3502.86L4586.41,3454.07C4595.67,2875.14 4630.15,2449.07 4689.84,2175.87C4749.53,1902.67 4839.58,1766.07 4959.99,1766.07C5208.02,1766.07 5332.03,2380.77 5332.03,3610.19L5332.03,5786.06C5332.03,6280.43 5344.89,6667.46 5370.62,6947.17ZM4915.22,5990.96C4963.59,5990.96 5002.7,5904.77 5032.55,5732.39C5062.39,5560.02 5077.32,5314.46 5077.32,4995.72L5077.32,4693.24L4907.51,4907.9C4840.61,4998.97 4807.16,5184.36 4807.16,5464.07C4807.16,5815.33 4843.18,5990.96 4915.22,5990.96Z" style="fill:rgb(155,27,30);fill-rule:nonzero;"/>
        <path d="M5907.84,1736.79C5933.57,1736.79 5958.78,1759.56 5983.48,1805.09L5983.48,3288.2C5963.93,3268.68 5944.37,3258.93 5924.82,3258.93C5785.89,3258.93 5716.42,3707.76 5716.42,4605.43L5716.42,6947.17L5450.9,6947.17L5450.9,1912.42L5702.52,1912.42L5705.61,2634.46C5747.81,2036.02 5815.22,1736.79 5907.84,1736.79Z" style="fill:rgb(155,27,30);fill-rule:nonzero;"/>
        <path d="M6583.99,3005.24L6437.34,2975.97L6437.34,5142.08C6437.34,5486.84 6462.55,5659.21 6512.98,5659.21L6583.99,5659.21L6583.99,6947.17L6421.9,6947.17C6329.28,6947.17 6264.44,6828.46 6227.39,6591.03C6190.34,6353.61 6171.82,5942.17 6171.82,5356.74L6171.82,2985.72L6056.04,3005.24L6056.04,1912.42L6171.82,1931.94L6171.82,380.533L6437.34,380.533L6437.34,1941.7L6583.99,1912.42L6583.99,3005.24Z" style="fill:rgb(155,27,30);fill-rule:nonzero;"/>
    </g>
</svg>
