<?xml version="1.0" standalone="no"?>
<!DOCTYPE svg PUBLIC "-//W3C//DTD SVG 20010904//EN"
 "http://www.w3.org/TR/2001/REC-SVG-20010904/DTD/svg10.dtd">
<svg version="1.0" xmlns="http://www.w3.org/2000/svg"
 width="700.000000pt" height="700.000000pt" viewBox="0 0 700.000000 700.000000"
 preserveAspectRatio="xMidYMid meet">
<metadata>
Created by potrace 1.14, written by Peter Selinger 2001-2017
</metadata>
<g transform="translate(0.000000,700.000000) scale(0.100000,-0.100000)"
fill="#000000" stroke="none">
<path d="M260 3665 l0 -556 123 3 122 3 3 38 3 38 36 -32 c60 -52 108 -69 198
-68 91 1 125 11 188 55 184 130 212 504 53 690 -99 116 -293 138 -412 48 l-44
-34 0 185 0 185 -135 0 -135 0 0 -555z m478 41 c15 -8 38 -34 52 -58 20 -36
24 -56 24 -128 0 -139 -46 -200 -150 -200 -40 0 -51 5 -84 38 -56 55 -75 152
-50 244 12 43 53 96 84 108 33 14 94 11 124 -4z"/>
<path d="M2080 3665 l0 -555 135 0 135 0 0 555 0 555 -135 0 -135 0 0 -555z"/>
<path d="M6330 4034 l0 -126 -60 7 -60 7 0 -91 0 -91 60 0 60 0 0 -228 c0
-255 8 -302 61 -346 42 -36 87 -46 227 -53 l122 -6 0 112 0 111 -53 0 c-86 0
-87 3 -87 223 l0 187 70 0 70 0 0 90 0 90 -70 -6 -70 -7 0 127 0 126 -135 0
-135 0 0 -126z"/>
<path d="M1430 3925 c-75 -22 -130 -56 -183 -114 -75 -85 -107 -171 -107 -296
0 -133 41 -235 125 -314 93 -88 179 -116 341 -109 85 3 108 8 166 35 36 17 84
50 106 73 51 52 98 141 80 151 -7 3 -66 9 -130 13 -111 6 -118 5 -128 -15 -20
-36 -70 -59 -130 -59 -86 0 -134 38 -154 123 l-6 27 290 0 290 0 0 48 c0 66
-25 174 -52 230 -36 74 -132 165 -203 192 -78 29 -226 37 -305 15z m218 -204
c22 -11 43 -45 56 -88 l7 -23 -150 0 -151 0 15 38 c9 20 27 48 40 61 38 39
122 44 183 12z"/>
<path d="M2664 3920 c-151 -60 -238 -234 -220 -436 12 -136 65 -242 149 -301
67 -47 105 -58 197 -58 86 1 143 19 193 63 16 14 17 11 17 -61 0 -70 -3 -80
-27 -107 -52 -58 -189 -51 -235 11 -21 28 -24 29 -114 29 -124 0 -154 -7 -154
-34 0 -35 48 -123 83 -152 155 -131 491 -119 629 21 49 49 77 108 89 187 5 35
8 233 7 448 l-3 385 -119 3 c-129 3 -136 1 -136 -51 l0 -29 -31 27 c-60 50
-109 68 -194 72 -63 2 -91 -1 -131 -17z m292 -233 c78 -85 69 -255 -17 -320
-42 -31 -107 -33 -149 -5 -51 34 -72 85 -72 173 0 135 51 199 151 192 47 -3
59 -9 87 -40z"/>
<path d="M3673 3925 c-123 -33 -205 -101 -260 -213 -38 -75 -38 -77 -38 -196
0 -103 4 -130 24 -179 32 -81 115 -168 199 -209 65 -32 70 -33 197 -33 125 0
132 1 197 32 128 60 207 169 230 317 35 226 -101 436 -313 485 -62 15 -174 12
-236 -4z m185 -199 c68 -36 96 -100 95 -222 -2 -151 -54 -219 -166 -211 -47 3
-63 9 -87 32 -65 62 -81 242 -29 336 38 70 122 99 187 65z"/>
<path d="M4980 3927 c-73 -17 -130 -48 -167 -90 -36 -41 -66 -114 -61 -148 3
-24 5 -24 126 -27 107 -2 122 -1 122 13 0 9 13 30 29 46 26 26 36 29 91 29 77
0 110 -27 110 -88 l0 -38 -162 -28 c-223 -38 -295 -72 -340 -159 -22 -44 -26
-144 -8 -192 35 -93 120 -146 246 -153 101 -5 174 14 230 62 l41 35 16 -39 15
-40 131 0 c137 0 142 2 119 43 -9 15 -15 106 -19 292 -4 170 -11 285 -19 310
-18 58 -92 127 -165 155 -74 28 -250 37 -335 17z m248 -518 c-4 -56 -8 -65
-40 -95 -61 -55 -161 -56 -202 -1 -24 32 -15 70 24 98 19 15 155 51 214 58 4
1 6 -27 4 -60z"/>
<path d="M5968 3920 c-21 -11 -50 -36 -65 -55 l-28 -35 -5 42 -5 43 -127 3
-128 3 0 -406 0 -406 133 3 132 3 5 230 c5 252 10 272 69 314 34 24 112 43
161 39 l35 -3 3 114 c2 85 -1 117 -10 123 -25 15 -131 8 -170 -12z"/>
<path d="M4304 3377 c-2 -7 -3 -69 -2 -138 l3 -124 150 0 150 0 0 135 0 135
-148 3 c-115 2 -149 0 -153 -11z"/>
</g>
</svg>
