<?xml version="1.0" standalone="no"?>
<!DOCTYPE svg PUBLIC "-//W3C//DTD SVG 20010904//EN"
 "http://www.w3.org/TR/2001/REC-SVG-20010904/DTD/svg10.dtd">
<svg version="1.0" xmlns="http://www.w3.org/2000/svg"
 width="2560.000000pt" height="2560.000000pt" viewBox="0 0 2560.000000 2560.000000"
 preserveAspectRatio="xMidYMid meet">
<metadata>
Created by potrace 1.11, written by Peter Selinger 2001-2013
</metadata>
<g transform="translate(0.000000,2560.000000) scale(0.100000,-0.100000)"
fill="#000000" stroke="none">
<path d="M22296 22825 c-59 -36 -110 -65 -113 -65 -2 0 -43 -23 -91 -51 -92
-55 -198 -117 -402 -234 -69 -40 -170 -98 -225 -130 -55 -32 -116 -67 -135
-78 -19 -11 -91 -52 -160 -92 -202 -117 -436 -253 -475 -275 -20 -11 -105 -60
-188 -109 -84 -48 -240 -139 -347 -201 -107 -62 -211 -122 -230 -133 -19 -11
-46 -27 -60 -34 -14 -8 -46 -26 -71 -41 -25 -15 -110 -64 -190 -110 -79 -46
-151 -88 -159 -93 -41 -24 -339 -197 -351 -203 -8 -4 -23 -12 -34 -19 -11 -7
-54 -32 -95 -55 -41 -23 -131 -75 -200 -115 l-125 -73 -1 -7913 -1 -7913 36
-22 c20 -13 63 -38 96 -56 33 -18 89 -50 124 -72 34 -21 65 -38 66 -38 3 0 89
-50 150 -87 11 -7 27 -16 35 -20 8 -4 49 -27 90 -51 41 -25 179 -104 305 -177
127 -73 297 -171 378 -219 82 -47 151 -86 155 -86 3 0 13 -6 21 -14 9 -7 41
-27 71 -43 30 -17 100 -56 155 -88 55 -32 186 -108 290 -168 105 -61 204 -118
220 -128 17 -11 37 -22 45 -26 8 -3 31 -16 50 -28 19 -12 55 -33 80 -47 25
-14 142 -82 261 -151 120 -69 233 -135 254 -147 20 -11 149 -86 288 -167 252
-146 287 -166 362 -208 22 -13 83 -48 135 -79 l95 -55 3 5044 c1 2775 1 7315
0 10090 l-3 5045 -109 -65z"/>
<path d="M3209 19230 c-4 -88 0 -1192 4 -1197 4 -3 2053 -6 4554 -7 l4548 -1
1 -4542 1 -4543 -4554 0 c-4329 0 -4553 -1 -4553 -17 -1 -23 -1 -2490 0 -2524
l0 -26 6435 0 6435 0 0 6436 0 6436 -6435 0 c-5714 0 -6435 -2 -6436 -15z"/>
</g>
</svg>
