<?xml version="1.0" standalone="no"?>
<!DOCTYPE svg PUBLIC "-//W3C//DTD SVG 20010904//EN"
 "http://www.w3.org/TR/2001/REC-SVG-20010904/DTD/svg10.dtd">
<svg version="1.0" xmlns="http://www.w3.org/2000/svg"
 width="2014.000000pt" height="2014.000000pt" viewBox="0 0 2014.000000 2014.000000"
 preserveAspectRatio="xMidYMid meet">
<g transform="translate(0.000000,2014.000000) scale(0.100000,-0.100000)"
fill="#000000" stroke="none">
<path d="M15275 13294 c-283 -21 -532 -82 -716 -174 -180 -91 -373 -260 -485
-425 -147 -216 -229 -439 -291 -792 -16 -89 -17 -245 -21 -1788 -2 -1198 0
-1722 8 -1800 33 -322 125 -600 275 -825 65 -98 260 -294 355 -357 279 -187
606 -273 1032 -273 519 0 910 133 1201 409 254 242 394 549 459 1006 10 70 13
459 13 1770 0 1848 3 1758 -61 2045 -108 480 -353 826 -723 1018 -160 84 -335
136 -554 167 -106 15 -399 26 -492 19z m268 -1186 c86 -26 137 -99 173 -248
17 -70 18 -181 21 -1769 4 -1671 3 -1696 -17 -1774 -45 -179 -154 -287 -289
-287 -134 0 -231 94 -288 275 -17 57 -18 138 -18 1745 0 1292 3 1702 12 1756
29 165 73 253 146 291 63 32 171 37 260 11z"/>
<path d="M8135 13260 c-365 -31 -635 -121 -851 -284 -131 -98 -280 -278 -358
-433 -170 -339 -254 -915 -231 -1585 l7 -218 668 0 668 0 5 478 c4 402 7 489
21 552 34 148 88 235 172 276 49 24 62 26 142 22 133 -7 196 -48 248 -163 108
-237 68 -796 -86 -1200 -159 -418 -307 -650 -860 -1345 -427 -537 -558 -725
-693 -996 -208 -416 -273 -687 -284 -1176 l-6 -268 1647 0 1646 0 0 600 0 600
-855 0 c-470 0 -855 2 -855 4 0 12 133 236 204 346 93 142 286 400 421 565
455 552 716 931 849 1229 212 475 284 836 273 1359 -5 256 -17 352 -64 532
-146 559 -532 934 -1091 1060 -194 44 -521 64 -737 45z"/>
<path d="M11585 13238 c-49 -5 -144 -20 -210 -33 -588 -119 -930 -447 -1070
-1027 -44 -181 -56 -299 -62 -575 l-6 -263 662 0 661 0 0 98 c0 53 9 162 19
242 42 316 95 389 291 398 73 4 94 1 138 -18 131 -56 194 -216 194 -495 1
-162 -17 -259 -62 -351 -89 -181 -238 -261 -542 -289 l-68 -7 0 -566 0 -567
80 3 c335 16 520 -177 569 -593 14 -113 14 -590 1 -750 -15 -180 -53 -288
-126 -359 -48 -46 -92 -61 -189 -61 -140 0 -228 47 -277 146 -65 133 -78 254
-78 737 l0 382 -651 0 -651 0 5 -507 c4 -460 6 -521 26 -646 104 -659 377
-1026 890 -1197 339 -113 843 -129 1236 -38 592 136 952 540 1094 1223 43 204
53 321 58 661 10 602 -28 912 -138 1143 -87 183 -208 310 -404 421 l-41 23 86
43 c301 152 440 420 481 929 21 262 -5 625 -60 842 -160 625 -564 967 -1241
1048 -128 16 -473 18 -615 3z"/>
<path d="M3030 10080 l0 -3160 1310 0 1310 0 0 615 0 615 -660 0 -660 0 0 720
0 720 595 0 595 0 0 600 0 600 -595 0 -595 0 0 610 0 610 620 0 620 0 0 615 0
615 -1270 0 -1270 0 0 -3160z"/>
<path d="M5860 10050 l0 -540 575 0 575 0 0 540 0 540 -575 0 -575 0 0 -540z"/>
</g>
</svg>
